G04 #@! TF.GenerationSoftware,KiCad,Pcbnew,5.1.5+dfsg1-2build2*
G04 #@! TF.CreationDate,2021-11-13T08:57:07+00:00*
G04 #@! TF.ProjectId,psion-org2-power,7073696f-6e2d-46f7-9267-322d706f7765,rev?*
G04 #@! TF.SameCoordinates,Original*
G04 #@! TF.FileFunction,Copper,L2,Bot*
G04 #@! TF.FilePolarity,Positive*
%FSLAX46Y46*%
G04 Gerber Fmt 4.6, Leading zero omitted, Abs format (unit mm)*
G04 Created by KiCad (PCBNEW 5.1.5+dfsg1-2build2) date 2021-11-13 08:57:07*
%MOMM*%
%LPD*%
G04 APERTURE LIST*
%ADD10O,1.700000X1.700000*%
%ADD11R,1.700000X1.700000*%
%ADD12C,0.800000*%
%ADD13C,0.500000*%
%ADD14C,0.400000*%
%ADD15C,0.250000*%
G04 APERTURE END LIST*
D10*
X116680000Y-37860000D03*
X116680000Y-40400000D03*
X114140000Y-37860000D03*
X114140000Y-40400000D03*
X111600000Y-37860000D03*
X111600000Y-40400000D03*
X109060000Y-37860000D03*
X109060000Y-40400000D03*
X106520000Y-37860000D03*
X106520000Y-40400000D03*
X103980000Y-37860000D03*
X103980000Y-40400000D03*
X101440000Y-37860000D03*
X101440000Y-40400000D03*
X98900000Y-37860000D03*
D11*
X98900000Y-40400000D03*
D10*
X96140000Y-108720000D03*
X93600000Y-108720000D03*
X96140000Y-111260000D03*
X93600000Y-111260000D03*
X96140000Y-113800000D03*
X93600000Y-113800000D03*
X96140000Y-116340000D03*
X93600000Y-116340000D03*
X96140000Y-118880000D03*
X93600000Y-118880000D03*
X96140000Y-121420000D03*
X93600000Y-121420000D03*
X96140000Y-123960000D03*
X93600000Y-123960000D03*
X96140000Y-126500000D03*
D11*
X93600000Y-126500000D03*
D10*
X96190000Y-82120000D03*
X93650000Y-82120000D03*
X96190000Y-84660000D03*
X93650000Y-84660000D03*
X96190000Y-87200000D03*
X93650000Y-87200000D03*
X96190000Y-89740000D03*
X93650000Y-89740000D03*
X96190000Y-92280000D03*
X93650000Y-92280000D03*
X96190000Y-94820000D03*
X93650000Y-94820000D03*
X96190000Y-97360000D03*
X93650000Y-97360000D03*
X96190000Y-99900000D03*
D11*
X93650000Y-99900000D03*
D10*
X80800000Y-56700000D03*
X80800000Y-54160000D03*
X80800000Y-51620000D03*
X80800000Y-49080000D03*
X80800000Y-46540000D03*
X80800000Y-44000000D03*
X80800000Y-41460000D03*
X80800000Y-38920000D03*
X80800000Y-36380000D03*
X80800000Y-33840000D03*
D11*
X80800000Y-31300000D03*
D10*
X82200000Y-128100000D03*
X82200000Y-125560000D03*
X82200000Y-123020000D03*
X82200000Y-120480000D03*
X82200000Y-117940000D03*
X82200000Y-115400000D03*
X82200000Y-112860000D03*
X82200000Y-110320000D03*
X82200000Y-107780000D03*
X82200000Y-105240000D03*
X82200000Y-102700000D03*
X82200000Y-100160000D03*
X82200000Y-97620000D03*
X82200000Y-95080000D03*
X82200000Y-92540000D03*
X82200000Y-90000000D03*
X82200000Y-87460000D03*
X82200000Y-84920000D03*
X82200000Y-82380000D03*
X82200000Y-79840000D03*
X82200000Y-77300000D03*
X82200000Y-74760000D03*
X82200000Y-72220000D03*
X82200000Y-69680000D03*
X82200000Y-67140000D03*
X82200000Y-64600000D03*
D11*
X82200000Y-62060000D03*
D12*
X86749889Y-111300000D03*
X132500000Y-43800000D03*
X86900000Y-39200000D03*
X84400000Y-39200000D03*
X94900000Y-83900000D03*
X87649909Y-113800000D03*
X88549929Y-117400000D03*
X88099919Y-116300000D03*
X89449949Y-120130916D03*
X88999939Y-118858123D03*
X90349969Y-122800000D03*
X89899959Y-121400000D03*
X91249989Y-125200000D03*
X90759736Y-124328418D03*
X91699999Y-126500000D03*
X94800000Y-110000000D03*
X85213962Y-94631052D03*
X137100000Y-54800000D03*
X137600000Y-44500000D03*
X134651315Y-34565000D03*
X135357464Y-69970144D03*
X135600000Y-33800000D03*
X135600000Y-69000000D03*
D13*
X106000000Y-62574998D03*
X105900000Y-57400000D03*
X106200000Y-65000000D03*
X106875000Y-66354625D03*
X124600000Y-44200000D03*
X136700000Y-47900000D03*
X136411889Y-54300995D03*
X99500000Y-44500000D03*
X99400000Y-48924990D03*
X86700000Y-48300000D03*
X86700000Y-41300000D03*
X103100000Y-55600000D03*
X104300000Y-62525010D03*
X103400000Y-48900000D03*
X107100000Y-48700000D03*
X103000010Y-63600000D03*
X96975000Y-63400000D03*
X83200000Y-48000000D03*
X107100000Y-45100000D03*
D12*
X111400000Y-75200000D03*
X113600000Y-69700000D03*
X113800000Y-68100000D03*
X111465670Y-70753356D03*
D13*
X85900000Y-66000000D03*
X85900000Y-60200000D03*
X98900000Y-57500000D03*
X98900000Y-61000000D03*
X104100000Y-60200000D03*
X104100000Y-55824980D03*
X111900000Y-64900000D03*
X113500000Y-43900000D03*
X113600000Y-58200000D03*
X98900000Y-55100000D03*
X86000000Y-55000000D03*
X106900000Y-75350000D03*
X106900000Y-70600000D03*
X96996405Y-72657908D03*
X109500000Y-73499982D03*
X109539999Y-70645001D03*
X109019773Y-68300000D03*
X109500000Y-42300000D03*
X116700000Y-42300000D03*
X97700233Y-72223437D03*
X108558494Y-72956579D03*
X108218399Y-70613500D03*
X98175485Y-71661463D03*
X109189562Y-72653666D03*
X109133494Y-71214874D03*
X117200000Y-71400000D03*
X93200000Y-61900000D03*
X95400000Y-58400000D03*
X94431242Y-39100000D03*
X92343884Y-67400000D03*
X96400000Y-67000000D03*
X96300000Y-60200000D03*
X95946610Y-58837288D03*
X94907139Y-40400311D03*
X92318796Y-61346392D03*
X93840872Y-58000000D03*
X93981232Y-41774990D03*
X91293865Y-70408263D03*
X94179686Y-68859239D03*
X94420493Y-61206831D03*
X94450000Y-58600000D03*
X94163563Y-35799293D03*
X104900000Y-35765030D03*
X91150000Y-56850000D03*
X92381222Y-36877069D03*
X93265872Y-56834128D03*
X92831232Y-36200000D03*
X105670365Y-35765030D03*
X90300000Y-56500000D03*
X89675000Y-58250001D03*
X91400000Y-55675001D03*
X91449979Y-52400000D03*
X97127129Y-52300000D03*
X89687500Y-56912500D03*
X91899989Y-49800000D03*
X102199990Y-49375000D03*
X101900000Y-74323477D03*
X101900000Y-50600000D03*
X84400000Y-50300000D03*
X84000000Y-36700000D03*
X106900000Y-62600000D03*
X106400000Y-55300000D03*
X107300000Y-65000000D03*
X107050001Y-55613050D03*
X108119753Y-65000000D03*
X108474990Y-55200000D03*
X110326438Y-73499982D03*
X109594773Y-62694337D03*
X99531670Y-70794631D03*
X99700000Y-61900000D03*
X110100000Y-61500000D03*
X110293675Y-62655136D03*
X100231673Y-70794631D03*
X100106670Y-62600000D03*
X84975020Y-75039293D03*
X88100000Y-61024969D03*
X84525010Y-75700000D03*
X87174158Y-62157303D03*
X86475000Y-62624980D03*
X88296836Y-62624980D03*
X85425030Y-74439736D03*
X85325000Y-63074990D03*
X84700000Y-63525000D03*
X84000000Y-64025000D03*
X86068391Y-78368391D03*
X89193819Y-76340452D03*
X88924980Y-67000000D03*
X95616565Y-73159310D03*
X115200000Y-74650000D03*
X86597668Y-78998432D03*
X101000000Y-70773431D03*
X100300000Y-51700010D03*
X115449999Y-50975000D03*
X119700000Y-75300000D03*
X119700000Y-39300000D03*
X97702129Y-71057897D03*
X97600000Y-49950000D03*
X125600000Y-49800000D03*
X125600000Y-47300000D03*
X88293801Y-73200000D03*
X102550000Y-70323421D03*
X103261783Y-51538802D03*
X106300000Y-68600000D03*
X105300000Y-39200000D03*
X98381669Y-70889887D03*
X98277129Y-51250000D03*
X133400000Y-50000000D03*
X133400000Y-46000000D03*
D12*
X114100000Y-35015010D03*
X88000000Y-35015010D03*
D13*
X88024960Y-67900000D03*
X83425000Y-66500000D03*
X83800000Y-58900000D03*
X87293809Y-71800000D03*
X94779320Y-68498073D03*
X97086409Y-67137281D03*
X104970371Y-70793346D03*
X105000000Y-65600000D03*
X110800000Y-65600000D03*
X110800000Y-68500000D03*
X99700000Y-61000000D03*
X99700001Y-54200000D03*
X94916673Y-56265450D03*
X94431242Y-48900000D03*
X94415873Y-56901536D03*
X93981232Y-43900000D03*
D12*
X83500000Y-42075000D03*
X83200000Y-39000000D03*
D13*
X88293801Y-72499997D03*
X93493884Y-69103526D03*
X93500000Y-35315020D03*
X111600000Y-35315020D03*
D14*
X93560000Y-111300000D02*
X93600000Y-111260000D01*
X86749889Y-111300000D02*
X93560000Y-111300000D01*
X80800000Y-31300000D02*
X86000000Y-31300000D01*
X86900000Y-32200000D02*
X86900000Y-39200000D01*
X86000000Y-31300000D02*
X86900000Y-32200000D01*
X84300000Y-39300000D02*
X84400000Y-39200000D01*
D15*
X96190000Y-87200000D02*
X96190000Y-87090000D01*
X96190000Y-87200000D02*
X95000000Y-86010000D01*
X95000000Y-84000000D02*
X94900000Y-83900000D01*
X95000000Y-86010000D02*
X95000000Y-84000000D01*
X87649909Y-113800000D02*
X93600000Y-113800000D01*
X95290001Y-117189999D02*
X96140000Y-116340000D01*
X94964999Y-117515001D02*
X95290001Y-117189999D01*
X89230615Y-117515001D02*
X94964999Y-117515001D01*
X89115614Y-117400000D02*
X89230615Y-117515001D01*
X88549929Y-117400000D02*
X89115614Y-117400000D01*
X93085999Y-88375001D02*
X92474999Y-87764001D01*
X94825001Y-88375001D02*
X93085999Y-88375001D01*
X96190000Y-89740000D02*
X94825001Y-88375001D01*
X92474999Y-86661409D02*
X92024989Y-86211399D01*
X92474999Y-87764001D02*
X92474999Y-86661409D01*
X91124972Y-80996796D02*
X92771778Y-79349990D01*
X91124971Y-83407789D02*
X91124972Y-80996796D01*
X92024989Y-84307809D02*
X91124971Y-83407789D01*
X92024989Y-86211399D02*
X92024989Y-84307809D01*
X92771778Y-79349990D02*
X94300000Y-79349990D01*
X94574940Y-79325060D02*
X94574940Y-78786400D01*
X94550010Y-79349990D02*
X94574940Y-79325060D01*
X94300000Y-79349990D02*
X94550010Y-79349990D01*
X94574940Y-78786400D02*
X94574940Y-77872800D01*
X94574940Y-77872800D02*
X93818901Y-77116759D01*
X93818901Y-77116759D02*
X93818902Y-74212429D01*
X93560000Y-116300000D02*
X93600000Y-116340000D01*
X88099919Y-116300000D02*
X93560000Y-116300000D01*
X93650000Y-89740000D02*
X92387294Y-88477294D01*
X92387294Y-88312706D02*
X92024989Y-87950401D01*
X92387294Y-88477294D02*
X92387294Y-88312706D01*
X92024989Y-86847809D02*
X91574979Y-86397799D01*
X92024989Y-87950401D02*
X92024989Y-86847809D01*
X91574979Y-86397799D02*
X91574979Y-84494208D01*
X91574979Y-84494208D02*
X90674962Y-83594188D01*
X90674963Y-80810395D02*
X92585378Y-78899980D01*
X90674962Y-83594188D02*
X90674963Y-80810395D01*
X93800020Y-78899980D02*
X93900000Y-78800000D01*
X92585378Y-78899980D02*
X93800020Y-78899980D01*
X93900000Y-78000000D02*
X93982866Y-77917135D01*
X93900000Y-78800000D02*
X93900000Y-78000000D01*
X93368892Y-77303158D02*
X93368893Y-74026028D01*
X93982866Y-77917135D02*
X93368892Y-77303158D01*
X94889084Y-120130916D02*
X96140000Y-118880000D01*
X89449949Y-120130916D02*
X94889084Y-120130916D01*
X94825001Y-90915001D02*
X93085999Y-90915001D01*
X92474999Y-90304001D02*
X92474999Y-89600000D01*
X93085999Y-90915001D02*
X92474999Y-90304001D01*
X96190000Y-92280000D02*
X94825001Y-90915001D01*
X92474999Y-89600000D02*
X92474999Y-89201409D01*
X92474999Y-89201409D02*
X91574979Y-88301389D01*
X91574979Y-87034209D02*
X91124969Y-86584199D01*
X91574979Y-88301389D02*
X91574979Y-87034209D01*
X90224954Y-80623994D02*
X92398978Y-78449970D01*
X90224953Y-83780587D02*
X90224954Y-80623994D01*
X91124969Y-84680607D02*
X90224953Y-83780587D01*
X91124969Y-86584199D02*
X91124969Y-84680607D01*
X93250030Y-78449970D02*
X93400000Y-78300000D01*
X92398978Y-78449970D02*
X93250030Y-78449970D01*
X93300000Y-77900000D02*
X93300000Y-77870677D01*
X93400000Y-78000000D02*
X93300000Y-77900000D01*
X93400000Y-78300000D02*
X93400000Y-78000000D01*
X92918883Y-77489557D02*
X92918884Y-73839627D01*
X93300000Y-77870677D02*
X92918883Y-77489557D01*
X92918884Y-62181116D02*
X93200000Y-61900000D01*
X92918884Y-73839627D02*
X92918884Y-62181116D01*
X93578123Y-118858123D02*
X93600000Y-118880000D01*
X88999939Y-118858123D02*
X93578123Y-118858123D01*
X94964999Y-122595001D02*
X95290001Y-122269999D01*
X93225997Y-122595001D02*
X94964999Y-122595001D01*
X95290001Y-122269999D02*
X96140000Y-121420000D01*
X93020998Y-122800000D02*
X93225997Y-122595001D01*
X90349969Y-122800000D02*
X93020998Y-122800000D01*
X94825001Y-93455001D02*
X96190000Y-94820000D01*
X92474999Y-91715999D02*
X92474999Y-92844001D01*
X92500000Y-91690998D02*
X92474999Y-91715999D01*
X93085999Y-93455001D02*
X94825001Y-93455001D01*
X92500000Y-91601822D02*
X92500000Y-91690998D01*
X91549990Y-89549220D02*
X91549990Y-90651812D01*
X90674959Y-88674189D02*
X91549990Y-89549220D01*
X90674959Y-87407009D02*
X90674959Y-88674189D01*
X90224949Y-86956999D02*
X90674959Y-87407009D01*
X92474999Y-92844001D02*
X93085999Y-93455001D01*
X91549990Y-90651812D02*
X92500000Y-91601822D01*
X90224949Y-85053406D02*
X90224949Y-86956999D01*
X92018864Y-77557264D02*
X89324936Y-80251192D01*
X89324936Y-80251192D02*
X89324936Y-84153393D01*
X89324936Y-84153393D02*
X90224949Y-85053406D01*
X91468883Y-69448001D02*
X91468883Y-61831117D01*
X92018865Y-69997983D02*
X91468883Y-69448001D01*
X92018865Y-73781135D02*
X92018865Y-69997983D01*
X92018866Y-73466825D02*
X92018865Y-73781135D01*
X92018865Y-73781135D02*
X92018864Y-77557264D01*
X93580000Y-121400000D02*
X93600000Y-121420000D01*
X89899959Y-121400000D02*
X93580000Y-121400000D01*
X93650000Y-94820000D02*
X91908178Y-93078178D01*
X91908178Y-91646410D02*
X91099980Y-90838212D01*
X91908178Y-93078178D02*
X91908178Y-91646410D01*
X91099980Y-90838212D02*
X91099980Y-89735620D01*
X91099980Y-89735620D02*
X90224949Y-88860589D01*
X90224949Y-88860589D02*
X90224949Y-87593409D01*
X89774939Y-87143399D02*
X89774939Y-85239806D01*
X90224949Y-87593409D02*
X89774939Y-87143399D01*
X89774939Y-85239806D02*
X88874926Y-84339793D01*
X88874927Y-80064791D02*
X91568855Y-77370863D01*
X88874926Y-84339793D02*
X88874927Y-80064791D01*
X91568857Y-70683255D02*
X91293865Y-70408263D01*
X91568857Y-73431143D02*
X91568857Y-70683255D01*
X91568855Y-77370863D02*
X91568857Y-73431143D01*
X91568857Y-73431143D02*
X91568857Y-73280424D01*
X94900000Y-125200000D02*
X96140000Y-123960000D01*
X91249989Y-125200000D02*
X94900000Y-125200000D01*
X92474999Y-95384001D02*
X92474999Y-94281409D01*
X93085999Y-95995001D02*
X92474999Y-95384001D01*
X94825001Y-95995001D02*
X93085999Y-95995001D01*
X96190000Y-97360000D02*
X94825001Y-95995001D01*
X92474999Y-94281409D02*
X91458168Y-93264578D01*
X91458168Y-93264578D02*
X91458168Y-91832810D01*
X91458168Y-91832810D02*
X90649970Y-91024612D01*
X90649970Y-91024612D02*
X90649970Y-89922020D01*
X90649970Y-89922020D02*
X89774939Y-89046989D01*
X89774939Y-87779809D02*
X89324929Y-87329799D01*
X89774939Y-89046989D02*
X89774939Y-87779809D01*
X89324929Y-87329799D02*
X89324929Y-85426206D01*
X88424917Y-84526192D02*
X88424918Y-79878390D01*
X89324929Y-85426206D02*
X88424917Y-84526192D01*
X88424918Y-79878390D02*
X91118846Y-77184462D01*
X90965599Y-69634401D02*
X91018873Y-69634401D01*
X90568864Y-70756264D02*
X90568864Y-70031136D01*
X91118847Y-71306247D02*
X90568864Y-70756264D01*
X91118847Y-73418847D02*
X91118847Y-71306247D01*
X91118846Y-77184462D02*
X91118847Y-73418847D01*
X90568864Y-70031136D02*
X90965599Y-69634401D01*
X91118847Y-73418847D02*
X91118848Y-73094023D01*
X91018873Y-69634401D02*
X91018873Y-62600000D01*
X90874999Y-62456126D02*
X90874999Y-57125001D01*
X90874999Y-57125001D02*
X91150000Y-56850000D01*
X91018873Y-62600000D02*
X90874999Y-62456126D01*
X93231582Y-124328418D02*
X93600000Y-123960000D01*
X90759736Y-124328418D02*
X93231582Y-124328418D01*
X93650000Y-97360000D02*
X91941085Y-95651085D01*
X91941085Y-94558915D02*
X92024989Y-94475011D01*
X91941085Y-95651085D02*
X91941085Y-94558915D01*
X92024989Y-94475011D02*
X90948553Y-93398575D01*
X90948553Y-91959605D02*
X90199960Y-91211012D01*
X90948553Y-93398575D02*
X90948553Y-91959605D01*
X90199960Y-91211012D02*
X90199960Y-90108420D01*
X90199960Y-90108420D02*
X89324929Y-89233389D01*
X89324929Y-89233389D02*
X89324929Y-87966209D01*
X89324929Y-87966209D02*
X88874919Y-87516199D01*
X88874919Y-87516199D02*
X88874919Y-85612605D01*
X87974908Y-84712591D02*
X87974909Y-79691989D01*
X88874919Y-85612605D02*
X87974908Y-84712591D01*
X87974909Y-79691989D02*
X90668837Y-76998061D01*
X90118854Y-70942664D02*
X90118855Y-69844735D01*
X90668839Y-71492649D02*
X90118854Y-70942664D01*
X90668839Y-73168839D02*
X90668839Y-71492649D01*
X90668837Y-76998061D02*
X90668839Y-73168839D01*
X90668839Y-73168839D02*
X90668839Y-72907622D01*
X90118855Y-69844735D02*
X90400000Y-69563590D01*
X90400000Y-69563590D02*
X90400000Y-56526998D01*
X93275997Y-98724999D02*
X92474999Y-97924001D01*
X95014999Y-98724999D02*
X93275997Y-98724999D01*
X96190000Y-99900000D02*
X95014999Y-98724999D01*
X92474999Y-97924001D02*
X92474999Y-96821409D01*
X92474999Y-96821409D02*
X91491075Y-95837485D01*
X91491075Y-95837485D02*
X91491075Y-94577507D01*
X91491075Y-94577507D02*
X90498543Y-93584975D01*
X90498543Y-92146005D02*
X89749950Y-91397412D01*
X90498543Y-93584975D02*
X90498543Y-92146005D01*
X89749950Y-90294820D02*
X88874919Y-89419789D01*
X89749950Y-91397412D02*
X89749950Y-90294820D01*
X88874919Y-89419789D02*
X88874919Y-88152609D01*
X88874919Y-88152609D02*
X88424909Y-87702599D01*
X88424909Y-87702599D02*
X88424909Y-85799004D01*
X88424909Y-85799004D02*
X87524899Y-84898990D01*
X87524900Y-79505588D02*
X90218828Y-76811660D01*
X87524899Y-84898990D02*
X87524900Y-79505588D01*
X90218828Y-76811660D02*
X90218830Y-72721221D01*
X90218830Y-72721221D02*
X90218830Y-71679050D01*
X89668845Y-71129063D02*
X89668846Y-69658334D01*
X90218830Y-71679050D02*
X89668845Y-71129063D01*
X89668846Y-69631154D02*
X89949990Y-69350010D01*
X89668846Y-69658334D02*
X89668846Y-69631154D01*
X89949990Y-58524991D02*
X89675000Y-58250001D01*
X89949990Y-69350010D02*
X89949990Y-58524991D01*
X91699999Y-126500000D02*
X93600000Y-126500000D01*
X89600000Y-57500000D02*
X89625000Y-57525000D01*
X89499980Y-58975002D02*
X89326999Y-58975002D01*
X89218836Y-71315462D02*
X89218837Y-69444753D01*
X89768821Y-71865450D02*
X89218836Y-71315462D01*
X89675000Y-57475000D02*
X89675000Y-56900000D01*
X87074891Y-79319187D02*
X89768819Y-76625259D01*
X88949999Y-58598002D02*
X88949999Y-57625001D01*
X89499980Y-69163610D02*
X89499980Y-58975002D01*
X87074890Y-85085389D02*
X87074891Y-79319187D01*
X93650000Y-99900000D02*
X93650000Y-99735412D01*
X87974899Y-87888999D02*
X87974899Y-85985403D01*
X93650000Y-99735412D02*
X92024989Y-98110401D01*
X92024989Y-98110401D02*
X92024989Y-97007809D01*
X92024989Y-97007809D02*
X91041065Y-96023885D01*
X91041065Y-96023885D02*
X91041065Y-94763907D01*
X91041065Y-94763907D02*
X90048533Y-93771375D01*
X89218837Y-69444753D02*
X89499980Y-69163610D01*
X89768819Y-76625259D02*
X89768821Y-71865450D01*
X90048533Y-92332405D02*
X89299940Y-91583812D01*
X90048533Y-93771375D02*
X90048533Y-92332405D01*
X89299940Y-91583812D02*
X89299940Y-90481220D01*
X89075000Y-57500000D02*
X89600000Y-57500000D01*
X89326999Y-58975002D02*
X88949999Y-58598002D01*
X89299940Y-90481220D02*
X88424909Y-89606189D01*
X88949999Y-57625001D02*
X89075000Y-57500000D01*
X87974899Y-85985403D02*
X87074890Y-85085389D01*
X88424909Y-89606189D02*
X88424909Y-88339009D01*
X89625000Y-57525000D02*
X89675000Y-57475000D01*
X88424909Y-88339009D02*
X87974899Y-87888999D01*
X87074879Y-90165389D02*
X87074878Y-88898208D01*
X87929699Y-91020209D02*
X87074879Y-90165389D01*
X88698502Y-92899999D02*
X87929700Y-92131197D01*
X88698503Y-94330575D02*
X88698502Y-92899999D01*
X89691034Y-95323106D02*
X88698503Y-94330575D01*
X86624869Y-88448199D02*
X86624869Y-86544604D01*
X93140998Y-110000000D02*
X92424999Y-109284001D01*
X87074878Y-88898208D02*
X86624869Y-88448199D01*
X92424999Y-109284001D02*
X92424999Y-107975001D01*
X92424999Y-107975001D02*
X93149990Y-107250010D01*
X91574979Y-101382801D02*
X91574978Y-99569620D01*
X92192196Y-102000018D02*
X91574979Y-101382801D01*
X91574978Y-99569620D02*
X90674959Y-98669601D01*
X93149989Y-102313579D02*
X92836427Y-102000019D01*
X87929700Y-92131197D02*
X87929699Y-91020209D01*
X93149990Y-107250010D02*
X93149989Y-102313579D01*
X92836427Y-102000019D02*
X92192196Y-102000018D01*
X90674959Y-98669601D02*
X90674958Y-97567008D01*
X86624869Y-86544604D02*
X85724861Y-85644596D01*
X94800000Y-110000000D02*
X93140998Y-110000000D01*
X90674958Y-97567008D02*
X89691035Y-96583085D01*
X89691035Y-96583085D02*
X89691034Y-95323106D01*
X85724864Y-78759986D02*
X85949691Y-78535159D01*
X85724861Y-83999999D02*
X85724864Y-78759986D01*
X85724861Y-85644596D02*
X85724861Y-83999999D01*
X83402081Y-102700000D02*
X86002081Y-100100000D01*
X82200000Y-102700000D02*
X83402081Y-102700000D01*
X86002081Y-100100000D02*
X86002081Y-95597919D01*
X85213962Y-94809800D02*
X85213962Y-94631052D01*
X86002081Y-95597919D02*
X85213962Y-94809800D01*
X93520000Y-108800000D02*
X93600000Y-108720000D01*
X94499999Y-81270001D02*
X95201508Y-81270001D01*
X93650000Y-82120000D02*
X94499999Y-81270001D01*
X95201508Y-81270001D02*
X96374980Y-80096529D01*
X95618937Y-76055347D02*
X95618938Y-74958033D01*
X96374980Y-76811390D02*
X95618937Y-76055347D01*
X96374980Y-80096529D02*
X96374980Y-76811390D01*
D14*
X137600000Y-54300000D02*
X137600000Y-44500000D01*
X137100000Y-54800000D02*
X137600000Y-54300000D01*
D15*
X82200000Y-112860000D02*
X83940000Y-112860000D01*
X85124869Y-111675131D02*
X85124870Y-110579197D01*
X83940000Y-112860000D02*
X85124869Y-111675131D01*
X90600000Y-105104067D02*
X90600000Y-99867462D01*
X85124870Y-110579197D02*
X90600000Y-105104067D01*
X89700000Y-98200000D02*
X89774939Y-98125061D01*
X89700000Y-98967462D02*
X89700000Y-98200000D01*
X90600000Y-99867462D02*
X89700000Y-98967462D01*
X89774939Y-98125061D02*
X89774939Y-97939809D01*
X89774939Y-97939809D02*
X88791015Y-96955885D01*
X88791015Y-96955885D02*
X88791015Y-95695907D01*
X88791015Y-95695907D02*
X87798483Y-94703375D01*
X87798483Y-94703375D02*
X87798483Y-93272800D01*
X87798483Y-93272800D02*
X87029680Y-92503997D01*
X87029680Y-92503997D02*
X87029680Y-91393010D01*
X87029680Y-91393010D02*
X86174859Y-90538189D01*
X86174859Y-90538189D02*
X86174859Y-89300000D01*
X86174859Y-89271009D02*
X85724849Y-88820999D01*
X86174859Y-89300000D02*
X86174859Y-89271009D01*
X85724849Y-88820999D02*
X85724849Y-86917403D01*
X84824842Y-86017396D02*
X84824842Y-78162357D01*
X85724849Y-86917403D02*
X84824842Y-86017396D01*
X84824842Y-78162357D02*
X86493599Y-76493600D01*
X86493599Y-76493600D02*
X87261197Y-75726002D01*
X135051314Y-34964999D02*
X135135001Y-34964999D01*
X135135001Y-34964999D02*
X135149990Y-34950010D01*
X134651315Y-34565000D02*
X135051314Y-34964999D01*
X135149990Y-34950010D02*
X135149990Y-39000000D01*
X135149990Y-39000000D02*
X135149990Y-65450010D01*
X135149990Y-65450010D02*
X135149990Y-67800000D01*
X134874999Y-69487679D02*
X135357464Y-69970144D01*
X134874999Y-68074991D02*
X134874999Y-69487679D01*
X135149990Y-67800000D02*
X134874999Y-68074991D01*
X135600000Y-33800000D02*
X135600000Y-69000000D01*
D14*
X93650000Y-84450001D02*
X93650000Y-84660000D01*
X93650000Y-84350000D02*
X92100000Y-82800000D01*
X93650000Y-84660000D02*
X93650000Y-84350000D01*
X92100000Y-81819998D02*
X93219998Y-80700000D01*
X92100000Y-82800000D02*
X92100000Y-81819998D01*
X93219998Y-80700000D02*
X95000000Y-80700000D01*
X95000000Y-80700000D02*
X95029033Y-80700000D01*
X95029033Y-80700000D02*
X95849970Y-79879063D01*
X95928566Y-72509309D02*
X97000000Y-73580743D01*
X95304564Y-72509309D02*
X95928566Y-72509309D01*
X94966564Y-72847309D02*
X95304564Y-72509309D01*
X94966564Y-76145450D02*
X94966564Y-72847309D01*
X95849970Y-77028856D02*
X94966564Y-76145450D01*
X95849970Y-79879063D02*
X95849970Y-77028856D01*
D15*
X106000000Y-57500000D02*
X105900000Y-57400000D01*
X106000000Y-62574998D02*
X106000000Y-57500000D01*
X106875000Y-65675000D02*
X106875000Y-66354625D01*
X106200000Y-65000000D02*
X106875000Y-65675000D01*
D14*
X136411889Y-48188111D02*
X136411889Y-54300995D01*
X136700000Y-47900000D02*
X136411889Y-48188111D01*
X99500000Y-48824990D02*
X99400000Y-48924990D01*
X99500000Y-44500000D02*
X99500000Y-48824990D01*
X86700000Y-48300000D02*
X86700000Y-41300000D01*
X104750001Y-62075009D02*
X104300000Y-62525010D01*
X104750001Y-55512979D02*
X104750001Y-62075009D01*
X104412001Y-55174979D02*
X104750001Y-55512979D01*
X103525021Y-55174979D02*
X104412001Y-55174979D01*
X103100000Y-55600000D02*
X103525021Y-55174979D01*
X103349999Y-55350001D02*
X103100000Y-55600000D01*
X103911784Y-54788216D02*
X103349999Y-55350001D01*
X103911784Y-49765337D02*
X103911784Y-54788216D01*
X103400000Y-49253553D02*
X103911784Y-49765337D01*
X103400000Y-48900000D02*
X103400000Y-49253553D01*
X97000000Y-74100000D02*
X97000000Y-74300000D01*
X97000000Y-73580743D02*
X97000000Y-74100000D01*
X97000000Y-74100000D02*
X97000000Y-74400000D01*
X103200001Y-63799991D02*
X103000010Y-63600000D01*
X103200001Y-73985478D02*
X103200001Y-63799991D01*
X102212001Y-74973478D02*
X103200001Y-73985478D01*
X97673478Y-74973478D02*
X102212001Y-74973478D01*
X97000000Y-74300000D02*
X97673478Y-74973478D01*
X82200000Y-49000000D02*
X83200000Y-48000000D01*
X82200000Y-62060000D02*
X82200000Y-49000000D01*
X107100000Y-48700000D02*
X107100000Y-45300000D01*
X107100000Y-45300000D02*
X107100000Y-45100000D01*
X107100000Y-42360000D02*
X109060000Y-40400000D01*
X107100000Y-45100000D02*
X107100000Y-42360000D01*
X111400000Y-70819026D02*
X111465670Y-70753356D01*
X111400000Y-75200000D02*
X111400000Y-70819026D01*
X113600000Y-68300000D02*
X113800000Y-68100000D01*
X113600000Y-69700000D02*
X113600000Y-68300000D01*
D15*
X85900000Y-66000000D02*
X85900000Y-60200000D01*
D14*
X98900000Y-57500000D02*
X98900000Y-61000000D01*
D15*
X104100000Y-60200000D02*
X104100000Y-55824980D01*
X111465670Y-65334330D02*
X111465670Y-70753356D01*
X111900000Y-64900000D02*
X111465670Y-65334330D01*
D14*
X113500000Y-58100000D02*
X113600000Y-58200000D01*
X113500000Y-43900000D02*
X113500000Y-58100000D01*
X98900000Y-57500000D02*
X98900000Y-55100000D01*
X85900000Y-55100000D02*
X86000000Y-55000000D01*
X85900000Y-60200000D02*
X85900000Y-55100000D01*
D15*
X106900000Y-75350000D02*
X106900000Y-75350000D01*
X106900000Y-75350000D02*
X106900000Y-70800000D01*
X96996405Y-72803594D02*
X96996405Y-72657908D01*
X95087098Y-71984299D02*
X96146033Y-71984300D01*
X96980866Y-72819133D02*
X96996405Y-72803594D01*
X96146033Y-71984300D02*
X96980866Y-72819133D01*
X94441555Y-72629842D02*
X95087098Y-71984299D01*
X95024950Y-79537329D02*
X95024950Y-77686400D01*
X92474999Y-86024999D02*
X92474999Y-84121409D01*
X94268911Y-74331089D02*
X94441554Y-74158446D01*
X92474999Y-84121409D02*
X91574980Y-83221390D01*
X91574981Y-81183197D02*
X92958178Y-79800000D01*
X91574980Y-83221390D02*
X91574981Y-81183197D01*
X93650000Y-87200000D02*
X92474999Y-86024999D01*
X92958178Y-79800000D02*
X94762279Y-79800000D01*
X94762279Y-79800000D02*
X95024950Y-79537329D01*
X95024950Y-77686400D02*
X94268910Y-76930360D01*
X94268910Y-76930360D02*
X94268911Y-74331089D01*
X94441554Y-74158446D02*
X94441555Y-72629842D01*
X109800000Y-70905002D02*
X109539999Y-70645001D01*
X109800000Y-72800000D02*
X109800000Y-70905002D01*
X109799982Y-72800018D02*
X109800000Y-72800000D01*
X109799982Y-73200000D02*
X109799982Y-72800018D01*
X109500000Y-73499982D02*
X109799982Y-73200000D01*
X109019773Y-68300000D02*
X109019773Y-67924990D01*
X109019773Y-67924990D02*
X109144763Y-67800000D01*
X109144763Y-67800000D02*
X109144763Y-64700000D01*
X109144763Y-64700000D02*
X109144763Y-63300000D01*
X109144763Y-63300000D02*
X109144763Y-63095329D01*
X109019772Y-62418336D02*
X109318772Y-62119336D01*
X109019772Y-62970338D02*
X109019772Y-62418336D01*
X109144763Y-63095329D02*
X109019772Y-62970338D01*
X109318772Y-62119336D02*
X109380664Y-62119336D01*
X109380664Y-62119336D02*
X109700000Y-62119336D01*
X109700000Y-61951002D02*
X109500000Y-61751002D01*
X109700000Y-62119336D02*
X109700000Y-61951002D01*
X109500000Y-61751002D02*
X109500000Y-42300000D01*
X116700000Y-40420000D02*
X116680000Y-40400000D01*
X116700000Y-42300000D02*
X116700000Y-40420000D01*
X93818902Y-74212429D02*
X93818902Y-74144688D01*
X94900699Y-71534290D02*
X96332434Y-71534291D01*
X93991545Y-73972045D02*
X93991546Y-72443441D01*
X93991546Y-72443441D02*
X94900699Y-71534290D01*
X93818902Y-74144688D02*
X93991545Y-73972045D01*
X96332434Y-71534291D02*
X96881050Y-72082907D01*
X97412936Y-72223437D02*
X97700233Y-72223437D01*
X97272406Y-72082907D02*
X97412936Y-72223437D01*
X96881050Y-72082907D02*
X97272406Y-72082907D01*
X108558494Y-70953595D02*
X108218399Y-70613500D01*
X108558494Y-72956579D02*
X108558494Y-70953595D01*
X109909999Y-38709999D02*
X109060000Y-37860000D01*
X110235001Y-39035001D02*
X109909999Y-38709999D01*
X109499002Y-41700000D02*
X110235001Y-40964001D01*
X109248998Y-41700000D02*
X109499002Y-41700000D01*
X108924999Y-42023999D02*
X109248998Y-41700000D01*
X108924999Y-42975009D02*
X108924999Y-42023999D01*
X108571952Y-70613500D02*
X108700000Y-70485452D01*
X108700000Y-70485452D02*
X108700000Y-68831229D01*
X108694753Y-67605247D02*
X108694753Y-63281729D01*
X108569763Y-62231935D02*
X109049990Y-61751708D01*
X108444772Y-67855228D02*
X108694753Y-67605247D01*
X110235001Y-40964001D02*
X110235001Y-39035001D01*
X108569762Y-63156738D02*
X108569763Y-62231935D01*
X108700000Y-68831229D02*
X108444772Y-68576001D01*
X108694753Y-63281729D02*
X108569762Y-63156738D01*
X108218399Y-70613500D02*
X108571952Y-70613500D01*
X108444772Y-68576001D02*
X108444772Y-67855228D01*
X109049990Y-61751708D02*
X109049990Y-43100000D01*
X109049990Y-43100000D02*
X108924999Y-42975009D01*
X93368893Y-74026028D02*
X93368893Y-73958287D01*
X93541536Y-73785644D02*
X93541538Y-72257040D01*
X93368893Y-73958287D02*
X93541536Y-73785644D01*
X94714300Y-71084281D02*
X96518833Y-71084282D01*
X93541538Y-72257040D02*
X94714300Y-71084281D01*
X96518833Y-71084282D02*
X96518835Y-71084282D01*
X97067450Y-71632897D02*
X97458806Y-71632897D01*
X96518835Y-71084282D02*
X97067450Y-71632897D01*
X98146919Y-71632897D02*
X98175485Y-71661463D01*
X97458806Y-71632897D02*
X98146919Y-71632897D01*
X109189562Y-71270942D02*
X109133494Y-71214874D01*
X109189562Y-72653666D02*
X109189562Y-71270942D01*
X117529999Y-38709999D02*
X116680000Y-37860000D01*
X117855001Y-39035001D02*
X117529999Y-38709999D01*
X117855001Y-42044999D02*
X117855001Y-39035001D01*
X117300000Y-42600000D02*
X117855001Y-42044999D01*
X117200000Y-42600000D02*
X117300000Y-42600000D01*
X117200000Y-71400000D02*
X117200000Y-42600000D01*
X93200000Y-61900000D02*
X93200000Y-61900000D01*
X96391693Y-57049536D02*
X96391693Y-55616648D01*
X95400000Y-58041231D02*
X96391693Y-57049536D01*
X95400000Y-58400000D02*
X95400000Y-58041231D01*
X96391693Y-55616648D02*
X96391692Y-55616647D01*
X96391692Y-55616647D02*
X95656282Y-54881237D01*
X95656282Y-54881237D02*
X95656282Y-50059200D01*
X95906262Y-49809220D02*
X95906261Y-48251197D01*
X95656282Y-50059200D02*
X95906262Y-49809220D01*
X95906261Y-48251197D02*
X95206272Y-47551208D01*
X95206272Y-47551208D02*
X95206272Y-44798782D01*
X95456251Y-43251197D02*
X95132254Y-42927200D01*
X95456252Y-44548800D02*
X95456251Y-43251197D01*
X95206272Y-44798782D02*
X95456252Y-44548800D01*
X95132254Y-42927200D02*
X95132253Y-41438599D01*
X95132253Y-41438599D02*
X94306252Y-40612598D01*
X94306252Y-40612598D02*
X94306252Y-39500000D01*
X94306252Y-39224990D02*
X94431242Y-39100000D01*
X94306252Y-39500000D02*
X94306252Y-39224990D01*
X91124969Y-87220609D02*
X90674959Y-86770599D01*
X92600000Y-77900000D02*
X92646459Y-77853542D01*
X93650000Y-92280000D02*
X93650000Y-92115412D01*
X89774944Y-83966986D02*
X89774945Y-80437593D01*
X92468875Y-73653226D02*
X92468875Y-69374991D01*
X89774945Y-80437593D02*
X92312538Y-77900000D01*
X92312538Y-77900000D02*
X92600000Y-77900000D01*
X93650000Y-92115412D02*
X92000000Y-90465412D01*
X92468874Y-77675956D02*
X92468875Y-73653226D01*
X92646459Y-77853542D02*
X92468874Y-77675956D01*
X91124969Y-88487789D02*
X91124969Y-87220609D01*
X92000000Y-89362820D02*
X91124969Y-88487789D01*
X92000000Y-90465412D02*
X92000000Y-89362820D01*
X90674959Y-86770599D02*
X90674959Y-84867006D01*
X90674959Y-84867006D02*
X89774944Y-83966986D01*
X92468875Y-67524991D02*
X92343884Y-67400000D01*
X92468875Y-69374991D02*
X92468875Y-67524991D01*
X96400000Y-60300000D02*
X96300000Y-60200000D01*
X96400000Y-67300000D02*
X96400000Y-60300000D01*
X95906261Y-43006261D02*
X95582262Y-42682262D01*
X94756262Y-40426198D02*
X94782149Y-40400311D01*
X95946610Y-58837288D02*
X95975001Y-58808897D01*
X96106292Y-54694837D02*
X96106292Y-50245600D01*
X95906261Y-44735199D02*
X95906261Y-43006261D01*
X95975001Y-58808897D02*
X95975001Y-58175001D01*
X95975001Y-58175001D02*
X96841703Y-57308299D01*
X95582262Y-42682262D02*
X95582262Y-41252198D01*
X96841703Y-55430248D02*
X96106292Y-54694837D01*
X96106292Y-50245600D02*
X96356271Y-49995619D01*
X95656282Y-47364808D02*
X95656282Y-44985179D01*
X96356271Y-49995619D02*
X96356270Y-48064796D01*
X94782149Y-40400311D02*
X94907139Y-40400311D01*
X96356270Y-48064796D02*
X95656282Y-47364808D01*
X95582262Y-41252198D02*
X94756262Y-40426198D01*
X96841703Y-57308299D02*
X96841703Y-55430248D01*
X95656282Y-44985179D02*
X95906261Y-44735199D01*
X91468883Y-61831117D02*
X91500000Y-61800000D01*
X91834071Y-61831117D02*
X92318796Y-61346392D01*
X91468883Y-61831117D02*
X91834071Y-61831117D01*
X95202225Y-55700000D02*
X95136410Y-55700000D01*
X95491674Y-55989449D02*
X95202225Y-55700000D01*
X95491674Y-56676737D02*
X95491674Y-55989449D01*
X94168411Y-58000000D02*
X95491674Y-56676737D01*
X93840872Y-58000000D02*
X94168411Y-58000000D01*
X95136410Y-55700000D02*
X94756262Y-55319852D01*
X94756262Y-55319852D02*
X94756262Y-49686400D01*
X95006243Y-48623999D02*
X94582244Y-48200000D01*
X95006243Y-49176001D02*
X95006243Y-48623999D01*
X94756262Y-49425982D02*
X95006243Y-49176001D01*
X94756262Y-49686400D02*
X94756262Y-49425982D01*
X94500000Y-48200000D02*
X94306252Y-48006252D01*
X94582244Y-48200000D02*
X94500000Y-48200000D01*
X94556233Y-43623999D02*
X94232234Y-43300000D01*
X94556233Y-44176001D02*
X94556233Y-43623999D01*
X94306252Y-44425982D02*
X94556233Y-44176001D01*
X94306252Y-48006252D02*
X94306252Y-44425982D01*
X94232234Y-42025992D02*
X93981232Y-41774990D01*
X94232234Y-43300000D02*
X94232234Y-42025992D01*
X91293865Y-70408263D02*
X91293865Y-70408263D01*
X94041360Y-68800000D02*
X93818904Y-68577544D01*
X94120447Y-68800000D02*
X94041360Y-68800000D01*
X94179686Y-68859239D02*
X94120447Y-68800000D01*
X93818904Y-68577544D02*
X93818904Y-68286400D01*
X93818904Y-68286400D02*
X93818904Y-62800000D01*
X94225011Y-62362401D02*
X94225010Y-61437598D01*
X93818904Y-62768508D02*
X94225011Y-62362401D01*
X93818904Y-62800000D02*
X93818904Y-62768508D01*
X94420493Y-61242115D02*
X94420493Y-61206831D01*
X94225010Y-61437598D02*
X94420493Y-61242115D01*
X95388625Y-55249990D02*
X95322810Y-55249990D01*
X95941683Y-55803048D02*
X95388625Y-55249990D01*
X95941684Y-56863137D02*
X95941683Y-55803048D01*
X94400000Y-58404821D02*
X95941684Y-56863137D01*
X94400000Y-58550000D02*
X94400000Y-58404821D01*
X94450000Y-58600000D02*
X94400000Y-58550000D01*
X95322810Y-55249990D02*
X95206272Y-55133452D01*
X95206272Y-55133452D02*
X95206272Y-50100000D01*
X95206272Y-50100000D02*
X95206272Y-49872800D01*
X95456252Y-48437598D02*
X94768645Y-47749991D01*
X95456252Y-49622820D02*
X95456252Y-48437598D01*
X95206272Y-49872800D02*
X95456252Y-49622820D01*
X94768645Y-47749991D02*
X94756262Y-47737608D01*
X94756262Y-47737608D02*
X94756262Y-44612382D01*
X95006243Y-44362401D02*
X95006242Y-43437598D01*
X94756262Y-44612382D02*
X95006243Y-44362401D01*
X95006242Y-43437598D02*
X94682244Y-43113600D01*
X94682244Y-43113600D02*
X94682244Y-41625000D01*
X94682244Y-41625000D02*
X94157244Y-41100000D01*
X93900000Y-41100000D02*
X93856242Y-41056242D01*
X94157244Y-41100000D02*
X93900000Y-41100000D01*
X93856242Y-41056242D02*
X93856242Y-35800000D01*
X94162856Y-35800000D02*
X94163563Y-35799293D01*
X93856242Y-35800000D02*
X94162856Y-35800000D01*
X103980000Y-39668998D02*
X103980000Y-40400000D01*
X105155001Y-38493997D02*
X103980000Y-39668998D01*
X105155001Y-36020031D02*
X105155001Y-38493997D01*
X104900000Y-35765030D02*
X105155001Y-36020031D01*
X91150000Y-56850000D02*
X91200000Y-56800000D01*
X91150000Y-56850000D02*
X92124989Y-56850000D01*
X92124989Y-56850000D02*
X92474989Y-56500000D01*
X92474989Y-56500000D02*
X92474989Y-48800000D01*
X92474989Y-48800000D02*
X92474989Y-46500000D01*
X92474989Y-39125011D02*
X92506212Y-39093788D01*
X92474989Y-46500000D02*
X92474989Y-39125011D01*
X92506212Y-39093788D02*
X92506212Y-36800000D01*
X92458291Y-36800000D02*
X92381222Y-36877069D01*
X92506212Y-36800000D02*
X92458291Y-36800000D01*
X93265872Y-56834128D02*
X92956222Y-56524478D01*
X92924999Y-39475001D02*
X92956222Y-39443778D01*
X92924999Y-56493255D02*
X92924999Y-39475001D01*
X92956222Y-56524478D02*
X92924999Y-56493255D01*
X92956222Y-36324990D02*
X92831232Y-36200000D01*
X92956222Y-39443778D02*
X92956222Y-36324990D01*
X106520000Y-36657919D02*
X106520000Y-37860000D01*
X106023918Y-35765030D02*
X106520000Y-36261112D01*
X106520000Y-36261112D02*
X106520000Y-36657919D01*
X105670365Y-35765030D02*
X106023918Y-35765030D01*
X90326998Y-56526998D02*
X90300000Y-56500000D01*
X90400000Y-56526998D02*
X90326998Y-56526998D01*
X89675000Y-58250001D02*
X89675000Y-58250001D01*
X91524999Y-55675001D02*
X91574969Y-55625031D01*
X91400000Y-55675001D02*
X91524999Y-55675001D01*
X91400000Y-55321448D02*
X91574969Y-55146479D01*
X91400000Y-55675001D02*
X91400000Y-55321448D01*
X91574969Y-55146479D02*
X91574969Y-52400000D01*
X91574969Y-52400000D02*
X91449979Y-52400000D01*
X97697919Y-37860000D02*
X98900000Y-37860000D01*
X97398998Y-38158921D02*
X97697919Y-37860000D01*
X97398998Y-49300000D02*
X97398998Y-38158921D01*
X97024999Y-49673999D02*
X97398998Y-49300000D01*
X97024999Y-51844317D02*
X97024999Y-49673999D01*
X97127129Y-51946447D02*
X97024999Y-51844317D01*
X97127129Y-52300000D02*
X97127129Y-51946447D01*
X90900000Y-56100000D02*
X90900000Y-56274999D01*
X90724999Y-55924999D02*
X90900000Y-56100000D01*
X90023999Y-55924999D02*
X90724999Y-55924999D01*
X89687500Y-56261498D02*
X90023999Y-55924999D01*
X89687500Y-56912500D02*
X89687500Y-56261498D01*
X90900000Y-56274999D02*
X91574999Y-56274999D01*
X91574999Y-56274999D02*
X91649998Y-56200000D01*
X92000000Y-56200000D02*
X92024979Y-56175021D01*
X91649998Y-56200000D02*
X92000000Y-56200000D01*
X92024979Y-56175021D02*
X92024979Y-50300000D01*
X92024979Y-49924990D02*
X91899989Y-49800000D01*
X92024979Y-50300000D02*
X92024979Y-49924990D01*
X102289999Y-38709999D02*
X101440000Y-37860000D01*
X102615001Y-39035001D02*
X102289999Y-38709999D01*
X102615001Y-48959989D02*
X102615001Y-39035001D01*
X102199990Y-49375000D02*
X102615001Y-48959989D01*
D14*
X101900000Y-74323477D02*
X101900000Y-73000000D01*
X101900000Y-73000000D02*
X101900000Y-50600000D01*
X85200001Y-37900001D02*
X84000000Y-36700000D01*
X85200001Y-49499999D02*
X85200001Y-37900001D01*
X84400000Y-50300000D02*
X85200001Y-49499999D01*
D15*
X106900000Y-62600000D02*
X106450010Y-62150010D01*
X106450010Y-62150010D02*
X106450010Y-57700992D01*
X106475001Y-55375001D02*
X106400000Y-55300000D01*
X106475001Y-57676001D02*
X106475001Y-55375001D01*
X106450010Y-57700992D02*
X106475001Y-57676001D01*
X107151002Y-62000000D02*
X106936410Y-62000000D01*
X107475001Y-62323999D02*
X107151002Y-62000000D01*
X107475001Y-62876001D02*
X107475001Y-62323999D01*
X107300000Y-63051002D02*
X107475001Y-62876001D01*
X107300000Y-65000000D02*
X107300000Y-63051002D01*
X106936410Y-61936410D02*
X106900020Y-61900020D01*
X106936410Y-62000000D02*
X106936410Y-61936410D01*
X106900020Y-57887392D02*
X106925011Y-57862401D01*
X106900020Y-61900020D02*
X106900020Y-57887392D01*
X106925011Y-55738040D02*
X107050001Y-55613050D01*
X106925011Y-57862401D02*
X106925011Y-55738040D01*
X108119753Y-64646447D02*
X108244743Y-64521457D01*
X108119753Y-65000000D02*
X108119753Y-64646447D01*
X108244743Y-63468129D02*
X108119753Y-63343137D01*
X108244743Y-64521457D02*
X108244743Y-63468129D01*
X108119753Y-63343137D02*
X108119754Y-62045534D01*
X108119754Y-62045534D02*
X108599980Y-61565308D01*
X108599980Y-61565308D02*
X108599980Y-57600000D01*
X108599980Y-57600000D02*
X108599980Y-55200000D01*
X108599980Y-55200000D02*
X108474990Y-55200000D01*
X110326438Y-73499982D02*
X110326438Y-73062864D01*
X110249992Y-72986418D02*
X110250010Y-72986400D01*
X110326438Y-73062864D02*
X110249992Y-72986418D01*
X110250010Y-72986400D02*
X110250010Y-70718602D01*
X110115000Y-70583592D02*
X110115000Y-70369000D01*
X110250010Y-70718602D02*
X110115000Y-70583592D01*
X110115000Y-70369000D02*
X109816000Y-70070000D01*
X109816000Y-70070000D02*
X109670000Y-70070000D01*
X109594773Y-69994773D02*
X109594773Y-62694337D01*
X109670000Y-70070000D02*
X109594773Y-69994773D01*
X99531670Y-70794631D02*
X99531670Y-61968330D01*
X99631670Y-61968330D02*
X99700000Y-61900000D01*
X99531670Y-61968330D02*
X99631670Y-61968330D01*
X110293675Y-61693675D02*
X110293675Y-62655136D01*
X110100000Y-61500000D02*
X110293675Y-61693675D01*
X100231673Y-70441078D02*
X99981680Y-70191085D01*
X100231673Y-70794631D02*
X100231673Y-70441078D01*
X99981680Y-62724990D02*
X100106670Y-62600000D01*
X99981680Y-70191085D02*
X99981680Y-62724990D01*
X84850030Y-74914303D02*
X84975020Y-75039293D01*
X84850030Y-70349970D02*
X84850030Y-74914303D01*
X85000000Y-70200000D02*
X84850030Y-70349970D01*
X88100000Y-61024969D02*
X88100000Y-61378522D01*
X87847975Y-62078513D02*
X87748797Y-62177691D01*
X86675028Y-67348794D02*
X86675027Y-68870613D01*
X88100000Y-61378522D02*
X87847975Y-61630547D01*
X87623806Y-62575962D02*
X87623805Y-63012605D01*
X87847975Y-61630547D02*
X87847975Y-62078513D01*
X85345640Y-70200000D02*
X85000000Y-70200000D01*
X87748797Y-62177691D02*
X87748797Y-62450971D01*
X87748797Y-62450971D02*
X87623806Y-62575962D01*
X87623805Y-63012605D02*
X87375019Y-63261391D01*
X86675027Y-68870613D02*
X85345640Y-70200000D01*
X87375019Y-63261391D02*
X87375018Y-66648804D01*
X87375018Y-66648804D02*
X86675028Y-67348794D01*
X87173796Y-62826204D02*
X86925010Y-63074990D01*
X87173796Y-62174970D02*
X87173796Y-62826204D01*
X86925009Y-66462403D02*
X86337403Y-67050009D01*
X86925010Y-63074990D02*
X86925009Y-66462403D01*
X86225018Y-68684212D02*
X85209210Y-69700020D01*
X86225019Y-67074981D02*
X86225018Y-68684212D01*
X86249991Y-67050009D02*
X86225019Y-67074981D01*
X86337403Y-67050009D02*
X86249991Y-67050009D01*
X84499980Y-69700020D02*
X84400020Y-69799980D01*
X85209210Y-69700020D02*
X84499980Y-69700020D01*
X84400020Y-69799980D02*
X84400020Y-75800000D01*
X83070779Y-77370780D02*
X82999999Y-77300000D01*
X83950010Y-76491549D02*
X83070779Y-77370780D01*
X82999999Y-77300000D02*
X82200000Y-77300000D01*
X83950010Y-69250010D02*
X83950010Y-76491549D01*
X85775009Y-68497811D02*
X85022810Y-69250010D01*
X85022810Y-69250010D02*
X83950010Y-69250010D01*
X85800000Y-66600000D02*
X85775010Y-66624990D01*
X86151002Y-66600000D02*
X85800000Y-66600000D01*
X86475000Y-66276002D02*
X86151002Y-66600000D01*
X85775010Y-66624990D02*
X85775009Y-68497811D01*
X86475000Y-62624980D02*
X86475000Y-66276002D01*
X88075369Y-63200000D02*
X88072820Y-63200000D01*
X88296836Y-62978533D02*
X88075369Y-63200000D01*
X88296836Y-62624980D02*
X88296836Y-62978533D01*
X88072820Y-63200000D02*
X87825028Y-63447792D01*
X87825028Y-63447792D02*
X87825027Y-66835205D01*
X87125037Y-67535195D02*
X87125036Y-69057014D01*
X87825027Y-66835205D02*
X87125037Y-67535195D01*
X87125036Y-69057014D02*
X85791025Y-70391025D01*
X85791025Y-70391025D02*
X85482050Y-70700000D01*
X85400000Y-70700000D02*
X85300040Y-70799960D01*
X85482050Y-70700000D02*
X85400000Y-70700000D01*
X85300040Y-70799960D02*
X85300040Y-73900000D01*
X85300040Y-74314746D02*
X85425030Y-74439736D01*
X85300040Y-73900000D02*
X85300040Y-74314746D01*
X83500000Y-72122081D02*
X83402081Y-72220000D01*
X83500000Y-69016410D02*
X83500000Y-72122081D01*
X83716410Y-68800000D02*
X83500000Y-69016410D01*
X84836410Y-68800000D02*
X83716410Y-68800000D01*
X83402081Y-72220000D02*
X82200000Y-72220000D01*
X85325000Y-68311410D02*
X84836410Y-68800000D01*
X85325000Y-63074990D02*
X85325000Y-68311410D01*
X83580000Y-68300000D02*
X82200000Y-69680000D01*
X84700000Y-68300000D02*
X83580000Y-68300000D01*
X84700000Y-63525000D02*
X84700000Y-68300000D01*
X83760000Y-67140000D02*
X82200000Y-67140000D01*
X84000000Y-66900000D02*
X83760000Y-67140000D01*
X84000000Y-64025000D02*
X84000000Y-66900000D01*
X86068391Y-78416459D02*
X86068391Y-78368391D01*
X85949691Y-78535159D02*
X86068391Y-78416459D01*
X89193819Y-75986899D02*
X89318810Y-75861908D01*
X89193819Y-76340452D02*
X89193819Y-75986899D01*
X89318810Y-75861908D02*
X89318811Y-72100000D01*
X89318811Y-72100000D02*
X89318811Y-72051849D01*
X88768828Y-69258352D02*
X89049970Y-68977210D01*
X88768827Y-71501861D02*
X88768828Y-69258352D01*
X89318811Y-72051849D02*
X88768827Y-71501861D01*
X89049970Y-67124990D02*
X88924980Y-67000000D01*
X89049970Y-68977210D02*
X89049970Y-67124990D01*
X95618938Y-74181062D02*
X95700000Y-74100000D01*
X95618938Y-73161683D02*
X95616565Y-73159310D01*
X95618938Y-74318938D02*
X95618938Y-73161683D01*
X95618938Y-74958033D02*
X95618938Y-74318938D01*
X95618938Y-74318938D02*
X95618938Y-74181062D01*
X115449999Y-74400001D02*
X115449999Y-43449999D01*
X115200000Y-74650000D02*
X115449999Y-74400001D01*
X114140000Y-42140000D02*
X114140000Y-40400000D01*
X115449999Y-43449999D02*
X114140000Y-42140000D01*
X100806674Y-70706674D02*
X100806674Y-70518630D01*
X100873431Y-70773431D02*
X100806674Y-70706674D01*
X101000000Y-70773431D02*
X100873431Y-70773431D01*
X100681683Y-70393639D02*
X100681682Y-70254677D01*
X100806674Y-70518630D02*
X100681683Y-70393639D01*
X100681682Y-70254677D02*
X100431690Y-70004685D01*
X100431690Y-70004685D02*
X100431690Y-63100000D01*
X100431690Y-63100000D02*
X100600000Y-63100000D01*
X100600000Y-63100000D02*
X100800000Y-62900000D01*
X100800000Y-62900000D02*
X100800000Y-62442328D01*
X100800000Y-62442328D02*
X100275001Y-61917329D01*
X100275001Y-51725009D02*
X100300000Y-51700010D01*
X100275001Y-61917329D02*
X100275001Y-51725009D01*
X86200000Y-79042547D02*
X86244115Y-78998432D01*
X87074879Y-88261799D02*
X87074879Y-86358203D01*
X87524889Y-88711809D02*
X87074879Y-88261799D01*
X88399920Y-90854020D02*
X87524889Y-89978989D01*
X86244115Y-78998432D02*
X86597668Y-78998432D01*
X86200000Y-83788470D02*
X86200000Y-79042547D01*
X93600000Y-108720000D02*
X93600000Y-101750010D01*
X93600000Y-101750010D02*
X93400000Y-101550010D01*
X91124969Y-98483201D02*
X91124969Y-97380609D01*
X91124969Y-97380609D02*
X90141045Y-96396685D01*
X86174870Y-85458189D02*
X86174870Y-83813600D01*
X90141045Y-95136707D02*
X89148513Y-94144175D01*
X92378597Y-101550009D02*
X92024989Y-101196401D01*
X87074879Y-86358203D02*
X86174870Y-85458189D01*
X90141045Y-96396685D02*
X90141045Y-95136707D01*
X92024989Y-101196401D02*
X92024989Y-99383221D01*
X93400000Y-101550010D02*
X92378597Y-101550009D01*
X92024989Y-99383221D02*
X91124969Y-98483201D01*
X86174870Y-83813600D02*
X86200000Y-83788470D01*
X89148513Y-94144175D02*
X89148513Y-92705205D01*
X89148513Y-92705205D02*
X88399920Y-91956612D01*
X87524889Y-89978989D02*
X87524889Y-88711809D01*
X88399920Y-91956612D02*
X88399920Y-90854020D01*
D14*
X119700000Y-75300000D02*
X119700000Y-39300000D01*
D15*
X97702129Y-50052129D02*
X97600000Y-49950000D01*
X97702129Y-71057897D02*
X97702129Y-50052129D01*
X125600000Y-49800000D02*
X125600000Y-47300000D01*
X87261197Y-75726002D02*
X87524807Y-75462392D01*
X88137608Y-75462392D02*
X88418791Y-75181209D01*
X87524807Y-75462392D02*
X88137608Y-75462392D01*
X88418791Y-73324990D02*
X88293801Y-73200000D01*
X88418791Y-75181209D02*
X88418791Y-73324990D01*
X102550000Y-70323421D02*
X102425010Y-70198431D01*
X102425010Y-70198431D02*
X102425010Y-52200000D01*
X102600585Y-52200000D02*
X103261783Y-51538802D01*
X102425010Y-52200000D02*
X102600585Y-52200000D01*
X105300000Y-65048998D02*
X105300000Y-39200000D01*
X106300000Y-66048998D02*
X105300000Y-65048998D01*
X106300000Y-68600000D02*
X106300000Y-66048998D01*
X98381669Y-70536334D02*
X98245335Y-70400000D01*
X98381669Y-70889887D02*
X98381669Y-70536334D01*
X98245335Y-51281794D02*
X98277129Y-51250000D01*
X98245335Y-70400000D02*
X98245335Y-51281794D01*
X133400000Y-50000000D02*
X133400000Y-46000000D01*
X82200000Y-115400000D02*
X84600000Y-115400000D01*
X86400000Y-113600000D02*
X86400000Y-113486594D01*
X84600000Y-115400000D02*
X86400000Y-113600000D01*
X86400000Y-113486594D02*
X86024888Y-113111482D01*
X86024888Y-113111482D02*
X86024888Y-112284411D01*
X86024888Y-112284411D02*
X85574878Y-111834401D01*
X86215488Y-110124989D02*
X87261399Y-110124989D01*
X85574879Y-110765598D02*
X86215488Y-110124989D01*
X85574878Y-111834401D02*
X85574879Y-110765598D01*
X87261399Y-110124989D02*
X87461390Y-110324980D01*
X87461390Y-110324980D02*
X89438610Y-110324980D01*
X89438610Y-110324980D02*
X92631795Y-107131795D01*
X92631795Y-107131795D02*
X92699980Y-107063610D01*
X92650028Y-102450028D02*
X92005795Y-102450027D01*
X92699980Y-102499980D02*
X92650028Y-102450028D01*
X92699980Y-107063610D02*
X92699980Y-102499980D01*
X92005795Y-102450027D02*
X91427884Y-101872116D01*
X91427884Y-101872116D02*
X91124969Y-101569201D01*
X91124969Y-101569201D02*
X91124969Y-99756021D01*
X91124969Y-99756021D02*
X90224949Y-98856001D01*
X90224949Y-98856001D02*
X90224949Y-97753409D01*
X90224949Y-97753409D02*
X89241025Y-96769485D01*
X89241025Y-96769485D02*
X89241025Y-95509507D01*
X89241025Y-95509507D02*
X88248493Y-94516975D01*
X88248493Y-94516975D02*
X88248493Y-93086400D01*
X88248493Y-93086400D02*
X87479690Y-92317597D01*
X87479690Y-92317597D02*
X87479690Y-91206610D01*
X87479690Y-91206610D02*
X86624869Y-90351789D01*
X86624869Y-90351789D02*
X86624869Y-89084609D01*
X86624869Y-89084609D02*
X86174859Y-88634599D01*
X86174859Y-88634599D02*
X86174859Y-86731003D01*
X85274850Y-85830988D02*
X85274851Y-85458187D01*
X86174859Y-86731003D02*
X85274850Y-85830988D01*
X85274851Y-85458187D02*
X85274851Y-78348758D01*
X114100000Y-37820000D02*
X114140000Y-37860000D01*
X114100000Y-35015010D02*
X114100000Y-37820000D01*
X81024999Y-113424001D02*
X81024999Y-112405345D01*
X81635999Y-114035001D02*
X81024999Y-113424001D01*
X83401409Y-114035001D02*
X81635999Y-114035001D01*
X85574878Y-111861532D02*
X83401409Y-114035001D01*
X85574879Y-110765598D02*
X85574878Y-111861532D01*
X89241026Y-95509508D02*
X89241026Y-96769486D01*
X88248494Y-94516976D02*
X89241026Y-95509508D01*
X88248494Y-93086401D02*
X88248494Y-94516976D01*
X90224950Y-98856002D02*
X91050010Y-99681062D01*
X87479691Y-92317598D02*
X88248494Y-93086401D01*
X91050010Y-99681062D02*
X91050009Y-105290468D01*
X89241026Y-96769486D02*
X90224950Y-97753410D01*
X90224950Y-97753410D02*
X90224950Y-98856002D01*
X91050009Y-105290468D02*
X85574879Y-110765598D01*
X86174859Y-86731004D02*
X86174860Y-88634600D01*
X85274851Y-78348758D02*
X85274852Y-85830997D01*
X85274852Y-85830997D02*
X86174859Y-86731004D01*
X86174860Y-88634600D02*
X86624870Y-89084610D01*
X86624870Y-89084610D02*
X86624870Y-90351790D01*
X86624870Y-90351790D02*
X87479691Y-91206611D01*
X87479691Y-91206611D02*
X87479691Y-92317598D01*
X88399999Y-35415009D02*
X88000000Y-35015010D01*
X88499989Y-35514999D02*
X88000000Y-35015010D01*
X88499989Y-58784402D02*
X88499989Y-35514999D01*
X88868801Y-75431199D02*
X88868801Y-72238248D01*
X88871837Y-63039942D02*
X88871837Y-59156250D01*
X85274851Y-78348758D02*
X87711207Y-75912402D01*
X88387598Y-75912402D02*
X88868801Y-75431199D01*
X88871837Y-59156250D02*
X88499989Y-58784402D01*
X88318818Y-71688260D02*
X88318819Y-69071951D01*
X88318819Y-69071951D02*
X88599960Y-68790810D01*
X88599960Y-68790810D02*
X88599960Y-67525982D01*
X87711207Y-75912402D02*
X88387598Y-75912402D01*
X88349979Y-63561800D02*
X88871837Y-63039942D01*
X88599960Y-67525982D02*
X88349979Y-67276001D01*
X88868801Y-72238248D02*
X88318818Y-71688260D01*
X88349979Y-67276001D02*
X88349979Y-63561800D01*
X82200000Y-107780000D02*
X86469990Y-107780000D01*
X86469990Y-107780000D02*
X88249990Y-106000000D01*
X88249990Y-97687680D02*
X87890995Y-97328685D01*
X88249990Y-106000000D02*
X88249990Y-97687680D01*
X87890995Y-97328685D02*
X87890995Y-96068707D01*
X87890995Y-96068707D02*
X86898463Y-95076175D01*
X86898463Y-95076175D02*
X86898463Y-93645600D01*
X86898463Y-93645600D02*
X86129660Y-92876797D01*
X86129660Y-92876797D02*
X86129660Y-91765810D01*
X86129660Y-91765810D02*
X85274839Y-90910989D01*
X85274839Y-90910989D02*
X85274839Y-89643809D01*
X85274839Y-89643809D02*
X84824829Y-89193799D01*
X84824829Y-89193799D02*
X84824829Y-87290203D01*
X84824829Y-87290203D02*
X83924823Y-86390195D01*
X83924823Y-86390195D02*
X83924823Y-85500000D01*
X83924823Y-85500000D02*
X83924824Y-77789555D01*
X83924824Y-77789555D02*
X86361178Y-75353201D01*
X86361178Y-75353201D02*
X87152006Y-74562373D01*
X87437627Y-74562373D02*
X87518771Y-74481229D01*
X87152006Y-74562373D02*
X87437627Y-74562373D01*
X87268790Y-73662401D02*
X87268790Y-72674006D01*
X87518771Y-73912382D02*
X87268790Y-73662401D01*
X87518771Y-74481229D02*
X87518771Y-73912382D01*
X87268790Y-72674006D02*
X87968472Y-71974324D01*
X87868809Y-68056151D02*
X88024960Y-67900000D01*
X87868809Y-71874659D02*
X87868809Y-68056151D01*
X87968472Y-71974324D02*
X87868809Y-71874659D01*
X83424999Y-63748999D02*
X83800000Y-63373998D01*
X83425000Y-66500000D02*
X83424999Y-63748999D01*
X83800000Y-63373998D02*
X83800000Y-58900000D01*
X82200000Y-105240000D02*
X84259980Y-105240000D01*
X84259980Y-105240000D02*
X87799980Y-101700000D01*
X87799980Y-101700000D02*
X87799980Y-97874080D01*
X87799980Y-97874080D02*
X87440985Y-97515085D01*
X87440985Y-97515085D02*
X87440985Y-96255107D01*
X87440985Y-96255107D02*
X86448453Y-95262575D01*
X86448453Y-95262575D02*
X86448453Y-93832000D01*
X86448453Y-93832000D02*
X85679650Y-93063197D01*
X85679650Y-93063197D02*
X85679650Y-91952210D01*
X85679650Y-91952210D02*
X84824829Y-91097389D01*
X84824829Y-91097389D02*
X84824829Y-89830209D01*
X84824829Y-89830209D02*
X84374819Y-89380199D01*
X84374819Y-89380199D02*
X84374819Y-87476602D01*
X83474815Y-77603154D02*
X85911169Y-75166800D01*
X83474815Y-86576598D02*
X83474815Y-77603154D01*
X84374819Y-87476602D02*
X83474815Y-86576598D01*
X86965605Y-73995626D02*
X86818780Y-73848801D01*
X86965605Y-74112364D02*
X86965605Y-73995626D01*
X85911169Y-75166800D02*
X86965605Y-74112364D01*
X86818780Y-73848801D02*
X86818781Y-72487605D01*
X87293809Y-72012577D02*
X87293809Y-71800000D01*
X86818781Y-72487605D02*
X87293809Y-72012577D01*
X97086409Y-67250001D02*
X97086409Y-67137281D01*
X95838337Y-68498073D02*
X97086409Y-67250001D01*
X94779320Y-68498073D02*
X95838337Y-68498073D01*
X104970371Y-65629629D02*
X105000000Y-65600000D01*
X104970371Y-70793346D02*
X104970371Y-65629629D01*
X110800000Y-65600000D02*
X110800000Y-68500000D01*
X99700000Y-61000000D02*
X99700000Y-60224991D01*
X99700000Y-60224991D02*
X99824991Y-60100000D01*
X99824991Y-60100000D02*
X99824991Y-54500000D01*
X99824991Y-54324990D02*
X99700001Y-54200000D01*
X99824991Y-54500000D02*
X99824991Y-54324990D01*
X94751223Y-55951223D02*
X94306252Y-55506252D01*
X94751223Y-56100000D02*
X94751223Y-55951223D01*
X94916673Y-56265450D02*
X94751223Y-56100000D01*
X94306252Y-55506252D02*
X94306252Y-55100000D01*
X94306252Y-55100000D02*
X94306252Y-49500000D01*
X94306252Y-49024990D02*
X94431242Y-48900000D01*
X94306252Y-49500000D02*
X94306252Y-49024990D01*
X94290883Y-56422993D02*
X94290882Y-56371726D01*
X94415873Y-56547983D02*
X94290883Y-56422993D01*
X94415873Y-56901536D02*
X94415873Y-56547983D01*
X94290882Y-56371726D02*
X93856242Y-55937086D01*
X93856242Y-44024990D02*
X93981232Y-43900000D01*
X93856242Y-55937086D02*
X93856242Y-44024990D01*
X83500000Y-39300000D02*
X83200000Y-39000000D01*
X83500000Y-42075000D02*
X83500000Y-39300000D01*
X82200000Y-110320000D02*
X84747657Y-110320000D01*
X88700000Y-97501280D02*
X88341005Y-97142285D01*
X88700000Y-106367657D02*
X88700000Y-97501280D01*
X84747657Y-110320000D02*
X88700000Y-106367657D01*
X88341005Y-97142285D02*
X88341005Y-95882307D01*
X88341005Y-95882307D02*
X87348473Y-94889775D01*
X87348473Y-94889775D02*
X87348473Y-93459200D01*
X87348473Y-93459200D02*
X86579670Y-92690397D01*
X86579670Y-91579410D02*
X85724849Y-90724589D01*
X86579670Y-92690397D02*
X86579670Y-91579410D01*
X85724849Y-89457409D02*
X85274839Y-89007399D01*
X85724849Y-90724589D02*
X85724849Y-89457409D01*
X85274839Y-89007399D02*
X85274839Y-87103803D01*
X84374833Y-77975956D02*
X86043590Y-76307199D01*
X84374832Y-86203796D02*
X84374833Y-77975956D01*
X85274839Y-87103803D02*
X84374832Y-86203796D01*
X86043590Y-76307199D02*
X86811187Y-75539602D01*
X86811187Y-75539602D02*
X86811188Y-75539601D01*
X86811188Y-75539601D02*
X87338407Y-75012382D01*
X87887618Y-75012382D02*
X87968781Y-74931219D01*
X87338407Y-75012382D02*
X87887618Y-75012382D01*
X87968781Y-73725982D02*
X87718800Y-73476001D01*
X87968781Y-74931219D02*
X87968781Y-73725982D01*
X88142802Y-72499997D02*
X88293801Y-72499997D01*
X87718800Y-72923999D02*
X88142802Y-72499997D01*
X87718800Y-73476001D02*
X87718800Y-72923999D01*
X93403526Y-69103526D02*
X93368894Y-69068894D01*
X93493884Y-69103526D02*
X93403526Y-69103526D01*
X93368894Y-69068894D02*
X93368894Y-68100000D01*
X93368894Y-68100000D02*
X93368894Y-62475001D01*
X93476001Y-62475001D02*
X93775001Y-62176001D01*
X93368894Y-62475001D02*
X93476001Y-62475001D01*
X93775001Y-61623999D02*
X93476001Y-61324999D01*
X93775001Y-62176001D02*
X93775001Y-61623999D01*
X93476001Y-61324999D02*
X93324999Y-61324999D01*
X93324999Y-61324999D02*
X93200000Y-61200000D01*
X93200000Y-61200000D02*
X93200000Y-58700000D01*
X93200000Y-58700000D02*
X93200000Y-57409129D01*
X93840873Y-56558127D02*
X93541873Y-56259127D01*
X93840873Y-57110129D02*
X93840873Y-56558127D01*
X93541873Y-57409129D02*
X93840873Y-57110129D01*
X93200000Y-57409129D02*
X93541873Y-57409129D01*
X93541873Y-56259127D02*
X93406232Y-56259127D01*
X93406232Y-35408788D02*
X93500000Y-35315020D01*
X93406232Y-56259127D02*
X93406232Y-35408788D01*
X112449999Y-39550001D02*
X111600000Y-40400000D01*
X112775001Y-39224999D02*
X112449999Y-39550001D01*
X112775001Y-37295999D02*
X112775001Y-39224999D01*
X111600000Y-36120998D02*
X112775001Y-37295999D01*
X111600000Y-35315020D02*
X111600000Y-36120998D01*
M02*
