G04 #@! TF.GenerationSoftware,KiCad,Pcbnew,5.1.5+dfsg1-2build2*
G04 #@! TF.CreationDate,2021-11-13T08:57:07+00:00*
G04 #@! TF.ProjectId,psion-org2-power,7073696f-6e2d-46f7-9267-322d706f7765,rev?*
G04 #@! TF.SameCoordinates,Original*
G04 #@! TF.FileFunction,Profile,NP*
%FSLAX46Y46*%
G04 Gerber Fmt 4.6, Leading zero omitted, Abs format (unit mm)*
G04 Created by KiCad (PCBNEW 5.1.5+dfsg1-2build2) date 2021-11-13 08:57:07*
%MOMM*%
%LPD*%
G04 APERTURE LIST*
%ADD10C,0.100000*%
G04 APERTURE END LIST*
D10*
X95900000Y-29400000D02*
X96000000Y-29400000D01*
X80300000Y-130000000D02*
X97200000Y-130000000D01*
X80300000Y-129000000D02*
X80300000Y-130000000D01*
X80300000Y-122000000D02*
X80300000Y-129000000D01*
X80300000Y-112100000D02*
X80300000Y-122000000D01*
X80800000Y-112100000D02*
X80300000Y-112100000D01*
X80800000Y-58600000D02*
X80800000Y-112100000D01*
X78900000Y-58600000D02*
X80800000Y-58600000D01*
X78900000Y-49100000D02*
X78900000Y-58600000D01*
X78400000Y-49100000D02*
X78900000Y-49100000D01*
X78400000Y-44400000D02*
X78400000Y-49100000D01*
X78900000Y-44400000D02*
X78400000Y-44400000D01*
X78900000Y-29400000D02*
X78900000Y-44400000D01*
X95900000Y-29400000D02*
X78900000Y-29400000D01*
X96000000Y-26900000D02*
X96000000Y-29400000D01*
X119700000Y-26900000D02*
X96000000Y-26900000D01*
X119700000Y-29400000D02*
X119700000Y-26900000D01*
X149200000Y-29400000D02*
X119700000Y-29400000D01*
X149200000Y-44400000D02*
X149200000Y-29400000D01*
X150200000Y-44400000D02*
X149200000Y-44400000D01*
X150200000Y-46700000D02*
X150200000Y-44400000D01*
X142700000Y-46700000D02*
X150200000Y-46700000D01*
X142700000Y-56700000D02*
X142700000Y-46700000D01*
X146700000Y-56700000D02*
X142700000Y-56700000D01*
X146700000Y-76000000D02*
X146700000Y-56700000D01*
X97200000Y-76000000D02*
X146700000Y-76000000D01*
X97200000Y-130000000D02*
X97200000Y-76000000D01*
M02*
