G04 #@! TF.GenerationSoftware,KiCad,Pcbnew,5.1.5+dfsg1-2build2*
G04 #@! TF.CreationDate,2021-11-13T09:21:49+00:00*
G04 #@! TF.ProjectId,psion-org2-power,7073696f-6e2d-46f7-9267-322d706f7765,rev?*
G04 #@! TF.SameCoordinates,Original*
G04 #@! TF.FileFunction,Legend,Top*
G04 #@! TF.FilePolarity,Positive*
%FSLAX46Y46*%
G04 Gerber Fmt 4.6, Leading zero omitted, Abs format (unit mm)*
G04 Created by KiCad (PCBNEW 5.1.5+dfsg1-2build2) date 2021-11-13 09:21:49*
%MOMM*%
%LPD*%
G04 APERTURE LIST*
%ADD10C,0.150000*%
%ADD11C,0.120000*%
G04 APERTURE END LIST*
D10*
X85477380Y-119971428D02*
X84477380Y-119971428D01*
X84477380Y-119590476D01*
X84525000Y-119495238D01*
X84572619Y-119447619D01*
X84667857Y-119400000D01*
X84810714Y-119400000D01*
X84905952Y-119447619D01*
X84953571Y-119495238D01*
X85001190Y-119590476D01*
X85001190Y-119971428D01*
X85429761Y-119019047D02*
X85477380Y-118923809D01*
X85477380Y-118733333D01*
X85429761Y-118638095D01*
X85334523Y-118590476D01*
X85286904Y-118590476D01*
X85191666Y-118638095D01*
X85144047Y-118733333D01*
X85144047Y-118876190D01*
X85096428Y-118971428D01*
X85001190Y-119019047D01*
X84953571Y-119019047D01*
X84858333Y-118971428D01*
X84810714Y-118876190D01*
X84810714Y-118733333D01*
X84858333Y-118638095D01*
X85477380Y-118161904D02*
X84810714Y-118161904D01*
X84477380Y-118161904D02*
X84525000Y-118209523D01*
X84572619Y-118161904D01*
X84525000Y-118114285D01*
X84477380Y-118161904D01*
X84572619Y-118161904D01*
X85477380Y-117542857D02*
X85429761Y-117638095D01*
X85382142Y-117685714D01*
X85286904Y-117733333D01*
X85001190Y-117733333D01*
X84905952Y-117685714D01*
X84858333Y-117638095D01*
X84810714Y-117542857D01*
X84810714Y-117400000D01*
X84858333Y-117304761D01*
X84905952Y-117257142D01*
X85001190Y-117209523D01*
X85286904Y-117209523D01*
X85382142Y-117257142D01*
X85429761Y-117304761D01*
X85477380Y-117400000D01*
X85477380Y-117542857D01*
X84810714Y-116780952D02*
X85477380Y-116780952D01*
X84905952Y-116780952D02*
X84858333Y-116733333D01*
X84810714Y-116638095D01*
X84810714Y-116495238D01*
X84858333Y-116400000D01*
X84953571Y-116352380D01*
X85477380Y-116352380D01*
X84477380Y-114923809D02*
X84477380Y-114733333D01*
X84525000Y-114638095D01*
X84620238Y-114542857D01*
X84810714Y-114495238D01*
X85144047Y-114495238D01*
X85334523Y-114542857D01*
X85429761Y-114638095D01*
X85477380Y-114733333D01*
X85477380Y-114923809D01*
X85429761Y-115019047D01*
X85334523Y-115114285D01*
X85144047Y-115161904D01*
X84810714Y-115161904D01*
X84620238Y-115114285D01*
X84525000Y-115019047D01*
X84477380Y-114923809D01*
X85477380Y-114066666D02*
X84810714Y-114066666D01*
X85001190Y-114066666D02*
X84905952Y-114019047D01*
X84858333Y-113971428D01*
X84810714Y-113876190D01*
X84810714Y-113780952D01*
X84810714Y-113019047D02*
X85620238Y-113019047D01*
X85715476Y-113066666D01*
X85763095Y-113114285D01*
X85810714Y-113209523D01*
X85810714Y-113352380D01*
X85763095Y-113447619D01*
X85429761Y-113019047D02*
X85477380Y-113114285D01*
X85477380Y-113304761D01*
X85429761Y-113400000D01*
X85382142Y-113447619D01*
X85286904Y-113495238D01*
X85001190Y-113495238D01*
X84905952Y-113447619D01*
X84858333Y-113400000D01*
X84810714Y-113304761D01*
X84810714Y-113114285D01*
X84858333Y-113019047D01*
X85477380Y-112114285D02*
X84953571Y-112114285D01*
X84858333Y-112161904D01*
X84810714Y-112257142D01*
X84810714Y-112447619D01*
X84858333Y-112542857D01*
X85429761Y-112114285D02*
X85477380Y-112209523D01*
X85477380Y-112447619D01*
X85429761Y-112542857D01*
X85334523Y-112590476D01*
X85239285Y-112590476D01*
X85144047Y-112542857D01*
X85096428Y-112447619D01*
X85096428Y-112209523D01*
X85048809Y-112114285D01*
X84810714Y-111638095D02*
X85477380Y-111638095D01*
X84905952Y-111638095D02*
X84858333Y-111590476D01*
X84810714Y-111495238D01*
X84810714Y-111352380D01*
X84858333Y-111257142D01*
X84953571Y-111209523D01*
X85477380Y-111209523D01*
X85477380Y-110733333D02*
X84810714Y-110733333D01*
X84477380Y-110733333D02*
X84525000Y-110780952D01*
X84572619Y-110733333D01*
X84525000Y-110685714D01*
X84477380Y-110733333D01*
X84572619Y-110733333D01*
X85429761Y-110304761D02*
X85477380Y-110209523D01*
X85477380Y-110019047D01*
X85429761Y-109923809D01*
X85334523Y-109876190D01*
X85286904Y-109876190D01*
X85191666Y-109923809D01*
X85144047Y-110019047D01*
X85144047Y-110161904D01*
X85096428Y-110257142D01*
X85001190Y-110304761D01*
X84953571Y-110304761D01*
X84858333Y-110257142D01*
X84810714Y-110161904D01*
X84810714Y-110019047D01*
X84858333Y-109923809D01*
X85429761Y-109066666D02*
X85477380Y-109161904D01*
X85477380Y-109352380D01*
X85429761Y-109447619D01*
X85334523Y-109495238D01*
X84953571Y-109495238D01*
X84858333Y-109447619D01*
X84810714Y-109352380D01*
X84810714Y-109161904D01*
X84858333Y-109066666D01*
X84953571Y-109019047D01*
X85048809Y-109019047D01*
X85144047Y-109495238D01*
X85477380Y-108590476D02*
X84810714Y-108590476D01*
X85001190Y-108590476D02*
X84905952Y-108542857D01*
X84858333Y-108495238D01*
X84810714Y-108400000D01*
X84810714Y-108304761D01*
X84572619Y-107257142D02*
X84525000Y-107209523D01*
X84477380Y-107114285D01*
X84477380Y-106876190D01*
X84525000Y-106780952D01*
X84572619Y-106733333D01*
X84667857Y-106685714D01*
X84763095Y-106685714D01*
X84905952Y-106733333D01*
X85477380Y-107304761D01*
X85477380Y-106685714D01*
X85477380Y-104923809D02*
X85001190Y-105257142D01*
X85477380Y-105495238D02*
X84477380Y-105495238D01*
X84477380Y-105114285D01*
X84525000Y-105019047D01*
X84572619Y-104971428D01*
X84667857Y-104923809D01*
X84810714Y-104923809D01*
X84905952Y-104971428D01*
X84953571Y-105019047D01*
X85001190Y-105114285D01*
X85001190Y-105495238D01*
X85429761Y-104114285D02*
X85477380Y-104209523D01*
X85477380Y-104400000D01*
X85429761Y-104495238D01*
X85334523Y-104542857D01*
X84953571Y-104542857D01*
X84858333Y-104495238D01*
X84810714Y-104400000D01*
X84810714Y-104209523D01*
X84858333Y-104114285D01*
X84953571Y-104066666D01*
X85048809Y-104066666D01*
X85144047Y-104542857D01*
X85382142Y-102304761D02*
X85429761Y-102352380D01*
X85477380Y-102495238D01*
X85477380Y-102590476D01*
X85429761Y-102733333D01*
X85334523Y-102828571D01*
X85239285Y-102876190D01*
X85048809Y-102923809D01*
X84905952Y-102923809D01*
X84715476Y-102876190D01*
X84620238Y-102828571D01*
X84525000Y-102733333D01*
X84477380Y-102590476D01*
X84477380Y-102495238D01*
X84525000Y-102352380D01*
X84572619Y-102304761D01*
X85477380Y-101876190D02*
X84810714Y-101876190D01*
X85001190Y-101876190D02*
X84905952Y-101828571D01*
X84858333Y-101780952D01*
X84810714Y-101685714D01*
X84810714Y-101590476D01*
X85429761Y-100876190D02*
X85477380Y-100971428D01*
X85477380Y-101161904D01*
X85429761Y-101257142D01*
X85334523Y-101304761D01*
X84953571Y-101304761D01*
X84858333Y-101257142D01*
X84810714Y-101161904D01*
X84810714Y-100971428D01*
X84858333Y-100876190D01*
X84953571Y-100828571D01*
X85048809Y-100828571D01*
X85144047Y-101304761D01*
X85477380Y-99971428D02*
X84953571Y-99971428D01*
X84858333Y-100019047D01*
X84810714Y-100114285D01*
X84810714Y-100304761D01*
X84858333Y-100400000D01*
X85429761Y-99971428D02*
X85477380Y-100066666D01*
X85477380Y-100304761D01*
X85429761Y-100400000D01*
X85334523Y-100447619D01*
X85239285Y-100447619D01*
X85144047Y-100400000D01*
X85096428Y-100304761D01*
X85096428Y-100066666D01*
X85048809Y-99971428D01*
X84810714Y-99638095D02*
X84810714Y-99257142D01*
X84477380Y-99495238D02*
X85334523Y-99495238D01*
X85429761Y-99447619D01*
X85477380Y-99352380D01*
X85477380Y-99257142D01*
X85477380Y-98923809D02*
X84810714Y-98923809D01*
X84477380Y-98923809D02*
X84525000Y-98971428D01*
X84572619Y-98923809D01*
X84525000Y-98876190D01*
X84477380Y-98923809D01*
X84572619Y-98923809D01*
X85477380Y-98304761D02*
X85429761Y-98400000D01*
X85382142Y-98447619D01*
X85286904Y-98495238D01*
X85001190Y-98495238D01*
X84905952Y-98447619D01*
X84858333Y-98400000D01*
X84810714Y-98304761D01*
X84810714Y-98161904D01*
X84858333Y-98066666D01*
X84905952Y-98019047D01*
X85001190Y-97971428D01*
X85286904Y-97971428D01*
X85382142Y-98019047D01*
X85429761Y-98066666D01*
X85477380Y-98161904D01*
X85477380Y-98304761D01*
X84810714Y-97542857D02*
X85477380Y-97542857D01*
X84905952Y-97542857D02*
X84858333Y-97495238D01*
X84810714Y-97400000D01*
X84810714Y-97257142D01*
X84858333Y-97161904D01*
X84953571Y-97114285D01*
X85477380Y-97114285D01*
X85477380Y-95876190D02*
X84477380Y-95876190D01*
X84477380Y-95495238D01*
X84525000Y-95400000D01*
X84572619Y-95352380D01*
X84667857Y-95304761D01*
X84810714Y-95304761D01*
X84905952Y-95352380D01*
X84953571Y-95400000D01*
X85001190Y-95495238D01*
X85001190Y-95876190D01*
X85477380Y-94733333D02*
X85429761Y-94828571D01*
X85382142Y-94876190D01*
X85286904Y-94923809D01*
X85001190Y-94923809D01*
X84905952Y-94876190D01*
X84858333Y-94828571D01*
X84810714Y-94733333D01*
X84810714Y-94590476D01*
X84858333Y-94495238D01*
X84905952Y-94447619D01*
X85001190Y-94400000D01*
X85286904Y-94400000D01*
X85382142Y-94447619D01*
X85429761Y-94495238D01*
X85477380Y-94590476D01*
X85477380Y-94733333D01*
X84810714Y-94066666D02*
X85477380Y-93876190D01*
X85001190Y-93685714D01*
X85477380Y-93495238D01*
X84810714Y-93304761D01*
X85429761Y-92542857D02*
X85477380Y-92638095D01*
X85477380Y-92828571D01*
X85429761Y-92923809D01*
X85334523Y-92971428D01*
X84953571Y-92971428D01*
X84858333Y-92923809D01*
X84810714Y-92828571D01*
X84810714Y-92638095D01*
X84858333Y-92542857D01*
X84953571Y-92495238D01*
X85048809Y-92495238D01*
X85144047Y-92971428D01*
X85477380Y-92066666D02*
X84810714Y-92066666D01*
X85001190Y-92066666D02*
X84905952Y-92019047D01*
X84858333Y-91971428D01*
X84810714Y-91876190D01*
X84810714Y-91780952D01*
X84953571Y-90352380D02*
X85001190Y-90209523D01*
X85048809Y-90161904D01*
X85144047Y-90114285D01*
X85286904Y-90114285D01*
X85382142Y-90161904D01*
X85429761Y-90209523D01*
X85477380Y-90304761D01*
X85477380Y-90685714D01*
X84477380Y-90685714D01*
X84477380Y-90352380D01*
X84525000Y-90257142D01*
X84572619Y-90209523D01*
X84667857Y-90161904D01*
X84763095Y-90161904D01*
X84858333Y-90209523D01*
X84905952Y-90257142D01*
X84953571Y-90352380D01*
X84953571Y-90685714D01*
X85477380Y-89542857D02*
X85429761Y-89638095D01*
X85382142Y-89685714D01*
X85286904Y-89733333D01*
X85001190Y-89733333D01*
X84905952Y-89685714D01*
X84858333Y-89638095D01*
X84810714Y-89542857D01*
X84810714Y-89400000D01*
X84858333Y-89304761D01*
X84905952Y-89257142D01*
X85001190Y-89209523D01*
X85286904Y-89209523D01*
X85382142Y-89257142D01*
X85429761Y-89304761D01*
X85477380Y-89400000D01*
X85477380Y-89542857D01*
X85477380Y-88352380D02*
X84953571Y-88352380D01*
X84858333Y-88400000D01*
X84810714Y-88495238D01*
X84810714Y-88685714D01*
X84858333Y-88780952D01*
X85429761Y-88352380D02*
X85477380Y-88447619D01*
X85477380Y-88685714D01*
X85429761Y-88780952D01*
X85334523Y-88828571D01*
X85239285Y-88828571D01*
X85144047Y-88780952D01*
X85096428Y-88685714D01*
X85096428Y-88447619D01*
X85048809Y-88352380D01*
X85477380Y-87876190D02*
X84810714Y-87876190D01*
X85001190Y-87876190D02*
X84905952Y-87828571D01*
X84858333Y-87780952D01*
X84810714Y-87685714D01*
X84810714Y-87590476D01*
X85477380Y-86828571D02*
X84477380Y-86828571D01*
X85429761Y-86828571D02*
X85477380Y-86923809D01*
X85477380Y-87114285D01*
X85429761Y-87209523D01*
X85382142Y-87257142D01*
X85286904Y-87304761D01*
X85001190Y-87304761D01*
X84905952Y-87257142D01*
X84858333Y-87209523D01*
X84810714Y-87114285D01*
X84810714Y-86923809D01*
X84858333Y-86828571D01*
X87127380Y-107185714D02*
X86127380Y-107185714D01*
X87127380Y-106614285D01*
X86127380Y-106614285D01*
X87127380Y-105995238D02*
X87079761Y-106090476D01*
X87032142Y-106138095D01*
X86936904Y-106185714D01*
X86651190Y-106185714D01*
X86555952Y-106138095D01*
X86508333Y-106090476D01*
X86460714Y-105995238D01*
X86460714Y-105852380D01*
X86508333Y-105757142D01*
X86555952Y-105709523D01*
X86651190Y-105661904D01*
X86936904Y-105661904D01*
X87032142Y-105709523D01*
X87079761Y-105757142D01*
X87127380Y-105852380D01*
X87127380Y-105995238D01*
X86460714Y-105328571D02*
X87127380Y-105090476D01*
X86460714Y-104852380D01*
X86222619Y-103757142D02*
X86175000Y-103709523D01*
X86127380Y-103614285D01*
X86127380Y-103376190D01*
X86175000Y-103280952D01*
X86222619Y-103233333D01*
X86317857Y-103185714D01*
X86413095Y-103185714D01*
X86555952Y-103233333D01*
X87127380Y-103804761D01*
X87127380Y-103185714D01*
X86127380Y-102566666D02*
X86127380Y-102471428D01*
X86175000Y-102376190D01*
X86222619Y-102328571D01*
X86317857Y-102280952D01*
X86508333Y-102233333D01*
X86746428Y-102233333D01*
X86936904Y-102280952D01*
X87032142Y-102328571D01*
X87079761Y-102376190D01*
X87127380Y-102471428D01*
X87127380Y-102566666D01*
X87079761Y-102661904D01*
X87032142Y-102709523D01*
X86936904Y-102757142D01*
X86746428Y-102804761D01*
X86508333Y-102804761D01*
X86317857Y-102757142D01*
X86222619Y-102709523D01*
X86175000Y-102661904D01*
X86127380Y-102566666D01*
X86222619Y-101852380D02*
X86175000Y-101804761D01*
X86127380Y-101709523D01*
X86127380Y-101471428D01*
X86175000Y-101376190D01*
X86222619Y-101328571D01*
X86317857Y-101280952D01*
X86413095Y-101280952D01*
X86555952Y-101328571D01*
X87127380Y-101900000D01*
X87127380Y-101280952D01*
X87127380Y-100328571D02*
X87127380Y-100900000D01*
X87127380Y-100614285D02*
X86127380Y-100614285D01*
X86270238Y-100709523D01*
X86365476Y-100804761D01*
X86413095Y-100900000D01*
X87777380Y-105685714D02*
X88777380Y-105352380D01*
X87777380Y-105019047D01*
X88777380Y-104161904D02*
X88777380Y-104733333D01*
X88777380Y-104447619D02*
X87777380Y-104447619D01*
X87920238Y-104542857D01*
X88015476Y-104638095D01*
X88063095Y-104733333D01*
X88682142Y-103733333D02*
X88729761Y-103685714D01*
X88777380Y-103733333D01*
X88729761Y-103780952D01*
X88682142Y-103733333D01*
X88777380Y-103733333D01*
X87777380Y-103066666D02*
X87777380Y-102971428D01*
X87825000Y-102876190D01*
X87872619Y-102828571D01*
X87967857Y-102780952D01*
X88158333Y-102733333D01*
X88396428Y-102733333D01*
X88586904Y-102780952D01*
X88682142Y-102828571D01*
X88729761Y-102876190D01*
X88777380Y-102971428D01*
X88777380Y-103066666D01*
X88729761Y-103161904D01*
X88682142Y-103209523D01*
X88586904Y-103257142D01*
X88396428Y-103304761D01*
X88158333Y-103304761D01*
X87967857Y-103257142D01*
X87872619Y-103209523D01*
X87825000Y-103161904D01*
X87777380Y-103066666D01*
X90427380Y-110995238D02*
X89760714Y-110995238D01*
X89855952Y-110995238D02*
X89808333Y-110947619D01*
X89760714Y-110852380D01*
X89760714Y-110709523D01*
X89808333Y-110614285D01*
X89903571Y-110566666D01*
X90427380Y-110566666D01*
X89903571Y-110566666D02*
X89808333Y-110519047D01*
X89760714Y-110423809D01*
X89760714Y-110280952D01*
X89808333Y-110185714D01*
X89903571Y-110138095D01*
X90427380Y-110138095D01*
X90379761Y-109280952D02*
X90427380Y-109376190D01*
X90427380Y-109566666D01*
X90379761Y-109661904D01*
X90284523Y-109709523D01*
X89903571Y-109709523D01*
X89808333Y-109661904D01*
X89760714Y-109566666D01*
X89760714Y-109376190D01*
X89808333Y-109280952D01*
X89903571Y-109233333D01*
X89998809Y-109233333D01*
X90094047Y-109709523D01*
X89760714Y-108804761D02*
X90427380Y-108804761D01*
X89855952Y-108804761D02*
X89808333Y-108757142D01*
X89760714Y-108661904D01*
X89760714Y-108519047D01*
X89808333Y-108423809D01*
X89903571Y-108376190D01*
X90427380Y-108376190D01*
X90427380Y-107471428D02*
X89903571Y-107471428D01*
X89808333Y-107519047D01*
X89760714Y-107614285D01*
X89760714Y-107804761D01*
X89808333Y-107900000D01*
X90379761Y-107471428D02*
X90427380Y-107566666D01*
X90427380Y-107804761D01*
X90379761Y-107900000D01*
X90284523Y-107947619D01*
X90189285Y-107947619D01*
X90094047Y-107900000D01*
X90046428Y-107804761D01*
X90046428Y-107566666D01*
X89998809Y-107471428D01*
X90427380Y-106566666D02*
X89427380Y-106566666D01*
X90379761Y-106566666D02*
X90427380Y-106661904D01*
X90427380Y-106852380D01*
X90379761Y-106947619D01*
X90332142Y-106995238D01*
X90236904Y-107042857D01*
X89951190Y-107042857D01*
X89855952Y-106995238D01*
X89808333Y-106947619D01*
X89760714Y-106852380D01*
X89760714Y-106661904D01*
X89808333Y-106566666D01*
X89760714Y-105661904D02*
X90427380Y-105661904D01*
X89760714Y-106090476D02*
X90284523Y-106090476D01*
X90379761Y-106042857D01*
X90427380Y-105947619D01*
X90427380Y-105804761D01*
X90379761Y-105709523D01*
X90332142Y-105661904D01*
X90379761Y-104804761D02*
X90427380Y-104900000D01*
X90427380Y-105090476D01*
X90379761Y-105185714D01*
X90284523Y-105233333D01*
X89903571Y-105233333D01*
X89808333Y-105185714D01*
X89760714Y-105090476D01*
X89760714Y-104900000D01*
X89808333Y-104804761D01*
X89903571Y-104757142D01*
X89998809Y-104757142D01*
X90094047Y-105233333D01*
X89951190Y-103709523D02*
X89903571Y-103757142D01*
X89855952Y-103852380D01*
X89855952Y-103947619D01*
X89903571Y-104042857D01*
X89951190Y-104090476D01*
X90046428Y-104138095D01*
X90141666Y-104138095D01*
X90236904Y-104090476D01*
X90284523Y-104042857D01*
X90332142Y-103947619D01*
X90332142Y-103852380D01*
X90284523Y-103757142D01*
X90236904Y-103709523D01*
X89855952Y-103709523D02*
X90236904Y-103709523D01*
X90284523Y-103661904D01*
X90284523Y-103614285D01*
X90236904Y-103519047D01*
X90141666Y-103471428D01*
X89903571Y-103471428D01*
X89760714Y-103566666D01*
X89665476Y-103709523D01*
X89617857Y-103900000D01*
X89665476Y-104090476D01*
X89760714Y-104233333D01*
X89903571Y-104328571D01*
X90094047Y-104376190D01*
X90284523Y-104328571D01*
X90427380Y-104233333D01*
X90522619Y-104090476D01*
X90570238Y-103900000D01*
X90522619Y-103709523D01*
X90427380Y-103566666D01*
X89760714Y-102614285D02*
X90570238Y-102614285D01*
X90665476Y-102661904D01*
X90713095Y-102709523D01*
X90760714Y-102804761D01*
X90760714Y-102947619D01*
X90713095Y-103042857D01*
X90379761Y-102614285D02*
X90427380Y-102709523D01*
X90427380Y-102900000D01*
X90379761Y-102995238D01*
X90332142Y-103042857D01*
X90236904Y-103090476D01*
X89951190Y-103090476D01*
X89855952Y-103042857D01*
X89808333Y-102995238D01*
X89760714Y-102900000D01*
X89760714Y-102709523D01*
X89808333Y-102614285D01*
X90427380Y-102138095D02*
X89760714Y-102138095D01*
X89855952Y-102138095D02*
X89808333Y-102090476D01*
X89760714Y-101995238D01*
X89760714Y-101852380D01*
X89808333Y-101757142D01*
X89903571Y-101709523D01*
X90427380Y-101709523D01*
X89903571Y-101709523D02*
X89808333Y-101661904D01*
X89760714Y-101566666D01*
X89760714Y-101423809D01*
X89808333Y-101328571D01*
X89903571Y-101280952D01*
X90427380Y-101280952D01*
X90427380Y-100376190D02*
X89903571Y-100376190D01*
X89808333Y-100423809D01*
X89760714Y-100519047D01*
X89760714Y-100709523D01*
X89808333Y-100804761D01*
X90379761Y-100376190D02*
X90427380Y-100471428D01*
X90427380Y-100709523D01*
X90379761Y-100804761D01*
X90284523Y-100852380D01*
X90189285Y-100852380D01*
X90094047Y-100804761D01*
X90046428Y-100709523D01*
X90046428Y-100471428D01*
X89998809Y-100376190D01*
X90427380Y-99900000D02*
X89760714Y-99900000D01*
X89427380Y-99900000D02*
X89475000Y-99947619D01*
X89522619Y-99900000D01*
X89475000Y-99852380D01*
X89427380Y-99900000D01*
X89522619Y-99900000D01*
X90427380Y-99280952D02*
X90379761Y-99376190D01*
X90284523Y-99423809D01*
X89427380Y-99423809D01*
X90332142Y-98900000D02*
X90379761Y-98852380D01*
X90427380Y-98900000D01*
X90379761Y-98947619D01*
X90332142Y-98900000D01*
X90427380Y-98900000D01*
X90379761Y-97995238D02*
X90427380Y-98090476D01*
X90427380Y-98280952D01*
X90379761Y-98376190D01*
X90332142Y-98423809D01*
X90236904Y-98471428D01*
X89951190Y-98471428D01*
X89855952Y-98423809D01*
X89808333Y-98376190D01*
X89760714Y-98280952D01*
X89760714Y-98090476D01*
X89808333Y-97995238D01*
X90427380Y-97423809D02*
X90379761Y-97519047D01*
X90332142Y-97566666D01*
X90236904Y-97614285D01*
X89951190Y-97614285D01*
X89855952Y-97566666D01*
X89808333Y-97519047D01*
X89760714Y-97423809D01*
X89760714Y-97280952D01*
X89808333Y-97185714D01*
X89855952Y-97138095D01*
X89951190Y-97090476D01*
X90236904Y-97090476D01*
X90332142Y-97138095D01*
X90379761Y-97185714D01*
X90427380Y-97280952D01*
X90427380Y-97423809D01*
X90427380Y-96661904D02*
X89760714Y-96661904D01*
X89855952Y-96661904D02*
X89808333Y-96614285D01*
X89760714Y-96519047D01*
X89760714Y-96376190D01*
X89808333Y-96280952D01*
X89903571Y-96233333D01*
X90427380Y-96233333D01*
X89903571Y-96233333D02*
X89808333Y-96185714D01*
X89760714Y-96090476D01*
X89760714Y-95947619D01*
X89808333Y-95852380D01*
X89903571Y-95804761D01*
X90427380Y-95804761D01*
X88538095Y-41000000D02*
X88442857Y-40952380D01*
X88300000Y-40952380D01*
X88157142Y-41000000D01*
X88061904Y-41095238D01*
X88014285Y-41190476D01*
X87966666Y-41380952D01*
X87966666Y-41523809D01*
X88014285Y-41714285D01*
X88061904Y-41809523D01*
X88157142Y-41904761D01*
X88300000Y-41952380D01*
X88395238Y-41952380D01*
X88538095Y-41904761D01*
X88585714Y-41857142D01*
X88585714Y-41523809D01*
X88395238Y-41523809D01*
X89014285Y-41952380D02*
X89014285Y-40952380D01*
X89585714Y-41952380D01*
X89585714Y-40952380D01*
X90061904Y-41952380D02*
X90061904Y-40952380D01*
X90300000Y-40952380D01*
X90442857Y-41000000D01*
X90538095Y-41095238D01*
X90585714Y-41190476D01*
X90633333Y-41380952D01*
X90633333Y-41523809D01*
X90585714Y-41714285D01*
X90538095Y-41809523D01*
X90442857Y-41904761D01*
X90300000Y-41952380D01*
X90061904Y-41952380D01*
X82457142Y-35152380D02*
X82790476Y-36152380D01*
X83123809Y-35152380D01*
X83790476Y-35628571D02*
X83933333Y-35676190D01*
X83980952Y-35723809D01*
X84028571Y-35819047D01*
X84028571Y-35961904D01*
X83980952Y-36057142D01*
X83933333Y-36104761D01*
X83838095Y-36152380D01*
X83457142Y-36152380D01*
X83457142Y-35152380D01*
X83790476Y-35152380D01*
X83885714Y-35200000D01*
X83933333Y-35247619D01*
X83980952Y-35342857D01*
X83980952Y-35438095D01*
X83933333Y-35533333D01*
X83885714Y-35580952D01*
X83790476Y-35628571D01*
X83457142Y-35628571D01*
X84409523Y-35866666D02*
X84885714Y-35866666D01*
X84314285Y-36152380D02*
X84647619Y-35152380D01*
X84980952Y-36152380D01*
X85171428Y-35152380D02*
X85742857Y-35152380D01*
X85457142Y-36152380D02*
X85457142Y-35152380D01*
X107700000Y-40400000D02*
X109500000Y-40400000D01*
X107700000Y-26900000D02*
X107700000Y-40400000D01*
X129600000Y-49600000D02*
X129600000Y-29400000D01*
X132100000Y-49600000D02*
X129600000Y-49600000D01*
X95400000Y-49600000D02*
X132100000Y-49600000D01*
X95400000Y-38100000D02*
X95400000Y-52100000D01*
X95400000Y-38100000D02*
X92900000Y-38100000D01*
X139600000Y-30900000D02*
X139600000Y-29400000D01*
X139600000Y-39100000D02*
X139600000Y-30900000D01*
X132100000Y-39100000D02*
X139600000Y-39100000D01*
X132100000Y-52100000D02*
X132100000Y-39100000D01*
X92900000Y-52100000D02*
X132100000Y-52100000D01*
X92900000Y-38100000D02*
X92900000Y-52100000D01*
X85900000Y-38100000D02*
X92900000Y-38100000D01*
X85900000Y-29400000D02*
X85900000Y-38100000D01*
X84300000Y-83250000D02*
X93350000Y-83250000D01*
X84300000Y-126500000D02*
X92700000Y-126500000D01*
X89450000Y-66750000D02*
X89450000Y-60775000D01*
X96350000Y-65225000D02*
X96350000Y-60775000D01*
D11*
X107241422Y-44010000D02*
X107758578Y-44010000D01*
X107241422Y-42590000D02*
X107758578Y-42590000D01*
D10*
X111950000Y-62950000D02*
X111950000Y-68925000D01*
X105050000Y-64475000D02*
X105050000Y-68925000D01*
D11*
X128080000Y-38440000D02*
X128080000Y-39900000D01*
X124920000Y-38440000D02*
X124920000Y-40600000D01*
X124920000Y-38440000D02*
X125850000Y-38440000D01*
X128080000Y-38440000D02*
X127150000Y-38440000D01*
X128080000Y-46040000D02*
X128080000Y-47500000D01*
X124920000Y-46040000D02*
X124920000Y-48200000D01*
X124920000Y-46040000D02*
X125850000Y-46040000D01*
X128080000Y-46040000D02*
X127150000Y-46040000D01*
X126758578Y-42190000D02*
X126241422Y-42190000D01*
X126758578Y-43610000D02*
X126241422Y-43610000D01*
X84870000Y-38490000D02*
X84870000Y-41600000D01*
X87530000Y-41030000D02*
X87530000Y-41600000D01*
X84870000Y-36400000D02*
X84870000Y-36970000D01*
X84870000Y-36970000D02*
X83350000Y-36970000D01*
X87530000Y-36400000D02*
X87530000Y-39510000D01*
X84870000Y-41600000D02*
X87530000Y-41600000D01*
X84870000Y-36400000D02*
X87530000Y-36400000D01*
X97630000Y-41670000D02*
X97630000Y-40400000D01*
X98900000Y-41670000D02*
X97630000Y-41670000D01*
X117060000Y-39357071D02*
X117060000Y-38902929D01*
X116300000Y-39357071D02*
X116300000Y-38902929D01*
X117060000Y-36817071D02*
X117060000Y-36420000D01*
X116300000Y-36817071D02*
X116300000Y-36420000D01*
X117060000Y-27760000D02*
X117060000Y-33760000D01*
X116300000Y-27760000D02*
X117060000Y-27760000D01*
X116300000Y-33760000D02*
X116300000Y-27760000D01*
X115410000Y-36420000D02*
X115410000Y-33760000D01*
X114520000Y-39357071D02*
X114520000Y-38902929D01*
X113760000Y-39357071D02*
X113760000Y-38902929D01*
X114520000Y-36817071D02*
X114520000Y-36420000D01*
X113760000Y-36817071D02*
X113760000Y-36420000D01*
X114520000Y-27760000D02*
X114520000Y-33760000D01*
X113760000Y-27760000D02*
X114520000Y-27760000D01*
X113760000Y-33760000D02*
X113760000Y-27760000D01*
X112870000Y-36420000D02*
X112870000Y-33760000D01*
X111980000Y-39357071D02*
X111980000Y-38902929D01*
X111220000Y-39357071D02*
X111220000Y-38902929D01*
X111980000Y-36817071D02*
X111980000Y-36420000D01*
X111220000Y-36817071D02*
X111220000Y-36420000D01*
X111980000Y-27760000D02*
X111980000Y-33760000D01*
X111220000Y-27760000D02*
X111980000Y-27760000D01*
X111220000Y-33760000D02*
X111220000Y-27760000D01*
X110330000Y-36420000D02*
X110330000Y-33760000D01*
X109440000Y-39357071D02*
X109440000Y-38902929D01*
X108680000Y-39357071D02*
X108680000Y-38902929D01*
X109440000Y-36817071D02*
X109440000Y-36420000D01*
X108680000Y-36817071D02*
X108680000Y-36420000D01*
X109440000Y-27760000D02*
X109440000Y-33760000D01*
X108680000Y-27760000D02*
X109440000Y-27760000D01*
X108680000Y-33760000D02*
X108680000Y-27760000D01*
X107790000Y-36420000D02*
X107790000Y-33760000D01*
X106900000Y-39357071D02*
X106900000Y-38902929D01*
X106140000Y-39357071D02*
X106140000Y-38902929D01*
X106900000Y-36817071D02*
X106900000Y-36420000D01*
X106140000Y-36817071D02*
X106140000Y-36420000D01*
X106900000Y-27760000D02*
X106900000Y-33760000D01*
X106140000Y-27760000D02*
X106900000Y-27760000D01*
X106140000Y-33760000D02*
X106140000Y-27760000D01*
X105250000Y-36420000D02*
X105250000Y-33760000D01*
X104360000Y-39357071D02*
X104360000Y-38902929D01*
X103600000Y-39357071D02*
X103600000Y-38902929D01*
X104360000Y-36817071D02*
X104360000Y-36420000D01*
X103600000Y-36817071D02*
X103600000Y-36420000D01*
X104360000Y-27760000D02*
X104360000Y-33760000D01*
X103600000Y-27760000D02*
X104360000Y-27760000D01*
X103600000Y-33760000D02*
X103600000Y-27760000D01*
X102710000Y-36420000D02*
X102710000Y-33760000D01*
X101820000Y-39357071D02*
X101820000Y-38902929D01*
X101060000Y-39357071D02*
X101060000Y-38902929D01*
X101820000Y-36817071D02*
X101820000Y-36420000D01*
X101060000Y-36817071D02*
X101060000Y-36420000D01*
X101820000Y-27760000D02*
X101820000Y-33760000D01*
X101060000Y-27760000D02*
X101820000Y-27760000D01*
X101060000Y-33760000D02*
X101060000Y-27760000D01*
X100170000Y-36420000D02*
X100170000Y-33760000D01*
X99280000Y-39290000D02*
X99280000Y-38902929D01*
X98520000Y-39290000D02*
X98520000Y-38902929D01*
X99280000Y-36817071D02*
X99280000Y-36420000D01*
X98520000Y-36817071D02*
X98520000Y-36420000D01*
X99180000Y-33760000D02*
X99180000Y-27760000D01*
X99060000Y-33760000D02*
X99060000Y-27760000D01*
X98940000Y-33760000D02*
X98940000Y-27760000D01*
X98820000Y-33760000D02*
X98820000Y-27760000D01*
X98700000Y-33760000D02*
X98700000Y-27760000D01*
X98580000Y-33760000D02*
X98580000Y-27760000D01*
X99280000Y-27760000D02*
X99280000Y-33760000D01*
X98520000Y-27760000D02*
X99280000Y-27760000D01*
X98520000Y-33760000D02*
X98520000Y-27760000D01*
X97570000Y-33760000D02*
X97570000Y-36420000D01*
X118010000Y-33760000D02*
X97570000Y-33760000D01*
X118010000Y-36420000D02*
X118010000Y-33760000D01*
X97570000Y-36420000D02*
X118010000Y-36420000D01*
X92330000Y-107430000D02*
X93600000Y-107430000D01*
X92330000Y-108700000D02*
X92330000Y-107430000D01*
X94642929Y-108340000D02*
X95097071Y-108340000D01*
X94642929Y-109100000D02*
X95097071Y-109100000D01*
X97182929Y-126860000D02*
X97580000Y-126860000D01*
X97182929Y-126100000D02*
X97580000Y-126100000D01*
X106240000Y-126860000D02*
X100240000Y-126860000D01*
X106240000Y-126100000D02*
X106240000Y-126860000D01*
X100240000Y-126100000D02*
X106240000Y-126100000D01*
X97580000Y-125210000D02*
X100240000Y-125210000D01*
X94642929Y-110880000D02*
X95097071Y-110880000D01*
X94642929Y-111640000D02*
X95097071Y-111640000D01*
X97182929Y-124320000D02*
X97580000Y-124320000D01*
X97182929Y-123560000D02*
X97580000Y-123560000D01*
X106240000Y-124320000D02*
X100240000Y-124320000D01*
X106240000Y-123560000D02*
X106240000Y-124320000D01*
X100240000Y-123560000D02*
X106240000Y-123560000D01*
X97580000Y-122670000D02*
X100240000Y-122670000D01*
X94642929Y-113420000D02*
X95097071Y-113420000D01*
X94642929Y-114180000D02*
X95097071Y-114180000D01*
X97182929Y-121780000D02*
X97580000Y-121780000D01*
X97182929Y-121020000D02*
X97580000Y-121020000D01*
X106240000Y-121780000D02*
X100240000Y-121780000D01*
X106240000Y-121020000D02*
X106240000Y-121780000D01*
X100240000Y-121020000D02*
X106240000Y-121020000D01*
X97580000Y-120130000D02*
X100240000Y-120130000D01*
X94642929Y-115960000D02*
X95097071Y-115960000D01*
X94642929Y-116720000D02*
X95097071Y-116720000D01*
X97182929Y-119240000D02*
X97580000Y-119240000D01*
X97182929Y-118480000D02*
X97580000Y-118480000D01*
X106240000Y-119240000D02*
X100240000Y-119240000D01*
X106240000Y-118480000D02*
X106240000Y-119240000D01*
X100240000Y-118480000D02*
X106240000Y-118480000D01*
X97580000Y-117590000D02*
X100240000Y-117590000D01*
X94642929Y-118500000D02*
X95097071Y-118500000D01*
X94642929Y-119260000D02*
X95097071Y-119260000D01*
X97182929Y-116700000D02*
X97580000Y-116700000D01*
X97182929Y-115940000D02*
X97580000Y-115940000D01*
X106240000Y-116700000D02*
X100240000Y-116700000D01*
X106240000Y-115940000D02*
X106240000Y-116700000D01*
X100240000Y-115940000D02*
X106240000Y-115940000D01*
X97580000Y-115050000D02*
X100240000Y-115050000D01*
X94642929Y-121040000D02*
X95097071Y-121040000D01*
X94642929Y-121800000D02*
X95097071Y-121800000D01*
X97182929Y-114160000D02*
X97580000Y-114160000D01*
X97182929Y-113400000D02*
X97580000Y-113400000D01*
X106240000Y-114160000D02*
X100240000Y-114160000D01*
X106240000Y-113400000D02*
X106240000Y-114160000D01*
X100240000Y-113400000D02*
X106240000Y-113400000D01*
X97580000Y-112510000D02*
X100240000Y-112510000D01*
X94642929Y-123580000D02*
X95097071Y-123580000D01*
X94642929Y-124340000D02*
X95097071Y-124340000D01*
X97182929Y-111620000D02*
X97580000Y-111620000D01*
X97182929Y-110860000D02*
X97580000Y-110860000D01*
X106240000Y-111620000D02*
X100240000Y-111620000D01*
X106240000Y-110860000D02*
X106240000Y-111620000D01*
X100240000Y-110860000D02*
X106240000Y-110860000D01*
X97580000Y-109970000D02*
X100240000Y-109970000D01*
X94710000Y-126120000D02*
X95097071Y-126120000D01*
X94710000Y-126880000D02*
X95097071Y-126880000D01*
X97182929Y-109080000D02*
X97580000Y-109080000D01*
X97182929Y-108320000D02*
X97580000Y-108320000D01*
X100240000Y-108980000D02*
X106240000Y-108980000D01*
X100240000Y-108860000D02*
X106240000Y-108860000D01*
X100240000Y-108740000D02*
X106240000Y-108740000D01*
X100240000Y-108620000D02*
X106240000Y-108620000D01*
X100240000Y-108500000D02*
X106240000Y-108500000D01*
X100240000Y-108380000D02*
X106240000Y-108380000D01*
X106240000Y-109080000D02*
X100240000Y-109080000D01*
X106240000Y-108320000D02*
X106240000Y-109080000D01*
X100240000Y-108320000D02*
X106240000Y-108320000D01*
X100240000Y-107370000D02*
X97580000Y-107370000D01*
X100240000Y-127810000D02*
X100240000Y-107370000D01*
X97580000Y-127810000D02*
X100240000Y-127810000D01*
X97580000Y-107370000D02*
X97580000Y-127810000D01*
X92380000Y-80830000D02*
X93650000Y-80830000D01*
X92380000Y-82100000D02*
X92380000Y-80830000D01*
X94692929Y-81740000D02*
X95147071Y-81740000D01*
X94692929Y-82500000D02*
X95147071Y-82500000D01*
X97232929Y-100260000D02*
X97630000Y-100260000D01*
X97232929Y-99500000D02*
X97630000Y-99500000D01*
X106290000Y-100260000D02*
X100290000Y-100260000D01*
X106290000Y-99500000D02*
X106290000Y-100260000D01*
X100290000Y-99500000D02*
X106290000Y-99500000D01*
X97630000Y-98610000D02*
X100290000Y-98610000D01*
X94692929Y-84280000D02*
X95147071Y-84280000D01*
X94692929Y-85040000D02*
X95147071Y-85040000D01*
X97232929Y-97720000D02*
X97630000Y-97720000D01*
X97232929Y-96960000D02*
X97630000Y-96960000D01*
X106290000Y-97720000D02*
X100290000Y-97720000D01*
X106290000Y-96960000D02*
X106290000Y-97720000D01*
X100290000Y-96960000D02*
X106290000Y-96960000D01*
X97630000Y-96070000D02*
X100290000Y-96070000D01*
X94692929Y-86820000D02*
X95147071Y-86820000D01*
X94692929Y-87580000D02*
X95147071Y-87580000D01*
X97232929Y-95180000D02*
X97630000Y-95180000D01*
X97232929Y-94420000D02*
X97630000Y-94420000D01*
X106290000Y-95180000D02*
X100290000Y-95180000D01*
X106290000Y-94420000D02*
X106290000Y-95180000D01*
X100290000Y-94420000D02*
X106290000Y-94420000D01*
X97630000Y-93530000D02*
X100290000Y-93530000D01*
X94692929Y-89360000D02*
X95147071Y-89360000D01*
X94692929Y-90120000D02*
X95147071Y-90120000D01*
X97232929Y-92640000D02*
X97630000Y-92640000D01*
X97232929Y-91880000D02*
X97630000Y-91880000D01*
X106290000Y-92640000D02*
X100290000Y-92640000D01*
X106290000Y-91880000D02*
X106290000Y-92640000D01*
X100290000Y-91880000D02*
X106290000Y-91880000D01*
X97630000Y-90990000D02*
X100290000Y-90990000D01*
X94692929Y-91900000D02*
X95147071Y-91900000D01*
X94692929Y-92660000D02*
X95147071Y-92660000D01*
X97232929Y-90100000D02*
X97630000Y-90100000D01*
X97232929Y-89340000D02*
X97630000Y-89340000D01*
X106290000Y-90100000D02*
X100290000Y-90100000D01*
X106290000Y-89340000D02*
X106290000Y-90100000D01*
X100290000Y-89340000D02*
X106290000Y-89340000D01*
X97630000Y-88450000D02*
X100290000Y-88450000D01*
X94692929Y-94440000D02*
X95147071Y-94440000D01*
X94692929Y-95200000D02*
X95147071Y-95200000D01*
X97232929Y-87560000D02*
X97630000Y-87560000D01*
X97232929Y-86800000D02*
X97630000Y-86800000D01*
X106290000Y-87560000D02*
X100290000Y-87560000D01*
X106290000Y-86800000D02*
X106290000Y-87560000D01*
X100290000Y-86800000D02*
X106290000Y-86800000D01*
X97630000Y-85910000D02*
X100290000Y-85910000D01*
X94692929Y-96980000D02*
X95147071Y-96980000D01*
X94692929Y-97740000D02*
X95147071Y-97740000D01*
X97232929Y-85020000D02*
X97630000Y-85020000D01*
X97232929Y-84260000D02*
X97630000Y-84260000D01*
X106290000Y-85020000D02*
X100290000Y-85020000D01*
X106290000Y-84260000D02*
X106290000Y-85020000D01*
X100290000Y-84260000D02*
X106290000Y-84260000D01*
X97630000Y-83370000D02*
X100290000Y-83370000D01*
X94760000Y-99520000D02*
X95147071Y-99520000D01*
X94760000Y-100280000D02*
X95147071Y-100280000D01*
X97232929Y-82480000D02*
X97630000Y-82480000D01*
X97232929Y-81720000D02*
X97630000Y-81720000D01*
X100290000Y-82380000D02*
X106290000Y-82380000D01*
X100290000Y-82260000D02*
X106290000Y-82260000D01*
X100290000Y-82140000D02*
X106290000Y-82140000D01*
X100290000Y-82020000D02*
X106290000Y-82020000D01*
X100290000Y-81900000D02*
X106290000Y-81900000D01*
X100290000Y-81780000D02*
X106290000Y-81780000D01*
X106290000Y-82480000D02*
X100290000Y-82480000D01*
X106290000Y-81720000D02*
X106290000Y-82480000D01*
X100290000Y-81720000D02*
X106290000Y-81720000D01*
X100290000Y-80770000D02*
X97630000Y-80770000D01*
X100290000Y-101210000D02*
X100290000Y-80770000D01*
X97630000Y-101210000D02*
X100290000Y-101210000D01*
X97630000Y-80770000D02*
X97630000Y-101210000D01*
X113000000Y-43240000D02*
X109550000Y-43240000D01*
X113000000Y-43240000D02*
X114950000Y-43240000D01*
X113000000Y-48360000D02*
X111050000Y-48360000D01*
X113000000Y-48360000D02*
X114950000Y-48360000D01*
X102000000Y-43240000D02*
X98550000Y-43240000D01*
X102000000Y-43240000D02*
X103950000Y-43240000D01*
X102000000Y-48360000D02*
X100050000Y-48360000D01*
X102000000Y-48360000D02*
X103950000Y-48360000D01*
X112160000Y-56300000D02*
X112160000Y-52850000D01*
X112160000Y-56300000D02*
X112160000Y-58250000D01*
X102040000Y-56300000D02*
X102040000Y-54350000D01*
X102040000Y-56300000D02*
X102040000Y-58250000D01*
X79470000Y-29970000D02*
X80800000Y-29970000D01*
X79470000Y-31300000D02*
X79470000Y-29970000D01*
X79470000Y-32570000D02*
X82130000Y-32570000D01*
X82130000Y-32570000D02*
X82130000Y-58030000D01*
X79470000Y-32570000D02*
X79470000Y-58030000D01*
X79470000Y-58030000D02*
X82130000Y-58030000D01*
X135000000Y-40390000D02*
X141010000Y-40390000D01*
X137250000Y-47210000D02*
X141010000Y-47210000D01*
X141010000Y-40390000D02*
X141010000Y-41650000D01*
X141010000Y-47210000D02*
X141010000Y-45950000D01*
X137460000Y-55080000D02*
X136000000Y-55080000D01*
X137460000Y-51920000D02*
X135300000Y-51920000D01*
X137460000Y-51920000D02*
X137460000Y-52850000D01*
X137460000Y-55080000D02*
X137460000Y-54150000D01*
X134410000Y-54558578D02*
X134410000Y-54041422D01*
X132990000Y-54558578D02*
X132990000Y-54041422D01*
X132310000Y-54558578D02*
X132310000Y-54041422D01*
X130890000Y-54558578D02*
X130890000Y-54041422D01*
X146010000Y-41958578D02*
X146010000Y-41441422D01*
X144590000Y-41958578D02*
X144590000Y-41441422D01*
X134210000Y-44658578D02*
X134210000Y-44141422D01*
X132790000Y-44658578D02*
X132790000Y-44141422D01*
X139545000Y-57080000D02*
X139545000Y-56700000D01*
X145965000Y-57080000D02*
X139545000Y-57080000D01*
X145965000Y-75320000D02*
X139545000Y-75320000D01*
X145965000Y-57080000D02*
X145965000Y-75320000D01*
X120220000Y-75320000D02*
X120220000Y-74320000D01*
X121000000Y-75320000D02*
X120220000Y-75320000D01*
X120220000Y-57080000D02*
X120220000Y-58080000D01*
X121000000Y-57080000D02*
X120220000Y-57080000D01*
X87341422Y-66710000D02*
X87858578Y-66710000D01*
X87341422Y-65290000D02*
X87858578Y-65290000D01*
X80870000Y-60730000D02*
X82200000Y-60730000D01*
X80870000Y-62060000D02*
X80870000Y-60730000D01*
X80870000Y-63330000D02*
X83530000Y-63330000D01*
X83530000Y-63330000D02*
X83530000Y-129430000D01*
X80870000Y-63330000D02*
X80870000Y-129430000D01*
X80870000Y-129430000D02*
X83530000Y-129430000D01*
X114410000Y-66758578D02*
X114410000Y-66241422D01*
X112990000Y-66758578D02*
X112990000Y-66241422D01*
X97790000Y-62441422D02*
X97790000Y-62958578D01*
X99210000Y-62441422D02*
X99210000Y-62958578D01*
D10*
X88152380Y-60561904D02*
X88961904Y-60561904D01*
X89057142Y-60514285D01*
X89104761Y-60466666D01*
X89152380Y-60371428D01*
X89152380Y-60180952D01*
X89104761Y-60085714D01*
X89057142Y-60038095D01*
X88961904Y-59990476D01*
X88152380Y-59990476D01*
X88152380Y-59609523D02*
X88152380Y-58942857D01*
X89152380Y-59371428D01*
X107133333Y-45357142D02*
X107085714Y-45404761D01*
X106942857Y-45452380D01*
X106847619Y-45452380D01*
X106704761Y-45404761D01*
X106609523Y-45309523D01*
X106561904Y-45214285D01*
X106514285Y-45023809D01*
X106514285Y-44880952D01*
X106561904Y-44690476D01*
X106609523Y-44595238D01*
X106704761Y-44500000D01*
X106847619Y-44452380D01*
X106942857Y-44452380D01*
X107085714Y-44500000D01*
X107133333Y-44547619D01*
X107466666Y-44452380D02*
X108133333Y-44452380D01*
X107704761Y-45452380D01*
X103452380Y-68361904D02*
X104261904Y-68361904D01*
X104357142Y-68314285D01*
X104404761Y-68266666D01*
X104452380Y-68171428D01*
X104452380Y-67980952D01*
X104404761Y-67885714D01*
X104357142Y-67838095D01*
X104261904Y-67790476D01*
X103452380Y-67790476D01*
X103452380Y-66885714D02*
X103452380Y-67076190D01*
X103500000Y-67171428D01*
X103547619Y-67219047D01*
X103690476Y-67314285D01*
X103880952Y-67361904D01*
X104261904Y-67361904D01*
X104357142Y-67314285D01*
X104404761Y-67266666D01*
X104452380Y-67171428D01*
X104452380Y-66980952D01*
X104404761Y-66885714D01*
X104357142Y-66838095D01*
X104261904Y-66790476D01*
X104023809Y-66790476D01*
X103928571Y-66838095D01*
X103880952Y-66885714D01*
X103833333Y-66980952D01*
X103833333Y-67171428D01*
X103880952Y-67266666D01*
X103928571Y-67314285D01*
X104023809Y-67361904D01*
X128590476Y-39152380D02*
X128590476Y-38152380D01*
X128923809Y-38866666D01*
X129257142Y-38152380D01*
X129257142Y-39152380D01*
X130257142Y-39152380D02*
X129685714Y-39152380D01*
X129971428Y-39152380D02*
X129971428Y-38152380D01*
X129876190Y-38295238D01*
X129780952Y-38390476D01*
X129685714Y-38438095D01*
X121938095Y-46252380D02*
X122509523Y-46252380D01*
X122223809Y-47252380D02*
X122223809Y-46252380D01*
X123414285Y-47252380D02*
X123080952Y-46776190D01*
X122842857Y-47252380D02*
X122842857Y-46252380D01*
X123223809Y-46252380D01*
X123319047Y-46300000D01*
X123366666Y-46347619D01*
X123414285Y-46442857D01*
X123414285Y-46585714D01*
X123366666Y-46680952D01*
X123319047Y-46728571D01*
X123223809Y-46776190D01*
X122842857Y-46776190D01*
X124366666Y-47252380D02*
X123795238Y-47252380D01*
X124080952Y-47252380D02*
X124080952Y-46252380D01*
X123985714Y-46395238D01*
X123890476Y-46490476D01*
X123795238Y-46538095D01*
X126333333Y-45002380D02*
X126000000Y-44526190D01*
X125761904Y-45002380D02*
X125761904Y-44002380D01*
X126142857Y-44002380D01*
X126238095Y-44050000D01*
X126285714Y-44097619D01*
X126333333Y-44192857D01*
X126333333Y-44335714D01*
X126285714Y-44430952D01*
X126238095Y-44478571D01*
X126142857Y-44526190D01*
X125761904Y-44526190D01*
X127285714Y-45002380D02*
X126714285Y-45002380D01*
X127000000Y-45002380D02*
X127000000Y-44002380D01*
X126904761Y-44145238D01*
X126809523Y-44240476D01*
X126714285Y-44288095D01*
X88366666Y-35952380D02*
X88366666Y-36666666D01*
X88319047Y-36809523D01*
X88223809Y-36904761D01*
X88080952Y-36952380D01*
X87985714Y-36952380D01*
X89271428Y-35952380D02*
X89080952Y-35952380D01*
X88985714Y-36000000D01*
X88938095Y-36047619D01*
X88842857Y-36190476D01*
X88795238Y-36380952D01*
X88795238Y-36761904D01*
X88842857Y-36857142D01*
X88890476Y-36904761D01*
X88985714Y-36952380D01*
X89176190Y-36952380D01*
X89271428Y-36904761D01*
X89319047Y-36857142D01*
X89366666Y-36761904D01*
X89366666Y-36523809D01*
X89319047Y-36428571D01*
X89271428Y-36380952D01*
X89176190Y-36333333D01*
X88985714Y-36333333D01*
X88890476Y-36380952D01*
X88842857Y-36428571D01*
X88795238Y-36523809D01*
X96082380Y-35078333D02*
X96796666Y-35078333D01*
X96939523Y-35125952D01*
X97034761Y-35221190D01*
X97082380Y-35364047D01*
X97082380Y-35459285D01*
X97082380Y-34078333D02*
X97082380Y-34649761D01*
X97082380Y-34364047D02*
X96082380Y-34364047D01*
X96225238Y-34459285D01*
X96320476Y-34554523D01*
X96368095Y-34649761D01*
X95066666Y-105352380D02*
X95066666Y-106066666D01*
X95019047Y-106209523D01*
X94923809Y-106304761D01*
X94780952Y-106352380D01*
X94685714Y-106352380D01*
X95971428Y-105685714D02*
X95971428Y-106352380D01*
X95733333Y-105304761D02*
X95495238Y-106019047D01*
X96114285Y-106019047D01*
X93566666Y-78152380D02*
X93566666Y-78866666D01*
X93519047Y-79009523D01*
X93423809Y-79104761D01*
X93280952Y-79152380D01*
X93185714Y-79152380D01*
X93995238Y-78247619D02*
X94042857Y-78200000D01*
X94138095Y-78152380D01*
X94376190Y-78152380D01*
X94471428Y-78200000D01*
X94519047Y-78247619D01*
X94566666Y-78342857D01*
X94566666Y-78438095D01*
X94519047Y-78580952D01*
X93947619Y-79152380D01*
X94566666Y-79152380D01*
X117538095Y-45652380D02*
X117538095Y-46461904D01*
X117585714Y-46557142D01*
X117633333Y-46604761D01*
X117728571Y-46652380D01*
X117919047Y-46652380D01*
X118014285Y-46604761D01*
X118061904Y-46557142D01*
X118109523Y-46461904D01*
X118109523Y-45652380D01*
X119014285Y-45985714D02*
X119014285Y-46652380D01*
X118776190Y-45604761D02*
X118538095Y-46319047D01*
X119157142Y-46319047D01*
X96038095Y-44752380D02*
X96038095Y-45561904D01*
X96085714Y-45657142D01*
X96133333Y-45704761D01*
X96228571Y-45752380D01*
X96419047Y-45752380D01*
X96514285Y-45704761D01*
X96561904Y-45657142D01*
X96609523Y-45561904D01*
X96609523Y-44752380D01*
X96990476Y-44752380D02*
X97609523Y-44752380D01*
X97276190Y-45133333D01*
X97419047Y-45133333D01*
X97514285Y-45180952D01*
X97561904Y-45228571D01*
X97609523Y-45323809D01*
X97609523Y-45561904D01*
X97561904Y-45657142D01*
X97514285Y-45704761D01*
X97419047Y-45752380D01*
X97133333Y-45752380D01*
X97038095Y-45704761D01*
X96990476Y-45657142D01*
X112452380Y-57061904D02*
X113261904Y-57061904D01*
X113357142Y-57014285D01*
X113404761Y-56966666D01*
X113452380Y-56871428D01*
X113452380Y-56680952D01*
X113404761Y-56585714D01*
X113357142Y-56538095D01*
X113261904Y-56490476D01*
X112452380Y-56490476D01*
X112452380Y-55538095D02*
X112452380Y-56014285D01*
X112928571Y-56061904D01*
X112880952Y-56014285D01*
X112833333Y-55919047D01*
X112833333Y-55680952D01*
X112880952Y-55585714D01*
X112928571Y-55538095D01*
X113023809Y-55490476D01*
X113261904Y-55490476D01*
X113357142Y-55538095D01*
X113404761Y-55585714D01*
X113452380Y-55680952D01*
X113452380Y-55919047D01*
X113404761Y-56014285D01*
X113357142Y-56061904D01*
X83966666Y-31652380D02*
X83966666Y-32366666D01*
X83919047Y-32509523D01*
X83823809Y-32604761D01*
X83680952Y-32652380D01*
X83585714Y-32652380D01*
X84919047Y-31652380D02*
X84442857Y-31652380D01*
X84395238Y-32128571D01*
X84442857Y-32080952D01*
X84538095Y-32033333D01*
X84776190Y-32033333D01*
X84871428Y-32080952D01*
X84919047Y-32128571D01*
X84966666Y-32223809D01*
X84966666Y-32461904D01*
X84919047Y-32557142D01*
X84871428Y-32604761D01*
X84776190Y-32652380D01*
X84538095Y-32652380D01*
X84442857Y-32604761D01*
X84395238Y-32557142D01*
X139738095Y-39052380D02*
X139738095Y-39861904D01*
X139785714Y-39957142D01*
X139833333Y-40004761D01*
X139928571Y-40052380D01*
X140119047Y-40052380D01*
X140214285Y-40004761D01*
X140261904Y-39957142D01*
X140309523Y-39861904D01*
X140309523Y-39052380D01*
X140738095Y-39147619D02*
X140785714Y-39100000D01*
X140880952Y-39052380D01*
X141119047Y-39052380D01*
X141214285Y-39100000D01*
X141261904Y-39147619D01*
X141309523Y-39242857D01*
X141309523Y-39338095D01*
X141261904Y-39480952D01*
X140690476Y-40052380D01*
X141309523Y-40052380D01*
X135438095Y-50452380D02*
X136009523Y-50452380D01*
X135723809Y-51452380D02*
X135723809Y-50452380D01*
X136914285Y-51452380D02*
X136580952Y-50976190D01*
X136342857Y-51452380D02*
X136342857Y-50452380D01*
X136723809Y-50452380D01*
X136819047Y-50500000D01*
X136866666Y-50547619D01*
X136914285Y-50642857D01*
X136914285Y-50785714D01*
X136866666Y-50880952D01*
X136819047Y-50928571D01*
X136723809Y-50976190D01*
X136342857Y-50976190D01*
X137295238Y-50547619D02*
X137342857Y-50500000D01*
X137438095Y-50452380D01*
X137676190Y-50452380D01*
X137771428Y-50500000D01*
X137819047Y-50547619D01*
X137866666Y-50642857D01*
X137866666Y-50738095D01*
X137819047Y-50880952D01*
X137247619Y-51452380D01*
X137866666Y-51452380D01*
X134052380Y-51566666D02*
X133576190Y-51900000D01*
X134052380Y-52138095D02*
X133052380Y-52138095D01*
X133052380Y-51757142D01*
X133100000Y-51661904D01*
X133147619Y-51614285D01*
X133242857Y-51566666D01*
X133385714Y-51566666D01*
X133480952Y-51614285D01*
X133528571Y-51661904D01*
X133576190Y-51757142D01*
X133576190Y-52138095D01*
X133147619Y-51185714D02*
X133100000Y-51138095D01*
X133052380Y-51042857D01*
X133052380Y-50804761D01*
X133100000Y-50709523D01*
X133147619Y-50661904D01*
X133242857Y-50614285D01*
X133338095Y-50614285D01*
X133480952Y-50661904D01*
X134052380Y-51233333D01*
X134052380Y-50614285D01*
X129757142Y-54266666D02*
X129804761Y-54314285D01*
X129852380Y-54457142D01*
X129852380Y-54552380D01*
X129804761Y-54695238D01*
X129709523Y-54790476D01*
X129614285Y-54838095D01*
X129423809Y-54885714D01*
X129280952Y-54885714D01*
X129090476Y-54838095D01*
X128995238Y-54790476D01*
X128900000Y-54695238D01*
X128852380Y-54552380D01*
X128852380Y-54457142D01*
X128900000Y-54314285D01*
X128947619Y-54266666D01*
X128852380Y-53933333D02*
X128852380Y-53314285D01*
X129233333Y-53647619D01*
X129233333Y-53504761D01*
X129280952Y-53409523D01*
X129328571Y-53361904D01*
X129423809Y-53314285D01*
X129661904Y-53314285D01*
X129757142Y-53361904D01*
X129804761Y-53409523D01*
X129852380Y-53504761D01*
X129852380Y-53790476D01*
X129804761Y-53885714D01*
X129757142Y-53933333D01*
X145557142Y-38466666D02*
X145604761Y-38514285D01*
X145652380Y-38657142D01*
X145652380Y-38752380D01*
X145604761Y-38895238D01*
X145509523Y-38990476D01*
X145414285Y-39038095D01*
X145223809Y-39085714D01*
X145080952Y-39085714D01*
X144890476Y-39038095D01*
X144795238Y-38990476D01*
X144700000Y-38895238D01*
X144652380Y-38752380D01*
X144652380Y-38657142D01*
X144700000Y-38514285D01*
X144747619Y-38466666D01*
X144747619Y-38085714D02*
X144700000Y-38038095D01*
X144652380Y-37942857D01*
X144652380Y-37704761D01*
X144700000Y-37609523D01*
X144747619Y-37561904D01*
X144842857Y-37514285D01*
X144938095Y-37514285D01*
X145080952Y-37561904D01*
X145652380Y-38133333D01*
X145652380Y-37514285D01*
X133857142Y-47866666D02*
X133904761Y-47914285D01*
X133952380Y-48057142D01*
X133952380Y-48152380D01*
X133904761Y-48295238D01*
X133809523Y-48390476D01*
X133714285Y-48438095D01*
X133523809Y-48485714D01*
X133380952Y-48485714D01*
X133190476Y-48438095D01*
X133095238Y-48390476D01*
X133000000Y-48295238D01*
X132952380Y-48152380D01*
X132952380Y-48057142D01*
X133000000Y-47914285D01*
X133047619Y-47866666D01*
X133952380Y-46914285D02*
X133952380Y-47485714D01*
X133952380Y-47200000D02*
X132952380Y-47200000D01*
X133095238Y-47295238D01*
X133190476Y-47390476D01*
X133238095Y-47485714D01*
X120908095Y-55042380D02*
X120908095Y-55851904D01*
X120955714Y-55947142D01*
X121003333Y-55994761D01*
X121098571Y-56042380D01*
X121289047Y-56042380D01*
X121384285Y-55994761D01*
X121431904Y-55947142D01*
X121479523Y-55851904D01*
X121479523Y-55042380D01*
X122479523Y-56042380D02*
X121908095Y-56042380D01*
X122193809Y-56042380D02*
X122193809Y-55042380D01*
X122098571Y-55185238D01*
X122003333Y-55280476D01*
X121908095Y-55328095D01*
X86957142Y-64802380D02*
X86623809Y-64326190D01*
X86385714Y-64802380D02*
X86385714Y-63802380D01*
X86766666Y-63802380D01*
X86861904Y-63850000D01*
X86909523Y-63897619D01*
X86957142Y-63992857D01*
X86957142Y-64135714D01*
X86909523Y-64230952D01*
X86861904Y-64278571D01*
X86766666Y-64326190D01*
X86385714Y-64326190D01*
X87909523Y-64802380D02*
X87338095Y-64802380D01*
X87623809Y-64802380D02*
X87623809Y-63802380D01*
X87528571Y-63945238D01*
X87433333Y-64040476D01*
X87338095Y-64088095D01*
X88814285Y-63802380D02*
X88338095Y-63802380D01*
X88290476Y-64278571D01*
X88338095Y-64230952D01*
X88433333Y-64183333D01*
X88671428Y-64183333D01*
X88766666Y-64230952D01*
X88814285Y-64278571D01*
X88861904Y-64373809D01*
X88861904Y-64611904D01*
X88814285Y-64707142D01*
X88766666Y-64754761D01*
X88671428Y-64802380D01*
X88433333Y-64802380D01*
X88338095Y-64754761D01*
X88290476Y-64707142D01*
X81866666Y-59182380D02*
X81866666Y-59896666D01*
X81819047Y-60039523D01*
X81723809Y-60134761D01*
X81580952Y-60182380D01*
X81485714Y-60182380D01*
X82247619Y-59182380D02*
X82866666Y-59182380D01*
X82533333Y-59563333D01*
X82676190Y-59563333D01*
X82771428Y-59610952D01*
X82819047Y-59658571D01*
X82866666Y-59753809D01*
X82866666Y-59991904D01*
X82819047Y-60087142D01*
X82771428Y-60134761D01*
X82676190Y-60182380D01*
X82390476Y-60182380D01*
X82295238Y-60134761D01*
X82247619Y-60087142D01*
X113957142Y-63566666D02*
X114004761Y-63614285D01*
X114052380Y-63757142D01*
X114052380Y-63852380D01*
X114004761Y-63995238D01*
X113909523Y-64090476D01*
X113814285Y-64138095D01*
X113623809Y-64185714D01*
X113480952Y-64185714D01*
X113290476Y-64138095D01*
X113195238Y-64090476D01*
X113100000Y-63995238D01*
X113052380Y-63852380D01*
X113052380Y-63757142D01*
X113100000Y-63614285D01*
X113147619Y-63566666D01*
X113480952Y-62995238D02*
X113433333Y-63090476D01*
X113385714Y-63138095D01*
X113290476Y-63185714D01*
X113242857Y-63185714D01*
X113147619Y-63138095D01*
X113100000Y-63090476D01*
X113052380Y-62995238D01*
X113052380Y-62804761D01*
X113100000Y-62709523D01*
X113147619Y-62661904D01*
X113242857Y-62614285D01*
X113290476Y-62614285D01*
X113385714Y-62661904D01*
X113433333Y-62709523D01*
X113480952Y-62804761D01*
X113480952Y-62995238D01*
X113528571Y-63090476D01*
X113576190Y-63138095D01*
X113671428Y-63185714D01*
X113861904Y-63185714D01*
X113957142Y-63138095D01*
X114004761Y-63090476D01*
X114052380Y-62995238D01*
X114052380Y-62804761D01*
X114004761Y-62709523D01*
X113957142Y-62661904D01*
X113861904Y-62614285D01*
X113671428Y-62614285D01*
X113576190Y-62661904D01*
X113528571Y-62709523D01*
X113480952Y-62804761D01*
X98857142Y-65766666D02*
X98904761Y-65814285D01*
X98952380Y-65957142D01*
X98952380Y-66052380D01*
X98904761Y-66195238D01*
X98809523Y-66290476D01*
X98714285Y-66338095D01*
X98523809Y-66385714D01*
X98380952Y-66385714D01*
X98190476Y-66338095D01*
X98095238Y-66290476D01*
X98000000Y-66195238D01*
X97952380Y-66052380D01*
X97952380Y-65957142D01*
X98000000Y-65814285D01*
X98047619Y-65766666D01*
X97952380Y-64909523D02*
X97952380Y-65100000D01*
X98000000Y-65195238D01*
X98047619Y-65242857D01*
X98190476Y-65338095D01*
X98380952Y-65385714D01*
X98761904Y-65385714D01*
X98857142Y-65338095D01*
X98904761Y-65290476D01*
X98952380Y-65195238D01*
X98952380Y-65004761D01*
X98904761Y-64909523D01*
X98857142Y-64861904D01*
X98761904Y-64814285D01*
X98523809Y-64814285D01*
X98428571Y-64861904D01*
X98380952Y-64909523D01*
X98333333Y-65004761D01*
X98333333Y-65195238D01*
X98380952Y-65290476D01*
X98428571Y-65338095D01*
X98523809Y-65385714D01*
M02*
