G04 #@! TF.GenerationSoftware,KiCad,Pcbnew,5.1.5+dfsg1-2build2*
G04 #@! TF.CreationDate,2021-11-13T08:57:07+00:00*
G04 #@! TF.ProjectId,psion-org2-power,7073696f-6e2d-46f7-9267-322d706f7765,rev?*
G04 #@! TF.SameCoordinates,Original*
G04 #@! TF.FileFunction,Paste,Top*
G04 #@! TF.FilePolarity,Positive*
%FSLAX46Y46*%
G04 Gerber Fmt 4.6, Leading zero omitted, Abs format (unit mm)*
G04 Created by KiCad (PCBNEW 5.1.5+dfsg1-2build2) date 2021-11-13 08:57:07*
%MOMM*%
%LPD*%
G04 APERTURE LIST*
%ADD10R,0.450000X1.450000*%
%ADD11C,0.100000*%
%ADD12R,0.800000X0.900000*%
%ADD13R,2.510000X1.000000*%
%ADD14R,2.000000X1.500000*%
%ADD15R,2.000000X3.800000*%
%ADD16R,0.900000X0.800000*%
%ADD17R,0.900000X2.000000*%
%ADD18R,2.000000X0.900000*%
%ADD19R,5.000000X5.000000*%
G04 APERTURE END LIST*
D10*
X89975000Y-60050000D03*
X90625000Y-60050000D03*
X91275000Y-60050000D03*
X91925000Y-60050000D03*
X92575000Y-60050000D03*
X93225000Y-60050000D03*
X93875000Y-60050000D03*
X94525000Y-60050000D03*
X95175000Y-60050000D03*
X95825000Y-60050000D03*
X95825000Y-65950000D03*
X95175000Y-65950000D03*
X94525000Y-65950000D03*
X93875000Y-65950000D03*
X93225000Y-65950000D03*
X92575000Y-65950000D03*
X91925000Y-65950000D03*
X91275000Y-65950000D03*
X90625000Y-65950000D03*
X89975000Y-65950000D03*
D11*
G36*
X108705142Y-42601174D02*
G01*
X108728803Y-42604684D01*
X108752007Y-42610496D01*
X108774529Y-42618554D01*
X108796153Y-42628782D01*
X108816670Y-42641079D01*
X108835883Y-42655329D01*
X108853607Y-42671393D01*
X108869671Y-42689117D01*
X108883921Y-42708330D01*
X108896218Y-42728847D01*
X108906446Y-42750471D01*
X108914504Y-42772993D01*
X108920316Y-42796197D01*
X108923826Y-42819858D01*
X108925000Y-42843750D01*
X108925000Y-43756250D01*
X108923826Y-43780142D01*
X108920316Y-43803803D01*
X108914504Y-43827007D01*
X108906446Y-43849529D01*
X108896218Y-43871153D01*
X108883921Y-43891670D01*
X108869671Y-43910883D01*
X108853607Y-43928607D01*
X108835883Y-43944671D01*
X108816670Y-43958921D01*
X108796153Y-43971218D01*
X108774529Y-43981446D01*
X108752007Y-43989504D01*
X108728803Y-43995316D01*
X108705142Y-43998826D01*
X108681250Y-44000000D01*
X108193750Y-44000000D01*
X108169858Y-43998826D01*
X108146197Y-43995316D01*
X108122993Y-43989504D01*
X108100471Y-43981446D01*
X108078847Y-43971218D01*
X108058330Y-43958921D01*
X108039117Y-43944671D01*
X108021393Y-43928607D01*
X108005329Y-43910883D01*
X107991079Y-43891670D01*
X107978782Y-43871153D01*
X107968554Y-43849529D01*
X107960496Y-43827007D01*
X107954684Y-43803803D01*
X107951174Y-43780142D01*
X107950000Y-43756250D01*
X107950000Y-42843750D01*
X107951174Y-42819858D01*
X107954684Y-42796197D01*
X107960496Y-42772993D01*
X107968554Y-42750471D01*
X107978782Y-42728847D01*
X107991079Y-42708330D01*
X108005329Y-42689117D01*
X108021393Y-42671393D01*
X108039117Y-42655329D01*
X108058330Y-42641079D01*
X108078847Y-42628782D01*
X108100471Y-42618554D01*
X108122993Y-42610496D01*
X108146197Y-42604684D01*
X108169858Y-42601174D01*
X108193750Y-42600000D01*
X108681250Y-42600000D01*
X108705142Y-42601174D01*
G37*
G36*
X106830142Y-42601174D02*
G01*
X106853803Y-42604684D01*
X106877007Y-42610496D01*
X106899529Y-42618554D01*
X106921153Y-42628782D01*
X106941670Y-42641079D01*
X106960883Y-42655329D01*
X106978607Y-42671393D01*
X106994671Y-42689117D01*
X107008921Y-42708330D01*
X107021218Y-42728847D01*
X107031446Y-42750471D01*
X107039504Y-42772993D01*
X107045316Y-42796197D01*
X107048826Y-42819858D01*
X107050000Y-42843750D01*
X107050000Y-43756250D01*
X107048826Y-43780142D01*
X107045316Y-43803803D01*
X107039504Y-43827007D01*
X107031446Y-43849529D01*
X107021218Y-43871153D01*
X107008921Y-43891670D01*
X106994671Y-43910883D01*
X106978607Y-43928607D01*
X106960883Y-43944671D01*
X106941670Y-43958921D01*
X106921153Y-43971218D01*
X106899529Y-43981446D01*
X106877007Y-43989504D01*
X106853803Y-43995316D01*
X106830142Y-43998826D01*
X106806250Y-44000000D01*
X106318750Y-44000000D01*
X106294858Y-43998826D01*
X106271197Y-43995316D01*
X106247993Y-43989504D01*
X106225471Y-43981446D01*
X106203847Y-43971218D01*
X106183330Y-43958921D01*
X106164117Y-43944671D01*
X106146393Y-43928607D01*
X106130329Y-43910883D01*
X106116079Y-43891670D01*
X106103782Y-43871153D01*
X106093554Y-43849529D01*
X106085496Y-43827007D01*
X106079684Y-43803803D01*
X106076174Y-43780142D01*
X106075000Y-43756250D01*
X106075000Y-42843750D01*
X106076174Y-42819858D01*
X106079684Y-42796197D01*
X106085496Y-42772993D01*
X106093554Y-42750471D01*
X106103782Y-42728847D01*
X106116079Y-42708330D01*
X106130329Y-42689117D01*
X106146393Y-42671393D01*
X106164117Y-42655329D01*
X106183330Y-42641079D01*
X106203847Y-42628782D01*
X106225471Y-42618554D01*
X106247993Y-42610496D01*
X106271197Y-42604684D01*
X106294858Y-42601174D01*
X106318750Y-42600000D01*
X106806250Y-42600000D01*
X106830142Y-42601174D01*
G37*
D10*
X111425000Y-69650000D03*
X110775000Y-69650000D03*
X110125000Y-69650000D03*
X109475000Y-69650000D03*
X108825000Y-69650000D03*
X108175000Y-69650000D03*
X107525000Y-69650000D03*
X106875000Y-69650000D03*
X106225000Y-69650000D03*
X105575000Y-69650000D03*
X105575000Y-63750000D03*
X106225000Y-63750000D03*
X106875000Y-63750000D03*
X107525000Y-63750000D03*
X108175000Y-63750000D03*
X108825000Y-63750000D03*
X109475000Y-63750000D03*
X110125000Y-63750000D03*
X110775000Y-63750000D03*
X111425000Y-63750000D03*
D12*
X126500000Y-38200000D03*
X127450000Y-40200000D03*
X125550000Y-40200000D03*
X126500000Y-45800000D03*
X127450000Y-47800000D03*
X125550000Y-47800000D03*
D11*
G36*
X125830142Y-42201174D02*
G01*
X125853803Y-42204684D01*
X125877007Y-42210496D01*
X125899529Y-42218554D01*
X125921153Y-42228782D01*
X125941670Y-42241079D01*
X125960883Y-42255329D01*
X125978607Y-42271393D01*
X125994671Y-42289117D01*
X126008921Y-42308330D01*
X126021218Y-42328847D01*
X126031446Y-42350471D01*
X126039504Y-42372993D01*
X126045316Y-42396197D01*
X126048826Y-42419858D01*
X126050000Y-42443750D01*
X126050000Y-43356250D01*
X126048826Y-43380142D01*
X126045316Y-43403803D01*
X126039504Y-43427007D01*
X126031446Y-43449529D01*
X126021218Y-43471153D01*
X126008921Y-43491670D01*
X125994671Y-43510883D01*
X125978607Y-43528607D01*
X125960883Y-43544671D01*
X125941670Y-43558921D01*
X125921153Y-43571218D01*
X125899529Y-43581446D01*
X125877007Y-43589504D01*
X125853803Y-43595316D01*
X125830142Y-43598826D01*
X125806250Y-43600000D01*
X125318750Y-43600000D01*
X125294858Y-43598826D01*
X125271197Y-43595316D01*
X125247993Y-43589504D01*
X125225471Y-43581446D01*
X125203847Y-43571218D01*
X125183330Y-43558921D01*
X125164117Y-43544671D01*
X125146393Y-43528607D01*
X125130329Y-43510883D01*
X125116079Y-43491670D01*
X125103782Y-43471153D01*
X125093554Y-43449529D01*
X125085496Y-43427007D01*
X125079684Y-43403803D01*
X125076174Y-43380142D01*
X125075000Y-43356250D01*
X125075000Y-42443750D01*
X125076174Y-42419858D01*
X125079684Y-42396197D01*
X125085496Y-42372993D01*
X125093554Y-42350471D01*
X125103782Y-42328847D01*
X125116079Y-42308330D01*
X125130329Y-42289117D01*
X125146393Y-42271393D01*
X125164117Y-42255329D01*
X125183330Y-42241079D01*
X125203847Y-42228782D01*
X125225471Y-42218554D01*
X125247993Y-42210496D01*
X125271197Y-42204684D01*
X125294858Y-42201174D01*
X125318750Y-42200000D01*
X125806250Y-42200000D01*
X125830142Y-42201174D01*
G37*
G36*
X127705142Y-42201174D02*
G01*
X127728803Y-42204684D01*
X127752007Y-42210496D01*
X127774529Y-42218554D01*
X127796153Y-42228782D01*
X127816670Y-42241079D01*
X127835883Y-42255329D01*
X127853607Y-42271393D01*
X127869671Y-42289117D01*
X127883921Y-42308330D01*
X127896218Y-42328847D01*
X127906446Y-42350471D01*
X127914504Y-42372993D01*
X127920316Y-42396197D01*
X127923826Y-42419858D01*
X127925000Y-42443750D01*
X127925000Y-43356250D01*
X127923826Y-43380142D01*
X127920316Y-43403803D01*
X127914504Y-43427007D01*
X127906446Y-43449529D01*
X127896218Y-43471153D01*
X127883921Y-43491670D01*
X127869671Y-43510883D01*
X127853607Y-43528607D01*
X127835883Y-43544671D01*
X127816670Y-43558921D01*
X127796153Y-43571218D01*
X127774529Y-43581446D01*
X127752007Y-43589504D01*
X127728803Y-43595316D01*
X127705142Y-43598826D01*
X127681250Y-43600000D01*
X127193750Y-43600000D01*
X127169858Y-43598826D01*
X127146197Y-43595316D01*
X127122993Y-43589504D01*
X127100471Y-43581446D01*
X127078847Y-43571218D01*
X127058330Y-43558921D01*
X127039117Y-43544671D01*
X127021393Y-43528607D01*
X127005329Y-43510883D01*
X126991079Y-43491670D01*
X126978782Y-43471153D01*
X126968554Y-43449529D01*
X126960496Y-43427007D01*
X126954684Y-43403803D01*
X126951174Y-43380142D01*
X126950000Y-43356250D01*
X126950000Y-42443750D01*
X126951174Y-42419858D01*
X126954684Y-42396197D01*
X126960496Y-42372993D01*
X126968554Y-42350471D01*
X126978782Y-42328847D01*
X126991079Y-42308330D01*
X127005329Y-42289117D01*
X127021393Y-42271393D01*
X127039117Y-42255329D01*
X127058330Y-42241079D01*
X127078847Y-42228782D01*
X127100471Y-42218554D01*
X127122993Y-42210496D01*
X127146197Y-42204684D01*
X127169858Y-42201174D01*
X127193750Y-42200000D01*
X127681250Y-42200000D01*
X127705142Y-42201174D01*
G37*
D13*
X87855000Y-40270000D03*
X84545000Y-37730000D03*
D11*
G36*
X116314703Y-43595722D02*
G01*
X116329264Y-43597882D01*
X116343543Y-43601459D01*
X116357403Y-43606418D01*
X116370710Y-43612712D01*
X116383336Y-43620280D01*
X116395159Y-43629048D01*
X116406066Y-43638934D01*
X116415952Y-43649841D01*
X116424720Y-43661664D01*
X116432288Y-43674290D01*
X116438582Y-43687597D01*
X116443541Y-43701457D01*
X116447118Y-43715736D01*
X116449278Y-43730297D01*
X116450000Y-43745000D01*
X116450000Y-44045000D01*
X116449278Y-44059703D01*
X116447118Y-44074264D01*
X116443541Y-44088543D01*
X116438582Y-44102403D01*
X116432288Y-44115710D01*
X116424720Y-44128336D01*
X116415952Y-44140159D01*
X116406066Y-44151066D01*
X116395159Y-44160952D01*
X116383336Y-44169720D01*
X116370710Y-44177288D01*
X116357403Y-44183582D01*
X116343543Y-44188541D01*
X116329264Y-44192118D01*
X116314703Y-44194278D01*
X116300000Y-44195000D01*
X114650000Y-44195000D01*
X114635297Y-44194278D01*
X114620736Y-44192118D01*
X114606457Y-44188541D01*
X114592597Y-44183582D01*
X114579290Y-44177288D01*
X114566664Y-44169720D01*
X114554841Y-44160952D01*
X114543934Y-44151066D01*
X114534048Y-44140159D01*
X114525280Y-44128336D01*
X114517712Y-44115710D01*
X114511418Y-44102403D01*
X114506459Y-44088543D01*
X114502882Y-44074264D01*
X114500722Y-44059703D01*
X114500000Y-44045000D01*
X114500000Y-43745000D01*
X114500722Y-43730297D01*
X114502882Y-43715736D01*
X114506459Y-43701457D01*
X114511418Y-43687597D01*
X114517712Y-43674290D01*
X114525280Y-43661664D01*
X114534048Y-43649841D01*
X114543934Y-43638934D01*
X114554841Y-43629048D01*
X114566664Y-43620280D01*
X114579290Y-43612712D01*
X114592597Y-43606418D01*
X114606457Y-43601459D01*
X114620736Y-43597882D01*
X114635297Y-43595722D01*
X114650000Y-43595000D01*
X116300000Y-43595000D01*
X116314703Y-43595722D01*
G37*
G36*
X116314703Y-44865722D02*
G01*
X116329264Y-44867882D01*
X116343543Y-44871459D01*
X116357403Y-44876418D01*
X116370710Y-44882712D01*
X116383336Y-44890280D01*
X116395159Y-44899048D01*
X116406066Y-44908934D01*
X116415952Y-44919841D01*
X116424720Y-44931664D01*
X116432288Y-44944290D01*
X116438582Y-44957597D01*
X116443541Y-44971457D01*
X116447118Y-44985736D01*
X116449278Y-45000297D01*
X116450000Y-45015000D01*
X116450000Y-45315000D01*
X116449278Y-45329703D01*
X116447118Y-45344264D01*
X116443541Y-45358543D01*
X116438582Y-45372403D01*
X116432288Y-45385710D01*
X116424720Y-45398336D01*
X116415952Y-45410159D01*
X116406066Y-45421066D01*
X116395159Y-45430952D01*
X116383336Y-45439720D01*
X116370710Y-45447288D01*
X116357403Y-45453582D01*
X116343543Y-45458541D01*
X116329264Y-45462118D01*
X116314703Y-45464278D01*
X116300000Y-45465000D01*
X114650000Y-45465000D01*
X114635297Y-45464278D01*
X114620736Y-45462118D01*
X114606457Y-45458541D01*
X114592597Y-45453582D01*
X114579290Y-45447288D01*
X114566664Y-45439720D01*
X114554841Y-45430952D01*
X114543934Y-45421066D01*
X114534048Y-45410159D01*
X114525280Y-45398336D01*
X114517712Y-45385710D01*
X114511418Y-45372403D01*
X114506459Y-45358543D01*
X114502882Y-45344264D01*
X114500722Y-45329703D01*
X114500000Y-45315000D01*
X114500000Y-45015000D01*
X114500722Y-45000297D01*
X114502882Y-44985736D01*
X114506459Y-44971457D01*
X114511418Y-44957597D01*
X114517712Y-44944290D01*
X114525280Y-44931664D01*
X114534048Y-44919841D01*
X114543934Y-44908934D01*
X114554841Y-44899048D01*
X114566664Y-44890280D01*
X114579290Y-44882712D01*
X114592597Y-44876418D01*
X114606457Y-44871459D01*
X114620736Y-44867882D01*
X114635297Y-44865722D01*
X114650000Y-44865000D01*
X116300000Y-44865000D01*
X116314703Y-44865722D01*
G37*
G36*
X116314703Y-46135722D02*
G01*
X116329264Y-46137882D01*
X116343543Y-46141459D01*
X116357403Y-46146418D01*
X116370710Y-46152712D01*
X116383336Y-46160280D01*
X116395159Y-46169048D01*
X116406066Y-46178934D01*
X116415952Y-46189841D01*
X116424720Y-46201664D01*
X116432288Y-46214290D01*
X116438582Y-46227597D01*
X116443541Y-46241457D01*
X116447118Y-46255736D01*
X116449278Y-46270297D01*
X116450000Y-46285000D01*
X116450000Y-46585000D01*
X116449278Y-46599703D01*
X116447118Y-46614264D01*
X116443541Y-46628543D01*
X116438582Y-46642403D01*
X116432288Y-46655710D01*
X116424720Y-46668336D01*
X116415952Y-46680159D01*
X116406066Y-46691066D01*
X116395159Y-46700952D01*
X116383336Y-46709720D01*
X116370710Y-46717288D01*
X116357403Y-46723582D01*
X116343543Y-46728541D01*
X116329264Y-46732118D01*
X116314703Y-46734278D01*
X116300000Y-46735000D01*
X114650000Y-46735000D01*
X114635297Y-46734278D01*
X114620736Y-46732118D01*
X114606457Y-46728541D01*
X114592597Y-46723582D01*
X114579290Y-46717288D01*
X114566664Y-46709720D01*
X114554841Y-46700952D01*
X114543934Y-46691066D01*
X114534048Y-46680159D01*
X114525280Y-46668336D01*
X114517712Y-46655710D01*
X114511418Y-46642403D01*
X114506459Y-46628543D01*
X114502882Y-46614264D01*
X114500722Y-46599703D01*
X114500000Y-46585000D01*
X114500000Y-46285000D01*
X114500722Y-46270297D01*
X114502882Y-46255736D01*
X114506459Y-46241457D01*
X114511418Y-46227597D01*
X114517712Y-46214290D01*
X114525280Y-46201664D01*
X114534048Y-46189841D01*
X114543934Y-46178934D01*
X114554841Y-46169048D01*
X114566664Y-46160280D01*
X114579290Y-46152712D01*
X114592597Y-46146418D01*
X114606457Y-46141459D01*
X114620736Y-46137882D01*
X114635297Y-46135722D01*
X114650000Y-46135000D01*
X116300000Y-46135000D01*
X116314703Y-46135722D01*
G37*
G36*
X116314703Y-47405722D02*
G01*
X116329264Y-47407882D01*
X116343543Y-47411459D01*
X116357403Y-47416418D01*
X116370710Y-47422712D01*
X116383336Y-47430280D01*
X116395159Y-47439048D01*
X116406066Y-47448934D01*
X116415952Y-47459841D01*
X116424720Y-47471664D01*
X116432288Y-47484290D01*
X116438582Y-47497597D01*
X116443541Y-47511457D01*
X116447118Y-47525736D01*
X116449278Y-47540297D01*
X116450000Y-47555000D01*
X116450000Y-47855000D01*
X116449278Y-47869703D01*
X116447118Y-47884264D01*
X116443541Y-47898543D01*
X116438582Y-47912403D01*
X116432288Y-47925710D01*
X116424720Y-47938336D01*
X116415952Y-47950159D01*
X116406066Y-47961066D01*
X116395159Y-47970952D01*
X116383336Y-47979720D01*
X116370710Y-47987288D01*
X116357403Y-47993582D01*
X116343543Y-47998541D01*
X116329264Y-48002118D01*
X116314703Y-48004278D01*
X116300000Y-48005000D01*
X114650000Y-48005000D01*
X114635297Y-48004278D01*
X114620736Y-48002118D01*
X114606457Y-47998541D01*
X114592597Y-47993582D01*
X114579290Y-47987288D01*
X114566664Y-47979720D01*
X114554841Y-47970952D01*
X114543934Y-47961066D01*
X114534048Y-47950159D01*
X114525280Y-47938336D01*
X114517712Y-47925710D01*
X114511418Y-47912403D01*
X114506459Y-47898543D01*
X114502882Y-47884264D01*
X114500722Y-47869703D01*
X114500000Y-47855000D01*
X114500000Y-47555000D01*
X114500722Y-47540297D01*
X114502882Y-47525736D01*
X114506459Y-47511457D01*
X114511418Y-47497597D01*
X114517712Y-47484290D01*
X114525280Y-47471664D01*
X114534048Y-47459841D01*
X114543934Y-47448934D01*
X114554841Y-47439048D01*
X114566664Y-47430280D01*
X114579290Y-47422712D01*
X114592597Y-47416418D01*
X114606457Y-47411459D01*
X114620736Y-47407882D01*
X114635297Y-47405722D01*
X114650000Y-47405000D01*
X116300000Y-47405000D01*
X116314703Y-47405722D01*
G37*
G36*
X111364703Y-47405722D02*
G01*
X111379264Y-47407882D01*
X111393543Y-47411459D01*
X111407403Y-47416418D01*
X111420710Y-47422712D01*
X111433336Y-47430280D01*
X111445159Y-47439048D01*
X111456066Y-47448934D01*
X111465952Y-47459841D01*
X111474720Y-47471664D01*
X111482288Y-47484290D01*
X111488582Y-47497597D01*
X111493541Y-47511457D01*
X111497118Y-47525736D01*
X111499278Y-47540297D01*
X111500000Y-47555000D01*
X111500000Y-47855000D01*
X111499278Y-47869703D01*
X111497118Y-47884264D01*
X111493541Y-47898543D01*
X111488582Y-47912403D01*
X111482288Y-47925710D01*
X111474720Y-47938336D01*
X111465952Y-47950159D01*
X111456066Y-47961066D01*
X111445159Y-47970952D01*
X111433336Y-47979720D01*
X111420710Y-47987288D01*
X111407403Y-47993582D01*
X111393543Y-47998541D01*
X111379264Y-48002118D01*
X111364703Y-48004278D01*
X111350000Y-48005000D01*
X109700000Y-48005000D01*
X109685297Y-48004278D01*
X109670736Y-48002118D01*
X109656457Y-47998541D01*
X109642597Y-47993582D01*
X109629290Y-47987288D01*
X109616664Y-47979720D01*
X109604841Y-47970952D01*
X109593934Y-47961066D01*
X109584048Y-47950159D01*
X109575280Y-47938336D01*
X109567712Y-47925710D01*
X109561418Y-47912403D01*
X109556459Y-47898543D01*
X109552882Y-47884264D01*
X109550722Y-47869703D01*
X109550000Y-47855000D01*
X109550000Y-47555000D01*
X109550722Y-47540297D01*
X109552882Y-47525736D01*
X109556459Y-47511457D01*
X109561418Y-47497597D01*
X109567712Y-47484290D01*
X109575280Y-47471664D01*
X109584048Y-47459841D01*
X109593934Y-47448934D01*
X109604841Y-47439048D01*
X109616664Y-47430280D01*
X109629290Y-47422712D01*
X109642597Y-47416418D01*
X109656457Y-47411459D01*
X109670736Y-47407882D01*
X109685297Y-47405722D01*
X109700000Y-47405000D01*
X111350000Y-47405000D01*
X111364703Y-47405722D01*
G37*
G36*
X111364703Y-46135722D02*
G01*
X111379264Y-46137882D01*
X111393543Y-46141459D01*
X111407403Y-46146418D01*
X111420710Y-46152712D01*
X111433336Y-46160280D01*
X111445159Y-46169048D01*
X111456066Y-46178934D01*
X111465952Y-46189841D01*
X111474720Y-46201664D01*
X111482288Y-46214290D01*
X111488582Y-46227597D01*
X111493541Y-46241457D01*
X111497118Y-46255736D01*
X111499278Y-46270297D01*
X111500000Y-46285000D01*
X111500000Y-46585000D01*
X111499278Y-46599703D01*
X111497118Y-46614264D01*
X111493541Y-46628543D01*
X111488582Y-46642403D01*
X111482288Y-46655710D01*
X111474720Y-46668336D01*
X111465952Y-46680159D01*
X111456066Y-46691066D01*
X111445159Y-46700952D01*
X111433336Y-46709720D01*
X111420710Y-46717288D01*
X111407403Y-46723582D01*
X111393543Y-46728541D01*
X111379264Y-46732118D01*
X111364703Y-46734278D01*
X111350000Y-46735000D01*
X109700000Y-46735000D01*
X109685297Y-46734278D01*
X109670736Y-46732118D01*
X109656457Y-46728541D01*
X109642597Y-46723582D01*
X109629290Y-46717288D01*
X109616664Y-46709720D01*
X109604841Y-46700952D01*
X109593934Y-46691066D01*
X109584048Y-46680159D01*
X109575280Y-46668336D01*
X109567712Y-46655710D01*
X109561418Y-46642403D01*
X109556459Y-46628543D01*
X109552882Y-46614264D01*
X109550722Y-46599703D01*
X109550000Y-46585000D01*
X109550000Y-46285000D01*
X109550722Y-46270297D01*
X109552882Y-46255736D01*
X109556459Y-46241457D01*
X109561418Y-46227597D01*
X109567712Y-46214290D01*
X109575280Y-46201664D01*
X109584048Y-46189841D01*
X109593934Y-46178934D01*
X109604841Y-46169048D01*
X109616664Y-46160280D01*
X109629290Y-46152712D01*
X109642597Y-46146418D01*
X109656457Y-46141459D01*
X109670736Y-46137882D01*
X109685297Y-46135722D01*
X109700000Y-46135000D01*
X111350000Y-46135000D01*
X111364703Y-46135722D01*
G37*
G36*
X111364703Y-44865722D02*
G01*
X111379264Y-44867882D01*
X111393543Y-44871459D01*
X111407403Y-44876418D01*
X111420710Y-44882712D01*
X111433336Y-44890280D01*
X111445159Y-44899048D01*
X111456066Y-44908934D01*
X111465952Y-44919841D01*
X111474720Y-44931664D01*
X111482288Y-44944290D01*
X111488582Y-44957597D01*
X111493541Y-44971457D01*
X111497118Y-44985736D01*
X111499278Y-45000297D01*
X111500000Y-45015000D01*
X111500000Y-45315000D01*
X111499278Y-45329703D01*
X111497118Y-45344264D01*
X111493541Y-45358543D01*
X111488582Y-45372403D01*
X111482288Y-45385710D01*
X111474720Y-45398336D01*
X111465952Y-45410159D01*
X111456066Y-45421066D01*
X111445159Y-45430952D01*
X111433336Y-45439720D01*
X111420710Y-45447288D01*
X111407403Y-45453582D01*
X111393543Y-45458541D01*
X111379264Y-45462118D01*
X111364703Y-45464278D01*
X111350000Y-45465000D01*
X109700000Y-45465000D01*
X109685297Y-45464278D01*
X109670736Y-45462118D01*
X109656457Y-45458541D01*
X109642597Y-45453582D01*
X109629290Y-45447288D01*
X109616664Y-45439720D01*
X109604841Y-45430952D01*
X109593934Y-45421066D01*
X109584048Y-45410159D01*
X109575280Y-45398336D01*
X109567712Y-45385710D01*
X109561418Y-45372403D01*
X109556459Y-45358543D01*
X109552882Y-45344264D01*
X109550722Y-45329703D01*
X109550000Y-45315000D01*
X109550000Y-45015000D01*
X109550722Y-45000297D01*
X109552882Y-44985736D01*
X109556459Y-44971457D01*
X109561418Y-44957597D01*
X109567712Y-44944290D01*
X109575280Y-44931664D01*
X109584048Y-44919841D01*
X109593934Y-44908934D01*
X109604841Y-44899048D01*
X109616664Y-44890280D01*
X109629290Y-44882712D01*
X109642597Y-44876418D01*
X109656457Y-44871459D01*
X109670736Y-44867882D01*
X109685297Y-44865722D01*
X109700000Y-44865000D01*
X111350000Y-44865000D01*
X111364703Y-44865722D01*
G37*
G36*
X111364703Y-43595722D02*
G01*
X111379264Y-43597882D01*
X111393543Y-43601459D01*
X111407403Y-43606418D01*
X111420710Y-43612712D01*
X111433336Y-43620280D01*
X111445159Y-43629048D01*
X111456066Y-43638934D01*
X111465952Y-43649841D01*
X111474720Y-43661664D01*
X111482288Y-43674290D01*
X111488582Y-43687597D01*
X111493541Y-43701457D01*
X111497118Y-43715736D01*
X111499278Y-43730297D01*
X111500000Y-43745000D01*
X111500000Y-44045000D01*
X111499278Y-44059703D01*
X111497118Y-44074264D01*
X111493541Y-44088543D01*
X111488582Y-44102403D01*
X111482288Y-44115710D01*
X111474720Y-44128336D01*
X111465952Y-44140159D01*
X111456066Y-44151066D01*
X111445159Y-44160952D01*
X111433336Y-44169720D01*
X111420710Y-44177288D01*
X111407403Y-44183582D01*
X111393543Y-44188541D01*
X111379264Y-44192118D01*
X111364703Y-44194278D01*
X111350000Y-44195000D01*
X109700000Y-44195000D01*
X109685297Y-44194278D01*
X109670736Y-44192118D01*
X109656457Y-44188541D01*
X109642597Y-44183582D01*
X109629290Y-44177288D01*
X109616664Y-44169720D01*
X109604841Y-44160952D01*
X109593934Y-44151066D01*
X109584048Y-44140159D01*
X109575280Y-44128336D01*
X109567712Y-44115710D01*
X109561418Y-44102403D01*
X109556459Y-44088543D01*
X109552882Y-44074264D01*
X109550722Y-44059703D01*
X109550000Y-44045000D01*
X109550000Y-43745000D01*
X109550722Y-43730297D01*
X109552882Y-43715736D01*
X109556459Y-43701457D01*
X109561418Y-43687597D01*
X109567712Y-43674290D01*
X109575280Y-43661664D01*
X109584048Y-43649841D01*
X109593934Y-43638934D01*
X109604841Y-43629048D01*
X109616664Y-43620280D01*
X109629290Y-43612712D01*
X109642597Y-43606418D01*
X109656457Y-43601459D01*
X109670736Y-43597882D01*
X109685297Y-43595722D01*
X109700000Y-43595000D01*
X111350000Y-43595000D01*
X111364703Y-43595722D01*
G37*
G36*
X105314703Y-43595722D02*
G01*
X105329264Y-43597882D01*
X105343543Y-43601459D01*
X105357403Y-43606418D01*
X105370710Y-43612712D01*
X105383336Y-43620280D01*
X105395159Y-43629048D01*
X105406066Y-43638934D01*
X105415952Y-43649841D01*
X105424720Y-43661664D01*
X105432288Y-43674290D01*
X105438582Y-43687597D01*
X105443541Y-43701457D01*
X105447118Y-43715736D01*
X105449278Y-43730297D01*
X105450000Y-43745000D01*
X105450000Y-44045000D01*
X105449278Y-44059703D01*
X105447118Y-44074264D01*
X105443541Y-44088543D01*
X105438582Y-44102403D01*
X105432288Y-44115710D01*
X105424720Y-44128336D01*
X105415952Y-44140159D01*
X105406066Y-44151066D01*
X105395159Y-44160952D01*
X105383336Y-44169720D01*
X105370710Y-44177288D01*
X105357403Y-44183582D01*
X105343543Y-44188541D01*
X105329264Y-44192118D01*
X105314703Y-44194278D01*
X105300000Y-44195000D01*
X103650000Y-44195000D01*
X103635297Y-44194278D01*
X103620736Y-44192118D01*
X103606457Y-44188541D01*
X103592597Y-44183582D01*
X103579290Y-44177288D01*
X103566664Y-44169720D01*
X103554841Y-44160952D01*
X103543934Y-44151066D01*
X103534048Y-44140159D01*
X103525280Y-44128336D01*
X103517712Y-44115710D01*
X103511418Y-44102403D01*
X103506459Y-44088543D01*
X103502882Y-44074264D01*
X103500722Y-44059703D01*
X103500000Y-44045000D01*
X103500000Y-43745000D01*
X103500722Y-43730297D01*
X103502882Y-43715736D01*
X103506459Y-43701457D01*
X103511418Y-43687597D01*
X103517712Y-43674290D01*
X103525280Y-43661664D01*
X103534048Y-43649841D01*
X103543934Y-43638934D01*
X103554841Y-43629048D01*
X103566664Y-43620280D01*
X103579290Y-43612712D01*
X103592597Y-43606418D01*
X103606457Y-43601459D01*
X103620736Y-43597882D01*
X103635297Y-43595722D01*
X103650000Y-43595000D01*
X105300000Y-43595000D01*
X105314703Y-43595722D01*
G37*
G36*
X105314703Y-44865722D02*
G01*
X105329264Y-44867882D01*
X105343543Y-44871459D01*
X105357403Y-44876418D01*
X105370710Y-44882712D01*
X105383336Y-44890280D01*
X105395159Y-44899048D01*
X105406066Y-44908934D01*
X105415952Y-44919841D01*
X105424720Y-44931664D01*
X105432288Y-44944290D01*
X105438582Y-44957597D01*
X105443541Y-44971457D01*
X105447118Y-44985736D01*
X105449278Y-45000297D01*
X105450000Y-45015000D01*
X105450000Y-45315000D01*
X105449278Y-45329703D01*
X105447118Y-45344264D01*
X105443541Y-45358543D01*
X105438582Y-45372403D01*
X105432288Y-45385710D01*
X105424720Y-45398336D01*
X105415952Y-45410159D01*
X105406066Y-45421066D01*
X105395159Y-45430952D01*
X105383336Y-45439720D01*
X105370710Y-45447288D01*
X105357403Y-45453582D01*
X105343543Y-45458541D01*
X105329264Y-45462118D01*
X105314703Y-45464278D01*
X105300000Y-45465000D01*
X103650000Y-45465000D01*
X103635297Y-45464278D01*
X103620736Y-45462118D01*
X103606457Y-45458541D01*
X103592597Y-45453582D01*
X103579290Y-45447288D01*
X103566664Y-45439720D01*
X103554841Y-45430952D01*
X103543934Y-45421066D01*
X103534048Y-45410159D01*
X103525280Y-45398336D01*
X103517712Y-45385710D01*
X103511418Y-45372403D01*
X103506459Y-45358543D01*
X103502882Y-45344264D01*
X103500722Y-45329703D01*
X103500000Y-45315000D01*
X103500000Y-45015000D01*
X103500722Y-45000297D01*
X103502882Y-44985736D01*
X103506459Y-44971457D01*
X103511418Y-44957597D01*
X103517712Y-44944290D01*
X103525280Y-44931664D01*
X103534048Y-44919841D01*
X103543934Y-44908934D01*
X103554841Y-44899048D01*
X103566664Y-44890280D01*
X103579290Y-44882712D01*
X103592597Y-44876418D01*
X103606457Y-44871459D01*
X103620736Y-44867882D01*
X103635297Y-44865722D01*
X103650000Y-44865000D01*
X105300000Y-44865000D01*
X105314703Y-44865722D01*
G37*
G36*
X105314703Y-46135722D02*
G01*
X105329264Y-46137882D01*
X105343543Y-46141459D01*
X105357403Y-46146418D01*
X105370710Y-46152712D01*
X105383336Y-46160280D01*
X105395159Y-46169048D01*
X105406066Y-46178934D01*
X105415952Y-46189841D01*
X105424720Y-46201664D01*
X105432288Y-46214290D01*
X105438582Y-46227597D01*
X105443541Y-46241457D01*
X105447118Y-46255736D01*
X105449278Y-46270297D01*
X105450000Y-46285000D01*
X105450000Y-46585000D01*
X105449278Y-46599703D01*
X105447118Y-46614264D01*
X105443541Y-46628543D01*
X105438582Y-46642403D01*
X105432288Y-46655710D01*
X105424720Y-46668336D01*
X105415952Y-46680159D01*
X105406066Y-46691066D01*
X105395159Y-46700952D01*
X105383336Y-46709720D01*
X105370710Y-46717288D01*
X105357403Y-46723582D01*
X105343543Y-46728541D01*
X105329264Y-46732118D01*
X105314703Y-46734278D01*
X105300000Y-46735000D01*
X103650000Y-46735000D01*
X103635297Y-46734278D01*
X103620736Y-46732118D01*
X103606457Y-46728541D01*
X103592597Y-46723582D01*
X103579290Y-46717288D01*
X103566664Y-46709720D01*
X103554841Y-46700952D01*
X103543934Y-46691066D01*
X103534048Y-46680159D01*
X103525280Y-46668336D01*
X103517712Y-46655710D01*
X103511418Y-46642403D01*
X103506459Y-46628543D01*
X103502882Y-46614264D01*
X103500722Y-46599703D01*
X103500000Y-46585000D01*
X103500000Y-46285000D01*
X103500722Y-46270297D01*
X103502882Y-46255736D01*
X103506459Y-46241457D01*
X103511418Y-46227597D01*
X103517712Y-46214290D01*
X103525280Y-46201664D01*
X103534048Y-46189841D01*
X103543934Y-46178934D01*
X103554841Y-46169048D01*
X103566664Y-46160280D01*
X103579290Y-46152712D01*
X103592597Y-46146418D01*
X103606457Y-46141459D01*
X103620736Y-46137882D01*
X103635297Y-46135722D01*
X103650000Y-46135000D01*
X105300000Y-46135000D01*
X105314703Y-46135722D01*
G37*
G36*
X105314703Y-47405722D02*
G01*
X105329264Y-47407882D01*
X105343543Y-47411459D01*
X105357403Y-47416418D01*
X105370710Y-47422712D01*
X105383336Y-47430280D01*
X105395159Y-47439048D01*
X105406066Y-47448934D01*
X105415952Y-47459841D01*
X105424720Y-47471664D01*
X105432288Y-47484290D01*
X105438582Y-47497597D01*
X105443541Y-47511457D01*
X105447118Y-47525736D01*
X105449278Y-47540297D01*
X105450000Y-47555000D01*
X105450000Y-47855000D01*
X105449278Y-47869703D01*
X105447118Y-47884264D01*
X105443541Y-47898543D01*
X105438582Y-47912403D01*
X105432288Y-47925710D01*
X105424720Y-47938336D01*
X105415952Y-47950159D01*
X105406066Y-47961066D01*
X105395159Y-47970952D01*
X105383336Y-47979720D01*
X105370710Y-47987288D01*
X105357403Y-47993582D01*
X105343543Y-47998541D01*
X105329264Y-48002118D01*
X105314703Y-48004278D01*
X105300000Y-48005000D01*
X103650000Y-48005000D01*
X103635297Y-48004278D01*
X103620736Y-48002118D01*
X103606457Y-47998541D01*
X103592597Y-47993582D01*
X103579290Y-47987288D01*
X103566664Y-47979720D01*
X103554841Y-47970952D01*
X103543934Y-47961066D01*
X103534048Y-47950159D01*
X103525280Y-47938336D01*
X103517712Y-47925710D01*
X103511418Y-47912403D01*
X103506459Y-47898543D01*
X103502882Y-47884264D01*
X103500722Y-47869703D01*
X103500000Y-47855000D01*
X103500000Y-47555000D01*
X103500722Y-47540297D01*
X103502882Y-47525736D01*
X103506459Y-47511457D01*
X103511418Y-47497597D01*
X103517712Y-47484290D01*
X103525280Y-47471664D01*
X103534048Y-47459841D01*
X103543934Y-47448934D01*
X103554841Y-47439048D01*
X103566664Y-47430280D01*
X103579290Y-47422712D01*
X103592597Y-47416418D01*
X103606457Y-47411459D01*
X103620736Y-47407882D01*
X103635297Y-47405722D01*
X103650000Y-47405000D01*
X105300000Y-47405000D01*
X105314703Y-47405722D01*
G37*
G36*
X100364703Y-47405722D02*
G01*
X100379264Y-47407882D01*
X100393543Y-47411459D01*
X100407403Y-47416418D01*
X100420710Y-47422712D01*
X100433336Y-47430280D01*
X100445159Y-47439048D01*
X100456066Y-47448934D01*
X100465952Y-47459841D01*
X100474720Y-47471664D01*
X100482288Y-47484290D01*
X100488582Y-47497597D01*
X100493541Y-47511457D01*
X100497118Y-47525736D01*
X100499278Y-47540297D01*
X100500000Y-47555000D01*
X100500000Y-47855000D01*
X100499278Y-47869703D01*
X100497118Y-47884264D01*
X100493541Y-47898543D01*
X100488582Y-47912403D01*
X100482288Y-47925710D01*
X100474720Y-47938336D01*
X100465952Y-47950159D01*
X100456066Y-47961066D01*
X100445159Y-47970952D01*
X100433336Y-47979720D01*
X100420710Y-47987288D01*
X100407403Y-47993582D01*
X100393543Y-47998541D01*
X100379264Y-48002118D01*
X100364703Y-48004278D01*
X100350000Y-48005000D01*
X98700000Y-48005000D01*
X98685297Y-48004278D01*
X98670736Y-48002118D01*
X98656457Y-47998541D01*
X98642597Y-47993582D01*
X98629290Y-47987288D01*
X98616664Y-47979720D01*
X98604841Y-47970952D01*
X98593934Y-47961066D01*
X98584048Y-47950159D01*
X98575280Y-47938336D01*
X98567712Y-47925710D01*
X98561418Y-47912403D01*
X98556459Y-47898543D01*
X98552882Y-47884264D01*
X98550722Y-47869703D01*
X98550000Y-47855000D01*
X98550000Y-47555000D01*
X98550722Y-47540297D01*
X98552882Y-47525736D01*
X98556459Y-47511457D01*
X98561418Y-47497597D01*
X98567712Y-47484290D01*
X98575280Y-47471664D01*
X98584048Y-47459841D01*
X98593934Y-47448934D01*
X98604841Y-47439048D01*
X98616664Y-47430280D01*
X98629290Y-47422712D01*
X98642597Y-47416418D01*
X98656457Y-47411459D01*
X98670736Y-47407882D01*
X98685297Y-47405722D01*
X98700000Y-47405000D01*
X100350000Y-47405000D01*
X100364703Y-47405722D01*
G37*
G36*
X100364703Y-46135722D02*
G01*
X100379264Y-46137882D01*
X100393543Y-46141459D01*
X100407403Y-46146418D01*
X100420710Y-46152712D01*
X100433336Y-46160280D01*
X100445159Y-46169048D01*
X100456066Y-46178934D01*
X100465952Y-46189841D01*
X100474720Y-46201664D01*
X100482288Y-46214290D01*
X100488582Y-46227597D01*
X100493541Y-46241457D01*
X100497118Y-46255736D01*
X100499278Y-46270297D01*
X100500000Y-46285000D01*
X100500000Y-46585000D01*
X100499278Y-46599703D01*
X100497118Y-46614264D01*
X100493541Y-46628543D01*
X100488582Y-46642403D01*
X100482288Y-46655710D01*
X100474720Y-46668336D01*
X100465952Y-46680159D01*
X100456066Y-46691066D01*
X100445159Y-46700952D01*
X100433336Y-46709720D01*
X100420710Y-46717288D01*
X100407403Y-46723582D01*
X100393543Y-46728541D01*
X100379264Y-46732118D01*
X100364703Y-46734278D01*
X100350000Y-46735000D01*
X98700000Y-46735000D01*
X98685297Y-46734278D01*
X98670736Y-46732118D01*
X98656457Y-46728541D01*
X98642597Y-46723582D01*
X98629290Y-46717288D01*
X98616664Y-46709720D01*
X98604841Y-46700952D01*
X98593934Y-46691066D01*
X98584048Y-46680159D01*
X98575280Y-46668336D01*
X98567712Y-46655710D01*
X98561418Y-46642403D01*
X98556459Y-46628543D01*
X98552882Y-46614264D01*
X98550722Y-46599703D01*
X98550000Y-46585000D01*
X98550000Y-46285000D01*
X98550722Y-46270297D01*
X98552882Y-46255736D01*
X98556459Y-46241457D01*
X98561418Y-46227597D01*
X98567712Y-46214290D01*
X98575280Y-46201664D01*
X98584048Y-46189841D01*
X98593934Y-46178934D01*
X98604841Y-46169048D01*
X98616664Y-46160280D01*
X98629290Y-46152712D01*
X98642597Y-46146418D01*
X98656457Y-46141459D01*
X98670736Y-46137882D01*
X98685297Y-46135722D01*
X98700000Y-46135000D01*
X100350000Y-46135000D01*
X100364703Y-46135722D01*
G37*
G36*
X100364703Y-44865722D02*
G01*
X100379264Y-44867882D01*
X100393543Y-44871459D01*
X100407403Y-44876418D01*
X100420710Y-44882712D01*
X100433336Y-44890280D01*
X100445159Y-44899048D01*
X100456066Y-44908934D01*
X100465952Y-44919841D01*
X100474720Y-44931664D01*
X100482288Y-44944290D01*
X100488582Y-44957597D01*
X100493541Y-44971457D01*
X100497118Y-44985736D01*
X100499278Y-45000297D01*
X100500000Y-45015000D01*
X100500000Y-45315000D01*
X100499278Y-45329703D01*
X100497118Y-45344264D01*
X100493541Y-45358543D01*
X100488582Y-45372403D01*
X100482288Y-45385710D01*
X100474720Y-45398336D01*
X100465952Y-45410159D01*
X100456066Y-45421066D01*
X100445159Y-45430952D01*
X100433336Y-45439720D01*
X100420710Y-45447288D01*
X100407403Y-45453582D01*
X100393543Y-45458541D01*
X100379264Y-45462118D01*
X100364703Y-45464278D01*
X100350000Y-45465000D01*
X98700000Y-45465000D01*
X98685297Y-45464278D01*
X98670736Y-45462118D01*
X98656457Y-45458541D01*
X98642597Y-45453582D01*
X98629290Y-45447288D01*
X98616664Y-45439720D01*
X98604841Y-45430952D01*
X98593934Y-45421066D01*
X98584048Y-45410159D01*
X98575280Y-45398336D01*
X98567712Y-45385710D01*
X98561418Y-45372403D01*
X98556459Y-45358543D01*
X98552882Y-45344264D01*
X98550722Y-45329703D01*
X98550000Y-45315000D01*
X98550000Y-45015000D01*
X98550722Y-45000297D01*
X98552882Y-44985736D01*
X98556459Y-44971457D01*
X98561418Y-44957597D01*
X98567712Y-44944290D01*
X98575280Y-44931664D01*
X98584048Y-44919841D01*
X98593934Y-44908934D01*
X98604841Y-44899048D01*
X98616664Y-44890280D01*
X98629290Y-44882712D01*
X98642597Y-44876418D01*
X98656457Y-44871459D01*
X98670736Y-44867882D01*
X98685297Y-44865722D01*
X98700000Y-44865000D01*
X100350000Y-44865000D01*
X100364703Y-44865722D01*
G37*
G36*
X100364703Y-43595722D02*
G01*
X100379264Y-43597882D01*
X100393543Y-43601459D01*
X100407403Y-43606418D01*
X100420710Y-43612712D01*
X100433336Y-43620280D01*
X100445159Y-43629048D01*
X100456066Y-43638934D01*
X100465952Y-43649841D01*
X100474720Y-43661664D01*
X100482288Y-43674290D01*
X100488582Y-43687597D01*
X100493541Y-43701457D01*
X100497118Y-43715736D01*
X100499278Y-43730297D01*
X100500000Y-43745000D01*
X100500000Y-44045000D01*
X100499278Y-44059703D01*
X100497118Y-44074264D01*
X100493541Y-44088543D01*
X100488582Y-44102403D01*
X100482288Y-44115710D01*
X100474720Y-44128336D01*
X100465952Y-44140159D01*
X100456066Y-44151066D01*
X100445159Y-44160952D01*
X100433336Y-44169720D01*
X100420710Y-44177288D01*
X100407403Y-44183582D01*
X100393543Y-44188541D01*
X100379264Y-44192118D01*
X100364703Y-44194278D01*
X100350000Y-44195000D01*
X98700000Y-44195000D01*
X98685297Y-44194278D01*
X98670736Y-44192118D01*
X98656457Y-44188541D01*
X98642597Y-44183582D01*
X98629290Y-44177288D01*
X98616664Y-44169720D01*
X98604841Y-44160952D01*
X98593934Y-44151066D01*
X98584048Y-44140159D01*
X98575280Y-44128336D01*
X98567712Y-44115710D01*
X98561418Y-44102403D01*
X98556459Y-44088543D01*
X98552882Y-44074264D01*
X98550722Y-44059703D01*
X98550000Y-44045000D01*
X98550000Y-43745000D01*
X98550722Y-43730297D01*
X98552882Y-43715736D01*
X98556459Y-43701457D01*
X98561418Y-43687597D01*
X98567712Y-43674290D01*
X98575280Y-43661664D01*
X98584048Y-43649841D01*
X98593934Y-43638934D01*
X98604841Y-43629048D01*
X98616664Y-43620280D01*
X98629290Y-43612712D01*
X98642597Y-43606418D01*
X98656457Y-43601459D01*
X98670736Y-43597882D01*
X98685297Y-43595722D01*
X98700000Y-43595000D01*
X100350000Y-43595000D01*
X100364703Y-43595722D01*
G37*
G36*
X111709703Y-57800722D02*
G01*
X111724264Y-57802882D01*
X111738543Y-57806459D01*
X111752403Y-57811418D01*
X111765710Y-57817712D01*
X111778336Y-57825280D01*
X111790159Y-57834048D01*
X111801066Y-57843934D01*
X111810952Y-57854841D01*
X111819720Y-57866664D01*
X111827288Y-57879290D01*
X111833582Y-57892597D01*
X111838541Y-57906457D01*
X111842118Y-57920736D01*
X111844278Y-57935297D01*
X111845000Y-57950000D01*
X111845000Y-59600000D01*
X111844278Y-59614703D01*
X111842118Y-59629264D01*
X111838541Y-59643543D01*
X111833582Y-59657403D01*
X111827288Y-59670710D01*
X111819720Y-59683336D01*
X111810952Y-59695159D01*
X111801066Y-59706066D01*
X111790159Y-59715952D01*
X111778336Y-59724720D01*
X111765710Y-59732288D01*
X111752403Y-59738582D01*
X111738543Y-59743541D01*
X111724264Y-59747118D01*
X111709703Y-59749278D01*
X111695000Y-59750000D01*
X111395000Y-59750000D01*
X111380297Y-59749278D01*
X111365736Y-59747118D01*
X111351457Y-59743541D01*
X111337597Y-59738582D01*
X111324290Y-59732288D01*
X111311664Y-59724720D01*
X111299841Y-59715952D01*
X111288934Y-59706066D01*
X111279048Y-59695159D01*
X111270280Y-59683336D01*
X111262712Y-59670710D01*
X111256418Y-59657403D01*
X111251459Y-59643543D01*
X111247882Y-59629264D01*
X111245722Y-59614703D01*
X111245000Y-59600000D01*
X111245000Y-57950000D01*
X111245722Y-57935297D01*
X111247882Y-57920736D01*
X111251459Y-57906457D01*
X111256418Y-57892597D01*
X111262712Y-57879290D01*
X111270280Y-57866664D01*
X111279048Y-57854841D01*
X111288934Y-57843934D01*
X111299841Y-57834048D01*
X111311664Y-57825280D01*
X111324290Y-57817712D01*
X111337597Y-57811418D01*
X111351457Y-57806459D01*
X111365736Y-57802882D01*
X111380297Y-57800722D01*
X111395000Y-57800000D01*
X111695000Y-57800000D01*
X111709703Y-57800722D01*
G37*
G36*
X110439703Y-57800722D02*
G01*
X110454264Y-57802882D01*
X110468543Y-57806459D01*
X110482403Y-57811418D01*
X110495710Y-57817712D01*
X110508336Y-57825280D01*
X110520159Y-57834048D01*
X110531066Y-57843934D01*
X110540952Y-57854841D01*
X110549720Y-57866664D01*
X110557288Y-57879290D01*
X110563582Y-57892597D01*
X110568541Y-57906457D01*
X110572118Y-57920736D01*
X110574278Y-57935297D01*
X110575000Y-57950000D01*
X110575000Y-59600000D01*
X110574278Y-59614703D01*
X110572118Y-59629264D01*
X110568541Y-59643543D01*
X110563582Y-59657403D01*
X110557288Y-59670710D01*
X110549720Y-59683336D01*
X110540952Y-59695159D01*
X110531066Y-59706066D01*
X110520159Y-59715952D01*
X110508336Y-59724720D01*
X110495710Y-59732288D01*
X110482403Y-59738582D01*
X110468543Y-59743541D01*
X110454264Y-59747118D01*
X110439703Y-59749278D01*
X110425000Y-59750000D01*
X110125000Y-59750000D01*
X110110297Y-59749278D01*
X110095736Y-59747118D01*
X110081457Y-59743541D01*
X110067597Y-59738582D01*
X110054290Y-59732288D01*
X110041664Y-59724720D01*
X110029841Y-59715952D01*
X110018934Y-59706066D01*
X110009048Y-59695159D01*
X110000280Y-59683336D01*
X109992712Y-59670710D01*
X109986418Y-59657403D01*
X109981459Y-59643543D01*
X109977882Y-59629264D01*
X109975722Y-59614703D01*
X109975000Y-59600000D01*
X109975000Y-57950000D01*
X109975722Y-57935297D01*
X109977882Y-57920736D01*
X109981459Y-57906457D01*
X109986418Y-57892597D01*
X109992712Y-57879290D01*
X110000280Y-57866664D01*
X110009048Y-57854841D01*
X110018934Y-57843934D01*
X110029841Y-57834048D01*
X110041664Y-57825280D01*
X110054290Y-57817712D01*
X110067597Y-57811418D01*
X110081457Y-57806459D01*
X110095736Y-57802882D01*
X110110297Y-57800722D01*
X110125000Y-57800000D01*
X110425000Y-57800000D01*
X110439703Y-57800722D01*
G37*
G36*
X109169703Y-57800722D02*
G01*
X109184264Y-57802882D01*
X109198543Y-57806459D01*
X109212403Y-57811418D01*
X109225710Y-57817712D01*
X109238336Y-57825280D01*
X109250159Y-57834048D01*
X109261066Y-57843934D01*
X109270952Y-57854841D01*
X109279720Y-57866664D01*
X109287288Y-57879290D01*
X109293582Y-57892597D01*
X109298541Y-57906457D01*
X109302118Y-57920736D01*
X109304278Y-57935297D01*
X109305000Y-57950000D01*
X109305000Y-59600000D01*
X109304278Y-59614703D01*
X109302118Y-59629264D01*
X109298541Y-59643543D01*
X109293582Y-59657403D01*
X109287288Y-59670710D01*
X109279720Y-59683336D01*
X109270952Y-59695159D01*
X109261066Y-59706066D01*
X109250159Y-59715952D01*
X109238336Y-59724720D01*
X109225710Y-59732288D01*
X109212403Y-59738582D01*
X109198543Y-59743541D01*
X109184264Y-59747118D01*
X109169703Y-59749278D01*
X109155000Y-59750000D01*
X108855000Y-59750000D01*
X108840297Y-59749278D01*
X108825736Y-59747118D01*
X108811457Y-59743541D01*
X108797597Y-59738582D01*
X108784290Y-59732288D01*
X108771664Y-59724720D01*
X108759841Y-59715952D01*
X108748934Y-59706066D01*
X108739048Y-59695159D01*
X108730280Y-59683336D01*
X108722712Y-59670710D01*
X108716418Y-59657403D01*
X108711459Y-59643543D01*
X108707882Y-59629264D01*
X108705722Y-59614703D01*
X108705000Y-59600000D01*
X108705000Y-57950000D01*
X108705722Y-57935297D01*
X108707882Y-57920736D01*
X108711459Y-57906457D01*
X108716418Y-57892597D01*
X108722712Y-57879290D01*
X108730280Y-57866664D01*
X108739048Y-57854841D01*
X108748934Y-57843934D01*
X108759841Y-57834048D01*
X108771664Y-57825280D01*
X108784290Y-57817712D01*
X108797597Y-57811418D01*
X108811457Y-57806459D01*
X108825736Y-57802882D01*
X108840297Y-57800722D01*
X108855000Y-57800000D01*
X109155000Y-57800000D01*
X109169703Y-57800722D01*
G37*
G36*
X107899703Y-57800722D02*
G01*
X107914264Y-57802882D01*
X107928543Y-57806459D01*
X107942403Y-57811418D01*
X107955710Y-57817712D01*
X107968336Y-57825280D01*
X107980159Y-57834048D01*
X107991066Y-57843934D01*
X108000952Y-57854841D01*
X108009720Y-57866664D01*
X108017288Y-57879290D01*
X108023582Y-57892597D01*
X108028541Y-57906457D01*
X108032118Y-57920736D01*
X108034278Y-57935297D01*
X108035000Y-57950000D01*
X108035000Y-59600000D01*
X108034278Y-59614703D01*
X108032118Y-59629264D01*
X108028541Y-59643543D01*
X108023582Y-59657403D01*
X108017288Y-59670710D01*
X108009720Y-59683336D01*
X108000952Y-59695159D01*
X107991066Y-59706066D01*
X107980159Y-59715952D01*
X107968336Y-59724720D01*
X107955710Y-59732288D01*
X107942403Y-59738582D01*
X107928543Y-59743541D01*
X107914264Y-59747118D01*
X107899703Y-59749278D01*
X107885000Y-59750000D01*
X107585000Y-59750000D01*
X107570297Y-59749278D01*
X107555736Y-59747118D01*
X107541457Y-59743541D01*
X107527597Y-59738582D01*
X107514290Y-59732288D01*
X107501664Y-59724720D01*
X107489841Y-59715952D01*
X107478934Y-59706066D01*
X107469048Y-59695159D01*
X107460280Y-59683336D01*
X107452712Y-59670710D01*
X107446418Y-59657403D01*
X107441459Y-59643543D01*
X107437882Y-59629264D01*
X107435722Y-59614703D01*
X107435000Y-59600000D01*
X107435000Y-57950000D01*
X107435722Y-57935297D01*
X107437882Y-57920736D01*
X107441459Y-57906457D01*
X107446418Y-57892597D01*
X107452712Y-57879290D01*
X107460280Y-57866664D01*
X107469048Y-57854841D01*
X107478934Y-57843934D01*
X107489841Y-57834048D01*
X107501664Y-57825280D01*
X107514290Y-57817712D01*
X107527597Y-57811418D01*
X107541457Y-57806459D01*
X107555736Y-57802882D01*
X107570297Y-57800722D01*
X107585000Y-57800000D01*
X107885000Y-57800000D01*
X107899703Y-57800722D01*
G37*
G36*
X106629703Y-57800722D02*
G01*
X106644264Y-57802882D01*
X106658543Y-57806459D01*
X106672403Y-57811418D01*
X106685710Y-57817712D01*
X106698336Y-57825280D01*
X106710159Y-57834048D01*
X106721066Y-57843934D01*
X106730952Y-57854841D01*
X106739720Y-57866664D01*
X106747288Y-57879290D01*
X106753582Y-57892597D01*
X106758541Y-57906457D01*
X106762118Y-57920736D01*
X106764278Y-57935297D01*
X106765000Y-57950000D01*
X106765000Y-59600000D01*
X106764278Y-59614703D01*
X106762118Y-59629264D01*
X106758541Y-59643543D01*
X106753582Y-59657403D01*
X106747288Y-59670710D01*
X106739720Y-59683336D01*
X106730952Y-59695159D01*
X106721066Y-59706066D01*
X106710159Y-59715952D01*
X106698336Y-59724720D01*
X106685710Y-59732288D01*
X106672403Y-59738582D01*
X106658543Y-59743541D01*
X106644264Y-59747118D01*
X106629703Y-59749278D01*
X106615000Y-59750000D01*
X106315000Y-59750000D01*
X106300297Y-59749278D01*
X106285736Y-59747118D01*
X106271457Y-59743541D01*
X106257597Y-59738582D01*
X106244290Y-59732288D01*
X106231664Y-59724720D01*
X106219841Y-59715952D01*
X106208934Y-59706066D01*
X106199048Y-59695159D01*
X106190280Y-59683336D01*
X106182712Y-59670710D01*
X106176418Y-59657403D01*
X106171459Y-59643543D01*
X106167882Y-59629264D01*
X106165722Y-59614703D01*
X106165000Y-59600000D01*
X106165000Y-57950000D01*
X106165722Y-57935297D01*
X106167882Y-57920736D01*
X106171459Y-57906457D01*
X106176418Y-57892597D01*
X106182712Y-57879290D01*
X106190280Y-57866664D01*
X106199048Y-57854841D01*
X106208934Y-57843934D01*
X106219841Y-57834048D01*
X106231664Y-57825280D01*
X106244290Y-57817712D01*
X106257597Y-57811418D01*
X106271457Y-57806459D01*
X106285736Y-57802882D01*
X106300297Y-57800722D01*
X106315000Y-57800000D01*
X106615000Y-57800000D01*
X106629703Y-57800722D01*
G37*
G36*
X105359703Y-57800722D02*
G01*
X105374264Y-57802882D01*
X105388543Y-57806459D01*
X105402403Y-57811418D01*
X105415710Y-57817712D01*
X105428336Y-57825280D01*
X105440159Y-57834048D01*
X105451066Y-57843934D01*
X105460952Y-57854841D01*
X105469720Y-57866664D01*
X105477288Y-57879290D01*
X105483582Y-57892597D01*
X105488541Y-57906457D01*
X105492118Y-57920736D01*
X105494278Y-57935297D01*
X105495000Y-57950000D01*
X105495000Y-59600000D01*
X105494278Y-59614703D01*
X105492118Y-59629264D01*
X105488541Y-59643543D01*
X105483582Y-59657403D01*
X105477288Y-59670710D01*
X105469720Y-59683336D01*
X105460952Y-59695159D01*
X105451066Y-59706066D01*
X105440159Y-59715952D01*
X105428336Y-59724720D01*
X105415710Y-59732288D01*
X105402403Y-59738582D01*
X105388543Y-59743541D01*
X105374264Y-59747118D01*
X105359703Y-59749278D01*
X105345000Y-59750000D01*
X105045000Y-59750000D01*
X105030297Y-59749278D01*
X105015736Y-59747118D01*
X105001457Y-59743541D01*
X104987597Y-59738582D01*
X104974290Y-59732288D01*
X104961664Y-59724720D01*
X104949841Y-59715952D01*
X104938934Y-59706066D01*
X104929048Y-59695159D01*
X104920280Y-59683336D01*
X104912712Y-59670710D01*
X104906418Y-59657403D01*
X104901459Y-59643543D01*
X104897882Y-59629264D01*
X104895722Y-59614703D01*
X104895000Y-59600000D01*
X104895000Y-57950000D01*
X104895722Y-57935297D01*
X104897882Y-57920736D01*
X104901459Y-57906457D01*
X104906418Y-57892597D01*
X104912712Y-57879290D01*
X104920280Y-57866664D01*
X104929048Y-57854841D01*
X104938934Y-57843934D01*
X104949841Y-57834048D01*
X104961664Y-57825280D01*
X104974290Y-57817712D01*
X104987597Y-57811418D01*
X105001457Y-57806459D01*
X105015736Y-57802882D01*
X105030297Y-57800722D01*
X105045000Y-57800000D01*
X105345000Y-57800000D01*
X105359703Y-57800722D01*
G37*
G36*
X104089703Y-57800722D02*
G01*
X104104264Y-57802882D01*
X104118543Y-57806459D01*
X104132403Y-57811418D01*
X104145710Y-57817712D01*
X104158336Y-57825280D01*
X104170159Y-57834048D01*
X104181066Y-57843934D01*
X104190952Y-57854841D01*
X104199720Y-57866664D01*
X104207288Y-57879290D01*
X104213582Y-57892597D01*
X104218541Y-57906457D01*
X104222118Y-57920736D01*
X104224278Y-57935297D01*
X104225000Y-57950000D01*
X104225000Y-59600000D01*
X104224278Y-59614703D01*
X104222118Y-59629264D01*
X104218541Y-59643543D01*
X104213582Y-59657403D01*
X104207288Y-59670710D01*
X104199720Y-59683336D01*
X104190952Y-59695159D01*
X104181066Y-59706066D01*
X104170159Y-59715952D01*
X104158336Y-59724720D01*
X104145710Y-59732288D01*
X104132403Y-59738582D01*
X104118543Y-59743541D01*
X104104264Y-59747118D01*
X104089703Y-59749278D01*
X104075000Y-59750000D01*
X103775000Y-59750000D01*
X103760297Y-59749278D01*
X103745736Y-59747118D01*
X103731457Y-59743541D01*
X103717597Y-59738582D01*
X103704290Y-59732288D01*
X103691664Y-59724720D01*
X103679841Y-59715952D01*
X103668934Y-59706066D01*
X103659048Y-59695159D01*
X103650280Y-59683336D01*
X103642712Y-59670710D01*
X103636418Y-59657403D01*
X103631459Y-59643543D01*
X103627882Y-59629264D01*
X103625722Y-59614703D01*
X103625000Y-59600000D01*
X103625000Y-57950000D01*
X103625722Y-57935297D01*
X103627882Y-57920736D01*
X103631459Y-57906457D01*
X103636418Y-57892597D01*
X103642712Y-57879290D01*
X103650280Y-57866664D01*
X103659048Y-57854841D01*
X103668934Y-57843934D01*
X103679841Y-57834048D01*
X103691664Y-57825280D01*
X103704290Y-57817712D01*
X103717597Y-57811418D01*
X103731457Y-57806459D01*
X103745736Y-57802882D01*
X103760297Y-57800722D01*
X103775000Y-57800000D01*
X104075000Y-57800000D01*
X104089703Y-57800722D01*
G37*
G36*
X102819703Y-57800722D02*
G01*
X102834264Y-57802882D01*
X102848543Y-57806459D01*
X102862403Y-57811418D01*
X102875710Y-57817712D01*
X102888336Y-57825280D01*
X102900159Y-57834048D01*
X102911066Y-57843934D01*
X102920952Y-57854841D01*
X102929720Y-57866664D01*
X102937288Y-57879290D01*
X102943582Y-57892597D01*
X102948541Y-57906457D01*
X102952118Y-57920736D01*
X102954278Y-57935297D01*
X102955000Y-57950000D01*
X102955000Y-59600000D01*
X102954278Y-59614703D01*
X102952118Y-59629264D01*
X102948541Y-59643543D01*
X102943582Y-59657403D01*
X102937288Y-59670710D01*
X102929720Y-59683336D01*
X102920952Y-59695159D01*
X102911066Y-59706066D01*
X102900159Y-59715952D01*
X102888336Y-59724720D01*
X102875710Y-59732288D01*
X102862403Y-59738582D01*
X102848543Y-59743541D01*
X102834264Y-59747118D01*
X102819703Y-59749278D01*
X102805000Y-59750000D01*
X102505000Y-59750000D01*
X102490297Y-59749278D01*
X102475736Y-59747118D01*
X102461457Y-59743541D01*
X102447597Y-59738582D01*
X102434290Y-59732288D01*
X102421664Y-59724720D01*
X102409841Y-59715952D01*
X102398934Y-59706066D01*
X102389048Y-59695159D01*
X102380280Y-59683336D01*
X102372712Y-59670710D01*
X102366418Y-59657403D01*
X102361459Y-59643543D01*
X102357882Y-59629264D01*
X102355722Y-59614703D01*
X102355000Y-59600000D01*
X102355000Y-57950000D01*
X102355722Y-57935297D01*
X102357882Y-57920736D01*
X102361459Y-57906457D01*
X102366418Y-57892597D01*
X102372712Y-57879290D01*
X102380280Y-57866664D01*
X102389048Y-57854841D01*
X102398934Y-57843934D01*
X102409841Y-57834048D01*
X102421664Y-57825280D01*
X102434290Y-57817712D01*
X102447597Y-57811418D01*
X102461457Y-57806459D01*
X102475736Y-57802882D01*
X102490297Y-57800722D01*
X102505000Y-57800000D01*
X102805000Y-57800000D01*
X102819703Y-57800722D01*
G37*
G36*
X102819703Y-52850722D02*
G01*
X102834264Y-52852882D01*
X102848543Y-52856459D01*
X102862403Y-52861418D01*
X102875710Y-52867712D01*
X102888336Y-52875280D01*
X102900159Y-52884048D01*
X102911066Y-52893934D01*
X102920952Y-52904841D01*
X102929720Y-52916664D01*
X102937288Y-52929290D01*
X102943582Y-52942597D01*
X102948541Y-52956457D01*
X102952118Y-52970736D01*
X102954278Y-52985297D01*
X102955000Y-53000000D01*
X102955000Y-54650000D01*
X102954278Y-54664703D01*
X102952118Y-54679264D01*
X102948541Y-54693543D01*
X102943582Y-54707403D01*
X102937288Y-54720710D01*
X102929720Y-54733336D01*
X102920952Y-54745159D01*
X102911066Y-54756066D01*
X102900159Y-54765952D01*
X102888336Y-54774720D01*
X102875710Y-54782288D01*
X102862403Y-54788582D01*
X102848543Y-54793541D01*
X102834264Y-54797118D01*
X102819703Y-54799278D01*
X102805000Y-54800000D01*
X102505000Y-54800000D01*
X102490297Y-54799278D01*
X102475736Y-54797118D01*
X102461457Y-54793541D01*
X102447597Y-54788582D01*
X102434290Y-54782288D01*
X102421664Y-54774720D01*
X102409841Y-54765952D01*
X102398934Y-54756066D01*
X102389048Y-54745159D01*
X102380280Y-54733336D01*
X102372712Y-54720710D01*
X102366418Y-54707403D01*
X102361459Y-54693543D01*
X102357882Y-54679264D01*
X102355722Y-54664703D01*
X102355000Y-54650000D01*
X102355000Y-53000000D01*
X102355722Y-52985297D01*
X102357882Y-52970736D01*
X102361459Y-52956457D01*
X102366418Y-52942597D01*
X102372712Y-52929290D01*
X102380280Y-52916664D01*
X102389048Y-52904841D01*
X102398934Y-52893934D01*
X102409841Y-52884048D01*
X102421664Y-52875280D01*
X102434290Y-52867712D01*
X102447597Y-52861418D01*
X102461457Y-52856459D01*
X102475736Y-52852882D01*
X102490297Y-52850722D01*
X102505000Y-52850000D01*
X102805000Y-52850000D01*
X102819703Y-52850722D01*
G37*
G36*
X104089703Y-52850722D02*
G01*
X104104264Y-52852882D01*
X104118543Y-52856459D01*
X104132403Y-52861418D01*
X104145710Y-52867712D01*
X104158336Y-52875280D01*
X104170159Y-52884048D01*
X104181066Y-52893934D01*
X104190952Y-52904841D01*
X104199720Y-52916664D01*
X104207288Y-52929290D01*
X104213582Y-52942597D01*
X104218541Y-52956457D01*
X104222118Y-52970736D01*
X104224278Y-52985297D01*
X104225000Y-53000000D01*
X104225000Y-54650000D01*
X104224278Y-54664703D01*
X104222118Y-54679264D01*
X104218541Y-54693543D01*
X104213582Y-54707403D01*
X104207288Y-54720710D01*
X104199720Y-54733336D01*
X104190952Y-54745159D01*
X104181066Y-54756066D01*
X104170159Y-54765952D01*
X104158336Y-54774720D01*
X104145710Y-54782288D01*
X104132403Y-54788582D01*
X104118543Y-54793541D01*
X104104264Y-54797118D01*
X104089703Y-54799278D01*
X104075000Y-54800000D01*
X103775000Y-54800000D01*
X103760297Y-54799278D01*
X103745736Y-54797118D01*
X103731457Y-54793541D01*
X103717597Y-54788582D01*
X103704290Y-54782288D01*
X103691664Y-54774720D01*
X103679841Y-54765952D01*
X103668934Y-54756066D01*
X103659048Y-54745159D01*
X103650280Y-54733336D01*
X103642712Y-54720710D01*
X103636418Y-54707403D01*
X103631459Y-54693543D01*
X103627882Y-54679264D01*
X103625722Y-54664703D01*
X103625000Y-54650000D01*
X103625000Y-53000000D01*
X103625722Y-52985297D01*
X103627882Y-52970736D01*
X103631459Y-52956457D01*
X103636418Y-52942597D01*
X103642712Y-52929290D01*
X103650280Y-52916664D01*
X103659048Y-52904841D01*
X103668934Y-52893934D01*
X103679841Y-52884048D01*
X103691664Y-52875280D01*
X103704290Y-52867712D01*
X103717597Y-52861418D01*
X103731457Y-52856459D01*
X103745736Y-52852882D01*
X103760297Y-52850722D01*
X103775000Y-52850000D01*
X104075000Y-52850000D01*
X104089703Y-52850722D01*
G37*
G36*
X105359703Y-52850722D02*
G01*
X105374264Y-52852882D01*
X105388543Y-52856459D01*
X105402403Y-52861418D01*
X105415710Y-52867712D01*
X105428336Y-52875280D01*
X105440159Y-52884048D01*
X105451066Y-52893934D01*
X105460952Y-52904841D01*
X105469720Y-52916664D01*
X105477288Y-52929290D01*
X105483582Y-52942597D01*
X105488541Y-52956457D01*
X105492118Y-52970736D01*
X105494278Y-52985297D01*
X105495000Y-53000000D01*
X105495000Y-54650000D01*
X105494278Y-54664703D01*
X105492118Y-54679264D01*
X105488541Y-54693543D01*
X105483582Y-54707403D01*
X105477288Y-54720710D01*
X105469720Y-54733336D01*
X105460952Y-54745159D01*
X105451066Y-54756066D01*
X105440159Y-54765952D01*
X105428336Y-54774720D01*
X105415710Y-54782288D01*
X105402403Y-54788582D01*
X105388543Y-54793541D01*
X105374264Y-54797118D01*
X105359703Y-54799278D01*
X105345000Y-54800000D01*
X105045000Y-54800000D01*
X105030297Y-54799278D01*
X105015736Y-54797118D01*
X105001457Y-54793541D01*
X104987597Y-54788582D01*
X104974290Y-54782288D01*
X104961664Y-54774720D01*
X104949841Y-54765952D01*
X104938934Y-54756066D01*
X104929048Y-54745159D01*
X104920280Y-54733336D01*
X104912712Y-54720710D01*
X104906418Y-54707403D01*
X104901459Y-54693543D01*
X104897882Y-54679264D01*
X104895722Y-54664703D01*
X104895000Y-54650000D01*
X104895000Y-53000000D01*
X104895722Y-52985297D01*
X104897882Y-52970736D01*
X104901459Y-52956457D01*
X104906418Y-52942597D01*
X104912712Y-52929290D01*
X104920280Y-52916664D01*
X104929048Y-52904841D01*
X104938934Y-52893934D01*
X104949841Y-52884048D01*
X104961664Y-52875280D01*
X104974290Y-52867712D01*
X104987597Y-52861418D01*
X105001457Y-52856459D01*
X105015736Y-52852882D01*
X105030297Y-52850722D01*
X105045000Y-52850000D01*
X105345000Y-52850000D01*
X105359703Y-52850722D01*
G37*
G36*
X106629703Y-52850722D02*
G01*
X106644264Y-52852882D01*
X106658543Y-52856459D01*
X106672403Y-52861418D01*
X106685710Y-52867712D01*
X106698336Y-52875280D01*
X106710159Y-52884048D01*
X106721066Y-52893934D01*
X106730952Y-52904841D01*
X106739720Y-52916664D01*
X106747288Y-52929290D01*
X106753582Y-52942597D01*
X106758541Y-52956457D01*
X106762118Y-52970736D01*
X106764278Y-52985297D01*
X106765000Y-53000000D01*
X106765000Y-54650000D01*
X106764278Y-54664703D01*
X106762118Y-54679264D01*
X106758541Y-54693543D01*
X106753582Y-54707403D01*
X106747288Y-54720710D01*
X106739720Y-54733336D01*
X106730952Y-54745159D01*
X106721066Y-54756066D01*
X106710159Y-54765952D01*
X106698336Y-54774720D01*
X106685710Y-54782288D01*
X106672403Y-54788582D01*
X106658543Y-54793541D01*
X106644264Y-54797118D01*
X106629703Y-54799278D01*
X106615000Y-54800000D01*
X106315000Y-54800000D01*
X106300297Y-54799278D01*
X106285736Y-54797118D01*
X106271457Y-54793541D01*
X106257597Y-54788582D01*
X106244290Y-54782288D01*
X106231664Y-54774720D01*
X106219841Y-54765952D01*
X106208934Y-54756066D01*
X106199048Y-54745159D01*
X106190280Y-54733336D01*
X106182712Y-54720710D01*
X106176418Y-54707403D01*
X106171459Y-54693543D01*
X106167882Y-54679264D01*
X106165722Y-54664703D01*
X106165000Y-54650000D01*
X106165000Y-53000000D01*
X106165722Y-52985297D01*
X106167882Y-52970736D01*
X106171459Y-52956457D01*
X106176418Y-52942597D01*
X106182712Y-52929290D01*
X106190280Y-52916664D01*
X106199048Y-52904841D01*
X106208934Y-52893934D01*
X106219841Y-52884048D01*
X106231664Y-52875280D01*
X106244290Y-52867712D01*
X106257597Y-52861418D01*
X106271457Y-52856459D01*
X106285736Y-52852882D01*
X106300297Y-52850722D01*
X106315000Y-52850000D01*
X106615000Y-52850000D01*
X106629703Y-52850722D01*
G37*
G36*
X107899703Y-52850722D02*
G01*
X107914264Y-52852882D01*
X107928543Y-52856459D01*
X107942403Y-52861418D01*
X107955710Y-52867712D01*
X107968336Y-52875280D01*
X107980159Y-52884048D01*
X107991066Y-52893934D01*
X108000952Y-52904841D01*
X108009720Y-52916664D01*
X108017288Y-52929290D01*
X108023582Y-52942597D01*
X108028541Y-52956457D01*
X108032118Y-52970736D01*
X108034278Y-52985297D01*
X108035000Y-53000000D01*
X108035000Y-54650000D01*
X108034278Y-54664703D01*
X108032118Y-54679264D01*
X108028541Y-54693543D01*
X108023582Y-54707403D01*
X108017288Y-54720710D01*
X108009720Y-54733336D01*
X108000952Y-54745159D01*
X107991066Y-54756066D01*
X107980159Y-54765952D01*
X107968336Y-54774720D01*
X107955710Y-54782288D01*
X107942403Y-54788582D01*
X107928543Y-54793541D01*
X107914264Y-54797118D01*
X107899703Y-54799278D01*
X107885000Y-54800000D01*
X107585000Y-54800000D01*
X107570297Y-54799278D01*
X107555736Y-54797118D01*
X107541457Y-54793541D01*
X107527597Y-54788582D01*
X107514290Y-54782288D01*
X107501664Y-54774720D01*
X107489841Y-54765952D01*
X107478934Y-54756066D01*
X107469048Y-54745159D01*
X107460280Y-54733336D01*
X107452712Y-54720710D01*
X107446418Y-54707403D01*
X107441459Y-54693543D01*
X107437882Y-54679264D01*
X107435722Y-54664703D01*
X107435000Y-54650000D01*
X107435000Y-53000000D01*
X107435722Y-52985297D01*
X107437882Y-52970736D01*
X107441459Y-52956457D01*
X107446418Y-52942597D01*
X107452712Y-52929290D01*
X107460280Y-52916664D01*
X107469048Y-52904841D01*
X107478934Y-52893934D01*
X107489841Y-52884048D01*
X107501664Y-52875280D01*
X107514290Y-52867712D01*
X107527597Y-52861418D01*
X107541457Y-52856459D01*
X107555736Y-52852882D01*
X107570297Y-52850722D01*
X107585000Y-52850000D01*
X107885000Y-52850000D01*
X107899703Y-52850722D01*
G37*
G36*
X109169703Y-52850722D02*
G01*
X109184264Y-52852882D01*
X109198543Y-52856459D01*
X109212403Y-52861418D01*
X109225710Y-52867712D01*
X109238336Y-52875280D01*
X109250159Y-52884048D01*
X109261066Y-52893934D01*
X109270952Y-52904841D01*
X109279720Y-52916664D01*
X109287288Y-52929290D01*
X109293582Y-52942597D01*
X109298541Y-52956457D01*
X109302118Y-52970736D01*
X109304278Y-52985297D01*
X109305000Y-53000000D01*
X109305000Y-54650000D01*
X109304278Y-54664703D01*
X109302118Y-54679264D01*
X109298541Y-54693543D01*
X109293582Y-54707403D01*
X109287288Y-54720710D01*
X109279720Y-54733336D01*
X109270952Y-54745159D01*
X109261066Y-54756066D01*
X109250159Y-54765952D01*
X109238336Y-54774720D01*
X109225710Y-54782288D01*
X109212403Y-54788582D01*
X109198543Y-54793541D01*
X109184264Y-54797118D01*
X109169703Y-54799278D01*
X109155000Y-54800000D01*
X108855000Y-54800000D01*
X108840297Y-54799278D01*
X108825736Y-54797118D01*
X108811457Y-54793541D01*
X108797597Y-54788582D01*
X108784290Y-54782288D01*
X108771664Y-54774720D01*
X108759841Y-54765952D01*
X108748934Y-54756066D01*
X108739048Y-54745159D01*
X108730280Y-54733336D01*
X108722712Y-54720710D01*
X108716418Y-54707403D01*
X108711459Y-54693543D01*
X108707882Y-54679264D01*
X108705722Y-54664703D01*
X108705000Y-54650000D01*
X108705000Y-53000000D01*
X108705722Y-52985297D01*
X108707882Y-52970736D01*
X108711459Y-52956457D01*
X108716418Y-52942597D01*
X108722712Y-52929290D01*
X108730280Y-52916664D01*
X108739048Y-52904841D01*
X108748934Y-52893934D01*
X108759841Y-52884048D01*
X108771664Y-52875280D01*
X108784290Y-52867712D01*
X108797597Y-52861418D01*
X108811457Y-52856459D01*
X108825736Y-52852882D01*
X108840297Y-52850722D01*
X108855000Y-52850000D01*
X109155000Y-52850000D01*
X109169703Y-52850722D01*
G37*
G36*
X110439703Y-52850722D02*
G01*
X110454264Y-52852882D01*
X110468543Y-52856459D01*
X110482403Y-52861418D01*
X110495710Y-52867712D01*
X110508336Y-52875280D01*
X110520159Y-52884048D01*
X110531066Y-52893934D01*
X110540952Y-52904841D01*
X110549720Y-52916664D01*
X110557288Y-52929290D01*
X110563582Y-52942597D01*
X110568541Y-52956457D01*
X110572118Y-52970736D01*
X110574278Y-52985297D01*
X110575000Y-53000000D01*
X110575000Y-54650000D01*
X110574278Y-54664703D01*
X110572118Y-54679264D01*
X110568541Y-54693543D01*
X110563582Y-54707403D01*
X110557288Y-54720710D01*
X110549720Y-54733336D01*
X110540952Y-54745159D01*
X110531066Y-54756066D01*
X110520159Y-54765952D01*
X110508336Y-54774720D01*
X110495710Y-54782288D01*
X110482403Y-54788582D01*
X110468543Y-54793541D01*
X110454264Y-54797118D01*
X110439703Y-54799278D01*
X110425000Y-54800000D01*
X110125000Y-54800000D01*
X110110297Y-54799278D01*
X110095736Y-54797118D01*
X110081457Y-54793541D01*
X110067597Y-54788582D01*
X110054290Y-54782288D01*
X110041664Y-54774720D01*
X110029841Y-54765952D01*
X110018934Y-54756066D01*
X110009048Y-54745159D01*
X110000280Y-54733336D01*
X109992712Y-54720710D01*
X109986418Y-54707403D01*
X109981459Y-54693543D01*
X109977882Y-54679264D01*
X109975722Y-54664703D01*
X109975000Y-54650000D01*
X109975000Y-53000000D01*
X109975722Y-52985297D01*
X109977882Y-52970736D01*
X109981459Y-52956457D01*
X109986418Y-52942597D01*
X109992712Y-52929290D01*
X110000280Y-52916664D01*
X110009048Y-52904841D01*
X110018934Y-52893934D01*
X110029841Y-52884048D01*
X110041664Y-52875280D01*
X110054290Y-52867712D01*
X110067597Y-52861418D01*
X110081457Y-52856459D01*
X110095736Y-52852882D01*
X110110297Y-52850722D01*
X110125000Y-52850000D01*
X110425000Y-52850000D01*
X110439703Y-52850722D01*
G37*
G36*
X111709703Y-52850722D02*
G01*
X111724264Y-52852882D01*
X111738543Y-52856459D01*
X111752403Y-52861418D01*
X111765710Y-52867712D01*
X111778336Y-52875280D01*
X111790159Y-52884048D01*
X111801066Y-52893934D01*
X111810952Y-52904841D01*
X111819720Y-52916664D01*
X111827288Y-52929290D01*
X111833582Y-52942597D01*
X111838541Y-52956457D01*
X111842118Y-52970736D01*
X111844278Y-52985297D01*
X111845000Y-53000000D01*
X111845000Y-54650000D01*
X111844278Y-54664703D01*
X111842118Y-54679264D01*
X111838541Y-54693543D01*
X111833582Y-54707403D01*
X111827288Y-54720710D01*
X111819720Y-54733336D01*
X111810952Y-54745159D01*
X111801066Y-54756066D01*
X111790159Y-54765952D01*
X111778336Y-54774720D01*
X111765710Y-54782288D01*
X111752403Y-54788582D01*
X111738543Y-54793541D01*
X111724264Y-54797118D01*
X111709703Y-54799278D01*
X111695000Y-54800000D01*
X111395000Y-54800000D01*
X111380297Y-54799278D01*
X111365736Y-54797118D01*
X111351457Y-54793541D01*
X111337597Y-54788582D01*
X111324290Y-54782288D01*
X111311664Y-54774720D01*
X111299841Y-54765952D01*
X111288934Y-54756066D01*
X111279048Y-54745159D01*
X111270280Y-54733336D01*
X111262712Y-54720710D01*
X111256418Y-54707403D01*
X111251459Y-54693543D01*
X111247882Y-54679264D01*
X111245722Y-54664703D01*
X111245000Y-54650000D01*
X111245000Y-53000000D01*
X111245722Y-52985297D01*
X111247882Y-52970736D01*
X111251459Y-52956457D01*
X111256418Y-52942597D01*
X111262712Y-52929290D01*
X111270280Y-52916664D01*
X111279048Y-52904841D01*
X111288934Y-52893934D01*
X111299841Y-52884048D01*
X111311664Y-52875280D01*
X111324290Y-52867712D01*
X111337597Y-52861418D01*
X111351457Y-52856459D01*
X111365736Y-52852882D01*
X111380297Y-52850722D01*
X111395000Y-52850000D01*
X111695000Y-52850000D01*
X111709703Y-52850722D01*
G37*
D14*
X135950000Y-41500000D03*
X135950000Y-46100000D03*
X135950000Y-43800000D03*
D15*
X142250000Y-43800000D03*
D16*
X137700000Y-53500000D03*
X135700000Y-54450000D03*
X135700000Y-52550000D03*
D11*
G36*
X134180142Y-52876174D02*
G01*
X134203803Y-52879684D01*
X134227007Y-52885496D01*
X134249529Y-52893554D01*
X134271153Y-52903782D01*
X134291670Y-52916079D01*
X134310883Y-52930329D01*
X134328607Y-52946393D01*
X134344671Y-52964117D01*
X134358921Y-52983330D01*
X134371218Y-53003847D01*
X134381446Y-53025471D01*
X134389504Y-53047993D01*
X134395316Y-53071197D01*
X134398826Y-53094858D01*
X134400000Y-53118750D01*
X134400000Y-53606250D01*
X134398826Y-53630142D01*
X134395316Y-53653803D01*
X134389504Y-53677007D01*
X134381446Y-53699529D01*
X134371218Y-53721153D01*
X134358921Y-53741670D01*
X134344671Y-53760883D01*
X134328607Y-53778607D01*
X134310883Y-53794671D01*
X134291670Y-53808921D01*
X134271153Y-53821218D01*
X134249529Y-53831446D01*
X134227007Y-53839504D01*
X134203803Y-53845316D01*
X134180142Y-53848826D01*
X134156250Y-53850000D01*
X133243750Y-53850000D01*
X133219858Y-53848826D01*
X133196197Y-53845316D01*
X133172993Y-53839504D01*
X133150471Y-53831446D01*
X133128847Y-53821218D01*
X133108330Y-53808921D01*
X133089117Y-53794671D01*
X133071393Y-53778607D01*
X133055329Y-53760883D01*
X133041079Y-53741670D01*
X133028782Y-53721153D01*
X133018554Y-53699529D01*
X133010496Y-53677007D01*
X133004684Y-53653803D01*
X133001174Y-53630142D01*
X133000000Y-53606250D01*
X133000000Y-53118750D01*
X133001174Y-53094858D01*
X133004684Y-53071197D01*
X133010496Y-53047993D01*
X133018554Y-53025471D01*
X133028782Y-53003847D01*
X133041079Y-52983330D01*
X133055329Y-52964117D01*
X133071393Y-52946393D01*
X133089117Y-52930329D01*
X133108330Y-52916079D01*
X133128847Y-52903782D01*
X133150471Y-52893554D01*
X133172993Y-52885496D01*
X133196197Y-52879684D01*
X133219858Y-52876174D01*
X133243750Y-52875000D01*
X134156250Y-52875000D01*
X134180142Y-52876174D01*
G37*
G36*
X134180142Y-54751174D02*
G01*
X134203803Y-54754684D01*
X134227007Y-54760496D01*
X134249529Y-54768554D01*
X134271153Y-54778782D01*
X134291670Y-54791079D01*
X134310883Y-54805329D01*
X134328607Y-54821393D01*
X134344671Y-54839117D01*
X134358921Y-54858330D01*
X134371218Y-54878847D01*
X134381446Y-54900471D01*
X134389504Y-54922993D01*
X134395316Y-54946197D01*
X134398826Y-54969858D01*
X134400000Y-54993750D01*
X134400000Y-55481250D01*
X134398826Y-55505142D01*
X134395316Y-55528803D01*
X134389504Y-55552007D01*
X134381446Y-55574529D01*
X134371218Y-55596153D01*
X134358921Y-55616670D01*
X134344671Y-55635883D01*
X134328607Y-55653607D01*
X134310883Y-55669671D01*
X134291670Y-55683921D01*
X134271153Y-55696218D01*
X134249529Y-55706446D01*
X134227007Y-55714504D01*
X134203803Y-55720316D01*
X134180142Y-55723826D01*
X134156250Y-55725000D01*
X133243750Y-55725000D01*
X133219858Y-55723826D01*
X133196197Y-55720316D01*
X133172993Y-55714504D01*
X133150471Y-55706446D01*
X133128847Y-55696218D01*
X133108330Y-55683921D01*
X133089117Y-55669671D01*
X133071393Y-55653607D01*
X133055329Y-55635883D01*
X133041079Y-55616670D01*
X133028782Y-55596153D01*
X133018554Y-55574529D01*
X133010496Y-55552007D01*
X133004684Y-55528803D01*
X133001174Y-55505142D01*
X133000000Y-55481250D01*
X133000000Y-54993750D01*
X133001174Y-54969858D01*
X133004684Y-54946197D01*
X133010496Y-54922993D01*
X133018554Y-54900471D01*
X133028782Y-54878847D01*
X133041079Y-54858330D01*
X133055329Y-54839117D01*
X133071393Y-54821393D01*
X133089117Y-54805329D01*
X133108330Y-54791079D01*
X133128847Y-54778782D01*
X133150471Y-54768554D01*
X133172993Y-54760496D01*
X133196197Y-54754684D01*
X133219858Y-54751174D01*
X133243750Y-54750000D01*
X134156250Y-54750000D01*
X134180142Y-54751174D01*
G37*
G36*
X132080142Y-52876174D02*
G01*
X132103803Y-52879684D01*
X132127007Y-52885496D01*
X132149529Y-52893554D01*
X132171153Y-52903782D01*
X132191670Y-52916079D01*
X132210883Y-52930329D01*
X132228607Y-52946393D01*
X132244671Y-52964117D01*
X132258921Y-52983330D01*
X132271218Y-53003847D01*
X132281446Y-53025471D01*
X132289504Y-53047993D01*
X132295316Y-53071197D01*
X132298826Y-53094858D01*
X132300000Y-53118750D01*
X132300000Y-53606250D01*
X132298826Y-53630142D01*
X132295316Y-53653803D01*
X132289504Y-53677007D01*
X132281446Y-53699529D01*
X132271218Y-53721153D01*
X132258921Y-53741670D01*
X132244671Y-53760883D01*
X132228607Y-53778607D01*
X132210883Y-53794671D01*
X132191670Y-53808921D01*
X132171153Y-53821218D01*
X132149529Y-53831446D01*
X132127007Y-53839504D01*
X132103803Y-53845316D01*
X132080142Y-53848826D01*
X132056250Y-53850000D01*
X131143750Y-53850000D01*
X131119858Y-53848826D01*
X131096197Y-53845316D01*
X131072993Y-53839504D01*
X131050471Y-53831446D01*
X131028847Y-53821218D01*
X131008330Y-53808921D01*
X130989117Y-53794671D01*
X130971393Y-53778607D01*
X130955329Y-53760883D01*
X130941079Y-53741670D01*
X130928782Y-53721153D01*
X130918554Y-53699529D01*
X130910496Y-53677007D01*
X130904684Y-53653803D01*
X130901174Y-53630142D01*
X130900000Y-53606250D01*
X130900000Y-53118750D01*
X130901174Y-53094858D01*
X130904684Y-53071197D01*
X130910496Y-53047993D01*
X130918554Y-53025471D01*
X130928782Y-53003847D01*
X130941079Y-52983330D01*
X130955329Y-52964117D01*
X130971393Y-52946393D01*
X130989117Y-52930329D01*
X131008330Y-52916079D01*
X131028847Y-52903782D01*
X131050471Y-52893554D01*
X131072993Y-52885496D01*
X131096197Y-52879684D01*
X131119858Y-52876174D01*
X131143750Y-52875000D01*
X132056250Y-52875000D01*
X132080142Y-52876174D01*
G37*
G36*
X132080142Y-54751174D02*
G01*
X132103803Y-54754684D01*
X132127007Y-54760496D01*
X132149529Y-54768554D01*
X132171153Y-54778782D01*
X132191670Y-54791079D01*
X132210883Y-54805329D01*
X132228607Y-54821393D01*
X132244671Y-54839117D01*
X132258921Y-54858330D01*
X132271218Y-54878847D01*
X132281446Y-54900471D01*
X132289504Y-54922993D01*
X132295316Y-54946197D01*
X132298826Y-54969858D01*
X132300000Y-54993750D01*
X132300000Y-55481250D01*
X132298826Y-55505142D01*
X132295316Y-55528803D01*
X132289504Y-55552007D01*
X132281446Y-55574529D01*
X132271218Y-55596153D01*
X132258921Y-55616670D01*
X132244671Y-55635883D01*
X132228607Y-55653607D01*
X132210883Y-55669671D01*
X132191670Y-55683921D01*
X132171153Y-55696218D01*
X132149529Y-55706446D01*
X132127007Y-55714504D01*
X132103803Y-55720316D01*
X132080142Y-55723826D01*
X132056250Y-55725000D01*
X131143750Y-55725000D01*
X131119858Y-55723826D01*
X131096197Y-55720316D01*
X131072993Y-55714504D01*
X131050471Y-55706446D01*
X131028847Y-55696218D01*
X131008330Y-55683921D01*
X130989117Y-55669671D01*
X130971393Y-55653607D01*
X130955329Y-55635883D01*
X130941079Y-55616670D01*
X130928782Y-55596153D01*
X130918554Y-55574529D01*
X130910496Y-55552007D01*
X130904684Y-55528803D01*
X130901174Y-55505142D01*
X130900000Y-55481250D01*
X130900000Y-54993750D01*
X130901174Y-54969858D01*
X130904684Y-54946197D01*
X130910496Y-54922993D01*
X130918554Y-54900471D01*
X130928782Y-54878847D01*
X130941079Y-54858330D01*
X130955329Y-54839117D01*
X130971393Y-54821393D01*
X130989117Y-54805329D01*
X131008330Y-54791079D01*
X131028847Y-54778782D01*
X131050471Y-54768554D01*
X131072993Y-54760496D01*
X131096197Y-54754684D01*
X131119858Y-54751174D01*
X131143750Y-54750000D01*
X132056250Y-54750000D01*
X132080142Y-54751174D01*
G37*
G36*
X145780142Y-40276174D02*
G01*
X145803803Y-40279684D01*
X145827007Y-40285496D01*
X145849529Y-40293554D01*
X145871153Y-40303782D01*
X145891670Y-40316079D01*
X145910883Y-40330329D01*
X145928607Y-40346393D01*
X145944671Y-40364117D01*
X145958921Y-40383330D01*
X145971218Y-40403847D01*
X145981446Y-40425471D01*
X145989504Y-40447993D01*
X145995316Y-40471197D01*
X145998826Y-40494858D01*
X146000000Y-40518750D01*
X146000000Y-41006250D01*
X145998826Y-41030142D01*
X145995316Y-41053803D01*
X145989504Y-41077007D01*
X145981446Y-41099529D01*
X145971218Y-41121153D01*
X145958921Y-41141670D01*
X145944671Y-41160883D01*
X145928607Y-41178607D01*
X145910883Y-41194671D01*
X145891670Y-41208921D01*
X145871153Y-41221218D01*
X145849529Y-41231446D01*
X145827007Y-41239504D01*
X145803803Y-41245316D01*
X145780142Y-41248826D01*
X145756250Y-41250000D01*
X144843750Y-41250000D01*
X144819858Y-41248826D01*
X144796197Y-41245316D01*
X144772993Y-41239504D01*
X144750471Y-41231446D01*
X144728847Y-41221218D01*
X144708330Y-41208921D01*
X144689117Y-41194671D01*
X144671393Y-41178607D01*
X144655329Y-41160883D01*
X144641079Y-41141670D01*
X144628782Y-41121153D01*
X144618554Y-41099529D01*
X144610496Y-41077007D01*
X144604684Y-41053803D01*
X144601174Y-41030142D01*
X144600000Y-41006250D01*
X144600000Y-40518750D01*
X144601174Y-40494858D01*
X144604684Y-40471197D01*
X144610496Y-40447993D01*
X144618554Y-40425471D01*
X144628782Y-40403847D01*
X144641079Y-40383330D01*
X144655329Y-40364117D01*
X144671393Y-40346393D01*
X144689117Y-40330329D01*
X144708330Y-40316079D01*
X144728847Y-40303782D01*
X144750471Y-40293554D01*
X144772993Y-40285496D01*
X144796197Y-40279684D01*
X144819858Y-40276174D01*
X144843750Y-40275000D01*
X145756250Y-40275000D01*
X145780142Y-40276174D01*
G37*
G36*
X145780142Y-42151174D02*
G01*
X145803803Y-42154684D01*
X145827007Y-42160496D01*
X145849529Y-42168554D01*
X145871153Y-42178782D01*
X145891670Y-42191079D01*
X145910883Y-42205329D01*
X145928607Y-42221393D01*
X145944671Y-42239117D01*
X145958921Y-42258330D01*
X145971218Y-42278847D01*
X145981446Y-42300471D01*
X145989504Y-42322993D01*
X145995316Y-42346197D01*
X145998826Y-42369858D01*
X146000000Y-42393750D01*
X146000000Y-42881250D01*
X145998826Y-42905142D01*
X145995316Y-42928803D01*
X145989504Y-42952007D01*
X145981446Y-42974529D01*
X145971218Y-42996153D01*
X145958921Y-43016670D01*
X145944671Y-43035883D01*
X145928607Y-43053607D01*
X145910883Y-43069671D01*
X145891670Y-43083921D01*
X145871153Y-43096218D01*
X145849529Y-43106446D01*
X145827007Y-43114504D01*
X145803803Y-43120316D01*
X145780142Y-43123826D01*
X145756250Y-43125000D01*
X144843750Y-43125000D01*
X144819858Y-43123826D01*
X144796197Y-43120316D01*
X144772993Y-43114504D01*
X144750471Y-43106446D01*
X144728847Y-43096218D01*
X144708330Y-43083921D01*
X144689117Y-43069671D01*
X144671393Y-43053607D01*
X144655329Y-43035883D01*
X144641079Y-43016670D01*
X144628782Y-42996153D01*
X144618554Y-42974529D01*
X144610496Y-42952007D01*
X144604684Y-42928803D01*
X144601174Y-42905142D01*
X144600000Y-42881250D01*
X144600000Y-42393750D01*
X144601174Y-42369858D01*
X144604684Y-42346197D01*
X144610496Y-42322993D01*
X144618554Y-42300471D01*
X144628782Y-42278847D01*
X144641079Y-42258330D01*
X144655329Y-42239117D01*
X144671393Y-42221393D01*
X144689117Y-42205329D01*
X144708330Y-42191079D01*
X144728847Y-42178782D01*
X144750471Y-42168554D01*
X144772993Y-42160496D01*
X144796197Y-42154684D01*
X144819858Y-42151174D01*
X144843750Y-42150000D01*
X145756250Y-42150000D01*
X145780142Y-42151174D01*
G37*
G36*
X133980142Y-42976174D02*
G01*
X134003803Y-42979684D01*
X134027007Y-42985496D01*
X134049529Y-42993554D01*
X134071153Y-43003782D01*
X134091670Y-43016079D01*
X134110883Y-43030329D01*
X134128607Y-43046393D01*
X134144671Y-43064117D01*
X134158921Y-43083330D01*
X134171218Y-43103847D01*
X134181446Y-43125471D01*
X134189504Y-43147993D01*
X134195316Y-43171197D01*
X134198826Y-43194858D01*
X134200000Y-43218750D01*
X134200000Y-43706250D01*
X134198826Y-43730142D01*
X134195316Y-43753803D01*
X134189504Y-43777007D01*
X134181446Y-43799529D01*
X134171218Y-43821153D01*
X134158921Y-43841670D01*
X134144671Y-43860883D01*
X134128607Y-43878607D01*
X134110883Y-43894671D01*
X134091670Y-43908921D01*
X134071153Y-43921218D01*
X134049529Y-43931446D01*
X134027007Y-43939504D01*
X134003803Y-43945316D01*
X133980142Y-43948826D01*
X133956250Y-43950000D01*
X133043750Y-43950000D01*
X133019858Y-43948826D01*
X132996197Y-43945316D01*
X132972993Y-43939504D01*
X132950471Y-43931446D01*
X132928847Y-43921218D01*
X132908330Y-43908921D01*
X132889117Y-43894671D01*
X132871393Y-43878607D01*
X132855329Y-43860883D01*
X132841079Y-43841670D01*
X132828782Y-43821153D01*
X132818554Y-43799529D01*
X132810496Y-43777007D01*
X132804684Y-43753803D01*
X132801174Y-43730142D01*
X132800000Y-43706250D01*
X132800000Y-43218750D01*
X132801174Y-43194858D01*
X132804684Y-43171197D01*
X132810496Y-43147993D01*
X132818554Y-43125471D01*
X132828782Y-43103847D01*
X132841079Y-43083330D01*
X132855329Y-43064117D01*
X132871393Y-43046393D01*
X132889117Y-43030329D01*
X132908330Y-43016079D01*
X132928847Y-43003782D01*
X132950471Y-42993554D01*
X132972993Y-42985496D01*
X132996197Y-42979684D01*
X133019858Y-42976174D01*
X133043750Y-42975000D01*
X133956250Y-42975000D01*
X133980142Y-42976174D01*
G37*
G36*
X133980142Y-44851174D02*
G01*
X134003803Y-44854684D01*
X134027007Y-44860496D01*
X134049529Y-44868554D01*
X134071153Y-44878782D01*
X134091670Y-44891079D01*
X134110883Y-44905329D01*
X134128607Y-44921393D01*
X134144671Y-44939117D01*
X134158921Y-44958330D01*
X134171218Y-44978847D01*
X134181446Y-45000471D01*
X134189504Y-45022993D01*
X134195316Y-45046197D01*
X134198826Y-45069858D01*
X134200000Y-45093750D01*
X134200000Y-45581250D01*
X134198826Y-45605142D01*
X134195316Y-45628803D01*
X134189504Y-45652007D01*
X134181446Y-45674529D01*
X134171218Y-45696153D01*
X134158921Y-45716670D01*
X134144671Y-45735883D01*
X134128607Y-45753607D01*
X134110883Y-45769671D01*
X134091670Y-45783921D01*
X134071153Y-45796218D01*
X134049529Y-45806446D01*
X134027007Y-45814504D01*
X134003803Y-45820316D01*
X133980142Y-45823826D01*
X133956250Y-45825000D01*
X133043750Y-45825000D01*
X133019858Y-45823826D01*
X132996197Y-45820316D01*
X132972993Y-45814504D01*
X132950471Y-45806446D01*
X132928847Y-45796218D01*
X132908330Y-45783921D01*
X132889117Y-45769671D01*
X132871393Y-45753607D01*
X132855329Y-45735883D01*
X132841079Y-45716670D01*
X132828782Y-45696153D01*
X132818554Y-45674529D01*
X132810496Y-45652007D01*
X132804684Y-45628803D01*
X132801174Y-45605142D01*
X132800000Y-45581250D01*
X132800000Y-45093750D01*
X132801174Y-45069858D01*
X132804684Y-45046197D01*
X132810496Y-45022993D01*
X132818554Y-45000471D01*
X132828782Y-44978847D01*
X132841079Y-44958330D01*
X132855329Y-44939117D01*
X132871393Y-44921393D01*
X132889117Y-44905329D01*
X132908330Y-44891079D01*
X132928847Y-44878782D01*
X132950471Y-44868554D01*
X132972993Y-44860496D01*
X132996197Y-44854684D01*
X133019858Y-44851174D01*
X133043750Y-44850000D01*
X133956250Y-44850000D01*
X133980142Y-44851174D01*
G37*
D17*
X138355000Y-74700000D03*
X137085000Y-74700000D03*
X135815000Y-74700000D03*
X134545000Y-74700000D03*
X133275000Y-74700000D03*
X132005000Y-74700000D03*
X130735000Y-74700000D03*
X129465000Y-74700000D03*
X128195000Y-74700000D03*
X126925000Y-74700000D03*
X125655000Y-74700000D03*
X124385000Y-74700000D03*
X123115000Y-74700000D03*
X121845000Y-74700000D03*
D18*
X120845000Y-71915000D03*
X120845000Y-70645000D03*
X120845000Y-69375000D03*
X120845000Y-68105000D03*
X120845000Y-66835000D03*
X120845000Y-65565000D03*
X120845000Y-64295000D03*
X120845000Y-63025000D03*
X120845000Y-61755000D03*
X120845000Y-60485000D03*
D17*
X121845000Y-57700000D03*
X123115000Y-57700000D03*
X124385000Y-57700000D03*
X125655000Y-57700000D03*
X126925000Y-57700000D03*
X128195000Y-57700000D03*
X129465000Y-57700000D03*
X130735000Y-57700000D03*
X132005000Y-57700000D03*
X133275000Y-57700000D03*
X134545000Y-57700000D03*
X135815000Y-57700000D03*
X137085000Y-57700000D03*
X138355000Y-57700000D03*
D19*
X130855000Y-65200000D03*
D11*
G36*
X88805142Y-65301174D02*
G01*
X88828803Y-65304684D01*
X88852007Y-65310496D01*
X88874529Y-65318554D01*
X88896153Y-65328782D01*
X88916670Y-65341079D01*
X88935883Y-65355329D01*
X88953607Y-65371393D01*
X88969671Y-65389117D01*
X88983921Y-65408330D01*
X88996218Y-65428847D01*
X89006446Y-65450471D01*
X89014504Y-65472993D01*
X89020316Y-65496197D01*
X89023826Y-65519858D01*
X89025000Y-65543750D01*
X89025000Y-66456250D01*
X89023826Y-66480142D01*
X89020316Y-66503803D01*
X89014504Y-66527007D01*
X89006446Y-66549529D01*
X88996218Y-66571153D01*
X88983921Y-66591670D01*
X88969671Y-66610883D01*
X88953607Y-66628607D01*
X88935883Y-66644671D01*
X88916670Y-66658921D01*
X88896153Y-66671218D01*
X88874529Y-66681446D01*
X88852007Y-66689504D01*
X88828803Y-66695316D01*
X88805142Y-66698826D01*
X88781250Y-66700000D01*
X88293750Y-66700000D01*
X88269858Y-66698826D01*
X88246197Y-66695316D01*
X88222993Y-66689504D01*
X88200471Y-66681446D01*
X88178847Y-66671218D01*
X88158330Y-66658921D01*
X88139117Y-66644671D01*
X88121393Y-66628607D01*
X88105329Y-66610883D01*
X88091079Y-66591670D01*
X88078782Y-66571153D01*
X88068554Y-66549529D01*
X88060496Y-66527007D01*
X88054684Y-66503803D01*
X88051174Y-66480142D01*
X88050000Y-66456250D01*
X88050000Y-65543750D01*
X88051174Y-65519858D01*
X88054684Y-65496197D01*
X88060496Y-65472993D01*
X88068554Y-65450471D01*
X88078782Y-65428847D01*
X88091079Y-65408330D01*
X88105329Y-65389117D01*
X88121393Y-65371393D01*
X88139117Y-65355329D01*
X88158330Y-65341079D01*
X88178847Y-65328782D01*
X88200471Y-65318554D01*
X88222993Y-65310496D01*
X88246197Y-65304684D01*
X88269858Y-65301174D01*
X88293750Y-65300000D01*
X88781250Y-65300000D01*
X88805142Y-65301174D01*
G37*
G36*
X86930142Y-65301174D02*
G01*
X86953803Y-65304684D01*
X86977007Y-65310496D01*
X86999529Y-65318554D01*
X87021153Y-65328782D01*
X87041670Y-65341079D01*
X87060883Y-65355329D01*
X87078607Y-65371393D01*
X87094671Y-65389117D01*
X87108921Y-65408330D01*
X87121218Y-65428847D01*
X87131446Y-65450471D01*
X87139504Y-65472993D01*
X87145316Y-65496197D01*
X87148826Y-65519858D01*
X87150000Y-65543750D01*
X87150000Y-66456250D01*
X87148826Y-66480142D01*
X87145316Y-66503803D01*
X87139504Y-66527007D01*
X87131446Y-66549529D01*
X87121218Y-66571153D01*
X87108921Y-66591670D01*
X87094671Y-66610883D01*
X87078607Y-66628607D01*
X87060883Y-66644671D01*
X87041670Y-66658921D01*
X87021153Y-66671218D01*
X86999529Y-66681446D01*
X86977007Y-66689504D01*
X86953803Y-66695316D01*
X86930142Y-66698826D01*
X86906250Y-66700000D01*
X86418750Y-66700000D01*
X86394858Y-66698826D01*
X86371197Y-66695316D01*
X86347993Y-66689504D01*
X86325471Y-66681446D01*
X86303847Y-66671218D01*
X86283330Y-66658921D01*
X86264117Y-66644671D01*
X86246393Y-66628607D01*
X86230329Y-66610883D01*
X86216079Y-66591670D01*
X86203782Y-66571153D01*
X86193554Y-66549529D01*
X86185496Y-66527007D01*
X86179684Y-66503803D01*
X86176174Y-66480142D01*
X86175000Y-66456250D01*
X86175000Y-65543750D01*
X86176174Y-65519858D01*
X86179684Y-65496197D01*
X86185496Y-65472993D01*
X86193554Y-65450471D01*
X86203782Y-65428847D01*
X86216079Y-65408330D01*
X86230329Y-65389117D01*
X86246393Y-65371393D01*
X86264117Y-65355329D01*
X86283330Y-65341079D01*
X86303847Y-65328782D01*
X86325471Y-65318554D01*
X86347993Y-65310496D01*
X86371197Y-65304684D01*
X86394858Y-65301174D01*
X86418750Y-65300000D01*
X86906250Y-65300000D01*
X86930142Y-65301174D01*
G37*
G36*
X114180142Y-65076174D02*
G01*
X114203803Y-65079684D01*
X114227007Y-65085496D01*
X114249529Y-65093554D01*
X114271153Y-65103782D01*
X114291670Y-65116079D01*
X114310883Y-65130329D01*
X114328607Y-65146393D01*
X114344671Y-65164117D01*
X114358921Y-65183330D01*
X114371218Y-65203847D01*
X114381446Y-65225471D01*
X114389504Y-65247993D01*
X114395316Y-65271197D01*
X114398826Y-65294858D01*
X114400000Y-65318750D01*
X114400000Y-65806250D01*
X114398826Y-65830142D01*
X114395316Y-65853803D01*
X114389504Y-65877007D01*
X114381446Y-65899529D01*
X114371218Y-65921153D01*
X114358921Y-65941670D01*
X114344671Y-65960883D01*
X114328607Y-65978607D01*
X114310883Y-65994671D01*
X114291670Y-66008921D01*
X114271153Y-66021218D01*
X114249529Y-66031446D01*
X114227007Y-66039504D01*
X114203803Y-66045316D01*
X114180142Y-66048826D01*
X114156250Y-66050000D01*
X113243750Y-66050000D01*
X113219858Y-66048826D01*
X113196197Y-66045316D01*
X113172993Y-66039504D01*
X113150471Y-66031446D01*
X113128847Y-66021218D01*
X113108330Y-66008921D01*
X113089117Y-65994671D01*
X113071393Y-65978607D01*
X113055329Y-65960883D01*
X113041079Y-65941670D01*
X113028782Y-65921153D01*
X113018554Y-65899529D01*
X113010496Y-65877007D01*
X113004684Y-65853803D01*
X113001174Y-65830142D01*
X113000000Y-65806250D01*
X113000000Y-65318750D01*
X113001174Y-65294858D01*
X113004684Y-65271197D01*
X113010496Y-65247993D01*
X113018554Y-65225471D01*
X113028782Y-65203847D01*
X113041079Y-65183330D01*
X113055329Y-65164117D01*
X113071393Y-65146393D01*
X113089117Y-65130329D01*
X113108330Y-65116079D01*
X113128847Y-65103782D01*
X113150471Y-65093554D01*
X113172993Y-65085496D01*
X113196197Y-65079684D01*
X113219858Y-65076174D01*
X113243750Y-65075000D01*
X114156250Y-65075000D01*
X114180142Y-65076174D01*
G37*
G36*
X114180142Y-66951174D02*
G01*
X114203803Y-66954684D01*
X114227007Y-66960496D01*
X114249529Y-66968554D01*
X114271153Y-66978782D01*
X114291670Y-66991079D01*
X114310883Y-67005329D01*
X114328607Y-67021393D01*
X114344671Y-67039117D01*
X114358921Y-67058330D01*
X114371218Y-67078847D01*
X114381446Y-67100471D01*
X114389504Y-67122993D01*
X114395316Y-67146197D01*
X114398826Y-67169858D01*
X114400000Y-67193750D01*
X114400000Y-67681250D01*
X114398826Y-67705142D01*
X114395316Y-67728803D01*
X114389504Y-67752007D01*
X114381446Y-67774529D01*
X114371218Y-67796153D01*
X114358921Y-67816670D01*
X114344671Y-67835883D01*
X114328607Y-67853607D01*
X114310883Y-67869671D01*
X114291670Y-67883921D01*
X114271153Y-67896218D01*
X114249529Y-67906446D01*
X114227007Y-67914504D01*
X114203803Y-67920316D01*
X114180142Y-67923826D01*
X114156250Y-67925000D01*
X113243750Y-67925000D01*
X113219858Y-67923826D01*
X113196197Y-67920316D01*
X113172993Y-67914504D01*
X113150471Y-67906446D01*
X113128847Y-67896218D01*
X113108330Y-67883921D01*
X113089117Y-67869671D01*
X113071393Y-67853607D01*
X113055329Y-67835883D01*
X113041079Y-67816670D01*
X113028782Y-67796153D01*
X113018554Y-67774529D01*
X113010496Y-67752007D01*
X113004684Y-67728803D01*
X113001174Y-67705142D01*
X113000000Y-67681250D01*
X113000000Y-67193750D01*
X113001174Y-67169858D01*
X113004684Y-67146197D01*
X113010496Y-67122993D01*
X113018554Y-67100471D01*
X113028782Y-67078847D01*
X113041079Y-67058330D01*
X113055329Y-67039117D01*
X113071393Y-67021393D01*
X113089117Y-67005329D01*
X113108330Y-66991079D01*
X113128847Y-66978782D01*
X113150471Y-66968554D01*
X113172993Y-66960496D01*
X113196197Y-66954684D01*
X113219858Y-66951174D01*
X113243750Y-66950000D01*
X114156250Y-66950000D01*
X114180142Y-66951174D01*
G37*
G36*
X98980142Y-63151174D02*
G01*
X99003803Y-63154684D01*
X99027007Y-63160496D01*
X99049529Y-63168554D01*
X99071153Y-63178782D01*
X99091670Y-63191079D01*
X99110883Y-63205329D01*
X99128607Y-63221393D01*
X99144671Y-63239117D01*
X99158921Y-63258330D01*
X99171218Y-63278847D01*
X99181446Y-63300471D01*
X99189504Y-63322993D01*
X99195316Y-63346197D01*
X99198826Y-63369858D01*
X99200000Y-63393750D01*
X99200000Y-63881250D01*
X99198826Y-63905142D01*
X99195316Y-63928803D01*
X99189504Y-63952007D01*
X99181446Y-63974529D01*
X99171218Y-63996153D01*
X99158921Y-64016670D01*
X99144671Y-64035883D01*
X99128607Y-64053607D01*
X99110883Y-64069671D01*
X99091670Y-64083921D01*
X99071153Y-64096218D01*
X99049529Y-64106446D01*
X99027007Y-64114504D01*
X99003803Y-64120316D01*
X98980142Y-64123826D01*
X98956250Y-64125000D01*
X98043750Y-64125000D01*
X98019858Y-64123826D01*
X97996197Y-64120316D01*
X97972993Y-64114504D01*
X97950471Y-64106446D01*
X97928847Y-64096218D01*
X97908330Y-64083921D01*
X97889117Y-64069671D01*
X97871393Y-64053607D01*
X97855329Y-64035883D01*
X97841079Y-64016670D01*
X97828782Y-63996153D01*
X97818554Y-63974529D01*
X97810496Y-63952007D01*
X97804684Y-63928803D01*
X97801174Y-63905142D01*
X97800000Y-63881250D01*
X97800000Y-63393750D01*
X97801174Y-63369858D01*
X97804684Y-63346197D01*
X97810496Y-63322993D01*
X97818554Y-63300471D01*
X97828782Y-63278847D01*
X97841079Y-63258330D01*
X97855329Y-63239117D01*
X97871393Y-63221393D01*
X97889117Y-63205329D01*
X97908330Y-63191079D01*
X97928847Y-63178782D01*
X97950471Y-63168554D01*
X97972993Y-63160496D01*
X97996197Y-63154684D01*
X98019858Y-63151174D01*
X98043750Y-63150000D01*
X98956250Y-63150000D01*
X98980142Y-63151174D01*
G37*
G36*
X98980142Y-61276174D02*
G01*
X99003803Y-61279684D01*
X99027007Y-61285496D01*
X99049529Y-61293554D01*
X99071153Y-61303782D01*
X99091670Y-61316079D01*
X99110883Y-61330329D01*
X99128607Y-61346393D01*
X99144671Y-61364117D01*
X99158921Y-61383330D01*
X99171218Y-61403847D01*
X99181446Y-61425471D01*
X99189504Y-61447993D01*
X99195316Y-61471197D01*
X99198826Y-61494858D01*
X99200000Y-61518750D01*
X99200000Y-62006250D01*
X99198826Y-62030142D01*
X99195316Y-62053803D01*
X99189504Y-62077007D01*
X99181446Y-62099529D01*
X99171218Y-62121153D01*
X99158921Y-62141670D01*
X99144671Y-62160883D01*
X99128607Y-62178607D01*
X99110883Y-62194671D01*
X99091670Y-62208921D01*
X99071153Y-62221218D01*
X99049529Y-62231446D01*
X99027007Y-62239504D01*
X99003803Y-62245316D01*
X98980142Y-62248826D01*
X98956250Y-62250000D01*
X98043750Y-62250000D01*
X98019858Y-62248826D01*
X97996197Y-62245316D01*
X97972993Y-62239504D01*
X97950471Y-62231446D01*
X97928847Y-62221218D01*
X97908330Y-62208921D01*
X97889117Y-62194671D01*
X97871393Y-62178607D01*
X97855329Y-62160883D01*
X97841079Y-62141670D01*
X97828782Y-62121153D01*
X97818554Y-62099529D01*
X97810496Y-62077007D01*
X97804684Y-62053803D01*
X97801174Y-62030142D01*
X97800000Y-62006250D01*
X97800000Y-61518750D01*
X97801174Y-61494858D01*
X97804684Y-61471197D01*
X97810496Y-61447993D01*
X97818554Y-61425471D01*
X97828782Y-61403847D01*
X97841079Y-61383330D01*
X97855329Y-61364117D01*
X97871393Y-61346393D01*
X97889117Y-61330329D01*
X97908330Y-61316079D01*
X97928847Y-61303782D01*
X97950471Y-61293554D01*
X97972993Y-61285496D01*
X97996197Y-61279684D01*
X98019858Y-61276174D01*
X98043750Y-61275000D01*
X98956250Y-61275000D01*
X98980142Y-61276174D01*
G37*
M02*
