M48
; DRILL file {KiCad 5.1.5+dfsg1-2build2} date Sat 13 Nov 2021 08:57:05 GMT
; FORMAT={-:-/ absolute / inch / decimal}
; #@! TF.CreationDate,2021-11-13T08:57:05+00:00
; #@! TF.GenerationSoftware,Kicad,Pcbnew,5.1.5+dfsg1-2build2
; #@! TF.FileFunction,Plated,1,2,PTH
FMAT,2
INCH
T1C0.0118
T2C0.0157
T3C0.0394
%
G90
G05
T1
X3.2756Y-1.8898
X3.2844Y-2.6181
X3.2992Y-2.3189
X3.3071Y-1.4449
X3.3071Y-2.5207
X3.3228Y-1.9803
X3.3278Y-2.9803
X3.3346Y-2.501
X3.3455Y-2.9543
X3.3593Y-2.4833
X3.3632Y-2.9307
X3.3819Y-2.3701
X3.3819Y-2.5984
X3.3858Y-2.1654
X3.3885Y-3.0854
X3.4045Y-2.4656
X3.4094Y-3.1102
X3.4134Y-1.626
X3.4134Y-1.9016
X3.4321Y-2.4471
X3.4368Y-2.8268
X3.4655Y-2.6732
X3.4685Y-2.4026
X3.4761Y-2.8543
X3.4761Y-2.8819
X3.4763Y-2.4656
X3.501Y-2.6378
X3.5116Y-3.0055
X3.5305Y-2.2933
X3.531Y-2.2406
X3.5551Y-2.2244
X3.5886Y-2.2382
X3.5942Y-2.772
X3.5984Y-2.1919
X3.6004Y-2.063
X3.6181Y-1.9606
X3.6346Y-2.4152
X3.6356Y-2.6535
X3.6371Y-1.4519
X3.6548Y-1.4252
X3.6693Y-2.437
X3.6719Y-2.2376
X3.6809Y-2.7206
X3.6811Y-1.3904
X3.6945Y-2.2835
X3.7Y-1.6447
X3.7Y-1.7283
X3.7072Y-1.4094
X3.7079Y-2.711
X3.7172Y-2.2402
X3.7173Y-2.4097
X3.7178Y-1.5394
X3.7178Y-1.9252
X3.7185Y-2.3071
X3.7315Y-2.6968
X3.7365Y-1.5906
X3.7369Y-2.2152
X3.7559Y-2.2992
X3.7644Y-2.8803
X3.7774Y-2.3164
X3.7913Y-2.3701
X3.7953Y-2.6378
X3.8179Y-2.4961
X3.8188Y-2.8605
X3.8223Y-2.6432
X3.8239Y-2.0591
X3.8425Y-1.9665
X3.8465Y-2.8434
X3.8465Y-2.7976
X3.8652Y-2.8213
X3.8692Y-2.0177
X3.8733Y-2.7909
X3.8937Y-2.1693
X3.8937Y-2.2638
X3.8937Y-2.4016
X3.9134Y-1.9262
X3.9173Y-1.752
X3.9186Y-2.7872
X3.9252Y-2.4016
X3.9252Y-2.437
X3.9252Y-2.1339
X3.9412Y-2.4646
X3.9461Y-2.7872
X3.9488Y-2.0354
X3.9764Y-2.7864
X4.0118Y-1.9921
X4.0118Y-2.9261
X4.0236Y-1.9439
X4.0374Y-2.7686
X4.0551Y-2.5039
X4.0591Y-2.189
X4.0654Y-2.0291
X4.0709Y-1.9252
X4.0984Y-2.1978
X4.0984Y-2.3701
X4.1063Y-2.4616
X4.1299Y-1.4081
X4.1327Y-2.7871
X4.1339Y-2.5827
X4.1457Y-1.5433
X4.1603Y-1.4081
X4.1693Y-2.2598
X4.1732Y-2.4636
X4.1811Y-2.5591
X4.185Y-2.7008
X4.189Y-2.1772
X4.2077Y-2.6124
X4.2087Y-2.4646
X4.2087Y-2.7795
X4.2087Y-2.9665
X4.2146Y-2.1895
X4.2165Y-1.7756
X4.2165Y-1.9173
X4.2244Y-2.5591
X4.2567Y-2.5591
X4.2606Y-2.7801
X4.2707Y-2.1732
X4.274Y-2.8723
X4.2921Y-2.689
X4.2966Y-2.8037
X4.2988Y-2.8604
X4.311Y-1.6654
X4.311Y-2.8937
X4.3126Y-2.7813
X4.3148Y-2.4683
X4.3346Y-2.4213
X4.3423Y-2.4667
X4.3436Y-2.8937
X4.3622Y-2.5827
X4.3622Y-2.6969
X4.3937Y-1.3904
X4.4055Y-2.5551
X4.4685Y-1.7283
X4.4724Y-2.2913
X4.5354Y-2.939
X4.5453Y-2.0069
X4.5945Y-1.6654
X4.6142Y-2.811
X4.7126Y-1.5472
X4.7126Y-2.9646
X4.9055Y-1.7402
X4.9449Y-1.8622
X4.9449Y-1.9606
X5.252Y-1.811
X5.252Y-1.9685
X5.3705Y-2.1378
X5.3819Y-1.8858
T2
X3.2756Y-1.5354
X3.2874Y-1.6565
X3.3228Y-1.5433
X3.3549Y-3.7256
X3.4153Y-4.3819
X3.4213Y-1.5433
X3.4508Y-4.4803
X3.4646Y-1.3785
X3.4685Y-4.5787
X3.4862Y-4.622
X3.5039Y-4.6795
X3.5217Y-4.7296
X3.5394Y-4.7795
X3.5571Y-4.8346
X3.5732Y-4.8948
X3.5925Y-4.9291
X3.6102Y-4.9803
X3.7323Y-4.3307
X3.7362Y-3.3031
X4.3858Y-2.9606
X4.3884Y-2.7856
X4.4724Y-2.7441
X4.4803Y-2.6811
X4.4921Y-1.3785
X5.2165Y-1.7244
X5.3012Y-1.3608
X5.329Y-2.7547
X5.3386Y-1.3307
X5.3386Y-2.7165
X5.3976Y-2.1575
X5.4173Y-1.752
T3
X3.685Y-4.2803
X3.685Y-4.3803
X3.685Y-4.4803
X3.685Y-4.5803
X3.685Y-4.6803
X3.685Y-4.7803
X3.685Y-4.8803
X3.685Y-4.9803
X3.785Y-4.2803
X3.785Y-4.3803
X3.785Y-4.4803
X3.785Y-4.5803
X3.785Y-4.6803
X3.785Y-4.7803
X3.785Y-4.8803
X3.785Y-4.9803
X3.687Y-3.2331
X3.687Y-3.3331
X3.687Y-3.4331
X3.687Y-3.5331
X3.687Y-3.6331
X3.687Y-3.7331
X3.687Y-3.8331
X3.687Y-3.9331
X3.787Y-3.2331
X3.787Y-3.3331
X3.787Y-3.4331
X3.787Y-3.5331
X3.787Y-3.6331
X3.787Y-3.7331
X3.787Y-3.8331
X3.787Y-3.9331
X3.2362Y-2.4433
X3.2362Y-2.5433
X3.2362Y-2.6433
X3.2362Y-2.7433
X3.2362Y-2.8433
X3.2362Y-2.9433
X3.2362Y-3.0433
X3.2362Y-3.1433
X3.2362Y-3.2433
X3.2362Y-3.3433
X3.2362Y-3.4433
X3.2362Y-3.5433
X3.2362Y-3.6433
X3.2362Y-3.7433
X3.2362Y-3.8433
X3.2362Y-3.9433
X3.2362Y-4.0433
X3.2362Y-4.1433
X3.2362Y-4.2433
X3.2362Y-4.3433
X3.2362Y-4.4433
X3.2362Y-4.5433
X3.2362Y-4.6433
X3.2362Y-4.7433
X3.2362Y-4.8433
X3.2362Y-4.9433
X3.2362Y-5.0433
X3.1811Y-1.2323
X3.1811Y-1.3323
X3.1811Y-1.4323
X3.1811Y-1.5323
X3.1811Y-1.6323
X3.1811Y-1.7323
X3.1811Y-1.8323
X3.1811Y-1.9323
X3.1811Y-2.0323
X3.1811Y-2.1323
X3.1811Y-2.2323
X3.8937Y-1.4906
X3.8937Y-1.5906
X3.9937Y-1.4906
X3.9937Y-1.5906
X4.0937Y-1.4906
X4.0937Y-1.5906
X4.1937Y-1.4906
X4.1937Y-1.5906
X4.2937Y-1.4906
X4.2937Y-1.5906
X4.3937Y-1.4906
X4.3937Y-1.5906
X4.4937Y-1.4906
X4.4937Y-1.5906
X4.5937Y-1.4906
X4.5937Y-1.5906
T0
M30
