G04 #@! TF.GenerationSoftware,KiCad,Pcbnew,5.1.5+dfsg1-2build2*
G04 #@! TF.CreationDate,2022-08-20T13:50:49+01:00*
G04 #@! TF.ProjectId,psion-org2-power,7073696f-6e2d-46f7-9267-322d706f7765,rev?*
G04 #@! TF.SameCoordinates,Original*
G04 #@! TF.FileFunction,Legend,Bot*
G04 #@! TF.FilePolarity,Positive*
%FSLAX46Y46*%
G04 Gerber Fmt 4.6, Leading zero omitted, Abs format (unit mm)*
G04 Created by KiCad (PCBNEW 5.1.5+dfsg1-2build2) date 2022-08-20 13:50:49*
%MOMM*%
%LPD*%
G04 APERTURE LIST*
%ADD10C,0.150000*%
G04 APERTURE END LIST*
D10*
X110100000Y-44900000D02*
G75*
G03X110100000Y-44900000I-2500000J0D01*
G01*
X128200000Y-44900000D02*
G75*
G03X128200000Y-44900000I-2500000J0D01*
G01*
X126133333Y-43852380D02*
X126133333Y-44566666D01*
X126180952Y-44709523D01*
X126276190Y-44804761D01*
X126419047Y-44852380D01*
X126514285Y-44852380D01*
X125609523Y-44852380D02*
X125419047Y-44852380D01*
X125323809Y-44804761D01*
X125276190Y-44757142D01*
X125180952Y-44614285D01*
X125133333Y-44423809D01*
X125133333Y-44042857D01*
X125180952Y-43947619D01*
X125228571Y-43900000D01*
X125323809Y-43852380D01*
X125514285Y-43852380D01*
X125609523Y-43900000D01*
X125657142Y-43947619D01*
X125704761Y-44042857D01*
X125704761Y-44280952D01*
X125657142Y-44376190D01*
X125609523Y-44423809D01*
X125514285Y-44471428D01*
X125323809Y-44471428D01*
X125228571Y-44423809D01*
X125180952Y-44376190D01*
X125133333Y-44280952D01*
X107933333Y-43852380D02*
X107933333Y-44566666D01*
X107980952Y-44709523D01*
X108076190Y-44804761D01*
X108219047Y-44852380D01*
X108314285Y-44852380D01*
X107314285Y-44280952D02*
X107409523Y-44233333D01*
X107457142Y-44185714D01*
X107504761Y-44090476D01*
X107504761Y-44042857D01*
X107457142Y-43947619D01*
X107409523Y-43900000D01*
X107314285Y-43852380D01*
X107123809Y-43852380D01*
X107028571Y-43900000D01*
X106980952Y-43947619D01*
X106933333Y-44042857D01*
X106933333Y-44090476D01*
X106980952Y-44185714D01*
X107028571Y-44233333D01*
X107123809Y-44280952D01*
X107314285Y-44280952D01*
X107409523Y-44328571D01*
X107457142Y-44376190D01*
X107504761Y-44471428D01*
X107504761Y-44661904D01*
X107457142Y-44757142D01*
X107409523Y-44804761D01*
X107314285Y-44852380D01*
X107123809Y-44852380D01*
X107028571Y-44804761D01*
X106980952Y-44757142D01*
X106933333Y-44661904D01*
X106933333Y-44471428D01*
X106980952Y-44376190D01*
X107028571Y-44328571D01*
X107123809Y-44280952D01*
M02*
