M48
; DRILL file {KiCad 5.1.5+dfsg1-2build2} date Sat 20 Aug 2022 13:50:47 BST
; FORMAT={-:-/ absolute / inch / decimal}
; #@! TF.CreationDate,2022-08-20T13:50:47+01:00
; #@! TF.GenerationSoftware,Kicad,Pcbnew,5.1.5+dfsg1-2build2
; #@! TF.FileFunction,Plated,1,2,PTH
FMAT,2
INCH
T1C0.0118
T2C0.0157
T3C0.0394
%
G90
G05
T1
X3.2008Y-2.3543
X3.2362Y-2.248
X3.2756Y-1.8898
X3.2843Y-2.6191
X3.2953Y-3.4724
X3.2992Y-2.063
X3.3031Y-1.3096
X3.3031Y-4.6969
X3.3071Y-1.4449
X3.3071Y-2.5433
X3.3071Y-5.0433
X3.3219Y-2.1339
X3.3219Y-2.4016
X3.325Y-2.2709
X3.3268Y-2.311
X3.3278Y-2.9803
X3.3455Y-2.9543
X3.3458Y-2.4242
X3.3463Y-2.2884
X3.3543Y-1.9921
X3.3675Y-2.4469
X3.374Y-2.3337
X3.378Y-2.5945
X3.3799Y-2.4718
X3.3839Y-3.0801
X3.3898Y-4.7441
X3.3976Y-2.4944
X3.4055Y-2.1614
X3.4084Y-3.0655
X3.4134Y-1.626
X3.4134Y-1.9016
X3.4248Y-2.5
X3.4262Y-2.8901
X3.4331Y-2.8307
X3.4469Y-1.2841
X3.4596Y-2.622
X3.4766Y-2.8819
X3.501Y-2.3898
X3.5039Y-2.122
X3.5116Y-3.0055
X3.5331Y-2.2079
X3.5551Y-2.2244
X3.5823Y-2.2289
X3.5866Y-1.7087
X3.5906Y-2.0276
X3.5942Y-2.772
X3.614Y-2.2063
X3.6181Y-1.6447
X3.6181Y-1.7717
X3.622Y-1.4519
X3.6378Y-1.4252
X3.6417Y-2.0748
X3.6449Y-2.0467
X3.6772Y-1.3937
X3.6811Y-2.7205
X3.6821Y-2.2707
X3.7Y-1.7362
X3.7008Y-1.5157
X3.7072Y-1.4094
X3.7079Y-2.711
X3.7172Y-2.2402
X3.7178Y-1.5394
X3.7178Y-1.9252
X3.7283Y-2.4222
X3.735Y-3.175
X3.7365Y-1.5906
X3.7369Y-2.2152
X3.739Y-2.0578
X3.7402Y-2.1877
X3.7431Y-2.0856
X3.7599Y-2.4842
X3.7644Y-2.8803
X3.7822Y-2.2608
X3.7835Y-2.126
X3.7953Y-2.3346
X3.8179Y-1.9542
X3.8188Y-2.8605
X3.8199Y-2.0177
X3.8288Y-2.1978
X3.8346Y-1.7077
X3.8425Y-1.9665
X3.8465Y-2.8434
X3.8465Y-2.7976
X3.8652Y-2.8213
X3.8692Y-2.0177
X3.8733Y-2.7909
X3.8937Y-1.6496
X3.8937Y-2.1693
X3.8937Y-2.2638
X3.8984Y-2.0354
X3.9119Y-2.4113
X3.9134Y-1.9262
X3.9173Y-1.752
X3.9186Y-2.7872
X3.9252Y-2.437
X3.9252Y-2.0669
X3.9384Y-2.3724
X3.9412Y-2.4646
X3.9461Y-2.7872
X3.9488Y-2.0354
X3.9705Y-2.3346
X3.9764Y-2.7864
X3.9766Y-2.63
X3.9843Y-1.6772
X3.9843Y-2.5039
X3.9862Y-2.3071
X4.0118Y-1.9921
X4.0118Y-2.9261
X4.02Y-2.7513
X4.0457Y-1.9439
X4.0551Y-2.5039
X4.0591Y-2.189
X4.0591Y-2.3809
X4.063Y-1.7795
X4.0709Y-1.9252
X4.0886Y-2.7008
X4.0984Y-2.1978
X4.0984Y-2.3622
X4.1063Y-2.4616
X4.1094Y-2.7188
X4.122Y-1.6732
X4.1299Y-1.4081
X4.1339Y-2.5827
X4.1457Y-1.5433
X4.1603Y-1.4081
X4.1693Y-2.2598
X4.1732Y-2.4636
X4.185Y-2.7008
X4.189Y-2.1772
X4.1969Y-2.56
X4.2008Y-2.635
X4.2087Y-2.4646
X4.2087Y-2.6811
X4.2146Y-2.1895
X4.2165Y-1.9173
X4.2244Y-2.5591
X4.24Y-2.635
X4.2441Y-2.0472
X4.2501Y-2.3711
X4.2567Y-2.5591
X4.2606Y-2.7801
X4.2707Y-2.1732
X4.274Y-2.8723
X4.2921Y-2.689
X4.2966Y-2.8037
X4.2988Y-2.8604
X4.311Y-2.8937
X4.3126Y-2.7813
X4.3148Y-2.4683
X4.3346Y-2.4213
X4.3423Y-2.4667
X4.3436Y-2.8937
X4.3558Y-2.3785
X4.36Y-2.05
X4.3622Y-2.5827
X4.3622Y-2.6969
X4.3626Y-1.6654
X4.3937Y-1.3904
X4.4055Y-2.5551
X4.4685Y-1.7283
X4.4724Y-2.2913
X4.5017Y-1.6991
X4.5039Y-1.7795
X4.5315Y-1.6969
X4.5354Y-2.939
X4.5453Y-2.0069
X4.5945Y-1.6654
X4.6142Y-2.811
X4.6417Y-1.6969
X4.6614Y-1.4904
X4.675Y-1.725
X4.68Y-2.015
X4.687Y-1.6063
X4.689Y-1.4488
X4.7126Y-1.5472
X4.7126Y-2.9646
X4.7382Y-2.9226
X4.74Y-2.09
X4.7913Y-1.3096
X4.7913Y-1.6614
X4.8169Y-1.2894
X4.8169Y-1.6142
X4.8189Y-1.7874
X4.8858Y-1.5787
X4.9449Y-1.9094
X4.9449Y-1.9606
X4.9528Y-1.7677
X5.0Y-1.9567
X5.0236Y-1.9213
X5.045Y-2.4235
X5.14Y-1.515
X5.15Y-1.805
X5.15Y-1.93
X5.15Y-2.08
X5.155Y-2.42
X5.1693Y-1.4685
X5.2087Y-1.4331
X5.2126Y-1.6339
X5.2346Y-2.5939
X5.235Y-1.805
X5.29Y-2.345
X5.315Y-1.74
X5.4094Y-1.5079
X5.415Y-2.345
X5.435Y-1.97
X5.4488Y-1.3189
X5.4528Y-1.5472
X5.48Y-1.83
X5.575Y-1.925
X5.585Y-2.385
X5.6772Y-1.2362
X5.7047Y-1.4567
T2
X3.2756Y-1.5354
X3.2874Y-1.6565
X3.3228Y-1.5433
X3.3549Y-3.7256
X3.4153Y-4.3819
X3.4213Y-1.5433
X3.427Y-4.423
X3.4508Y-4.4803
X3.4685Y-4.5787
X3.4862Y-4.622
X3.5039Y-4.6795
X3.5217Y-4.7296
X3.5394Y-4.7795
X3.5571Y-4.8346
X3.5732Y-4.8948
X3.5925Y-4.9291
X3.6102Y-4.9803
X3.6693Y-4.2008
X3.7362Y-3.3031
X4.3858Y-2.9606
X4.3884Y-2.7856
X4.4724Y-2.7441
X4.4803Y-2.6811
X5.2165Y-1.7244
T3
X3.8937Y-1.4906
X3.8937Y-1.5906
X3.9937Y-1.4906
X3.9937Y-1.5906
X4.0937Y-1.4906
X4.0937Y-1.5906
X4.1937Y-1.4906
X4.1937Y-1.5906
X4.2937Y-1.4906
X4.2937Y-1.5906
X4.3937Y-1.4906
X4.3937Y-1.5906
X4.4937Y-1.4906
X4.4937Y-1.5906
X4.5937Y-1.4906
X4.5937Y-1.5906
X3.2362Y-2.4433
X3.2362Y-2.5433
X3.2362Y-2.6433
X3.2362Y-2.7433
X3.2362Y-2.8433
X3.2362Y-2.9433
X3.2362Y-3.0433
X3.2362Y-3.1433
X3.2362Y-3.2433
X3.2362Y-3.3433
X3.2362Y-3.4433
X3.2362Y-3.5433
X3.2362Y-3.6433
X3.2362Y-3.7433
X3.2362Y-3.8433
X3.2362Y-3.9433
X3.2362Y-4.0433
X3.2362Y-4.1433
X3.2362Y-4.2433
X3.2362Y-4.3433
X3.2362Y-4.4433
X3.2362Y-4.5433
X3.2362Y-4.6433
X3.2362Y-4.7433
X3.2362Y-4.8433
X3.2362Y-4.9433
X3.2362Y-5.0433
X3.687Y-3.2331
X3.687Y-3.3331
X3.687Y-3.4331
X3.687Y-3.5331
X3.687Y-3.6331
X3.687Y-3.7331
X3.687Y-3.8331
X3.687Y-3.9331
X3.787Y-3.2331
X3.787Y-3.3331
X3.787Y-3.4331
X3.787Y-3.5331
X3.787Y-3.6331
X3.787Y-3.7331
X3.787Y-3.8331
X3.787Y-3.9331
X3.685Y-4.2803
X3.685Y-4.3803
X3.685Y-4.4803
X3.685Y-4.5803
X3.685Y-4.6803
X3.685Y-4.7803
X3.685Y-4.8803
X3.685Y-4.9803
X3.785Y-4.2803
X3.785Y-4.3803
X3.785Y-4.4803
X3.785Y-4.5803
X3.785Y-4.6803
X3.785Y-4.7803
X3.785Y-4.8803
X3.785Y-4.9803
X3.1811Y-1.2323
X3.1811Y-1.3323
X3.1811Y-1.4323
X3.1811Y-1.5323
X3.1811Y-1.6323
X3.1811Y-1.7323
X3.1811Y-1.8323
X3.1811Y-1.9323
X3.1811Y-2.0323
X3.1811Y-2.1323
X3.1811Y-2.2323
T0
M30
