G04 #@! TF.GenerationSoftware,KiCad,Pcbnew,5.1.5+dfsg1-2build2*
G04 #@! TF.CreationDate,2022-08-20T13:50:49+01:00*
G04 #@! TF.ProjectId,psion-org2-power,7073696f-6e2d-46f7-9267-322d706f7765,rev?*
G04 #@! TF.SameCoordinates,Original*
G04 #@! TF.FileFunction,Legend,Top*
G04 #@! TF.FilePolarity,Positive*
%FSLAX46Y46*%
G04 Gerber Fmt 4.6, Leading zero omitted, Abs format (unit mm)*
G04 Created by KiCad (PCBNEW 5.1.5+dfsg1-2build2) date 2022-08-20 13:50:49*
%MOMM*%
%LPD*%
G04 APERTURE LIST*
%ADD10C,0.150000*%
%ADD11C,0.120000*%
G04 APERTURE END LIST*
D10*
X129600000Y-38100000D02*
X118500000Y-38100000D01*
X95350000Y-64400000D02*
G75*
G03X95350000Y-64400000I-2000000J0D01*
G01*
X85877380Y-116409523D02*
X84877380Y-116409523D01*
X84877380Y-116028571D01*
X84925000Y-115933333D01*
X84972619Y-115885714D01*
X85067857Y-115838095D01*
X85210714Y-115838095D01*
X85305952Y-115885714D01*
X85353571Y-115933333D01*
X85401190Y-116028571D01*
X85401190Y-116409523D01*
X85829761Y-115457142D02*
X85877380Y-115361904D01*
X85877380Y-115171428D01*
X85829761Y-115076190D01*
X85734523Y-115028571D01*
X85686904Y-115028571D01*
X85591666Y-115076190D01*
X85544047Y-115171428D01*
X85544047Y-115314285D01*
X85496428Y-115409523D01*
X85401190Y-115457142D01*
X85353571Y-115457142D01*
X85258333Y-115409523D01*
X85210714Y-115314285D01*
X85210714Y-115171428D01*
X85258333Y-115076190D01*
X85877380Y-114600000D02*
X85210714Y-114600000D01*
X84877380Y-114600000D02*
X84925000Y-114647619D01*
X84972619Y-114600000D01*
X84925000Y-114552380D01*
X84877380Y-114600000D01*
X84972619Y-114600000D01*
X85877380Y-113980952D02*
X85829761Y-114076190D01*
X85782142Y-114123809D01*
X85686904Y-114171428D01*
X85401190Y-114171428D01*
X85305952Y-114123809D01*
X85258333Y-114076190D01*
X85210714Y-113980952D01*
X85210714Y-113838095D01*
X85258333Y-113742857D01*
X85305952Y-113695238D01*
X85401190Y-113647619D01*
X85686904Y-113647619D01*
X85782142Y-113695238D01*
X85829761Y-113742857D01*
X85877380Y-113838095D01*
X85877380Y-113980952D01*
X85210714Y-113219047D02*
X85877380Y-113219047D01*
X85305952Y-113219047D02*
X85258333Y-113171428D01*
X85210714Y-113076190D01*
X85210714Y-112933333D01*
X85258333Y-112838095D01*
X85353571Y-112790476D01*
X85877380Y-112790476D01*
X84877380Y-111361904D02*
X84877380Y-111171428D01*
X84925000Y-111076190D01*
X85020238Y-110980952D01*
X85210714Y-110933333D01*
X85544047Y-110933333D01*
X85734523Y-110980952D01*
X85829761Y-111076190D01*
X85877380Y-111171428D01*
X85877380Y-111361904D01*
X85829761Y-111457142D01*
X85734523Y-111552380D01*
X85544047Y-111600000D01*
X85210714Y-111600000D01*
X85020238Y-111552380D01*
X84925000Y-111457142D01*
X84877380Y-111361904D01*
X85877380Y-110504761D02*
X85210714Y-110504761D01*
X85401190Y-110504761D02*
X85305952Y-110457142D01*
X85258333Y-110409523D01*
X85210714Y-110314285D01*
X85210714Y-110219047D01*
X85210714Y-109457142D02*
X86020238Y-109457142D01*
X86115476Y-109504761D01*
X86163095Y-109552380D01*
X86210714Y-109647619D01*
X86210714Y-109790476D01*
X86163095Y-109885714D01*
X85829761Y-109457142D02*
X85877380Y-109552380D01*
X85877380Y-109742857D01*
X85829761Y-109838095D01*
X85782142Y-109885714D01*
X85686904Y-109933333D01*
X85401190Y-109933333D01*
X85305952Y-109885714D01*
X85258333Y-109838095D01*
X85210714Y-109742857D01*
X85210714Y-109552380D01*
X85258333Y-109457142D01*
X85877380Y-108552380D02*
X85353571Y-108552380D01*
X85258333Y-108600000D01*
X85210714Y-108695238D01*
X85210714Y-108885714D01*
X85258333Y-108980952D01*
X85829761Y-108552380D02*
X85877380Y-108647619D01*
X85877380Y-108885714D01*
X85829761Y-108980952D01*
X85734523Y-109028571D01*
X85639285Y-109028571D01*
X85544047Y-108980952D01*
X85496428Y-108885714D01*
X85496428Y-108647619D01*
X85448809Y-108552380D01*
X85210714Y-108076190D02*
X85877380Y-108076190D01*
X85305952Y-108076190D02*
X85258333Y-108028571D01*
X85210714Y-107933333D01*
X85210714Y-107790476D01*
X85258333Y-107695238D01*
X85353571Y-107647619D01*
X85877380Y-107647619D01*
X85877380Y-107171428D02*
X85210714Y-107171428D01*
X84877380Y-107171428D02*
X84925000Y-107219047D01*
X84972619Y-107171428D01*
X84925000Y-107123809D01*
X84877380Y-107171428D01*
X84972619Y-107171428D01*
X85829761Y-106742857D02*
X85877380Y-106647619D01*
X85877380Y-106457142D01*
X85829761Y-106361904D01*
X85734523Y-106314285D01*
X85686904Y-106314285D01*
X85591666Y-106361904D01*
X85544047Y-106457142D01*
X85544047Y-106600000D01*
X85496428Y-106695238D01*
X85401190Y-106742857D01*
X85353571Y-106742857D01*
X85258333Y-106695238D01*
X85210714Y-106600000D01*
X85210714Y-106457142D01*
X85258333Y-106361904D01*
X85829761Y-105504761D02*
X85877380Y-105600000D01*
X85877380Y-105790476D01*
X85829761Y-105885714D01*
X85734523Y-105933333D01*
X85353571Y-105933333D01*
X85258333Y-105885714D01*
X85210714Y-105790476D01*
X85210714Y-105600000D01*
X85258333Y-105504761D01*
X85353571Y-105457142D01*
X85448809Y-105457142D01*
X85544047Y-105933333D01*
X85877380Y-105028571D02*
X85210714Y-105028571D01*
X85401190Y-105028571D02*
X85305952Y-104980952D01*
X85258333Y-104933333D01*
X85210714Y-104838095D01*
X85210714Y-104742857D01*
X84972619Y-103695238D02*
X84925000Y-103647619D01*
X84877380Y-103552380D01*
X84877380Y-103314285D01*
X84925000Y-103219047D01*
X84972619Y-103171428D01*
X85067857Y-103123809D01*
X85163095Y-103123809D01*
X85305952Y-103171428D01*
X85877380Y-103742857D01*
X85877380Y-103123809D01*
X85877380Y-101361904D02*
X85401190Y-101695238D01*
X85877380Y-101933333D02*
X84877380Y-101933333D01*
X84877380Y-101552380D01*
X84925000Y-101457142D01*
X84972619Y-101409523D01*
X85067857Y-101361904D01*
X85210714Y-101361904D01*
X85305952Y-101409523D01*
X85353571Y-101457142D01*
X85401190Y-101552380D01*
X85401190Y-101933333D01*
X85829761Y-100552380D02*
X85877380Y-100647619D01*
X85877380Y-100838095D01*
X85829761Y-100933333D01*
X85734523Y-100980952D01*
X85353571Y-100980952D01*
X85258333Y-100933333D01*
X85210714Y-100838095D01*
X85210714Y-100647619D01*
X85258333Y-100552380D01*
X85353571Y-100504761D01*
X85448809Y-100504761D01*
X85544047Y-100980952D01*
X85496428Y-100076190D02*
X85496428Y-99314285D01*
X85782142Y-98266666D02*
X85829761Y-98314285D01*
X85877380Y-98457142D01*
X85877380Y-98552380D01*
X85829761Y-98695238D01*
X85734523Y-98790476D01*
X85639285Y-98838095D01*
X85448809Y-98885714D01*
X85305952Y-98885714D01*
X85115476Y-98838095D01*
X85020238Y-98790476D01*
X84925000Y-98695238D01*
X84877380Y-98552380D01*
X84877380Y-98457142D01*
X84925000Y-98314285D01*
X84972619Y-98266666D01*
X85877380Y-97838095D02*
X85210714Y-97838095D01*
X85401190Y-97838095D02*
X85305952Y-97790476D01*
X85258333Y-97742857D01*
X85210714Y-97647619D01*
X85210714Y-97552380D01*
X85829761Y-96838095D02*
X85877380Y-96933333D01*
X85877380Y-97123809D01*
X85829761Y-97219047D01*
X85734523Y-97266666D01*
X85353571Y-97266666D01*
X85258333Y-97219047D01*
X85210714Y-97123809D01*
X85210714Y-96933333D01*
X85258333Y-96838095D01*
X85353571Y-96790476D01*
X85448809Y-96790476D01*
X85544047Y-97266666D01*
X85877380Y-95933333D02*
X85353571Y-95933333D01*
X85258333Y-95980952D01*
X85210714Y-96076190D01*
X85210714Y-96266666D01*
X85258333Y-96361904D01*
X85829761Y-95933333D02*
X85877380Y-96028571D01*
X85877380Y-96266666D01*
X85829761Y-96361904D01*
X85734523Y-96409523D01*
X85639285Y-96409523D01*
X85544047Y-96361904D01*
X85496428Y-96266666D01*
X85496428Y-96028571D01*
X85448809Y-95933333D01*
X85210714Y-95600000D02*
X85210714Y-95219047D01*
X84877380Y-95457142D02*
X85734523Y-95457142D01*
X85829761Y-95409523D01*
X85877380Y-95314285D01*
X85877380Y-95219047D01*
X85877380Y-94885714D02*
X85210714Y-94885714D01*
X84877380Y-94885714D02*
X84925000Y-94933333D01*
X84972619Y-94885714D01*
X84925000Y-94838095D01*
X84877380Y-94885714D01*
X84972619Y-94885714D01*
X85877380Y-94266666D02*
X85829761Y-94361904D01*
X85782142Y-94409523D01*
X85686904Y-94457142D01*
X85401190Y-94457142D01*
X85305952Y-94409523D01*
X85258333Y-94361904D01*
X85210714Y-94266666D01*
X85210714Y-94123809D01*
X85258333Y-94028571D01*
X85305952Y-93980952D01*
X85401190Y-93933333D01*
X85686904Y-93933333D01*
X85782142Y-93980952D01*
X85829761Y-94028571D01*
X85877380Y-94123809D01*
X85877380Y-94266666D01*
X85210714Y-93504761D02*
X85877380Y-93504761D01*
X85305952Y-93504761D02*
X85258333Y-93457142D01*
X85210714Y-93361904D01*
X85210714Y-93219047D01*
X85258333Y-93123809D01*
X85353571Y-93076190D01*
X85877380Y-93076190D01*
X85877380Y-91838095D02*
X84877380Y-91838095D01*
X84877380Y-91457142D01*
X84925000Y-91361904D01*
X84972619Y-91314285D01*
X85067857Y-91266666D01*
X85210714Y-91266666D01*
X85305952Y-91314285D01*
X85353571Y-91361904D01*
X85401190Y-91457142D01*
X85401190Y-91838095D01*
X85877380Y-90695238D02*
X85829761Y-90790476D01*
X85782142Y-90838095D01*
X85686904Y-90885714D01*
X85401190Y-90885714D01*
X85305952Y-90838095D01*
X85258333Y-90790476D01*
X85210714Y-90695238D01*
X85210714Y-90552380D01*
X85258333Y-90457142D01*
X85305952Y-90409523D01*
X85401190Y-90361904D01*
X85686904Y-90361904D01*
X85782142Y-90409523D01*
X85829761Y-90457142D01*
X85877380Y-90552380D01*
X85877380Y-90695238D01*
X85210714Y-90028571D02*
X85877380Y-89838095D01*
X85401190Y-89647619D01*
X85877380Y-89457142D01*
X85210714Y-89266666D01*
X85829761Y-88504761D02*
X85877380Y-88600000D01*
X85877380Y-88790476D01*
X85829761Y-88885714D01*
X85734523Y-88933333D01*
X85353571Y-88933333D01*
X85258333Y-88885714D01*
X85210714Y-88790476D01*
X85210714Y-88600000D01*
X85258333Y-88504761D01*
X85353571Y-88457142D01*
X85448809Y-88457142D01*
X85544047Y-88933333D01*
X85877380Y-88028571D02*
X85210714Y-88028571D01*
X85401190Y-88028571D02*
X85305952Y-87980952D01*
X85258333Y-87933333D01*
X85210714Y-87838095D01*
X85210714Y-87742857D01*
X85353571Y-86314285D02*
X85401190Y-86171428D01*
X85448809Y-86123809D01*
X85544047Y-86076190D01*
X85686904Y-86076190D01*
X85782142Y-86123809D01*
X85829761Y-86171428D01*
X85877380Y-86266666D01*
X85877380Y-86647619D01*
X84877380Y-86647619D01*
X84877380Y-86314285D01*
X84925000Y-86219047D01*
X84972619Y-86171428D01*
X85067857Y-86123809D01*
X85163095Y-86123809D01*
X85258333Y-86171428D01*
X85305952Y-86219047D01*
X85353571Y-86314285D01*
X85353571Y-86647619D01*
X85877380Y-85504761D02*
X85829761Y-85600000D01*
X85782142Y-85647619D01*
X85686904Y-85695238D01*
X85401190Y-85695238D01*
X85305952Y-85647619D01*
X85258333Y-85600000D01*
X85210714Y-85504761D01*
X85210714Y-85361904D01*
X85258333Y-85266666D01*
X85305952Y-85219047D01*
X85401190Y-85171428D01*
X85686904Y-85171428D01*
X85782142Y-85219047D01*
X85829761Y-85266666D01*
X85877380Y-85361904D01*
X85877380Y-85504761D01*
X85877380Y-84314285D02*
X85353571Y-84314285D01*
X85258333Y-84361904D01*
X85210714Y-84457142D01*
X85210714Y-84647619D01*
X85258333Y-84742857D01*
X85829761Y-84314285D02*
X85877380Y-84409523D01*
X85877380Y-84647619D01*
X85829761Y-84742857D01*
X85734523Y-84790476D01*
X85639285Y-84790476D01*
X85544047Y-84742857D01*
X85496428Y-84647619D01*
X85496428Y-84409523D01*
X85448809Y-84314285D01*
X85877380Y-83838095D02*
X85210714Y-83838095D01*
X85401190Y-83838095D02*
X85305952Y-83790476D01*
X85258333Y-83742857D01*
X85210714Y-83647619D01*
X85210714Y-83552380D01*
X85877380Y-82790476D02*
X84877380Y-82790476D01*
X85829761Y-82790476D02*
X85877380Y-82885714D01*
X85877380Y-83076190D01*
X85829761Y-83171428D01*
X85782142Y-83219047D01*
X85686904Y-83266666D01*
X85401190Y-83266666D01*
X85305952Y-83219047D01*
X85258333Y-83171428D01*
X85210714Y-83076190D01*
X85210714Y-82885714D01*
X85258333Y-82790476D01*
X87241666Y-103409523D02*
X87241666Y-102933333D01*
X87527380Y-103504761D02*
X86527380Y-103171428D01*
X87527380Y-102838095D01*
X86860714Y-102076190D02*
X87527380Y-102076190D01*
X86860714Y-102504761D02*
X87384523Y-102504761D01*
X87479761Y-102457142D01*
X87527380Y-102361904D01*
X87527380Y-102219047D01*
X87479761Y-102123809D01*
X87432142Y-102076190D01*
X86860714Y-101171428D02*
X87670238Y-101171428D01*
X87765476Y-101219047D01*
X87813095Y-101266666D01*
X87860714Y-101361904D01*
X87860714Y-101504761D01*
X87813095Y-101600000D01*
X87479761Y-101171428D02*
X87527380Y-101266666D01*
X87527380Y-101457142D01*
X87479761Y-101552380D01*
X87432142Y-101600000D01*
X87336904Y-101647619D01*
X87051190Y-101647619D01*
X86955952Y-101600000D01*
X86908333Y-101552380D01*
X86860714Y-101457142D01*
X86860714Y-101266666D01*
X86908333Y-101171428D01*
X86622619Y-99980952D02*
X86575000Y-99933333D01*
X86527380Y-99838095D01*
X86527380Y-99600000D01*
X86575000Y-99504761D01*
X86622619Y-99457142D01*
X86717857Y-99409523D01*
X86813095Y-99409523D01*
X86955952Y-99457142D01*
X87527380Y-100028571D01*
X87527380Y-99409523D01*
X86527380Y-98790476D02*
X86527380Y-98695238D01*
X86575000Y-98600000D01*
X86622619Y-98552380D01*
X86717857Y-98504761D01*
X86908333Y-98457142D01*
X87146428Y-98457142D01*
X87336904Y-98504761D01*
X87432142Y-98552380D01*
X87479761Y-98600000D01*
X87527380Y-98695238D01*
X87527380Y-98790476D01*
X87479761Y-98885714D01*
X87432142Y-98933333D01*
X87336904Y-98980952D01*
X87146428Y-99028571D01*
X86908333Y-99028571D01*
X86717857Y-98980952D01*
X86622619Y-98933333D01*
X86575000Y-98885714D01*
X86527380Y-98790476D01*
X86622619Y-98076190D02*
X86575000Y-98028571D01*
X86527380Y-97933333D01*
X86527380Y-97695238D01*
X86575000Y-97600000D01*
X86622619Y-97552380D01*
X86717857Y-97504761D01*
X86813095Y-97504761D01*
X86955952Y-97552380D01*
X87527380Y-98123809D01*
X87527380Y-97504761D01*
X86622619Y-97123809D02*
X86575000Y-97076190D01*
X86527380Y-96980952D01*
X86527380Y-96742857D01*
X86575000Y-96647619D01*
X86622619Y-96600000D01*
X86717857Y-96552380D01*
X86813095Y-96552380D01*
X86955952Y-96600000D01*
X87527380Y-97171428D01*
X87527380Y-96552380D01*
X88177380Y-101123809D02*
X89177380Y-100790476D01*
X88177380Y-100457142D01*
X88272619Y-100171428D02*
X88225000Y-100123809D01*
X88177380Y-100028571D01*
X88177380Y-99790476D01*
X88225000Y-99695238D01*
X88272619Y-99647619D01*
X88367857Y-99600000D01*
X88463095Y-99600000D01*
X88605952Y-99647619D01*
X89177380Y-100219047D01*
X89177380Y-99600000D01*
X89082142Y-99171428D02*
X89129761Y-99123809D01*
X89177380Y-99171428D01*
X89129761Y-99219047D01*
X89082142Y-99171428D01*
X89177380Y-99171428D01*
X88177380Y-98504761D02*
X88177380Y-98409523D01*
X88225000Y-98314285D01*
X88272619Y-98266666D01*
X88367857Y-98219047D01*
X88558333Y-98171428D01*
X88796428Y-98171428D01*
X88986904Y-98219047D01*
X89082142Y-98266666D01*
X89129761Y-98314285D01*
X89177380Y-98409523D01*
X89177380Y-98504761D01*
X89129761Y-98600000D01*
X89082142Y-98647619D01*
X88986904Y-98695238D01*
X88796428Y-98742857D01*
X88558333Y-98742857D01*
X88367857Y-98695238D01*
X88272619Y-98647619D01*
X88225000Y-98600000D01*
X88177380Y-98504761D01*
X90827380Y-107195238D02*
X90160714Y-107195238D01*
X90255952Y-107195238D02*
X90208333Y-107147619D01*
X90160714Y-107052380D01*
X90160714Y-106909523D01*
X90208333Y-106814285D01*
X90303571Y-106766666D01*
X90827380Y-106766666D01*
X90303571Y-106766666D02*
X90208333Y-106719047D01*
X90160714Y-106623809D01*
X90160714Y-106480952D01*
X90208333Y-106385714D01*
X90303571Y-106338095D01*
X90827380Y-106338095D01*
X90779761Y-105480952D02*
X90827380Y-105576190D01*
X90827380Y-105766666D01*
X90779761Y-105861904D01*
X90684523Y-105909523D01*
X90303571Y-105909523D01*
X90208333Y-105861904D01*
X90160714Y-105766666D01*
X90160714Y-105576190D01*
X90208333Y-105480952D01*
X90303571Y-105433333D01*
X90398809Y-105433333D01*
X90494047Y-105909523D01*
X90160714Y-105004761D02*
X90827380Y-105004761D01*
X90255952Y-105004761D02*
X90208333Y-104957142D01*
X90160714Y-104861904D01*
X90160714Y-104719047D01*
X90208333Y-104623809D01*
X90303571Y-104576190D01*
X90827380Y-104576190D01*
X90827380Y-103671428D02*
X90303571Y-103671428D01*
X90208333Y-103719047D01*
X90160714Y-103814285D01*
X90160714Y-104004761D01*
X90208333Y-104100000D01*
X90779761Y-103671428D02*
X90827380Y-103766666D01*
X90827380Y-104004761D01*
X90779761Y-104100000D01*
X90684523Y-104147619D01*
X90589285Y-104147619D01*
X90494047Y-104100000D01*
X90446428Y-104004761D01*
X90446428Y-103766666D01*
X90398809Y-103671428D01*
X90827380Y-102766666D02*
X89827380Y-102766666D01*
X90779761Y-102766666D02*
X90827380Y-102861904D01*
X90827380Y-103052380D01*
X90779761Y-103147619D01*
X90732142Y-103195238D01*
X90636904Y-103242857D01*
X90351190Y-103242857D01*
X90255952Y-103195238D01*
X90208333Y-103147619D01*
X90160714Y-103052380D01*
X90160714Y-102861904D01*
X90208333Y-102766666D01*
X90160714Y-101861904D02*
X90827380Y-101861904D01*
X90160714Y-102290476D02*
X90684523Y-102290476D01*
X90779761Y-102242857D01*
X90827380Y-102147619D01*
X90827380Y-102004761D01*
X90779761Y-101909523D01*
X90732142Y-101861904D01*
X90779761Y-101004761D02*
X90827380Y-101100000D01*
X90827380Y-101290476D01*
X90779761Y-101385714D01*
X90684523Y-101433333D01*
X90303571Y-101433333D01*
X90208333Y-101385714D01*
X90160714Y-101290476D01*
X90160714Y-101100000D01*
X90208333Y-101004761D01*
X90303571Y-100957142D01*
X90398809Y-100957142D01*
X90494047Y-101433333D01*
X90351190Y-99909523D02*
X90303571Y-99957142D01*
X90255952Y-100052380D01*
X90255952Y-100147619D01*
X90303571Y-100242857D01*
X90351190Y-100290476D01*
X90446428Y-100338095D01*
X90541666Y-100338095D01*
X90636904Y-100290476D01*
X90684523Y-100242857D01*
X90732142Y-100147619D01*
X90732142Y-100052380D01*
X90684523Y-99957142D01*
X90636904Y-99909523D01*
X90255952Y-99909523D02*
X90636904Y-99909523D01*
X90684523Y-99861904D01*
X90684523Y-99814285D01*
X90636904Y-99719047D01*
X90541666Y-99671428D01*
X90303571Y-99671428D01*
X90160714Y-99766666D01*
X90065476Y-99909523D01*
X90017857Y-100100000D01*
X90065476Y-100290476D01*
X90160714Y-100433333D01*
X90303571Y-100528571D01*
X90494047Y-100576190D01*
X90684523Y-100528571D01*
X90827380Y-100433333D01*
X90922619Y-100290476D01*
X90970238Y-100100000D01*
X90922619Y-99909523D01*
X90827380Y-99766666D01*
X90160714Y-98814285D02*
X90970238Y-98814285D01*
X91065476Y-98861904D01*
X91113095Y-98909523D01*
X91160714Y-99004761D01*
X91160714Y-99147619D01*
X91113095Y-99242857D01*
X90779761Y-98814285D02*
X90827380Y-98909523D01*
X90827380Y-99100000D01*
X90779761Y-99195238D01*
X90732142Y-99242857D01*
X90636904Y-99290476D01*
X90351190Y-99290476D01*
X90255952Y-99242857D01*
X90208333Y-99195238D01*
X90160714Y-99100000D01*
X90160714Y-98909523D01*
X90208333Y-98814285D01*
X90827380Y-98338095D02*
X90160714Y-98338095D01*
X90255952Y-98338095D02*
X90208333Y-98290476D01*
X90160714Y-98195238D01*
X90160714Y-98052380D01*
X90208333Y-97957142D01*
X90303571Y-97909523D01*
X90827380Y-97909523D01*
X90303571Y-97909523D02*
X90208333Y-97861904D01*
X90160714Y-97766666D01*
X90160714Y-97623809D01*
X90208333Y-97528571D01*
X90303571Y-97480952D01*
X90827380Y-97480952D01*
X90827380Y-96576190D02*
X90303571Y-96576190D01*
X90208333Y-96623809D01*
X90160714Y-96719047D01*
X90160714Y-96909523D01*
X90208333Y-97004761D01*
X90779761Y-96576190D02*
X90827380Y-96671428D01*
X90827380Y-96909523D01*
X90779761Y-97004761D01*
X90684523Y-97052380D01*
X90589285Y-97052380D01*
X90494047Y-97004761D01*
X90446428Y-96909523D01*
X90446428Y-96671428D01*
X90398809Y-96576190D01*
X90827380Y-96100000D02*
X90160714Y-96100000D01*
X89827380Y-96100000D02*
X89875000Y-96147619D01*
X89922619Y-96100000D01*
X89875000Y-96052380D01*
X89827380Y-96100000D01*
X89922619Y-96100000D01*
X90827380Y-95480952D02*
X90779761Y-95576190D01*
X90684523Y-95623809D01*
X89827380Y-95623809D01*
X90732142Y-95100000D02*
X90779761Y-95052380D01*
X90827380Y-95100000D01*
X90779761Y-95147619D01*
X90732142Y-95100000D01*
X90827380Y-95100000D01*
X90779761Y-94195238D02*
X90827380Y-94290476D01*
X90827380Y-94480952D01*
X90779761Y-94576190D01*
X90732142Y-94623809D01*
X90636904Y-94671428D01*
X90351190Y-94671428D01*
X90255952Y-94623809D01*
X90208333Y-94576190D01*
X90160714Y-94480952D01*
X90160714Y-94290476D01*
X90208333Y-94195238D01*
X90827380Y-93623809D02*
X90779761Y-93719047D01*
X90732142Y-93766666D01*
X90636904Y-93814285D01*
X90351190Y-93814285D01*
X90255952Y-93766666D01*
X90208333Y-93719047D01*
X90160714Y-93623809D01*
X90160714Y-93480952D01*
X90208333Y-93385714D01*
X90255952Y-93338095D01*
X90351190Y-93290476D01*
X90636904Y-93290476D01*
X90732142Y-93338095D01*
X90779761Y-93385714D01*
X90827380Y-93480952D01*
X90827380Y-93623809D01*
X90827380Y-92861904D02*
X90160714Y-92861904D01*
X90255952Y-92861904D02*
X90208333Y-92814285D01*
X90160714Y-92719047D01*
X90160714Y-92576190D01*
X90208333Y-92480952D01*
X90303571Y-92433333D01*
X90827380Y-92433333D01*
X90303571Y-92433333D02*
X90208333Y-92385714D01*
X90160714Y-92290476D01*
X90160714Y-92147619D01*
X90208333Y-92052380D01*
X90303571Y-92004761D01*
X90827380Y-92004761D01*
X86838095Y-42500000D02*
X86742857Y-42452380D01*
X86600000Y-42452380D01*
X86457142Y-42500000D01*
X86361904Y-42595238D01*
X86314285Y-42690476D01*
X86266666Y-42880952D01*
X86266666Y-43023809D01*
X86314285Y-43214285D01*
X86361904Y-43309523D01*
X86457142Y-43404761D01*
X86600000Y-43452380D01*
X86695238Y-43452380D01*
X86838095Y-43404761D01*
X86885714Y-43357142D01*
X86885714Y-43023809D01*
X86695238Y-43023809D01*
X87314285Y-43452380D02*
X87314285Y-42452380D01*
X87885714Y-43452380D01*
X87885714Y-42452380D01*
X88361904Y-43452380D02*
X88361904Y-42452380D01*
X88600000Y-42452380D01*
X88742857Y-42500000D01*
X88838095Y-42595238D01*
X88885714Y-42690476D01*
X88933333Y-42880952D01*
X88933333Y-43023809D01*
X88885714Y-43214285D01*
X88838095Y-43309523D01*
X88742857Y-43404761D01*
X88600000Y-43452380D01*
X88361904Y-43452380D01*
X83257142Y-39252380D02*
X83590476Y-40252380D01*
X83923809Y-39252380D01*
X84590476Y-39728571D02*
X84733333Y-39776190D01*
X84780952Y-39823809D01*
X84828571Y-39919047D01*
X84828571Y-40061904D01*
X84780952Y-40157142D01*
X84733333Y-40204761D01*
X84638095Y-40252380D01*
X84257142Y-40252380D01*
X84257142Y-39252380D01*
X84590476Y-39252380D01*
X84685714Y-39300000D01*
X84733333Y-39347619D01*
X84780952Y-39442857D01*
X84780952Y-39538095D01*
X84733333Y-39633333D01*
X84685714Y-39680952D01*
X84590476Y-39728571D01*
X84257142Y-39728571D01*
X85209523Y-39966666D02*
X85685714Y-39966666D01*
X85114285Y-40252380D02*
X85447619Y-39252380D01*
X85780952Y-40252380D01*
X85971428Y-39252380D02*
X86542857Y-39252380D01*
X86257142Y-40252380D02*
X86257142Y-39252380D01*
X107700000Y-40400000D02*
X109500000Y-40400000D01*
X129600000Y-49600000D02*
X129600000Y-29400000D01*
X132100000Y-49600000D02*
X129600000Y-49600000D01*
X95400000Y-49600000D02*
X132100000Y-49600000D01*
X95400000Y-38100000D02*
X95400000Y-52100000D01*
X95400000Y-38100000D02*
X92900000Y-38100000D01*
X139600000Y-30900000D02*
X139600000Y-29400000D01*
X139600000Y-39100000D02*
X139600000Y-30900000D01*
X132100000Y-39100000D02*
X139600000Y-39100000D01*
X132100000Y-52100000D02*
X132100000Y-39100000D01*
X95400000Y-52100000D02*
X132100000Y-52100000D01*
X85900000Y-38100000D02*
X92900000Y-38100000D01*
X85900000Y-29400000D02*
X85900000Y-38100000D01*
X84300000Y-126500000D02*
X92700000Y-126500000D01*
D11*
X133996000Y-59985000D02*
X131546000Y-59985000D01*
X132196000Y-63205000D02*
X133996000Y-63205000D01*
X135819000Y-72138000D02*
X135819000Y-73598000D01*
X132659000Y-72138000D02*
X132659000Y-74298000D01*
X132659000Y-72138000D02*
X133589000Y-72138000D01*
X135819000Y-72138000D02*
X134889000Y-72138000D01*
X137104000Y-62355000D02*
X137104000Y-60895000D01*
X140264000Y-62355000D02*
X140264000Y-60195000D01*
X140264000Y-62355000D02*
X139334000Y-62355000D01*
X137104000Y-62355000D02*
X138034000Y-62355000D01*
X141832064Y-66829000D02*
X141377936Y-66829000D01*
X141832064Y-68299000D02*
X141377936Y-68299000D01*
X141504936Y-70839000D02*
X141959064Y-70839000D01*
X141504936Y-69369000D02*
X141959064Y-69369000D01*
X137440936Y-70839000D02*
X137895064Y-70839000D01*
X137440936Y-69369000D02*
X137895064Y-69369000D01*
X132995936Y-70839000D02*
X133450064Y-70839000D01*
X132995936Y-69369000D02*
X133450064Y-69369000D01*
X128931936Y-70966000D02*
X129386064Y-70966000D01*
X128931936Y-69496000D02*
X129386064Y-69496000D01*
X128931936Y-67918000D02*
X129386064Y-67918000D01*
X128931936Y-66448000D02*
X129386064Y-66448000D01*
X138964936Y-56742000D02*
X139419064Y-56742000D01*
X138964936Y-55272000D02*
X139419064Y-55272000D01*
X134104000Y-53497000D02*
X133104000Y-53497000D01*
X134104000Y-58517000D02*
X133104000Y-58517000D01*
X125414000Y-69961000D02*
X124014000Y-69961000D01*
X123314000Y-69261000D02*
X123314000Y-68661000D01*
X124014000Y-67961000D02*
X125414000Y-67961000D01*
X126114000Y-68661000D02*
X126114000Y-69261000D01*
X126114000Y-69261000D02*
G75*
G02X125414000Y-69961000I-700000J0D01*
G01*
X125414000Y-67961000D02*
G75*
G02X126114000Y-68661000I0J-700000D01*
G01*
X123314000Y-68661000D02*
G75*
G02X124014000Y-67961000I700000J0D01*
G01*
X124014000Y-69961000D02*
G75*
G02X123314000Y-69261000I0J700000D01*
G01*
X139765000Y-53324000D02*
X138365000Y-53324000D01*
X137665000Y-52624000D02*
X137665000Y-52024000D01*
X138365000Y-51324000D02*
X139765000Y-51324000D01*
X140465000Y-52024000D02*
X140465000Y-52624000D01*
X140465000Y-52624000D02*
G75*
G02X139765000Y-53324000I-700000J0D01*
G01*
X139765000Y-51324000D02*
G75*
G02X140465000Y-52024000I0J-700000D01*
G01*
X137665000Y-52024000D02*
G75*
G02X138365000Y-51324000I700000J0D01*
G01*
X138365000Y-53324000D02*
G75*
G02X137665000Y-52624000I0J700000D01*
G01*
X127905000Y-59908000D02*
X127905000Y-56008000D01*
X129905000Y-59908000D02*
X129905000Y-56008000D01*
X127905000Y-59908000D02*
X129905000Y-59908000D01*
X123502748Y-62330000D02*
X124025252Y-62330000D01*
X123502748Y-60860000D02*
X124025252Y-60860000D01*
X123075248Y-66257000D02*
X124497752Y-66257000D01*
X123075248Y-63537000D02*
X124497752Y-63537000D01*
X129503000Y-63830252D02*
X129503000Y-62407748D01*
X126783000Y-63830252D02*
X126783000Y-62407748D01*
X134569252Y-65188000D02*
X133146748Y-65188000D01*
X134569252Y-67908000D02*
X133146748Y-67908000D01*
X80870000Y-60730000D02*
X82200000Y-60730000D01*
X80870000Y-62060000D02*
X80870000Y-60730000D01*
X80870000Y-63330000D02*
X83530000Y-63330000D01*
X83530000Y-63330000D02*
X83530000Y-129430000D01*
X80870000Y-63330000D02*
X80870000Y-129430000D01*
X80870000Y-129430000D02*
X83530000Y-129430000D01*
X140500000Y-30090000D02*
X146510000Y-30090000D01*
X142750000Y-36910000D02*
X146510000Y-36910000D01*
X146510000Y-30090000D02*
X146510000Y-31350000D01*
X146510000Y-36910000D02*
X146510000Y-35650000D01*
X134060000Y-36280000D02*
X132600000Y-36280000D01*
X134060000Y-33120000D02*
X131900000Y-33120000D01*
X134060000Y-33120000D02*
X134060000Y-34050000D01*
X134060000Y-36280000D02*
X134060000Y-35350000D01*
X122090000Y-46741422D02*
X122090000Y-47258578D01*
X123510000Y-46741422D02*
X123510000Y-47258578D01*
X122341422Y-43910000D02*
X122858578Y-43910000D01*
X122341422Y-42490000D02*
X122858578Y-42490000D01*
X133041422Y-38410000D02*
X133558578Y-38410000D01*
X133041422Y-36990000D02*
X133558578Y-36990000D01*
X88090000Y-127541422D02*
X88090000Y-128058578D01*
X89510000Y-127541422D02*
X89510000Y-128058578D01*
X89990000Y-127541422D02*
X89990000Y-128058578D01*
X91410000Y-127541422D02*
X91410000Y-128058578D01*
X86190000Y-127578922D02*
X86190000Y-128096078D01*
X87610000Y-127578922D02*
X87610000Y-128096078D01*
X84290000Y-127578922D02*
X84290000Y-128096078D01*
X85710000Y-127578922D02*
X85710000Y-128096078D01*
X89890000Y-45741422D02*
X89890000Y-46258578D01*
X91310000Y-45741422D02*
X91310000Y-46258578D01*
X89890000Y-39941422D02*
X89890000Y-40458578D01*
X91310000Y-39941422D02*
X91310000Y-40458578D01*
X86010000Y-120558578D02*
X86010000Y-120041422D01*
X84590000Y-120558578D02*
X84590000Y-120041422D01*
X98041422Y-59710000D02*
X98558578Y-59710000D01*
X98041422Y-58290000D02*
X98558578Y-58290000D01*
X102490000Y-65841422D02*
X102490000Y-66358578D01*
X103910000Y-65841422D02*
X103910000Y-66358578D01*
X124550000Y-41900000D02*
X120650000Y-41900000D01*
X124550000Y-39900000D02*
X120650000Y-39900000D01*
X124550000Y-41900000D02*
X124550000Y-39900000D01*
X117190000Y-44841422D02*
X117190000Y-45358578D01*
X118610000Y-44841422D02*
X118610000Y-45358578D01*
X87490000Y-55541422D02*
X87490000Y-56058578D01*
X88910000Y-55541422D02*
X88910000Y-56058578D01*
X113341422Y-61910000D02*
X113858578Y-61910000D01*
X113341422Y-60490000D02*
X113858578Y-60490000D01*
X146990000Y-38841422D02*
X146990000Y-39358578D01*
X148410000Y-38841422D02*
X148410000Y-39358578D01*
X143741422Y-39010000D02*
X144258578Y-39010000D01*
X143741422Y-37590000D02*
X144258578Y-37590000D01*
D10*
X89350000Y-60550000D02*
X89350000Y-54575000D01*
X96250000Y-59025000D02*
X96250000Y-54575000D01*
D11*
X107241422Y-44010000D02*
X107758578Y-44010000D01*
X107241422Y-42590000D02*
X107758578Y-42590000D01*
D10*
X111950000Y-62950000D02*
X111950000Y-68925000D01*
X105050000Y-64475000D02*
X105050000Y-68925000D01*
D11*
X137597000Y-44706000D02*
X137597000Y-46166000D01*
X134437000Y-44706000D02*
X134437000Y-46866000D01*
X134437000Y-44706000D02*
X135367000Y-44706000D01*
X137597000Y-44706000D02*
X136667000Y-44706000D01*
X128080000Y-46040000D02*
X128080000Y-47500000D01*
X124920000Y-46040000D02*
X124920000Y-48200000D01*
X124920000Y-46040000D02*
X125850000Y-46040000D01*
X128080000Y-46040000D02*
X127150000Y-46040000D01*
X126758578Y-42190000D02*
X126241422Y-42190000D01*
X126758578Y-43610000D02*
X126241422Y-43610000D01*
X84870000Y-38490000D02*
X84870000Y-41600000D01*
X87530000Y-41030000D02*
X87530000Y-41600000D01*
X84870000Y-36400000D02*
X84870000Y-36970000D01*
X84870000Y-36970000D02*
X83350000Y-36970000D01*
X87530000Y-36400000D02*
X87530000Y-39510000D01*
X84870000Y-41600000D02*
X87530000Y-41600000D01*
X84870000Y-36400000D02*
X87530000Y-36400000D01*
X97630000Y-41670000D02*
X97630000Y-40400000D01*
X98900000Y-41670000D02*
X97630000Y-41670000D01*
X117060000Y-39357071D02*
X117060000Y-38902929D01*
X116300000Y-39357071D02*
X116300000Y-38902929D01*
X117060000Y-36817071D02*
X117060000Y-36420000D01*
X116300000Y-36817071D02*
X116300000Y-36420000D01*
X117060000Y-27760000D02*
X117060000Y-33760000D01*
X116300000Y-27760000D02*
X117060000Y-27760000D01*
X116300000Y-33760000D02*
X116300000Y-27760000D01*
X115410000Y-36420000D02*
X115410000Y-33760000D01*
X114520000Y-39357071D02*
X114520000Y-38902929D01*
X113760000Y-39357071D02*
X113760000Y-38902929D01*
X114520000Y-36817071D02*
X114520000Y-36420000D01*
X113760000Y-36817071D02*
X113760000Y-36420000D01*
X114520000Y-27760000D02*
X114520000Y-33760000D01*
X113760000Y-27760000D02*
X114520000Y-27760000D01*
X113760000Y-33760000D02*
X113760000Y-27760000D01*
X112870000Y-36420000D02*
X112870000Y-33760000D01*
X111980000Y-39357071D02*
X111980000Y-38902929D01*
X111220000Y-39357071D02*
X111220000Y-38902929D01*
X111980000Y-36817071D02*
X111980000Y-36420000D01*
X111220000Y-36817071D02*
X111220000Y-36420000D01*
X111980000Y-27760000D02*
X111980000Y-33760000D01*
X111220000Y-27760000D02*
X111980000Y-27760000D01*
X111220000Y-33760000D02*
X111220000Y-27760000D01*
X110330000Y-36420000D02*
X110330000Y-33760000D01*
X109440000Y-39357071D02*
X109440000Y-38902929D01*
X108680000Y-39357071D02*
X108680000Y-38902929D01*
X109440000Y-36817071D02*
X109440000Y-36420000D01*
X108680000Y-36817071D02*
X108680000Y-36420000D01*
X109440000Y-27760000D02*
X109440000Y-33760000D01*
X108680000Y-27760000D02*
X109440000Y-27760000D01*
X108680000Y-33760000D02*
X108680000Y-27760000D01*
X107790000Y-36420000D02*
X107790000Y-33760000D01*
X106900000Y-39357071D02*
X106900000Y-38902929D01*
X106140000Y-39357071D02*
X106140000Y-38902929D01*
X106900000Y-36817071D02*
X106900000Y-36420000D01*
X106140000Y-36817071D02*
X106140000Y-36420000D01*
X106900000Y-27760000D02*
X106900000Y-33760000D01*
X106140000Y-27760000D02*
X106900000Y-27760000D01*
X106140000Y-33760000D02*
X106140000Y-27760000D01*
X105250000Y-36420000D02*
X105250000Y-33760000D01*
X104360000Y-39357071D02*
X104360000Y-38902929D01*
X103600000Y-39357071D02*
X103600000Y-38902929D01*
X104360000Y-36817071D02*
X104360000Y-36420000D01*
X103600000Y-36817071D02*
X103600000Y-36420000D01*
X104360000Y-27760000D02*
X104360000Y-33760000D01*
X103600000Y-27760000D02*
X104360000Y-27760000D01*
X103600000Y-33760000D02*
X103600000Y-27760000D01*
X102710000Y-36420000D02*
X102710000Y-33760000D01*
X101820000Y-39357071D02*
X101820000Y-38902929D01*
X101060000Y-39357071D02*
X101060000Y-38902929D01*
X101820000Y-36817071D02*
X101820000Y-36420000D01*
X101060000Y-36817071D02*
X101060000Y-36420000D01*
X101820000Y-27760000D02*
X101820000Y-33760000D01*
X101060000Y-27760000D02*
X101820000Y-27760000D01*
X101060000Y-33760000D02*
X101060000Y-27760000D01*
X100170000Y-36420000D02*
X100170000Y-33760000D01*
X99280000Y-39290000D02*
X99280000Y-38902929D01*
X98520000Y-39290000D02*
X98520000Y-38902929D01*
X99280000Y-36817071D02*
X99280000Y-36420000D01*
X98520000Y-36817071D02*
X98520000Y-36420000D01*
X99180000Y-33760000D02*
X99180000Y-27760000D01*
X99060000Y-33760000D02*
X99060000Y-27760000D01*
X98940000Y-33760000D02*
X98940000Y-27760000D01*
X98820000Y-33760000D02*
X98820000Y-27760000D01*
X98700000Y-33760000D02*
X98700000Y-27760000D01*
X98580000Y-33760000D02*
X98580000Y-27760000D01*
X99280000Y-27760000D02*
X99280000Y-33760000D01*
X98520000Y-27760000D02*
X99280000Y-27760000D01*
X98520000Y-33760000D02*
X98520000Y-27760000D01*
X97570000Y-33760000D02*
X97570000Y-36420000D01*
X118010000Y-33760000D02*
X97570000Y-33760000D01*
X118010000Y-36420000D02*
X118010000Y-33760000D01*
X97570000Y-36420000D02*
X118010000Y-36420000D01*
X92330000Y-107430000D02*
X93600000Y-107430000D01*
X92330000Y-108700000D02*
X92330000Y-107430000D01*
X94642929Y-108340000D02*
X95097071Y-108340000D01*
X94642929Y-109100000D02*
X95097071Y-109100000D01*
X97182929Y-126860000D02*
X97580000Y-126860000D01*
X97182929Y-126100000D02*
X97580000Y-126100000D01*
X106240000Y-126860000D02*
X100240000Y-126860000D01*
X106240000Y-126100000D02*
X106240000Y-126860000D01*
X100240000Y-126100000D02*
X106240000Y-126100000D01*
X97580000Y-125210000D02*
X100240000Y-125210000D01*
X94642929Y-110880000D02*
X95097071Y-110880000D01*
X94642929Y-111640000D02*
X95097071Y-111640000D01*
X97182929Y-124320000D02*
X97580000Y-124320000D01*
X97182929Y-123560000D02*
X97580000Y-123560000D01*
X106240000Y-124320000D02*
X100240000Y-124320000D01*
X106240000Y-123560000D02*
X106240000Y-124320000D01*
X100240000Y-123560000D02*
X106240000Y-123560000D01*
X97580000Y-122670000D02*
X100240000Y-122670000D01*
X94642929Y-113420000D02*
X95097071Y-113420000D01*
X94642929Y-114180000D02*
X95097071Y-114180000D01*
X97182929Y-121780000D02*
X97580000Y-121780000D01*
X97182929Y-121020000D02*
X97580000Y-121020000D01*
X106240000Y-121780000D02*
X100240000Y-121780000D01*
X106240000Y-121020000D02*
X106240000Y-121780000D01*
X100240000Y-121020000D02*
X106240000Y-121020000D01*
X97580000Y-120130000D02*
X100240000Y-120130000D01*
X94642929Y-115960000D02*
X95097071Y-115960000D01*
X94642929Y-116720000D02*
X95097071Y-116720000D01*
X97182929Y-119240000D02*
X97580000Y-119240000D01*
X97182929Y-118480000D02*
X97580000Y-118480000D01*
X106240000Y-119240000D02*
X100240000Y-119240000D01*
X106240000Y-118480000D02*
X106240000Y-119240000D01*
X100240000Y-118480000D02*
X106240000Y-118480000D01*
X97580000Y-117590000D02*
X100240000Y-117590000D01*
X94642929Y-118500000D02*
X95097071Y-118500000D01*
X94642929Y-119260000D02*
X95097071Y-119260000D01*
X97182929Y-116700000D02*
X97580000Y-116700000D01*
X97182929Y-115940000D02*
X97580000Y-115940000D01*
X106240000Y-116700000D02*
X100240000Y-116700000D01*
X106240000Y-115940000D02*
X106240000Y-116700000D01*
X100240000Y-115940000D02*
X106240000Y-115940000D01*
X97580000Y-115050000D02*
X100240000Y-115050000D01*
X94642929Y-121040000D02*
X95097071Y-121040000D01*
X94642929Y-121800000D02*
X95097071Y-121800000D01*
X97182929Y-114160000D02*
X97580000Y-114160000D01*
X97182929Y-113400000D02*
X97580000Y-113400000D01*
X106240000Y-114160000D02*
X100240000Y-114160000D01*
X106240000Y-113400000D02*
X106240000Y-114160000D01*
X100240000Y-113400000D02*
X106240000Y-113400000D01*
X97580000Y-112510000D02*
X100240000Y-112510000D01*
X94642929Y-123580000D02*
X95097071Y-123580000D01*
X94642929Y-124340000D02*
X95097071Y-124340000D01*
X97182929Y-111620000D02*
X97580000Y-111620000D01*
X97182929Y-110860000D02*
X97580000Y-110860000D01*
X106240000Y-111620000D02*
X100240000Y-111620000D01*
X106240000Y-110860000D02*
X106240000Y-111620000D01*
X100240000Y-110860000D02*
X106240000Y-110860000D01*
X97580000Y-109970000D02*
X100240000Y-109970000D01*
X94710000Y-126120000D02*
X95097071Y-126120000D01*
X94710000Y-126880000D02*
X95097071Y-126880000D01*
X97182929Y-109080000D02*
X97580000Y-109080000D01*
X97182929Y-108320000D02*
X97580000Y-108320000D01*
X100240000Y-108980000D02*
X106240000Y-108980000D01*
X100240000Y-108860000D02*
X106240000Y-108860000D01*
X100240000Y-108740000D02*
X106240000Y-108740000D01*
X100240000Y-108620000D02*
X106240000Y-108620000D01*
X100240000Y-108500000D02*
X106240000Y-108500000D01*
X100240000Y-108380000D02*
X106240000Y-108380000D01*
X106240000Y-109080000D02*
X100240000Y-109080000D01*
X106240000Y-108320000D02*
X106240000Y-109080000D01*
X100240000Y-108320000D02*
X106240000Y-108320000D01*
X100240000Y-107370000D02*
X97580000Y-107370000D01*
X100240000Y-127810000D02*
X100240000Y-107370000D01*
X97580000Y-127810000D02*
X100240000Y-127810000D01*
X97580000Y-107370000D02*
X97580000Y-127810000D01*
X92380000Y-80830000D02*
X93650000Y-80830000D01*
X92380000Y-82100000D02*
X92380000Y-80830000D01*
X94692929Y-81740000D02*
X95147071Y-81740000D01*
X94692929Y-82500000D02*
X95147071Y-82500000D01*
X97232929Y-100260000D02*
X97630000Y-100260000D01*
X97232929Y-99500000D02*
X97630000Y-99500000D01*
X106290000Y-100260000D02*
X100290000Y-100260000D01*
X106290000Y-99500000D02*
X106290000Y-100260000D01*
X100290000Y-99500000D02*
X106290000Y-99500000D01*
X97630000Y-98610000D02*
X100290000Y-98610000D01*
X94692929Y-84280000D02*
X95147071Y-84280000D01*
X94692929Y-85040000D02*
X95147071Y-85040000D01*
X97232929Y-97720000D02*
X97630000Y-97720000D01*
X97232929Y-96960000D02*
X97630000Y-96960000D01*
X106290000Y-97720000D02*
X100290000Y-97720000D01*
X106290000Y-96960000D02*
X106290000Y-97720000D01*
X100290000Y-96960000D02*
X106290000Y-96960000D01*
X97630000Y-96070000D02*
X100290000Y-96070000D01*
X94692929Y-86820000D02*
X95147071Y-86820000D01*
X94692929Y-87580000D02*
X95147071Y-87580000D01*
X97232929Y-95180000D02*
X97630000Y-95180000D01*
X97232929Y-94420000D02*
X97630000Y-94420000D01*
X106290000Y-95180000D02*
X100290000Y-95180000D01*
X106290000Y-94420000D02*
X106290000Y-95180000D01*
X100290000Y-94420000D02*
X106290000Y-94420000D01*
X97630000Y-93530000D02*
X100290000Y-93530000D01*
X94692929Y-89360000D02*
X95147071Y-89360000D01*
X94692929Y-90120000D02*
X95147071Y-90120000D01*
X97232929Y-92640000D02*
X97630000Y-92640000D01*
X97232929Y-91880000D02*
X97630000Y-91880000D01*
X106290000Y-92640000D02*
X100290000Y-92640000D01*
X106290000Y-91880000D02*
X106290000Y-92640000D01*
X100290000Y-91880000D02*
X106290000Y-91880000D01*
X97630000Y-90990000D02*
X100290000Y-90990000D01*
X94692929Y-91900000D02*
X95147071Y-91900000D01*
X94692929Y-92660000D02*
X95147071Y-92660000D01*
X97232929Y-90100000D02*
X97630000Y-90100000D01*
X97232929Y-89340000D02*
X97630000Y-89340000D01*
X106290000Y-90100000D02*
X100290000Y-90100000D01*
X106290000Y-89340000D02*
X106290000Y-90100000D01*
X100290000Y-89340000D02*
X106290000Y-89340000D01*
X97630000Y-88450000D02*
X100290000Y-88450000D01*
X94692929Y-94440000D02*
X95147071Y-94440000D01*
X94692929Y-95200000D02*
X95147071Y-95200000D01*
X97232929Y-87560000D02*
X97630000Y-87560000D01*
X97232929Y-86800000D02*
X97630000Y-86800000D01*
X106290000Y-87560000D02*
X100290000Y-87560000D01*
X106290000Y-86800000D02*
X106290000Y-87560000D01*
X100290000Y-86800000D02*
X106290000Y-86800000D01*
X97630000Y-85910000D02*
X100290000Y-85910000D01*
X94692929Y-96980000D02*
X95147071Y-96980000D01*
X94692929Y-97740000D02*
X95147071Y-97740000D01*
X97232929Y-85020000D02*
X97630000Y-85020000D01*
X97232929Y-84260000D02*
X97630000Y-84260000D01*
X106290000Y-85020000D02*
X100290000Y-85020000D01*
X106290000Y-84260000D02*
X106290000Y-85020000D01*
X100290000Y-84260000D02*
X106290000Y-84260000D01*
X97630000Y-83370000D02*
X100290000Y-83370000D01*
X94760000Y-99520000D02*
X95147071Y-99520000D01*
X94760000Y-100280000D02*
X95147071Y-100280000D01*
X97232929Y-82480000D02*
X97630000Y-82480000D01*
X97232929Y-81720000D02*
X97630000Y-81720000D01*
X100290000Y-82380000D02*
X106290000Y-82380000D01*
X100290000Y-82260000D02*
X106290000Y-82260000D01*
X100290000Y-82140000D02*
X106290000Y-82140000D01*
X100290000Y-82020000D02*
X106290000Y-82020000D01*
X100290000Y-81900000D02*
X106290000Y-81900000D01*
X100290000Y-81780000D02*
X106290000Y-81780000D01*
X106290000Y-82480000D02*
X100290000Y-82480000D01*
X106290000Y-81720000D02*
X106290000Y-82480000D01*
X100290000Y-81720000D02*
X106290000Y-81720000D01*
X100290000Y-80770000D02*
X97630000Y-80770000D01*
X100290000Y-101210000D02*
X100290000Y-80770000D01*
X97630000Y-101210000D02*
X100290000Y-101210000D01*
X97630000Y-80770000D02*
X97630000Y-101210000D01*
X113000000Y-43240000D02*
X109550000Y-43240000D01*
X113000000Y-43240000D02*
X114950000Y-43240000D01*
X113000000Y-48360000D02*
X111050000Y-48360000D01*
X113000000Y-48360000D02*
X114950000Y-48360000D01*
X102000000Y-43240000D02*
X98550000Y-43240000D01*
X102000000Y-43240000D02*
X103950000Y-43240000D01*
X102000000Y-48360000D02*
X100050000Y-48360000D01*
X102000000Y-48360000D02*
X103950000Y-48360000D01*
X112160000Y-56300000D02*
X112160000Y-52850000D01*
X112160000Y-56300000D02*
X112160000Y-58250000D01*
X102040000Y-56300000D02*
X102040000Y-54350000D01*
X102040000Y-56300000D02*
X102040000Y-58250000D01*
X79470000Y-29970000D02*
X80800000Y-29970000D01*
X79470000Y-31300000D02*
X79470000Y-29970000D01*
X79470000Y-32570000D02*
X82130000Y-32570000D01*
X82130000Y-32570000D02*
X82130000Y-58030000D01*
X79470000Y-32570000D02*
X79470000Y-58030000D01*
X79470000Y-58030000D02*
X82130000Y-58030000D01*
X87141422Y-60510000D02*
X87658578Y-60510000D01*
X87141422Y-59090000D02*
X87658578Y-59090000D01*
X114410000Y-66758578D02*
X114410000Y-66241422D01*
X112990000Y-66758578D02*
X112990000Y-66241422D01*
X97790000Y-62441422D02*
X97790000Y-62958578D01*
X99210000Y-62441422D02*
X99210000Y-62958578D01*
D10*
X135032904Y-63587380D02*
X135032904Y-64396904D01*
X135080523Y-64492142D01*
X135128142Y-64539761D01*
X135223380Y-64587380D01*
X135413857Y-64587380D01*
X135509095Y-64539761D01*
X135556714Y-64492142D01*
X135604333Y-64396904D01*
X135604333Y-63587380D01*
X136604333Y-64587380D02*
X136032904Y-64587380D01*
X136318619Y-64587380D02*
X136318619Y-63587380D01*
X136223380Y-63730238D01*
X136128142Y-63825476D01*
X136032904Y-63873095D01*
X137461476Y-63587380D02*
X137271000Y-63587380D01*
X137175761Y-63635000D01*
X137128142Y-63682619D01*
X137032904Y-63825476D01*
X136985285Y-64015952D01*
X136985285Y-64396904D01*
X137032904Y-64492142D01*
X137080523Y-64539761D01*
X137175761Y-64587380D01*
X137366238Y-64587380D01*
X137461476Y-64539761D01*
X137509095Y-64492142D01*
X137556714Y-64396904D01*
X137556714Y-64158809D01*
X137509095Y-64063571D01*
X137461476Y-64015952D01*
X137366238Y-63968333D01*
X137175761Y-63968333D01*
X137080523Y-64015952D01*
X137032904Y-64063571D01*
X136985285Y-64158809D01*
X129294095Y-73239380D02*
X129865523Y-73239380D01*
X129579809Y-74239380D02*
X129579809Y-73239380D01*
X130770285Y-74239380D02*
X130436952Y-73763190D01*
X130198857Y-74239380D02*
X130198857Y-73239380D01*
X130579809Y-73239380D01*
X130675047Y-73287000D01*
X130722666Y-73334619D01*
X130770285Y-73429857D01*
X130770285Y-73572714D01*
X130722666Y-73667952D01*
X130675047Y-73715571D01*
X130579809Y-73763190D01*
X130198857Y-73763190D01*
X131103619Y-73239380D02*
X131770285Y-73239380D01*
X131341714Y-74239380D01*
X141105095Y-61682380D02*
X141676523Y-61682380D01*
X141390809Y-62682380D02*
X141390809Y-61682380D01*
X142581285Y-62682380D02*
X142247952Y-62206190D01*
X142009857Y-62682380D02*
X142009857Y-61682380D01*
X142390809Y-61682380D01*
X142486047Y-61730000D01*
X142533666Y-61777619D01*
X142581285Y-61872857D01*
X142581285Y-62015714D01*
X142533666Y-62110952D01*
X142486047Y-62158571D01*
X142390809Y-62206190D01*
X142009857Y-62206190D01*
X143438428Y-61682380D02*
X143247952Y-61682380D01*
X143152714Y-61730000D01*
X143105095Y-61777619D01*
X143009857Y-61920476D01*
X142962238Y-62110952D01*
X142962238Y-62491904D01*
X143009857Y-62587142D01*
X143057476Y-62634761D01*
X143152714Y-62682380D01*
X143343190Y-62682380D01*
X143438428Y-62634761D01*
X143486047Y-62587142D01*
X143533666Y-62491904D01*
X143533666Y-62253809D01*
X143486047Y-62158571D01*
X143438428Y-62110952D01*
X143343190Y-62063333D01*
X143152714Y-62063333D01*
X143057476Y-62110952D01*
X143009857Y-62158571D01*
X142962238Y-62253809D01*
X143121142Y-66365380D02*
X142787809Y-65889190D01*
X142549714Y-66365380D02*
X142549714Y-65365380D01*
X142930666Y-65365380D01*
X143025904Y-65413000D01*
X143073523Y-65460619D01*
X143121142Y-65555857D01*
X143121142Y-65698714D01*
X143073523Y-65793952D01*
X143025904Y-65841571D01*
X142930666Y-65889190D01*
X142549714Y-65889190D01*
X144025904Y-65365380D02*
X143549714Y-65365380D01*
X143502095Y-65841571D01*
X143549714Y-65793952D01*
X143644952Y-65746333D01*
X143883047Y-65746333D01*
X143978285Y-65793952D01*
X144025904Y-65841571D01*
X144073523Y-65936809D01*
X144073523Y-66174904D01*
X144025904Y-66270142D01*
X143978285Y-66317761D01*
X143883047Y-66365380D01*
X143644952Y-66365380D01*
X143549714Y-66317761D01*
X143502095Y-66270142D01*
X145025904Y-66365380D02*
X144454476Y-66365380D01*
X144740190Y-66365380D02*
X144740190Y-65365380D01*
X144644952Y-65508238D01*
X144549714Y-65603476D01*
X144454476Y-65651095D01*
X142994142Y-72334380D02*
X142660809Y-71858190D01*
X142422714Y-72334380D02*
X142422714Y-71334380D01*
X142803666Y-71334380D01*
X142898904Y-71382000D01*
X142946523Y-71429619D01*
X142994142Y-71524857D01*
X142994142Y-71667714D01*
X142946523Y-71762952D01*
X142898904Y-71810571D01*
X142803666Y-71858190D01*
X142422714Y-71858190D01*
X143898904Y-71334380D02*
X143422714Y-71334380D01*
X143375095Y-71810571D01*
X143422714Y-71762952D01*
X143517952Y-71715333D01*
X143756047Y-71715333D01*
X143851285Y-71762952D01*
X143898904Y-71810571D01*
X143946523Y-71905809D01*
X143946523Y-72143904D01*
X143898904Y-72239142D01*
X143851285Y-72286761D01*
X143756047Y-72334380D01*
X143517952Y-72334380D01*
X143422714Y-72286761D01*
X143375095Y-72239142D01*
X144565571Y-71334380D02*
X144660809Y-71334380D01*
X144756047Y-71382000D01*
X144803666Y-71429619D01*
X144851285Y-71524857D01*
X144898904Y-71715333D01*
X144898904Y-71953428D01*
X144851285Y-72143904D01*
X144803666Y-72239142D01*
X144756047Y-72286761D01*
X144660809Y-72334380D01*
X144565571Y-72334380D01*
X144470333Y-72286761D01*
X144422714Y-72239142D01*
X144375095Y-72143904D01*
X144327476Y-71953428D01*
X144327476Y-71715333D01*
X144375095Y-71524857D01*
X144422714Y-71429619D01*
X144470333Y-71382000D01*
X144565571Y-71334380D01*
X137025142Y-68906380D02*
X136691809Y-68430190D01*
X136453714Y-68906380D02*
X136453714Y-67906380D01*
X136834666Y-67906380D01*
X136929904Y-67954000D01*
X136977523Y-68001619D01*
X137025142Y-68096857D01*
X137025142Y-68239714D01*
X136977523Y-68334952D01*
X136929904Y-68382571D01*
X136834666Y-68430190D01*
X136453714Y-68430190D01*
X137882285Y-68239714D02*
X137882285Y-68906380D01*
X137644190Y-67858761D02*
X137406095Y-68573047D01*
X138025142Y-68573047D01*
X138453714Y-68906380D02*
X138644190Y-68906380D01*
X138739428Y-68858761D01*
X138787047Y-68811142D01*
X138882285Y-68668285D01*
X138929904Y-68477809D01*
X138929904Y-68096857D01*
X138882285Y-68001619D01*
X138834666Y-67954000D01*
X138739428Y-67906380D01*
X138548952Y-67906380D01*
X138453714Y-67954000D01*
X138406095Y-68001619D01*
X138358476Y-68096857D01*
X138358476Y-68334952D01*
X138406095Y-68430190D01*
X138453714Y-68477809D01*
X138548952Y-68525428D01*
X138739428Y-68525428D01*
X138834666Y-68477809D01*
X138882285Y-68430190D01*
X138929904Y-68334952D01*
X130675142Y-72207380D02*
X130341809Y-71731190D01*
X130103714Y-72207380D02*
X130103714Y-71207380D01*
X130484666Y-71207380D01*
X130579904Y-71255000D01*
X130627523Y-71302619D01*
X130675142Y-71397857D01*
X130675142Y-71540714D01*
X130627523Y-71635952D01*
X130579904Y-71683571D01*
X130484666Y-71731190D01*
X130103714Y-71731190D01*
X131532285Y-71540714D02*
X131532285Y-72207380D01*
X131294190Y-71159761D02*
X131056095Y-71874047D01*
X131675142Y-71874047D01*
X132198952Y-71635952D02*
X132103714Y-71588333D01*
X132056095Y-71540714D01*
X132008476Y-71445476D01*
X132008476Y-71397857D01*
X132056095Y-71302619D01*
X132103714Y-71255000D01*
X132198952Y-71207380D01*
X132389428Y-71207380D01*
X132484666Y-71255000D01*
X132532285Y-71302619D01*
X132579904Y-71397857D01*
X132579904Y-71445476D01*
X132532285Y-71540714D01*
X132484666Y-71588333D01*
X132389428Y-71635952D01*
X132198952Y-71635952D01*
X132103714Y-71683571D01*
X132056095Y-71731190D01*
X132008476Y-71826428D01*
X132008476Y-72016904D01*
X132056095Y-72112142D01*
X132103714Y-72159761D01*
X132198952Y-72207380D01*
X132389428Y-72207380D01*
X132484666Y-72159761D01*
X132532285Y-72112142D01*
X132579904Y-72016904D01*
X132579904Y-71826428D01*
X132532285Y-71731190D01*
X132484666Y-71683571D01*
X132389428Y-71635952D01*
X126611142Y-72461380D02*
X126277809Y-71985190D01*
X126039714Y-72461380D02*
X126039714Y-71461380D01*
X126420666Y-71461380D01*
X126515904Y-71509000D01*
X126563523Y-71556619D01*
X126611142Y-71651857D01*
X126611142Y-71794714D01*
X126563523Y-71889952D01*
X126515904Y-71937571D01*
X126420666Y-71985190D01*
X126039714Y-71985190D01*
X127468285Y-71794714D02*
X127468285Y-72461380D01*
X127230190Y-71413761D02*
X126992095Y-72128047D01*
X127611142Y-72128047D01*
X127896857Y-71461380D02*
X128563523Y-71461380D01*
X128134952Y-72461380D01*
X125468142Y-67508380D02*
X125134809Y-67032190D01*
X124896714Y-67508380D02*
X124896714Y-66508380D01*
X125277666Y-66508380D01*
X125372904Y-66556000D01*
X125420523Y-66603619D01*
X125468142Y-66698857D01*
X125468142Y-66841714D01*
X125420523Y-66936952D01*
X125372904Y-66984571D01*
X125277666Y-67032190D01*
X124896714Y-67032190D01*
X126325285Y-66841714D02*
X126325285Y-67508380D01*
X126087190Y-66460761D02*
X125849095Y-67175047D01*
X126468142Y-67175047D01*
X127277666Y-66508380D02*
X127087190Y-66508380D01*
X126991952Y-66556000D01*
X126944333Y-66603619D01*
X126849095Y-66746476D01*
X126801476Y-66936952D01*
X126801476Y-67317904D01*
X126849095Y-67413142D01*
X126896714Y-67460761D01*
X126991952Y-67508380D01*
X127182428Y-67508380D01*
X127277666Y-67460761D01*
X127325285Y-67413142D01*
X127372904Y-67317904D01*
X127372904Y-67079809D01*
X127325285Y-66984571D01*
X127277666Y-66936952D01*
X127182428Y-66889333D01*
X126991952Y-66889333D01*
X126896714Y-66936952D01*
X126849095Y-66984571D01*
X126801476Y-67079809D01*
X140327142Y-58237380D02*
X139993809Y-57761190D01*
X139755714Y-58237380D02*
X139755714Y-57237380D01*
X140136666Y-57237380D01*
X140231904Y-57285000D01*
X140279523Y-57332619D01*
X140327142Y-57427857D01*
X140327142Y-57570714D01*
X140279523Y-57665952D01*
X140231904Y-57713571D01*
X140136666Y-57761190D01*
X139755714Y-57761190D01*
X141184285Y-57570714D02*
X141184285Y-58237380D01*
X140946190Y-57189761D02*
X140708095Y-57904047D01*
X141327142Y-57904047D01*
X142184285Y-57237380D02*
X141708095Y-57237380D01*
X141660476Y-57713571D01*
X141708095Y-57665952D01*
X141803333Y-57618333D01*
X142041428Y-57618333D01*
X142136666Y-57665952D01*
X142184285Y-57713571D01*
X142231904Y-57808809D01*
X142231904Y-58046904D01*
X142184285Y-58142142D01*
X142136666Y-58189761D01*
X142041428Y-58237380D01*
X141803333Y-58237380D01*
X141708095Y-58189761D01*
X141660476Y-58142142D01*
X129500333Y-54173380D02*
X129024142Y-54173380D01*
X129024142Y-53173380D01*
X129786047Y-53268619D02*
X129833666Y-53221000D01*
X129928904Y-53173380D01*
X130167000Y-53173380D01*
X130262238Y-53221000D01*
X130309857Y-53268619D01*
X130357476Y-53363857D01*
X130357476Y-53459095D01*
X130309857Y-53601952D01*
X129738428Y-54173380D01*
X130357476Y-54173380D01*
X123880666Y-70213380D02*
X123880666Y-70927666D01*
X123833047Y-71070523D01*
X123737809Y-71165761D01*
X123594952Y-71213380D01*
X123499714Y-71213380D01*
X124356857Y-71213380D02*
X124356857Y-70213380D01*
X124737809Y-70213380D01*
X124833047Y-70261000D01*
X124880666Y-70308619D01*
X124928285Y-70403857D01*
X124928285Y-70546714D01*
X124880666Y-70641952D01*
X124833047Y-70689571D01*
X124737809Y-70737190D01*
X124356857Y-70737190D01*
X125261619Y-70213380D02*
X125928285Y-70213380D01*
X125499714Y-71213380D01*
X134929666Y-49871380D02*
X134929666Y-50585666D01*
X134882047Y-50728523D01*
X134786809Y-50823761D01*
X134643952Y-50871380D01*
X134548714Y-50871380D01*
X135405857Y-50871380D02*
X135405857Y-49871380D01*
X135786809Y-49871380D01*
X135882047Y-49919000D01*
X135929666Y-49966619D01*
X135977285Y-50061857D01*
X135977285Y-50204714D01*
X135929666Y-50299952D01*
X135882047Y-50347571D01*
X135786809Y-50395190D01*
X135405857Y-50395190D01*
X136834428Y-49871380D02*
X136643952Y-49871380D01*
X136548714Y-49919000D01*
X136501095Y-49966619D01*
X136405857Y-50109476D01*
X136358238Y-50299952D01*
X136358238Y-50680904D01*
X136405857Y-50776142D01*
X136453476Y-50823761D01*
X136548714Y-50871380D01*
X136739190Y-50871380D01*
X136834428Y-50823761D01*
X136882047Y-50776142D01*
X136929666Y-50680904D01*
X136929666Y-50442809D01*
X136882047Y-50347571D01*
X136834428Y-50299952D01*
X136739190Y-50252333D01*
X136548714Y-50252333D01*
X136453476Y-50299952D01*
X136405857Y-50347571D01*
X136358238Y-50442809D01*
X127357380Y-58872285D02*
X126357380Y-58872285D01*
X126357380Y-58634190D01*
X126405000Y-58491333D01*
X126500238Y-58396095D01*
X126595476Y-58348476D01*
X126785952Y-58300857D01*
X126928809Y-58300857D01*
X127119285Y-58348476D01*
X127214523Y-58396095D01*
X127309761Y-58491333D01*
X127357380Y-58634190D01*
X127357380Y-58872285D01*
X126452619Y-57919904D02*
X126405000Y-57872285D01*
X126357380Y-57777047D01*
X126357380Y-57538952D01*
X126405000Y-57443714D01*
X126452619Y-57396095D01*
X126547857Y-57348476D01*
X126643095Y-57348476D01*
X126785952Y-57396095D01*
X127357380Y-57967523D01*
X127357380Y-57348476D01*
X127357380Y-56396095D02*
X127357380Y-56967523D01*
X127357380Y-56681809D02*
X126357380Y-56681809D01*
X126500238Y-56777047D01*
X126595476Y-56872285D01*
X126643095Y-56967523D01*
X119880142Y-62079142D02*
X119832523Y-62126761D01*
X119689666Y-62174380D01*
X119594428Y-62174380D01*
X119451571Y-62126761D01*
X119356333Y-62031523D01*
X119308714Y-61936285D01*
X119261095Y-61745809D01*
X119261095Y-61602952D01*
X119308714Y-61412476D01*
X119356333Y-61317238D01*
X119451571Y-61222000D01*
X119594428Y-61174380D01*
X119689666Y-61174380D01*
X119832523Y-61222000D01*
X119880142Y-61269619D01*
X120213476Y-61174380D02*
X120832523Y-61174380D01*
X120499190Y-61555333D01*
X120642047Y-61555333D01*
X120737285Y-61602952D01*
X120784904Y-61650571D01*
X120832523Y-61745809D01*
X120832523Y-61983904D01*
X120784904Y-62079142D01*
X120737285Y-62126761D01*
X120642047Y-62174380D01*
X120356333Y-62174380D01*
X120261095Y-62126761D01*
X120213476Y-62079142D01*
X121451571Y-61174380D02*
X121546809Y-61174380D01*
X121642047Y-61222000D01*
X121689666Y-61269619D01*
X121737285Y-61364857D01*
X121784904Y-61555333D01*
X121784904Y-61793428D01*
X121737285Y-61983904D01*
X121689666Y-62079142D01*
X121642047Y-62126761D01*
X121546809Y-62174380D01*
X121451571Y-62174380D01*
X121356333Y-62126761D01*
X121308714Y-62079142D01*
X121261095Y-61983904D01*
X121213476Y-61793428D01*
X121213476Y-61555333D01*
X121261095Y-61364857D01*
X121308714Y-61269619D01*
X121356333Y-61222000D01*
X121451571Y-61174380D01*
X118864142Y-65381142D02*
X118816523Y-65428761D01*
X118673666Y-65476380D01*
X118578428Y-65476380D01*
X118435571Y-65428761D01*
X118340333Y-65333523D01*
X118292714Y-65238285D01*
X118245095Y-65047809D01*
X118245095Y-64904952D01*
X118292714Y-64714476D01*
X118340333Y-64619238D01*
X118435571Y-64524000D01*
X118578428Y-64476380D01*
X118673666Y-64476380D01*
X118816523Y-64524000D01*
X118864142Y-64571619D01*
X119245095Y-64571619D02*
X119292714Y-64524000D01*
X119387952Y-64476380D01*
X119626047Y-64476380D01*
X119721285Y-64524000D01*
X119768904Y-64571619D01*
X119816523Y-64666857D01*
X119816523Y-64762095D01*
X119768904Y-64904952D01*
X119197476Y-65476380D01*
X119816523Y-65476380D01*
X120292714Y-65476380D02*
X120483190Y-65476380D01*
X120578428Y-65428761D01*
X120626047Y-65381142D01*
X120721285Y-65238285D01*
X120768904Y-65047809D01*
X120768904Y-64666857D01*
X120721285Y-64571619D01*
X120673666Y-64524000D01*
X120578428Y-64476380D01*
X120387952Y-64476380D01*
X120292714Y-64524000D01*
X120245095Y-64571619D01*
X120197476Y-64666857D01*
X120197476Y-64904952D01*
X120245095Y-65000190D01*
X120292714Y-65047809D01*
X120387952Y-65095428D01*
X120578428Y-65095428D01*
X120673666Y-65047809D01*
X120721285Y-65000190D01*
X120768904Y-64904952D01*
X125849142Y-60301142D02*
X125801523Y-60348761D01*
X125658666Y-60396380D01*
X125563428Y-60396380D01*
X125420571Y-60348761D01*
X125325333Y-60253523D01*
X125277714Y-60158285D01*
X125230095Y-59967809D01*
X125230095Y-59824952D01*
X125277714Y-59634476D01*
X125325333Y-59539238D01*
X125420571Y-59444000D01*
X125563428Y-59396380D01*
X125658666Y-59396380D01*
X125801523Y-59444000D01*
X125849142Y-59491619D01*
X126230095Y-59491619D02*
X126277714Y-59444000D01*
X126372952Y-59396380D01*
X126611047Y-59396380D01*
X126706285Y-59444000D01*
X126753904Y-59491619D01*
X126801523Y-59586857D01*
X126801523Y-59682095D01*
X126753904Y-59824952D01*
X126182476Y-60396380D01*
X126801523Y-60396380D01*
X127372952Y-59824952D02*
X127277714Y-59777333D01*
X127230095Y-59729714D01*
X127182476Y-59634476D01*
X127182476Y-59586857D01*
X127230095Y-59491619D01*
X127277714Y-59444000D01*
X127372952Y-59396380D01*
X127563428Y-59396380D01*
X127658666Y-59444000D01*
X127706285Y-59491619D01*
X127753904Y-59586857D01*
X127753904Y-59634476D01*
X127706285Y-59729714D01*
X127658666Y-59777333D01*
X127563428Y-59824952D01*
X127372952Y-59824952D01*
X127277714Y-59872571D01*
X127230095Y-59920190D01*
X127182476Y-60015428D01*
X127182476Y-60205904D01*
X127230095Y-60301142D01*
X127277714Y-60348761D01*
X127372952Y-60396380D01*
X127563428Y-60396380D01*
X127658666Y-60348761D01*
X127706285Y-60301142D01*
X127753904Y-60205904D01*
X127753904Y-60015428D01*
X127706285Y-59920190D01*
X127658666Y-59872571D01*
X127563428Y-59824952D01*
X137279142Y-66016142D02*
X137231523Y-66063761D01*
X137088666Y-66111380D01*
X136993428Y-66111380D01*
X136850571Y-66063761D01*
X136755333Y-65968523D01*
X136707714Y-65873285D01*
X136660095Y-65682809D01*
X136660095Y-65539952D01*
X136707714Y-65349476D01*
X136755333Y-65254238D01*
X136850571Y-65159000D01*
X136993428Y-65111380D01*
X137088666Y-65111380D01*
X137231523Y-65159000D01*
X137279142Y-65206619D01*
X137660095Y-65206619D02*
X137707714Y-65159000D01*
X137802952Y-65111380D01*
X138041047Y-65111380D01*
X138136285Y-65159000D01*
X138183904Y-65206619D01*
X138231523Y-65301857D01*
X138231523Y-65397095D01*
X138183904Y-65539952D01*
X137612476Y-66111380D01*
X138231523Y-66111380D01*
X138564857Y-65111380D02*
X139231523Y-65111380D01*
X138802952Y-66111380D01*
X81866666Y-59182380D02*
X81866666Y-59896666D01*
X81819047Y-60039523D01*
X81723809Y-60134761D01*
X81580952Y-60182380D01*
X81485714Y-60182380D01*
X82247619Y-59182380D02*
X82866666Y-59182380D01*
X82533333Y-59563333D01*
X82676190Y-59563333D01*
X82771428Y-59610952D01*
X82819047Y-59658571D01*
X82866666Y-59753809D01*
X82866666Y-59991904D01*
X82819047Y-60087142D01*
X82771428Y-60134761D01*
X82676190Y-60182380D01*
X82390476Y-60182380D01*
X82295238Y-60134761D01*
X82247619Y-60087142D01*
X137638095Y-32952380D02*
X137638095Y-33761904D01*
X137685714Y-33857142D01*
X137733333Y-33904761D01*
X137828571Y-33952380D01*
X138019047Y-33952380D01*
X138114285Y-33904761D01*
X138161904Y-33857142D01*
X138209523Y-33761904D01*
X138209523Y-32952380D01*
X138828571Y-33380952D02*
X138733333Y-33333333D01*
X138685714Y-33285714D01*
X138638095Y-33190476D01*
X138638095Y-33142857D01*
X138685714Y-33047619D01*
X138733333Y-33000000D01*
X138828571Y-32952380D01*
X139019047Y-32952380D01*
X139114285Y-33000000D01*
X139161904Y-33047619D01*
X139209523Y-33142857D01*
X139209523Y-33190476D01*
X139161904Y-33285714D01*
X139114285Y-33333333D01*
X139019047Y-33380952D01*
X138828571Y-33380952D01*
X138733333Y-33428571D01*
X138685714Y-33476190D01*
X138638095Y-33571428D01*
X138638095Y-33761904D01*
X138685714Y-33857142D01*
X138733333Y-33904761D01*
X138828571Y-33952380D01*
X139019047Y-33952380D01*
X139114285Y-33904761D01*
X139161904Y-33857142D01*
X139209523Y-33761904D01*
X139209523Y-33571428D01*
X139161904Y-33476190D01*
X139114285Y-33428571D01*
X139019047Y-33380952D01*
X132038095Y-31652380D02*
X132609523Y-31652380D01*
X132323809Y-32652380D02*
X132323809Y-31652380D01*
X133514285Y-32652380D02*
X133180952Y-32176190D01*
X132942857Y-32652380D02*
X132942857Y-31652380D01*
X133323809Y-31652380D01*
X133419047Y-31700000D01*
X133466666Y-31747619D01*
X133514285Y-31842857D01*
X133514285Y-31985714D01*
X133466666Y-32080952D01*
X133419047Y-32128571D01*
X133323809Y-32176190D01*
X132942857Y-32176190D01*
X133895238Y-31747619D02*
X133942857Y-31700000D01*
X134038095Y-31652380D01*
X134276190Y-31652380D01*
X134371428Y-31700000D01*
X134419047Y-31747619D01*
X134466666Y-31842857D01*
X134466666Y-31938095D01*
X134419047Y-32080952D01*
X133847619Y-32652380D01*
X134466666Y-32652380D01*
X121352380Y-48342857D02*
X120876190Y-48676190D01*
X121352380Y-48914285D02*
X120352380Y-48914285D01*
X120352380Y-48533333D01*
X120400000Y-48438095D01*
X120447619Y-48390476D01*
X120542857Y-48342857D01*
X120685714Y-48342857D01*
X120780952Y-48390476D01*
X120828571Y-48438095D01*
X120876190Y-48533333D01*
X120876190Y-48914285D01*
X121352380Y-47390476D02*
X121352380Y-47961904D01*
X121352380Y-47676190D02*
X120352380Y-47676190D01*
X120495238Y-47771428D01*
X120590476Y-47866666D01*
X120638095Y-47961904D01*
X120685714Y-46533333D02*
X121352380Y-46533333D01*
X120304761Y-46771428D02*
X121019047Y-47009523D01*
X121019047Y-46390476D01*
X120552380Y-44442857D02*
X120076190Y-44776190D01*
X120552380Y-45014285D02*
X119552380Y-45014285D01*
X119552380Y-44633333D01*
X119600000Y-44538095D01*
X119647619Y-44490476D01*
X119742857Y-44442857D01*
X119885714Y-44442857D01*
X119980952Y-44490476D01*
X120028571Y-44538095D01*
X120076190Y-44633333D01*
X120076190Y-45014285D01*
X120552380Y-43490476D02*
X120552380Y-44061904D01*
X120552380Y-43776190D02*
X119552380Y-43776190D01*
X119695238Y-43871428D01*
X119790476Y-43966666D01*
X119838095Y-44061904D01*
X119552380Y-43157142D02*
X119552380Y-42538095D01*
X119933333Y-42871428D01*
X119933333Y-42728571D01*
X119980952Y-42633333D01*
X120028571Y-42585714D01*
X120123809Y-42538095D01*
X120361904Y-42538095D01*
X120457142Y-42585714D01*
X120504761Y-42633333D01*
X120552380Y-42728571D01*
X120552380Y-43014285D01*
X120504761Y-43109523D01*
X120457142Y-43157142D01*
X132482142Y-40052380D02*
X132148809Y-39576190D01*
X131910714Y-40052380D02*
X131910714Y-39052380D01*
X132291666Y-39052380D01*
X132386904Y-39100000D01*
X132434523Y-39147619D01*
X132482142Y-39242857D01*
X132482142Y-39385714D01*
X132434523Y-39480952D01*
X132386904Y-39528571D01*
X132291666Y-39576190D01*
X131910714Y-39576190D01*
X133434523Y-40052380D02*
X132863095Y-40052380D01*
X133148809Y-40052380D02*
X133148809Y-39052380D01*
X133053571Y-39195238D01*
X132958333Y-39290476D01*
X132863095Y-39338095D01*
X133815476Y-39147619D02*
X133863095Y-39100000D01*
X133958333Y-39052380D01*
X134196428Y-39052380D01*
X134291666Y-39100000D01*
X134339285Y-39147619D01*
X134386904Y-39242857D01*
X134386904Y-39338095D01*
X134339285Y-39480952D01*
X133767857Y-40052380D01*
X134386904Y-40052380D01*
X89152380Y-125342857D02*
X88676190Y-125676190D01*
X89152380Y-125914285D02*
X88152380Y-125914285D01*
X88152380Y-125533333D01*
X88200000Y-125438095D01*
X88247619Y-125390476D01*
X88342857Y-125342857D01*
X88485714Y-125342857D01*
X88580952Y-125390476D01*
X88628571Y-125438095D01*
X88676190Y-125533333D01*
X88676190Y-125914285D01*
X89152380Y-124390476D02*
X89152380Y-124961904D01*
X89152380Y-124676190D02*
X88152380Y-124676190D01*
X88295238Y-124771428D01*
X88390476Y-124866666D01*
X88438095Y-124961904D01*
X89152380Y-123438095D02*
X89152380Y-124009523D01*
X89152380Y-123723809D02*
X88152380Y-123723809D01*
X88295238Y-123819047D01*
X88390476Y-123914285D01*
X88438095Y-124009523D01*
X91252380Y-125142857D02*
X90776190Y-125476190D01*
X91252380Y-125714285D02*
X90252380Y-125714285D01*
X90252380Y-125333333D01*
X90300000Y-125238095D01*
X90347619Y-125190476D01*
X90442857Y-125142857D01*
X90585714Y-125142857D01*
X90680952Y-125190476D01*
X90728571Y-125238095D01*
X90776190Y-125333333D01*
X90776190Y-125714285D01*
X91252380Y-124190476D02*
X91252380Y-124761904D01*
X91252380Y-124476190D02*
X90252380Y-124476190D01*
X90395238Y-124571428D01*
X90490476Y-124666666D01*
X90538095Y-124761904D01*
X90252380Y-123571428D02*
X90252380Y-123476190D01*
X90300000Y-123380952D01*
X90347619Y-123333333D01*
X90442857Y-123285714D01*
X90633333Y-123238095D01*
X90871428Y-123238095D01*
X91061904Y-123285714D01*
X91157142Y-123333333D01*
X91204761Y-123380952D01*
X91252380Y-123476190D01*
X91252380Y-123571428D01*
X91204761Y-123666666D01*
X91157142Y-123714285D01*
X91061904Y-123761904D01*
X90871428Y-123809523D01*
X90633333Y-123809523D01*
X90442857Y-123761904D01*
X90347619Y-123714285D01*
X90300000Y-123666666D01*
X90252380Y-123571428D01*
X87452380Y-125366666D02*
X86976190Y-125700000D01*
X87452380Y-125938095D02*
X86452380Y-125938095D01*
X86452380Y-125557142D01*
X86500000Y-125461904D01*
X86547619Y-125414285D01*
X86642857Y-125366666D01*
X86785714Y-125366666D01*
X86880952Y-125414285D01*
X86928571Y-125461904D01*
X86976190Y-125557142D01*
X86976190Y-125938095D01*
X87452380Y-124890476D02*
X87452380Y-124700000D01*
X87404761Y-124604761D01*
X87357142Y-124557142D01*
X87214285Y-124461904D01*
X87023809Y-124414285D01*
X86642857Y-124414285D01*
X86547619Y-124461904D01*
X86500000Y-124509523D01*
X86452380Y-124604761D01*
X86452380Y-124795238D01*
X86500000Y-124890476D01*
X86547619Y-124938095D01*
X86642857Y-124985714D01*
X86880952Y-124985714D01*
X86976190Y-124938095D01*
X87023809Y-124890476D01*
X87071428Y-124795238D01*
X87071428Y-124604761D01*
X87023809Y-124509523D01*
X86976190Y-124461904D01*
X86880952Y-124414285D01*
X85552380Y-125466666D02*
X85076190Y-125800000D01*
X85552380Y-126038095D02*
X84552380Y-126038095D01*
X84552380Y-125657142D01*
X84600000Y-125561904D01*
X84647619Y-125514285D01*
X84742857Y-125466666D01*
X84885714Y-125466666D01*
X84980952Y-125514285D01*
X85028571Y-125561904D01*
X85076190Y-125657142D01*
X85076190Y-126038095D01*
X84980952Y-124895238D02*
X84933333Y-124990476D01*
X84885714Y-125038095D01*
X84790476Y-125085714D01*
X84742857Y-125085714D01*
X84647619Y-125038095D01*
X84600000Y-124990476D01*
X84552380Y-124895238D01*
X84552380Y-124704761D01*
X84600000Y-124609523D01*
X84647619Y-124561904D01*
X84742857Y-124514285D01*
X84790476Y-124514285D01*
X84885714Y-124561904D01*
X84933333Y-124609523D01*
X84980952Y-124704761D01*
X84980952Y-124895238D01*
X85028571Y-124990476D01*
X85076190Y-125038095D01*
X85171428Y-125085714D01*
X85361904Y-125085714D01*
X85457142Y-125038095D01*
X85504761Y-124990476D01*
X85552380Y-124895238D01*
X85552380Y-124704761D01*
X85504761Y-124609523D01*
X85457142Y-124561904D01*
X85361904Y-124514285D01*
X85171428Y-124514285D01*
X85076190Y-124561904D01*
X85028571Y-124609523D01*
X84980952Y-124704761D01*
X92702380Y-46166666D02*
X92226190Y-46500000D01*
X92702380Y-46738095D02*
X91702380Y-46738095D01*
X91702380Y-46357142D01*
X91750000Y-46261904D01*
X91797619Y-46214285D01*
X91892857Y-46166666D01*
X92035714Y-46166666D01*
X92130952Y-46214285D01*
X92178571Y-46261904D01*
X92226190Y-46357142D01*
X92226190Y-46738095D01*
X91702380Y-45833333D02*
X91702380Y-45166666D01*
X92702380Y-45595238D01*
X92702380Y-40366666D02*
X92226190Y-40700000D01*
X92702380Y-40938095D02*
X91702380Y-40938095D01*
X91702380Y-40557142D01*
X91750000Y-40461904D01*
X91797619Y-40414285D01*
X91892857Y-40366666D01*
X92035714Y-40366666D01*
X92130952Y-40414285D01*
X92178571Y-40461904D01*
X92226190Y-40557142D01*
X92226190Y-40938095D01*
X91702380Y-39509523D02*
X91702380Y-39700000D01*
X91750000Y-39795238D01*
X91797619Y-39842857D01*
X91940476Y-39938095D01*
X92130952Y-39985714D01*
X92511904Y-39985714D01*
X92607142Y-39938095D01*
X92654761Y-39890476D01*
X92702380Y-39795238D01*
X92702380Y-39604761D01*
X92654761Y-39509523D01*
X92607142Y-39461904D01*
X92511904Y-39414285D01*
X92273809Y-39414285D01*
X92178571Y-39461904D01*
X92130952Y-39509523D01*
X92083333Y-39604761D01*
X92083333Y-39795238D01*
X92130952Y-39890476D01*
X92178571Y-39938095D01*
X92273809Y-39985714D01*
X87852380Y-120466666D02*
X87376190Y-120800000D01*
X87852380Y-121038095D02*
X86852380Y-121038095D01*
X86852380Y-120657142D01*
X86900000Y-120561904D01*
X86947619Y-120514285D01*
X87042857Y-120466666D01*
X87185714Y-120466666D01*
X87280952Y-120514285D01*
X87328571Y-120561904D01*
X87376190Y-120657142D01*
X87376190Y-121038095D01*
X86852380Y-119561904D02*
X86852380Y-120038095D01*
X87328571Y-120085714D01*
X87280952Y-120038095D01*
X87233333Y-119942857D01*
X87233333Y-119704761D01*
X87280952Y-119609523D01*
X87328571Y-119561904D01*
X87423809Y-119514285D01*
X87661904Y-119514285D01*
X87757142Y-119561904D01*
X87804761Y-119609523D01*
X87852380Y-119704761D01*
X87852380Y-119942857D01*
X87804761Y-120038095D01*
X87757142Y-120085714D01*
X98133333Y-57802380D02*
X97800000Y-57326190D01*
X97561904Y-57802380D02*
X97561904Y-56802380D01*
X97942857Y-56802380D01*
X98038095Y-56850000D01*
X98085714Y-56897619D01*
X98133333Y-56992857D01*
X98133333Y-57135714D01*
X98085714Y-57230952D01*
X98038095Y-57278571D01*
X97942857Y-57326190D01*
X97561904Y-57326190D01*
X98990476Y-57135714D02*
X98990476Y-57802380D01*
X98752380Y-56754761D02*
X98514285Y-57469047D01*
X99133333Y-57469047D01*
X101952380Y-66166666D02*
X101476190Y-66500000D01*
X101952380Y-66738095D02*
X100952380Y-66738095D01*
X100952380Y-66357142D01*
X101000000Y-66261904D01*
X101047619Y-66214285D01*
X101142857Y-66166666D01*
X101285714Y-66166666D01*
X101380952Y-66214285D01*
X101428571Y-66261904D01*
X101476190Y-66357142D01*
X101476190Y-66738095D01*
X100952380Y-65833333D02*
X100952380Y-65214285D01*
X101333333Y-65547619D01*
X101333333Y-65404761D01*
X101380952Y-65309523D01*
X101428571Y-65261904D01*
X101523809Y-65214285D01*
X101761904Y-65214285D01*
X101857142Y-65261904D01*
X101904761Y-65309523D01*
X101952380Y-65404761D01*
X101952380Y-65690476D01*
X101904761Y-65785714D01*
X101857142Y-65833333D01*
X119652380Y-41538095D02*
X118652380Y-41538095D01*
X118652380Y-41300000D01*
X118700000Y-41157142D01*
X118795238Y-41061904D01*
X118890476Y-41014285D01*
X119080952Y-40966666D01*
X119223809Y-40966666D01*
X119414285Y-41014285D01*
X119509523Y-41061904D01*
X119604761Y-41157142D01*
X119652380Y-41300000D01*
X119652380Y-41538095D01*
X119652380Y-40014285D02*
X119652380Y-40585714D01*
X119652380Y-40300000D02*
X118652380Y-40300000D01*
X118795238Y-40395238D01*
X118890476Y-40490476D01*
X118938095Y-40585714D01*
X118257142Y-48842857D02*
X118304761Y-48890476D01*
X118352380Y-49033333D01*
X118352380Y-49128571D01*
X118304761Y-49271428D01*
X118209523Y-49366666D01*
X118114285Y-49414285D01*
X117923809Y-49461904D01*
X117780952Y-49461904D01*
X117590476Y-49414285D01*
X117495238Y-49366666D01*
X117400000Y-49271428D01*
X117352380Y-49128571D01*
X117352380Y-49033333D01*
X117400000Y-48890476D01*
X117447619Y-48842857D01*
X118352380Y-47890476D02*
X118352380Y-48461904D01*
X118352380Y-48176190D02*
X117352380Y-48176190D01*
X117495238Y-48271428D01*
X117590476Y-48366666D01*
X117638095Y-48461904D01*
X118352380Y-46938095D02*
X118352380Y-47509523D01*
X118352380Y-47223809D02*
X117352380Y-47223809D01*
X117495238Y-47319047D01*
X117590476Y-47414285D01*
X117638095Y-47509523D01*
X86857142Y-55342857D02*
X86904761Y-55390476D01*
X86952380Y-55533333D01*
X86952380Y-55628571D01*
X86904761Y-55771428D01*
X86809523Y-55866666D01*
X86714285Y-55914285D01*
X86523809Y-55961904D01*
X86380952Y-55961904D01*
X86190476Y-55914285D01*
X86095238Y-55866666D01*
X86000000Y-55771428D01*
X85952380Y-55628571D01*
X85952380Y-55533333D01*
X86000000Y-55390476D01*
X86047619Y-55342857D01*
X86952380Y-54390476D02*
X86952380Y-54961904D01*
X86952380Y-54676190D02*
X85952380Y-54676190D01*
X86095238Y-54771428D01*
X86190476Y-54866666D01*
X86238095Y-54961904D01*
X85952380Y-53771428D02*
X85952380Y-53676190D01*
X86000000Y-53580952D01*
X86047619Y-53533333D01*
X86142857Y-53485714D01*
X86333333Y-53438095D01*
X86571428Y-53438095D01*
X86761904Y-53485714D01*
X86857142Y-53533333D01*
X86904761Y-53580952D01*
X86952380Y-53676190D01*
X86952380Y-53771428D01*
X86904761Y-53866666D01*
X86857142Y-53914285D01*
X86761904Y-53961904D01*
X86571428Y-54009523D01*
X86333333Y-54009523D01*
X86142857Y-53961904D01*
X86047619Y-53914285D01*
X86000000Y-53866666D01*
X85952380Y-53771428D01*
X116333333Y-61757142D02*
X116285714Y-61804761D01*
X116142857Y-61852380D01*
X116047619Y-61852380D01*
X115904761Y-61804761D01*
X115809523Y-61709523D01*
X115761904Y-61614285D01*
X115714285Y-61423809D01*
X115714285Y-61280952D01*
X115761904Y-61090476D01*
X115809523Y-60995238D01*
X115904761Y-60900000D01*
X116047619Y-60852380D01*
X116142857Y-60852380D01*
X116285714Y-60900000D01*
X116333333Y-60947619D01*
X116809523Y-61852380D02*
X117000000Y-61852380D01*
X117095238Y-61804761D01*
X117142857Y-61757142D01*
X117238095Y-61614285D01*
X117285714Y-61423809D01*
X117285714Y-61042857D01*
X117238095Y-60947619D01*
X117190476Y-60900000D01*
X117095238Y-60852380D01*
X116904761Y-60852380D01*
X116809523Y-60900000D01*
X116761904Y-60947619D01*
X116714285Y-61042857D01*
X116714285Y-61280952D01*
X116761904Y-61376190D01*
X116809523Y-61423809D01*
X116904761Y-61471428D01*
X117095238Y-61471428D01*
X117190476Y-61423809D01*
X117238095Y-61376190D01*
X117285714Y-61280952D01*
X147857142Y-42166666D02*
X147904761Y-42214285D01*
X147952380Y-42357142D01*
X147952380Y-42452380D01*
X147904761Y-42595238D01*
X147809523Y-42690476D01*
X147714285Y-42738095D01*
X147523809Y-42785714D01*
X147380952Y-42785714D01*
X147190476Y-42738095D01*
X147095238Y-42690476D01*
X147000000Y-42595238D01*
X146952380Y-42452380D01*
X146952380Y-42357142D01*
X147000000Y-42214285D01*
X147047619Y-42166666D01*
X146952380Y-41261904D02*
X146952380Y-41738095D01*
X147428571Y-41785714D01*
X147380952Y-41738095D01*
X147333333Y-41642857D01*
X147333333Y-41404761D01*
X147380952Y-41309523D01*
X147428571Y-41261904D01*
X147523809Y-41214285D01*
X147761904Y-41214285D01*
X147857142Y-41261904D01*
X147904761Y-41309523D01*
X147952380Y-41404761D01*
X147952380Y-41642857D01*
X147904761Y-41738095D01*
X147857142Y-41785714D01*
X140933333Y-38957142D02*
X140885714Y-39004761D01*
X140742857Y-39052380D01*
X140647619Y-39052380D01*
X140504761Y-39004761D01*
X140409523Y-38909523D01*
X140361904Y-38814285D01*
X140314285Y-38623809D01*
X140314285Y-38480952D01*
X140361904Y-38290476D01*
X140409523Y-38195238D01*
X140504761Y-38100000D01*
X140647619Y-38052380D01*
X140742857Y-38052380D01*
X140885714Y-38100000D01*
X140933333Y-38147619D01*
X141790476Y-38385714D02*
X141790476Y-39052380D01*
X141552380Y-38004761D02*
X141314285Y-38719047D01*
X141933333Y-38719047D01*
X88052380Y-53761904D02*
X88861904Y-53761904D01*
X88957142Y-53714285D01*
X89004761Y-53666666D01*
X89052380Y-53571428D01*
X89052380Y-53380952D01*
X89004761Y-53285714D01*
X88957142Y-53238095D01*
X88861904Y-53190476D01*
X88052380Y-53190476D01*
X88052380Y-52809523D02*
X88052380Y-52142857D01*
X89052380Y-52571428D01*
X107133333Y-45357142D02*
X107085714Y-45404761D01*
X106942857Y-45452380D01*
X106847619Y-45452380D01*
X106704761Y-45404761D01*
X106609523Y-45309523D01*
X106561904Y-45214285D01*
X106514285Y-45023809D01*
X106514285Y-44880952D01*
X106561904Y-44690476D01*
X106609523Y-44595238D01*
X106704761Y-44500000D01*
X106847619Y-44452380D01*
X106942857Y-44452380D01*
X107085714Y-44500000D01*
X107133333Y-44547619D01*
X107466666Y-44452380D02*
X108133333Y-44452380D01*
X107704761Y-45452380D01*
X103452380Y-71061904D02*
X104261904Y-71061904D01*
X104357142Y-71014285D01*
X104404761Y-70966666D01*
X104452380Y-70871428D01*
X104452380Y-70680952D01*
X104404761Y-70585714D01*
X104357142Y-70538095D01*
X104261904Y-70490476D01*
X103452380Y-70490476D01*
X103452380Y-69585714D02*
X103452380Y-69776190D01*
X103500000Y-69871428D01*
X103547619Y-69919047D01*
X103690476Y-70014285D01*
X103880952Y-70061904D01*
X104261904Y-70061904D01*
X104357142Y-70014285D01*
X104404761Y-69966666D01*
X104452380Y-69871428D01*
X104452380Y-69680952D01*
X104404761Y-69585714D01*
X104357142Y-69538095D01*
X104261904Y-69490476D01*
X104023809Y-69490476D01*
X103928571Y-69538095D01*
X103880952Y-69585714D01*
X103833333Y-69680952D01*
X103833333Y-69871428D01*
X103880952Y-69966666D01*
X103928571Y-70014285D01*
X104023809Y-70061904D01*
X136607476Y-43043380D02*
X136607476Y-42043380D01*
X136940809Y-42757666D01*
X137274142Y-42043380D01*
X137274142Y-43043380D01*
X138274142Y-43043380D02*
X137702714Y-43043380D01*
X137988428Y-43043380D02*
X137988428Y-42043380D01*
X137893190Y-42186238D01*
X137797952Y-42281476D01*
X137702714Y-42329095D01*
X125838095Y-49052380D02*
X126409523Y-49052380D01*
X126123809Y-50052380D02*
X126123809Y-49052380D01*
X127314285Y-50052380D02*
X126980952Y-49576190D01*
X126742857Y-50052380D02*
X126742857Y-49052380D01*
X127123809Y-49052380D01*
X127219047Y-49100000D01*
X127266666Y-49147619D01*
X127314285Y-49242857D01*
X127314285Y-49385714D01*
X127266666Y-49480952D01*
X127219047Y-49528571D01*
X127123809Y-49576190D01*
X126742857Y-49576190D01*
X128266666Y-50052380D02*
X127695238Y-50052380D01*
X127980952Y-50052380D02*
X127980952Y-49052380D01*
X127885714Y-49195238D01*
X127790476Y-49290476D01*
X127695238Y-49338095D01*
X129333333Y-43452380D02*
X129000000Y-42976190D01*
X128761904Y-43452380D02*
X128761904Y-42452380D01*
X129142857Y-42452380D01*
X129238095Y-42500000D01*
X129285714Y-42547619D01*
X129333333Y-42642857D01*
X129333333Y-42785714D01*
X129285714Y-42880952D01*
X129238095Y-42928571D01*
X129142857Y-42976190D01*
X128761904Y-42976190D01*
X130285714Y-43452380D02*
X129714285Y-43452380D01*
X130000000Y-43452380D02*
X130000000Y-42452380D01*
X129904761Y-42595238D01*
X129809523Y-42690476D01*
X129714285Y-42738095D01*
X83966666Y-42552380D02*
X83966666Y-43266666D01*
X83919047Y-43409523D01*
X83823809Y-43504761D01*
X83680952Y-43552380D01*
X83585714Y-43552380D01*
X84871428Y-42552380D02*
X84680952Y-42552380D01*
X84585714Y-42600000D01*
X84538095Y-42647619D01*
X84442857Y-42790476D01*
X84395238Y-42980952D01*
X84395238Y-43361904D01*
X84442857Y-43457142D01*
X84490476Y-43504761D01*
X84585714Y-43552380D01*
X84776190Y-43552380D01*
X84871428Y-43504761D01*
X84919047Y-43457142D01*
X84966666Y-43361904D01*
X84966666Y-43123809D01*
X84919047Y-43028571D01*
X84871428Y-42980952D01*
X84776190Y-42933333D01*
X84585714Y-42933333D01*
X84490476Y-42980952D01*
X84442857Y-43028571D01*
X84395238Y-43123809D01*
X96082380Y-35078333D02*
X96796666Y-35078333D01*
X96939523Y-35125952D01*
X97034761Y-35221190D01*
X97082380Y-35364047D01*
X97082380Y-35459285D01*
X97082380Y-34078333D02*
X97082380Y-34649761D01*
X97082380Y-34364047D02*
X96082380Y-34364047D01*
X96225238Y-34459285D01*
X96320476Y-34554523D01*
X96368095Y-34649761D01*
X95066666Y-105352380D02*
X95066666Y-106066666D01*
X95019047Y-106209523D01*
X94923809Y-106304761D01*
X94780952Y-106352380D01*
X94685714Y-106352380D01*
X95971428Y-105685714D02*
X95971428Y-106352380D01*
X95733333Y-105304761D02*
X95495238Y-106019047D01*
X96114285Y-106019047D01*
X93566666Y-78152380D02*
X93566666Y-78866666D01*
X93519047Y-79009523D01*
X93423809Y-79104761D01*
X93280952Y-79152380D01*
X93185714Y-79152380D01*
X93995238Y-78247619D02*
X94042857Y-78200000D01*
X94138095Y-78152380D01*
X94376190Y-78152380D01*
X94471428Y-78200000D01*
X94519047Y-78247619D01*
X94566666Y-78342857D01*
X94566666Y-78438095D01*
X94519047Y-78580952D01*
X93947619Y-79152380D01*
X94566666Y-79152380D01*
X112038095Y-50052380D02*
X112038095Y-50861904D01*
X112085714Y-50957142D01*
X112133333Y-51004761D01*
X112228571Y-51052380D01*
X112419047Y-51052380D01*
X112514285Y-51004761D01*
X112561904Y-50957142D01*
X112609523Y-50861904D01*
X112609523Y-50052380D01*
X113514285Y-50385714D02*
X113514285Y-51052380D01*
X113276190Y-50004761D02*
X113038095Y-50719047D01*
X113657142Y-50719047D01*
X101338095Y-49952380D02*
X101338095Y-50761904D01*
X101385714Y-50857142D01*
X101433333Y-50904761D01*
X101528571Y-50952380D01*
X101719047Y-50952380D01*
X101814285Y-50904761D01*
X101861904Y-50857142D01*
X101909523Y-50761904D01*
X101909523Y-49952380D01*
X102290476Y-49952380D02*
X102909523Y-49952380D01*
X102576190Y-50333333D01*
X102719047Y-50333333D01*
X102814285Y-50380952D01*
X102861904Y-50428571D01*
X102909523Y-50523809D01*
X102909523Y-50761904D01*
X102861904Y-50857142D01*
X102814285Y-50904761D01*
X102719047Y-50952380D01*
X102433333Y-50952380D01*
X102338095Y-50904761D01*
X102290476Y-50857142D01*
X112452380Y-57061904D02*
X113261904Y-57061904D01*
X113357142Y-57014285D01*
X113404761Y-56966666D01*
X113452380Y-56871428D01*
X113452380Y-56680952D01*
X113404761Y-56585714D01*
X113357142Y-56538095D01*
X113261904Y-56490476D01*
X112452380Y-56490476D01*
X112452380Y-55538095D02*
X112452380Y-56014285D01*
X112928571Y-56061904D01*
X112880952Y-56014285D01*
X112833333Y-55919047D01*
X112833333Y-55680952D01*
X112880952Y-55585714D01*
X112928571Y-55538095D01*
X113023809Y-55490476D01*
X113261904Y-55490476D01*
X113357142Y-55538095D01*
X113404761Y-55585714D01*
X113452380Y-55680952D01*
X113452380Y-55919047D01*
X113404761Y-56014285D01*
X113357142Y-56061904D01*
X83966666Y-31652380D02*
X83966666Y-32366666D01*
X83919047Y-32509523D01*
X83823809Y-32604761D01*
X83680952Y-32652380D01*
X83585714Y-32652380D01*
X84919047Y-31652380D02*
X84442857Y-31652380D01*
X84395238Y-32128571D01*
X84442857Y-32080952D01*
X84538095Y-32033333D01*
X84776190Y-32033333D01*
X84871428Y-32080952D01*
X84919047Y-32128571D01*
X84966666Y-32223809D01*
X84966666Y-32461904D01*
X84919047Y-32557142D01*
X84871428Y-32604761D01*
X84776190Y-32652380D01*
X84538095Y-32652380D01*
X84442857Y-32604761D01*
X84395238Y-32557142D01*
X86757142Y-58602380D02*
X86423809Y-58126190D01*
X86185714Y-58602380D02*
X86185714Y-57602380D01*
X86566666Y-57602380D01*
X86661904Y-57650000D01*
X86709523Y-57697619D01*
X86757142Y-57792857D01*
X86757142Y-57935714D01*
X86709523Y-58030952D01*
X86661904Y-58078571D01*
X86566666Y-58126190D01*
X86185714Y-58126190D01*
X87709523Y-58602380D02*
X87138095Y-58602380D01*
X87423809Y-58602380D02*
X87423809Y-57602380D01*
X87328571Y-57745238D01*
X87233333Y-57840476D01*
X87138095Y-57888095D01*
X88614285Y-57602380D02*
X88138095Y-57602380D01*
X88090476Y-58078571D01*
X88138095Y-58030952D01*
X88233333Y-57983333D01*
X88471428Y-57983333D01*
X88566666Y-58030952D01*
X88614285Y-58078571D01*
X88661904Y-58173809D01*
X88661904Y-58411904D01*
X88614285Y-58507142D01*
X88566666Y-58554761D01*
X88471428Y-58602380D01*
X88233333Y-58602380D01*
X88138095Y-58554761D01*
X88090476Y-58507142D01*
X115857142Y-66766666D02*
X115904761Y-66814285D01*
X115952380Y-66957142D01*
X115952380Y-67052380D01*
X115904761Y-67195238D01*
X115809523Y-67290476D01*
X115714285Y-67338095D01*
X115523809Y-67385714D01*
X115380952Y-67385714D01*
X115190476Y-67338095D01*
X115095238Y-67290476D01*
X115000000Y-67195238D01*
X114952380Y-67052380D01*
X114952380Y-66957142D01*
X115000000Y-66814285D01*
X115047619Y-66766666D01*
X115380952Y-66195238D02*
X115333333Y-66290476D01*
X115285714Y-66338095D01*
X115190476Y-66385714D01*
X115142857Y-66385714D01*
X115047619Y-66338095D01*
X115000000Y-66290476D01*
X114952380Y-66195238D01*
X114952380Y-66004761D01*
X115000000Y-65909523D01*
X115047619Y-65861904D01*
X115142857Y-65814285D01*
X115190476Y-65814285D01*
X115285714Y-65861904D01*
X115333333Y-65909523D01*
X115380952Y-66004761D01*
X115380952Y-66195238D01*
X115428571Y-66290476D01*
X115476190Y-66338095D01*
X115571428Y-66385714D01*
X115761904Y-66385714D01*
X115857142Y-66338095D01*
X115904761Y-66290476D01*
X115952380Y-66195238D01*
X115952380Y-66004761D01*
X115904761Y-65909523D01*
X115857142Y-65861904D01*
X115761904Y-65814285D01*
X115571428Y-65814285D01*
X115476190Y-65861904D01*
X115428571Y-65909523D01*
X115380952Y-66004761D01*
X98857142Y-65766666D02*
X98904761Y-65814285D01*
X98952380Y-65957142D01*
X98952380Y-66052380D01*
X98904761Y-66195238D01*
X98809523Y-66290476D01*
X98714285Y-66338095D01*
X98523809Y-66385714D01*
X98380952Y-66385714D01*
X98190476Y-66338095D01*
X98095238Y-66290476D01*
X98000000Y-66195238D01*
X97952380Y-66052380D01*
X97952380Y-65957142D01*
X98000000Y-65814285D01*
X98047619Y-65766666D01*
X97952380Y-64909523D02*
X97952380Y-65100000D01*
X98000000Y-65195238D01*
X98047619Y-65242857D01*
X98190476Y-65338095D01*
X98380952Y-65385714D01*
X98761904Y-65385714D01*
X98857142Y-65338095D01*
X98904761Y-65290476D01*
X98952380Y-65195238D01*
X98952380Y-65004761D01*
X98904761Y-64909523D01*
X98857142Y-64861904D01*
X98761904Y-64814285D01*
X98523809Y-64814285D01*
X98428571Y-64861904D01*
X98380952Y-64909523D01*
X98333333Y-65004761D01*
X98333333Y-65195238D01*
X98380952Y-65290476D01*
X98428571Y-65338095D01*
X98523809Y-65385714D01*
M02*
