G04 #@! TF.GenerationSoftware,KiCad,Pcbnew,5.1.5+dfsg1-2build2*
G04 #@! TF.CreationDate,2021-12-28T07:58:32+00:00*
G04 #@! TF.ProjectId,psion-org2-power,7073696f-6e2d-46f7-9267-322d706f7765,rev?*
G04 #@! TF.SameCoordinates,Original*
G04 #@! TF.FileFunction,Paste,Top*
G04 #@! TF.FilePolarity,Positive*
%FSLAX46Y46*%
G04 Gerber Fmt 4.6, Leading zero omitted, Abs format (unit mm)*
G04 Created by KiCad (PCBNEW 5.1.5+dfsg1-2build2) date 2021-12-28 07:58:32*
%MOMM*%
%LPD*%
G04 APERTURE LIST*
%ADD10R,2.000000X1.500000*%
%ADD11R,2.000000X3.800000*%
%ADD12R,0.800000X0.900000*%
%ADD13R,0.900000X0.800000*%
%ADD14C,0.100000*%
%ADD15R,0.900000X1.200000*%
%ADD16R,0.450000X1.450000*%
%ADD17R,2.510000X1.000000*%
%ADD18R,0.900000X2.000000*%
%ADD19R,2.000000X0.900000*%
%ADD20R,5.000000X5.000000*%
G04 APERTURE END LIST*
D10*
X141450000Y-31200000D03*
X141450000Y-35800000D03*
X141450000Y-33500000D03*
D11*
X147750000Y-33500000D03*
D12*
X117400000Y-57200000D03*
X118350000Y-59200000D03*
X116450000Y-59200000D03*
D13*
X134300000Y-34700000D03*
X132300000Y-35650000D03*
X132300000Y-33750000D03*
D14*
G36*
X117630142Y-54001174D02*
G01*
X117653803Y-54004684D01*
X117677007Y-54010496D01*
X117699529Y-54018554D01*
X117721153Y-54028782D01*
X117741670Y-54041079D01*
X117760883Y-54055329D01*
X117778607Y-54071393D01*
X117794671Y-54089117D01*
X117808921Y-54108330D01*
X117821218Y-54128847D01*
X117831446Y-54150471D01*
X117839504Y-54172993D01*
X117845316Y-54196197D01*
X117848826Y-54219858D01*
X117850000Y-54243750D01*
X117850000Y-55156250D01*
X117848826Y-55180142D01*
X117845316Y-55203803D01*
X117839504Y-55227007D01*
X117831446Y-55249529D01*
X117821218Y-55271153D01*
X117808921Y-55291670D01*
X117794671Y-55310883D01*
X117778607Y-55328607D01*
X117760883Y-55344671D01*
X117741670Y-55358921D01*
X117721153Y-55371218D01*
X117699529Y-55381446D01*
X117677007Y-55389504D01*
X117653803Y-55395316D01*
X117630142Y-55398826D01*
X117606250Y-55400000D01*
X117118750Y-55400000D01*
X117094858Y-55398826D01*
X117071197Y-55395316D01*
X117047993Y-55389504D01*
X117025471Y-55381446D01*
X117003847Y-55371218D01*
X116983330Y-55358921D01*
X116964117Y-55344671D01*
X116946393Y-55328607D01*
X116930329Y-55310883D01*
X116916079Y-55291670D01*
X116903782Y-55271153D01*
X116893554Y-55249529D01*
X116885496Y-55227007D01*
X116879684Y-55203803D01*
X116876174Y-55180142D01*
X116875000Y-55156250D01*
X116875000Y-54243750D01*
X116876174Y-54219858D01*
X116879684Y-54196197D01*
X116885496Y-54172993D01*
X116893554Y-54150471D01*
X116903782Y-54128847D01*
X116916079Y-54108330D01*
X116930329Y-54089117D01*
X116946393Y-54071393D01*
X116964117Y-54055329D01*
X116983330Y-54041079D01*
X117003847Y-54028782D01*
X117025471Y-54018554D01*
X117047993Y-54010496D01*
X117071197Y-54004684D01*
X117094858Y-54001174D01*
X117118750Y-54000000D01*
X117606250Y-54000000D01*
X117630142Y-54001174D01*
G37*
G36*
X119505142Y-54001174D02*
G01*
X119528803Y-54004684D01*
X119552007Y-54010496D01*
X119574529Y-54018554D01*
X119596153Y-54028782D01*
X119616670Y-54041079D01*
X119635883Y-54055329D01*
X119653607Y-54071393D01*
X119669671Y-54089117D01*
X119683921Y-54108330D01*
X119696218Y-54128847D01*
X119706446Y-54150471D01*
X119714504Y-54172993D01*
X119720316Y-54196197D01*
X119723826Y-54219858D01*
X119725000Y-54243750D01*
X119725000Y-55156250D01*
X119723826Y-55180142D01*
X119720316Y-55203803D01*
X119714504Y-55227007D01*
X119706446Y-55249529D01*
X119696218Y-55271153D01*
X119683921Y-55291670D01*
X119669671Y-55310883D01*
X119653607Y-55328607D01*
X119635883Y-55344671D01*
X119616670Y-55358921D01*
X119596153Y-55371218D01*
X119574529Y-55381446D01*
X119552007Y-55389504D01*
X119528803Y-55395316D01*
X119505142Y-55398826D01*
X119481250Y-55400000D01*
X118993750Y-55400000D01*
X118969858Y-55398826D01*
X118946197Y-55395316D01*
X118922993Y-55389504D01*
X118900471Y-55381446D01*
X118878847Y-55371218D01*
X118858330Y-55358921D01*
X118839117Y-55344671D01*
X118821393Y-55328607D01*
X118805329Y-55310883D01*
X118791079Y-55291670D01*
X118778782Y-55271153D01*
X118768554Y-55249529D01*
X118760496Y-55227007D01*
X118754684Y-55203803D01*
X118751174Y-55180142D01*
X118750000Y-55156250D01*
X118750000Y-54243750D01*
X118751174Y-54219858D01*
X118754684Y-54196197D01*
X118760496Y-54172993D01*
X118768554Y-54150471D01*
X118778782Y-54128847D01*
X118791079Y-54108330D01*
X118805329Y-54089117D01*
X118821393Y-54071393D01*
X118839117Y-54055329D01*
X118858330Y-54041079D01*
X118878847Y-54028782D01*
X118900471Y-54018554D01*
X118922993Y-54010496D01*
X118946197Y-54004684D01*
X118969858Y-54001174D01*
X118993750Y-54000000D01*
X119481250Y-54000000D01*
X119505142Y-54001174D01*
G37*
G36*
X141305142Y-50201174D02*
G01*
X141328803Y-50204684D01*
X141352007Y-50210496D01*
X141374529Y-50218554D01*
X141396153Y-50228782D01*
X141416670Y-50241079D01*
X141435883Y-50255329D01*
X141453607Y-50271393D01*
X141469671Y-50289117D01*
X141483921Y-50308330D01*
X141496218Y-50328847D01*
X141506446Y-50350471D01*
X141514504Y-50372993D01*
X141520316Y-50396197D01*
X141523826Y-50419858D01*
X141525000Y-50443750D01*
X141525000Y-51356250D01*
X141523826Y-51380142D01*
X141520316Y-51403803D01*
X141514504Y-51427007D01*
X141506446Y-51449529D01*
X141496218Y-51471153D01*
X141483921Y-51491670D01*
X141469671Y-51510883D01*
X141453607Y-51528607D01*
X141435883Y-51544671D01*
X141416670Y-51558921D01*
X141396153Y-51571218D01*
X141374529Y-51581446D01*
X141352007Y-51589504D01*
X141328803Y-51595316D01*
X141305142Y-51598826D01*
X141281250Y-51600000D01*
X140793750Y-51600000D01*
X140769858Y-51598826D01*
X140746197Y-51595316D01*
X140722993Y-51589504D01*
X140700471Y-51581446D01*
X140678847Y-51571218D01*
X140658330Y-51558921D01*
X140639117Y-51544671D01*
X140621393Y-51528607D01*
X140605329Y-51510883D01*
X140591079Y-51491670D01*
X140578782Y-51471153D01*
X140568554Y-51449529D01*
X140560496Y-51427007D01*
X140554684Y-51403803D01*
X140551174Y-51380142D01*
X140550000Y-51356250D01*
X140550000Y-50443750D01*
X140551174Y-50419858D01*
X140554684Y-50396197D01*
X140560496Y-50372993D01*
X140568554Y-50350471D01*
X140578782Y-50328847D01*
X140591079Y-50308330D01*
X140605329Y-50289117D01*
X140621393Y-50271393D01*
X140639117Y-50255329D01*
X140658330Y-50241079D01*
X140678847Y-50228782D01*
X140700471Y-50218554D01*
X140722993Y-50210496D01*
X140746197Y-50204684D01*
X140769858Y-50201174D01*
X140793750Y-50200000D01*
X141281250Y-50200000D01*
X141305142Y-50201174D01*
G37*
G36*
X139430142Y-50201174D02*
G01*
X139453803Y-50204684D01*
X139477007Y-50210496D01*
X139499529Y-50218554D01*
X139521153Y-50228782D01*
X139541670Y-50241079D01*
X139560883Y-50255329D01*
X139578607Y-50271393D01*
X139594671Y-50289117D01*
X139608921Y-50308330D01*
X139621218Y-50328847D01*
X139631446Y-50350471D01*
X139639504Y-50372993D01*
X139645316Y-50396197D01*
X139648826Y-50419858D01*
X139650000Y-50443750D01*
X139650000Y-51356250D01*
X139648826Y-51380142D01*
X139645316Y-51403803D01*
X139639504Y-51427007D01*
X139631446Y-51449529D01*
X139621218Y-51471153D01*
X139608921Y-51491670D01*
X139594671Y-51510883D01*
X139578607Y-51528607D01*
X139560883Y-51544671D01*
X139541670Y-51558921D01*
X139521153Y-51571218D01*
X139499529Y-51581446D01*
X139477007Y-51589504D01*
X139453803Y-51595316D01*
X139430142Y-51598826D01*
X139406250Y-51600000D01*
X138918750Y-51600000D01*
X138894858Y-51598826D01*
X138871197Y-51595316D01*
X138847993Y-51589504D01*
X138825471Y-51581446D01*
X138803847Y-51571218D01*
X138783330Y-51558921D01*
X138764117Y-51544671D01*
X138746393Y-51528607D01*
X138730329Y-51510883D01*
X138716079Y-51491670D01*
X138703782Y-51471153D01*
X138693554Y-51449529D01*
X138685496Y-51427007D01*
X138679684Y-51403803D01*
X138676174Y-51380142D01*
X138675000Y-51356250D01*
X138675000Y-50443750D01*
X138676174Y-50419858D01*
X138679684Y-50396197D01*
X138685496Y-50372993D01*
X138693554Y-50350471D01*
X138703782Y-50328847D01*
X138716079Y-50308330D01*
X138730329Y-50289117D01*
X138746393Y-50271393D01*
X138764117Y-50255329D01*
X138783330Y-50241079D01*
X138803847Y-50228782D01*
X138825471Y-50218554D01*
X138847993Y-50210496D01*
X138871197Y-50204684D01*
X138894858Y-50201174D01*
X138918750Y-50200000D01*
X139406250Y-50200000D01*
X139430142Y-50201174D01*
G37*
G36*
X123280142Y-47451174D02*
G01*
X123303803Y-47454684D01*
X123327007Y-47460496D01*
X123349529Y-47468554D01*
X123371153Y-47478782D01*
X123391670Y-47491079D01*
X123410883Y-47505329D01*
X123428607Y-47521393D01*
X123444671Y-47539117D01*
X123458921Y-47558330D01*
X123471218Y-47578847D01*
X123481446Y-47600471D01*
X123489504Y-47622993D01*
X123495316Y-47646197D01*
X123498826Y-47669858D01*
X123500000Y-47693750D01*
X123500000Y-48181250D01*
X123498826Y-48205142D01*
X123495316Y-48228803D01*
X123489504Y-48252007D01*
X123481446Y-48274529D01*
X123471218Y-48296153D01*
X123458921Y-48316670D01*
X123444671Y-48335883D01*
X123428607Y-48353607D01*
X123410883Y-48369671D01*
X123391670Y-48383921D01*
X123371153Y-48396218D01*
X123349529Y-48406446D01*
X123327007Y-48414504D01*
X123303803Y-48420316D01*
X123280142Y-48423826D01*
X123256250Y-48425000D01*
X122343750Y-48425000D01*
X122319858Y-48423826D01*
X122296197Y-48420316D01*
X122272993Y-48414504D01*
X122250471Y-48406446D01*
X122228847Y-48396218D01*
X122208330Y-48383921D01*
X122189117Y-48369671D01*
X122171393Y-48353607D01*
X122155329Y-48335883D01*
X122141079Y-48316670D01*
X122128782Y-48296153D01*
X122118554Y-48274529D01*
X122110496Y-48252007D01*
X122104684Y-48228803D01*
X122101174Y-48205142D01*
X122100000Y-48181250D01*
X122100000Y-47693750D01*
X122101174Y-47669858D01*
X122104684Y-47646197D01*
X122110496Y-47622993D01*
X122118554Y-47600471D01*
X122128782Y-47578847D01*
X122141079Y-47558330D01*
X122155329Y-47539117D01*
X122171393Y-47521393D01*
X122189117Y-47505329D01*
X122208330Y-47491079D01*
X122228847Y-47478782D01*
X122250471Y-47468554D01*
X122272993Y-47460496D01*
X122296197Y-47454684D01*
X122319858Y-47451174D01*
X122343750Y-47450000D01*
X123256250Y-47450000D01*
X123280142Y-47451174D01*
G37*
G36*
X123280142Y-45576174D02*
G01*
X123303803Y-45579684D01*
X123327007Y-45585496D01*
X123349529Y-45593554D01*
X123371153Y-45603782D01*
X123391670Y-45616079D01*
X123410883Y-45630329D01*
X123428607Y-45646393D01*
X123444671Y-45664117D01*
X123458921Y-45683330D01*
X123471218Y-45703847D01*
X123481446Y-45725471D01*
X123489504Y-45747993D01*
X123495316Y-45771197D01*
X123498826Y-45794858D01*
X123500000Y-45818750D01*
X123500000Y-46306250D01*
X123498826Y-46330142D01*
X123495316Y-46353803D01*
X123489504Y-46377007D01*
X123481446Y-46399529D01*
X123471218Y-46421153D01*
X123458921Y-46441670D01*
X123444671Y-46460883D01*
X123428607Y-46478607D01*
X123410883Y-46494671D01*
X123391670Y-46508921D01*
X123371153Y-46521218D01*
X123349529Y-46531446D01*
X123327007Y-46539504D01*
X123303803Y-46545316D01*
X123280142Y-46548826D01*
X123256250Y-46550000D01*
X122343750Y-46550000D01*
X122319858Y-46548826D01*
X122296197Y-46545316D01*
X122272993Y-46539504D01*
X122250471Y-46531446D01*
X122228847Y-46521218D01*
X122208330Y-46508921D01*
X122189117Y-46494671D01*
X122171393Y-46478607D01*
X122155329Y-46460883D01*
X122141079Y-46441670D01*
X122128782Y-46421153D01*
X122118554Y-46399529D01*
X122110496Y-46377007D01*
X122104684Y-46353803D01*
X122101174Y-46330142D01*
X122100000Y-46306250D01*
X122100000Y-45818750D01*
X122101174Y-45794858D01*
X122104684Y-45771197D01*
X122110496Y-45747993D01*
X122118554Y-45725471D01*
X122128782Y-45703847D01*
X122141079Y-45683330D01*
X122155329Y-45664117D01*
X122171393Y-45646393D01*
X122189117Y-45630329D01*
X122208330Y-45616079D01*
X122228847Y-45603782D01*
X122250471Y-45593554D01*
X122272993Y-45585496D01*
X122296197Y-45579684D01*
X122319858Y-45576174D01*
X122343750Y-45575000D01*
X123256250Y-45575000D01*
X123280142Y-45576174D01*
G37*
G36*
X123805142Y-42501174D02*
G01*
X123828803Y-42504684D01*
X123852007Y-42510496D01*
X123874529Y-42518554D01*
X123896153Y-42528782D01*
X123916670Y-42541079D01*
X123935883Y-42555329D01*
X123953607Y-42571393D01*
X123969671Y-42589117D01*
X123983921Y-42608330D01*
X123996218Y-42628847D01*
X124006446Y-42650471D01*
X124014504Y-42672993D01*
X124020316Y-42696197D01*
X124023826Y-42719858D01*
X124025000Y-42743750D01*
X124025000Y-43656250D01*
X124023826Y-43680142D01*
X124020316Y-43703803D01*
X124014504Y-43727007D01*
X124006446Y-43749529D01*
X123996218Y-43771153D01*
X123983921Y-43791670D01*
X123969671Y-43810883D01*
X123953607Y-43828607D01*
X123935883Y-43844671D01*
X123916670Y-43858921D01*
X123896153Y-43871218D01*
X123874529Y-43881446D01*
X123852007Y-43889504D01*
X123828803Y-43895316D01*
X123805142Y-43898826D01*
X123781250Y-43900000D01*
X123293750Y-43900000D01*
X123269858Y-43898826D01*
X123246197Y-43895316D01*
X123222993Y-43889504D01*
X123200471Y-43881446D01*
X123178847Y-43871218D01*
X123158330Y-43858921D01*
X123139117Y-43844671D01*
X123121393Y-43828607D01*
X123105329Y-43810883D01*
X123091079Y-43791670D01*
X123078782Y-43771153D01*
X123068554Y-43749529D01*
X123060496Y-43727007D01*
X123054684Y-43703803D01*
X123051174Y-43680142D01*
X123050000Y-43656250D01*
X123050000Y-42743750D01*
X123051174Y-42719858D01*
X123054684Y-42696197D01*
X123060496Y-42672993D01*
X123068554Y-42650471D01*
X123078782Y-42628847D01*
X123091079Y-42608330D01*
X123105329Y-42589117D01*
X123121393Y-42571393D01*
X123139117Y-42555329D01*
X123158330Y-42541079D01*
X123178847Y-42528782D01*
X123200471Y-42518554D01*
X123222993Y-42510496D01*
X123246197Y-42504684D01*
X123269858Y-42501174D01*
X123293750Y-42500000D01*
X123781250Y-42500000D01*
X123805142Y-42501174D01*
G37*
G36*
X121930142Y-42501174D02*
G01*
X121953803Y-42504684D01*
X121977007Y-42510496D01*
X121999529Y-42518554D01*
X122021153Y-42528782D01*
X122041670Y-42541079D01*
X122060883Y-42555329D01*
X122078607Y-42571393D01*
X122094671Y-42589117D01*
X122108921Y-42608330D01*
X122121218Y-42628847D01*
X122131446Y-42650471D01*
X122139504Y-42672993D01*
X122145316Y-42696197D01*
X122148826Y-42719858D01*
X122150000Y-42743750D01*
X122150000Y-43656250D01*
X122148826Y-43680142D01*
X122145316Y-43703803D01*
X122139504Y-43727007D01*
X122131446Y-43749529D01*
X122121218Y-43771153D01*
X122108921Y-43791670D01*
X122094671Y-43810883D01*
X122078607Y-43828607D01*
X122060883Y-43844671D01*
X122041670Y-43858921D01*
X122021153Y-43871218D01*
X121999529Y-43881446D01*
X121977007Y-43889504D01*
X121953803Y-43895316D01*
X121930142Y-43898826D01*
X121906250Y-43900000D01*
X121418750Y-43900000D01*
X121394858Y-43898826D01*
X121371197Y-43895316D01*
X121347993Y-43889504D01*
X121325471Y-43881446D01*
X121303847Y-43871218D01*
X121283330Y-43858921D01*
X121264117Y-43844671D01*
X121246393Y-43828607D01*
X121230329Y-43810883D01*
X121216079Y-43791670D01*
X121203782Y-43771153D01*
X121193554Y-43749529D01*
X121185496Y-43727007D01*
X121179684Y-43703803D01*
X121176174Y-43680142D01*
X121175000Y-43656250D01*
X121175000Y-42743750D01*
X121176174Y-42719858D01*
X121179684Y-42696197D01*
X121185496Y-42672993D01*
X121193554Y-42650471D01*
X121203782Y-42628847D01*
X121216079Y-42608330D01*
X121230329Y-42589117D01*
X121246393Y-42571393D01*
X121264117Y-42555329D01*
X121283330Y-42541079D01*
X121303847Y-42528782D01*
X121325471Y-42518554D01*
X121347993Y-42510496D01*
X121371197Y-42504684D01*
X121394858Y-42501174D01*
X121418750Y-42500000D01*
X121906250Y-42500000D01*
X121930142Y-42501174D01*
G37*
G36*
X134505142Y-37001174D02*
G01*
X134528803Y-37004684D01*
X134552007Y-37010496D01*
X134574529Y-37018554D01*
X134596153Y-37028782D01*
X134616670Y-37041079D01*
X134635883Y-37055329D01*
X134653607Y-37071393D01*
X134669671Y-37089117D01*
X134683921Y-37108330D01*
X134696218Y-37128847D01*
X134706446Y-37150471D01*
X134714504Y-37172993D01*
X134720316Y-37196197D01*
X134723826Y-37219858D01*
X134725000Y-37243750D01*
X134725000Y-38156250D01*
X134723826Y-38180142D01*
X134720316Y-38203803D01*
X134714504Y-38227007D01*
X134706446Y-38249529D01*
X134696218Y-38271153D01*
X134683921Y-38291670D01*
X134669671Y-38310883D01*
X134653607Y-38328607D01*
X134635883Y-38344671D01*
X134616670Y-38358921D01*
X134596153Y-38371218D01*
X134574529Y-38381446D01*
X134552007Y-38389504D01*
X134528803Y-38395316D01*
X134505142Y-38398826D01*
X134481250Y-38400000D01*
X133993750Y-38400000D01*
X133969858Y-38398826D01*
X133946197Y-38395316D01*
X133922993Y-38389504D01*
X133900471Y-38381446D01*
X133878847Y-38371218D01*
X133858330Y-38358921D01*
X133839117Y-38344671D01*
X133821393Y-38328607D01*
X133805329Y-38310883D01*
X133791079Y-38291670D01*
X133778782Y-38271153D01*
X133768554Y-38249529D01*
X133760496Y-38227007D01*
X133754684Y-38203803D01*
X133751174Y-38180142D01*
X133750000Y-38156250D01*
X133750000Y-37243750D01*
X133751174Y-37219858D01*
X133754684Y-37196197D01*
X133760496Y-37172993D01*
X133768554Y-37150471D01*
X133778782Y-37128847D01*
X133791079Y-37108330D01*
X133805329Y-37089117D01*
X133821393Y-37071393D01*
X133839117Y-37055329D01*
X133858330Y-37041079D01*
X133878847Y-37028782D01*
X133900471Y-37018554D01*
X133922993Y-37010496D01*
X133946197Y-37004684D01*
X133969858Y-37001174D01*
X133993750Y-37000000D01*
X134481250Y-37000000D01*
X134505142Y-37001174D01*
G37*
G36*
X132630142Y-37001174D02*
G01*
X132653803Y-37004684D01*
X132677007Y-37010496D01*
X132699529Y-37018554D01*
X132721153Y-37028782D01*
X132741670Y-37041079D01*
X132760883Y-37055329D01*
X132778607Y-37071393D01*
X132794671Y-37089117D01*
X132808921Y-37108330D01*
X132821218Y-37128847D01*
X132831446Y-37150471D01*
X132839504Y-37172993D01*
X132845316Y-37196197D01*
X132848826Y-37219858D01*
X132850000Y-37243750D01*
X132850000Y-38156250D01*
X132848826Y-38180142D01*
X132845316Y-38203803D01*
X132839504Y-38227007D01*
X132831446Y-38249529D01*
X132821218Y-38271153D01*
X132808921Y-38291670D01*
X132794671Y-38310883D01*
X132778607Y-38328607D01*
X132760883Y-38344671D01*
X132741670Y-38358921D01*
X132721153Y-38371218D01*
X132699529Y-38381446D01*
X132677007Y-38389504D01*
X132653803Y-38395316D01*
X132630142Y-38398826D01*
X132606250Y-38400000D01*
X132118750Y-38400000D01*
X132094858Y-38398826D01*
X132071197Y-38395316D01*
X132047993Y-38389504D01*
X132025471Y-38381446D01*
X132003847Y-38371218D01*
X131983330Y-38358921D01*
X131964117Y-38344671D01*
X131946393Y-38328607D01*
X131930329Y-38310883D01*
X131916079Y-38291670D01*
X131903782Y-38271153D01*
X131893554Y-38249529D01*
X131885496Y-38227007D01*
X131879684Y-38203803D01*
X131876174Y-38180142D01*
X131875000Y-38156250D01*
X131875000Y-37243750D01*
X131876174Y-37219858D01*
X131879684Y-37196197D01*
X131885496Y-37172993D01*
X131893554Y-37150471D01*
X131903782Y-37128847D01*
X131916079Y-37108330D01*
X131930329Y-37089117D01*
X131946393Y-37071393D01*
X131964117Y-37055329D01*
X131983330Y-37041079D01*
X132003847Y-37028782D01*
X132025471Y-37018554D01*
X132047993Y-37010496D01*
X132071197Y-37004684D01*
X132094858Y-37001174D01*
X132118750Y-37000000D01*
X132606250Y-37000000D01*
X132630142Y-37001174D01*
G37*
G36*
X89280142Y-128251174D02*
G01*
X89303803Y-128254684D01*
X89327007Y-128260496D01*
X89349529Y-128268554D01*
X89371153Y-128278782D01*
X89391670Y-128291079D01*
X89410883Y-128305329D01*
X89428607Y-128321393D01*
X89444671Y-128339117D01*
X89458921Y-128358330D01*
X89471218Y-128378847D01*
X89481446Y-128400471D01*
X89489504Y-128422993D01*
X89495316Y-128446197D01*
X89498826Y-128469858D01*
X89500000Y-128493750D01*
X89500000Y-128981250D01*
X89498826Y-129005142D01*
X89495316Y-129028803D01*
X89489504Y-129052007D01*
X89481446Y-129074529D01*
X89471218Y-129096153D01*
X89458921Y-129116670D01*
X89444671Y-129135883D01*
X89428607Y-129153607D01*
X89410883Y-129169671D01*
X89391670Y-129183921D01*
X89371153Y-129196218D01*
X89349529Y-129206446D01*
X89327007Y-129214504D01*
X89303803Y-129220316D01*
X89280142Y-129223826D01*
X89256250Y-129225000D01*
X88343750Y-129225000D01*
X88319858Y-129223826D01*
X88296197Y-129220316D01*
X88272993Y-129214504D01*
X88250471Y-129206446D01*
X88228847Y-129196218D01*
X88208330Y-129183921D01*
X88189117Y-129169671D01*
X88171393Y-129153607D01*
X88155329Y-129135883D01*
X88141079Y-129116670D01*
X88128782Y-129096153D01*
X88118554Y-129074529D01*
X88110496Y-129052007D01*
X88104684Y-129028803D01*
X88101174Y-129005142D01*
X88100000Y-128981250D01*
X88100000Y-128493750D01*
X88101174Y-128469858D01*
X88104684Y-128446197D01*
X88110496Y-128422993D01*
X88118554Y-128400471D01*
X88128782Y-128378847D01*
X88141079Y-128358330D01*
X88155329Y-128339117D01*
X88171393Y-128321393D01*
X88189117Y-128305329D01*
X88208330Y-128291079D01*
X88228847Y-128278782D01*
X88250471Y-128268554D01*
X88272993Y-128260496D01*
X88296197Y-128254684D01*
X88319858Y-128251174D01*
X88343750Y-128250000D01*
X89256250Y-128250000D01*
X89280142Y-128251174D01*
G37*
G36*
X89280142Y-126376174D02*
G01*
X89303803Y-126379684D01*
X89327007Y-126385496D01*
X89349529Y-126393554D01*
X89371153Y-126403782D01*
X89391670Y-126416079D01*
X89410883Y-126430329D01*
X89428607Y-126446393D01*
X89444671Y-126464117D01*
X89458921Y-126483330D01*
X89471218Y-126503847D01*
X89481446Y-126525471D01*
X89489504Y-126547993D01*
X89495316Y-126571197D01*
X89498826Y-126594858D01*
X89500000Y-126618750D01*
X89500000Y-127106250D01*
X89498826Y-127130142D01*
X89495316Y-127153803D01*
X89489504Y-127177007D01*
X89481446Y-127199529D01*
X89471218Y-127221153D01*
X89458921Y-127241670D01*
X89444671Y-127260883D01*
X89428607Y-127278607D01*
X89410883Y-127294671D01*
X89391670Y-127308921D01*
X89371153Y-127321218D01*
X89349529Y-127331446D01*
X89327007Y-127339504D01*
X89303803Y-127345316D01*
X89280142Y-127348826D01*
X89256250Y-127350000D01*
X88343750Y-127350000D01*
X88319858Y-127348826D01*
X88296197Y-127345316D01*
X88272993Y-127339504D01*
X88250471Y-127331446D01*
X88228847Y-127321218D01*
X88208330Y-127308921D01*
X88189117Y-127294671D01*
X88171393Y-127278607D01*
X88155329Y-127260883D01*
X88141079Y-127241670D01*
X88128782Y-127221153D01*
X88118554Y-127199529D01*
X88110496Y-127177007D01*
X88104684Y-127153803D01*
X88101174Y-127130142D01*
X88100000Y-127106250D01*
X88100000Y-126618750D01*
X88101174Y-126594858D01*
X88104684Y-126571197D01*
X88110496Y-126547993D01*
X88118554Y-126525471D01*
X88128782Y-126503847D01*
X88141079Y-126483330D01*
X88155329Y-126464117D01*
X88171393Y-126446393D01*
X88189117Y-126430329D01*
X88208330Y-126416079D01*
X88228847Y-126403782D01*
X88250471Y-126393554D01*
X88272993Y-126385496D01*
X88296197Y-126379684D01*
X88319858Y-126376174D01*
X88343750Y-126375000D01*
X89256250Y-126375000D01*
X89280142Y-126376174D01*
G37*
G36*
X91180142Y-128251174D02*
G01*
X91203803Y-128254684D01*
X91227007Y-128260496D01*
X91249529Y-128268554D01*
X91271153Y-128278782D01*
X91291670Y-128291079D01*
X91310883Y-128305329D01*
X91328607Y-128321393D01*
X91344671Y-128339117D01*
X91358921Y-128358330D01*
X91371218Y-128378847D01*
X91381446Y-128400471D01*
X91389504Y-128422993D01*
X91395316Y-128446197D01*
X91398826Y-128469858D01*
X91400000Y-128493750D01*
X91400000Y-128981250D01*
X91398826Y-129005142D01*
X91395316Y-129028803D01*
X91389504Y-129052007D01*
X91381446Y-129074529D01*
X91371218Y-129096153D01*
X91358921Y-129116670D01*
X91344671Y-129135883D01*
X91328607Y-129153607D01*
X91310883Y-129169671D01*
X91291670Y-129183921D01*
X91271153Y-129196218D01*
X91249529Y-129206446D01*
X91227007Y-129214504D01*
X91203803Y-129220316D01*
X91180142Y-129223826D01*
X91156250Y-129225000D01*
X90243750Y-129225000D01*
X90219858Y-129223826D01*
X90196197Y-129220316D01*
X90172993Y-129214504D01*
X90150471Y-129206446D01*
X90128847Y-129196218D01*
X90108330Y-129183921D01*
X90089117Y-129169671D01*
X90071393Y-129153607D01*
X90055329Y-129135883D01*
X90041079Y-129116670D01*
X90028782Y-129096153D01*
X90018554Y-129074529D01*
X90010496Y-129052007D01*
X90004684Y-129028803D01*
X90001174Y-129005142D01*
X90000000Y-128981250D01*
X90000000Y-128493750D01*
X90001174Y-128469858D01*
X90004684Y-128446197D01*
X90010496Y-128422993D01*
X90018554Y-128400471D01*
X90028782Y-128378847D01*
X90041079Y-128358330D01*
X90055329Y-128339117D01*
X90071393Y-128321393D01*
X90089117Y-128305329D01*
X90108330Y-128291079D01*
X90128847Y-128278782D01*
X90150471Y-128268554D01*
X90172993Y-128260496D01*
X90196197Y-128254684D01*
X90219858Y-128251174D01*
X90243750Y-128250000D01*
X91156250Y-128250000D01*
X91180142Y-128251174D01*
G37*
G36*
X91180142Y-126376174D02*
G01*
X91203803Y-126379684D01*
X91227007Y-126385496D01*
X91249529Y-126393554D01*
X91271153Y-126403782D01*
X91291670Y-126416079D01*
X91310883Y-126430329D01*
X91328607Y-126446393D01*
X91344671Y-126464117D01*
X91358921Y-126483330D01*
X91371218Y-126503847D01*
X91381446Y-126525471D01*
X91389504Y-126547993D01*
X91395316Y-126571197D01*
X91398826Y-126594858D01*
X91400000Y-126618750D01*
X91400000Y-127106250D01*
X91398826Y-127130142D01*
X91395316Y-127153803D01*
X91389504Y-127177007D01*
X91381446Y-127199529D01*
X91371218Y-127221153D01*
X91358921Y-127241670D01*
X91344671Y-127260883D01*
X91328607Y-127278607D01*
X91310883Y-127294671D01*
X91291670Y-127308921D01*
X91271153Y-127321218D01*
X91249529Y-127331446D01*
X91227007Y-127339504D01*
X91203803Y-127345316D01*
X91180142Y-127348826D01*
X91156250Y-127350000D01*
X90243750Y-127350000D01*
X90219858Y-127348826D01*
X90196197Y-127345316D01*
X90172993Y-127339504D01*
X90150471Y-127331446D01*
X90128847Y-127321218D01*
X90108330Y-127308921D01*
X90089117Y-127294671D01*
X90071393Y-127278607D01*
X90055329Y-127260883D01*
X90041079Y-127241670D01*
X90028782Y-127221153D01*
X90018554Y-127199529D01*
X90010496Y-127177007D01*
X90004684Y-127153803D01*
X90001174Y-127130142D01*
X90000000Y-127106250D01*
X90000000Y-126618750D01*
X90001174Y-126594858D01*
X90004684Y-126571197D01*
X90010496Y-126547993D01*
X90018554Y-126525471D01*
X90028782Y-126503847D01*
X90041079Y-126483330D01*
X90055329Y-126464117D01*
X90071393Y-126446393D01*
X90089117Y-126430329D01*
X90108330Y-126416079D01*
X90128847Y-126403782D01*
X90150471Y-126393554D01*
X90172993Y-126385496D01*
X90196197Y-126379684D01*
X90219858Y-126376174D01*
X90243750Y-126375000D01*
X91156250Y-126375000D01*
X91180142Y-126376174D01*
G37*
G36*
X87380142Y-128288674D02*
G01*
X87403803Y-128292184D01*
X87427007Y-128297996D01*
X87449529Y-128306054D01*
X87471153Y-128316282D01*
X87491670Y-128328579D01*
X87510883Y-128342829D01*
X87528607Y-128358893D01*
X87544671Y-128376617D01*
X87558921Y-128395830D01*
X87571218Y-128416347D01*
X87581446Y-128437971D01*
X87589504Y-128460493D01*
X87595316Y-128483697D01*
X87598826Y-128507358D01*
X87600000Y-128531250D01*
X87600000Y-129018750D01*
X87598826Y-129042642D01*
X87595316Y-129066303D01*
X87589504Y-129089507D01*
X87581446Y-129112029D01*
X87571218Y-129133653D01*
X87558921Y-129154170D01*
X87544671Y-129173383D01*
X87528607Y-129191107D01*
X87510883Y-129207171D01*
X87491670Y-129221421D01*
X87471153Y-129233718D01*
X87449529Y-129243946D01*
X87427007Y-129252004D01*
X87403803Y-129257816D01*
X87380142Y-129261326D01*
X87356250Y-129262500D01*
X86443750Y-129262500D01*
X86419858Y-129261326D01*
X86396197Y-129257816D01*
X86372993Y-129252004D01*
X86350471Y-129243946D01*
X86328847Y-129233718D01*
X86308330Y-129221421D01*
X86289117Y-129207171D01*
X86271393Y-129191107D01*
X86255329Y-129173383D01*
X86241079Y-129154170D01*
X86228782Y-129133653D01*
X86218554Y-129112029D01*
X86210496Y-129089507D01*
X86204684Y-129066303D01*
X86201174Y-129042642D01*
X86200000Y-129018750D01*
X86200000Y-128531250D01*
X86201174Y-128507358D01*
X86204684Y-128483697D01*
X86210496Y-128460493D01*
X86218554Y-128437971D01*
X86228782Y-128416347D01*
X86241079Y-128395830D01*
X86255329Y-128376617D01*
X86271393Y-128358893D01*
X86289117Y-128342829D01*
X86308330Y-128328579D01*
X86328847Y-128316282D01*
X86350471Y-128306054D01*
X86372993Y-128297996D01*
X86396197Y-128292184D01*
X86419858Y-128288674D01*
X86443750Y-128287500D01*
X87356250Y-128287500D01*
X87380142Y-128288674D01*
G37*
G36*
X87380142Y-126413674D02*
G01*
X87403803Y-126417184D01*
X87427007Y-126422996D01*
X87449529Y-126431054D01*
X87471153Y-126441282D01*
X87491670Y-126453579D01*
X87510883Y-126467829D01*
X87528607Y-126483893D01*
X87544671Y-126501617D01*
X87558921Y-126520830D01*
X87571218Y-126541347D01*
X87581446Y-126562971D01*
X87589504Y-126585493D01*
X87595316Y-126608697D01*
X87598826Y-126632358D01*
X87600000Y-126656250D01*
X87600000Y-127143750D01*
X87598826Y-127167642D01*
X87595316Y-127191303D01*
X87589504Y-127214507D01*
X87581446Y-127237029D01*
X87571218Y-127258653D01*
X87558921Y-127279170D01*
X87544671Y-127298383D01*
X87528607Y-127316107D01*
X87510883Y-127332171D01*
X87491670Y-127346421D01*
X87471153Y-127358718D01*
X87449529Y-127368946D01*
X87427007Y-127377004D01*
X87403803Y-127382816D01*
X87380142Y-127386326D01*
X87356250Y-127387500D01*
X86443750Y-127387500D01*
X86419858Y-127386326D01*
X86396197Y-127382816D01*
X86372993Y-127377004D01*
X86350471Y-127368946D01*
X86328847Y-127358718D01*
X86308330Y-127346421D01*
X86289117Y-127332171D01*
X86271393Y-127316107D01*
X86255329Y-127298383D01*
X86241079Y-127279170D01*
X86228782Y-127258653D01*
X86218554Y-127237029D01*
X86210496Y-127214507D01*
X86204684Y-127191303D01*
X86201174Y-127167642D01*
X86200000Y-127143750D01*
X86200000Y-126656250D01*
X86201174Y-126632358D01*
X86204684Y-126608697D01*
X86210496Y-126585493D01*
X86218554Y-126562971D01*
X86228782Y-126541347D01*
X86241079Y-126520830D01*
X86255329Y-126501617D01*
X86271393Y-126483893D01*
X86289117Y-126467829D01*
X86308330Y-126453579D01*
X86328847Y-126441282D01*
X86350471Y-126431054D01*
X86372993Y-126422996D01*
X86396197Y-126417184D01*
X86419858Y-126413674D01*
X86443750Y-126412500D01*
X87356250Y-126412500D01*
X87380142Y-126413674D01*
G37*
G36*
X85480142Y-128288674D02*
G01*
X85503803Y-128292184D01*
X85527007Y-128297996D01*
X85549529Y-128306054D01*
X85571153Y-128316282D01*
X85591670Y-128328579D01*
X85610883Y-128342829D01*
X85628607Y-128358893D01*
X85644671Y-128376617D01*
X85658921Y-128395830D01*
X85671218Y-128416347D01*
X85681446Y-128437971D01*
X85689504Y-128460493D01*
X85695316Y-128483697D01*
X85698826Y-128507358D01*
X85700000Y-128531250D01*
X85700000Y-129018750D01*
X85698826Y-129042642D01*
X85695316Y-129066303D01*
X85689504Y-129089507D01*
X85681446Y-129112029D01*
X85671218Y-129133653D01*
X85658921Y-129154170D01*
X85644671Y-129173383D01*
X85628607Y-129191107D01*
X85610883Y-129207171D01*
X85591670Y-129221421D01*
X85571153Y-129233718D01*
X85549529Y-129243946D01*
X85527007Y-129252004D01*
X85503803Y-129257816D01*
X85480142Y-129261326D01*
X85456250Y-129262500D01*
X84543750Y-129262500D01*
X84519858Y-129261326D01*
X84496197Y-129257816D01*
X84472993Y-129252004D01*
X84450471Y-129243946D01*
X84428847Y-129233718D01*
X84408330Y-129221421D01*
X84389117Y-129207171D01*
X84371393Y-129191107D01*
X84355329Y-129173383D01*
X84341079Y-129154170D01*
X84328782Y-129133653D01*
X84318554Y-129112029D01*
X84310496Y-129089507D01*
X84304684Y-129066303D01*
X84301174Y-129042642D01*
X84300000Y-129018750D01*
X84300000Y-128531250D01*
X84301174Y-128507358D01*
X84304684Y-128483697D01*
X84310496Y-128460493D01*
X84318554Y-128437971D01*
X84328782Y-128416347D01*
X84341079Y-128395830D01*
X84355329Y-128376617D01*
X84371393Y-128358893D01*
X84389117Y-128342829D01*
X84408330Y-128328579D01*
X84428847Y-128316282D01*
X84450471Y-128306054D01*
X84472993Y-128297996D01*
X84496197Y-128292184D01*
X84519858Y-128288674D01*
X84543750Y-128287500D01*
X85456250Y-128287500D01*
X85480142Y-128288674D01*
G37*
G36*
X85480142Y-126413674D02*
G01*
X85503803Y-126417184D01*
X85527007Y-126422996D01*
X85549529Y-126431054D01*
X85571153Y-126441282D01*
X85591670Y-126453579D01*
X85610883Y-126467829D01*
X85628607Y-126483893D01*
X85644671Y-126501617D01*
X85658921Y-126520830D01*
X85671218Y-126541347D01*
X85681446Y-126562971D01*
X85689504Y-126585493D01*
X85695316Y-126608697D01*
X85698826Y-126632358D01*
X85700000Y-126656250D01*
X85700000Y-127143750D01*
X85698826Y-127167642D01*
X85695316Y-127191303D01*
X85689504Y-127214507D01*
X85681446Y-127237029D01*
X85671218Y-127258653D01*
X85658921Y-127279170D01*
X85644671Y-127298383D01*
X85628607Y-127316107D01*
X85610883Y-127332171D01*
X85591670Y-127346421D01*
X85571153Y-127358718D01*
X85549529Y-127368946D01*
X85527007Y-127377004D01*
X85503803Y-127382816D01*
X85480142Y-127386326D01*
X85456250Y-127387500D01*
X84543750Y-127387500D01*
X84519858Y-127386326D01*
X84496197Y-127382816D01*
X84472993Y-127377004D01*
X84450471Y-127368946D01*
X84428847Y-127358718D01*
X84408330Y-127346421D01*
X84389117Y-127332171D01*
X84371393Y-127316107D01*
X84355329Y-127298383D01*
X84341079Y-127279170D01*
X84328782Y-127258653D01*
X84318554Y-127237029D01*
X84310496Y-127214507D01*
X84304684Y-127191303D01*
X84301174Y-127167642D01*
X84300000Y-127143750D01*
X84300000Y-126656250D01*
X84301174Y-126632358D01*
X84304684Y-126608697D01*
X84310496Y-126585493D01*
X84318554Y-126562971D01*
X84328782Y-126541347D01*
X84341079Y-126520830D01*
X84355329Y-126501617D01*
X84371393Y-126483893D01*
X84389117Y-126467829D01*
X84408330Y-126453579D01*
X84428847Y-126441282D01*
X84450471Y-126431054D01*
X84472993Y-126422996D01*
X84496197Y-126417184D01*
X84519858Y-126413674D01*
X84543750Y-126412500D01*
X85456250Y-126412500D01*
X85480142Y-126413674D01*
G37*
G36*
X91080142Y-46451174D02*
G01*
X91103803Y-46454684D01*
X91127007Y-46460496D01*
X91149529Y-46468554D01*
X91171153Y-46478782D01*
X91191670Y-46491079D01*
X91210883Y-46505329D01*
X91228607Y-46521393D01*
X91244671Y-46539117D01*
X91258921Y-46558330D01*
X91271218Y-46578847D01*
X91281446Y-46600471D01*
X91289504Y-46622993D01*
X91295316Y-46646197D01*
X91298826Y-46669858D01*
X91300000Y-46693750D01*
X91300000Y-47181250D01*
X91298826Y-47205142D01*
X91295316Y-47228803D01*
X91289504Y-47252007D01*
X91281446Y-47274529D01*
X91271218Y-47296153D01*
X91258921Y-47316670D01*
X91244671Y-47335883D01*
X91228607Y-47353607D01*
X91210883Y-47369671D01*
X91191670Y-47383921D01*
X91171153Y-47396218D01*
X91149529Y-47406446D01*
X91127007Y-47414504D01*
X91103803Y-47420316D01*
X91080142Y-47423826D01*
X91056250Y-47425000D01*
X90143750Y-47425000D01*
X90119858Y-47423826D01*
X90096197Y-47420316D01*
X90072993Y-47414504D01*
X90050471Y-47406446D01*
X90028847Y-47396218D01*
X90008330Y-47383921D01*
X89989117Y-47369671D01*
X89971393Y-47353607D01*
X89955329Y-47335883D01*
X89941079Y-47316670D01*
X89928782Y-47296153D01*
X89918554Y-47274529D01*
X89910496Y-47252007D01*
X89904684Y-47228803D01*
X89901174Y-47205142D01*
X89900000Y-47181250D01*
X89900000Y-46693750D01*
X89901174Y-46669858D01*
X89904684Y-46646197D01*
X89910496Y-46622993D01*
X89918554Y-46600471D01*
X89928782Y-46578847D01*
X89941079Y-46558330D01*
X89955329Y-46539117D01*
X89971393Y-46521393D01*
X89989117Y-46505329D01*
X90008330Y-46491079D01*
X90028847Y-46478782D01*
X90050471Y-46468554D01*
X90072993Y-46460496D01*
X90096197Y-46454684D01*
X90119858Y-46451174D01*
X90143750Y-46450000D01*
X91056250Y-46450000D01*
X91080142Y-46451174D01*
G37*
G36*
X91080142Y-44576174D02*
G01*
X91103803Y-44579684D01*
X91127007Y-44585496D01*
X91149529Y-44593554D01*
X91171153Y-44603782D01*
X91191670Y-44616079D01*
X91210883Y-44630329D01*
X91228607Y-44646393D01*
X91244671Y-44664117D01*
X91258921Y-44683330D01*
X91271218Y-44703847D01*
X91281446Y-44725471D01*
X91289504Y-44747993D01*
X91295316Y-44771197D01*
X91298826Y-44794858D01*
X91300000Y-44818750D01*
X91300000Y-45306250D01*
X91298826Y-45330142D01*
X91295316Y-45353803D01*
X91289504Y-45377007D01*
X91281446Y-45399529D01*
X91271218Y-45421153D01*
X91258921Y-45441670D01*
X91244671Y-45460883D01*
X91228607Y-45478607D01*
X91210883Y-45494671D01*
X91191670Y-45508921D01*
X91171153Y-45521218D01*
X91149529Y-45531446D01*
X91127007Y-45539504D01*
X91103803Y-45545316D01*
X91080142Y-45548826D01*
X91056250Y-45550000D01*
X90143750Y-45550000D01*
X90119858Y-45548826D01*
X90096197Y-45545316D01*
X90072993Y-45539504D01*
X90050471Y-45531446D01*
X90028847Y-45521218D01*
X90008330Y-45508921D01*
X89989117Y-45494671D01*
X89971393Y-45478607D01*
X89955329Y-45460883D01*
X89941079Y-45441670D01*
X89928782Y-45421153D01*
X89918554Y-45399529D01*
X89910496Y-45377007D01*
X89904684Y-45353803D01*
X89901174Y-45330142D01*
X89900000Y-45306250D01*
X89900000Y-44818750D01*
X89901174Y-44794858D01*
X89904684Y-44771197D01*
X89910496Y-44747993D01*
X89918554Y-44725471D01*
X89928782Y-44703847D01*
X89941079Y-44683330D01*
X89955329Y-44664117D01*
X89971393Y-44646393D01*
X89989117Y-44630329D01*
X90008330Y-44616079D01*
X90028847Y-44603782D01*
X90050471Y-44593554D01*
X90072993Y-44585496D01*
X90096197Y-44579684D01*
X90119858Y-44576174D01*
X90143750Y-44575000D01*
X91056250Y-44575000D01*
X91080142Y-44576174D01*
G37*
G36*
X91080142Y-40651174D02*
G01*
X91103803Y-40654684D01*
X91127007Y-40660496D01*
X91149529Y-40668554D01*
X91171153Y-40678782D01*
X91191670Y-40691079D01*
X91210883Y-40705329D01*
X91228607Y-40721393D01*
X91244671Y-40739117D01*
X91258921Y-40758330D01*
X91271218Y-40778847D01*
X91281446Y-40800471D01*
X91289504Y-40822993D01*
X91295316Y-40846197D01*
X91298826Y-40869858D01*
X91300000Y-40893750D01*
X91300000Y-41381250D01*
X91298826Y-41405142D01*
X91295316Y-41428803D01*
X91289504Y-41452007D01*
X91281446Y-41474529D01*
X91271218Y-41496153D01*
X91258921Y-41516670D01*
X91244671Y-41535883D01*
X91228607Y-41553607D01*
X91210883Y-41569671D01*
X91191670Y-41583921D01*
X91171153Y-41596218D01*
X91149529Y-41606446D01*
X91127007Y-41614504D01*
X91103803Y-41620316D01*
X91080142Y-41623826D01*
X91056250Y-41625000D01*
X90143750Y-41625000D01*
X90119858Y-41623826D01*
X90096197Y-41620316D01*
X90072993Y-41614504D01*
X90050471Y-41606446D01*
X90028847Y-41596218D01*
X90008330Y-41583921D01*
X89989117Y-41569671D01*
X89971393Y-41553607D01*
X89955329Y-41535883D01*
X89941079Y-41516670D01*
X89928782Y-41496153D01*
X89918554Y-41474529D01*
X89910496Y-41452007D01*
X89904684Y-41428803D01*
X89901174Y-41405142D01*
X89900000Y-41381250D01*
X89900000Y-40893750D01*
X89901174Y-40869858D01*
X89904684Y-40846197D01*
X89910496Y-40822993D01*
X89918554Y-40800471D01*
X89928782Y-40778847D01*
X89941079Y-40758330D01*
X89955329Y-40739117D01*
X89971393Y-40721393D01*
X89989117Y-40705329D01*
X90008330Y-40691079D01*
X90028847Y-40678782D01*
X90050471Y-40668554D01*
X90072993Y-40660496D01*
X90096197Y-40654684D01*
X90119858Y-40651174D01*
X90143750Y-40650000D01*
X91056250Y-40650000D01*
X91080142Y-40651174D01*
G37*
G36*
X91080142Y-38776174D02*
G01*
X91103803Y-38779684D01*
X91127007Y-38785496D01*
X91149529Y-38793554D01*
X91171153Y-38803782D01*
X91191670Y-38816079D01*
X91210883Y-38830329D01*
X91228607Y-38846393D01*
X91244671Y-38864117D01*
X91258921Y-38883330D01*
X91271218Y-38903847D01*
X91281446Y-38925471D01*
X91289504Y-38947993D01*
X91295316Y-38971197D01*
X91298826Y-38994858D01*
X91300000Y-39018750D01*
X91300000Y-39506250D01*
X91298826Y-39530142D01*
X91295316Y-39553803D01*
X91289504Y-39577007D01*
X91281446Y-39599529D01*
X91271218Y-39621153D01*
X91258921Y-39641670D01*
X91244671Y-39660883D01*
X91228607Y-39678607D01*
X91210883Y-39694671D01*
X91191670Y-39708921D01*
X91171153Y-39721218D01*
X91149529Y-39731446D01*
X91127007Y-39739504D01*
X91103803Y-39745316D01*
X91080142Y-39748826D01*
X91056250Y-39750000D01*
X90143750Y-39750000D01*
X90119858Y-39748826D01*
X90096197Y-39745316D01*
X90072993Y-39739504D01*
X90050471Y-39731446D01*
X90028847Y-39721218D01*
X90008330Y-39708921D01*
X89989117Y-39694671D01*
X89971393Y-39678607D01*
X89955329Y-39660883D01*
X89941079Y-39641670D01*
X89928782Y-39621153D01*
X89918554Y-39599529D01*
X89910496Y-39577007D01*
X89904684Y-39553803D01*
X89901174Y-39530142D01*
X89900000Y-39506250D01*
X89900000Y-39018750D01*
X89901174Y-38994858D01*
X89904684Y-38971197D01*
X89910496Y-38947993D01*
X89918554Y-38925471D01*
X89928782Y-38903847D01*
X89941079Y-38883330D01*
X89955329Y-38864117D01*
X89971393Y-38846393D01*
X89989117Y-38830329D01*
X90008330Y-38816079D01*
X90028847Y-38803782D01*
X90050471Y-38793554D01*
X90072993Y-38785496D01*
X90096197Y-38779684D01*
X90119858Y-38776174D01*
X90143750Y-38775000D01*
X91056250Y-38775000D01*
X91080142Y-38776174D01*
G37*
G36*
X85780142Y-118876174D02*
G01*
X85803803Y-118879684D01*
X85827007Y-118885496D01*
X85849529Y-118893554D01*
X85871153Y-118903782D01*
X85891670Y-118916079D01*
X85910883Y-118930329D01*
X85928607Y-118946393D01*
X85944671Y-118964117D01*
X85958921Y-118983330D01*
X85971218Y-119003847D01*
X85981446Y-119025471D01*
X85989504Y-119047993D01*
X85995316Y-119071197D01*
X85998826Y-119094858D01*
X86000000Y-119118750D01*
X86000000Y-119606250D01*
X85998826Y-119630142D01*
X85995316Y-119653803D01*
X85989504Y-119677007D01*
X85981446Y-119699529D01*
X85971218Y-119721153D01*
X85958921Y-119741670D01*
X85944671Y-119760883D01*
X85928607Y-119778607D01*
X85910883Y-119794671D01*
X85891670Y-119808921D01*
X85871153Y-119821218D01*
X85849529Y-119831446D01*
X85827007Y-119839504D01*
X85803803Y-119845316D01*
X85780142Y-119848826D01*
X85756250Y-119850000D01*
X84843750Y-119850000D01*
X84819858Y-119848826D01*
X84796197Y-119845316D01*
X84772993Y-119839504D01*
X84750471Y-119831446D01*
X84728847Y-119821218D01*
X84708330Y-119808921D01*
X84689117Y-119794671D01*
X84671393Y-119778607D01*
X84655329Y-119760883D01*
X84641079Y-119741670D01*
X84628782Y-119721153D01*
X84618554Y-119699529D01*
X84610496Y-119677007D01*
X84604684Y-119653803D01*
X84601174Y-119630142D01*
X84600000Y-119606250D01*
X84600000Y-119118750D01*
X84601174Y-119094858D01*
X84604684Y-119071197D01*
X84610496Y-119047993D01*
X84618554Y-119025471D01*
X84628782Y-119003847D01*
X84641079Y-118983330D01*
X84655329Y-118964117D01*
X84671393Y-118946393D01*
X84689117Y-118930329D01*
X84708330Y-118916079D01*
X84728847Y-118903782D01*
X84750471Y-118893554D01*
X84772993Y-118885496D01*
X84796197Y-118879684D01*
X84819858Y-118876174D01*
X84843750Y-118875000D01*
X85756250Y-118875000D01*
X85780142Y-118876174D01*
G37*
G36*
X85780142Y-120751174D02*
G01*
X85803803Y-120754684D01*
X85827007Y-120760496D01*
X85849529Y-120768554D01*
X85871153Y-120778782D01*
X85891670Y-120791079D01*
X85910883Y-120805329D01*
X85928607Y-120821393D01*
X85944671Y-120839117D01*
X85958921Y-120858330D01*
X85971218Y-120878847D01*
X85981446Y-120900471D01*
X85989504Y-120922993D01*
X85995316Y-120946197D01*
X85998826Y-120969858D01*
X86000000Y-120993750D01*
X86000000Y-121481250D01*
X85998826Y-121505142D01*
X85995316Y-121528803D01*
X85989504Y-121552007D01*
X85981446Y-121574529D01*
X85971218Y-121596153D01*
X85958921Y-121616670D01*
X85944671Y-121635883D01*
X85928607Y-121653607D01*
X85910883Y-121669671D01*
X85891670Y-121683921D01*
X85871153Y-121696218D01*
X85849529Y-121706446D01*
X85827007Y-121714504D01*
X85803803Y-121720316D01*
X85780142Y-121723826D01*
X85756250Y-121725000D01*
X84843750Y-121725000D01*
X84819858Y-121723826D01*
X84796197Y-121720316D01*
X84772993Y-121714504D01*
X84750471Y-121706446D01*
X84728847Y-121696218D01*
X84708330Y-121683921D01*
X84689117Y-121669671D01*
X84671393Y-121653607D01*
X84655329Y-121635883D01*
X84641079Y-121616670D01*
X84628782Y-121596153D01*
X84618554Y-121574529D01*
X84610496Y-121552007D01*
X84604684Y-121528803D01*
X84601174Y-121505142D01*
X84600000Y-121481250D01*
X84600000Y-120993750D01*
X84601174Y-120969858D01*
X84604684Y-120946197D01*
X84610496Y-120922993D01*
X84618554Y-120900471D01*
X84628782Y-120878847D01*
X84641079Y-120858330D01*
X84655329Y-120839117D01*
X84671393Y-120821393D01*
X84689117Y-120805329D01*
X84708330Y-120791079D01*
X84728847Y-120778782D01*
X84750471Y-120768554D01*
X84772993Y-120760496D01*
X84796197Y-120754684D01*
X84819858Y-120751174D01*
X84843750Y-120750000D01*
X85756250Y-120750000D01*
X85780142Y-120751174D01*
G37*
G36*
X99505142Y-58301174D02*
G01*
X99528803Y-58304684D01*
X99552007Y-58310496D01*
X99574529Y-58318554D01*
X99596153Y-58328782D01*
X99616670Y-58341079D01*
X99635883Y-58355329D01*
X99653607Y-58371393D01*
X99669671Y-58389117D01*
X99683921Y-58408330D01*
X99696218Y-58428847D01*
X99706446Y-58450471D01*
X99714504Y-58472993D01*
X99720316Y-58496197D01*
X99723826Y-58519858D01*
X99725000Y-58543750D01*
X99725000Y-59456250D01*
X99723826Y-59480142D01*
X99720316Y-59503803D01*
X99714504Y-59527007D01*
X99706446Y-59549529D01*
X99696218Y-59571153D01*
X99683921Y-59591670D01*
X99669671Y-59610883D01*
X99653607Y-59628607D01*
X99635883Y-59644671D01*
X99616670Y-59658921D01*
X99596153Y-59671218D01*
X99574529Y-59681446D01*
X99552007Y-59689504D01*
X99528803Y-59695316D01*
X99505142Y-59698826D01*
X99481250Y-59700000D01*
X98993750Y-59700000D01*
X98969858Y-59698826D01*
X98946197Y-59695316D01*
X98922993Y-59689504D01*
X98900471Y-59681446D01*
X98878847Y-59671218D01*
X98858330Y-59658921D01*
X98839117Y-59644671D01*
X98821393Y-59628607D01*
X98805329Y-59610883D01*
X98791079Y-59591670D01*
X98778782Y-59571153D01*
X98768554Y-59549529D01*
X98760496Y-59527007D01*
X98754684Y-59503803D01*
X98751174Y-59480142D01*
X98750000Y-59456250D01*
X98750000Y-58543750D01*
X98751174Y-58519858D01*
X98754684Y-58496197D01*
X98760496Y-58472993D01*
X98768554Y-58450471D01*
X98778782Y-58428847D01*
X98791079Y-58408330D01*
X98805329Y-58389117D01*
X98821393Y-58371393D01*
X98839117Y-58355329D01*
X98858330Y-58341079D01*
X98878847Y-58328782D01*
X98900471Y-58318554D01*
X98922993Y-58310496D01*
X98946197Y-58304684D01*
X98969858Y-58301174D01*
X98993750Y-58300000D01*
X99481250Y-58300000D01*
X99505142Y-58301174D01*
G37*
G36*
X97630142Y-58301174D02*
G01*
X97653803Y-58304684D01*
X97677007Y-58310496D01*
X97699529Y-58318554D01*
X97721153Y-58328782D01*
X97741670Y-58341079D01*
X97760883Y-58355329D01*
X97778607Y-58371393D01*
X97794671Y-58389117D01*
X97808921Y-58408330D01*
X97821218Y-58428847D01*
X97831446Y-58450471D01*
X97839504Y-58472993D01*
X97845316Y-58496197D01*
X97848826Y-58519858D01*
X97850000Y-58543750D01*
X97850000Y-59456250D01*
X97848826Y-59480142D01*
X97845316Y-59503803D01*
X97839504Y-59527007D01*
X97831446Y-59549529D01*
X97821218Y-59571153D01*
X97808921Y-59591670D01*
X97794671Y-59610883D01*
X97778607Y-59628607D01*
X97760883Y-59644671D01*
X97741670Y-59658921D01*
X97721153Y-59671218D01*
X97699529Y-59681446D01*
X97677007Y-59689504D01*
X97653803Y-59695316D01*
X97630142Y-59698826D01*
X97606250Y-59700000D01*
X97118750Y-59700000D01*
X97094858Y-59698826D01*
X97071197Y-59695316D01*
X97047993Y-59689504D01*
X97025471Y-59681446D01*
X97003847Y-59671218D01*
X96983330Y-59658921D01*
X96964117Y-59644671D01*
X96946393Y-59628607D01*
X96930329Y-59610883D01*
X96916079Y-59591670D01*
X96903782Y-59571153D01*
X96893554Y-59549529D01*
X96885496Y-59527007D01*
X96879684Y-59503803D01*
X96876174Y-59480142D01*
X96875000Y-59456250D01*
X96875000Y-58543750D01*
X96876174Y-58519858D01*
X96879684Y-58496197D01*
X96885496Y-58472993D01*
X96893554Y-58450471D01*
X96903782Y-58428847D01*
X96916079Y-58408330D01*
X96930329Y-58389117D01*
X96946393Y-58371393D01*
X96964117Y-58355329D01*
X96983330Y-58341079D01*
X97003847Y-58328782D01*
X97025471Y-58318554D01*
X97047993Y-58310496D01*
X97071197Y-58304684D01*
X97094858Y-58301174D01*
X97118750Y-58300000D01*
X97606250Y-58300000D01*
X97630142Y-58301174D01*
G37*
G36*
X103680142Y-66551174D02*
G01*
X103703803Y-66554684D01*
X103727007Y-66560496D01*
X103749529Y-66568554D01*
X103771153Y-66578782D01*
X103791670Y-66591079D01*
X103810883Y-66605329D01*
X103828607Y-66621393D01*
X103844671Y-66639117D01*
X103858921Y-66658330D01*
X103871218Y-66678847D01*
X103881446Y-66700471D01*
X103889504Y-66722993D01*
X103895316Y-66746197D01*
X103898826Y-66769858D01*
X103900000Y-66793750D01*
X103900000Y-67281250D01*
X103898826Y-67305142D01*
X103895316Y-67328803D01*
X103889504Y-67352007D01*
X103881446Y-67374529D01*
X103871218Y-67396153D01*
X103858921Y-67416670D01*
X103844671Y-67435883D01*
X103828607Y-67453607D01*
X103810883Y-67469671D01*
X103791670Y-67483921D01*
X103771153Y-67496218D01*
X103749529Y-67506446D01*
X103727007Y-67514504D01*
X103703803Y-67520316D01*
X103680142Y-67523826D01*
X103656250Y-67525000D01*
X102743750Y-67525000D01*
X102719858Y-67523826D01*
X102696197Y-67520316D01*
X102672993Y-67514504D01*
X102650471Y-67506446D01*
X102628847Y-67496218D01*
X102608330Y-67483921D01*
X102589117Y-67469671D01*
X102571393Y-67453607D01*
X102555329Y-67435883D01*
X102541079Y-67416670D01*
X102528782Y-67396153D01*
X102518554Y-67374529D01*
X102510496Y-67352007D01*
X102504684Y-67328803D01*
X102501174Y-67305142D01*
X102500000Y-67281250D01*
X102500000Y-66793750D01*
X102501174Y-66769858D01*
X102504684Y-66746197D01*
X102510496Y-66722993D01*
X102518554Y-66700471D01*
X102528782Y-66678847D01*
X102541079Y-66658330D01*
X102555329Y-66639117D01*
X102571393Y-66621393D01*
X102589117Y-66605329D01*
X102608330Y-66591079D01*
X102628847Y-66578782D01*
X102650471Y-66568554D01*
X102672993Y-66560496D01*
X102696197Y-66554684D01*
X102719858Y-66551174D01*
X102743750Y-66550000D01*
X103656250Y-66550000D01*
X103680142Y-66551174D01*
G37*
G36*
X103680142Y-64676174D02*
G01*
X103703803Y-64679684D01*
X103727007Y-64685496D01*
X103749529Y-64693554D01*
X103771153Y-64703782D01*
X103791670Y-64716079D01*
X103810883Y-64730329D01*
X103828607Y-64746393D01*
X103844671Y-64764117D01*
X103858921Y-64783330D01*
X103871218Y-64803847D01*
X103881446Y-64825471D01*
X103889504Y-64847993D01*
X103895316Y-64871197D01*
X103898826Y-64894858D01*
X103900000Y-64918750D01*
X103900000Y-65406250D01*
X103898826Y-65430142D01*
X103895316Y-65453803D01*
X103889504Y-65477007D01*
X103881446Y-65499529D01*
X103871218Y-65521153D01*
X103858921Y-65541670D01*
X103844671Y-65560883D01*
X103828607Y-65578607D01*
X103810883Y-65594671D01*
X103791670Y-65608921D01*
X103771153Y-65621218D01*
X103749529Y-65631446D01*
X103727007Y-65639504D01*
X103703803Y-65645316D01*
X103680142Y-65648826D01*
X103656250Y-65650000D01*
X102743750Y-65650000D01*
X102719858Y-65648826D01*
X102696197Y-65645316D01*
X102672993Y-65639504D01*
X102650471Y-65631446D01*
X102628847Y-65621218D01*
X102608330Y-65608921D01*
X102589117Y-65594671D01*
X102571393Y-65578607D01*
X102555329Y-65560883D01*
X102541079Y-65541670D01*
X102528782Y-65521153D01*
X102518554Y-65499529D01*
X102510496Y-65477007D01*
X102504684Y-65453803D01*
X102501174Y-65430142D01*
X102500000Y-65406250D01*
X102500000Y-64918750D01*
X102501174Y-64894858D01*
X102504684Y-64871197D01*
X102510496Y-64847993D01*
X102518554Y-64825471D01*
X102528782Y-64803847D01*
X102541079Y-64783330D01*
X102555329Y-64764117D01*
X102571393Y-64746393D01*
X102589117Y-64730329D01*
X102608330Y-64716079D01*
X102628847Y-64703782D01*
X102650471Y-64693554D01*
X102672993Y-64685496D01*
X102696197Y-64679684D01*
X102719858Y-64676174D01*
X102743750Y-64675000D01*
X103656250Y-64675000D01*
X103680142Y-64676174D01*
G37*
D12*
X127900000Y-55200000D03*
X126950000Y-53200000D03*
X128850000Y-53200000D03*
D15*
X141550000Y-48800000D03*
X138250000Y-48800000D03*
X120650000Y-40900000D03*
X123950000Y-40900000D03*
D14*
G36*
X125380142Y-52976174D02*
G01*
X125403803Y-52979684D01*
X125427007Y-52985496D01*
X125449529Y-52993554D01*
X125471153Y-53003782D01*
X125491670Y-53016079D01*
X125510883Y-53030329D01*
X125528607Y-53046393D01*
X125544671Y-53064117D01*
X125558921Y-53083330D01*
X125571218Y-53103847D01*
X125581446Y-53125471D01*
X125589504Y-53147993D01*
X125595316Y-53171197D01*
X125598826Y-53194858D01*
X125600000Y-53218750D01*
X125600000Y-53706250D01*
X125598826Y-53730142D01*
X125595316Y-53753803D01*
X125589504Y-53777007D01*
X125581446Y-53799529D01*
X125571218Y-53821153D01*
X125558921Y-53841670D01*
X125544671Y-53860883D01*
X125528607Y-53878607D01*
X125510883Y-53894671D01*
X125491670Y-53908921D01*
X125471153Y-53921218D01*
X125449529Y-53931446D01*
X125427007Y-53939504D01*
X125403803Y-53945316D01*
X125380142Y-53948826D01*
X125356250Y-53950000D01*
X124443750Y-53950000D01*
X124419858Y-53948826D01*
X124396197Y-53945316D01*
X124372993Y-53939504D01*
X124350471Y-53931446D01*
X124328847Y-53921218D01*
X124308330Y-53908921D01*
X124289117Y-53894671D01*
X124271393Y-53878607D01*
X124255329Y-53860883D01*
X124241079Y-53841670D01*
X124228782Y-53821153D01*
X124218554Y-53799529D01*
X124210496Y-53777007D01*
X124204684Y-53753803D01*
X124201174Y-53730142D01*
X124200000Y-53706250D01*
X124200000Y-53218750D01*
X124201174Y-53194858D01*
X124204684Y-53171197D01*
X124210496Y-53147993D01*
X124218554Y-53125471D01*
X124228782Y-53103847D01*
X124241079Y-53083330D01*
X124255329Y-53064117D01*
X124271393Y-53046393D01*
X124289117Y-53030329D01*
X124308330Y-53016079D01*
X124328847Y-53003782D01*
X124350471Y-52993554D01*
X124372993Y-52985496D01*
X124396197Y-52979684D01*
X124419858Y-52976174D01*
X124443750Y-52975000D01*
X125356250Y-52975000D01*
X125380142Y-52976174D01*
G37*
G36*
X125380142Y-54851174D02*
G01*
X125403803Y-54854684D01*
X125427007Y-54860496D01*
X125449529Y-54868554D01*
X125471153Y-54878782D01*
X125491670Y-54891079D01*
X125510883Y-54905329D01*
X125528607Y-54921393D01*
X125544671Y-54939117D01*
X125558921Y-54958330D01*
X125571218Y-54978847D01*
X125581446Y-55000471D01*
X125589504Y-55022993D01*
X125595316Y-55046197D01*
X125598826Y-55069858D01*
X125600000Y-55093750D01*
X125600000Y-55581250D01*
X125598826Y-55605142D01*
X125595316Y-55628803D01*
X125589504Y-55652007D01*
X125581446Y-55674529D01*
X125571218Y-55696153D01*
X125558921Y-55716670D01*
X125544671Y-55735883D01*
X125528607Y-55753607D01*
X125510883Y-55769671D01*
X125491670Y-55783921D01*
X125471153Y-55796218D01*
X125449529Y-55806446D01*
X125427007Y-55814504D01*
X125403803Y-55820316D01*
X125380142Y-55823826D01*
X125356250Y-55825000D01*
X124443750Y-55825000D01*
X124419858Y-55823826D01*
X124396197Y-55820316D01*
X124372993Y-55814504D01*
X124350471Y-55806446D01*
X124328847Y-55796218D01*
X124308330Y-55783921D01*
X124289117Y-55769671D01*
X124271393Y-55753607D01*
X124255329Y-55735883D01*
X124241079Y-55716670D01*
X124228782Y-55696153D01*
X124218554Y-55674529D01*
X124210496Y-55652007D01*
X124204684Y-55628803D01*
X124201174Y-55605142D01*
X124200000Y-55581250D01*
X124200000Y-55093750D01*
X124201174Y-55069858D01*
X124204684Y-55046197D01*
X124210496Y-55022993D01*
X124218554Y-55000471D01*
X124228782Y-54978847D01*
X124241079Y-54958330D01*
X124255329Y-54939117D01*
X124271393Y-54921393D01*
X124289117Y-54905329D01*
X124308330Y-54891079D01*
X124328847Y-54878782D01*
X124350471Y-54868554D01*
X124372993Y-54860496D01*
X124396197Y-54854684D01*
X124419858Y-54851174D01*
X124443750Y-54850000D01*
X125356250Y-54850000D01*
X125380142Y-54851174D01*
G37*
G36*
X118380142Y-45551174D02*
G01*
X118403803Y-45554684D01*
X118427007Y-45560496D01*
X118449529Y-45568554D01*
X118471153Y-45578782D01*
X118491670Y-45591079D01*
X118510883Y-45605329D01*
X118528607Y-45621393D01*
X118544671Y-45639117D01*
X118558921Y-45658330D01*
X118571218Y-45678847D01*
X118581446Y-45700471D01*
X118589504Y-45722993D01*
X118595316Y-45746197D01*
X118598826Y-45769858D01*
X118600000Y-45793750D01*
X118600000Y-46281250D01*
X118598826Y-46305142D01*
X118595316Y-46328803D01*
X118589504Y-46352007D01*
X118581446Y-46374529D01*
X118571218Y-46396153D01*
X118558921Y-46416670D01*
X118544671Y-46435883D01*
X118528607Y-46453607D01*
X118510883Y-46469671D01*
X118491670Y-46483921D01*
X118471153Y-46496218D01*
X118449529Y-46506446D01*
X118427007Y-46514504D01*
X118403803Y-46520316D01*
X118380142Y-46523826D01*
X118356250Y-46525000D01*
X117443750Y-46525000D01*
X117419858Y-46523826D01*
X117396197Y-46520316D01*
X117372993Y-46514504D01*
X117350471Y-46506446D01*
X117328847Y-46496218D01*
X117308330Y-46483921D01*
X117289117Y-46469671D01*
X117271393Y-46453607D01*
X117255329Y-46435883D01*
X117241079Y-46416670D01*
X117228782Y-46396153D01*
X117218554Y-46374529D01*
X117210496Y-46352007D01*
X117204684Y-46328803D01*
X117201174Y-46305142D01*
X117200000Y-46281250D01*
X117200000Y-45793750D01*
X117201174Y-45769858D01*
X117204684Y-45746197D01*
X117210496Y-45722993D01*
X117218554Y-45700471D01*
X117228782Y-45678847D01*
X117241079Y-45658330D01*
X117255329Y-45639117D01*
X117271393Y-45621393D01*
X117289117Y-45605329D01*
X117308330Y-45591079D01*
X117328847Y-45578782D01*
X117350471Y-45568554D01*
X117372993Y-45560496D01*
X117396197Y-45554684D01*
X117419858Y-45551174D01*
X117443750Y-45550000D01*
X118356250Y-45550000D01*
X118380142Y-45551174D01*
G37*
G36*
X118380142Y-43676174D02*
G01*
X118403803Y-43679684D01*
X118427007Y-43685496D01*
X118449529Y-43693554D01*
X118471153Y-43703782D01*
X118491670Y-43716079D01*
X118510883Y-43730329D01*
X118528607Y-43746393D01*
X118544671Y-43764117D01*
X118558921Y-43783330D01*
X118571218Y-43803847D01*
X118581446Y-43825471D01*
X118589504Y-43847993D01*
X118595316Y-43871197D01*
X118598826Y-43894858D01*
X118600000Y-43918750D01*
X118600000Y-44406250D01*
X118598826Y-44430142D01*
X118595316Y-44453803D01*
X118589504Y-44477007D01*
X118581446Y-44499529D01*
X118571218Y-44521153D01*
X118558921Y-44541670D01*
X118544671Y-44560883D01*
X118528607Y-44578607D01*
X118510883Y-44594671D01*
X118491670Y-44608921D01*
X118471153Y-44621218D01*
X118449529Y-44631446D01*
X118427007Y-44639504D01*
X118403803Y-44645316D01*
X118380142Y-44648826D01*
X118356250Y-44650000D01*
X117443750Y-44650000D01*
X117419858Y-44648826D01*
X117396197Y-44645316D01*
X117372993Y-44639504D01*
X117350471Y-44631446D01*
X117328847Y-44621218D01*
X117308330Y-44608921D01*
X117289117Y-44594671D01*
X117271393Y-44578607D01*
X117255329Y-44560883D01*
X117241079Y-44541670D01*
X117228782Y-44521153D01*
X117218554Y-44499529D01*
X117210496Y-44477007D01*
X117204684Y-44453803D01*
X117201174Y-44430142D01*
X117200000Y-44406250D01*
X117200000Y-43918750D01*
X117201174Y-43894858D01*
X117204684Y-43871197D01*
X117210496Y-43847993D01*
X117218554Y-43825471D01*
X117228782Y-43803847D01*
X117241079Y-43783330D01*
X117255329Y-43764117D01*
X117271393Y-43746393D01*
X117289117Y-43730329D01*
X117308330Y-43716079D01*
X117328847Y-43703782D01*
X117350471Y-43693554D01*
X117372993Y-43685496D01*
X117396197Y-43679684D01*
X117419858Y-43676174D01*
X117443750Y-43675000D01*
X118356250Y-43675000D01*
X118380142Y-43676174D01*
G37*
G36*
X88680142Y-56251174D02*
G01*
X88703803Y-56254684D01*
X88727007Y-56260496D01*
X88749529Y-56268554D01*
X88771153Y-56278782D01*
X88791670Y-56291079D01*
X88810883Y-56305329D01*
X88828607Y-56321393D01*
X88844671Y-56339117D01*
X88858921Y-56358330D01*
X88871218Y-56378847D01*
X88881446Y-56400471D01*
X88889504Y-56422993D01*
X88895316Y-56446197D01*
X88898826Y-56469858D01*
X88900000Y-56493750D01*
X88900000Y-56981250D01*
X88898826Y-57005142D01*
X88895316Y-57028803D01*
X88889504Y-57052007D01*
X88881446Y-57074529D01*
X88871218Y-57096153D01*
X88858921Y-57116670D01*
X88844671Y-57135883D01*
X88828607Y-57153607D01*
X88810883Y-57169671D01*
X88791670Y-57183921D01*
X88771153Y-57196218D01*
X88749529Y-57206446D01*
X88727007Y-57214504D01*
X88703803Y-57220316D01*
X88680142Y-57223826D01*
X88656250Y-57225000D01*
X87743750Y-57225000D01*
X87719858Y-57223826D01*
X87696197Y-57220316D01*
X87672993Y-57214504D01*
X87650471Y-57206446D01*
X87628847Y-57196218D01*
X87608330Y-57183921D01*
X87589117Y-57169671D01*
X87571393Y-57153607D01*
X87555329Y-57135883D01*
X87541079Y-57116670D01*
X87528782Y-57096153D01*
X87518554Y-57074529D01*
X87510496Y-57052007D01*
X87504684Y-57028803D01*
X87501174Y-57005142D01*
X87500000Y-56981250D01*
X87500000Y-56493750D01*
X87501174Y-56469858D01*
X87504684Y-56446197D01*
X87510496Y-56422993D01*
X87518554Y-56400471D01*
X87528782Y-56378847D01*
X87541079Y-56358330D01*
X87555329Y-56339117D01*
X87571393Y-56321393D01*
X87589117Y-56305329D01*
X87608330Y-56291079D01*
X87628847Y-56278782D01*
X87650471Y-56268554D01*
X87672993Y-56260496D01*
X87696197Y-56254684D01*
X87719858Y-56251174D01*
X87743750Y-56250000D01*
X88656250Y-56250000D01*
X88680142Y-56251174D01*
G37*
G36*
X88680142Y-54376174D02*
G01*
X88703803Y-54379684D01*
X88727007Y-54385496D01*
X88749529Y-54393554D01*
X88771153Y-54403782D01*
X88791670Y-54416079D01*
X88810883Y-54430329D01*
X88828607Y-54446393D01*
X88844671Y-54464117D01*
X88858921Y-54483330D01*
X88871218Y-54503847D01*
X88881446Y-54525471D01*
X88889504Y-54547993D01*
X88895316Y-54571197D01*
X88898826Y-54594858D01*
X88900000Y-54618750D01*
X88900000Y-55106250D01*
X88898826Y-55130142D01*
X88895316Y-55153803D01*
X88889504Y-55177007D01*
X88881446Y-55199529D01*
X88871218Y-55221153D01*
X88858921Y-55241670D01*
X88844671Y-55260883D01*
X88828607Y-55278607D01*
X88810883Y-55294671D01*
X88791670Y-55308921D01*
X88771153Y-55321218D01*
X88749529Y-55331446D01*
X88727007Y-55339504D01*
X88703803Y-55345316D01*
X88680142Y-55348826D01*
X88656250Y-55350000D01*
X87743750Y-55350000D01*
X87719858Y-55348826D01*
X87696197Y-55345316D01*
X87672993Y-55339504D01*
X87650471Y-55331446D01*
X87628847Y-55321218D01*
X87608330Y-55308921D01*
X87589117Y-55294671D01*
X87571393Y-55278607D01*
X87555329Y-55260883D01*
X87541079Y-55241670D01*
X87528782Y-55221153D01*
X87518554Y-55199529D01*
X87510496Y-55177007D01*
X87504684Y-55153803D01*
X87501174Y-55130142D01*
X87500000Y-55106250D01*
X87500000Y-54618750D01*
X87501174Y-54594858D01*
X87504684Y-54571197D01*
X87510496Y-54547993D01*
X87518554Y-54525471D01*
X87528782Y-54503847D01*
X87541079Y-54483330D01*
X87555329Y-54464117D01*
X87571393Y-54446393D01*
X87589117Y-54430329D01*
X87608330Y-54416079D01*
X87628847Y-54403782D01*
X87650471Y-54393554D01*
X87672993Y-54385496D01*
X87696197Y-54379684D01*
X87719858Y-54376174D01*
X87743750Y-54375000D01*
X88656250Y-54375000D01*
X88680142Y-54376174D01*
G37*
G36*
X114805142Y-60501174D02*
G01*
X114828803Y-60504684D01*
X114852007Y-60510496D01*
X114874529Y-60518554D01*
X114896153Y-60528782D01*
X114916670Y-60541079D01*
X114935883Y-60555329D01*
X114953607Y-60571393D01*
X114969671Y-60589117D01*
X114983921Y-60608330D01*
X114996218Y-60628847D01*
X115006446Y-60650471D01*
X115014504Y-60672993D01*
X115020316Y-60696197D01*
X115023826Y-60719858D01*
X115025000Y-60743750D01*
X115025000Y-61656250D01*
X115023826Y-61680142D01*
X115020316Y-61703803D01*
X115014504Y-61727007D01*
X115006446Y-61749529D01*
X114996218Y-61771153D01*
X114983921Y-61791670D01*
X114969671Y-61810883D01*
X114953607Y-61828607D01*
X114935883Y-61844671D01*
X114916670Y-61858921D01*
X114896153Y-61871218D01*
X114874529Y-61881446D01*
X114852007Y-61889504D01*
X114828803Y-61895316D01*
X114805142Y-61898826D01*
X114781250Y-61900000D01*
X114293750Y-61900000D01*
X114269858Y-61898826D01*
X114246197Y-61895316D01*
X114222993Y-61889504D01*
X114200471Y-61881446D01*
X114178847Y-61871218D01*
X114158330Y-61858921D01*
X114139117Y-61844671D01*
X114121393Y-61828607D01*
X114105329Y-61810883D01*
X114091079Y-61791670D01*
X114078782Y-61771153D01*
X114068554Y-61749529D01*
X114060496Y-61727007D01*
X114054684Y-61703803D01*
X114051174Y-61680142D01*
X114050000Y-61656250D01*
X114050000Y-60743750D01*
X114051174Y-60719858D01*
X114054684Y-60696197D01*
X114060496Y-60672993D01*
X114068554Y-60650471D01*
X114078782Y-60628847D01*
X114091079Y-60608330D01*
X114105329Y-60589117D01*
X114121393Y-60571393D01*
X114139117Y-60555329D01*
X114158330Y-60541079D01*
X114178847Y-60528782D01*
X114200471Y-60518554D01*
X114222993Y-60510496D01*
X114246197Y-60504684D01*
X114269858Y-60501174D01*
X114293750Y-60500000D01*
X114781250Y-60500000D01*
X114805142Y-60501174D01*
G37*
G36*
X112930142Y-60501174D02*
G01*
X112953803Y-60504684D01*
X112977007Y-60510496D01*
X112999529Y-60518554D01*
X113021153Y-60528782D01*
X113041670Y-60541079D01*
X113060883Y-60555329D01*
X113078607Y-60571393D01*
X113094671Y-60589117D01*
X113108921Y-60608330D01*
X113121218Y-60628847D01*
X113131446Y-60650471D01*
X113139504Y-60672993D01*
X113145316Y-60696197D01*
X113148826Y-60719858D01*
X113150000Y-60743750D01*
X113150000Y-61656250D01*
X113148826Y-61680142D01*
X113145316Y-61703803D01*
X113139504Y-61727007D01*
X113131446Y-61749529D01*
X113121218Y-61771153D01*
X113108921Y-61791670D01*
X113094671Y-61810883D01*
X113078607Y-61828607D01*
X113060883Y-61844671D01*
X113041670Y-61858921D01*
X113021153Y-61871218D01*
X112999529Y-61881446D01*
X112977007Y-61889504D01*
X112953803Y-61895316D01*
X112930142Y-61898826D01*
X112906250Y-61900000D01*
X112418750Y-61900000D01*
X112394858Y-61898826D01*
X112371197Y-61895316D01*
X112347993Y-61889504D01*
X112325471Y-61881446D01*
X112303847Y-61871218D01*
X112283330Y-61858921D01*
X112264117Y-61844671D01*
X112246393Y-61828607D01*
X112230329Y-61810883D01*
X112216079Y-61791670D01*
X112203782Y-61771153D01*
X112193554Y-61749529D01*
X112185496Y-61727007D01*
X112179684Y-61703803D01*
X112176174Y-61680142D01*
X112175000Y-61656250D01*
X112175000Y-60743750D01*
X112176174Y-60719858D01*
X112179684Y-60696197D01*
X112185496Y-60672993D01*
X112193554Y-60650471D01*
X112203782Y-60628847D01*
X112216079Y-60608330D01*
X112230329Y-60589117D01*
X112246393Y-60571393D01*
X112264117Y-60555329D01*
X112283330Y-60541079D01*
X112303847Y-60528782D01*
X112325471Y-60518554D01*
X112347993Y-60510496D01*
X112371197Y-60504684D01*
X112394858Y-60501174D01*
X112418750Y-60500000D01*
X112906250Y-60500000D01*
X112930142Y-60501174D01*
G37*
G36*
X148180142Y-39551174D02*
G01*
X148203803Y-39554684D01*
X148227007Y-39560496D01*
X148249529Y-39568554D01*
X148271153Y-39578782D01*
X148291670Y-39591079D01*
X148310883Y-39605329D01*
X148328607Y-39621393D01*
X148344671Y-39639117D01*
X148358921Y-39658330D01*
X148371218Y-39678847D01*
X148381446Y-39700471D01*
X148389504Y-39722993D01*
X148395316Y-39746197D01*
X148398826Y-39769858D01*
X148400000Y-39793750D01*
X148400000Y-40281250D01*
X148398826Y-40305142D01*
X148395316Y-40328803D01*
X148389504Y-40352007D01*
X148381446Y-40374529D01*
X148371218Y-40396153D01*
X148358921Y-40416670D01*
X148344671Y-40435883D01*
X148328607Y-40453607D01*
X148310883Y-40469671D01*
X148291670Y-40483921D01*
X148271153Y-40496218D01*
X148249529Y-40506446D01*
X148227007Y-40514504D01*
X148203803Y-40520316D01*
X148180142Y-40523826D01*
X148156250Y-40525000D01*
X147243750Y-40525000D01*
X147219858Y-40523826D01*
X147196197Y-40520316D01*
X147172993Y-40514504D01*
X147150471Y-40506446D01*
X147128847Y-40496218D01*
X147108330Y-40483921D01*
X147089117Y-40469671D01*
X147071393Y-40453607D01*
X147055329Y-40435883D01*
X147041079Y-40416670D01*
X147028782Y-40396153D01*
X147018554Y-40374529D01*
X147010496Y-40352007D01*
X147004684Y-40328803D01*
X147001174Y-40305142D01*
X147000000Y-40281250D01*
X147000000Y-39793750D01*
X147001174Y-39769858D01*
X147004684Y-39746197D01*
X147010496Y-39722993D01*
X147018554Y-39700471D01*
X147028782Y-39678847D01*
X147041079Y-39658330D01*
X147055329Y-39639117D01*
X147071393Y-39621393D01*
X147089117Y-39605329D01*
X147108330Y-39591079D01*
X147128847Y-39578782D01*
X147150471Y-39568554D01*
X147172993Y-39560496D01*
X147196197Y-39554684D01*
X147219858Y-39551174D01*
X147243750Y-39550000D01*
X148156250Y-39550000D01*
X148180142Y-39551174D01*
G37*
G36*
X148180142Y-37676174D02*
G01*
X148203803Y-37679684D01*
X148227007Y-37685496D01*
X148249529Y-37693554D01*
X148271153Y-37703782D01*
X148291670Y-37716079D01*
X148310883Y-37730329D01*
X148328607Y-37746393D01*
X148344671Y-37764117D01*
X148358921Y-37783330D01*
X148371218Y-37803847D01*
X148381446Y-37825471D01*
X148389504Y-37847993D01*
X148395316Y-37871197D01*
X148398826Y-37894858D01*
X148400000Y-37918750D01*
X148400000Y-38406250D01*
X148398826Y-38430142D01*
X148395316Y-38453803D01*
X148389504Y-38477007D01*
X148381446Y-38499529D01*
X148371218Y-38521153D01*
X148358921Y-38541670D01*
X148344671Y-38560883D01*
X148328607Y-38578607D01*
X148310883Y-38594671D01*
X148291670Y-38608921D01*
X148271153Y-38621218D01*
X148249529Y-38631446D01*
X148227007Y-38639504D01*
X148203803Y-38645316D01*
X148180142Y-38648826D01*
X148156250Y-38650000D01*
X147243750Y-38650000D01*
X147219858Y-38648826D01*
X147196197Y-38645316D01*
X147172993Y-38639504D01*
X147150471Y-38631446D01*
X147128847Y-38621218D01*
X147108330Y-38608921D01*
X147089117Y-38594671D01*
X147071393Y-38578607D01*
X147055329Y-38560883D01*
X147041079Y-38541670D01*
X147028782Y-38521153D01*
X147018554Y-38499529D01*
X147010496Y-38477007D01*
X147004684Y-38453803D01*
X147001174Y-38430142D01*
X147000000Y-38406250D01*
X147000000Y-37918750D01*
X147001174Y-37894858D01*
X147004684Y-37871197D01*
X147010496Y-37847993D01*
X147018554Y-37825471D01*
X147028782Y-37803847D01*
X147041079Y-37783330D01*
X147055329Y-37764117D01*
X147071393Y-37746393D01*
X147089117Y-37730329D01*
X147108330Y-37716079D01*
X147128847Y-37703782D01*
X147150471Y-37693554D01*
X147172993Y-37685496D01*
X147196197Y-37679684D01*
X147219858Y-37676174D01*
X147243750Y-37675000D01*
X148156250Y-37675000D01*
X148180142Y-37676174D01*
G37*
G36*
X145205142Y-37601174D02*
G01*
X145228803Y-37604684D01*
X145252007Y-37610496D01*
X145274529Y-37618554D01*
X145296153Y-37628782D01*
X145316670Y-37641079D01*
X145335883Y-37655329D01*
X145353607Y-37671393D01*
X145369671Y-37689117D01*
X145383921Y-37708330D01*
X145396218Y-37728847D01*
X145406446Y-37750471D01*
X145414504Y-37772993D01*
X145420316Y-37796197D01*
X145423826Y-37819858D01*
X145425000Y-37843750D01*
X145425000Y-38756250D01*
X145423826Y-38780142D01*
X145420316Y-38803803D01*
X145414504Y-38827007D01*
X145406446Y-38849529D01*
X145396218Y-38871153D01*
X145383921Y-38891670D01*
X145369671Y-38910883D01*
X145353607Y-38928607D01*
X145335883Y-38944671D01*
X145316670Y-38958921D01*
X145296153Y-38971218D01*
X145274529Y-38981446D01*
X145252007Y-38989504D01*
X145228803Y-38995316D01*
X145205142Y-38998826D01*
X145181250Y-39000000D01*
X144693750Y-39000000D01*
X144669858Y-38998826D01*
X144646197Y-38995316D01*
X144622993Y-38989504D01*
X144600471Y-38981446D01*
X144578847Y-38971218D01*
X144558330Y-38958921D01*
X144539117Y-38944671D01*
X144521393Y-38928607D01*
X144505329Y-38910883D01*
X144491079Y-38891670D01*
X144478782Y-38871153D01*
X144468554Y-38849529D01*
X144460496Y-38827007D01*
X144454684Y-38803803D01*
X144451174Y-38780142D01*
X144450000Y-38756250D01*
X144450000Y-37843750D01*
X144451174Y-37819858D01*
X144454684Y-37796197D01*
X144460496Y-37772993D01*
X144468554Y-37750471D01*
X144478782Y-37728847D01*
X144491079Y-37708330D01*
X144505329Y-37689117D01*
X144521393Y-37671393D01*
X144539117Y-37655329D01*
X144558330Y-37641079D01*
X144578847Y-37628782D01*
X144600471Y-37618554D01*
X144622993Y-37610496D01*
X144646197Y-37604684D01*
X144669858Y-37601174D01*
X144693750Y-37600000D01*
X145181250Y-37600000D01*
X145205142Y-37601174D01*
G37*
G36*
X143330142Y-37601174D02*
G01*
X143353803Y-37604684D01*
X143377007Y-37610496D01*
X143399529Y-37618554D01*
X143421153Y-37628782D01*
X143441670Y-37641079D01*
X143460883Y-37655329D01*
X143478607Y-37671393D01*
X143494671Y-37689117D01*
X143508921Y-37708330D01*
X143521218Y-37728847D01*
X143531446Y-37750471D01*
X143539504Y-37772993D01*
X143545316Y-37796197D01*
X143548826Y-37819858D01*
X143550000Y-37843750D01*
X143550000Y-38756250D01*
X143548826Y-38780142D01*
X143545316Y-38803803D01*
X143539504Y-38827007D01*
X143531446Y-38849529D01*
X143521218Y-38871153D01*
X143508921Y-38891670D01*
X143494671Y-38910883D01*
X143478607Y-38928607D01*
X143460883Y-38944671D01*
X143441670Y-38958921D01*
X143421153Y-38971218D01*
X143399529Y-38981446D01*
X143377007Y-38989504D01*
X143353803Y-38995316D01*
X143330142Y-38998826D01*
X143306250Y-39000000D01*
X142818750Y-39000000D01*
X142794858Y-38998826D01*
X142771197Y-38995316D01*
X142747993Y-38989504D01*
X142725471Y-38981446D01*
X142703847Y-38971218D01*
X142683330Y-38958921D01*
X142664117Y-38944671D01*
X142646393Y-38928607D01*
X142630329Y-38910883D01*
X142616079Y-38891670D01*
X142603782Y-38871153D01*
X142593554Y-38849529D01*
X142585496Y-38827007D01*
X142579684Y-38803803D01*
X142576174Y-38780142D01*
X142575000Y-38756250D01*
X142575000Y-37843750D01*
X142576174Y-37819858D01*
X142579684Y-37796197D01*
X142585496Y-37772993D01*
X142593554Y-37750471D01*
X142603782Y-37728847D01*
X142616079Y-37708330D01*
X142630329Y-37689117D01*
X142646393Y-37671393D01*
X142664117Y-37655329D01*
X142683330Y-37641079D01*
X142703847Y-37628782D01*
X142725471Y-37618554D01*
X142747993Y-37610496D01*
X142771197Y-37604684D01*
X142794858Y-37601174D01*
X142818750Y-37600000D01*
X143306250Y-37600000D01*
X143330142Y-37601174D01*
G37*
D16*
X89875000Y-53850000D03*
X90525000Y-53850000D03*
X91175000Y-53850000D03*
X91825000Y-53850000D03*
X92475000Y-53850000D03*
X93125000Y-53850000D03*
X93775000Y-53850000D03*
X94425000Y-53850000D03*
X95075000Y-53850000D03*
X95725000Y-53850000D03*
X95725000Y-59750000D03*
X95075000Y-59750000D03*
X94425000Y-59750000D03*
X93775000Y-59750000D03*
X93125000Y-59750000D03*
X92475000Y-59750000D03*
X91825000Y-59750000D03*
X91175000Y-59750000D03*
X90525000Y-59750000D03*
X89875000Y-59750000D03*
D14*
G36*
X108705142Y-42601174D02*
G01*
X108728803Y-42604684D01*
X108752007Y-42610496D01*
X108774529Y-42618554D01*
X108796153Y-42628782D01*
X108816670Y-42641079D01*
X108835883Y-42655329D01*
X108853607Y-42671393D01*
X108869671Y-42689117D01*
X108883921Y-42708330D01*
X108896218Y-42728847D01*
X108906446Y-42750471D01*
X108914504Y-42772993D01*
X108920316Y-42796197D01*
X108923826Y-42819858D01*
X108925000Y-42843750D01*
X108925000Y-43756250D01*
X108923826Y-43780142D01*
X108920316Y-43803803D01*
X108914504Y-43827007D01*
X108906446Y-43849529D01*
X108896218Y-43871153D01*
X108883921Y-43891670D01*
X108869671Y-43910883D01*
X108853607Y-43928607D01*
X108835883Y-43944671D01*
X108816670Y-43958921D01*
X108796153Y-43971218D01*
X108774529Y-43981446D01*
X108752007Y-43989504D01*
X108728803Y-43995316D01*
X108705142Y-43998826D01*
X108681250Y-44000000D01*
X108193750Y-44000000D01*
X108169858Y-43998826D01*
X108146197Y-43995316D01*
X108122993Y-43989504D01*
X108100471Y-43981446D01*
X108078847Y-43971218D01*
X108058330Y-43958921D01*
X108039117Y-43944671D01*
X108021393Y-43928607D01*
X108005329Y-43910883D01*
X107991079Y-43891670D01*
X107978782Y-43871153D01*
X107968554Y-43849529D01*
X107960496Y-43827007D01*
X107954684Y-43803803D01*
X107951174Y-43780142D01*
X107950000Y-43756250D01*
X107950000Y-42843750D01*
X107951174Y-42819858D01*
X107954684Y-42796197D01*
X107960496Y-42772993D01*
X107968554Y-42750471D01*
X107978782Y-42728847D01*
X107991079Y-42708330D01*
X108005329Y-42689117D01*
X108021393Y-42671393D01*
X108039117Y-42655329D01*
X108058330Y-42641079D01*
X108078847Y-42628782D01*
X108100471Y-42618554D01*
X108122993Y-42610496D01*
X108146197Y-42604684D01*
X108169858Y-42601174D01*
X108193750Y-42600000D01*
X108681250Y-42600000D01*
X108705142Y-42601174D01*
G37*
G36*
X106830142Y-42601174D02*
G01*
X106853803Y-42604684D01*
X106877007Y-42610496D01*
X106899529Y-42618554D01*
X106921153Y-42628782D01*
X106941670Y-42641079D01*
X106960883Y-42655329D01*
X106978607Y-42671393D01*
X106994671Y-42689117D01*
X107008921Y-42708330D01*
X107021218Y-42728847D01*
X107031446Y-42750471D01*
X107039504Y-42772993D01*
X107045316Y-42796197D01*
X107048826Y-42819858D01*
X107050000Y-42843750D01*
X107050000Y-43756250D01*
X107048826Y-43780142D01*
X107045316Y-43803803D01*
X107039504Y-43827007D01*
X107031446Y-43849529D01*
X107021218Y-43871153D01*
X107008921Y-43891670D01*
X106994671Y-43910883D01*
X106978607Y-43928607D01*
X106960883Y-43944671D01*
X106941670Y-43958921D01*
X106921153Y-43971218D01*
X106899529Y-43981446D01*
X106877007Y-43989504D01*
X106853803Y-43995316D01*
X106830142Y-43998826D01*
X106806250Y-44000000D01*
X106318750Y-44000000D01*
X106294858Y-43998826D01*
X106271197Y-43995316D01*
X106247993Y-43989504D01*
X106225471Y-43981446D01*
X106203847Y-43971218D01*
X106183330Y-43958921D01*
X106164117Y-43944671D01*
X106146393Y-43928607D01*
X106130329Y-43910883D01*
X106116079Y-43891670D01*
X106103782Y-43871153D01*
X106093554Y-43849529D01*
X106085496Y-43827007D01*
X106079684Y-43803803D01*
X106076174Y-43780142D01*
X106075000Y-43756250D01*
X106075000Y-42843750D01*
X106076174Y-42819858D01*
X106079684Y-42796197D01*
X106085496Y-42772993D01*
X106093554Y-42750471D01*
X106103782Y-42728847D01*
X106116079Y-42708330D01*
X106130329Y-42689117D01*
X106146393Y-42671393D01*
X106164117Y-42655329D01*
X106183330Y-42641079D01*
X106203847Y-42628782D01*
X106225471Y-42618554D01*
X106247993Y-42610496D01*
X106271197Y-42604684D01*
X106294858Y-42601174D01*
X106318750Y-42600000D01*
X106806250Y-42600000D01*
X106830142Y-42601174D01*
G37*
D16*
X111425000Y-69650000D03*
X110775000Y-69650000D03*
X110125000Y-69650000D03*
X109475000Y-69650000D03*
X108825000Y-69650000D03*
X108175000Y-69650000D03*
X107525000Y-69650000D03*
X106875000Y-69650000D03*
X106225000Y-69650000D03*
X105575000Y-69650000D03*
X105575000Y-63750000D03*
X106225000Y-63750000D03*
X106875000Y-63750000D03*
X107525000Y-63750000D03*
X108175000Y-63750000D03*
X108825000Y-63750000D03*
X109475000Y-63750000D03*
X110125000Y-63750000D03*
X110775000Y-63750000D03*
X111425000Y-63750000D03*
D12*
X129800000Y-38275000D03*
X130750000Y-40275000D03*
X128850000Y-40275000D03*
X126500000Y-45800000D03*
X127450000Y-47800000D03*
X125550000Y-47800000D03*
D14*
G36*
X125830142Y-42201174D02*
G01*
X125853803Y-42204684D01*
X125877007Y-42210496D01*
X125899529Y-42218554D01*
X125921153Y-42228782D01*
X125941670Y-42241079D01*
X125960883Y-42255329D01*
X125978607Y-42271393D01*
X125994671Y-42289117D01*
X126008921Y-42308330D01*
X126021218Y-42328847D01*
X126031446Y-42350471D01*
X126039504Y-42372993D01*
X126045316Y-42396197D01*
X126048826Y-42419858D01*
X126050000Y-42443750D01*
X126050000Y-43356250D01*
X126048826Y-43380142D01*
X126045316Y-43403803D01*
X126039504Y-43427007D01*
X126031446Y-43449529D01*
X126021218Y-43471153D01*
X126008921Y-43491670D01*
X125994671Y-43510883D01*
X125978607Y-43528607D01*
X125960883Y-43544671D01*
X125941670Y-43558921D01*
X125921153Y-43571218D01*
X125899529Y-43581446D01*
X125877007Y-43589504D01*
X125853803Y-43595316D01*
X125830142Y-43598826D01*
X125806250Y-43600000D01*
X125318750Y-43600000D01*
X125294858Y-43598826D01*
X125271197Y-43595316D01*
X125247993Y-43589504D01*
X125225471Y-43581446D01*
X125203847Y-43571218D01*
X125183330Y-43558921D01*
X125164117Y-43544671D01*
X125146393Y-43528607D01*
X125130329Y-43510883D01*
X125116079Y-43491670D01*
X125103782Y-43471153D01*
X125093554Y-43449529D01*
X125085496Y-43427007D01*
X125079684Y-43403803D01*
X125076174Y-43380142D01*
X125075000Y-43356250D01*
X125075000Y-42443750D01*
X125076174Y-42419858D01*
X125079684Y-42396197D01*
X125085496Y-42372993D01*
X125093554Y-42350471D01*
X125103782Y-42328847D01*
X125116079Y-42308330D01*
X125130329Y-42289117D01*
X125146393Y-42271393D01*
X125164117Y-42255329D01*
X125183330Y-42241079D01*
X125203847Y-42228782D01*
X125225471Y-42218554D01*
X125247993Y-42210496D01*
X125271197Y-42204684D01*
X125294858Y-42201174D01*
X125318750Y-42200000D01*
X125806250Y-42200000D01*
X125830142Y-42201174D01*
G37*
G36*
X127705142Y-42201174D02*
G01*
X127728803Y-42204684D01*
X127752007Y-42210496D01*
X127774529Y-42218554D01*
X127796153Y-42228782D01*
X127816670Y-42241079D01*
X127835883Y-42255329D01*
X127853607Y-42271393D01*
X127869671Y-42289117D01*
X127883921Y-42308330D01*
X127896218Y-42328847D01*
X127906446Y-42350471D01*
X127914504Y-42372993D01*
X127920316Y-42396197D01*
X127923826Y-42419858D01*
X127925000Y-42443750D01*
X127925000Y-43356250D01*
X127923826Y-43380142D01*
X127920316Y-43403803D01*
X127914504Y-43427007D01*
X127906446Y-43449529D01*
X127896218Y-43471153D01*
X127883921Y-43491670D01*
X127869671Y-43510883D01*
X127853607Y-43528607D01*
X127835883Y-43544671D01*
X127816670Y-43558921D01*
X127796153Y-43571218D01*
X127774529Y-43581446D01*
X127752007Y-43589504D01*
X127728803Y-43595316D01*
X127705142Y-43598826D01*
X127681250Y-43600000D01*
X127193750Y-43600000D01*
X127169858Y-43598826D01*
X127146197Y-43595316D01*
X127122993Y-43589504D01*
X127100471Y-43581446D01*
X127078847Y-43571218D01*
X127058330Y-43558921D01*
X127039117Y-43544671D01*
X127021393Y-43528607D01*
X127005329Y-43510883D01*
X126991079Y-43491670D01*
X126978782Y-43471153D01*
X126968554Y-43449529D01*
X126960496Y-43427007D01*
X126954684Y-43403803D01*
X126951174Y-43380142D01*
X126950000Y-43356250D01*
X126950000Y-42443750D01*
X126951174Y-42419858D01*
X126954684Y-42396197D01*
X126960496Y-42372993D01*
X126968554Y-42350471D01*
X126978782Y-42328847D01*
X126991079Y-42308330D01*
X127005329Y-42289117D01*
X127021393Y-42271393D01*
X127039117Y-42255329D01*
X127058330Y-42241079D01*
X127078847Y-42228782D01*
X127100471Y-42218554D01*
X127122993Y-42210496D01*
X127146197Y-42204684D01*
X127169858Y-42201174D01*
X127193750Y-42200000D01*
X127681250Y-42200000D01*
X127705142Y-42201174D01*
G37*
D17*
X87855000Y-40270000D03*
X84545000Y-37730000D03*
D14*
G36*
X116314703Y-43595722D02*
G01*
X116329264Y-43597882D01*
X116343543Y-43601459D01*
X116357403Y-43606418D01*
X116370710Y-43612712D01*
X116383336Y-43620280D01*
X116395159Y-43629048D01*
X116406066Y-43638934D01*
X116415952Y-43649841D01*
X116424720Y-43661664D01*
X116432288Y-43674290D01*
X116438582Y-43687597D01*
X116443541Y-43701457D01*
X116447118Y-43715736D01*
X116449278Y-43730297D01*
X116450000Y-43745000D01*
X116450000Y-44045000D01*
X116449278Y-44059703D01*
X116447118Y-44074264D01*
X116443541Y-44088543D01*
X116438582Y-44102403D01*
X116432288Y-44115710D01*
X116424720Y-44128336D01*
X116415952Y-44140159D01*
X116406066Y-44151066D01*
X116395159Y-44160952D01*
X116383336Y-44169720D01*
X116370710Y-44177288D01*
X116357403Y-44183582D01*
X116343543Y-44188541D01*
X116329264Y-44192118D01*
X116314703Y-44194278D01*
X116300000Y-44195000D01*
X114650000Y-44195000D01*
X114635297Y-44194278D01*
X114620736Y-44192118D01*
X114606457Y-44188541D01*
X114592597Y-44183582D01*
X114579290Y-44177288D01*
X114566664Y-44169720D01*
X114554841Y-44160952D01*
X114543934Y-44151066D01*
X114534048Y-44140159D01*
X114525280Y-44128336D01*
X114517712Y-44115710D01*
X114511418Y-44102403D01*
X114506459Y-44088543D01*
X114502882Y-44074264D01*
X114500722Y-44059703D01*
X114500000Y-44045000D01*
X114500000Y-43745000D01*
X114500722Y-43730297D01*
X114502882Y-43715736D01*
X114506459Y-43701457D01*
X114511418Y-43687597D01*
X114517712Y-43674290D01*
X114525280Y-43661664D01*
X114534048Y-43649841D01*
X114543934Y-43638934D01*
X114554841Y-43629048D01*
X114566664Y-43620280D01*
X114579290Y-43612712D01*
X114592597Y-43606418D01*
X114606457Y-43601459D01*
X114620736Y-43597882D01*
X114635297Y-43595722D01*
X114650000Y-43595000D01*
X116300000Y-43595000D01*
X116314703Y-43595722D01*
G37*
G36*
X116314703Y-44865722D02*
G01*
X116329264Y-44867882D01*
X116343543Y-44871459D01*
X116357403Y-44876418D01*
X116370710Y-44882712D01*
X116383336Y-44890280D01*
X116395159Y-44899048D01*
X116406066Y-44908934D01*
X116415952Y-44919841D01*
X116424720Y-44931664D01*
X116432288Y-44944290D01*
X116438582Y-44957597D01*
X116443541Y-44971457D01*
X116447118Y-44985736D01*
X116449278Y-45000297D01*
X116450000Y-45015000D01*
X116450000Y-45315000D01*
X116449278Y-45329703D01*
X116447118Y-45344264D01*
X116443541Y-45358543D01*
X116438582Y-45372403D01*
X116432288Y-45385710D01*
X116424720Y-45398336D01*
X116415952Y-45410159D01*
X116406066Y-45421066D01*
X116395159Y-45430952D01*
X116383336Y-45439720D01*
X116370710Y-45447288D01*
X116357403Y-45453582D01*
X116343543Y-45458541D01*
X116329264Y-45462118D01*
X116314703Y-45464278D01*
X116300000Y-45465000D01*
X114650000Y-45465000D01*
X114635297Y-45464278D01*
X114620736Y-45462118D01*
X114606457Y-45458541D01*
X114592597Y-45453582D01*
X114579290Y-45447288D01*
X114566664Y-45439720D01*
X114554841Y-45430952D01*
X114543934Y-45421066D01*
X114534048Y-45410159D01*
X114525280Y-45398336D01*
X114517712Y-45385710D01*
X114511418Y-45372403D01*
X114506459Y-45358543D01*
X114502882Y-45344264D01*
X114500722Y-45329703D01*
X114500000Y-45315000D01*
X114500000Y-45015000D01*
X114500722Y-45000297D01*
X114502882Y-44985736D01*
X114506459Y-44971457D01*
X114511418Y-44957597D01*
X114517712Y-44944290D01*
X114525280Y-44931664D01*
X114534048Y-44919841D01*
X114543934Y-44908934D01*
X114554841Y-44899048D01*
X114566664Y-44890280D01*
X114579290Y-44882712D01*
X114592597Y-44876418D01*
X114606457Y-44871459D01*
X114620736Y-44867882D01*
X114635297Y-44865722D01*
X114650000Y-44865000D01*
X116300000Y-44865000D01*
X116314703Y-44865722D01*
G37*
G36*
X116314703Y-46135722D02*
G01*
X116329264Y-46137882D01*
X116343543Y-46141459D01*
X116357403Y-46146418D01*
X116370710Y-46152712D01*
X116383336Y-46160280D01*
X116395159Y-46169048D01*
X116406066Y-46178934D01*
X116415952Y-46189841D01*
X116424720Y-46201664D01*
X116432288Y-46214290D01*
X116438582Y-46227597D01*
X116443541Y-46241457D01*
X116447118Y-46255736D01*
X116449278Y-46270297D01*
X116450000Y-46285000D01*
X116450000Y-46585000D01*
X116449278Y-46599703D01*
X116447118Y-46614264D01*
X116443541Y-46628543D01*
X116438582Y-46642403D01*
X116432288Y-46655710D01*
X116424720Y-46668336D01*
X116415952Y-46680159D01*
X116406066Y-46691066D01*
X116395159Y-46700952D01*
X116383336Y-46709720D01*
X116370710Y-46717288D01*
X116357403Y-46723582D01*
X116343543Y-46728541D01*
X116329264Y-46732118D01*
X116314703Y-46734278D01*
X116300000Y-46735000D01*
X114650000Y-46735000D01*
X114635297Y-46734278D01*
X114620736Y-46732118D01*
X114606457Y-46728541D01*
X114592597Y-46723582D01*
X114579290Y-46717288D01*
X114566664Y-46709720D01*
X114554841Y-46700952D01*
X114543934Y-46691066D01*
X114534048Y-46680159D01*
X114525280Y-46668336D01*
X114517712Y-46655710D01*
X114511418Y-46642403D01*
X114506459Y-46628543D01*
X114502882Y-46614264D01*
X114500722Y-46599703D01*
X114500000Y-46585000D01*
X114500000Y-46285000D01*
X114500722Y-46270297D01*
X114502882Y-46255736D01*
X114506459Y-46241457D01*
X114511418Y-46227597D01*
X114517712Y-46214290D01*
X114525280Y-46201664D01*
X114534048Y-46189841D01*
X114543934Y-46178934D01*
X114554841Y-46169048D01*
X114566664Y-46160280D01*
X114579290Y-46152712D01*
X114592597Y-46146418D01*
X114606457Y-46141459D01*
X114620736Y-46137882D01*
X114635297Y-46135722D01*
X114650000Y-46135000D01*
X116300000Y-46135000D01*
X116314703Y-46135722D01*
G37*
G36*
X116314703Y-47405722D02*
G01*
X116329264Y-47407882D01*
X116343543Y-47411459D01*
X116357403Y-47416418D01*
X116370710Y-47422712D01*
X116383336Y-47430280D01*
X116395159Y-47439048D01*
X116406066Y-47448934D01*
X116415952Y-47459841D01*
X116424720Y-47471664D01*
X116432288Y-47484290D01*
X116438582Y-47497597D01*
X116443541Y-47511457D01*
X116447118Y-47525736D01*
X116449278Y-47540297D01*
X116450000Y-47555000D01*
X116450000Y-47855000D01*
X116449278Y-47869703D01*
X116447118Y-47884264D01*
X116443541Y-47898543D01*
X116438582Y-47912403D01*
X116432288Y-47925710D01*
X116424720Y-47938336D01*
X116415952Y-47950159D01*
X116406066Y-47961066D01*
X116395159Y-47970952D01*
X116383336Y-47979720D01*
X116370710Y-47987288D01*
X116357403Y-47993582D01*
X116343543Y-47998541D01*
X116329264Y-48002118D01*
X116314703Y-48004278D01*
X116300000Y-48005000D01*
X114650000Y-48005000D01*
X114635297Y-48004278D01*
X114620736Y-48002118D01*
X114606457Y-47998541D01*
X114592597Y-47993582D01*
X114579290Y-47987288D01*
X114566664Y-47979720D01*
X114554841Y-47970952D01*
X114543934Y-47961066D01*
X114534048Y-47950159D01*
X114525280Y-47938336D01*
X114517712Y-47925710D01*
X114511418Y-47912403D01*
X114506459Y-47898543D01*
X114502882Y-47884264D01*
X114500722Y-47869703D01*
X114500000Y-47855000D01*
X114500000Y-47555000D01*
X114500722Y-47540297D01*
X114502882Y-47525736D01*
X114506459Y-47511457D01*
X114511418Y-47497597D01*
X114517712Y-47484290D01*
X114525280Y-47471664D01*
X114534048Y-47459841D01*
X114543934Y-47448934D01*
X114554841Y-47439048D01*
X114566664Y-47430280D01*
X114579290Y-47422712D01*
X114592597Y-47416418D01*
X114606457Y-47411459D01*
X114620736Y-47407882D01*
X114635297Y-47405722D01*
X114650000Y-47405000D01*
X116300000Y-47405000D01*
X116314703Y-47405722D01*
G37*
G36*
X111364703Y-47405722D02*
G01*
X111379264Y-47407882D01*
X111393543Y-47411459D01*
X111407403Y-47416418D01*
X111420710Y-47422712D01*
X111433336Y-47430280D01*
X111445159Y-47439048D01*
X111456066Y-47448934D01*
X111465952Y-47459841D01*
X111474720Y-47471664D01*
X111482288Y-47484290D01*
X111488582Y-47497597D01*
X111493541Y-47511457D01*
X111497118Y-47525736D01*
X111499278Y-47540297D01*
X111500000Y-47555000D01*
X111500000Y-47855000D01*
X111499278Y-47869703D01*
X111497118Y-47884264D01*
X111493541Y-47898543D01*
X111488582Y-47912403D01*
X111482288Y-47925710D01*
X111474720Y-47938336D01*
X111465952Y-47950159D01*
X111456066Y-47961066D01*
X111445159Y-47970952D01*
X111433336Y-47979720D01*
X111420710Y-47987288D01*
X111407403Y-47993582D01*
X111393543Y-47998541D01*
X111379264Y-48002118D01*
X111364703Y-48004278D01*
X111350000Y-48005000D01*
X109700000Y-48005000D01*
X109685297Y-48004278D01*
X109670736Y-48002118D01*
X109656457Y-47998541D01*
X109642597Y-47993582D01*
X109629290Y-47987288D01*
X109616664Y-47979720D01*
X109604841Y-47970952D01*
X109593934Y-47961066D01*
X109584048Y-47950159D01*
X109575280Y-47938336D01*
X109567712Y-47925710D01*
X109561418Y-47912403D01*
X109556459Y-47898543D01*
X109552882Y-47884264D01*
X109550722Y-47869703D01*
X109550000Y-47855000D01*
X109550000Y-47555000D01*
X109550722Y-47540297D01*
X109552882Y-47525736D01*
X109556459Y-47511457D01*
X109561418Y-47497597D01*
X109567712Y-47484290D01*
X109575280Y-47471664D01*
X109584048Y-47459841D01*
X109593934Y-47448934D01*
X109604841Y-47439048D01*
X109616664Y-47430280D01*
X109629290Y-47422712D01*
X109642597Y-47416418D01*
X109656457Y-47411459D01*
X109670736Y-47407882D01*
X109685297Y-47405722D01*
X109700000Y-47405000D01*
X111350000Y-47405000D01*
X111364703Y-47405722D01*
G37*
G36*
X111364703Y-46135722D02*
G01*
X111379264Y-46137882D01*
X111393543Y-46141459D01*
X111407403Y-46146418D01*
X111420710Y-46152712D01*
X111433336Y-46160280D01*
X111445159Y-46169048D01*
X111456066Y-46178934D01*
X111465952Y-46189841D01*
X111474720Y-46201664D01*
X111482288Y-46214290D01*
X111488582Y-46227597D01*
X111493541Y-46241457D01*
X111497118Y-46255736D01*
X111499278Y-46270297D01*
X111500000Y-46285000D01*
X111500000Y-46585000D01*
X111499278Y-46599703D01*
X111497118Y-46614264D01*
X111493541Y-46628543D01*
X111488582Y-46642403D01*
X111482288Y-46655710D01*
X111474720Y-46668336D01*
X111465952Y-46680159D01*
X111456066Y-46691066D01*
X111445159Y-46700952D01*
X111433336Y-46709720D01*
X111420710Y-46717288D01*
X111407403Y-46723582D01*
X111393543Y-46728541D01*
X111379264Y-46732118D01*
X111364703Y-46734278D01*
X111350000Y-46735000D01*
X109700000Y-46735000D01*
X109685297Y-46734278D01*
X109670736Y-46732118D01*
X109656457Y-46728541D01*
X109642597Y-46723582D01*
X109629290Y-46717288D01*
X109616664Y-46709720D01*
X109604841Y-46700952D01*
X109593934Y-46691066D01*
X109584048Y-46680159D01*
X109575280Y-46668336D01*
X109567712Y-46655710D01*
X109561418Y-46642403D01*
X109556459Y-46628543D01*
X109552882Y-46614264D01*
X109550722Y-46599703D01*
X109550000Y-46585000D01*
X109550000Y-46285000D01*
X109550722Y-46270297D01*
X109552882Y-46255736D01*
X109556459Y-46241457D01*
X109561418Y-46227597D01*
X109567712Y-46214290D01*
X109575280Y-46201664D01*
X109584048Y-46189841D01*
X109593934Y-46178934D01*
X109604841Y-46169048D01*
X109616664Y-46160280D01*
X109629290Y-46152712D01*
X109642597Y-46146418D01*
X109656457Y-46141459D01*
X109670736Y-46137882D01*
X109685297Y-46135722D01*
X109700000Y-46135000D01*
X111350000Y-46135000D01*
X111364703Y-46135722D01*
G37*
G36*
X111364703Y-44865722D02*
G01*
X111379264Y-44867882D01*
X111393543Y-44871459D01*
X111407403Y-44876418D01*
X111420710Y-44882712D01*
X111433336Y-44890280D01*
X111445159Y-44899048D01*
X111456066Y-44908934D01*
X111465952Y-44919841D01*
X111474720Y-44931664D01*
X111482288Y-44944290D01*
X111488582Y-44957597D01*
X111493541Y-44971457D01*
X111497118Y-44985736D01*
X111499278Y-45000297D01*
X111500000Y-45015000D01*
X111500000Y-45315000D01*
X111499278Y-45329703D01*
X111497118Y-45344264D01*
X111493541Y-45358543D01*
X111488582Y-45372403D01*
X111482288Y-45385710D01*
X111474720Y-45398336D01*
X111465952Y-45410159D01*
X111456066Y-45421066D01*
X111445159Y-45430952D01*
X111433336Y-45439720D01*
X111420710Y-45447288D01*
X111407403Y-45453582D01*
X111393543Y-45458541D01*
X111379264Y-45462118D01*
X111364703Y-45464278D01*
X111350000Y-45465000D01*
X109700000Y-45465000D01*
X109685297Y-45464278D01*
X109670736Y-45462118D01*
X109656457Y-45458541D01*
X109642597Y-45453582D01*
X109629290Y-45447288D01*
X109616664Y-45439720D01*
X109604841Y-45430952D01*
X109593934Y-45421066D01*
X109584048Y-45410159D01*
X109575280Y-45398336D01*
X109567712Y-45385710D01*
X109561418Y-45372403D01*
X109556459Y-45358543D01*
X109552882Y-45344264D01*
X109550722Y-45329703D01*
X109550000Y-45315000D01*
X109550000Y-45015000D01*
X109550722Y-45000297D01*
X109552882Y-44985736D01*
X109556459Y-44971457D01*
X109561418Y-44957597D01*
X109567712Y-44944290D01*
X109575280Y-44931664D01*
X109584048Y-44919841D01*
X109593934Y-44908934D01*
X109604841Y-44899048D01*
X109616664Y-44890280D01*
X109629290Y-44882712D01*
X109642597Y-44876418D01*
X109656457Y-44871459D01*
X109670736Y-44867882D01*
X109685297Y-44865722D01*
X109700000Y-44865000D01*
X111350000Y-44865000D01*
X111364703Y-44865722D01*
G37*
G36*
X111364703Y-43595722D02*
G01*
X111379264Y-43597882D01*
X111393543Y-43601459D01*
X111407403Y-43606418D01*
X111420710Y-43612712D01*
X111433336Y-43620280D01*
X111445159Y-43629048D01*
X111456066Y-43638934D01*
X111465952Y-43649841D01*
X111474720Y-43661664D01*
X111482288Y-43674290D01*
X111488582Y-43687597D01*
X111493541Y-43701457D01*
X111497118Y-43715736D01*
X111499278Y-43730297D01*
X111500000Y-43745000D01*
X111500000Y-44045000D01*
X111499278Y-44059703D01*
X111497118Y-44074264D01*
X111493541Y-44088543D01*
X111488582Y-44102403D01*
X111482288Y-44115710D01*
X111474720Y-44128336D01*
X111465952Y-44140159D01*
X111456066Y-44151066D01*
X111445159Y-44160952D01*
X111433336Y-44169720D01*
X111420710Y-44177288D01*
X111407403Y-44183582D01*
X111393543Y-44188541D01*
X111379264Y-44192118D01*
X111364703Y-44194278D01*
X111350000Y-44195000D01*
X109700000Y-44195000D01*
X109685297Y-44194278D01*
X109670736Y-44192118D01*
X109656457Y-44188541D01*
X109642597Y-44183582D01*
X109629290Y-44177288D01*
X109616664Y-44169720D01*
X109604841Y-44160952D01*
X109593934Y-44151066D01*
X109584048Y-44140159D01*
X109575280Y-44128336D01*
X109567712Y-44115710D01*
X109561418Y-44102403D01*
X109556459Y-44088543D01*
X109552882Y-44074264D01*
X109550722Y-44059703D01*
X109550000Y-44045000D01*
X109550000Y-43745000D01*
X109550722Y-43730297D01*
X109552882Y-43715736D01*
X109556459Y-43701457D01*
X109561418Y-43687597D01*
X109567712Y-43674290D01*
X109575280Y-43661664D01*
X109584048Y-43649841D01*
X109593934Y-43638934D01*
X109604841Y-43629048D01*
X109616664Y-43620280D01*
X109629290Y-43612712D01*
X109642597Y-43606418D01*
X109656457Y-43601459D01*
X109670736Y-43597882D01*
X109685297Y-43595722D01*
X109700000Y-43595000D01*
X111350000Y-43595000D01*
X111364703Y-43595722D01*
G37*
G36*
X105314703Y-43595722D02*
G01*
X105329264Y-43597882D01*
X105343543Y-43601459D01*
X105357403Y-43606418D01*
X105370710Y-43612712D01*
X105383336Y-43620280D01*
X105395159Y-43629048D01*
X105406066Y-43638934D01*
X105415952Y-43649841D01*
X105424720Y-43661664D01*
X105432288Y-43674290D01*
X105438582Y-43687597D01*
X105443541Y-43701457D01*
X105447118Y-43715736D01*
X105449278Y-43730297D01*
X105450000Y-43745000D01*
X105450000Y-44045000D01*
X105449278Y-44059703D01*
X105447118Y-44074264D01*
X105443541Y-44088543D01*
X105438582Y-44102403D01*
X105432288Y-44115710D01*
X105424720Y-44128336D01*
X105415952Y-44140159D01*
X105406066Y-44151066D01*
X105395159Y-44160952D01*
X105383336Y-44169720D01*
X105370710Y-44177288D01*
X105357403Y-44183582D01*
X105343543Y-44188541D01*
X105329264Y-44192118D01*
X105314703Y-44194278D01*
X105300000Y-44195000D01*
X103650000Y-44195000D01*
X103635297Y-44194278D01*
X103620736Y-44192118D01*
X103606457Y-44188541D01*
X103592597Y-44183582D01*
X103579290Y-44177288D01*
X103566664Y-44169720D01*
X103554841Y-44160952D01*
X103543934Y-44151066D01*
X103534048Y-44140159D01*
X103525280Y-44128336D01*
X103517712Y-44115710D01*
X103511418Y-44102403D01*
X103506459Y-44088543D01*
X103502882Y-44074264D01*
X103500722Y-44059703D01*
X103500000Y-44045000D01*
X103500000Y-43745000D01*
X103500722Y-43730297D01*
X103502882Y-43715736D01*
X103506459Y-43701457D01*
X103511418Y-43687597D01*
X103517712Y-43674290D01*
X103525280Y-43661664D01*
X103534048Y-43649841D01*
X103543934Y-43638934D01*
X103554841Y-43629048D01*
X103566664Y-43620280D01*
X103579290Y-43612712D01*
X103592597Y-43606418D01*
X103606457Y-43601459D01*
X103620736Y-43597882D01*
X103635297Y-43595722D01*
X103650000Y-43595000D01*
X105300000Y-43595000D01*
X105314703Y-43595722D01*
G37*
G36*
X105314703Y-44865722D02*
G01*
X105329264Y-44867882D01*
X105343543Y-44871459D01*
X105357403Y-44876418D01*
X105370710Y-44882712D01*
X105383336Y-44890280D01*
X105395159Y-44899048D01*
X105406066Y-44908934D01*
X105415952Y-44919841D01*
X105424720Y-44931664D01*
X105432288Y-44944290D01*
X105438582Y-44957597D01*
X105443541Y-44971457D01*
X105447118Y-44985736D01*
X105449278Y-45000297D01*
X105450000Y-45015000D01*
X105450000Y-45315000D01*
X105449278Y-45329703D01*
X105447118Y-45344264D01*
X105443541Y-45358543D01*
X105438582Y-45372403D01*
X105432288Y-45385710D01*
X105424720Y-45398336D01*
X105415952Y-45410159D01*
X105406066Y-45421066D01*
X105395159Y-45430952D01*
X105383336Y-45439720D01*
X105370710Y-45447288D01*
X105357403Y-45453582D01*
X105343543Y-45458541D01*
X105329264Y-45462118D01*
X105314703Y-45464278D01*
X105300000Y-45465000D01*
X103650000Y-45465000D01*
X103635297Y-45464278D01*
X103620736Y-45462118D01*
X103606457Y-45458541D01*
X103592597Y-45453582D01*
X103579290Y-45447288D01*
X103566664Y-45439720D01*
X103554841Y-45430952D01*
X103543934Y-45421066D01*
X103534048Y-45410159D01*
X103525280Y-45398336D01*
X103517712Y-45385710D01*
X103511418Y-45372403D01*
X103506459Y-45358543D01*
X103502882Y-45344264D01*
X103500722Y-45329703D01*
X103500000Y-45315000D01*
X103500000Y-45015000D01*
X103500722Y-45000297D01*
X103502882Y-44985736D01*
X103506459Y-44971457D01*
X103511418Y-44957597D01*
X103517712Y-44944290D01*
X103525280Y-44931664D01*
X103534048Y-44919841D01*
X103543934Y-44908934D01*
X103554841Y-44899048D01*
X103566664Y-44890280D01*
X103579290Y-44882712D01*
X103592597Y-44876418D01*
X103606457Y-44871459D01*
X103620736Y-44867882D01*
X103635297Y-44865722D01*
X103650000Y-44865000D01*
X105300000Y-44865000D01*
X105314703Y-44865722D01*
G37*
G36*
X105314703Y-46135722D02*
G01*
X105329264Y-46137882D01*
X105343543Y-46141459D01*
X105357403Y-46146418D01*
X105370710Y-46152712D01*
X105383336Y-46160280D01*
X105395159Y-46169048D01*
X105406066Y-46178934D01*
X105415952Y-46189841D01*
X105424720Y-46201664D01*
X105432288Y-46214290D01*
X105438582Y-46227597D01*
X105443541Y-46241457D01*
X105447118Y-46255736D01*
X105449278Y-46270297D01*
X105450000Y-46285000D01*
X105450000Y-46585000D01*
X105449278Y-46599703D01*
X105447118Y-46614264D01*
X105443541Y-46628543D01*
X105438582Y-46642403D01*
X105432288Y-46655710D01*
X105424720Y-46668336D01*
X105415952Y-46680159D01*
X105406066Y-46691066D01*
X105395159Y-46700952D01*
X105383336Y-46709720D01*
X105370710Y-46717288D01*
X105357403Y-46723582D01*
X105343543Y-46728541D01*
X105329264Y-46732118D01*
X105314703Y-46734278D01*
X105300000Y-46735000D01*
X103650000Y-46735000D01*
X103635297Y-46734278D01*
X103620736Y-46732118D01*
X103606457Y-46728541D01*
X103592597Y-46723582D01*
X103579290Y-46717288D01*
X103566664Y-46709720D01*
X103554841Y-46700952D01*
X103543934Y-46691066D01*
X103534048Y-46680159D01*
X103525280Y-46668336D01*
X103517712Y-46655710D01*
X103511418Y-46642403D01*
X103506459Y-46628543D01*
X103502882Y-46614264D01*
X103500722Y-46599703D01*
X103500000Y-46585000D01*
X103500000Y-46285000D01*
X103500722Y-46270297D01*
X103502882Y-46255736D01*
X103506459Y-46241457D01*
X103511418Y-46227597D01*
X103517712Y-46214290D01*
X103525280Y-46201664D01*
X103534048Y-46189841D01*
X103543934Y-46178934D01*
X103554841Y-46169048D01*
X103566664Y-46160280D01*
X103579290Y-46152712D01*
X103592597Y-46146418D01*
X103606457Y-46141459D01*
X103620736Y-46137882D01*
X103635297Y-46135722D01*
X103650000Y-46135000D01*
X105300000Y-46135000D01*
X105314703Y-46135722D01*
G37*
G36*
X105314703Y-47405722D02*
G01*
X105329264Y-47407882D01*
X105343543Y-47411459D01*
X105357403Y-47416418D01*
X105370710Y-47422712D01*
X105383336Y-47430280D01*
X105395159Y-47439048D01*
X105406066Y-47448934D01*
X105415952Y-47459841D01*
X105424720Y-47471664D01*
X105432288Y-47484290D01*
X105438582Y-47497597D01*
X105443541Y-47511457D01*
X105447118Y-47525736D01*
X105449278Y-47540297D01*
X105450000Y-47555000D01*
X105450000Y-47855000D01*
X105449278Y-47869703D01*
X105447118Y-47884264D01*
X105443541Y-47898543D01*
X105438582Y-47912403D01*
X105432288Y-47925710D01*
X105424720Y-47938336D01*
X105415952Y-47950159D01*
X105406066Y-47961066D01*
X105395159Y-47970952D01*
X105383336Y-47979720D01*
X105370710Y-47987288D01*
X105357403Y-47993582D01*
X105343543Y-47998541D01*
X105329264Y-48002118D01*
X105314703Y-48004278D01*
X105300000Y-48005000D01*
X103650000Y-48005000D01*
X103635297Y-48004278D01*
X103620736Y-48002118D01*
X103606457Y-47998541D01*
X103592597Y-47993582D01*
X103579290Y-47987288D01*
X103566664Y-47979720D01*
X103554841Y-47970952D01*
X103543934Y-47961066D01*
X103534048Y-47950159D01*
X103525280Y-47938336D01*
X103517712Y-47925710D01*
X103511418Y-47912403D01*
X103506459Y-47898543D01*
X103502882Y-47884264D01*
X103500722Y-47869703D01*
X103500000Y-47855000D01*
X103500000Y-47555000D01*
X103500722Y-47540297D01*
X103502882Y-47525736D01*
X103506459Y-47511457D01*
X103511418Y-47497597D01*
X103517712Y-47484290D01*
X103525280Y-47471664D01*
X103534048Y-47459841D01*
X103543934Y-47448934D01*
X103554841Y-47439048D01*
X103566664Y-47430280D01*
X103579290Y-47422712D01*
X103592597Y-47416418D01*
X103606457Y-47411459D01*
X103620736Y-47407882D01*
X103635297Y-47405722D01*
X103650000Y-47405000D01*
X105300000Y-47405000D01*
X105314703Y-47405722D01*
G37*
G36*
X100364703Y-47405722D02*
G01*
X100379264Y-47407882D01*
X100393543Y-47411459D01*
X100407403Y-47416418D01*
X100420710Y-47422712D01*
X100433336Y-47430280D01*
X100445159Y-47439048D01*
X100456066Y-47448934D01*
X100465952Y-47459841D01*
X100474720Y-47471664D01*
X100482288Y-47484290D01*
X100488582Y-47497597D01*
X100493541Y-47511457D01*
X100497118Y-47525736D01*
X100499278Y-47540297D01*
X100500000Y-47555000D01*
X100500000Y-47855000D01*
X100499278Y-47869703D01*
X100497118Y-47884264D01*
X100493541Y-47898543D01*
X100488582Y-47912403D01*
X100482288Y-47925710D01*
X100474720Y-47938336D01*
X100465952Y-47950159D01*
X100456066Y-47961066D01*
X100445159Y-47970952D01*
X100433336Y-47979720D01*
X100420710Y-47987288D01*
X100407403Y-47993582D01*
X100393543Y-47998541D01*
X100379264Y-48002118D01*
X100364703Y-48004278D01*
X100350000Y-48005000D01*
X98700000Y-48005000D01*
X98685297Y-48004278D01*
X98670736Y-48002118D01*
X98656457Y-47998541D01*
X98642597Y-47993582D01*
X98629290Y-47987288D01*
X98616664Y-47979720D01*
X98604841Y-47970952D01*
X98593934Y-47961066D01*
X98584048Y-47950159D01*
X98575280Y-47938336D01*
X98567712Y-47925710D01*
X98561418Y-47912403D01*
X98556459Y-47898543D01*
X98552882Y-47884264D01*
X98550722Y-47869703D01*
X98550000Y-47855000D01*
X98550000Y-47555000D01*
X98550722Y-47540297D01*
X98552882Y-47525736D01*
X98556459Y-47511457D01*
X98561418Y-47497597D01*
X98567712Y-47484290D01*
X98575280Y-47471664D01*
X98584048Y-47459841D01*
X98593934Y-47448934D01*
X98604841Y-47439048D01*
X98616664Y-47430280D01*
X98629290Y-47422712D01*
X98642597Y-47416418D01*
X98656457Y-47411459D01*
X98670736Y-47407882D01*
X98685297Y-47405722D01*
X98700000Y-47405000D01*
X100350000Y-47405000D01*
X100364703Y-47405722D01*
G37*
G36*
X100364703Y-46135722D02*
G01*
X100379264Y-46137882D01*
X100393543Y-46141459D01*
X100407403Y-46146418D01*
X100420710Y-46152712D01*
X100433336Y-46160280D01*
X100445159Y-46169048D01*
X100456066Y-46178934D01*
X100465952Y-46189841D01*
X100474720Y-46201664D01*
X100482288Y-46214290D01*
X100488582Y-46227597D01*
X100493541Y-46241457D01*
X100497118Y-46255736D01*
X100499278Y-46270297D01*
X100500000Y-46285000D01*
X100500000Y-46585000D01*
X100499278Y-46599703D01*
X100497118Y-46614264D01*
X100493541Y-46628543D01*
X100488582Y-46642403D01*
X100482288Y-46655710D01*
X100474720Y-46668336D01*
X100465952Y-46680159D01*
X100456066Y-46691066D01*
X100445159Y-46700952D01*
X100433336Y-46709720D01*
X100420710Y-46717288D01*
X100407403Y-46723582D01*
X100393543Y-46728541D01*
X100379264Y-46732118D01*
X100364703Y-46734278D01*
X100350000Y-46735000D01*
X98700000Y-46735000D01*
X98685297Y-46734278D01*
X98670736Y-46732118D01*
X98656457Y-46728541D01*
X98642597Y-46723582D01*
X98629290Y-46717288D01*
X98616664Y-46709720D01*
X98604841Y-46700952D01*
X98593934Y-46691066D01*
X98584048Y-46680159D01*
X98575280Y-46668336D01*
X98567712Y-46655710D01*
X98561418Y-46642403D01*
X98556459Y-46628543D01*
X98552882Y-46614264D01*
X98550722Y-46599703D01*
X98550000Y-46585000D01*
X98550000Y-46285000D01*
X98550722Y-46270297D01*
X98552882Y-46255736D01*
X98556459Y-46241457D01*
X98561418Y-46227597D01*
X98567712Y-46214290D01*
X98575280Y-46201664D01*
X98584048Y-46189841D01*
X98593934Y-46178934D01*
X98604841Y-46169048D01*
X98616664Y-46160280D01*
X98629290Y-46152712D01*
X98642597Y-46146418D01*
X98656457Y-46141459D01*
X98670736Y-46137882D01*
X98685297Y-46135722D01*
X98700000Y-46135000D01*
X100350000Y-46135000D01*
X100364703Y-46135722D01*
G37*
G36*
X100364703Y-44865722D02*
G01*
X100379264Y-44867882D01*
X100393543Y-44871459D01*
X100407403Y-44876418D01*
X100420710Y-44882712D01*
X100433336Y-44890280D01*
X100445159Y-44899048D01*
X100456066Y-44908934D01*
X100465952Y-44919841D01*
X100474720Y-44931664D01*
X100482288Y-44944290D01*
X100488582Y-44957597D01*
X100493541Y-44971457D01*
X100497118Y-44985736D01*
X100499278Y-45000297D01*
X100500000Y-45015000D01*
X100500000Y-45315000D01*
X100499278Y-45329703D01*
X100497118Y-45344264D01*
X100493541Y-45358543D01*
X100488582Y-45372403D01*
X100482288Y-45385710D01*
X100474720Y-45398336D01*
X100465952Y-45410159D01*
X100456066Y-45421066D01*
X100445159Y-45430952D01*
X100433336Y-45439720D01*
X100420710Y-45447288D01*
X100407403Y-45453582D01*
X100393543Y-45458541D01*
X100379264Y-45462118D01*
X100364703Y-45464278D01*
X100350000Y-45465000D01*
X98700000Y-45465000D01*
X98685297Y-45464278D01*
X98670736Y-45462118D01*
X98656457Y-45458541D01*
X98642597Y-45453582D01*
X98629290Y-45447288D01*
X98616664Y-45439720D01*
X98604841Y-45430952D01*
X98593934Y-45421066D01*
X98584048Y-45410159D01*
X98575280Y-45398336D01*
X98567712Y-45385710D01*
X98561418Y-45372403D01*
X98556459Y-45358543D01*
X98552882Y-45344264D01*
X98550722Y-45329703D01*
X98550000Y-45315000D01*
X98550000Y-45015000D01*
X98550722Y-45000297D01*
X98552882Y-44985736D01*
X98556459Y-44971457D01*
X98561418Y-44957597D01*
X98567712Y-44944290D01*
X98575280Y-44931664D01*
X98584048Y-44919841D01*
X98593934Y-44908934D01*
X98604841Y-44899048D01*
X98616664Y-44890280D01*
X98629290Y-44882712D01*
X98642597Y-44876418D01*
X98656457Y-44871459D01*
X98670736Y-44867882D01*
X98685297Y-44865722D01*
X98700000Y-44865000D01*
X100350000Y-44865000D01*
X100364703Y-44865722D01*
G37*
G36*
X100364703Y-43595722D02*
G01*
X100379264Y-43597882D01*
X100393543Y-43601459D01*
X100407403Y-43606418D01*
X100420710Y-43612712D01*
X100433336Y-43620280D01*
X100445159Y-43629048D01*
X100456066Y-43638934D01*
X100465952Y-43649841D01*
X100474720Y-43661664D01*
X100482288Y-43674290D01*
X100488582Y-43687597D01*
X100493541Y-43701457D01*
X100497118Y-43715736D01*
X100499278Y-43730297D01*
X100500000Y-43745000D01*
X100500000Y-44045000D01*
X100499278Y-44059703D01*
X100497118Y-44074264D01*
X100493541Y-44088543D01*
X100488582Y-44102403D01*
X100482288Y-44115710D01*
X100474720Y-44128336D01*
X100465952Y-44140159D01*
X100456066Y-44151066D01*
X100445159Y-44160952D01*
X100433336Y-44169720D01*
X100420710Y-44177288D01*
X100407403Y-44183582D01*
X100393543Y-44188541D01*
X100379264Y-44192118D01*
X100364703Y-44194278D01*
X100350000Y-44195000D01*
X98700000Y-44195000D01*
X98685297Y-44194278D01*
X98670736Y-44192118D01*
X98656457Y-44188541D01*
X98642597Y-44183582D01*
X98629290Y-44177288D01*
X98616664Y-44169720D01*
X98604841Y-44160952D01*
X98593934Y-44151066D01*
X98584048Y-44140159D01*
X98575280Y-44128336D01*
X98567712Y-44115710D01*
X98561418Y-44102403D01*
X98556459Y-44088543D01*
X98552882Y-44074264D01*
X98550722Y-44059703D01*
X98550000Y-44045000D01*
X98550000Y-43745000D01*
X98550722Y-43730297D01*
X98552882Y-43715736D01*
X98556459Y-43701457D01*
X98561418Y-43687597D01*
X98567712Y-43674290D01*
X98575280Y-43661664D01*
X98584048Y-43649841D01*
X98593934Y-43638934D01*
X98604841Y-43629048D01*
X98616664Y-43620280D01*
X98629290Y-43612712D01*
X98642597Y-43606418D01*
X98656457Y-43601459D01*
X98670736Y-43597882D01*
X98685297Y-43595722D01*
X98700000Y-43595000D01*
X100350000Y-43595000D01*
X100364703Y-43595722D01*
G37*
G36*
X111709703Y-57800722D02*
G01*
X111724264Y-57802882D01*
X111738543Y-57806459D01*
X111752403Y-57811418D01*
X111765710Y-57817712D01*
X111778336Y-57825280D01*
X111790159Y-57834048D01*
X111801066Y-57843934D01*
X111810952Y-57854841D01*
X111819720Y-57866664D01*
X111827288Y-57879290D01*
X111833582Y-57892597D01*
X111838541Y-57906457D01*
X111842118Y-57920736D01*
X111844278Y-57935297D01*
X111845000Y-57950000D01*
X111845000Y-59600000D01*
X111844278Y-59614703D01*
X111842118Y-59629264D01*
X111838541Y-59643543D01*
X111833582Y-59657403D01*
X111827288Y-59670710D01*
X111819720Y-59683336D01*
X111810952Y-59695159D01*
X111801066Y-59706066D01*
X111790159Y-59715952D01*
X111778336Y-59724720D01*
X111765710Y-59732288D01*
X111752403Y-59738582D01*
X111738543Y-59743541D01*
X111724264Y-59747118D01*
X111709703Y-59749278D01*
X111695000Y-59750000D01*
X111395000Y-59750000D01*
X111380297Y-59749278D01*
X111365736Y-59747118D01*
X111351457Y-59743541D01*
X111337597Y-59738582D01*
X111324290Y-59732288D01*
X111311664Y-59724720D01*
X111299841Y-59715952D01*
X111288934Y-59706066D01*
X111279048Y-59695159D01*
X111270280Y-59683336D01*
X111262712Y-59670710D01*
X111256418Y-59657403D01*
X111251459Y-59643543D01*
X111247882Y-59629264D01*
X111245722Y-59614703D01*
X111245000Y-59600000D01*
X111245000Y-57950000D01*
X111245722Y-57935297D01*
X111247882Y-57920736D01*
X111251459Y-57906457D01*
X111256418Y-57892597D01*
X111262712Y-57879290D01*
X111270280Y-57866664D01*
X111279048Y-57854841D01*
X111288934Y-57843934D01*
X111299841Y-57834048D01*
X111311664Y-57825280D01*
X111324290Y-57817712D01*
X111337597Y-57811418D01*
X111351457Y-57806459D01*
X111365736Y-57802882D01*
X111380297Y-57800722D01*
X111395000Y-57800000D01*
X111695000Y-57800000D01*
X111709703Y-57800722D01*
G37*
G36*
X110439703Y-57800722D02*
G01*
X110454264Y-57802882D01*
X110468543Y-57806459D01*
X110482403Y-57811418D01*
X110495710Y-57817712D01*
X110508336Y-57825280D01*
X110520159Y-57834048D01*
X110531066Y-57843934D01*
X110540952Y-57854841D01*
X110549720Y-57866664D01*
X110557288Y-57879290D01*
X110563582Y-57892597D01*
X110568541Y-57906457D01*
X110572118Y-57920736D01*
X110574278Y-57935297D01*
X110575000Y-57950000D01*
X110575000Y-59600000D01*
X110574278Y-59614703D01*
X110572118Y-59629264D01*
X110568541Y-59643543D01*
X110563582Y-59657403D01*
X110557288Y-59670710D01*
X110549720Y-59683336D01*
X110540952Y-59695159D01*
X110531066Y-59706066D01*
X110520159Y-59715952D01*
X110508336Y-59724720D01*
X110495710Y-59732288D01*
X110482403Y-59738582D01*
X110468543Y-59743541D01*
X110454264Y-59747118D01*
X110439703Y-59749278D01*
X110425000Y-59750000D01*
X110125000Y-59750000D01*
X110110297Y-59749278D01*
X110095736Y-59747118D01*
X110081457Y-59743541D01*
X110067597Y-59738582D01*
X110054290Y-59732288D01*
X110041664Y-59724720D01*
X110029841Y-59715952D01*
X110018934Y-59706066D01*
X110009048Y-59695159D01*
X110000280Y-59683336D01*
X109992712Y-59670710D01*
X109986418Y-59657403D01*
X109981459Y-59643543D01*
X109977882Y-59629264D01*
X109975722Y-59614703D01*
X109975000Y-59600000D01*
X109975000Y-57950000D01*
X109975722Y-57935297D01*
X109977882Y-57920736D01*
X109981459Y-57906457D01*
X109986418Y-57892597D01*
X109992712Y-57879290D01*
X110000280Y-57866664D01*
X110009048Y-57854841D01*
X110018934Y-57843934D01*
X110029841Y-57834048D01*
X110041664Y-57825280D01*
X110054290Y-57817712D01*
X110067597Y-57811418D01*
X110081457Y-57806459D01*
X110095736Y-57802882D01*
X110110297Y-57800722D01*
X110125000Y-57800000D01*
X110425000Y-57800000D01*
X110439703Y-57800722D01*
G37*
G36*
X109169703Y-57800722D02*
G01*
X109184264Y-57802882D01*
X109198543Y-57806459D01*
X109212403Y-57811418D01*
X109225710Y-57817712D01*
X109238336Y-57825280D01*
X109250159Y-57834048D01*
X109261066Y-57843934D01*
X109270952Y-57854841D01*
X109279720Y-57866664D01*
X109287288Y-57879290D01*
X109293582Y-57892597D01*
X109298541Y-57906457D01*
X109302118Y-57920736D01*
X109304278Y-57935297D01*
X109305000Y-57950000D01*
X109305000Y-59600000D01*
X109304278Y-59614703D01*
X109302118Y-59629264D01*
X109298541Y-59643543D01*
X109293582Y-59657403D01*
X109287288Y-59670710D01*
X109279720Y-59683336D01*
X109270952Y-59695159D01*
X109261066Y-59706066D01*
X109250159Y-59715952D01*
X109238336Y-59724720D01*
X109225710Y-59732288D01*
X109212403Y-59738582D01*
X109198543Y-59743541D01*
X109184264Y-59747118D01*
X109169703Y-59749278D01*
X109155000Y-59750000D01*
X108855000Y-59750000D01*
X108840297Y-59749278D01*
X108825736Y-59747118D01*
X108811457Y-59743541D01*
X108797597Y-59738582D01*
X108784290Y-59732288D01*
X108771664Y-59724720D01*
X108759841Y-59715952D01*
X108748934Y-59706066D01*
X108739048Y-59695159D01*
X108730280Y-59683336D01*
X108722712Y-59670710D01*
X108716418Y-59657403D01*
X108711459Y-59643543D01*
X108707882Y-59629264D01*
X108705722Y-59614703D01*
X108705000Y-59600000D01*
X108705000Y-57950000D01*
X108705722Y-57935297D01*
X108707882Y-57920736D01*
X108711459Y-57906457D01*
X108716418Y-57892597D01*
X108722712Y-57879290D01*
X108730280Y-57866664D01*
X108739048Y-57854841D01*
X108748934Y-57843934D01*
X108759841Y-57834048D01*
X108771664Y-57825280D01*
X108784290Y-57817712D01*
X108797597Y-57811418D01*
X108811457Y-57806459D01*
X108825736Y-57802882D01*
X108840297Y-57800722D01*
X108855000Y-57800000D01*
X109155000Y-57800000D01*
X109169703Y-57800722D01*
G37*
G36*
X107899703Y-57800722D02*
G01*
X107914264Y-57802882D01*
X107928543Y-57806459D01*
X107942403Y-57811418D01*
X107955710Y-57817712D01*
X107968336Y-57825280D01*
X107980159Y-57834048D01*
X107991066Y-57843934D01*
X108000952Y-57854841D01*
X108009720Y-57866664D01*
X108017288Y-57879290D01*
X108023582Y-57892597D01*
X108028541Y-57906457D01*
X108032118Y-57920736D01*
X108034278Y-57935297D01*
X108035000Y-57950000D01*
X108035000Y-59600000D01*
X108034278Y-59614703D01*
X108032118Y-59629264D01*
X108028541Y-59643543D01*
X108023582Y-59657403D01*
X108017288Y-59670710D01*
X108009720Y-59683336D01*
X108000952Y-59695159D01*
X107991066Y-59706066D01*
X107980159Y-59715952D01*
X107968336Y-59724720D01*
X107955710Y-59732288D01*
X107942403Y-59738582D01*
X107928543Y-59743541D01*
X107914264Y-59747118D01*
X107899703Y-59749278D01*
X107885000Y-59750000D01*
X107585000Y-59750000D01*
X107570297Y-59749278D01*
X107555736Y-59747118D01*
X107541457Y-59743541D01*
X107527597Y-59738582D01*
X107514290Y-59732288D01*
X107501664Y-59724720D01*
X107489841Y-59715952D01*
X107478934Y-59706066D01*
X107469048Y-59695159D01*
X107460280Y-59683336D01*
X107452712Y-59670710D01*
X107446418Y-59657403D01*
X107441459Y-59643543D01*
X107437882Y-59629264D01*
X107435722Y-59614703D01*
X107435000Y-59600000D01*
X107435000Y-57950000D01*
X107435722Y-57935297D01*
X107437882Y-57920736D01*
X107441459Y-57906457D01*
X107446418Y-57892597D01*
X107452712Y-57879290D01*
X107460280Y-57866664D01*
X107469048Y-57854841D01*
X107478934Y-57843934D01*
X107489841Y-57834048D01*
X107501664Y-57825280D01*
X107514290Y-57817712D01*
X107527597Y-57811418D01*
X107541457Y-57806459D01*
X107555736Y-57802882D01*
X107570297Y-57800722D01*
X107585000Y-57800000D01*
X107885000Y-57800000D01*
X107899703Y-57800722D01*
G37*
G36*
X106629703Y-57800722D02*
G01*
X106644264Y-57802882D01*
X106658543Y-57806459D01*
X106672403Y-57811418D01*
X106685710Y-57817712D01*
X106698336Y-57825280D01*
X106710159Y-57834048D01*
X106721066Y-57843934D01*
X106730952Y-57854841D01*
X106739720Y-57866664D01*
X106747288Y-57879290D01*
X106753582Y-57892597D01*
X106758541Y-57906457D01*
X106762118Y-57920736D01*
X106764278Y-57935297D01*
X106765000Y-57950000D01*
X106765000Y-59600000D01*
X106764278Y-59614703D01*
X106762118Y-59629264D01*
X106758541Y-59643543D01*
X106753582Y-59657403D01*
X106747288Y-59670710D01*
X106739720Y-59683336D01*
X106730952Y-59695159D01*
X106721066Y-59706066D01*
X106710159Y-59715952D01*
X106698336Y-59724720D01*
X106685710Y-59732288D01*
X106672403Y-59738582D01*
X106658543Y-59743541D01*
X106644264Y-59747118D01*
X106629703Y-59749278D01*
X106615000Y-59750000D01*
X106315000Y-59750000D01*
X106300297Y-59749278D01*
X106285736Y-59747118D01*
X106271457Y-59743541D01*
X106257597Y-59738582D01*
X106244290Y-59732288D01*
X106231664Y-59724720D01*
X106219841Y-59715952D01*
X106208934Y-59706066D01*
X106199048Y-59695159D01*
X106190280Y-59683336D01*
X106182712Y-59670710D01*
X106176418Y-59657403D01*
X106171459Y-59643543D01*
X106167882Y-59629264D01*
X106165722Y-59614703D01*
X106165000Y-59600000D01*
X106165000Y-57950000D01*
X106165722Y-57935297D01*
X106167882Y-57920736D01*
X106171459Y-57906457D01*
X106176418Y-57892597D01*
X106182712Y-57879290D01*
X106190280Y-57866664D01*
X106199048Y-57854841D01*
X106208934Y-57843934D01*
X106219841Y-57834048D01*
X106231664Y-57825280D01*
X106244290Y-57817712D01*
X106257597Y-57811418D01*
X106271457Y-57806459D01*
X106285736Y-57802882D01*
X106300297Y-57800722D01*
X106315000Y-57800000D01*
X106615000Y-57800000D01*
X106629703Y-57800722D01*
G37*
G36*
X105359703Y-57800722D02*
G01*
X105374264Y-57802882D01*
X105388543Y-57806459D01*
X105402403Y-57811418D01*
X105415710Y-57817712D01*
X105428336Y-57825280D01*
X105440159Y-57834048D01*
X105451066Y-57843934D01*
X105460952Y-57854841D01*
X105469720Y-57866664D01*
X105477288Y-57879290D01*
X105483582Y-57892597D01*
X105488541Y-57906457D01*
X105492118Y-57920736D01*
X105494278Y-57935297D01*
X105495000Y-57950000D01*
X105495000Y-59600000D01*
X105494278Y-59614703D01*
X105492118Y-59629264D01*
X105488541Y-59643543D01*
X105483582Y-59657403D01*
X105477288Y-59670710D01*
X105469720Y-59683336D01*
X105460952Y-59695159D01*
X105451066Y-59706066D01*
X105440159Y-59715952D01*
X105428336Y-59724720D01*
X105415710Y-59732288D01*
X105402403Y-59738582D01*
X105388543Y-59743541D01*
X105374264Y-59747118D01*
X105359703Y-59749278D01*
X105345000Y-59750000D01*
X105045000Y-59750000D01*
X105030297Y-59749278D01*
X105015736Y-59747118D01*
X105001457Y-59743541D01*
X104987597Y-59738582D01*
X104974290Y-59732288D01*
X104961664Y-59724720D01*
X104949841Y-59715952D01*
X104938934Y-59706066D01*
X104929048Y-59695159D01*
X104920280Y-59683336D01*
X104912712Y-59670710D01*
X104906418Y-59657403D01*
X104901459Y-59643543D01*
X104897882Y-59629264D01*
X104895722Y-59614703D01*
X104895000Y-59600000D01*
X104895000Y-57950000D01*
X104895722Y-57935297D01*
X104897882Y-57920736D01*
X104901459Y-57906457D01*
X104906418Y-57892597D01*
X104912712Y-57879290D01*
X104920280Y-57866664D01*
X104929048Y-57854841D01*
X104938934Y-57843934D01*
X104949841Y-57834048D01*
X104961664Y-57825280D01*
X104974290Y-57817712D01*
X104987597Y-57811418D01*
X105001457Y-57806459D01*
X105015736Y-57802882D01*
X105030297Y-57800722D01*
X105045000Y-57800000D01*
X105345000Y-57800000D01*
X105359703Y-57800722D01*
G37*
G36*
X104089703Y-57800722D02*
G01*
X104104264Y-57802882D01*
X104118543Y-57806459D01*
X104132403Y-57811418D01*
X104145710Y-57817712D01*
X104158336Y-57825280D01*
X104170159Y-57834048D01*
X104181066Y-57843934D01*
X104190952Y-57854841D01*
X104199720Y-57866664D01*
X104207288Y-57879290D01*
X104213582Y-57892597D01*
X104218541Y-57906457D01*
X104222118Y-57920736D01*
X104224278Y-57935297D01*
X104225000Y-57950000D01*
X104225000Y-59600000D01*
X104224278Y-59614703D01*
X104222118Y-59629264D01*
X104218541Y-59643543D01*
X104213582Y-59657403D01*
X104207288Y-59670710D01*
X104199720Y-59683336D01*
X104190952Y-59695159D01*
X104181066Y-59706066D01*
X104170159Y-59715952D01*
X104158336Y-59724720D01*
X104145710Y-59732288D01*
X104132403Y-59738582D01*
X104118543Y-59743541D01*
X104104264Y-59747118D01*
X104089703Y-59749278D01*
X104075000Y-59750000D01*
X103775000Y-59750000D01*
X103760297Y-59749278D01*
X103745736Y-59747118D01*
X103731457Y-59743541D01*
X103717597Y-59738582D01*
X103704290Y-59732288D01*
X103691664Y-59724720D01*
X103679841Y-59715952D01*
X103668934Y-59706066D01*
X103659048Y-59695159D01*
X103650280Y-59683336D01*
X103642712Y-59670710D01*
X103636418Y-59657403D01*
X103631459Y-59643543D01*
X103627882Y-59629264D01*
X103625722Y-59614703D01*
X103625000Y-59600000D01*
X103625000Y-57950000D01*
X103625722Y-57935297D01*
X103627882Y-57920736D01*
X103631459Y-57906457D01*
X103636418Y-57892597D01*
X103642712Y-57879290D01*
X103650280Y-57866664D01*
X103659048Y-57854841D01*
X103668934Y-57843934D01*
X103679841Y-57834048D01*
X103691664Y-57825280D01*
X103704290Y-57817712D01*
X103717597Y-57811418D01*
X103731457Y-57806459D01*
X103745736Y-57802882D01*
X103760297Y-57800722D01*
X103775000Y-57800000D01*
X104075000Y-57800000D01*
X104089703Y-57800722D01*
G37*
G36*
X102819703Y-57800722D02*
G01*
X102834264Y-57802882D01*
X102848543Y-57806459D01*
X102862403Y-57811418D01*
X102875710Y-57817712D01*
X102888336Y-57825280D01*
X102900159Y-57834048D01*
X102911066Y-57843934D01*
X102920952Y-57854841D01*
X102929720Y-57866664D01*
X102937288Y-57879290D01*
X102943582Y-57892597D01*
X102948541Y-57906457D01*
X102952118Y-57920736D01*
X102954278Y-57935297D01*
X102955000Y-57950000D01*
X102955000Y-59600000D01*
X102954278Y-59614703D01*
X102952118Y-59629264D01*
X102948541Y-59643543D01*
X102943582Y-59657403D01*
X102937288Y-59670710D01*
X102929720Y-59683336D01*
X102920952Y-59695159D01*
X102911066Y-59706066D01*
X102900159Y-59715952D01*
X102888336Y-59724720D01*
X102875710Y-59732288D01*
X102862403Y-59738582D01*
X102848543Y-59743541D01*
X102834264Y-59747118D01*
X102819703Y-59749278D01*
X102805000Y-59750000D01*
X102505000Y-59750000D01*
X102490297Y-59749278D01*
X102475736Y-59747118D01*
X102461457Y-59743541D01*
X102447597Y-59738582D01*
X102434290Y-59732288D01*
X102421664Y-59724720D01*
X102409841Y-59715952D01*
X102398934Y-59706066D01*
X102389048Y-59695159D01*
X102380280Y-59683336D01*
X102372712Y-59670710D01*
X102366418Y-59657403D01*
X102361459Y-59643543D01*
X102357882Y-59629264D01*
X102355722Y-59614703D01*
X102355000Y-59600000D01*
X102355000Y-57950000D01*
X102355722Y-57935297D01*
X102357882Y-57920736D01*
X102361459Y-57906457D01*
X102366418Y-57892597D01*
X102372712Y-57879290D01*
X102380280Y-57866664D01*
X102389048Y-57854841D01*
X102398934Y-57843934D01*
X102409841Y-57834048D01*
X102421664Y-57825280D01*
X102434290Y-57817712D01*
X102447597Y-57811418D01*
X102461457Y-57806459D01*
X102475736Y-57802882D01*
X102490297Y-57800722D01*
X102505000Y-57800000D01*
X102805000Y-57800000D01*
X102819703Y-57800722D01*
G37*
G36*
X102819703Y-52850722D02*
G01*
X102834264Y-52852882D01*
X102848543Y-52856459D01*
X102862403Y-52861418D01*
X102875710Y-52867712D01*
X102888336Y-52875280D01*
X102900159Y-52884048D01*
X102911066Y-52893934D01*
X102920952Y-52904841D01*
X102929720Y-52916664D01*
X102937288Y-52929290D01*
X102943582Y-52942597D01*
X102948541Y-52956457D01*
X102952118Y-52970736D01*
X102954278Y-52985297D01*
X102955000Y-53000000D01*
X102955000Y-54650000D01*
X102954278Y-54664703D01*
X102952118Y-54679264D01*
X102948541Y-54693543D01*
X102943582Y-54707403D01*
X102937288Y-54720710D01*
X102929720Y-54733336D01*
X102920952Y-54745159D01*
X102911066Y-54756066D01*
X102900159Y-54765952D01*
X102888336Y-54774720D01*
X102875710Y-54782288D01*
X102862403Y-54788582D01*
X102848543Y-54793541D01*
X102834264Y-54797118D01*
X102819703Y-54799278D01*
X102805000Y-54800000D01*
X102505000Y-54800000D01*
X102490297Y-54799278D01*
X102475736Y-54797118D01*
X102461457Y-54793541D01*
X102447597Y-54788582D01*
X102434290Y-54782288D01*
X102421664Y-54774720D01*
X102409841Y-54765952D01*
X102398934Y-54756066D01*
X102389048Y-54745159D01*
X102380280Y-54733336D01*
X102372712Y-54720710D01*
X102366418Y-54707403D01*
X102361459Y-54693543D01*
X102357882Y-54679264D01*
X102355722Y-54664703D01*
X102355000Y-54650000D01*
X102355000Y-53000000D01*
X102355722Y-52985297D01*
X102357882Y-52970736D01*
X102361459Y-52956457D01*
X102366418Y-52942597D01*
X102372712Y-52929290D01*
X102380280Y-52916664D01*
X102389048Y-52904841D01*
X102398934Y-52893934D01*
X102409841Y-52884048D01*
X102421664Y-52875280D01*
X102434290Y-52867712D01*
X102447597Y-52861418D01*
X102461457Y-52856459D01*
X102475736Y-52852882D01*
X102490297Y-52850722D01*
X102505000Y-52850000D01*
X102805000Y-52850000D01*
X102819703Y-52850722D01*
G37*
G36*
X104089703Y-52850722D02*
G01*
X104104264Y-52852882D01*
X104118543Y-52856459D01*
X104132403Y-52861418D01*
X104145710Y-52867712D01*
X104158336Y-52875280D01*
X104170159Y-52884048D01*
X104181066Y-52893934D01*
X104190952Y-52904841D01*
X104199720Y-52916664D01*
X104207288Y-52929290D01*
X104213582Y-52942597D01*
X104218541Y-52956457D01*
X104222118Y-52970736D01*
X104224278Y-52985297D01*
X104225000Y-53000000D01*
X104225000Y-54650000D01*
X104224278Y-54664703D01*
X104222118Y-54679264D01*
X104218541Y-54693543D01*
X104213582Y-54707403D01*
X104207288Y-54720710D01*
X104199720Y-54733336D01*
X104190952Y-54745159D01*
X104181066Y-54756066D01*
X104170159Y-54765952D01*
X104158336Y-54774720D01*
X104145710Y-54782288D01*
X104132403Y-54788582D01*
X104118543Y-54793541D01*
X104104264Y-54797118D01*
X104089703Y-54799278D01*
X104075000Y-54800000D01*
X103775000Y-54800000D01*
X103760297Y-54799278D01*
X103745736Y-54797118D01*
X103731457Y-54793541D01*
X103717597Y-54788582D01*
X103704290Y-54782288D01*
X103691664Y-54774720D01*
X103679841Y-54765952D01*
X103668934Y-54756066D01*
X103659048Y-54745159D01*
X103650280Y-54733336D01*
X103642712Y-54720710D01*
X103636418Y-54707403D01*
X103631459Y-54693543D01*
X103627882Y-54679264D01*
X103625722Y-54664703D01*
X103625000Y-54650000D01*
X103625000Y-53000000D01*
X103625722Y-52985297D01*
X103627882Y-52970736D01*
X103631459Y-52956457D01*
X103636418Y-52942597D01*
X103642712Y-52929290D01*
X103650280Y-52916664D01*
X103659048Y-52904841D01*
X103668934Y-52893934D01*
X103679841Y-52884048D01*
X103691664Y-52875280D01*
X103704290Y-52867712D01*
X103717597Y-52861418D01*
X103731457Y-52856459D01*
X103745736Y-52852882D01*
X103760297Y-52850722D01*
X103775000Y-52850000D01*
X104075000Y-52850000D01*
X104089703Y-52850722D01*
G37*
G36*
X105359703Y-52850722D02*
G01*
X105374264Y-52852882D01*
X105388543Y-52856459D01*
X105402403Y-52861418D01*
X105415710Y-52867712D01*
X105428336Y-52875280D01*
X105440159Y-52884048D01*
X105451066Y-52893934D01*
X105460952Y-52904841D01*
X105469720Y-52916664D01*
X105477288Y-52929290D01*
X105483582Y-52942597D01*
X105488541Y-52956457D01*
X105492118Y-52970736D01*
X105494278Y-52985297D01*
X105495000Y-53000000D01*
X105495000Y-54650000D01*
X105494278Y-54664703D01*
X105492118Y-54679264D01*
X105488541Y-54693543D01*
X105483582Y-54707403D01*
X105477288Y-54720710D01*
X105469720Y-54733336D01*
X105460952Y-54745159D01*
X105451066Y-54756066D01*
X105440159Y-54765952D01*
X105428336Y-54774720D01*
X105415710Y-54782288D01*
X105402403Y-54788582D01*
X105388543Y-54793541D01*
X105374264Y-54797118D01*
X105359703Y-54799278D01*
X105345000Y-54800000D01*
X105045000Y-54800000D01*
X105030297Y-54799278D01*
X105015736Y-54797118D01*
X105001457Y-54793541D01*
X104987597Y-54788582D01*
X104974290Y-54782288D01*
X104961664Y-54774720D01*
X104949841Y-54765952D01*
X104938934Y-54756066D01*
X104929048Y-54745159D01*
X104920280Y-54733336D01*
X104912712Y-54720710D01*
X104906418Y-54707403D01*
X104901459Y-54693543D01*
X104897882Y-54679264D01*
X104895722Y-54664703D01*
X104895000Y-54650000D01*
X104895000Y-53000000D01*
X104895722Y-52985297D01*
X104897882Y-52970736D01*
X104901459Y-52956457D01*
X104906418Y-52942597D01*
X104912712Y-52929290D01*
X104920280Y-52916664D01*
X104929048Y-52904841D01*
X104938934Y-52893934D01*
X104949841Y-52884048D01*
X104961664Y-52875280D01*
X104974290Y-52867712D01*
X104987597Y-52861418D01*
X105001457Y-52856459D01*
X105015736Y-52852882D01*
X105030297Y-52850722D01*
X105045000Y-52850000D01*
X105345000Y-52850000D01*
X105359703Y-52850722D01*
G37*
G36*
X106629703Y-52850722D02*
G01*
X106644264Y-52852882D01*
X106658543Y-52856459D01*
X106672403Y-52861418D01*
X106685710Y-52867712D01*
X106698336Y-52875280D01*
X106710159Y-52884048D01*
X106721066Y-52893934D01*
X106730952Y-52904841D01*
X106739720Y-52916664D01*
X106747288Y-52929290D01*
X106753582Y-52942597D01*
X106758541Y-52956457D01*
X106762118Y-52970736D01*
X106764278Y-52985297D01*
X106765000Y-53000000D01*
X106765000Y-54650000D01*
X106764278Y-54664703D01*
X106762118Y-54679264D01*
X106758541Y-54693543D01*
X106753582Y-54707403D01*
X106747288Y-54720710D01*
X106739720Y-54733336D01*
X106730952Y-54745159D01*
X106721066Y-54756066D01*
X106710159Y-54765952D01*
X106698336Y-54774720D01*
X106685710Y-54782288D01*
X106672403Y-54788582D01*
X106658543Y-54793541D01*
X106644264Y-54797118D01*
X106629703Y-54799278D01*
X106615000Y-54800000D01*
X106315000Y-54800000D01*
X106300297Y-54799278D01*
X106285736Y-54797118D01*
X106271457Y-54793541D01*
X106257597Y-54788582D01*
X106244290Y-54782288D01*
X106231664Y-54774720D01*
X106219841Y-54765952D01*
X106208934Y-54756066D01*
X106199048Y-54745159D01*
X106190280Y-54733336D01*
X106182712Y-54720710D01*
X106176418Y-54707403D01*
X106171459Y-54693543D01*
X106167882Y-54679264D01*
X106165722Y-54664703D01*
X106165000Y-54650000D01*
X106165000Y-53000000D01*
X106165722Y-52985297D01*
X106167882Y-52970736D01*
X106171459Y-52956457D01*
X106176418Y-52942597D01*
X106182712Y-52929290D01*
X106190280Y-52916664D01*
X106199048Y-52904841D01*
X106208934Y-52893934D01*
X106219841Y-52884048D01*
X106231664Y-52875280D01*
X106244290Y-52867712D01*
X106257597Y-52861418D01*
X106271457Y-52856459D01*
X106285736Y-52852882D01*
X106300297Y-52850722D01*
X106315000Y-52850000D01*
X106615000Y-52850000D01*
X106629703Y-52850722D01*
G37*
G36*
X107899703Y-52850722D02*
G01*
X107914264Y-52852882D01*
X107928543Y-52856459D01*
X107942403Y-52861418D01*
X107955710Y-52867712D01*
X107968336Y-52875280D01*
X107980159Y-52884048D01*
X107991066Y-52893934D01*
X108000952Y-52904841D01*
X108009720Y-52916664D01*
X108017288Y-52929290D01*
X108023582Y-52942597D01*
X108028541Y-52956457D01*
X108032118Y-52970736D01*
X108034278Y-52985297D01*
X108035000Y-53000000D01*
X108035000Y-54650000D01*
X108034278Y-54664703D01*
X108032118Y-54679264D01*
X108028541Y-54693543D01*
X108023582Y-54707403D01*
X108017288Y-54720710D01*
X108009720Y-54733336D01*
X108000952Y-54745159D01*
X107991066Y-54756066D01*
X107980159Y-54765952D01*
X107968336Y-54774720D01*
X107955710Y-54782288D01*
X107942403Y-54788582D01*
X107928543Y-54793541D01*
X107914264Y-54797118D01*
X107899703Y-54799278D01*
X107885000Y-54800000D01*
X107585000Y-54800000D01*
X107570297Y-54799278D01*
X107555736Y-54797118D01*
X107541457Y-54793541D01*
X107527597Y-54788582D01*
X107514290Y-54782288D01*
X107501664Y-54774720D01*
X107489841Y-54765952D01*
X107478934Y-54756066D01*
X107469048Y-54745159D01*
X107460280Y-54733336D01*
X107452712Y-54720710D01*
X107446418Y-54707403D01*
X107441459Y-54693543D01*
X107437882Y-54679264D01*
X107435722Y-54664703D01*
X107435000Y-54650000D01*
X107435000Y-53000000D01*
X107435722Y-52985297D01*
X107437882Y-52970736D01*
X107441459Y-52956457D01*
X107446418Y-52942597D01*
X107452712Y-52929290D01*
X107460280Y-52916664D01*
X107469048Y-52904841D01*
X107478934Y-52893934D01*
X107489841Y-52884048D01*
X107501664Y-52875280D01*
X107514290Y-52867712D01*
X107527597Y-52861418D01*
X107541457Y-52856459D01*
X107555736Y-52852882D01*
X107570297Y-52850722D01*
X107585000Y-52850000D01*
X107885000Y-52850000D01*
X107899703Y-52850722D01*
G37*
G36*
X109169703Y-52850722D02*
G01*
X109184264Y-52852882D01*
X109198543Y-52856459D01*
X109212403Y-52861418D01*
X109225710Y-52867712D01*
X109238336Y-52875280D01*
X109250159Y-52884048D01*
X109261066Y-52893934D01*
X109270952Y-52904841D01*
X109279720Y-52916664D01*
X109287288Y-52929290D01*
X109293582Y-52942597D01*
X109298541Y-52956457D01*
X109302118Y-52970736D01*
X109304278Y-52985297D01*
X109305000Y-53000000D01*
X109305000Y-54650000D01*
X109304278Y-54664703D01*
X109302118Y-54679264D01*
X109298541Y-54693543D01*
X109293582Y-54707403D01*
X109287288Y-54720710D01*
X109279720Y-54733336D01*
X109270952Y-54745159D01*
X109261066Y-54756066D01*
X109250159Y-54765952D01*
X109238336Y-54774720D01*
X109225710Y-54782288D01*
X109212403Y-54788582D01*
X109198543Y-54793541D01*
X109184264Y-54797118D01*
X109169703Y-54799278D01*
X109155000Y-54800000D01*
X108855000Y-54800000D01*
X108840297Y-54799278D01*
X108825736Y-54797118D01*
X108811457Y-54793541D01*
X108797597Y-54788582D01*
X108784290Y-54782288D01*
X108771664Y-54774720D01*
X108759841Y-54765952D01*
X108748934Y-54756066D01*
X108739048Y-54745159D01*
X108730280Y-54733336D01*
X108722712Y-54720710D01*
X108716418Y-54707403D01*
X108711459Y-54693543D01*
X108707882Y-54679264D01*
X108705722Y-54664703D01*
X108705000Y-54650000D01*
X108705000Y-53000000D01*
X108705722Y-52985297D01*
X108707882Y-52970736D01*
X108711459Y-52956457D01*
X108716418Y-52942597D01*
X108722712Y-52929290D01*
X108730280Y-52916664D01*
X108739048Y-52904841D01*
X108748934Y-52893934D01*
X108759841Y-52884048D01*
X108771664Y-52875280D01*
X108784290Y-52867712D01*
X108797597Y-52861418D01*
X108811457Y-52856459D01*
X108825736Y-52852882D01*
X108840297Y-52850722D01*
X108855000Y-52850000D01*
X109155000Y-52850000D01*
X109169703Y-52850722D01*
G37*
G36*
X110439703Y-52850722D02*
G01*
X110454264Y-52852882D01*
X110468543Y-52856459D01*
X110482403Y-52861418D01*
X110495710Y-52867712D01*
X110508336Y-52875280D01*
X110520159Y-52884048D01*
X110531066Y-52893934D01*
X110540952Y-52904841D01*
X110549720Y-52916664D01*
X110557288Y-52929290D01*
X110563582Y-52942597D01*
X110568541Y-52956457D01*
X110572118Y-52970736D01*
X110574278Y-52985297D01*
X110575000Y-53000000D01*
X110575000Y-54650000D01*
X110574278Y-54664703D01*
X110572118Y-54679264D01*
X110568541Y-54693543D01*
X110563582Y-54707403D01*
X110557288Y-54720710D01*
X110549720Y-54733336D01*
X110540952Y-54745159D01*
X110531066Y-54756066D01*
X110520159Y-54765952D01*
X110508336Y-54774720D01*
X110495710Y-54782288D01*
X110482403Y-54788582D01*
X110468543Y-54793541D01*
X110454264Y-54797118D01*
X110439703Y-54799278D01*
X110425000Y-54800000D01*
X110125000Y-54800000D01*
X110110297Y-54799278D01*
X110095736Y-54797118D01*
X110081457Y-54793541D01*
X110067597Y-54788582D01*
X110054290Y-54782288D01*
X110041664Y-54774720D01*
X110029841Y-54765952D01*
X110018934Y-54756066D01*
X110009048Y-54745159D01*
X110000280Y-54733336D01*
X109992712Y-54720710D01*
X109986418Y-54707403D01*
X109981459Y-54693543D01*
X109977882Y-54679264D01*
X109975722Y-54664703D01*
X109975000Y-54650000D01*
X109975000Y-53000000D01*
X109975722Y-52985297D01*
X109977882Y-52970736D01*
X109981459Y-52956457D01*
X109986418Y-52942597D01*
X109992712Y-52929290D01*
X110000280Y-52916664D01*
X110009048Y-52904841D01*
X110018934Y-52893934D01*
X110029841Y-52884048D01*
X110041664Y-52875280D01*
X110054290Y-52867712D01*
X110067597Y-52861418D01*
X110081457Y-52856459D01*
X110095736Y-52852882D01*
X110110297Y-52850722D01*
X110125000Y-52850000D01*
X110425000Y-52850000D01*
X110439703Y-52850722D01*
G37*
G36*
X111709703Y-52850722D02*
G01*
X111724264Y-52852882D01*
X111738543Y-52856459D01*
X111752403Y-52861418D01*
X111765710Y-52867712D01*
X111778336Y-52875280D01*
X111790159Y-52884048D01*
X111801066Y-52893934D01*
X111810952Y-52904841D01*
X111819720Y-52916664D01*
X111827288Y-52929290D01*
X111833582Y-52942597D01*
X111838541Y-52956457D01*
X111842118Y-52970736D01*
X111844278Y-52985297D01*
X111845000Y-53000000D01*
X111845000Y-54650000D01*
X111844278Y-54664703D01*
X111842118Y-54679264D01*
X111838541Y-54693543D01*
X111833582Y-54707403D01*
X111827288Y-54720710D01*
X111819720Y-54733336D01*
X111810952Y-54745159D01*
X111801066Y-54756066D01*
X111790159Y-54765952D01*
X111778336Y-54774720D01*
X111765710Y-54782288D01*
X111752403Y-54788582D01*
X111738543Y-54793541D01*
X111724264Y-54797118D01*
X111709703Y-54799278D01*
X111695000Y-54800000D01*
X111395000Y-54800000D01*
X111380297Y-54799278D01*
X111365736Y-54797118D01*
X111351457Y-54793541D01*
X111337597Y-54788582D01*
X111324290Y-54782288D01*
X111311664Y-54774720D01*
X111299841Y-54765952D01*
X111288934Y-54756066D01*
X111279048Y-54745159D01*
X111270280Y-54733336D01*
X111262712Y-54720710D01*
X111256418Y-54707403D01*
X111251459Y-54693543D01*
X111247882Y-54679264D01*
X111245722Y-54664703D01*
X111245000Y-54650000D01*
X111245000Y-53000000D01*
X111245722Y-52985297D01*
X111247882Y-52970736D01*
X111251459Y-52956457D01*
X111256418Y-52942597D01*
X111262712Y-52929290D01*
X111270280Y-52916664D01*
X111279048Y-52904841D01*
X111288934Y-52893934D01*
X111299841Y-52884048D01*
X111311664Y-52875280D01*
X111324290Y-52867712D01*
X111337597Y-52861418D01*
X111351457Y-52856459D01*
X111365736Y-52852882D01*
X111380297Y-52850722D01*
X111395000Y-52850000D01*
X111695000Y-52850000D01*
X111709703Y-52850722D01*
G37*
D10*
X135950000Y-41500000D03*
X135950000Y-46100000D03*
X135950000Y-43800000D03*
D11*
X142250000Y-43800000D03*
D14*
G36*
X134180142Y-52876174D02*
G01*
X134203803Y-52879684D01*
X134227007Y-52885496D01*
X134249529Y-52893554D01*
X134271153Y-52903782D01*
X134291670Y-52916079D01*
X134310883Y-52930329D01*
X134328607Y-52946393D01*
X134344671Y-52964117D01*
X134358921Y-52983330D01*
X134371218Y-53003847D01*
X134381446Y-53025471D01*
X134389504Y-53047993D01*
X134395316Y-53071197D01*
X134398826Y-53094858D01*
X134400000Y-53118750D01*
X134400000Y-53606250D01*
X134398826Y-53630142D01*
X134395316Y-53653803D01*
X134389504Y-53677007D01*
X134381446Y-53699529D01*
X134371218Y-53721153D01*
X134358921Y-53741670D01*
X134344671Y-53760883D01*
X134328607Y-53778607D01*
X134310883Y-53794671D01*
X134291670Y-53808921D01*
X134271153Y-53821218D01*
X134249529Y-53831446D01*
X134227007Y-53839504D01*
X134203803Y-53845316D01*
X134180142Y-53848826D01*
X134156250Y-53850000D01*
X133243750Y-53850000D01*
X133219858Y-53848826D01*
X133196197Y-53845316D01*
X133172993Y-53839504D01*
X133150471Y-53831446D01*
X133128847Y-53821218D01*
X133108330Y-53808921D01*
X133089117Y-53794671D01*
X133071393Y-53778607D01*
X133055329Y-53760883D01*
X133041079Y-53741670D01*
X133028782Y-53721153D01*
X133018554Y-53699529D01*
X133010496Y-53677007D01*
X133004684Y-53653803D01*
X133001174Y-53630142D01*
X133000000Y-53606250D01*
X133000000Y-53118750D01*
X133001174Y-53094858D01*
X133004684Y-53071197D01*
X133010496Y-53047993D01*
X133018554Y-53025471D01*
X133028782Y-53003847D01*
X133041079Y-52983330D01*
X133055329Y-52964117D01*
X133071393Y-52946393D01*
X133089117Y-52930329D01*
X133108330Y-52916079D01*
X133128847Y-52903782D01*
X133150471Y-52893554D01*
X133172993Y-52885496D01*
X133196197Y-52879684D01*
X133219858Y-52876174D01*
X133243750Y-52875000D01*
X134156250Y-52875000D01*
X134180142Y-52876174D01*
G37*
G36*
X134180142Y-54751174D02*
G01*
X134203803Y-54754684D01*
X134227007Y-54760496D01*
X134249529Y-54768554D01*
X134271153Y-54778782D01*
X134291670Y-54791079D01*
X134310883Y-54805329D01*
X134328607Y-54821393D01*
X134344671Y-54839117D01*
X134358921Y-54858330D01*
X134371218Y-54878847D01*
X134381446Y-54900471D01*
X134389504Y-54922993D01*
X134395316Y-54946197D01*
X134398826Y-54969858D01*
X134400000Y-54993750D01*
X134400000Y-55481250D01*
X134398826Y-55505142D01*
X134395316Y-55528803D01*
X134389504Y-55552007D01*
X134381446Y-55574529D01*
X134371218Y-55596153D01*
X134358921Y-55616670D01*
X134344671Y-55635883D01*
X134328607Y-55653607D01*
X134310883Y-55669671D01*
X134291670Y-55683921D01*
X134271153Y-55696218D01*
X134249529Y-55706446D01*
X134227007Y-55714504D01*
X134203803Y-55720316D01*
X134180142Y-55723826D01*
X134156250Y-55725000D01*
X133243750Y-55725000D01*
X133219858Y-55723826D01*
X133196197Y-55720316D01*
X133172993Y-55714504D01*
X133150471Y-55706446D01*
X133128847Y-55696218D01*
X133108330Y-55683921D01*
X133089117Y-55669671D01*
X133071393Y-55653607D01*
X133055329Y-55635883D01*
X133041079Y-55616670D01*
X133028782Y-55596153D01*
X133018554Y-55574529D01*
X133010496Y-55552007D01*
X133004684Y-55528803D01*
X133001174Y-55505142D01*
X133000000Y-55481250D01*
X133000000Y-54993750D01*
X133001174Y-54969858D01*
X133004684Y-54946197D01*
X133010496Y-54922993D01*
X133018554Y-54900471D01*
X133028782Y-54878847D01*
X133041079Y-54858330D01*
X133055329Y-54839117D01*
X133071393Y-54821393D01*
X133089117Y-54805329D01*
X133108330Y-54791079D01*
X133128847Y-54778782D01*
X133150471Y-54768554D01*
X133172993Y-54760496D01*
X133196197Y-54754684D01*
X133219858Y-54751174D01*
X133243750Y-54750000D01*
X134156250Y-54750000D01*
X134180142Y-54751174D01*
G37*
G36*
X132080142Y-52876174D02*
G01*
X132103803Y-52879684D01*
X132127007Y-52885496D01*
X132149529Y-52893554D01*
X132171153Y-52903782D01*
X132191670Y-52916079D01*
X132210883Y-52930329D01*
X132228607Y-52946393D01*
X132244671Y-52964117D01*
X132258921Y-52983330D01*
X132271218Y-53003847D01*
X132281446Y-53025471D01*
X132289504Y-53047993D01*
X132295316Y-53071197D01*
X132298826Y-53094858D01*
X132300000Y-53118750D01*
X132300000Y-53606250D01*
X132298826Y-53630142D01*
X132295316Y-53653803D01*
X132289504Y-53677007D01*
X132281446Y-53699529D01*
X132271218Y-53721153D01*
X132258921Y-53741670D01*
X132244671Y-53760883D01*
X132228607Y-53778607D01*
X132210883Y-53794671D01*
X132191670Y-53808921D01*
X132171153Y-53821218D01*
X132149529Y-53831446D01*
X132127007Y-53839504D01*
X132103803Y-53845316D01*
X132080142Y-53848826D01*
X132056250Y-53850000D01*
X131143750Y-53850000D01*
X131119858Y-53848826D01*
X131096197Y-53845316D01*
X131072993Y-53839504D01*
X131050471Y-53831446D01*
X131028847Y-53821218D01*
X131008330Y-53808921D01*
X130989117Y-53794671D01*
X130971393Y-53778607D01*
X130955329Y-53760883D01*
X130941079Y-53741670D01*
X130928782Y-53721153D01*
X130918554Y-53699529D01*
X130910496Y-53677007D01*
X130904684Y-53653803D01*
X130901174Y-53630142D01*
X130900000Y-53606250D01*
X130900000Y-53118750D01*
X130901174Y-53094858D01*
X130904684Y-53071197D01*
X130910496Y-53047993D01*
X130918554Y-53025471D01*
X130928782Y-53003847D01*
X130941079Y-52983330D01*
X130955329Y-52964117D01*
X130971393Y-52946393D01*
X130989117Y-52930329D01*
X131008330Y-52916079D01*
X131028847Y-52903782D01*
X131050471Y-52893554D01*
X131072993Y-52885496D01*
X131096197Y-52879684D01*
X131119858Y-52876174D01*
X131143750Y-52875000D01*
X132056250Y-52875000D01*
X132080142Y-52876174D01*
G37*
G36*
X132080142Y-54751174D02*
G01*
X132103803Y-54754684D01*
X132127007Y-54760496D01*
X132149529Y-54768554D01*
X132171153Y-54778782D01*
X132191670Y-54791079D01*
X132210883Y-54805329D01*
X132228607Y-54821393D01*
X132244671Y-54839117D01*
X132258921Y-54858330D01*
X132271218Y-54878847D01*
X132281446Y-54900471D01*
X132289504Y-54922993D01*
X132295316Y-54946197D01*
X132298826Y-54969858D01*
X132300000Y-54993750D01*
X132300000Y-55481250D01*
X132298826Y-55505142D01*
X132295316Y-55528803D01*
X132289504Y-55552007D01*
X132281446Y-55574529D01*
X132271218Y-55596153D01*
X132258921Y-55616670D01*
X132244671Y-55635883D01*
X132228607Y-55653607D01*
X132210883Y-55669671D01*
X132191670Y-55683921D01*
X132171153Y-55696218D01*
X132149529Y-55706446D01*
X132127007Y-55714504D01*
X132103803Y-55720316D01*
X132080142Y-55723826D01*
X132056250Y-55725000D01*
X131143750Y-55725000D01*
X131119858Y-55723826D01*
X131096197Y-55720316D01*
X131072993Y-55714504D01*
X131050471Y-55706446D01*
X131028847Y-55696218D01*
X131008330Y-55683921D01*
X130989117Y-55669671D01*
X130971393Y-55653607D01*
X130955329Y-55635883D01*
X130941079Y-55616670D01*
X130928782Y-55596153D01*
X130918554Y-55574529D01*
X130910496Y-55552007D01*
X130904684Y-55528803D01*
X130901174Y-55505142D01*
X130900000Y-55481250D01*
X130900000Y-54993750D01*
X130901174Y-54969858D01*
X130904684Y-54946197D01*
X130910496Y-54922993D01*
X130918554Y-54900471D01*
X130928782Y-54878847D01*
X130941079Y-54858330D01*
X130955329Y-54839117D01*
X130971393Y-54821393D01*
X130989117Y-54805329D01*
X131008330Y-54791079D01*
X131028847Y-54778782D01*
X131050471Y-54768554D01*
X131072993Y-54760496D01*
X131096197Y-54754684D01*
X131119858Y-54751174D01*
X131143750Y-54750000D01*
X132056250Y-54750000D01*
X132080142Y-54751174D01*
G37*
G36*
X145780142Y-40276174D02*
G01*
X145803803Y-40279684D01*
X145827007Y-40285496D01*
X145849529Y-40293554D01*
X145871153Y-40303782D01*
X145891670Y-40316079D01*
X145910883Y-40330329D01*
X145928607Y-40346393D01*
X145944671Y-40364117D01*
X145958921Y-40383330D01*
X145971218Y-40403847D01*
X145981446Y-40425471D01*
X145989504Y-40447993D01*
X145995316Y-40471197D01*
X145998826Y-40494858D01*
X146000000Y-40518750D01*
X146000000Y-41006250D01*
X145998826Y-41030142D01*
X145995316Y-41053803D01*
X145989504Y-41077007D01*
X145981446Y-41099529D01*
X145971218Y-41121153D01*
X145958921Y-41141670D01*
X145944671Y-41160883D01*
X145928607Y-41178607D01*
X145910883Y-41194671D01*
X145891670Y-41208921D01*
X145871153Y-41221218D01*
X145849529Y-41231446D01*
X145827007Y-41239504D01*
X145803803Y-41245316D01*
X145780142Y-41248826D01*
X145756250Y-41250000D01*
X144843750Y-41250000D01*
X144819858Y-41248826D01*
X144796197Y-41245316D01*
X144772993Y-41239504D01*
X144750471Y-41231446D01*
X144728847Y-41221218D01*
X144708330Y-41208921D01*
X144689117Y-41194671D01*
X144671393Y-41178607D01*
X144655329Y-41160883D01*
X144641079Y-41141670D01*
X144628782Y-41121153D01*
X144618554Y-41099529D01*
X144610496Y-41077007D01*
X144604684Y-41053803D01*
X144601174Y-41030142D01*
X144600000Y-41006250D01*
X144600000Y-40518750D01*
X144601174Y-40494858D01*
X144604684Y-40471197D01*
X144610496Y-40447993D01*
X144618554Y-40425471D01*
X144628782Y-40403847D01*
X144641079Y-40383330D01*
X144655329Y-40364117D01*
X144671393Y-40346393D01*
X144689117Y-40330329D01*
X144708330Y-40316079D01*
X144728847Y-40303782D01*
X144750471Y-40293554D01*
X144772993Y-40285496D01*
X144796197Y-40279684D01*
X144819858Y-40276174D01*
X144843750Y-40275000D01*
X145756250Y-40275000D01*
X145780142Y-40276174D01*
G37*
G36*
X145780142Y-42151174D02*
G01*
X145803803Y-42154684D01*
X145827007Y-42160496D01*
X145849529Y-42168554D01*
X145871153Y-42178782D01*
X145891670Y-42191079D01*
X145910883Y-42205329D01*
X145928607Y-42221393D01*
X145944671Y-42239117D01*
X145958921Y-42258330D01*
X145971218Y-42278847D01*
X145981446Y-42300471D01*
X145989504Y-42322993D01*
X145995316Y-42346197D01*
X145998826Y-42369858D01*
X146000000Y-42393750D01*
X146000000Y-42881250D01*
X145998826Y-42905142D01*
X145995316Y-42928803D01*
X145989504Y-42952007D01*
X145981446Y-42974529D01*
X145971218Y-42996153D01*
X145958921Y-43016670D01*
X145944671Y-43035883D01*
X145928607Y-43053607D01*
X145910883Y-43069671D01*
X145891670Y-43083921D01*
X145871153Y-43096218D01*
X145849529Y-43106446D01*
X145827007Y-43114504D01*
X145803803Y-43120316D01*
X145780142Y-43123826D01*
X145756250Y-43125000D01*
X144843750Y-43125000D01*
X144819858Y-43123826D01*
X144796197Y-43120316D01*
X144772993Y-43114504D01*
X144750471Y-43106446D01*
X144728847Y-43096218D01*
X144708330Y-43083921D01*
X144689117Y-43069671D01*
X144671393Y-43053607D01*
X144655329Y-43035883D01*
X144641079Y-43016670D01*
X144628782Y-42996153D01*
X144618554Y-42974529D01*
X144610496Y-42952007D01*
X144604684Y-42928803D01*
X144601174Y-42905142D01*
X144600000Y-42881250D01*
X144600000Y-42393750D01*
X144601174Y-42369858D01*
X144604684Y-42346197D01*
X144610496Y-42322993D01*
X144618554Y-42300471D01*
X144628782Y-42278847D01*
X144641079Y-42258330D01*
X144655329Y-42239117D01*
X144671393Y-42221393D01*
X144689117Y-42205329D01*
X144708330Y-42191079D01*
X144728847Y-42178782D01*
X144750471Y-42168554D01*
X144772993Y-42160496D01*
X144796197Y-42154684D01*
X144819858Y-42151174D01*
X144843750Y-42150000D01*
X145756250Y-42150000D01*
X145780142Y-42151174D01*
G37*
G36*
X133980142Y-42976174D02*
G01*
X134003803Y-42979684D01*
X134027007Y-42985496D01*
X134049529Y-42993554D01*
X134071153Y-43003782D01*
X134091670Y-43016079D01*
X134110883Y-43030329D01*
X134128607Y-43046393D01*
X134144671Y-43064117D01*
X134158921Y-43083330D01*
X134171218Y-43103847D01*
X134181446Y-43125471D01*
X134189504Y-43147993D01*
X134195316Y-43171197D01*
X134198826Y-43194858D01*
X134200000Y-43218750D01*
X134200000Y-43706250D01*
X134198826Y-43730142D01*
X134195316Y-43753803D01*
X134189504Y-43777007D01*
X134181446Y-43799529D01*
X134171218Y-43821153D01*
X134158921Y-43841670D01*
X134144671Y-43860883D01*
X134128607Y-43878607D01*
X134110883Y-43894671D01*
X134091670Y-43908921D01*
X134071153Y-43921218D01*
X134049529Y-43931446D01*
X134027007Y-43939504D01*
X134003803Y-43945316D01*
X133980142Y-43948826D01*
X133956250Y-43950000D01*
X133043750Y-43950000D01*
X133019858Y-43948826D01*
X132996197Y-43945316D01*
X132972993Y-43939504D01*
X132950471Y-43931446D01*
X132928847Y-43921218D01*
X132908330Y-43908921D01*
X132889117Y-43894671D01*
X132871393Y-43878607D01*
X132855329Y-43860883D01*
X132841079Y-43841670D01*
X132828782Y-43821153D01*
X132818554Y-43799529D01*
X132810496Y-43777007D01*
X132804684Y-43753803D01*
X132801174Y-43730142D01*
X132800000Y-43706250D01*
X132800000Y-43218750D01*
X132801174Y-43194858D01*
X132804684Y-43171197D01*
X132810496Y-43147993D01*
X132818554Y-43125471D01*
X132828782Y-43103847D01*
X132841079Y-43083330D01*
X132855329Y-43064117D01*
X132871393Y-43046393D01*
X132889117Y-43030329D01*
X132908330Y-43016079D01*
X132928847Y-43003782D01*
X132950471Y-42993554D01*
X132972993Y-42985496D01*
X132996197Y-42979684D01*
X133019858Y-42976174D01*
X133043750Y-42975000D01*
X133956250Y-42975000D01*
X133980142Y-42976174D01*
G37*
G36*
X133980142Y-44851174D02*
G01*
X134003803Y-44854684D01*
X134027007Y-44860496D01*
X134049529Y-44868554D01*
X134071153Y-44878782D01*
X134091670Y-44891079D01*
X134110883Y-44905329D01*
X134128607Y-44921393D01*
X134144671Y-44939117D01*
X134158921Y-44958330D01*
X134171218Y-44978847D01*
X134181446Y-45000471D01*
X134189504Y-45022993D01*
X134195316Y-45046197D01*
X134198826Y-45069858D01*
X134200000Y-45093750D01*
X134200000Y-45581250D01*
X134198826Y-45605142D01*
X134195316Y-45628803D01*
X134189504Y-45652007D01*
X134181446Y-45674529D01*
X134171218Y-45696153D01*
X134158921Y-45716670D01*
X134144671Y-45735883D01*
X134128607Y-45753607D01*
X134110883Y-45769671D01*
X134091670Y-45783921D01*
X134071153Y-45796218D01*
X134049529Y-45806446D01*
X134027007Y-45814504D01*
X134003803Y-45820316D01*
X133980142Y-45823826D01*
X133956250Y-45825000D01*
X133043750Y-45825000D01*
X133019858Y-45823826D01*
X132996197Y-45820316D01*
X132972993Y-45814504D01*
X132950471Y-45806446D01*
X132928847Y-45796218D01*
X132908330Y-45783921D01*
X132889117Y-45769671D01*
X132871393Y-45753607D01*
X132855329Y-45735883D01*
X132841079Y-45716670D01*
X132828782Y-45696153D01*
X132818554Y-45674529D01*
X132810496Y-45652007D01*
X132804684Y-45628803D01*
X132801174Y-45605142D01*
X132800000Y-45581250D01*
X132800000Y-45093750D01*
X132801174Y-45069858D01*
X132804684Y-45046197D01*
X132810496Y-45022993D01*
X132818554Y-45000471D01*
X132828782Y-44978847D01*
X132841079Y-44958330D01*
X132855329Y-44939117D01*
X132871393Y-44921393D01*
X132889117Y-44905329D01*
X132908330Y-44891079D01*
X132928847Y-44878782D01*
X132950471Y-44868554D01*
X132972993Y-44860496D01*
X132996197Y-44854684D01*
X133019858Y-44851174D01*
X133043750Y-44850000D01*
X133956250Y-44850000D01*
X133980142Y-44851174D01*
G37*
D18*
X138355000Y-74700000D03*
X137085000Y-74700000D03*
X135815000Y-74700000D03*
X134545000Y-74700000D03*
X133275000Y-74700000D03*
X132005000Y-74700000D03*
X130735000Y-74700000D03*
X129465000Y-74700000D03*
X128195000Y-74700000D03*
X126925000Y-74700000D03*
X125655000Y-74700000D03*
X124385000Y-74700000D03*
X123115000Y-74700000D03*
X121845000Y-74700000D03*
D19*
X120845000Y-71915000D03*
X120845000Y-70645000D03*
X120845000Y-69375000D03*
X120845000Y-68105000D03*
X120845000Y-66835000D03*
X120845000Y-65565000D03*
X120845000Y-64295000D03*
X120845000Y-63025000D03*
X120845000Y-61755000D03*
X120845000Y-60485000D03*
D18*
X121845000Y-57700000D03*
X123115000Y-57700000D03*
X124385000Y-57700000D03*
X125655000Y-57700000D03*
X126925000Y-57700000D03*
X128195000Y-57700000D03*
X129465000Y-57700000D03*
X130735000Y-57700000D03*
X132005000Y-57700000D03*
X133275000Y-57700000D03*
X134545000Y-57700000D03*
X135815000Y-57700000D03*
X137085000Y-57700000D03*
X138355000Y-57700000D03*
D20*
X130855000Y-65200000D03*
D14*
G36*
X88605142Y-59101174D02*
G01*
X88628803Y-59104684D01*
X88652007Y-59110496D01*
X88674529Y-59118554D01*
X88696153Y-59128782D01*
X88716670Y-59141079D01*
X88735883Y-59155329D01*
X88753607Y-59171393D01*
X88769671Y-59189117D01*
X88783921Y-59208330D01*
X88796218Y-59228847D01*
X88806446Y-59250471D01*
X88814504Y-59272993D01*
X88820316Y-59296197D01*
X88823826Y-59319858D01*
X88825000Y-59343750D01*
X88825000Y-60256250D01*
X88823826Y-60280142D01*
X88820316Y-60303803D01*
X88814504Y-60327007D01*
X88806446Y-60349529D01*
X88796218Y-60371153D01*
X88783921Y-60391670D01*
X88769671Y-60410883D01*
X88753607Y-60428607D01*
X88735883Y-60444671D01*
X88716670Y-60458921D01*
X88696153Y-60471218D01*
X88674529Y-60481446D01*
X88652007Y-60489504D01*
X88628803Y-60495316D01*
X88605142Y-60498826D01*
X88581250Y-60500000D01*
X88093750Y-60500000D01*
X88069858Y-60498826D01*
X88046197Y-60495316D01*
X88022993Y-60489504D01*
X88000471Y-60481446D01*
X87978847Y-60471218D01*
X87958330Y-60458921D01*
X87939117Y-60444671D01*
X87921393Y-60428607D01*
X87905329Y-60410883D01*
X87891079Y-60391670D01*
X87878782Y-60371153D01*
X87868554Y-60349529D01*
X87860496Y-60327007D01*
X87854684Y-60303803D01*
X87851174Y-60280142D01*
X87850000Y-60256250D01*
X87850000Y-59343750D01*
X87851174Y-59319858D01*
X87854684Y-59296197D01*
X87860496Y-59272993D01*
X87868554Y-59250471D01*
X87878782Y-59228847D01*
X87891079Y-59208330D01*
X87905329Y-59189117D01*
X87921393Y-59171393D01*
X87939117Y-59155329D01*
X87958330Y-59141079D01*
X87978847Y-59128782D01*
X88000471Y-59118554D01*
X88022993Y-59110496D01*
X88046197Y-59104684D01*
X88069858Y-59101174D01*
X88093750Y-59100000D01*
X88581250Y-59100000D01*
X88605142Y-59101174D01*
G37*
G36*
X86730142Y-59101174D02*
G01*
X86753803Y-59104684D01*
X86777007Y-59110496D01*
X86799529Y-59118554D01*
X86821153Y-59128782D01*
X86841670Y-59141079D01*
X86860883Y-59155329D01*
X86878607Y-59171393D01*
X86894671Y-59189117D01*
X86908921Y-59208330D01*
X86921218Y-59228847D01*
X86931446Y-59250471D01*
X86939504Y-59272993D01*
X86945316Y-59296197D01*
X86948826Y-59319858D01*
X86950000Y-59343750D01*
X86950000Y-60256250D01*
X86948826Y-60280142D01*
X86945316Y-60303803D01*
X86939504Y-60327007D01*
X86931446Y-60349529D01*
X86921218Y-60371153D01*
X86908921Y-60391670D01*
X86894671Y-60410883D01*
X86878607Y-60428607D01*
X86860883Y-60444671D01*
X86841670Y-60458921D01*
X86821153Y-60471218D01*
X86799529Y-60481446D01*
X86777007Y-60489504D01*
X86753803Y-60495316D01*
X86730142Y-60498826D01*
X86706250Y-60500000D01*
X86218750Y-60500000D01*
X86194858Y-60498826D01*
X86171197Y-60495316D01*
X86147993Y-60489504D01*
X86125471Y-60481446D01*
X86103847Y-60471218D01*
X86083330Y-60458921D01*
X86064117Y-60444671D01*
X86046393Y-60428607D01*
X86030329Y-60410883D01*
X86016079Y-60391670D01*
X86003782Y-60371153D01*
X85993554Y-60349529D01*
X85985496Y-60327007D01*
X85979684Y-60303803D01*
X85976174Y-60280142D01*
X85975000Y-60256250D01*
X85975000Y-59343750D01*
X85976174Y-59319858D01*
X85979684Y-59296197D01*
X85985496Y-59272993D01*
X85993554Y-59250471D01*
X86003782Y-59228847D01*
X86016079Y-59208330D01*
X86030329Y-59189117D01*
X86046393Y-59171393D01*
X86064117Y-59155329D01*
X86083330Y-59141079D01*
X86103847Y-59128782D01*
X86125471Y-59118554D01*
X86147993Y-59110496D01*
X86171197Y-59104684D01*
X86194858Y-59101174D01*
X86218750Y-59100000D01*
X86706250Y-59100000D01*
X86730142Y-59101174D01*
G37*
G36*
X114180142Y-65076174D02*
G01*
X114203803Y-65079684D01*
X114227007Y-65085496D01*
X114249529Y-65093554D01*
X114271153Y-65103782D01*
X114291670Y-65116079D01*
X114310883Y-65130329D01*
X114328607Y-65146393D01*
X114344671Y-65164117D01*
X114358921Y-65183330D01*
X114371218Y-65203847D01*
X114381446Y-65225471D01*
X114389504Y-65247993D01*
X114395316Y-65271197D01*
X114398826Y-65294858D01*
X114400000Y-65318750D01*
X114400000Y-65806250D01*
X114398826Y-65830142D01*
X114395316Y-65853803D01*
X114389504Y-65877007D01*
X114381446Y-65899529D01*
X114371218Y-65921153D01*
X114358921Y-65941670D01*
X114344671Y-65960883D01*
X114328607Y-65978607D01*
X114310883Y-65994671D01*
X114291670Y-66008921D01*
X114271153Y-66021218D01*
X114249529Y-66031446D01*
X114227007Y-66039504D01*
X114203803Y-66045316D01*
X114180142Y-66048826D01*
X114156250Y-66050000D01*
X113243750Y-66050000D01*
X113219858Y-66048826D01*
X113196197Y-66045316D01*
X113172993Y-66039504D01*
X113150471Y-66031446D01*
X113128847Y-66021218D01*
X113108330Y-66008921D01*
X113089117Y-65994671D01*
X113071393Y-65978607D01*
X113055329Y-65960883D01*
X113041079Y-65941670D01*
X113028782Y-65921153D01*
X113018554Y-65899529D01*
X113010496Y-65877007D01*
X113004684Y-65853803D01*
X113001174Y-65830142D01*
X113000000Y-65806250D01*
X113000000Y-65318750D01*
X113001174Y-65294858D01*
X113004684Y-65271197D01*
X113010496Y-65247993D01*
X113018554Y-65225471D01*
X113028782Y-65203847D01*
X113041079Y-65183330D01*
X113055329Y-65164117D01*
X113071393Y-65146393D01*
X113089117Y-65130329D01*
X113108330Y-65116079D01*
X113128847Y-65103782D01*
X113150471Y-65093554D01*
X113172993Y-65085496D01*
X113196197Y-65079684D01*
X113219858Y-65076174D01*
X113243750Y-65075000D01*
X114156250Y-65075000D01*
X114180142Y-65076174D01*
G37*
G36*
X114180142Y-66951174D02*
G01*
X114203803Y-66954684D01*
X114227007Y-66960496D01*
X114249529Y-66968554D01*
X114271153Y-66978782D01*
X114291670Y-66991079D01*
X114310883Y-67005329D01*
X114328607Y-67021393D01*
X114344671Y-67039117D01*
X114358921Y-67058330D01*
X114371218Y-67078847D01*
X114381446Y-67100471D01*
X114389504Y-67122993D01*
X114395316Y-67146197D01*
X114398826Y-67169858D01*
X114400000Y-67193750D01*
X114400000Y-67681250D01*
X114398826Y-67705142D01*
X114395316Y-67728803D01*
X114389504Y-67752007D01*
X114381446Y-67774529D01*
X114371218Y-67796153D01*
X114358921Y-67816670D01*
X114344671Y-67835883D01*
X114328607Y-67853607D01*
X114310883Y-67869671D01*
X114291670Y-67883921D01*
X114271153Y-67896218D01*
X114249529Y-67906446D01*
X114227007Y-67914504D01*
X114203803Y-67920316D01*
X114180142Y-67923826D01*
X114156250Y-67925000D01*
X113243750Y-67925000D01*
X113219858Y-67923826D01*
X113196197Y-67920316D01*
X113172993Y-67914504D01*
X113150471Y-67906446D01*
X113128847Y-67896218D01*
X113108330Y-67883921D01*
X113089117Y-67869671D01*
X113071393Y-67853607D01*
X113055329Y-67835883D01*
X113041079Y-67816670D01*
X113028782Y-67796153D01*
X113018554Y-67774529D01*
X113010496Y-67752007D01*
X113004684Y-67728803D01*
X113001174Y-67705142D01*
X113000000Y-67681250D01*
X113000000Y-67193750D01*
X113001174Y-67169858D01*
X113004684Y-67146197D01*
X113010496Y-67122993D01*
X113018554Y-67100471D01*
X113028782Y-67078847D01*
X113041079Y-67058330D01*
X113055329Y-67039117D01*
X113071393Y-67021393D01*
X113089117Y-67005329D01*
X113108330Y-66991079D01*
X113128847Y-66978782D01*
X113150471Y-66968554D01*
X113172993Y-66960496D01*
X113196197Y-66954684D01*
X113219858Y-66951174D01*
X113243750Y-66950000D01*
X114156250Y-66950000D01*
X114180142Y-66951174D01*
G37*
G36*
X98980142Y-63151174D02*
G01*
X99003803Y-63154684D01*
X99027007Y-63160496D01*
X99049529Y-63168554D01*
X99071153Y-63178782D01*
X99091670Y-63191079D01*
X99110883Y-63205329D01*
X99128607Y-63221393D01*
X99144671Y-63239117D01*
X99158921Y-63258330D01*
X99171218Y-63278847D01*
X99181446Y-63300471D01*
X99189504Y-63322993D01*
X99195316Y-63346197D01*
X99198826Y-63369858D01*
X99200000Y-63393750D01*
X99200000Y-63881250D01*
X99198826Y-63905142D01*
X99195316Y-63928803D01*
X99189504Y-63952007D01*
X99181446Y-63974529D01*
X99171218Y-63996153D01*
X99158921Y-64016670D01*
X99144671Y-64035883D01*
X99128607Y-64053607D01*
X99110883Y-64069671D01*
X99091670Y-64083921D01*
X99071153Y-64096218D01*
X99049529Y-64106446D01*
X99027007Y-64114504D01*
X99003803Y-64120316D01*
X98980142Y-64123826D01*
X98956250Y-64125000D01*
X98043750Y-64125000D01*
X98019858Y-64123826D01*
X97996197Y-64120316D01*
X97972993Y-64114504D01*
X97950471Y-64106446D01*
X97928847Y-64096218D01*
X97908330Y-64083921D01*
X97889117Y-64069671D01*
X97871393Y-64053607D01*
X97855329Y-64035883D01*
X97841079Y-64016670D01*
X97828782Y-63996153D01*
X97818554Y-63974529D01*
X97810496Y-63952007D01*
X97804684Y-63928803D01*
X97801174Y-63905142D01*
X97800000Y-63881250D01*
X97800000Y-63393750D01*
X97801174Y-63369858D01*
X97804684Y-63346197D01*
X97810496Y-63322993D01*
X97818554Y-63300471D01*
X97828782Y-63278847D01*
X97841079Y-63258330D01*
X97855329Y-63239117D01*
X97871393Y-63221393D01*
X97889117Y-63205329D01*
X97908330Y-63191079D01*
X97928847Y-63178782D01*
X97950471Y-63168554D01*
X97972993Y-63160496D01*
X97996197Y-63154684D01*
X98019858Y-63151174D01*
X98043750Y-63150000D01*
X98956250Y-63150000D01*
X98980142Y-63151174D01*
G37*
G36*
X98980142Y-61276174D02*
G01*
X99003803Y-61279684D01*
X99027007Y-61285496D01*
X99049529Y-61293554D01*
X99071153Y-61303782D01*
X99091670Y-61316079D01*
X99110883Y-61330329D01*
X99128607Y-61346393D01*
X99144671Y-61364117D01*
X99158921Y-61383330D01*
X99171218Y-61403847D01*
X99181446Y-61425471D01*
X99189504Y-61447993D01*
X99195316Y-61471197D01*
X99198826Y-61494858D01*
X99200000Y-61518750D01*
X99200000Y-62006250D01*
X99198826Y-62030142D01*
X99195316Y-62053803D01*
X99189504Y-62077007D01*
X99181446Y-62099529D01*
X99171218Y-62121153D01*
X99158921Y-62141670D01*
X99144671Y-62160883D01*
X99128607Y-62178607D01*
X99110883Y-62194671D01*
X99091670Y-62208921D01*
X99071153Y-62221218D01*
X99049529Y-62231446D01*
X99027007Y-62239504D01*
X99003803Y-62245316D01*
X98980142Y-62248826D01*
X98956250Y-62250000D01*
X98043750Y-62250000D01*
X98019858Y-62248826D01*
X97996197Y-62245316D01*
X97972993Y-62239504D01*
X97950471Y-62231446D01*
X97928847Y-62221218D01*
X97908330Y-62208921D01*
X97889117Y-62194671D01*
X97871393Y-62178607D01*
X97855329Y-62160883D01*
X97841079Y-62141670D01*
X97828782Y-62121153D01*
X97818554Y-62099529D01*
X97810496Y-62077007D01*
X97804684Y-62053803D01*
X97801174Y-62030142D01*
X97800000Y-62006250D01*
X97800000Y-61518750D01*
X97801174Y-61494858D01*
X97804684Y-61471197D01*
X97810496Y-61447993D01*
X97818554Y-61425471D01*
X97828782Y-61403847D01*
X97841079Y-61383330D01*
X97855329Y-61364117D01*
X97871393Y-61346393D01*
X97889117Y-61330329D01*
X97908330Y-61316079D01*
X97928847Y-61303782D01*
X97950471Y-61293554D01*
X97972993Y-61285496D01*
X97996197Y-61279684D01*
X98019858Y-61276174D01*
X98043750Y-61275000D01*
X98956250Y-61275000D01*
X98980142Y-61276174D01*
G37*
M02*
