G04 #@! TF.GenerationSoftware,KiCad,Pcbnew,5.1.5+dfsg1-2build2*
G04 #@! TF.CreationDate,2021-12-27T09:35:59+00:00*
G04 #@! TF.ProjectId,psion-org2-power,7073696f-6e2d-46f7-9267-322d706f7765,rev?*
G04 #@! TF.SameCoordinates,Original*
G04 #@! TF.FileFunction,Soldermask,Bot*
G04 #@! TF.FilePolarity,Negative*
%FSLAX46Y46*%
G04 Gerber Fmt 4.6, Leading zero omitted, Abs format (unit mm)*
G04 Created by KiCad (PCBNEW 5.1.5+dfsg1-2build2) date 2021-12-27 09:35:59*
%MOMM*%
%LPD*%
G04 APERTURE LIST*
%ADD10C,0.100000*%
%ADD11R,1.000000X2.510000*%
%ADD12O,1.700000X1.700000*%
%ADD13R,1.700000X1.700000*%
G04 APERTURE END LIST*
D10*
G36*
X126450000Y-70050602D02*
G01*
X126474534Y-70050602D01*
X126523365Y-70055412D01*
X126571490Y-70064984D01*
X126618445Y-70079228D01*
X126663778Y-70098005D01*
X126707051Y-70121136D01*
X126747850Y-70148396D01*
X126785779Y-70179524D01*
X126820476Y-70214221D01*
X126851604Y-70252150D01*
X126878864Y-70292949D01*
X126901995Y-70336222D01*
X126920772Y-70381555D01*
X126935016Y-70428510D01*
X126944588Y-70476635D01*
X126949398Y-70525466D01*
X126949398Y-70550000D01*
X126950000Y-70550000D01*
X126950000Y-71050000D01*
X126949398Y-71050000D01*
X126949398Y-71074534D01*
X126944588Y-71123365D01*
X126935016Y-71171490D01*
X126920772Y-71218445D01*
X126901995Y-71263778D01*
X126878864Y-71307051D01*
X126851604Y-71347850D01*
X126820476Y-71385779D01*
X126785779Y-71420476D01*
X126747850Y-71451604D01*
X126707051Y-71478864D01*
X126663778Y-71501995D01*
X126618445Y-71520772D01*
X126571490Y-71535016D01*
X126523365Y-71544588D01*
X126474534Y-71549398D01*
X126450000Y-71549398D01*
X126450000Y-71550000D01*
X125950000Y-71550000D01*
X125950000Y-70050000D01*
X126450000Y-70050000D01*
X126450000Y-70050602D01*
G37*
G36*
X125650000Y-71550000D02*
G01*
X125150000Y-71550000D01*
X125150000Y-71549398D01*
X125125466Y-71549398D01*
X125076635Y-71544588D01*
X125028510Y-71535016D01*
X124981555Y-71520772D01*
X124936222Y-71501995D01*
X124892949Y-71478864D01*
X124852150Y-71451604D01*
X124814221Y-71420476D01*
X124779524Y-71385779D01*
X124748396Y-71347850D01*
X124721136Y-71307051D01*
X124698005Y-71263778D01*
X124679228Y-71218445D01*
X124664984Y-71171490D01*
X124655412Y-71123365D01*
X124650602Y-71074534D01*
X124650602Y-71050000D01*
X124650000Y-71050000D01*
X124650000Y-70550000D01*
X124650602Y-70550000D01*
X124650602Y-70525466D01*
X124655412Y-70476635D01*
X124664984Y-70428510D01*
X124679228Y-70381555D01*
X124698005Y-70336222D01*
X124721136Y-70292949D01*
X124748396Y-70252150D01*
X124779524Y-70214221D01*
X124814221Y-70179524D01*
X124852150Y-70148396D01*
X124892949Y-70121136D01*
X124936222Y-70098005D01*
X124981555Y-70079228D01*
X125028510Y-70064984D01*
X125076635Y-70055412D01*
X125125466Y-70050602D01*
X125150000Y-70050602D01*
X125150000Y-70050000D01*
X125650000Y-70050000D01*
X125650000Y-71550000D01*
G37*
D11*
X133700000Y-68545000D03*
X131160000Y-71855000D03*
X136240000Y-71855000D03*
D12*
X116680000Y-37860000D03*
X116680000Y-40400000D03*
X114140000Y-37860000D03*
X114140000Y-40400000D03*
X111600000Y-37860000D03*
X111600000Y-40400000D03*
X109060000Y-37860000D03*
X109060000Y-40400000D03*
X106520000Y-37860000D03*
X106520000Y-40400000D03*
X103980000Y-37860000D03*
X103980000Y-40400000D03*
X101440000Y-37860000D03*
X101440000Y-40400000D03*
X98900000Y-37860000D03*
D13*
X98900000Y-40400000D03*
D12*
X96140000Y-108720000D03*
X93600000Y-108720000D03*
X96140000Y-111260000D03*
X93600000Y-111260000D03*
X96140000Y-113800000D03*
X93600000Y-113800000D03*
X96140000Y-116340000D03*
X93600000Y-116340000D03*
X96140000Y-118880000D03*
X93600000Y-118880000D03*
X96140000Y-121420000D03*
X93600000Y-121420000D03*
X96140000Y-123960000D03*
X93600000Y-123960000D03*
X96140000Y-126500000D03*
D13*
X93600000Y-126500000D03*
D12*
X96190000Y-82120000D03*
X93650000Y-82120000D03*
X96190000Y-84660000D03*
X93650000Y-84660000D03*
X96190000Y-87200000D03*
X93650000Y-87200000D03*
X96190000Y-89740000D03*
X93650000Y-89740000D03*
X96190000Y-92280000D03*
X93650000Y-92280000D03*
X96190000Y-94820000D03*
X93650000Y-94820000D03*
X96190000Y-97360000D03*
X93650000Y-97360000D03*
X96190000Y-99900000D03*
D13*
X93650000Y-99900000D03*
D12*
X80800000Y-56700000D03*
X80800000Y-54160000D03*
X80800000Y-51620000D03*
X80800000Y-49080000D03*
X80800000Y-46540000D03*
X80800000Y-44000000D03*
X80800000Y-41460000D03*
X80800000Y-38920000D03*
X80800000Y-36380000D03*
X80800000Y-33840000D03*
D13*
X80800000Y-31300000D03*
D12*
X82200000Y-128100000D03*
X82200000Y-125560000D03*
X82200000Y-123020000D03*
X82200000Y-120480000D03*
X82200000Y-117940000D03*
X82200000Y-115400000D03*
X82200000Y-112860000D03*
X82200000Y-110320000D03*
X82200000Y-107780000D03*
X82200000Y-105240000D03*
X82200000Y-102700000D03*
X82200000Y-100160000D03*
X82200000Y-97620000D03*
X82200000Y-95080000D03*
X82200000Y-92540000D03*
X82200000Y-90000000D03*
X82200000Y-87460000D03*
X82200000Y-84920000D03*
X82200000Y-82380000D03*
X82200000Y-79840000D03*
X82200000Y-77300000D03*
X82200000Y-74760000D03*
X82200000Y-72220000D03*
X82200000Y-69680000D03*
X82200000Y-67140000D03*
X82200000Y-64600000D03*
D13*
X82200000Y-62060000D03*
M02*
