G04 #@! TF.GenerationSoftware,KiCad,Pcbnew,5.1.5+dfsg1-2build2*
G04 #@! TF.CreationDate,2021-12-27T09:35:59+00:00*
G04 #@! TF.ProjectId,psion-org2-power,7073696f-6e2d-46f7-9267-322d706f7765,rev?*
G04 #@! TF.SameCoordinates,Original*
G04 #@! TF.FileFunction,Legend,Top*
G04 #@! TF.FilePolarity,Positive*
%FSLAX46Y46*%
G04 Gerber Fmt 4.6, Leading zero omitted, Abs format (unit mm)*
G04 Created by KiCad (PCBNEW 5.1.5+dfsg1-2build2) date 2021-12-27 09:35:59*
%MOMM*%
%LPD*%
G04 APERTURE LIST*
%ADD10C,0.150000*%
%ADD11C,0.120000*%
G04 APERTURE END LIST*
D10*
X85877380Y-116409523D02*
X84877380Y-116409523D01*
X84877380Y-116028571D01*
X84925000Y-115933333D01*
X84972619Y-115885714D01*
X85067857Y-115838095D01*
X85210714Y-115838095D01*
X85305952Y-115885714D01*
X85353571Y-115933333D01*
X85401190Y-116028571D01*
X85401190Y-116409523D01*
X85829761Y-115457142D02*
X85877380Y-115361904D01*
X85877380Y-115171428D01*
X85829761Y-115076190D01*
X85734523Y-115028571D01*
X85686904Y-115028571D01*
X85591666Y-115076190D01*
X85544047Y-115171428D01*
X85544047Y-115314285D01*
X85496428Y-115409523D01*
X85401190Y-115457142D01*
X85353571Y-115457142D01*
X85258333Y-115409523D01*
X85210714Y-115314285D01*
X85210714Y-115171428D01*
X85258333Y-115076190D01*
X85877380Y-114600000D02*
X85210714Y-114600000D01*
X84877380Y-114600000D02*
X84925000Y-114647619D01*
X84972619Y-114600000D01*
X84925000Y-114552380D01*
X84877380Y-114600000D01*
X84972619Y-114600000D01*
X85877380Y-113980952D02*
X85829761Y-114076190D01*
X85782142Y-114123809D01*
X85686904Y-114171428D01*
X85401190Y-114171428D01*
X85305952Y-114123809D01*
X85258333Y-114076190D01*
X85210714Y-113980952D01*
X85210714Y-113838095D01*
X85258333Y-113742857D01*
X85305952Y-113695238D01*
X85401190Y-113647619D01*
X85686904Y-113647619D01*
X85782142Y-113695238D01*
X85829761Y-113742857D01*
X85877380Y-113838095D01*
X85877380Y-113980952D01*
X85210714Y-113219047D02*
X85877380Y-113219047D01*
X85305952Y-113219047D02*
X85258333Y-113171428D01*
X85210714Y-113076190D01*
X85210714Y-112933333D01*
X85258333Y-112838095D01*
X85353571Y-112790476D01*
X85877380Y-112790476D01*
X84877380Y-111361904D02*
X84877380Y-111171428D01*
X84925000Y-111076190D01*
X85020238Y-110980952D01*
X85210714Y-110933333D01*
X85544047Y-110933333D01*
X85734523Y-110980952D01*
X85829761Y-111076190D01*
X85877380Y-111171428D01*
X85877380Y-111361904D01*
X85829761Y-111457142D01*
X85734523Y-111552380D01*
X85544047Y-111600000D01*
X85210714Y-111600000D01*
X85020238Y-111552380D01*
X84925000Y-111457142D01*
X84877380Y-111361904D01*
X85877380Y-110504761D02*
X85210714Y-110504761D01*
X85401190Y-110504761D02*
X85305952Y-110457142D01*
X85258333Y-110409523D01*
X85210714Y-110314285D01*
X85210714Y-110219047D01*
X85210714Y-109457142D02*
X86020238Y-109457142D01*
X86115476Y-109504761D01*
X86163095Y-109552380D01*
X86210714Y-109647619D01*
X86210714Y-109790476D01*
X86163095Y-109885714D01*
X85829761Y-109457142D02*
X85877380Y-109552380D01*
X85877380Y-109742857D01*
X85829761Y-109838095D01*
X85782142Y-109885714D01*
X85686904Y-109933333D01*
X85401190Y-109933333D01*
X85305952Y-109885714D01*
X85258333Y-109838095D01*
X85210714Y-109742857D01*
X85210714Y-109552380D01*
X85258333Y-109457142D01*
X85877380Y-108552380D02*
X85353571Y-108552380D01*
X85258333Y-108600000D01*
X85210714Y-108695238D01*
X85210714Y-108885714D01*
X85258333Y-108980952D01*
X85829761Y-108552380D02*
X85877380Y-108647619D01*
X85877380Y-108885714D01*
X85829761Y-108980952D01*
X85734523Y-109028571D01*
X85639285Y-109028571D01*
X85544047Y-108980952D01*
X85496428Y-108885714D01*
X85496428Y-108647619D01*
X85448809Y-108552380D01*
X85210714Y-108076190D02*
X85877380Y-108076190D01*
X85305952Y-108076190D02*
X85258333Y-108028571D01*
X85210714Y-107933333D01*
X85210714Y-107790476D01*
X85258333Y-107695238D01*
X85353571Y-107647619D01*
X85877380Y-107647619D01*
X85877380Y-107171428D02*
X85210714Y-107171428D01*
X84877380Y-107171428D02*
X84925000Y-107219047D01*
X84972619Y-107171428D01*
X84925000Y-107123809D01*
X84877380Y-107171428D01*
X84972619Y-107171428D01*
X85829761Y-106742857D02*
X85877380Y-106647619D01*
X85877380Y-106457142D01*
X85829761Y-106361904D01*
X85734523Y-106314285D01*
X85686904Y-106314285D01*
X85591666Y-106361904D01*
X85544047Y-106457142D01*
X85544047Y-106600000D01*
X85496428Y-106695238D01*
X85401190Y-106742857D01*
X85353571Y-106742857D01*
X85258333Y-106695238D01*
X85210714Y-106600000D01*
X85210714Y-106457142D01*
X85258333Y-106361904D01*
X85829761Y-105504761D02*
X85877380Y-105600000D01*
X85877380Y-105790476D01*
X85829761Y-105885714D01*
X85734523Y-105933333D01*
X85353571Y-105933333D01*
X85258333Y-105885714D01*
X85210714Y-105790476D01*
X85210714Y-105600000D01*
X85258333Y-105504761D01*
X85353571Y-105457142D01*
X85448809Y-105457142D01*
X85544047Y-105933333D01*
X85877380Y-105028571D02*
X85210714Y-105028571D01*
X85401190Y-105028571D02*
X85305952Y-104980952D01*
X85258333Y-104933333D01*
X85210714Y-104838095D01*
X85210714Y-104742857D01*
X84972619Y-103695238D02*
X84925000Y-103647619D01*
X84877380Y-103552380D01*
X84877380Y-103314285D01*
X84925000Y-103219047D01*
X84972619Y-103171428D01*
X85067857Y-103123809D01*
X85163095Y-103123809D01*
X85305952Y-103171428D01*
X85877380Y-103742857D01*
X85877380Y-103123809D01*
X85877380Y-101361904D02*
X85401190Y-101695238D01*
X85877380Y-101933333D02*
X84877380Y-101933333D01*
X84877380Y-101552380D01*
X84925000Y-101457142D01*
X84972619Y-101409523D01*
X85067857Y-101361904D01*
X85210714Y-101361904D01*
X85305952Y-101409523D01*
X85353571Y-101457142D01*
X85401190Y-101552380D01*
X85401190Y-101933333D01*
X85829761Y-100552380D02*
X85877380Y-100647619D01*
X85877380Y-100838095D01*
X85829761Y-100933333D01*
X85734523Y-100980952D01*
X85353571Y-100980952D01*
X85258333Y-100933333D01*
X85210714Y-100838095D01*
X85210714Y-100647619D01*
X85258333Y-100552380D01*
X85353571Y-100504761D01*
X85448809Y-100504761D01*
X85544047Y-100980952D01*
X85496428Y-100076190D02*
X85496428Y-99314285D01*
X85782142Y-98266666D02*
X85829761Y-98314285D01*
X85877380Y-98457142D01*
X85877380Y-98552380D01*
X85829761Y-98695238D01*
X85734523Y-98790476D01*
X85639285Y-98838095D01*
X85448809Y-98885714D01*
X85305952Y-98885714D01*
X85115476Y-98838095D01*
X85020238Y-98790476D01*
X84925000Y-98695238D01*
X84877380Y-98552380D01*
X84877380Y-98457142D01*
X84925000Y-98314285D01*
X84972619Y-98266666D01*
X85877380Y-97838095D02*
X85210714Y-97838095D01*
X85401190Y-97838095D02*
X85305952Y-97790476D01*
X85258333Y-97742857D01*
X85210714Y-97647619D01*
X85210714Y-97552380D01*
X85829761Y-96838095D02*
X85877380Y-96933333D01*
X85877380Y-97123809D01*
X85829761Y-97219047D01*
X85734523Y-97266666D01*
X85353571Y-97266666D01*
X85258333Y-97219047D01*
X85210714Y-97123809D01*
X85210714Y-96933333D01*
X85258333Y-96838095D01*
X85353571Y-96790476D01*
X85448809Y-96790476D01*
X85544047Y-97266666D01*
X85877380Y-95933333D02*
X85353571Y-95933333D01*
X85258333Y-95980952D01*
X85210714Y-96076190D01*
X85210714Y-96266666D01*
X85258333Y-96361904D01*
X85829761Y-95933333D02*
X85877380Y-96028571D01*
X85877380Y-96266666D01*
X85829761Y-96361904D01*
X85734523Y-96409523D01*
X85639285Y-96409523D01*
X85544047Y-96361904D01*
X85496428Y-96266666D01*
X85496428Y-96028571D01*
X85448809Y-95933333D01*
X85210714Y-95600000D02*
X85210714Y-95219047D01*
X84877380Y-95457142D02*
X85734523Y-95457142D01*
X85829761Y-95409523D01*
X85877380Y-95314285D01*
X85877380Y-95219047D01*
X85877380Y-94885714D02*
X85210714Y-94885714D01*
X84877380Y-94885714D02*
X84925000Y-94933333D01*
X84972619Y-94885714D01*
X84925000Y-94838095D01*
X84877380Y-94885714D01*
X84972619Y-94885714D01*
X85877380Y-94266666D02*
X85829761Y-94361904D01*
X85782142Y-94409523D01*
X85686904Y-94457142D01*
X85401190Y-94457142D01*
X85305952Y-94409523D01*
X85258333Y-94361904D01*
X85210714Y-94266666D01*
X85210714Y-94123809D01*
X85258333Y-94028571D01*
X85305952Y-93980952D01*
X85401190Y-93933333D01*
X85686904Y-93933333D01*
X85782142Y-93980952D01*
X85829761Y-94028571D01*
X85877380Y-94123809D01*
X85877380Y-94266666D01*
X85210714Y-93504761D02*
X85877380Y-93504761D01*
X85305952Y-93504761D02*
X85258333Y-93457142D01*
X85210714Y-93361904D01*
X85210714Y-93219047D01*
X85258333Y-93123809D01*
X85353571Y-93076190D01*
X85877380Y-93076190D01*
X85877380Y-91838095D02*
X84877380Y-91838095D01*
X84877380Y-91457142D01*
X84925000Y-91361904D01*
X84972619Y-91314285D01*
X85067857Y-91266666D01*
X85210714Y-91266666D01*
X85305952Y-91314285D01*
X85353571Y-91361904D01*
X85401190Y-91457142D01*
X85401190Y-91838095D01*
X85877380Y-90695238D02*
X85829761Y-90790476D01*
X85782142Y-90838095D01*
X85686904Y-90885714D01*
X85401190Y-90885714D01*
X85305952Y-90838095D01*
X85258333Y-90790476D01*
X85210714Y-90695238D01*
X85210714Y-90552380D01*
X85258333Y-90457142D01*
X85305952Y-90409523D01*
X85401190Y-90361904D01*
X85686904Y-90361904D01*
X85782142Y-90409523D01*
X85829761Y-90457142D01*
X85877380Y-90552380D01*
X85877380Y-90695238D01*
X85210714Y-90028571D02*
X85877380Y-89838095D01*
X85401190Y-89647619D01*
X85877380Y-89457142D01*
X85210714Y-89266666D01*
X85829761Y-88504761D02*
X85877380Y-88600000D01*
X85877380Y-88790476D01*
X85829761Y-88885714D01*
X85734523Y-88933333D01*
X85353571Y-88933333D01*
X85258333Y-88885714D01*
X85210714Y-88790476D01*
X85210714Y-88600000D01*
X85258333Y-88504761D01*
X85353571Y-88457142D01*
X85448809Y-88457142D01*
X85544047Y-88933333D01*
X85877380Y-88028571D02*
X85210714Y-88028571D01*
X85401190Y-88028571D02*
X85305952Y-87980952D01*
X85258333Y-87933333D01*
X85210714Y-87838095D01*
X85210714Y-87742857D01*
X85353571Y-86314285D02*
X85401190Y-86171428D01*
X85448809Y-86123809D01*
X85544047Y-86076190D01*
X85686904Y-86076190D01*
X85782142Y-86123809D01*
X85829761Y-86171428D01*
X85877380Y-86266666D01*
X85877380Y-86647619D01*
X84877380Y-86647619D01*
X84877380Y-86314285D01*
X84925000Y-86219047D01*
X84972619Y-86171428D01*
X85067857Y-86123809D01*
X85163095Y-86123809D01*
X85258333Y-86171428D01*
X85305952Y-86219047D01*
X85353571Y-86314285D01*
X85353571Y-86647619D01*
X85877380Y-85504761D02*
X85829761Y-85600000D01*
X85782142Y-85647619D01*
X85686904Y-85695238D01*
X85401190Y-85695238D01*
X85305952Y-85647619D01*
X85258333Y-85600000D01*
X85210714Y-85504761D01*
X85210714Y-85361904D01*
X85258333Y-85266666D01*
X85305952Y-85219047D01*
X85401190Y-85171428D01*
X85686904Y-85171428D01*
X85782142Y-85219047D01*
X85829761Y-85266666D01*
X85877380Y-85361904D01*
X85877380Y-85504761D01*
X85877380Y-84314285D02*
X85353571Y-84314285D01*
X85258333Y-84361904D01*
X85210714Y-84457142D01*
X85210714Y-84647619D01*
X85258333Y-84742857D01*
X85829761Y-84314285D02*
X85877380Y-84409523D01*
X85877380Y-84647619D01*
X85829761Y-84742857D01*
X85734523Y-84790476D01*
X85639285Y-84790476D01*
X85544047Y-84742857D01*
X85496428Y-84647619D01*
X85496428Y-84409523D01*
X85448809Y-84314285D01*
X85877380Y-83838095D02*
X85210714Y-83838095D01*
X85401190Y-83838095D02*
X85305952Y-83790476D01*
X85258333Y-83742857D01*
X85210714Y-83647619D01*
X85210714Y-83552380D01*
X85877380Y-82790476D02*
X84877380Y-82790476D01*
X85829761Y-82790476D02*
X85877380Y-82885714D01*
X85877380Y-83076190D01*
X85829761Y-83171428D01*
X85782142Y-83219047D01*
X85686904Y-83266666D01*
X85401190Y-83266666D01*
X85305952Y-83219047D01*
X85258333Y-83171428D01*
X85210714Y-83076190D01*
X85210714Y-82885714D01*
X85258333Y-82790476D01*
X87527380Y-103385714D02*
X86527380Y-103385714D01*
X86527380Y-103147619D01*
X86575000Y-103004761D01*
X86670238Y-102909523D01*
X86765476Y-102861904D01*
X86955952Y-102814285D01*
X87098809Y-102814285D01*
X87289285Y-102861904D01*
X87384523Y-102909523D01*
X87479761Y-103004761D01*
X87527380Y-103147619D01*
X87527380Y-103385714D01*
X87479761Y-102004761D02*
X87527380Y-102100000D01*
X87527380Y-102290476D01*
X87479761Y-102385714D01*
X87384523Y-102433333D01*
X87003571Y-102433333D01*
X86908333Y-102385714D01*
X86860714Y-102290476D01*
X86860714Y-102100000D01*
X86908333Y-102004761D01*
X87003571Y-101957142D01*
X87098809Y-101957142D01*
X87194047Y-102433333D01*
X87479761Y-101100000D02*
X87527380Y-101195238D01*
X87527380Y-101385714D01*
X87479761Y-101480952D01*
X87432142Y-101528571D01*
X87336904Y-101576190D01*
X87051190Y-101576190D01*
X86955952Y-101528571D01*
X86908333Y-101480952D01*
X86860714Y-101385714D01*
X86860714Y-101195238D01*
X86908333Y-101100000D01*
X86622619Y-99957142D02*
X86575000Y-99909523D01*
X86527380Y-99814285D01*
X86527380Y-99576190D01*
X86575000Y-99480952D01*
X86622619Y-99433333D01*
X86717857Y-99385714D01*
X86813095Y-99385714D01*
X86955952Y-99433333D01*
X87527380Y-100004761D01*
X87527380Y-99385714D01*
X86527380Y-98766666D02*
X86527380Y-98671428D01*
X86575000Y-98576190D01*
X86622619Y-98528571D01*
X86717857Y-98480952D01*
X86908333Y-98433333D01*
X87146428Y-98433333D01*
X87336904Y-98480952D01*
X87432142Y-98528571D01*
X87479761Y-98576190D01*
X87527380Y-98671428D01*
X87527380Y-98766666D01*
X87479761Y-98861904D01*
X87432142Y-98909523D01*
X87336904Y-98957142D01*
X87146428Y-99004761D01*
X86908333Y-99004761D01*
X86717857Y-98957142D01*
X86622619Y-98909523D01*
X86575000Y-98861904D01*
X86527380Y-98766666D01*
X86622619Y-98052380D02*
X86575000Y-98004761D01*
X86527380Y-97909523D01*
X86527380Y-97671428D01*
X86575000Y-97576190D01*
X86622619Y-97528571D01*
X86717857Y-97480952D01*
X86813095Y-97480952D01*
X86955952Y-97528571D01*
X87527380Y-98100000D01*
X87527380Y-97480952D01*
X87527380Y-96528571D02*
X87527380Y-97100000D01*
X87527380Y-96814285D02*
X86527380Y-96814285D01*
X86670238Y-96909523D01*
X86765476Y-97004761D01*
X86813095Y-97100000D01*
X88177380Y-101504761D02*
X89177380Y-101171428D01*
X88177380Y-100838095D01*
X89177380Y-99980952D02*
X89177380Y-100552380D01*
X89177380Y-100266666D02*
X88177380Y-100266666D01*
X88320238Y-100361904D01*
X88415476Y-100457142D01*
X88463095Y-100552380D01*
X89082142Y-99552380D02*
X89129761Y-99504761D01*
X89177380Y-99552380D01*
X89129761Y-99600000D01*
X89082142Y-99552380D01*
X89177380Y-99552380D01*
X89177380Y-98552380D02*
X89177380Y-99123809D01*
X89177380Y-98838095D02*
X88177380Y-98838095D01*
X88320238Y-98933333D01*
X88415476Y-99028571D01*
X88463095Y-99123809D01*
X90827380Y-107195238D02*
X90160714Y-107195238D01*
X90255952Y-107195238D02*
X90208333Y-107147619D01*
X90160714Y-107052380D01*
X90160714Y-106909523D01*
X90208333Y-106814285D01*
X90303571Y-106766666D01*
X90827380Y-106766666D01*
X90303571Y-106766666D02*
X90208333Y-106719047D01*
X90160714Y-106623809D01*
X90160714Y-106480952D01*
X90208333Y-106385714D01*
X90303571Y-106338095D01*
X90827380Y-106338095D01*
X90779761Y-105480952D02*
X90827380Y-105576190D01*
X90827380Y-105766666D01*
X90779761Y-105861904D01*
X90684523Y-105909523D01*
X90303571Y-105909523D01*
X90208333Y-105861904D01*
X90160714Y-105766666D01*
X90160714Y-105576190D01*
X90208333Y-105480952D01*
X90303571Y-105433333D01*
X90398809Y-105433333D01*
X90494047Y-105909523D01*
X90160714Y-105004761D02*
X90827380Y-105004761D01*
X90255952Y-105004761D02*
X90208333Y-104957142D01*
X90160714Y-104861904D01*
X90160714Y-104719047D01*
X90208333Y-104623809D01*
X90303571Y-104576190D01*
X90827380Y-104576190D01*
X90827380Y-103671428D02*
X90303571Y-103671428D01*
X90208333Y-103719047D01*
X90160714Y-103814285D01*
X90160714Y-104004761D01*
X90208333Y-104100000D01*
X90779761Y-103671428D02*
X90827380Y-103766666D01*
X90827380Y-104004761D01*
X90779761Y-104100000D01*
X90684523Y-104147619D01*
X90589285Y-104147619D01*
X90494047Y-104100000D01*
X90446428Y-104004761D01*
X90446428Y-103766666D01*
X90398809Y-103671428D01*
X90827380Y-102766666D02*
X89827380Y-102766666D01*
X90779761Y-102766666D02*
X90827380Y-102861904D01*
X90827380Y-103052380D01*
X90779761Y-103147619D01*
X90732142Y-103195238D01*
X90636904Y-103242857D01*
X90351190Y-103242857D01*
X90255952Y-103195238D01*
X90208333Y-103147619D01*
X90160714Y-103052380D01*
X90160714Y-102861904D01*
X90208333Y-102766666D01*
X90160714Y-101861904D02*
X90827380Y-101861904D01*
X90160714Y-102290476D02*
X90684523Y-102290476D01*
X90779761Y-102242857D01*
X90827380Y-102147619D01*
X90827380Y-102004761D01*
X90779761Y-101909523D01*
X90732142Y-101861904D01*
X90779761Y-101004761D02*
X90827380Y-101100000D01*
X90827380Y-101290476D01*
X90779761Y-101385714D01*
X90684523Y-101433333D01*
X90303571Y-101433333D01*
X90208333Y-101385714D01*
X90160714Y-101290476D01*
X90160714Y-101100000D01*
X90208333Y-101004761D01*
X90303571Y-100957142D01*
X90398809Y-100957142D01*
X90494047Y-101433333D01*
X90351190Y-99909523D02*
X90303571Y-99957142D01*
X90255952Y-100052380D01*
X90255952Y-100147619D01*
X90303571Y-100242857D01*
X90351190Y-100290476D01*
X90446428Y-100338095D01*
X90541666Y-100338095D01*
X90636904Y-100290476D01*
X90684523Y-100242857D01*
X90732142Y-100147619D01*
X90732142Y-100052380D01*
X90684523Y-99957142D01*
X90636904Y-99909523D01*
X90255952Y-99909523D02*
X90636904Y-99909523D01*
X90684523Y-99861904D01*
X90684523Y-99814285D01*
X90636904Y-99719047D01*
X90541666Y-99671428D01*
X90303571Y-99671428D01*
X90160714Y-99766666D01*
X90065476Y-99909523D01*
X90017857Y-100100000D01*
X90065476Y-100290476D01*
X90160714Y-100433333D01*
X90303571Y-100528571D01*
X90494047Y-100576190D01*
X90684523Y-100528571D01*
X90827380Y-100433333D01*
X90922619Y-100290476D01*
X90970238Y-100100000D01*
X90922619Y-99909523D01*
X90827380Y-99766666D01*
X90160714Y-98814285D02*
X90970238Y-98814285D01*
X91065476Y-98861904D01*
X91113095Y-98909523D01*
X91160714Y-99004761D01*
X91160714Y-99147619D01*
X91113095Y-99242857D01*
X90779761Y-98814285D02*
X90827380Y-98909523D01*
X90827380Y-99100000D01*
X90779761Y-99195238D01*
X90732142Y-99242857D01*
X90636904Y-99290476D01*
X90351190Y-99290476D01*
X90255952Y-99242857D01*
X90208333Y-99195238D01*
X90160714Y-99100000D01*
X90160714Y-98909523D01*
X90208333Y-98814285D01*
X90827380Y-98338095D02*
X90160714Y-98338095D01*
X90255952Y-98338095D02*
X90208333Y-98290476D01*
X90160714Y-98195238D01*
X90160714Y-98052380D01*
X90208333Y-97957142D01*
X90303571Y-97909523D01*
X90827380Y-97909523D01*
X90303571Y-97909523D02*
X90208333Y-97861904D01*
X90160714Y-97766666D01*
X90160714Y-97623809D01*
X90208333Y-97528571D01*
X90303571Y-97480952D01*
X90827380Y-97480952D01*
X90827380Y-96576190D02*
X90303571Y-96576190D01*
X90208333Y-96623809D01*
X90160714Y-96719047D01*
X90160714Y-96909523D01*
X90208333Y-97004761D01*
X90779761Y-96576190D02*
X90827380Y-96671428D01*
X90827380Y-96909523D01*
X90779761Y-97004761D01*
X90684523Y-97052380D01*
X90589285Y-97052380D01*
X90494047Y-97004761D01*
X90446428Y-96909523D01*
X90446428Y-96671428D01*
X90398809Y-96576190D01*
X90827380Y-96100000D02*
X90160714Y-96100000D01*
X89827380Y-96100000D02*
X89875000Y-96147619D01*
X89922619Y-96100000D01*
X89875000Y-96052380D01*
X89827380Y-96100000D01*
X89922619Y-96100000D01*
X90827380Y-95480952D02*
X90779761Y-95576190D01*
X90684523Y-95623809D01*
X89827380Y-95623809D01*
X90732142Y-95100000D02*
X90779761Y-95052380D01*
X90827380Y-95100000D01*
X90779761Y-95147619D01*
X90732142Y-95100000D01*
X90827380Y-95100000D01*
X90779761Y-94195238D02*
X90827380Y-94290476D01*
X90827380Y-94480952D01*
X90779761Y-94576190D01*
X90732142Y-94623809D01*
X90636904Y-94671428D01*
X90351190Y-94671428D01*
X90255952Y-94623809D01*
X90208333Y-94576190D01*
X90160714Y-94480952D01*
X90160714Y-94290476D01*
X90208333Y-94195238D01*
X90827380Y-93623809D02*
X90779761Y-93719047D01*
X90732142Y-93766666D01*
X90636904Y-93814285D01*
X90351190Y-93814285D01*
X90255952Y-93766666D01*
X90208333Y-93719047D01*
X90160714Y-93623809D01*
X90160714Y-93480952D01*
X90208333Y-93385714D01*
X90255952Y-93338095D01*
X90351190Y-93290476D01*
X90636904Y-93290476D01*
X90732142Y-93338095D01*
X90779761Y-93385714D01*
X90827380Y-93480952D01*
X90827380Y-93623809D01*
X90827380Y-92861904D02*
X90160714Y-92861904D01*
X90255952Y-92861904D02*
X90208333Y-92814285D01*
X90160714Y-92719047D01*
X90160714Y-92576190D01*
X90208333Y-92480952D01*
X90303571Y-92433333D01*
X90827380Y-92433333D01*
X90303571Y-92433333D02*
X90208333Y-92385714D01*
X90160714Y-92290476D01*
X90160714Y-92147619D01*
X90208333Y-92052380D01*
X90303571Y-92004761D01*
X90827380Y-92004761D01*
X86838095Y-42500000D02*
X86742857Y-42452380D01*
X86600000Y-42452380D01*
X86457142Y-42500000D01*
X86361904Y-42595238D01*
X86314285Y-42690476D01*
X86266666Y-42880952D01*
X86266666Y-43023809D01*
X86314285Y-43214285D01*
X86361904Y-43309523D01*
X86457142Y-43404761D01*
X86600000Y-43452380D01*
X86695238Y-43452380D01*
X86838095Y-43404761D01*
X86885714Y-43357142D01*
X86885714Y-43023809D01*
X86695238Y-43023809D01*
X87314285Y-43452380D02*
X87314285Y-42452380D01*
X87885714Y-43452380D01*
X87885714Y-42452380D01*
X88361904Y-43452380D02*
X88361904Y-42452380D01*
X88600000Y-42452380D01*
X88742857Y-42500000D01*
X88838095Y-42595238D01*
X88885714Y-42690476D01*
X88933333Y-42880952D01*
X88933333Y-43023809D01*
X88885714Y-43214285D01*
X88838095Y-43309523D01*
X88742857Y-43404761D01*
X88600000Y-43452380D01*
X88361904Y-43452380D01*
X83257142Y-39252380D02*
X83590476Y-40252380D01*
X83923809Y-39252380D01*
X84590476Y-39728571D02*
X84733333Y-39776190D01*
X84780952Y-39823809D01*
X84828571Y-39919047D01*
X84828571Y-40061904D01*
X84780952Y-40157142D01*
X84733333Y-40204761D01*
X84638095Y-40252380D01*
X84257142Y-40252380D01*
X84257142Y-39252380D01*
X84590476Y-39252380D01*
X84685714Y-39300000D01*
X84733333Y-39347619D01*
X84780952Y-39442857D01*
X84780952Y-39538095D01*
X84733333Y-39633333D01*
X84685714Y-39680952D01*
X84590476Y-39728571D01*
X84257142Y-39728571D01*
X85209523Y-39966666D02*
X85685714Y-39966666D01*
X85114285Y-40252380D02*
X85447619Y-39252380D01*
X85780952Y-40252380D01*
X85971428Y-39252380D02*
X86542857Y-39252380D01*
X86257142Y-40252380D02*
X86257142Y-39252380D01*
X107700000Y-40400000D02*
X109500000Y-40400000D01*
X107700000Y-26900000D02*
X107700000Y-40400000D01*
X129600000Y-49600000D02*
X129600000Y-29400000D01*
X132100000Y-49600000D02*
X129600000Y-49600000D01*
X95400000Y-49600000D02*
X132100000Y-49600000D01*
X95400000Y-38100000D02*
X95400000Y-52100000D01*
X95400000Y-38100000D02*
X92900000Y-38100000D01*
X139600000Y-30900000D02*
X139600000Y-29400000D01*
X139600000Y-39100000D02*
X139600000Y-30900000D01*
X132100000Y-39100000D02*
X139600000Y-39100000D01*
X132100000Y-52100000D02*
X132100000Y-39100000D01*
X92900000Y-52100000D02*
X132100000Y-52100000D01*
X92900000Y-38100000D02*
X92900000Y-52100000D01*
X85900000Y-38100000D02*
X92900000Y-38100000D01*
X85900000Y-29400000D02*
X85900000Y-38100000D01*
X84300000Y-83250000D02*
X93350000Y-83250000D01*
X84300000Y-126500000D02*
X92700000Y-126500000D01*
D11*
X140500000Y-30090000D02*
X146510000Y-30090000D01*
X142750000Y-36910000D02*
X146510000Y-36910000D01*
X146510000Y-30090000D02*
X146510000Y-31350000D01*
X146510000Y-36910000D02*
X146510000Y-35650000D01*
X118980000Y-57440000D02*
X118980000Y-58900000D01*
X115820000Y-57440000D02*
X115820000Y-59600000D01*
X115820000Y-57440000D02*
X116750000Y-57440000D01*
X118980000Y-57440000D02*
X118050000Y-57440000D01*
X122960000Y-38180000D02*
X121500000Y-38180000D01*
X122960000Y-35020000D02*
X120800000Y-35020000D01*
X122960000Y-35020000D02*
X122960000Y-35950000D01*
X122960000Y-38180000D02*
X122960000Y-37250000D01*
X118558578Y-53990000D02*
X118041422Y-53990000D01*
X118558578Y-55410000D02*
X118041422Y-55410000D01*
X139841422Y-51610000D02*
X140358578Y-51610000D01*
X139841422Y-50190000D02*
X140358578Y-50190000D01*
X122090000Y-46741422D02*
X122090000Y-47258578D01*
X123510000Y-46741422D02*
X123510000Y-47258578D01*
X122341422Y-43910000D02*
X122858578Y-43910000D01*
X122341422Y-42490000D02*
X122858578Y-42490000D01*
X125541422Y-36810000D02*
X126058578Y-36810000D01*
X125541422Y-35390000D02*
X126058578Y-35390000D01*
X88090000Y-127541422D02*
X88090000Y-128058578D01*
X89510000Y-127541422D02*
X89510000Y-128058578D01*
X89990000Y-127541422D02*
X89990000Y-128058578D01*
X91410000Y-127541422D02*
X91410000Y-128058578D01*
X86190000Y-127578922D02*
X86190000Y-128096078D01*
X87610000Y-127578922D02*
X87610000Y-128096078D01*
X84290000Y-127578922D02*
X84290000Y-128096078D01*
X85710000Y-127578922D02*
X85710000Y-128096078D01*
X89890000Y-45741422D02*
X89890000Y-46258578D01*
X91310000Y-45741422D02*
X91310000Y-46258578D01*
X89890000Y-39941422D02*
X89890000Y-40458578D01*
X91310000Y-39941422D02*
X91310000Y-40458578D01*
X86010000Y-120558578D02*
X86010000Y-120041422D01*
X84590000Y-120558578D02*
X84590000Y-120041422D01*
X98041422Y-59910000D02*
X98558578Y-59910000D01*
X98041422Y-58490000D02*
X98558578Y-58490000D01*
X102490000Y-65841422D02*
X102490000Y-66358578D01*
X103910000Y-65841422D02*
X103910000Y-66358578D01*
X126320000Y-54960000D02*
X126320000Y-53500000D01*
X129480000Y-54960000D02*
X129480000Y-52800000D01*
X129480000Y-54960000D02*
X128550000Y-54960000D01*
X126320000Y-54960000D02*
X127250000Y-54960000D01*
X137650000Y-47800000D02*
X141550000Y-47800000D01*
X137650000Y-49800000D02*
X141550000Y-49800000D01*
X137650000Y-47800000D02*
X137650000Y-49800000D01*
X124550000Y-41900000D02*
X120650000Y-41900000D01*
X124550000Y-39900000D02*
X120650000Y-39900000D01*
X124550000Y-41900000D02*
X124550000Y-39900000D01*
X125610000Y-54658578D02*
X125610000Y-54141422D01*
X124190000Y-54658578D02*
X124190000Y-54141422D01*
X117190000Y-44841422D02*
X117190000Y-45358578D01*
X118610000Y-44841422D02*
X118610000Y-45358578D01*
X86158578Y-56690000D02*
X85641422Y-56690000D01*
X86158578Y-58110000D02*
X85641422Y-58110000D01*
X113341422Y-61910000D02*
X113858578Y-61910000D01*
X113341422Y-60490000D02*
X113858578Y-60490000D01*
X146990000Y-38841422D02*
X146990000Y-39358578D01*
X148410000Y-38841422D02*
X148410000Y-39358578D01*
X143741422Y-39010000D02*
X144258578Y-39010000D01*
X143741422Y-37590000D02*
X144258578Y-37590000D01*
D10*
X89450000Y-66750000D02*
X89450000Y-60775000D01*
X96350000Y-65225000D02*
X96350000Y-60775000D01*
D11*
X107241422Y-44010000D02*
X107758578Y-44010000D01*
X107241422Y-42590000D02*
X107758578Y-42590000D01*
D10*
X111950000Y-62950000D02*
X111950000Y-68925000D01*
X105050000Y-64475000D02*
X105050000Y-68925000D01*
D11*
X128080000Y-38440000D02*
X128080000Y-39900000D01*
X124920000Y-38440000D02*
X124920000Y-40600000D01*
X124920000Y-38440000D02*
X125850000Y-38440000D01*
X128080000Y-38440000D02*
X127150000Y-38440000D01*
X128080000Y-46040000D02*
X128080000Y-47500000D01*
X124920000Y-46040000D02*
X124920000Y-48200000D01*
X124920000Y-46040000D02*
X125850000Y-46040000D01*
X128080000Y-46040000D02*
X127150000Y-46040000D01*
X126758578Y-42190000D02*
X126241422Y-42190000D01*
X126758578Y-43610000D02*
X126241422Y-43610000D01*
X84870000Y-38490000D02*
X84870000Y-41600000D01*
X87530000Y-41030000D02*
X87530000Y-41600000D01*
X84870000Y-36400000D02*
X84870000Y-36970000D01*
X84870000Y-36970000D02*
X83350000Y-36970000D01*
X87530000Y-36400000D02*
X87530000Y-39510000D01*
X84870000Y-41600000D02*
X87530000Y-41600000D01*
X84870000Y-36400000D02*
X87530000Y-36400000D01*
X97630000Y-41670000D02*
X97630000Y-40400000D01*
X98900000Y-41670000D02*
X97630000Y-41670000D01*
X117060000Y-39357071D02*
X117060000Y-38902929D01*
X116300000Y-39357071D02*
X116300000Y-38902929D01*
X117060000Y-36817071D02*
X117060000Y-36420000D01*
X116300000Y-36817071D02*
X116300000Y-36420000D01*
X117060000Y-27760000D02*
X117060000Y-33760000D01*
X116300000Y-27760000D02*
X117060000Y-27760000D01*
X116300000Y-33760000D02*
X116300000Y-27760000D01*
X115410000Y-36420000D02*
X115410000Y-33760000D01*
X114520000Y-39357071D02*
X114520000Y-38902929D01*
X113760000Y-39357071D02*
X113760000Y-38902929D01*
X114520000Y-36817071D02*
X114520000Y-36420000D01*
X113760000Y-36817071D02*
X113760000Y-36420000D01*
X114520000Y-27760000D02*
X114520000Y-33760000D01*
X113760000Y-27760000D02*
X114520000Y-27760000D01*
X113760000Y-33760000D02*
X113760000Y-27760000D01*
X112870000Y-36420000D02*
X112870000Y-33760000D01*
X111980000Y-39357071D02*
X111980000Y-38902929D01*
X111220000Y-39357071D02*
X111220000Y-38902929D01*
X111980000Y-36817071D02*
X111980000Y-36420000D01*
X111220000Y-36817071D02*
X111220000Y-36420000D01*
X111980000Y-27760000D02*
X111980000Y-33760000D01*
X111220000Y-27760000D02*
X111980000Y-27760000D01*
X111220000Y-33760000D02*
X111220000Y-27760000D01*
X110330000Y-36420000D02*
X110330000Y-33760000D01*
X109440000Y-39357071D02*
X109440000Y-38902929D01*
X108680000Y-39357071D02*
X108680000Y-38902929D01*
X109440000Y-36817071D02*
X109440000Y-36420000D01*
X108680000Y-36817071D02*
X108680000Y-36420000D01*
X109440000Y-27760000D02*
X109440000Y-33760000D01*
X108680000Y-27760000D02*
X109440000Y-27760000D01*
X108680000Y-33760000D02*
X108680000Y-27760000D01*
X107790000Y-36420000D02*
X107790000Y-33760000D01*
X106900000Y-39357071D02*
X106900000Y-38902929D01*
X106140000Y-39357071D02*
X106140000Y-38902929D01*
X106900000Y-36817071D02*
X106900000Y-36420000D01*
X106140000Y-36817071D02*
X106140000Y-36420000D01*
X106900000Y-27760000D02*
X106900000Y-33760000D01*
X106140000Y-27760000D02*
X106900000Y-27760000D01*
X106140000Y-33760000D02*
X106140000Y-27760000D01*
X105250000Y-36420000D02*
X105250000Y-33760000D01*
X104360000Y-39357071D02*
X104360000Y-38902929D01*
X103600000Y-39357071D02*
X103600000Y-38902929D01*
X104360000Y-36817071D02*
X104360000Y-36420000D01*
X103600000Y-36817071D02*
X103600000Y-36420000D01*
X104360000Y-27760000D02*
X104360000Y-33760000D01*
X103600000Y-27760000D02*
X104360000Y-27760000D01*
X103600000Y-33760000D02*
X103600000Y-27760000D01*
X102710000Y-36420000D02*
X102710000Y-33760000D01*
X101820000Y-39357071D02*
X101820000Y-38902929D01*
X101060000Y-39357071D02*
X101060000Y-38902929D01*
X101820000Y-36817071D02*
X101820000Y-36420000D01*
X101060000Y-36817071D02*
X101060000Y-36420000D01*
X101820000Y-27760000D02*
X101820000Y-33760000D01*
X101060000Y-27760000D02*
X101820000Y-27760000D01*
X101060000Y-33760000D02*
X101060000Y-27760000D01*
X100170000Y-36420000D02*
X100170000Y-33760000D01*
X99280000Y-39290000D02*
X99280000Y-38902929D01*
X98520000Y-39290000D02*
X98520000Y-38902929D01*
X99280000Y-36817071D02*
X99280000Y-36420000D01*
X98520000Y-36817071D02*
X98520000Y-36420000D01*
X99180000Y-33760000D02*
X99180000Y-27760000D01*
X99060000Y-33760000D02*
X99060000Y-27760000D01*
X98940000Y-33760000D02*
X98940000Y-27760000D01*
X98820000Y-33760000D02*
X98820000Y-27760000D01*
X98700000Y-33760000D02*
X98700000Y-27760000D01*
X98580000Y-33760000D02*
X98580000Y-27760000D01*
X99280000Y-27760000D02*
X99280000Y-33760000D01*
X98520000Y-27760000D02*
X99280000Y-27760000D01*
X98520000Y-33760000D02*
X98520000Y-27760000D01*
X97570000Y-33760000D02*
X97570000Y-36420000D01*
X118010000Y-33760000D02*
X97570000Y-33760000D01*
X118010000Y-36420000D02*
X118010000Y-33760000D01*
X97570000Y-36420000D02*
X118010000Y-36420000D01*
X92330000Y-107430000D02*
X93600000Y-107430000D01*
X92330000Y-108700000D02*
X92330000Y-107430000D01*
X94642929Y-108340000D02*
X95097071Y-108340000D01*
X94642929Y-109100000D02*
X95097071Y-109100000D01*
X97182929Y-126860000D02*
X97580000Y-126860000D01*
X97182929Y-126100000D02*
X97580000Y-126100000D01*
X106240000Y-126860000D02*
X100240000Y-126860000D01*
X106240000Y-126100000D02*
X106240000Y-126860000D01*
X100240000Y-126100000D02*
X106240000Y-126100000D01*
X97580000Y-125210000D02*
X100240000Y-125210000D01*
X94642929Y-110880000D02*
X95097071Y-110880000D01*
X94642929Y-111640000D02*
X95097071Y-111640000D01*
X97182929Y-124320000D02*
X97580000Y-124320000D01*
X97182929Y-123560000D02*
X97580000Y-123560000D01*
X106240000Y-124320000D02*
X100240000Y-124320000D01*
X106240000Y-123560000D02*
X106240000Y-124320000D01*
X100240000Y-123560000D02*
X106240000Y-123560000D01*
X97580000Y-122670000D02*
X100240000Y-122670000D01*
X94642929Y-113420000D02*
X95097071Y-113420000D01*
X94642929Y-114180000D02*
X95097071Y-114180000D01*
X97182929Y-121780000D02*
X97580000Y-121780000D01*
X97182929Y-121020000D02*
X97580000Y-121020000D01*
X106240000Y-121780000D02*
X100240000Y-121780000D01*
X106240000Y-121020000D02*
X106240000Y-121780000D01*
X100240000Y-121020000D02*
X106240000Y-121020000D01*
X97580000Y-120130000D02*
X100240000Y-120130000D01*
X94642929Y-115960000D02*
X95097071Y-115960000D01*
X94642929Y-116720000D02*
X95097071Y-116720000D01*
X97182929Y-119240000D02*
X97580000Y-119240000D01*
X97182929Y-118480000D02*
X97580000Y-118480000D01*
X106240000Y-119240000D02*
X100240000Y-119240000D01*
X106240000Y-118480000D02*
X106240000Y-119240000D01*
X100240000Y-118480000D02*
X106240000Y-118480000D01*
X97580000Y-117590000D02*
X100240000Y-117590000D01*
X94642929Y-118500000D02*
X95097071Y-118500000D01*
X94642929Y-119260000D02*
X95097071Y-119260000D01*
X97182929Y-116700000D02*
X97580000Y-116700000D01*
X97182929Y-115940000D02*
X97580000Y-115940000D01*
X106240000Y-116700000D02*
X100240000Y-116700000D01*
X106240000Y-115940000D02*
X106240000Y-116700000D01*
X100240000Y-115940000D02*
X106240000Y-115940000D01*
X97580000Y-115050000D02*
X100240000Y-115050000D01*
X94642929Y-121040000D02*
X95097071Y-121040000D01*
X94642929Y-121800000D02*
X95097071Y-121800000D01*
X97182929Y-114160000D02*
X97580000Y-114160000D01*
X97182929Y-113400000D02*
X97580000Y-113400000D01*
X106240000Y-114160000D02*
X100240000Y-114160000D01*
X106240000Y-113400000D02*
X106240000Y-114160000D01*
X100240000Y-113400000D02*
X106240000Y-113400000D01*
X97580000Y-112510000D02*
X100240000Y-112510000D01*
X94642929Y-123580000D02*
X95097071Y-123580000D01*
X94642929Y-124340000D02*
X95097071Y-124340000D01*
X97182929Y-111620000D02*
X97580000Y-111620000D01*
X97182929Y-110860000D02*
X97580000Y-110860000D01*
X106240000Y-111620000D02*
X100240000Y-111620000D01*
X106240000Y-110860000D02*
X106240000Y-111620000D01*
X100240000Y-110860000D02*
X106240000Y-110860000D01*
X97580000Y-109970000D02*
X100240000Y-109970000D01*
X94710000Y-126120000D02*
X95097071Y-126120000D01*
X94710000Y-126880000D02*
X95097071Y-126880000D01*
X97182929Y-109080000D02*
X97580000Y-109080000D01*
X97182929Y-108320000D02*
X97580000Y-108320000D01*
X100240000Y-108980000D02*
X106240000Y-108980000D01*
X100240000Y-108860000D02*
X106240000Y-108860000D01*
X100240000Y-108740000D02*
X106240000Y-108740000D01*
X100240000Y-108620000D02*
X106240000Y-108620000D01*
X100240000Y-108500000D02*
X106240000Y-108500000D01*
X100240000Y-108380000D02*
X106240000Y-108380000D01*
X106240000Y-109080000D02*
X100240000Y-109080000D01*
X106240000Y-108320000D02*
X106240000Y-109080000D01*
X100240000Y-108320000D02*
X106240000Y-108320000D01*
X100240000Y-107370000D02*
X97580000Y-107370000D01*
X100240000Y-127810000D02*
X100240000Y-107370000D01*
X97580000Y-127810000D02*
X100240000Y-127810000D01*
X97580000Y-107370000D02*
X97580000Y-127810000D01*
X92380000Y-80830000D02*
X93650000Y-80830000D01*
X92380000Y-82100000D02*
X92380000Y-80830000D01*
X94692929Y-81740000D02*
X95147071Y-81740000D01*
X94692929Y-82500000D02*
X95147071Y-82500000D01*
X97232929Y-100260000D02*
X97630000Y-100260000D01*
X97232929Y-99500000D02*
X97630000Y-99500000D01*
X106290000Y-100260000D02*
X100290000Y-100260000D01*
X106290000Y-99500000D02*
X106290000Y-100260000D01*
X100290000Y-99500000D02*
X106290000Y-99500000D01*
X97630000Y-98610000D02*
X100290000Y-98610000D01*
X94692929Y-84280000D02*
X95147071Y-84280000D01*
X94692929Y-85040000D02*
X95147071Y-85040000D01*
X97232929Y-97720000D02*
X97630000Y-97720000D01*
X97232929Y-96960000D02*
X97630000Y-96960000D01*
X106290000Y-97720000D02*
X100290000Y-97720000D01*
X106290000Y-96960000D02*
X106290000Y-97720000D01*
X100290000Y-96960000D02*
X106290000Y-96960000D01*
X97630000Y-96070000D02*
X100290000Y-96070000D01*
X94692929Y-86820000D02*
X95147071Y-86820000D01*
X94692929Y-87580000D02*
X95147071Y-87580000D01*
X97232929Y-95180000D02*
X97630000Y-95180000D01*
X97232929Y-94420000D02*
X97630000Y-94420000D01*
X106290000Y-95180000D02*
X100290000Y-95180000D01*
X106290000Y-94420000D02*
X106290000Y-95180000D01*
X100290000Y-94420000D02*
X106290000Y-94420000D01*
X97630000Y-93530000D02*
X100290000Y-93530000D01*
X94692929Y-89360000D02*
X95147071Y-89360000D01*
X94692929Y-90120000D02*
X95147071Y-90120000D01*
X97232929Y-92640000D02*
X97630000Y-92640000D01*
X97232929Y-91880000D02*
X97630000Y-91880000D01*
X106290000Y-92640000D02*
X100290000Y-92640000D01*
X106290000Y-91880000D02*
X106290000Y-92640000D01*
X100290000Y-91880000D02*
X106290000Y-91880000D01*
X97630000Y-90990000D02*
X100290000Y-90990000D01*
X94692929Y-91900000D02*
X95147071Y-91900000D01*
X94692929Y-92660000D02*
X95147071Y-92660000D01*
X97232929Y-90100000D02*
X97630000Y-90100000D01*
X97232929Y-89340000D02*
X97630000Y-89340000D01*
X106290000Y-90100000D02*
X100290000Y-90100000D01*
X106290000Y-89340000D02*
X106290000Y-90100000D01*
X100290000Y-89340000D02*
X106290000Y-89340000D01*
X97630000Y-88450000D02*
X100290000Y-88450000D01*
X94692929Y-94440000D02*
X95147071Y-94440000D01*
X94692929Y-95200000D02*
X95147071Y-95200000D01*
X97232929Y-87560000D02*
X97630000Y-87560000D01*
X97232929Y-86800000D02*
X97630000Y-86800000D01*
X106290000Y-87560000D02*
X100290000Y-87560000D01*
X106290000Y-86800000D02*
X106290000Y-87560000D01*
X100290000Y-86800000D02*
X106290000Y-86800000D01*
X97630000Y-85910000D02*
X100290000Y-85910000D01*
X94692929Y-96980000D02*
X95147071Y-96980000D01*
X94692929Y-97740000D02*
X95147071Y-97740000D01*
X97232929Y-85020000D02*
X97630000Y-85020000D01*
X97232929Y-84260000D02*
X97630000Y-84260000D01*
X106290000Y-85020000D02*
X100290000Y-85020000D01*
X106290000Y-84260000D02*
X106290000Y-85020000D01*
X100290000Y-84260000D02*
X106290000Y-84260000D01*
X97630000Y-83370000D02*
X100290000Y-83370000D01*
X94760000Y-99520000D02*
X95147071Y-99520000D01*
X94760000Y-100280000D02*
X95147071Y-100280000D01*
X97232929Y-82480000D02*
X97630000Y-82480000D01*
X97232929Y-81720000D02*
X97630000Y-81720000D01*
X100290000Y-82380000D02*
X106290000Y-82380000D01*
X100290000Y-82260000D02*
X106290000Y-82260000D01*
X100290000Y-82140000D02*
X106290000Y-82140000D01*
X100290000Y-82020000D02*
X106290000Y-82020000D01*
X100290000Y-81900000D02*
X106290000Y-81900000D01*
X100290000Y-81780000D02*
X106290000Y-81780000D01*
X106290000Y-82480000D02*
X100290000Y-82480000D01*
X106290000Y-81720000D02*
X106290000Y-82480000D01*
X100290000Y-81720000D02*
X106290000Y-81720000D01*
X100290000Y-80770000D02*
X97630000Y-80770000D01*
X100290000Y-101210000D02*
X100290000Y-80770000D01*
X97630000Y-101210000D02*
X100290000Y-101210000D01*
X97630000Y-80770000D02*
X97630000Y-101210000D01*
X113000000Y-43240000D02*
X109550000Y-43240000D01*
X113000000Y-43240000D02*
X114950000Y-43240000D01*
X113000000Y-48360000D02*
X111050000Y-48360000D01*
X113000000Y-48360000D02*
X114950000Y-48360000D01*
X102000000Y-43240000D02*
X98550000Y-43240000D01*
X102000000Y-43240000D02*
X103950000Y-43240000D01*
X102000000Y-48360000D02*
X100050000Y-48360000D01*
X102000000Y-48360000D02*
X103950000Y-48360000D01*
X112160000Y-56300000D02*
X112160000Y-52850000D01*
X112160000Y-56300000D02*
X112160000Y-58250000D01*
X102040000Y-56300000D02*
X102040000Y-54350000D01*
X102040000Y-56300000D02*
X102040000Y-58250000D01*
X79470000Y-29970000D02*
X80800000Y-29970000D01*
X79470000Y-31300000D02*
X79470000Y-29970000D01*
X79470000Y-32570000D02*
X82130000Y-32570000D01*
X82130000Y-32570000D02*
X82130000Y-58030000D01*
X79470000Y-32570000D02*
X79470000Y-58030000D01*
X79470000Y-58030000D02*
X82130000Y-58030000D01*
X135000000Y-40390000D02*
X141010000Y-40390000D01*
X137250000Y-47210000D02*
X141010000Y-47210000D01*
X141010000Y-40390000D02*
X141010000Y-41650000D01*
X141010000Y-47210000D02*
X141010000Y-45950000D01*
X134410000Y-54558578D02*
X134410000Y-54041422D01*
X132990000Y-54558578D02*
X132990000Y-54041422D01*
X132310000Y-54558578D02*
X132310000Y-54041422D01*
X130890000Y-54558578D02*
X130890000Y-54041422D01*
X146010000Y-41958578D02*
X146010000Y-41441422D01*
X144590000Y-41958578D02*
X144590000Y-41441422D01*
X134210000Y-44658578D02*
X134210000Y-44141422D01*
X132790000Y-44658578D02*
X132790000Y-44141422D01*
X139545000Y-57080000D02*
X139545000Y-56700000D01*
X145965000Y-57080000D02*
X139545000Y-57080000D01*
X145965000Y-75320000D02*
X139545000Y-75320000D01*
X145965000Y-57080000D02*
X145965000Y-75320000D01*
X120220000Y-75320000D02*
X120220000Y-74320000D01*
X121000000Y-75320000D02*
X120220000Y-75320000D01*
X120220000Y-57080000D02*
X120220000Y-58080000D01*
X121000000Y-57080000D02*
X120220000Y-57080000D01*
X87341422Y-66710000D02*
X87858578Y-66710000D01*
X87341422Y-65290000D02*
X87858578Y-65290000D01*
X80870000Y-60730000D02*
X82200000Y-60730000D01*
X80870000Y-62060000D02*
X80870000Y-60730000D01*
X80870000Y-63330000D02*
X83530000Y-63330000D01*
X83530000Y-63330000D02*
X83530000Y-129430000D01*
X80870000Y-63330000D02*
X80870000Y-129430000D01*
X80870000Y-129430000D02*
X83530000Y-129430000D01*
X114410000Y-66758578D02*
X114410000Y-66241422D01*
X112990000Y-66758578D02*
X112990000Y-66241422D01*
X97790000Y-62441422D02*
X97790000Y-62958578D01*
X99210000Y-62441422D02*
X99210000Y-62958578D01*
D10*
X138238095Y-33252380D02*
X138238095Y-34061904D01*
X138285714Y-34157142D01*
X138333333Y-34204761D01*
X138428571Y-34252380D01*
X138619047Y-34252380D01*
X138714285Y-34204761D01*
X138761904Y-34157142D01*
X138809523Y-34061904D01*
X138809523Y-33252380D01*
X139428571Y-33680952D02*
X139333333Y-33633333D01*
X139285714Y-33585714D01*
X139238095Y-33490476D01*
X139238095Y-33442857D01*
X139285714Y-33347619D01*
X139333333Y-33300000D01*
X139428571Y-33252380D01*
X139619047Y-33252380D01*
X139714285Y-33300000D01*
X139761904Y-33347619D01*
X139809523Y-33442857D01*
X139809523Y-33490476D01*
X139761904Y-33585714D01*
X139714285Y-33633333D01*
X139619047Y-33680952D01*
X139428571Y-33680952D01*
X139333333Y-33728571D01*
X139285714Y-33776190D01*
X139238095Y-33871428D01*
X139238095Y-34061904D01*
X139285714Y-34157142D01*
X139333333Y-34204761D01*
X139428571Y-34252380D01*
X139619047Y-34252380D01*
X139714285Y-34204761D01*
X139761904Y-34157142D01*
X139809523Y-34061904D01*
X139809523Y-33871428D01*
X139761904Y-33776190D01*
X139714285Y-33728571D01*
X139619047Y-33680952D01*
X114352380Y-59461904D02*
X114352380Y-58890476D01*
X115352380Y-59176190D02*
X114352380Y-59176190D01*
X115352380Y-57985714D02*
X114876190Y-58319047D01*
X115352380Y-58557142D02*
X114352380Y-58557142D01*
X114352380Y-58176190D01*
X114400000Y-58080952D01*
X114447619Y-58033333D01*
X114542857Y-57985714D01*
X114685714Y-57985714D01*
X114780952Y-58033333D01*
X114828571Y-58080952D01*
X114876190Y-58176190D01*
X114876190Y-58557142D01*
X114352380Y-57652380D02*
X114352380Y-57033333D01*
X114733333Y-57366666D01*
X114733333Y-57223809D01*
X114780952Y-57128571D01*
X114828571Y-57080952D01*
X114923809Y-57033333D01*
X115161904Y-57033333D01*
X115257142Y-57080952D01*
X115304761Y-57128571D01*
X115352380Y-57223809D01*
X115352380Y-57509523D01*
X115304761Y-57604761D01*
X115257142Y-57652380D01*
X120938095Y-33552380D02*
X121509523Y-33552380D01*
X121223809Y-34552380D02*
X121223809Y-33552380D01*
X122414285Y-34552380D02*
X122080952Y-34076190D01*
X121842857Y-34552380D02*
X121842857Y-33552380D01*
X122223809Y-33552380D01*
X122319047Y-33600000D01*
X122366666Y-33647619D01*
X122414285Y-33742857D01*
X122414285Y-33885714D01*
X122366666Y-33980952D01*
X122319047Y-34028571D01*
X122223809Y-34076190D01*
X121842857Y-34076190D01*
X122795238Y-33647619D02*
X122842857Y-33600000D01*
X122938095Y-33552380D01*
X123176190Y-33552380D01*
X123271428Y-33600000D01*
X123319047Y-33647619D01*
X123366666Y-33742857D01*
X123366666Y-33838095D01*
X123319047Y-33980952D01*
X122747619Y-34552380D01*
X123366666Y-34552380D01*
X117657142Y-53352380D02*
X117323809Y-52876190D01*
X117085714Y-53352380D02*
X117085714Y-52352380D01*
X117466666Y-52352380D01*
X117561904Y-52400000D01*
X117609523Y-52447619D01*
X117657142Y-52542857D01*
X117657142Y-52685714D01*
X117609523Y-52780952D01*
X117561904Y-52828571D01*
X117466666Y-52876190D01*
X117085714Y-52876190D01*
X118609523Y-53352380D02*
X118038095Y-53352380D01*
X118323809Y-53352380D02*
X118323809Y-52352380D01*
X118228571Y-52495238D01*
X118133333Y-52590476D01*
X118038095Y-52638095D01*
X118942857Y-52352380D02*
X119609523Y-52352380D01*
X119180952Y-53352380D01*
X136057142Y-51552380D02*
X135723809Y-51076190D01*
X135485714Y-51552380D02*
X135485714Y-50552380D01*
X135866666Y-50552380D01*
X135961904Y-50600000D01*
X136009523Y-50647619D01*
X136057142Y-50742857D01*
X136057142Y-50885714D01*
X136009523Y-50980952D01*
X135961904Y-51028571D01*
X135866666Y-51076190D01*
X135485714Y-51076190D01*
X137009523Y-51552380D02*
X136438095Y-51552380D01*
X136723809Y-51552380D02*
X136723809Y-50552380D01*
X136628571Y-50695238D01*
X136533333Y-50790476D01*
X136438095Y-50838095D01*
X137866666Y-50552380D02*
X137676190Y-50552380D01*
X137580952Y-50600000D01*
X137533333Y-50647619D01*
X137438095Y-50790476D01*
X137390476Y-50980952D01*
X137390476Y-51361904D01*
X137438095Y-51457142D01*
X137485714Y-51504761D01*
X137580952Y-51552380D01*
X137771428Y-51552380D01*
X137866666Y-51504761D01*
X137914285Y-51457142D01*
X137961904Y-51361904D01*
X137961904Y-51123809D01*
X137914285Y-51028571D01*
X137866666Y-50980952D01*
X137771428Y-50933333D01*
X137580952Y-50933333D01*
X137485714Y-50980952D01*
X137438095Y-51028571D01*
X137390476Y-51123809D01*
X121452380Y-49742857D02*
X120976190Y-50076190D01*
X121452380Y-50314285D02*
X120452380Y-50314285D01*
X120452380Y-49933333D01*
X120500000Y-49838095D01*
X120547619Y-49790476D01*
X120642857Y-49742857D01*
X120785714Y-49742857D01*
X120880952Y-49790476D01*
X120928571Y-49838095D01*
X120976190Y-49933333D01*
X120976190Y-50314285D01*
X121452380Y-48790476D02*
X121452380Y-49361904D01*
X121452380Y-49076190D02*
X120452380Y-49076190D01*
X120595238Y-49171428D01*
X120690476Y-49266666D01*
X120738095Y-49361904D01*
X120785714Y-47933333D02*
X121452380Y-47933333D01*
X120404761Y-48171428D02*
X121119047Y-48409523D01*
X121119047Y-47790476D01*
X120552380Y-44442857D02*
X120076190Y-44776190D01*
X120552380Y-45014285D02*
X119552380Y-45014285D01*
X119552380Y-44633333D01*
X119600000Y-44538095D01*
X119647619Y-44490476D01*
X119742857Y-44442857D01*
X119885714Y-44442857D01*
X119980952Y-44490476D01*
X120028571Y-44538095D01*
X120076190Y-44633333D01*
X120076190Y-45014285D01*
X120552380Y-43490476D02*
X120552380Y-44061904D01*
X120552380Y-43776190D02*
X119552380Y-43776190D01*
X119695238Y-43871428D01*
X119790476Y-43966666D01*
X119838095Y-44061904D01*
X119552380Y-43157142D02*
X119552380Y-42538095D01*
X119933333Y-42871428D01*
X119933333Y-42728571D01*
X119980952Y-42633333D01*
X120028571Y-42585714D01*
X120123809Y-42538095D01*
X120361904Y-42538095D01*
X120457142Y-42585714D01*
X120504761Y-42633333D01*
X120552380Y-42728571D01*
X120552380Y-43014285D01*
X120504761Y-43109523D01*
X120457142Y-43157142D01*
X125157142Y-34902380D02*
X124823809Y-34426190D01*
X124585714Y-34902380D02*
X124585714Y-33902380D01*
X124966666Y-33902380D01*
X125061904Y-33950000D01*
X125109523Y-33997619D01*
X125157142Y-34092857D01*
X125157142Y-34235714D01*
X125109523Y-34330952D01*
X125061904Y-34378571D01*
X124966666Y-34426190D01*
X124585714Y-34426190D01*
X126109523Y-34902380D02*
X125538095Y-34902380D01*
X125823809Y-34902380D02*
X125823809Y-33902380D01*
X125728571Y-34045238D01*
X125633333Y-34140476D01*
X125538095Y-34188095D01*
X126490476Y-33997619D02*
X126538095Y-33950000D01*
X126633333Y-33902380D01*
X126871428Y-33902380D01*
X126966666Y-33950000D01*
X127014285Y-33997619D01*
X127061904Y-34092857D01*
X127061904Y-34188095D01*
X127014285Y-34330952D01*
X126442857Y-34902380D01*
X127061904Y-34902380D01*
X89152380Y-125342857D02*
X88676190Y-125676190D01*
X89152380Y-125914285D02*
X88152380Y-125914285D01*
X88152380Y-125533333D01*
X88200000Y-125438095D01*
X88247619Y-125390476D01*
X88342857Y-125342857D01*
X88485714Y-125342857D01*
X88580952Y-125390476D01*
X88628571Y-125438095D01*
X88676190Y-125533333D01*
X88676190Y-125914285D01*
X89152380Y-124390476D02*
X89152380Y-124961904D01*
X89152380Y-124676190D02*
X88152380Y-124676190D01*
X88295238Y-124771428D01*
X88390476Y-124866666D01*
X88438095Y-124961904D01*
X89152380Y-123438095D02*
X89152380Y-124009523D01*
X89152380Y-123723809D02*
X88152380Y-123723809D01*
X88295238Y-123819047D01*
X88390476Y-123914285D01*
X88438095Y-124009523D01*
X91252380Y-125142857D02*
X90776190Y-125476190D01*
X91252380Y-125714285D02*
X90252380Y-125714285D01*
X90252380Y-125333333D01*
X90300000Y-125238095D01*
X90347619Y-125190476D01*
X90442857Y-125142857D01*
X90585714Y-125142857D01*
X90680952Y-125190476D01*
X90728571Y-125238095D01*
X90776190Y-125333333D01*
X90776190Y-125714285D01*
X91252380Y-124190476D02*
X91252380Y-124761904D01*
X91252380Y-124476190D02*
X90252380Y-124476190D01*
X90395238Y-124571428D01*
X90490476Y-124666666D01*
X90538095Y-124761904D01*
X90252380Y-123571428D02*
X90252380Y-123476190D01*
X90300000Y-123380952D01*
X90347619Y-123333333D01*
X90442857Y-123285714D01*
X90633333Y-123238095D01*
X90871428Y-123238095D01*
X91061904Y-123285714D01*
X91157142Y-123333333D01*
X91204761Y-123380952D01*
X91252380Y-123476190D01*
X91252380Y-123571428D01*
X91204761Y-123666666D01*
X91157142Y-123714285D01*
X91061904Y-123761904D01*
X90871428Y-123809523D01*
X90633333Y-123809523D01*
X90442857Y-123761904D01*
X90347619Y-123714285D01*
X90300000Y-123666666D01*
X90252380Y-123571428D01*
X87452380Y-125366666D02*
X86976190Y-125700000D01*
X87452380Y-125938095D02*
X86452380Y-125938095D01*
X86452380Y-125557142D01*
X86500000Y-125461904D01*
X86547619Y-125414285D01*
X86642857Y-125366666D01*
X86785714Y-125366666D01*
X86880952Y-125414285D01*
X86928571Y-125461904D01*
X86976190Y-125557142D01*
X86976190Y-125938095D01*
X87452380Y-124890476D02*
X87452380Y-124700000D01*
X87404761Y-124604761D01*
X87357142Y-124557142D01*
X87214285Y-124461904D01*
X87023809Y-124414285D01*
X86642857Y-124414285D01*
X86547619Y-124461904D01*
X86500000Y-124509523D01*
X86452380Y-124604761D01*
X86452380Y-124795238D01*
X86500000Y-124890476D01*
X86547619Y-124938095D01*
X86642857Y-124985714D01*
X86880952Y-124985714D01*
X86976190Y-124938095D01*
X87023809Y-124890476D01*
X87071428Y-124795238D01*
X87071428Y-124604761D01*
X87023809Y-124509523D01*
X86976190Y-124461904D01*
X86880952Y-124414285D01*
X85552380Y-125466666D02*
X85076190Y-125800000D01*
X85552380Y-126038095D02*
X84552380Y-126038095D01*
X84552380Y-125657142D01*
X84600000Y-125561904D01*
X84647619Y-125514285D01*
X84742857Y-125466666D01*
X84885714Y-125466666D01*
X84980952Y-125514285D01*
X85028571Y-125561904D01*
X85076190Y-125657142D01*
X85076190Y-126038095D01*
X84980952Y-124895238D02*
X84933333Y-124990476D01*
X84885714Y-125038095D01*
X84790476Y-125085714D01*
X84742857Y-125085714D01*
X84647619Y-125038095D01*
X84600000Y-124990476D01*
X84552380Y-124895238D01*
X84552380Y-124704761D01*
X84600000Y-124609523D01*
X84647619Y-124561904D01*
X84742857Y-124514285D01*
X84790476Y-124514285D01*
X84885714Y-124561904D01*
X84933333Y-124609523D01*
X84980952Y-124704761D01*
X84980952Y-124895238D01*
X85028571Y-124990476D01*
X85076190Y-125038095D01*
X85171428Y-125085714D01*
X85361904Y-125085714D01*
X85457142Y-125038095D01*
X85504761Y-124990476D01*
X85552380Y-124895238D01*
X85552380Y-124704761D01*
X85504761Y-124609523D01*
X85457142Y-124561904D01*
X85361904Y-124514285D01*
X85171428Y-124514285D01*
X85076190Y-124561904D01*
X85028571Y-124609523D01*
X84980952Y-124704761D01*
X92702380Y-46166666D02*
X92226190Y-46500000D01*
X92702380Y-46738095D02*
X91702380Y-46738095D01*
X91702380Y-46357142D01*
X91750000Y-46261904D01*
X91797619Y-46214285D01*
X91892857Y-46166666D01*
X92035714Y-46166666D01*
X92130952Y-46214285D01*
X92178571Y-46261904D01*
X92226190Y-46357142D01*
X92226190Y-46738095D01*
X91702380Y-45833333D02*
X91702380Y-45166666D01*
X92702380Y-45595238D01*
X92702380Y-40366666D02*
X92226190Y-40700000D01*
X92702380Y-40938095D02*
X91702380Y-40938095D01*
X91702380Y-40557142D01*
X91750000Y-40461904D01*
X91797619Y-40414285D01*
X91892857Y-40366666D01*
X92035714Y-40366666D01*
X92130952Y-40414285D01*
X92178571Y-40461904D01*
X92226190Y-40557142D01*
X92226190Y-40938095D01*
X91702380Y-39509523D02*
X91702380Y-39700000D01*
X91750000Y-39795238D01*
X91797619Y-39842857D01*
X91940476Y-39938095D01*
X92130952Y-39985714D01*
X92511904Y-39985714D01*
X92607142Y-39938095D01*
X92654761Y-39890476D01*
X92702380Y-39795238D01*
X92702380Y-39604761D01*
X92654761Y-39509523D01*
X92607142Y-39461904D01*
X92511904Y-39414285D01*
X92273809Y-39414285D01*
X92178571Y-39461904D01*
X92130952Y-39509523D01*
X92083333Y-39604761D01*
X92083333Y-39795238D01*
X92130952Y-39890476D01*
X92178571Y-39938095D01*
X92273809Y-39985714D01*
X87852380Y-120466666D02*
X87376190Y-120800000D01*
X87852380Y-121038095D02*
X86852380Y-121038095D01*
X86852380Y-120657142D01*
X86900000Y-120561904D01*
X86947619Y-120514285D01*
X87042857Y-120466666D01*
X87185714Y-120466666D01*
X87280952Y-120514285D01*
X87328571Y-120561904D01*
X87376190Y-120657142D01*
X87376190Y-121038095D01*
X86852380Y-119561904D02*
X86852380Y-120038095D01*
X87328571Y-120085714D01*
X87280952Y-120038095D01*
X87233333Y-119942857D01*
X87233333Y-119704761D01*
X87280952Y-119609523D01*
X87328571Y-119561904D01*
X87423809Y-119514285D01*
X87661904Y-119514285D01*
X87757142Y-119561904D01*
X87804761Y-119609523D01*
X87852380Y-119704761D01*
X87852380Y-119942857D01*
X87804761Y-120038095D01*
X87757142Y-120085714D01*
X98133333Y-58002380D02*
X97800000Y-57526190D01*
X97561904Y-58002380D02*
X97561904Y-57002380D01*
X97942857Y-57002380D01*
X98038095Y-57050000D01*
X98085714Y-57097619D01*
X98133333Y-57192857D01*
X98133333Y-57335714D01*
X98085714Y-57430952D01*
X98038095Y-57478571D01*
X97942857Y-57526190D01*
X97561904Y-57526190D01*
X98990476Y-57335714D02*
X98990476Y-58002380D01*
X98752380Y-56954761D02*
X98514285Y-57669047D01*
X99133333Y-57669047D01*
X101952380Y-66166666D02*
X101476190Y-66500000D01*
X101952380Y-66738095D02*
X100952380Y-66738095D01*
X100952380Y-66357142D01*
X101000000Y-66261904D01*
X101047619Y-66214285D01*
X101142857Y-66166666D01*
X101285714Y-66166666D01*
X101380952Y-66214285D01*
X101428571Y-66261904D01*
X101476190Y-66357142D01*
X101476190Y-66738095D01*
X100952380Y-65833333D02*
X100952380Y-65214285D01*
X101333333Y-65547619D01*
X101333333Y-65404761D01*
X101380952Y-65309523D01*
X101428571Y-65261904D01*
X101523809Y-65214285D01*
X101761904Y-65214285D01*
X101857142Y-65261904D01*
X101904761Y-65309523D01*
X101952380Y-65404761D01*
X101952380Y-65690476D01*
X101904761Y-65785714D01*
X101857142Y-65833333D01*
X126990476Y-52152380D02*
X126990476Y-51152380D01*
X127323809Y-51866666D01*
X127657142Y-51152380D01*
X127657142Y-52152380D01*
X128085714Y-51247619D02*
X128133333Y-51200000D01*
X128228571Y-51152380D01*
X128466666Y-51152380D01*
X128561904Y-51200000D01*
X128609523Y-51247619D01*
X128657142Y-51342857D01*
X128657142Y-51438095D01*
X128609523Y-51580952D01*
X128038095Y-52152380D01*
X128657142Y-52152380D01*
X135661904Y-49452380D02*
X135661904Y-48452380D01*
X135900000Y-48452380D01*
X136042857Y-48500000D01*
X136138095Y-48595238D01*
X136185714Y-48690476D01*
X136233333Y-48880952D01*
X136233333Y-49023809D01*
X136185714Y-49214285D01*
X136138095Y-49309523D01*
X136042857Y-49404761D01*
X135900000Y-49452380D01*
X135661904Y-49452380D01*
X136614285Y-48547619D02*
X136661904Y-48500000D01*
X136757142Y-48452380D01*
X136995238Y-48452380D01*
X137090476Y-48500000D01*
X137138095Y-48547619D01*
X137185714Y-48642857D01*
X137185714Y-48738095D01*
X137138095Y-48880952D01*
X136566666Y-49452380D01*
X137185714Y-49452380D01*
X119652380Y-41538095D02*
X118652380Y-41538095D01*
X118652380Y-41300000D01*
X118700000Y-41157142D01*
X118795238Y-41061904D01*
X118890476Y-41014285D01*
X119080952Y-40966666D01*
X119223809Y-40966666D01*
X119414285Y-41014285D01*
X119509523Y-41061904D01*
X119604761Y-41157142D01*
X119652380Y-41300000D01*
X119652380Y-41538095D01*
X119652380Y-40014285D02*
X119652380Y-40585714D01*
X119652380Y-40300000D02*
X118652380Y-40300000D01*
X118795238Y-40395238D01*
X118890476Y-40490476D01*
X118938095Y-40585714D01*
X123607142Y-55042857D02*
X123654761Y-55090476D01*
X123702380Y-55233333D01*
X123702380Y-55328571D01*
X123654761Y-55471428D01*
X123559523Y-55566666D01*
X123464285Y-55614285D01*
X123273809Y-55661904D01*
X123130952Y-55661904D01*
X122940476Y-55614285D01*
X122845238Y-55566666D01*
X122750000Y-55471428D01*
X122702380Y-55328571D01*
X122702380Y-55233333D01*
X122750000Y-55090476D01*
X122797619Y-55042857D01*
X123702380Y-54090476D02*
X123702380Y-54661904D01*
X123702380Y-54376190D02*
X122702380Y-54376190D01*
X122845238Y-54471428D01*
X122940476Y-54566666D01*
X122988095Y-54661904D01*
X122797619Y-53709523D02*
X122750000Y-53661904D01*
X122702380Y-53566666D01*
X122702380Y-53328571D01*
X122750000Y-53233333D01*
X122797619Y-53185714D01*
X122892857Y-53138095D01*
X122988095Y-53138095D01*
X123130952Y-53185714D01*
X123702380Y-53757142D01*
X123702380Y-53138095D01*
X118257142Y-48842857D02*
X118304761Y-48890476D01*
X118352380Y-49033333D01*
X118352380Y-49128571D01*
X118304761Y-49271428D01*
X118209523Y-49366666D01*
X118114285Y-49414285D01*
X117923809Y-49461904D01*
X117780952Y-49461904D01*
X117590476Y-49414285D01*
X117495238Y-49366666D01*
X117400000Y-49271428D01*
X117352380Y-49128571D01*
X117352380Y-49033333D01*
X117400000Y-48890476D01*
X117447619Y-48842857D01*
X118352380Y-47890476D02*
X118352380Y-48461904D01*
X118352380Y-48176190D02*
X117352380Y-48176190D01*
X117495238Y-48271428D01*
X117590476Y-48366666D01*
X117638095Y-48461904D01*
X118352380Y-46938095D02*
X118352380Y-47509523D01*
X118352380Y-47223809D02*
X117352380Y-47223809D01*
X117495238Y-47319047D01*
X117590476Y-47414285D01*
X117638095Y-47509523D01*
X85257142Y-59407142D02*
X85209523Y-59454761D01*
X85066666Y-59502380D01*
X84971428Y-59502380D01*
X84828571Y-59454761D01*
X84733333Y-59359523D01*
X84685714Y-59264285D01*
X84638095Y-59073809D01*
X84638095Y-58930952D01*
X84685714Y-58740476D01*
X84733333Y-58645238D01*
X84828571Y-58550000D01*
X84971428Y-58502380D01*
X85066666Y-58502380D01*
X85209523Y-58550000D01*
X85257142Y-58597619D01*
X86209523Y-59502380D02*
X85638095Y-59502380D01*
X85923809Y-59502380D02*
X85923809Y-58502380D01*
X85828571Y-58645238D01*
X85733333Y-58740476D01*
X85638095Y-58788095D01*
X86828571Y-58502380D02*
X86923809Y-58502380D01*
X87019047Y-58550000D01*
X87066666Y-58597619D01*
X87114285Y-58692857D01*
X87161904Y-58883333D01*
X87161904Y-59121428D01*
X87114285Y-59311904D01*
X87066666Y-59407142D01*
X87019047Y-59454761D01*
X86923809Y-59502380D01*
X86828571Y-59502380D01*
X86733333Y-59454761D01*
X86685714Y-59407142D01*
X86638095Y-59311904D01*
X86590476Y-59121428D01*
X86590476Y-58883333D01*
X86638095Y-58692857D01*
X86685714Y-58597619D01*
X86733333Y-58550000D01*
X86828571Y-58502380D01*
X116333333Y-61757142D02*
X116285714Y-61804761D01*
X116142857Y-61852380D01*
X116047619Y-61852380D01*
X115904761Y-61804761D01*
X115809523Y-61709523D01*
X115761904Y-61614285D01*
X115714285Y-61423809D01*
X115714285Y-61280952D01*
X115761904Y-61090476D01*
X115809523Y-60995238D01*
X115904761Y-60900000D01*
X116047619Y-60852380D01*
X116142857Y-60852380D01*
X116285714Y-60900000D01*
X116333333Y-60947619D01*
X116809523Y-61852380D02*
X117000000Y-61852380D01*
X117095238Y-61804761D01*
X117142857Y-61757142D01*
X117238095Y-61614285D01*
X117285714Y-61423809D01*
X117285714Y-61042857D01*
X117238095Y-60947619D01*
X117190476Y-60900000D01*
X117095238Y-60852380D01*
X116904761Y-60852380D01*
X116809523Y-60900000D01*
X116761904Y-60947619D01*
X116714285Y-61042857D01*
X116714285Y-61280952D01*
X116761904Y-61376190D01*
X116809523Y-61423809D01*
X116904761Y-61471428D01*
X117095238Y-61471428D01*
X117190476Y-61423809D01*
X117238095Y-61376190D01*
X117285714Y-61280952D01*
X147857142Y-42166666D02*
X147904761Y-42214285D01*
X147952380Y-42357142D01*
X147952380Y-42452380D01*
X147904761Y-42595238D01*
X147809523Y-42690476D01*
X147714285Y-42738095D01*
X147523809Y-42785714D01*
X147380952Y-42785714D01*
X147190476Y-42738095D01*
X147095238Y-42690476D01*
X147000000Y-42595238D01*
X146952380Y-42452380D01*
X146952380Y-42357142D01*
X147000000Y-42214285D01*
X147047619Y-42166666D01*
X146952380Y-41261904D02*
X146952380Y-41738095D01*
X147428571Y-41785714D01*
X147380952Y-41738095D01*
X147333333Y-41642857D01*
X147333333Y-41404761D01*
X147380952Y-41309523D01*
X147428571Y-41261904D01*
X147523809Y-41214285D01*
X147761904Y-41214285D01*
X147857142Y-41261904D01*
X147904761Y-41309523D01*
X147952380Y-41404761D01*
X147952380Y-41642857D01*
X147904761Y-41738095D01*
X147857142Y-41785714D01*
X140933333Y-38957142D02*
X140885714Y-39004761D01*
X140742857Y-39052380D01*
X140647619Y-39052380D01*
X140504761Y-39004761D01*
X140409523Y-38909523D01*
X140361904Y-38814285D01*
X140314285Y-38623809D01*
X140314285Y-38480952D01*
X140361904Y-38290476D01*
X140409523Y-38195238D01*
X140504761Y-38100000D01*
X140647619Y-38052380D01*
X140742857Y-38052380D01*
X140885714Y-38100000D01*
X140933333Y-38147619D01*
X141790476Y-38385714D02*
X141790476Y-39052380D01*
X141552380Y-38004761D02*
X141314285Y-38719047D01*
X141933333Y-38719047D01*
X88152380Y-60561904D02*
X88961904Y-60561904D01*
X89057142Y-60514285D01*
X89104761Y-60466666D01*
X89152380Y-60371428D01*
X89152380Y-60180952D01*
X89104761Y-60085714D01*
X89057142Y-60038095D01*
X88961904Y-59990476D01*
X88152380Y-59990476D01*
X88152380Y-59609523D02*
X88152380Y-58942857D01*
X89152380Y-59371428D01*
X107133333Y-45357142D02*
X107085714Y-45404761D01*
X106942857Y-45452380D01*
X106847619Y-45452380D01*
X106704761Y-45404761D01*
X106609523Y-45309523D01*
X106561904Y-45214285D01*
X106514285Y-45023809D01*
X106514285Y-44880952D01*
X106561904Y-44690476D01*
X106609523Y-44595238D01*
X106704761Y-44500000D01*
X106847619Y-44452380D01*
X106942857Y-44452380D01*
X107085714Y-44500000D01*
X107133333Y-44547619D01*
X107466666Y-44452380D02*
X108133333Y-44452380D01*
X107704761Y-45452380D01*
X103452380Y-71061904D02*
X104261904Y-71061904D01*
X104357142Y-71014285D01*
X104404761Y-70966666D01*
X104452380Y-70871428D01*
X104452380Y-70680952D01*
X104404761Y-70585714D01*
X104357142Y-70538095D01*
X104261904Y-70490476D01*
X103452380Y-70490476D01*
X103452380Y-69585714D02*
X103452380Y-69776190D01*
X103500000Y-69871428D01*
X103547619Y-69919047D01*
X103690476Y-70014285D01*
X103880952Y-70061904D01*
X104261904Y-70061904D01*
X104357142Y-70014285D01*
X104404761Y-69966666D01*
X104452380Y-69871428D01*
X104452380Y-69680952D01*
X104404761Y-69585714D01*
X104357142Y-69538095D01*
X104261904Y-69490476D01*
X104023809Y-69490476D01*
X103928571Y-69538095D01*
X103880952Y-69585714D01*
X103833333Y-69680952D01*
X103833333Y-69871428D01*
X103880952Y-69966666D01*
X103928571Y-70014285D01*
X104023809Y-70061904D01*
X128590476Y-39152380D02*
X128590476Y-38152380D01*
X128923809Y-38866666D01*
X129257142Y-38152380D01*
X129257142Y-39152380D01*
X130257142Y-39152380D02*
X129685714Y-39152380D01*
X129971428Y-39152380D02*
X129971428Y-38152380D01*
X129876190Y-38295238D01*
X129780952Y-38390476D01*
X129685714Y-38438095D01*
X125838095Y-49052380D02*
X126409523Y-49052380D01*
X126123809Y-50052380D02*
X126123809Y-49052380D01*
X127314285Y-50052380D02*
X126980952Y-49576190D01*
X126742857Y-50052380D02*
X126742857Y-49052380D01*
X127123809Y-49052380D01*
X127219047Y-49100000D01*
X127266666Y-49147619D01*
X127314285Y-49242857D01*
X127314285Y-49385714D01*
X127266666Y-49480952D01*
X127219047Y-49528571D01*
X127123809Y-49576190D01*
X126742857Y-49576190D01*
X128266666Y-50052380D02*
X127695238Y-50052380D01*
X127980952Y-50052380D02*
X127980952Y-49052380D01*
X127885714Y-49195238D01*
X127790476Y-49290476D01*
X127695238Y-49338095D01*
X129333333Y-43452380D02*
X129000000Y-42976190D01*
X128761904Y-43452380D02*
X128761904Y-42452380D01*
X129142857Y-42452380D01*
X129238095Y-42500000D01*
X129285714Y-42547619D01*
X129333333Y-42642857D01*
X129333333Y-42785714D01*
X129285714Y-42880952D01*
X129238095Y-42928571D01*
X129142857Y-42976190D01*
X128761904Y-42976190D01*
X130285714Y-43452380D02*
X129714285Y-43452380D01*
X130000000Y-43452380D02*
X130000000Y-42452380D01*
X129904761Y-42595238D01*
X129809523Y-42690476D01*
X129714285Y-42738095D01*
X83966666Y-42552380D02*
X83966666Y-43266666D01*
X83919047Y-43409523D01*
X83823809Y-43504761D01*
X83680952Y-43552380D01*
X83585714Y-43552380D01*
X84871428Y-42552380D02*
X84680952Y-42552380D01*
X84585714Y-42600000D01*
X84538095Y-42647619D01*
X84442857Y-42790476D01*
X84395238Y-42980952D01*
X84395238Y-43361904D01*
X84442857Y-43457142D01*
X84490476Y-43504761D01*
X84585714Y-43552380D01*
X84776190Y-43552380D01*
X84871428Y-43504761D01*
X84919047Y-43457142D01*
X84966666Y-43361904D01*
X84966666Y-43123809D01*
X84919047Y-43028571D01*
X84871428Y-42980952D01*
X84776190Y-42933333D01*
X84585714Y-42933333D01*
X84490476Y-42980952D01*
X84442857Y-43028571D01*
X84395238Y-43123809D01*
X96082380Y-35078333D02*
X96796666Y-35078333D01*
X96939523Y-35125952D01*
X97034761Y-35221190D01*
X97082380Y-35364047D01*
X97082380Y-35459285D01*
X97082380Y-34078333D02*
X97082380Y-34649761D01*
X97082380Y-34364047D02*
X96082380Y-34364047D01*
X96225238Y-34459285D01*
X96320476Y-34554523D01*
X96368095Y-34649761D01*
X95066666Y-105352380D02*
X95066666Y-106066666D01*
X95019047Y-106209523D01*
X94923809Y-106304761D01*
X94780952Y-106352380D01*
X94685714Y-106352380D01*
X95971428Y-105685714D02*
X95971428Y-106352380D01*
X95733333Y-105304761D02*
X95495238Y-106019047D01*
X96114285Y-106019047D01*
X93566666Y-78152380D02*
X93566666Y-78866666D01*
X93519047Y-79009523D01*
X93423809Y-79104761D01*
X93280952Y-79152380D01*
X93185714Y-79152380D01*
X93995238Y-78247619D02*
X94042857Y-78200000D01*
X94138095Y-78152380D01*
X94376190Y-78152380D01*
X94471428Y-78200000D01*
X94519047Y-78247619D01*
X94566666Y-78342857D01*
X94566666Y-78438095D01*
X94519047Y-78580952D01*
X93947619Y-79152380D01*
X94566666Y-79152380D01*
X112138095Y-48952380D02*
X112138095Y-49761904D01*
X112185714Y-49857142D01*
X112233333Y-49904761D01*
X112328571Y-49952380D01*
X112519047Y-49952380D01*
X112614285Y-49904761D01*
X112661904Y-49857142D01*
X112709523Y-49761904D01*
X112709523Y-48952380D01*
X113614285Y-49285714D02*
X113614285Y-49952380D01*
X113376190Y-48904761D02*
X113138095Y-49619047D01*
X113757142Y-49619047D01*
X101038095Y-48952380D02*
X101038095Y-49761904D01*
X101085714Y-49857142D01*
X101133333Y-49904761D01*
X101228571Y-49952380D01*
X101419047Y-49952380D01*
X101514285Y-49904761D01*
X101561904Y-49857142D01*
X101609523Y-49761904D01*
X101609523Y-48952380D01*
X101990476Y-48952380D02*
X102609523Y-48952380D01*
X102276190Y-49333333D01*
X102419047Y-49333333D01*
X102514285Y-49380952D01*
X102561904Y-49428571D01*
X102609523Y-49523809D01*
X102609523Y-49761904D01*
X102561904Y-49857142D01*
X102514285Y-49904761D01*
X102419047Y-49952380D01*
X102133333Y-49952380D01*
X102038095Y-49904761D01*
X101990476Y-49857142D01*
X112452380Y-57061904D02*
X113261904Y-57061904D01*
X113357142Y-57014285D01*
X113404761Y-56966666D01*
X113452380Y-56871428D01*
X113452380Y-56680952D01*
X113404761Y-56585714D01*
X113357142Y-56538095D01*
X113261904Y-56490476D01*
X112452380Y-56490476D01*
X112452380Y-55538095D02*
X112452380Y-56014285D01*
X112928571Y-56061904D01*
X112880952Y-56014285D01*
X112833333Y-55919047D01*
X112833333Y-55680952D01*
X112880952Y-55585714D01*
X112928571Y-55538095D01*
X113023809Y-55490476D01*
X113261904Y-55490476D01*
X113357142Y-55538095D01*
X113404761Y-55585714D01*
X113452380Y-55680952D01*
X113452380Y-55919047D01*
X113404761Y-56014285D01*
X113357142Y-56061904D01*
X83966666Y-31652380D02*
X83966666Y-32366666D01*
X83919047Y-32509523D01*
X83823809Y-32604761D01*
X83680952Y-32652380D01*
X83585714Y-32652380D01*
X84919047Y-31652380D02*
X84442857Y-31652380D01*
X84395238Y-32128571D01*
X84442857Y-32080952D01*
X84538095Y-32033333D01*
X84776190Y-32033333D01*
X84871428Y-32080952D01*
X84919047Y-32128571D01*
X84966666Y-32223809D01*
X84966666Y-32461904D01*
X84919047Y-32557142D01*
X84871428Y-32604761D01*
X84776190Y-32652380D01*
X84538095Y-32652380D01*
X84442857Y-32604761D01*
X84395238Y-32557142D01*
X133038095Y-39252380D02*
X133038095Y-40061904D01*
X133085714Y-40157142D01*
X133133333Y-40204761D01*
X133228571Y-40252380D01*
X133419047Y-40252380D01*
X133514285Y-40204761D01*
X133561904Y-40157142D01*
X133609523Y-40061904D01*
X133609523Y-39252380D01*
X134038095Y-39347619D02*
X134085714Y-39300000D01*
X134180952Y-39252380D01*
X134419047Y-39252380D01*
X134514285Y-39300000D01*
X134561904Y-39347619D01*
X134609523Y-39442857D01*
X134609523Y-39538095D01*
X134561904Y-39680952D01*
X133990476Y-40252380D01*
X134609523Y-40252380D01*
X134052380Y-51566666D02*
X133576190Y-51900000D01*
X134052380Y-52138095D02*
X133052380Y-52138095D01*
X133052380Y-51757142D01*
X133100000Y-51661904D01*
X133147619Y-51614285D01*
X133242857Y-51566666D01*
X133385714Y-51566666D01*
X133480952Y-51614285D01*
X133528571Y-51661904D01*
X133576190Y-51757142D01*
X133576190Y-52138095D01*
X133147619Y-51185714D02*
X133100000Y-51138095D01*
X133052380Y-51042857D01*
X133052380Y-50804761D01*
X133100000Y-50709523D01*
X133147619Y-50661904D01*
X133242857Y-50614285D01*
X133338095Y-50614285D01*
X133480952Y-50661904D01*
X134052380Y-51233333D01*
X134052380Y-50614285D01*
X131857142Y-51566666D02*
X131904761Y-51614285D01*
X131952380Y-51757142D01*
X131952380Y-51852380D01*
X131904761Y-51995238D01*
X131809523Y-52090476D01*
X131714285Y-52138095D01*
X131523809Y-52185714D01*
X131380952Y-52185714D01*
X131190476Y-52138095D01*
X131095238Y-52090476D01*
X131000000Y-51995238D01*
X130952380Y-51852380D01*
X130952380Y-51757142D01*
X131000000Y-51614285D01*
X131047619Y-51566666D01*
X130952380Y-51233333D02*
X130952380Y-50614285D01*
X131333333Y-50947619D01*
X131333333Y-50804761D01*
X131380952Y-50709523D01*
X131428571Y-50661904D01*
X131523809Y-50614285D01*
X131761904Y-50614285D01*
X131857142Y-50661904D01*
X131904761Y-50709523D01*
X131952380Y-50804761D01*
X131952380Y-51090476D01*
X131904761Y-51185714D01*
X131857142Y-51233333D01*
X145557142Y-38466666D02*
X145604761Y-38514285D01*
X145652380Y-38657142D01*
X145652380Y-38752380D01*
X145604761Y-38895238D01*
X145509523Y-38990476D01*
X145414285Y-39038095D01*
X145223809Y-39085714D01*
X145080952Y-39085714D01*
X144890476Y-39038095D01*
X144795238Y-38990476D01*
X144700000Y-38895238D01*
X144652380Y-38752380D01*
X144652380Y-38657142D01*
X144700000Y-38514285D01*
X144747619Y-38466666D01*
X144747619Y-38085714D02*
X144700000Y-38038095D01*
X144652380Y-37942857D01*
X144652380Y-37704761D01*
X144700000Y-37609523D01*
X144747619Y-37561904D01*
X144842857Y-37514285D01*
X144938095Y-37514285D01*
X145080952Y-37561904D01*
X145652380Y-38133333D01*
X145652380Y-37514285D01*
X133857142Y-47866666D02*
X133904761Y-47914285D01*
X133952380Y-48057142D01*
X133952380Y-48152380D01*
X133904761Y-48295238D01*
X133809523Y-48390476D01*
X133714285Y-48438095D01*
X133523809Y-48485714D01*
X133380952Y-48485714D01*
X133190476Y-48438095D01*
X133095238Y-48390476D01*
X133000000Y-48295238D01*
X132952380Y-48152380D01*
X132952380Y-48057142D01*
X133000000Y-47914285D01*
X133047619Y-47866666D01*
X133952380Y-46914285D02*
X133952380Y-47485714D01*
X133952380Y-47200000D02*
X132952380Y-47200000D01*
X133095238Y-47295238D01*
X133190476Y-47390476D01*
X133238095Y-47485714D01*
X137638095Y-55042380D02*
X137638095Y-55851904D01*
X137685714Y-55947142D01*
X137733333Y-55994761D01*
X137828571Y-56042380D01*
X138019047Y-56042380D01*
X138114285Y-55994761D01*
X138161904Y-55947142D01*
X138209523Y-55851904D01*
X138209523Y-55042380D01*
X139209523Y-56042380D02*
X138638095Y-56042380D01*
X138923809Y-56042380D02*
X138923809Y-55042380D01*
X138828571Y-55185238D01*
X138733333Y-55280476D01*
X138638095Y-55328095D01*
X86957142Y-64802380D02*
X86623809Y-64326190D01*
X86385714Y-64802380D02*
X86385714Y-63802380D01*
X86766666Y-63802380D01*
X86861904Y-63850000D01*
X86909523Y-63897619D01*
X86957142Y-63992857D01*
X86957142Y-64135714D01*
X86909523Y-64230952D01*
X86861904Y-64278571D01*
X86766666Y-64326190D01*
X86385714Y-64326190D01*
X87909523Y-64802380D02*
X87338095Y-64802380D01*
X87623809Y-64802380D02*
X87623809Y-63802380D01*
X87528571Y-63945238D01*
X87433333Y-64040476D01*
X87338095Y-64088095D01*
X88814285Y-63802380D02*
X88338095Y-63802380D01*
X88290476Y-64278571D01*
X88338095Y-64230952D01*
X88433333Y-64183333D01*
X88671428Y-64183333D01*
X88766666Y-64230952D01*
X88814285Y-64278571D01*
X88861904Y-64373809D01*
X88861904Y-64611904D01*
X88814285Y-64707142D01*
X88766666Y-64754761D01*
X88671428Y-64802380D01*
X88433333Y-64802380D01*
X88338095Y-64754761D01*
X88290476Y-64707142D01*
X81866666Y-59182380D02*
X81866666Y-59896666D01*
X81819047Y-60039523D01*
X81723809Y-60134761D01*
X81580952Y-60182380D01*
X81485714Y-60182380D01*
X82247619Y-59182380D02*
X82866666Y-59182380D01*
X82533333Y-59563333D01*
X82676190Y-59563333D01*
X82771428Y-59610952D01*
X82819047Y-59658571D01*
X82866666Y-59753809D01*
X82866666Y-59991904D01*
X82819047Y-60087142D01*
X82771428Y-60134761D01*
X82676190Y-60182380D01*
X82390476Y-60182380D01*
X82295238Y-60134761D01*
X82247619Y-60087142D01*
X115857142Y-66766666D02*
X115904761Y-66814285D01*
X115952380Y-66957142D01*
X115952380Y-67052380D01*
X115904761Y-67195238D01*
X115809523Y-67290476D01*
X115714285Y-67338095D01*
X115523809Y-67385714D01*
X115380952Y-67385714D01*
X115190476Y-67338095D01*
X115095238Y-67290476D01*
X115000000Y-67195238D01*
X114952380Y-67052380D01*
X114952380Y-66957142D01*
X115000000Y-66814285D01*
X115047619Y-66766666D01*
X115380952Y-66195238D02*
X115333333Y-66290476D01*
X115285714Y-66338095D01*
X115190476Y-66385714D01*
X115142857Y-66385714D01*
X115047619Y-66338095D01*
X115000000Y-66290476D01*
X114952380Y-66195238D01*
X114952380Y-66004761D01*
X115000000Y-65909523D01*
X115047619Y-65861904D01*
X115142857Y-65814285D01*
X115190476Y-65814285D01*
X115285714Y-65861904D01*
X115333333Y-65909523D01*
X115380952Y-66004761D01*
X115380952Y-66195238D01*
X115428571Y-66290476D01*
X115476190Y-66338095D01*
X115571428Y-66385714D01*
X115761904Y-66385714D01*
X115857142Y-66338095D01*
X115904761Y-66290476D01*
X115952380Y-66195238D01*
X115952380Y-66004761D01*
X115904761Y-65909523D01*
X115857142Y-65861904D01*
X115761904Y-65814285D01*
X115571428Y-65814285D01*
X115476190Y-65861904D01*
X115428571Y-65909523D01*
X115380952Y-66004761D01*
X98857142Y-65766666D02*
X98904761Y-65814285D01*
X98952380Y-65957142D01*
X98952380Y-66052380D01*
X98904761Y-66195238D01*
X98809523Y-66290476D01*
X98714285Y-66338095D01*
X98523809Y-66385714D01*
X98380952Y-66385714D01*
X98190476Y-66338095D01*
X98095238Y-66290476D01*
X98000000Y-66195238D01*
X97952380Y-66052380D01*
X97952380Y-65957142D01*
X98000000Y-65814285D01*
X98047619Y-65766666D01*
X97952380Y-64909523D02*
X97952380Y-65100000D01*
X98000000Y-65195238D01*
X98047619Y-65242857D01*
X98190476Y-65338095D01*
X98380952Y-65385714D01*
X98761904Y-65385714D01*
X98857142Y-65338095D01*
X98904761Y-65290476D01*
X98952380Y-65195238D01*
X98952380Y-65004761D01*
X98904761Y-64909523D01*
X98857142Y-64861904D01*
X98761904Y-64814285D01*
X98523809Y-64814285D01*
X98428571Y-64861904D01*
X98380952Y-64909523D01*
X98333333Y-65004761D01*
X98333333Y-65195238D01*
X98380952Y-65290476D01*
X98428571Y-65338095D01*
X98523809Y-65385714D01*
M02*
