G04 #@! TF.GenerationSoftware,KiCad,Pcbnew,5.1.5+dfsg1-2build2*
G04 #@! TF.CreationDate,2022-08-24T07:57:04+01:00*
G04 #@! TF.ProjectId,psion-org2-main,7073696f-6e2d-46f7-9267-322d6d61696e,rev?*
G04 #@! TF.SameCoordinates,Original*
G04 #@! TF.FileFunction,Soldermask,Top*
G04 #@! TF.FilePolarity,Negative*
%FSLAX46Y46*%
G04 Gerber Fmt 4.6, Leading zero omitted, Abs format (unit mm)*
G04 Created by KiCad (PCBNEW 5.1.5+dfsg1-2build2) date 2022-08-24 07:57:04*
%MOMM*%
%LPD*%
G04 APERTURE LIST*
%ADD10C,0.100000*%
G04 APERTURE END LIST*
D10*
G36*
X200875000Y-106075000D02*
G01*
X197325000Y-106075000D01*
X197325000Y-102425000D01*
X200875000Y-102425000D01*
X200875000Y-106075000D01*
G37*
X200875000Y-106075000D02*
X197325000Y-106075000D01*
X197325000Y-102425000D01*
X200875000Y-102425000D01*
X200875000Y-106075000D01*
G36*
X200875000Y-158575000D02*
G01*
X197325000Y-158575000D01*
X197325000Y-154925000D01*
X200875000Y-154925000D01*
X200875000Y-158575000D01*
G37*
X200875000Y-158575000D02*
X197325000Y-158575000D01*
X197325000Y-154925000D01*
X200875000Y-154925000D01*
X200875000Y-158575000D01*
G36*
X200775000Y-148075000D02*
G01*
X197225000Y-148075000D01*
X197225000Y-144425000D01*
X200775000Y-144425000D01*
X200775000Y-148075000D01*
G37*
X200775000Y-148075000D02*
X197225000Y-148075000D01*
X197225000Y-144425000D01*
X200775000Y-144425000D01*
X200775000Y-148075000D01*
G36*
X200875000Y-137475000D02*
G01*
X197325000Y-137475000D01*
X197325000Y-133825000D01*
X200875000Y-133825000D01*
X200875000Y-137475000D01*
G37*
X200875000Y-137475000D02*
X197325000Y-137475000D01*
X197325000Y-133825000D01*
X200875000Y-133825000D01*
X200875000Y-137475000D01*
G36*
X200875000Y-127075000D02*
G01*
X197325000Y-127075000D01*
X197325000Y-123425000D01*
X200875000Y-123425000D01*
X200875000Y-127075000D01*
G37*
X200875000Y-127075000D02*
X197325000Y-127075000D01*
X197325000Y-123425000D01*
X200875000Y-123425000D01*
X200875000Y-127075000D01*
G36*
X200875000Y-116575000D02*
G01*
X197325000Y-116575000D01*
X197325000Y-112925000D01*
X200875000Y-112925000D01*
X200875000Y-116575000D01*
G37*
X200875000Y-116575000D02*
X197325000Y-116575000D01*
X197325000Y-112925000D01*
X200875000Y-112925000D01*
X200875000Y-116575000D01*
G36*
X190375000Y-158575000D02*
G01*
X186825000Y-158575000D01*
X186825000Y-154925000D01*
X190375000Y-154925000D01*
X190375000Y-158575000D01*
G37*
X190375000Y-158575000D02*
X186825000Y-158575000D01*
X186825000Y-154925000D01*
X190375000Y-154925000D01*
X190375000Y-158575000D01*
G36*
X190375000Y-147975000D02*
G01*
X186825000Y-147975000D01*
X186825000Y-144325000D01*
X190375000Y-144325000D01*
X190375000Y-147975000D01*
G37*
X190375000Y-147975000D02*
X186825000Y-147975000D01*
X186825000Y-144325000D01*
X190375000Y-144325000D01*
X190375000Y-147975000D01*
G36*
X190375000Y-137575000D02*
G01*
X186825000Y-137575000D01*
X186825000Y-133925000D01*
X190375000Y-133925000D01*
X190375000Y-137575000D01*
G37*
X190375000Y-137575000D02*
X186825000Y-137575000D01*
X186825000Y-133925000D01*
X190375000Y-133925000D01*
X190375000Y-137575000D01*
G36*
X190375000Y-127075000D02*
G01*
X186825000Y-127075000D01*
X186825000Y-123425000D01*
X190375000Y-123425000D01*
X190375000Y-127075000D01*
G37*
X190375000Y-127075000D02*
X186825000Y-127075000D01*
X186825000Y-123425000D01*
X190375000Y-123425000D01*
X190375000Y-127075000D01*
G36*
X190375000Y-116575000D02*
G01*
X186825000Y-116575000D01*
X186825000Y-112925000D01*
X190375000Y-112925000D01*
X190375000Y-116575000D01*
G37*
X190375000Y-116575000D02*
X186825000Y-116575000D01*
X186825000Y-112925000D01*
X190375000Y-112925000D01*
X190375000Y-116575000D01*
G36*
X190375000Y-106075000D02*
G01*
X186825000Y-106075000D01*
X186825000Y-102425000D01*
X190375000Y-102425000D01*
X190375000Y-106075000D01*
G37*
X190375000Y-106075000D02*
X186825000Y-106075000D01*
X186825000Y-102425000D01*
X190375000Y-102425000D01*
X190375000Y-106075000D01*
G36*
X179875000Y-158475000D02*
G01*
X176325000Y-158475000D01*
X176325000Y-154825000D01*
X179875000Y-154825000D01*
X179875000Y-158475000D01*
G37*
X179875000Y-158475000D02*
X176325000Y-158475000D01*
X176325000Y-154825000D01*
X179875000Y-154825000D01*
X179875000Y-158475000D01*
G36*
X179875000Y-147975000D02*
G01*
X176325000Y-147975000D01*
X176325000Y-144325000D01*
X179875000Y-144325000D01*
X179875000Y-147975000D01*
G37*
X179875000Y-147975000D02*
X176325000Y-147975000D01*
X176325000Y-144325000D01*
X179875000Y-144325000D01*
X179875000Y-147975000D01*
G36*
X179975000Y-137475000D02*
G01*
X176425000Y-137475000D01*
X176425000Y-133825000D01*
X179975000Y-133825000D01*
X179975000Y-137475000D01*
G37*
X179975000Y-137475000D02*
X176425000Y-137475000D01*
X176425000Y-133825000D01*
X179975000Y-133825000D01*
X179975000Y-137475000D01*
G36*
X179575000Y-127275000D02*
G01*
X176025000Y-127275000D01*
X176025000Y-123625000D01*
X179575000Y-123625000D01*
X179575000Y-127275000D01*
G37*
X179575000Y-127275000D02*
X176025000Y-127275000D01*
X176025000Y-123625000D01*
X179575000Y-123625000D01*
X179575000Y-127275000D01*
G36*
X179875000Y-116575000D02*
G01*
X176325000Y-116575000D01*
X176325000Y-112925000D01*
X179875000Y-112925000D01*
X179875000Y-116575000D01*
G37*
X179875000Y-116575000D02*
X176325000Y-116575000D01*
X176325000Y-112925000D01*
X179875000Y-112925000D01*
X179875000Y-116575000D01*
G36*
X179875000Y-106075000D02*
G01*
X176325000Y-106075000D01*
X176325000Y-102425000D01*
X179875000Y-102425000D01*
X179875000Y-106075000D01*
G37*
X179875000Y-106075000D02*
X176325000Y-106075000D01*
X176325000Y-102425000D01*
X179875000Y-102425000D01*
X179875000Y-106075000D01*
G36*
X169275000Y-158475000D02*
G01*
X165725000Y-158475000D01*
X165725000Y-154825000D01*
X169275000Y-154825000D01*
X169275000Y-158475000D01*
G37*
X169275000Y-158475000D02*
X165725000Y-158475000D01*
X165725000Y-154825000D01*
X169275000Y-154825000D01*
X169275000Y-158475000D01*
G36*
X169375000Y-148075000D02*
G01*
X165825000Y-148075000D01*
X165825000Y-144425000D01*
X169375000Y-144425000D01*
X169375000Y-148075000D01*
G37*
X169375000Y-148075000D02*
X165825000Y-148075000D01*
X165825000Y-144425000D01*
X169375000Y-144425000D01*
X169375000Y-148075000D01*
G36*
X169375000Y-137575000D02*
G01*
X165825000Y-137575000D01*
X165825000Y-133925000D01*
X169375000Y-133925000D01*
X169375000Y-137575000D01*
G37*
X169375000Y-137575000D02*
X165825000Y-137575000D01*
X165825000Y-133925000D01*
X169375000Y-133925000D01*
X169375000Y-137575000D01*
G36*
X169375000Y-127075000D02*
G01*
X165825000Y-127075000D01*
X165825000Y-123425000D01*
X169375000Y-123425000D01*
X169375000Y-127075000D01*
G37*
X169375000Y-127075000D02*
X165825000Y-127075000D01*
X165825000Y-123425000D01*
X169375000Y-123425000D01*
X169375000Y-127075000D01*
G36*
X169375000Y-116575000D02*
G01*
X165825000Y-116575000D01*
X165825000Y-112925000D01*
X169375000Y-112925000D01*
X169375000Y-116575000D01*
G37*
X169375000Y-116575000D02*
X165825000Y-116575000D01*
X165825000Y-112925000D01*
X169375000Y-112925000D01*
X169375000Y-116575000D01*
G36*
X169375000Y-106075000D02*
G01*
X165825000Y-106075000D01*
X165825000Y-102425000D01*
X169375000Y-102425000D01*
X169375000Y-106075000D01*
G37*
X169375000Y-106075000D02*
X165825000Y-106075000D01*
X165825000Y-102425000D01*
X169375000Y-102425000D01*
X169375000Y-106075000D01*
G36*
X158875000Y-158575000D02*
G01*
X155325000Y-158575000D01*
X155325000Y-154925000D01*
X158875000Y-154925000D01*
X158875000Y-158575000D01*
G37*
X158875000Y-158575000D02*
X155325000Y-158575000D01*
X155325000Y-154925000D01*
X158875000Y-154925000D01*
X158875000Y-158575000D01*
G36*
X158875000Y-147975000D02*
G01*
X155325000Y-147975000D01*
X155325000Y-144325000D01*
X158875000Y-144325000D01*
X158875000Y-147975000D01*
G37*
X158875000Y-147975000D02*
X155325000Y-147975000D01*
X155325000Y-144325000D01*
X158875000Y-144325000D01*
X158875000Y-147975000D01*
G36*
X158875000Y-137475000D02*
G01*
X155325000Y-137475000D01*
X155325000Y-133825000D01*
X158875000Y-133825000D01*
X158875000Y-137475000D01*
G37*
X158875000Y-137475000D02*
X155325000Y-137475000D01*
X155325000Y-133825000D01*
X158875000Y-133825000D01*
X158875000Y-137475000D01*
G36*
X158875000Y-127075000D02*
G01*
X155325000Y-127075000D01*
X155325000Y-123425000D01*
X158875000Y-123425000D01*
X158875000Y-127075000D01*
G37*
X158875000Y-127075000D02*
X155325000Y-127075000D01*
X155325000Y-123425000D01*
X158875000Y-123425000D01*
X158875000Y-127075000D01*
G36*
X158875000Y-116575000D02*
G01*
X155325000Y-116575000D01*
X155325000Y-112925000D01*
X158875000Y-112925000D01*
X158875000Y-116575000D01*
G37*
X158875000Y-116575000D02*
X155325000Y-116575000D01*
X155325000Y-112925000D01*
X158875000Y-112925000D01*
X158875000Y-116575000D01*
G36*
X158875000Y-106075000D02*
G01*
X155325000Y-106075000D01*
X155325000Y-102425000D01*
X158875000Y-102425000D01*
X158875000Y-106075000D01*
G37*
X158875000Y-106075000D02*
X155325000Y-106075000D01*
X155325000Y-102425000D01*
X158875000Y-102425000D01*
X158875000Y-106075000D01*
G36*
X148475000Y-158575000D02*
G01*
X144925000Y-158575000D01*
X144925000Y-154925000D01*
X148475000Y-154925000D01*
X148475000Y-158575000D01*
G37*
X148475000Y-158575000D02*
X144925000Y-158575000D01*
X144925000Y-154925000D01*
X148475000Y-154925000D01*
X148475000Y-158575000D01*
G36*
X148375000Y-148075000D02*
G01*
X144825000Y-148075000D01*
X144825000Y-144425000D01*
X148375000Y-144425000D01*
X148375000Y-148075000D01*
G37*
X148375000Y-148075000D02*
X144825000Y-148075000D01*
X144825000Y-144425000D01*
X148375000Y-144425000D01*
X148375000Y-148075000D01*
G36*
X148375000Y-137475000D02*
G01*
X144825000Y-137475000D01*
X144825000Y-133825000D01*
X148375000Y-133825000D01*
X148375000Y-137475000D01*
G37*
X148375000Y-137475000D02*
X144825000Y-137475000D01*
X144825000Y-133825000D01*
X148375000Y-133825000D01*
X148375000Y-137475000D01*
G36*
X148375000Y-126975000D02*
G01*
X144825000Y-126975000D01*
X144825000Y-123325000D01*
X148375000Y-123325000D01*
X148375000Y-126975000D01*
G37*
X148375000Y-126975000D02*
X144825000Y-126975000D01*
X144825000Y-123325000D01*
X148375000Y-123325000D01*
X148375000Y-126975000D01*
G36*
X148375000Y-116575000D02*
G01*
X144825000Y-116575000D01*
X144825000Y-112925000D01*
X148375000Y-112925000D01*
X148375000Y-116575000D01*
G37*
X148375000Y-116575000D02*
X144825000Y-116575000D01*
X144825000Y-112925000D01*
X148375000Y-112925000D01*
X148375000Y-116575000D01*
G36*
X148575000Y-105775000D02*
G01*
X145025000Y-105775000D01*
X145025000Y-102125000D01*
X148575000Y-102125000D01*
X148575000Y-105775000D01*
G37*
X148575000Y-105775000D02*
X145025000Y-105775000D01*
X145025000Y-102125000D01*
X148575000Y-102125000D01*
X148575000Y-105775000D01*
G36*
X142213512Y-159003927D02*
G01*
X142362812Y-159033624D01*
X142526784Y-159101544D01*
X142674354Y-159200147D01*
X142799853Y-159325646D01*
X142898456Y-159473216D01*
X142966376Y-159637188D01*
X143001000Y-159811259D01*
X143001000Y-159988741D01*
X142966376Y-160162812D01*
X142898456Y-160326784D01*
X142799853Y-160474354D01*
X142674354Y-160599853D01*
X142526784Y-160698456D01*
X142362812Y-160766376D01*
X142213512Y-160796073D01*
X142188742Y-160801000D01*
X142011258Y-160801000D01*
X141986488Y-160796073D01*
X141837188Y-160766376D01*
X141673216Y-160698456D01*
X141525646Y-160599853D01*
X141400147Y-160474354D01*
X141301544Y-160326784D01*
X141233624Y-160162812D01*
X141199000Y-159988741D01*
X141199000Y-159811259D01*
X141233624Y-159637188D01*
X141301544Y-159473216D01*
X141400147Y-159325646D01*
X141525646Y-159200147D01*
X141673216Y-159101544D01*
X141837188Y-159033624D01*
X141986488Y-159003927D01*
X142011258Y-158999000D01*
X142188742Y-158999000D01*
X142213512Y-159003927D01*
G37*
G36*
X201001000Y-158701000D02*
G01*
X197199000Y-158701000D01*
X197199000Y-154799000D01*
X201001000Y-154799000D01*
X201001000Y-158701000D01*
G37*
G36*
X190501000Y-158701000D02*
G01*
X186699000Y-158701000D01*
X186699000Y-154799000D01*
X190501000Y-154799000D01*
X190501000Y-158701000D01*
G37*
G36*
X159001000Y-158701000D02*
G01*
X155199000Y-158701000D01*
X155199000Y-154799000D01*
X159001000Y-154799000D01*
X159001000Y-158701000D01*
G37*
G36*
X148601000Y-158701000D02*
G01*
X144799000Y-158701000D01*
X144799000Y-154799000D01*
X148601000Y-154799000D01*
X148601000Y-158701000D01*
G37*
G36*
X169401000Y-158601000D02*
G01*
X165599000Y-158601000D01*
X165599000Y-154699000D01*
X169401000Y-154699000D01*
X169401000Y-158601000D01*
G37*
G36*
X180001000Y-158601000D02*
G01*
X176199000Y-158601000D01*
X176199000Y-154699000D01*
X180001000Y-154699000D01*
X180001000Y-158601000D01*
G37*
G36*
X142213512Y-156463927D02*
G01*
X142362812Y-156493624D01*
X142526784Y-156561544D01*
X142674354Y-156660147D01*
X142799853Y-156785646D01*
X142898456Y-156933216D01*
X142966376Y-157097188D01*
X143001000Y-157271259D01*
X143001000Y-157448741D01*
X142966376Y-157622812D01*
X142898456Y-157786784D01*
X142799853Y-157934354D01*
X142674354Y-158059853D01*
X142526784Y-158158456D01*
X142362812Y-158226376D01*
X142213512Y-158256073D01*
X142188742Y-158261000D01*
X142011258Y-158261000D01*
X141986488Y-158256073D01*
X141837188Y-158226376D01*
X141673216Y-158158456D01*
X141525646Y-158059853D01*
X141400147Y-157934354D01*
X141301544Y-157786784D01*
X141233624Y-157622812D01*
X141199000Y-157448741D01*
X141199000Y-157271259D01*
X141233624Y-157097188D01*
X141301544Y-156933216D01*
X141400147Y-156785646D01*
X141525646Y-156660147D01*
X141673216Y-156561544D01*
X141837188Y-156493624D01*
X141986488Y-156463927D01*
X142011258Y-156459000D01*
X142188742Y-156459000D01*
X142213512Y-156463927D01*
G37*
G36*
X142213512Y-153923927D02*
G01*
X142362812Y-153953624D01*
X142526784Y-154021544D01*
X142674354Y-154120147D01*
X142799853Y-154245646D01*
X142898456Y-154393216D01*
X142966376Y-154557188D01*
X143001000Y-154731259D01*
X143001000Y-154908741D01*
X142966376Y-155082812D01*
X142898456Y-155246784D01*
X142799853Y-155394354D01*
X142674354Y-155519853D01*
X142526784Y-155618456D01*
X142362812Y-155686376D01*
X142213512Y-155716073D01*
X142188742Y-155721000D01*
X142011258Y-155721000D01*
X141986488Y-155716073D01*
X141837188Y-155686376D01*
X141673216Y-155618456D01*
X141525646Y-155519853D01*
X141400147Y-155394354D01*
X141301544Y-155246784D01*
X141233624Y-155082812D01*
X141199000Y-154908741D01*
X141199000Y-154731259D01*
X141233624Y-154557188D01*
X141301544Y-154393216D01*
X141400147Y-154245646D01*
X141525646Y-154120147D01*
X141673216Y-154021544D01*
X141837188Y-153953624D01*
X141986488Y-153923927D01*
X142011258Y-153919000D01*
X142188742Y-153919000D01*
X142213512Y-153923927D01*
G37*
G36*
X142213512Y-151383927D02*
G01*
X142362812Y-151413624D01*
X142526784Y-151481544D01*
X142674354Y-151580147D01*
X142799853Y-151705646D01*
X142898456Y-151853216D01*
X142966376Y-152017188D01*
X143001000Y-152191259D01*
X143001000Y-152368741D01*
X142966376Y-152542812D01*
X142898456Y-152706784D01*
X142799853Y-152854354D01*
X142674354Y-152979853D01*
X142526784Y-153078456D01*
X142362812Y-153146376D01*
X142213512Y-153176073D01*
X142188742Y-153181000D01*
X142011258Y-153181000D01*
X141986488Y-153176073D01*
X141837188Y-153146376D01*
X141673216Y-153078456D01*
X141525646Y-152979853D01*
X141400147Y-152854354D01*
X141301544Y-152706784D01*
X141233624Y-152542812D01*
X141199000Y-152368741D01*
X141199000Y-152191259D01*
X141233624Y-152017188D01*
X141301544Y-151853216D01*
X141400147Y-151705646D01*
X141525646Y-151580147D01*
X141673216Y-151481544D01*
X141837188Y-151413624D01*
X141986488Y-151383927D01*
X142011258Y-151379000D01*
X142188742Y-151379000D01*
X142213512Y-151383927D01*
G37*
G36*
X142213512Y-148843927D02*
G01*
X142362812Y-148873624D01*
X142526784Y-148941544D01*
X142674354Y-149040147D01*
X142799853Y-149165646D01*
X142898456Y-149313216D01*
X142966376Y-149477188D01*
X143001000Y-149651259D01*
X143001000Y-149828741D01*
X142966376Y-150002812D01*
X142898456Y-150166784D01*
X142799853Y-150314354D01*
X142674354Y-150439853D01*
X142526784Y-150538456D01*
X142362812Y-150606376D01*
X142213512Y-150636073D01*
X142188742Y-150641000D01*
X142011258Y-150641000D01*
X141986488Y-150636073D01*
X141837188Y-150606376D01*
X141673216Y-150538456D01*
X141525646Y-150439853D01*
X141400147Y-150314354D01*
X141301544Y-150166784D01*
X141233624Y-150002812D01*
X141199000Y-149828741D01*
X141199000Y-149651259D01*
X141233624Y-149477188D01*
X141301544Y-149313216D01*
X141400147Y-149165646D01*
X141525646Y-149040147D01*
X141673216Y-148941544D01*
X141837188Y-148873624D01*
X141986488Y-148843927D01*
X142011258Y-148839000D01*
X142188742Y-148839000D01*
X142213512Y-148843927D01*
G37*
G36*
X148501000Y-148201000D02*
G01*
X144699000Y-148201000D01*
X144699000Y-144299000D01*
X148501000Y-144299000D01*
X148501000Y-148201000D01*
G37*
G36*
X200901000Y-148201000D02*
G01*
X197099000Y-148201000D01*
X197099000Y-144299000D01*
X200901000Y-144299000D01*
X200901000Y-148201000D01*
G37*
G36*
X169501000Y-148201000D02*
G01*
X165699000Y-148201000D01*
X165699000Y-144299000D01*
X169501000Y-144299000D01*
X169501000Y-148201000D01*
G37*
G36*
X159001000Y-148101000D02*
G01*
X155199000Y-148101000D01*
X155199000Y-144199000D01*
X159001000Y-144199000D01*
X159001000Y-148101000D01*
G37*
G36*
X142213512Y-146303927D02*
G01*
X142362812Y-146333624D01*
X142526784Y-146401544D01*
X142674354Y-146500147D01*
X142799853Y-146625646D01*
X142898456Y-146773216D01*
X142966376Y-146937188D01*
X142996073Y-147086488D01*
X143001000Y-147111258D01*
X143001000Y-147288742D01*
X142998562Y-147301000D01*
X142966376Y-147462812D01*
X142898456Y-147626784D01*
X142799853Y-147774354D01*
X142674354Y-147899853D01*
X142526784Y-147998456D01*
X142362812Y-148066376D01*
X142213512Y-148096073D01*
X142188742Y-148101000D01*
X142011258Y-148101000D01*
X141986488Y-148096073D01*
X141837188Y-148066376D01*
X141673216Y-147998456D01*
X141525646Y-147899853D01*
X141400147Y-147774354D01*
X141301544Y-147626784D01*
X141233624Y-147462812D01*
X141201438Y-147301000D01*
X141199000Y-147288742D01*
X141199000Y-147111258D01*
X141203927Y-147086488D01*
X141233624Y-146937188D01*
X141301544Y-146773216D01*
X141400147Y-146625646D01*
X141525646Y-146500147D01*
X141673216Y-146401544D01*
X141837188Y-146333624D01*
X141986488Y-146303927D01*
X142011258Y-146299000D01*
X142188742Y-146299000D01*
X142213512Y-146303927D01*
G37*
G36*
X180001000Y-148101000D02*
G01*
X176199000Y-148101000D01*
X176199000Y-144199000D01*
X180001000Y-144199000D01*
X180001000Y-148101000D01*
G37*
G36*
X190501000Y-148101000D02*
G01*
X186699000Y-148101000D01*
X186699000Y-144199000D01*
X190501000Y-144199000D01*
X190501000Y-148101000D01*
G37*
G36*
X142213512Y-143763927D02*
G01*
X142362812Y-143793624D01*
X142526784Y-143861544D01*
X142674354Y-143960147D01*
X142799853Y-144085646D01*
X142898456Y-144233216D01*
X142966376Y-144397188D01*
X143001000Y-144571259D01*
X143001000Y-144748741D01*
X142966376Y-144922812D01*
X142898456Y-145086784D01*
X142799853Y-145234354D01*
X142674354Y-145359853D01*
X142526784Y-145458456D01*
X142362812Y-145526376D01*
X142213512Y-145556073D01*
X142188742Y-145561000D01*
X142011258Y-145561000D01*
X141986488Y-145556073D01*
X141837188Y-145526376D01*
X141673216Y-145458456D01*
X141525646Y-145359853D01*
X141400147Y-145234354D01*
X141301544Y-145086784D01*
X141233624Y-144922812D01*
X141199000Y-144748741D01*
X141199000Y-144571259D01*
X141233624Y-144397188D01*
X141301544Y-144233216D01*
X141400147Y-144085646D01*
X141525646Y-143960147D01*
X141673216Y-143861544D01*
X141837188Y-143793624D01*
X141986488Y-143763927D01*
X142011258Y-143759000D01*
X142188742Y-143759000D01*
X142213512Y-143763927D01*
G37*
G36*
X142213512Y-141223927D02*
G01*
X142362812Y-141253624D01*
X142526784Y-141321544D01*
X142674354Y-141420147D01*
X142799853Y-141545646D01*
X142898456Y-141693216D01*
X142966376Y-141857188D01*
X143001000Y-142031259D01*
X143001000Y-142208741D01*
X142966376Y-142382812D01*
X142898456Y-142546784D01*
X142799853Y-142694354D01*
X142674354Y-142819853D01*
X142526784Y-142918456D01*
X142362812Y-142986376D01*
X142213512Y-143016073D01*
X142188742Y-143021000D01*
X142011258Y-143021000D01*
X141986488Y-143016073D01*
X141837188Y-142986376D01*
X141673216Y-142918456D01*
X141525646Y-142819853D01*
X141400147Y-142694354D01*
X141301544Y-142546784D01*
X141233624Y-142382812D01*
X141199000Y-142208741D01*
X141199000Y-142031259D01*
X141233624Y-141857188D01*
X141301544Y-141693216D01*
X141400147Y-141545646D01*
X141525646Y-141420147D01*
X141673216Y-141321544D01*
X141837188Y-141253624D01*
X141986488Y-141223927D01*
X142011258Y-141219000D01*
X142188742Y-141219000D01*
X142213512Y-141223927D01*
G37*
G36*
X142213512Y-138683927D02*
G01*
X142362812Y-138713624D01*
X142526784Y-138781544D01*
X142674354Y-138880147D01*
X142799853Y-139005646D01*
X142898456Y-139153216D01*
X142966376Y-139317188D01*
X143001000Y-139491259D01*
X143001000Y-139668741D01*
X142966376Y-139842812D01*
X142898456Y-140006784D01*
X142799853Y-140154354D01*
X142674354Y-140279853D01*
X142526784Y-140378456D01*
X142362812Y-140446376D01*
X142213512Y-140476073D01*
X142188742Y-140481000D01*
X142011258Y-140481000D01*
X141986488Y-140476073D01*
X141837188Y-140446376D01*
X141673216Y-140378456D01*
X141525646Y-140279853D01*
X141400147Y-140154354D01*
X141301544Y-140006784D01*
X141233624Y-139842812D01*
X141199000Y-139668741D01*
X141199000Y-139491259D01*
X141233624Y-139317188D01*
X141301544Y-139153216D01*
X141400147Y-139005646D01*
X141525646Y-138880147D01*
X141673216Y-138781544D01*
X141837188Y-138713624D01*
X141986488Y-138683927D01*
X142011258Y-138679000D01*
X142188742Y-138679000D01*
X142213512Y-138683927D01*
G37*
G36*
X142213512Y-136143927D02*
G01*
X142362812Y-136173624D01*
X142526784Y-136241544D01*
X142674354Y-136340147D01*
X142799853Y-136465646D01*
X142898456Y-136613216D01*
X142966376Y-136777188D01*
X143001000Y-136951259D01*
X143001000Y-137128741D01*
X142966376Y-137302812D01*
X142898456Y-137466784D01*
X142799853Y-137614354D01*
X142674354Y-137739853D01*
X142526784Y-137838456D01*
X142362812Y-137906376D01*
X142213512Y-137936073D01*
X142188742Y-137941000D01*
X142011258Y-137941000D01*
X141986488Y-137936073D01*
X141837188Y-137906376D01*
X141673216Y-137838456D01*
X141525646Y-137739853D01*
X141400147Y-137614354D01*
X141301544Y-137466784D01*
X141233624Y-137302812D01*
X141199000Y-137128741D01*
X141199000Y-136951259D01*
X141233624Y-136777188D01*
X141301544Y-136613216D01*
X141400147Y-136465646D01*
X141525646Y-136340147D01*
X141673216Y-136241544D01*
X141837188Y-136173624D01*
X141986488Y-136143927D01*
X142011258Y-136139000D01*
X142188742Y-136139000D01*
X142213512Y-136143927D01*
G37*
G36*
X169501000Y-137701000D02*
G01*
X165699000Y-137701000D01*
X165699000Y-133799000D01*
X169501000Y-133799000D01*
X169501000Y-137701000D01*
G37*
G36*
X190501000Y-137701000D02*
G01*
X186699000Y-137701000D01*
X186699000Y-133799000D01*
X190501000Y-133799000D01*
X190501000Y-137701000D01*
G37*
G36*
X159001000Y-137601000D02*
G01*
X155199000Y-137601000D01*
X155199000Y-133699000D01*
X159001000Y-133699000D01*
X159001000Y-137601000D01*
G37*
G36*
X201001000Y-137601000D02*
G01*
X197199000Y-137601000D01*
X197199000Y-133699000D01*
X201001000Y-133699000D01*
X201001000Y-137601000D01*
G37*
G36*
X180101000Y-137601000D02*
G01*
X176299000Y-137601000D01*
X176299000Y-133699000D01*
X180101000Y-133699000D01*
X180101000Y-137601000D01*
G37*
G36*
X148501000Y-137601000D02*
G01*
X144699000Y-137601000D01*
X144699000Y-133699000D01*
X148501000Y-133699000D01*
X148501000Y-137601000D01*
G37*
G36*
X142213512Y-133603927D02*
G01*
X142362812Y-133633624D01*
X142526784Y-133701544D01*
X142674354Y-133800147D01*
X142799853Y-133925646D01*
X142898456Y-134073216D01*
X142966376Y-134237188D01*
X142996073Y-134386488D01*
X143001000Y-134411258D01*
X143001000Y-134588742D01*
X142998562Y-134601000D01*
X142966376Y-134762812D01*
X142898456Y-134926784D01*
X142799853Y-135074354D01*
X142674354Y-135199853D01*
X142526784Y-135298456D01*
X142362812Y-135366376D01*
X142213512Y-135396073D01*
X142188742Y-135401000D01*
X142011258Y-135401000D01*
X141986488Y-135396073D01*
X141837188Y-135366376D01*
X141673216Y-135298456D01*
X141525646Y-135199853D01*
X141400147Y-135074354D01*
X141301544Y-134926784D01*
X141233624Y-134762812D01*
X141201438Y-134601000D01*
X141199000Y-134588742D01*
X141199000Y-134411258D01*
X141203927Y-134386488D01*
X141233624Y-134237188D01*
X141301544Y-134073216D01*
X141400147Y-133925646D01*
X141525646Y-133800147D01*
X141673216Y-133701544D01*
X141837188Y-133633624D01*
X141986488Y-133603927D01*
X142011258Y-133599000D01*
X142188742Y-133599000D01*
X142213512Y-133603927D01*
G37*
G36*
X142213512Y-131063927D02*
G01*
X142362812Y-131093624D01*
X142526784Y-131161544D01*
X142674354Y-131260147D01*
X142799853Y-131385646D01*
X142898456Y-131533216D01*
X142966376Y-131697188D01*
X143001000Y-131871259D01*
X143001000Y-132048741D01*
X142966376Y-132222812D01*
X142898456Y-132386784D01*
X142799853Y-132534354D01*
X142674354Y-132659853D01*
X142526784Y-132758456D01*
X142362812Y-132826376D01*
X142213512Y-132856073D01*
X142188742Y-132861000D01*
X142011258Y-132861000D01*
X141986488Y-132856073D01*
X141837188Y-132826376D01*
X141673216Y-132758456D01*
X141525646Y-132659853D01*
X141400147Y-132534354D01*
X141301544Y-132386784D01*
X141233624Y-132222812D01*
X141199000Y-132048741D01*
X141199000Y-131871259D01*
X141233624Y-131697188D01*
X141301544Y-131533216D01*
X141400147Y-131385646D01*
X141525646Y-131260147D01*
X141673216Y-131161544D01*
X141837188Y-131093624D01*
X141986488Y-131063927D01*
X142011258Y-131059000D01*
X142188742Y-131059000D01*
X142213512Y-131063927D01*
G37*
G36*
X142213512Y-128523927D02*
G01*
X142362812Y-128553624D01*
X142526784Y-128621544D01*
X142674354Y-128720147D01*
X142799853Y-128845646D01*
X142898456Y-128993216D01*
X142966376Y-129157188D01*
X143001000Y-129331259D01*
X143001000Y-129508741D01*
X142966376Y-129682812D01*
X142898456Y-129846784D01*
X142799853Y-129994354D01*
X142674354Y-130119853D01*
X142526784Y-130218456D01*
X142362812Y-130286376D01*
X142213512Y-130316073D01*
X142188742Y-130321000D01*
X142011258Y-130321000D01*
X141986488Y-130316073D01*
X141837188Y-130286376D01*
X141673216Y-130218456D01*
X141525646Y-130119853D01*
X141400147Y-129994354D01*
X141301544Y-129846784D01*
X141233624Y-129682812D01*
X141199000Y-129508741D01*
X141199000Y-129331259D01*
X141233624Y-129157188D01*
X141301544Y-128993216D01*
X141400147Y-128845646D01*
X141525646Y-128720147D01*
X141673216Y-128621544D01*
X141837188Y-128553624D01*
X141986488Y-128523927D01*
X142011258Y-128519000D01*
X142188742Y-128519000D01*
X142213512Y-128523927D01*
G37*
G36*
X142213512Y-125983927D02*
G01*
X142362812Y-126013624D01*
X142526784Y-126081544D01*
X142674354Y-126180147D01*
X142799853Y-126305646D01*
X142898456Y-126453216D01*
X142966376Y-126617188D01*
X143001000Y-126791259D01*
X143001000Y-126968741D01*
X142966376Y-127142812D01*
X142898456Y-127306784D01*
X142799853Y-127454354D01*
X142674354Y-127579853D01*
X142526784Y-127678456D01*
X142362812Y-127746376D01*
X142213512Y-127776073D01*
X142188742Y-127781000D01*
X142011258Y-127781000D01*
X141986488Y-127776073D01*
X141837188Y-127746376D01*
X141673216Y-127678456D01*
X141525646Y-127579853D01*
X141400147Y-127454354D01*
X141301544Y-127306784D01*
X141233624Y-127142812D01*
X141199000Y-126968741D01*
X141199000Y-126791259D01*
X141233624Y-126617188D01*
X141301544Y-126453216D01*
X141400147Y-126305646D01*
X141525646Y-126180147D01*
X141673216Y-126081544D01*
X141837188Y-126013624D01*
X141986488Y-125983927D01*
X142011258Y-125979000D01*
X142188742Y-125979000D01*
X142213512Y-125983927D01*
G37*
G36*
X179701000Y-127401000D02*
G01*
X175899000Y-127401000D01*
X175899000Y-123499000D01*
X179701000Y-123499000D01*
X179701000Y-127401000D01*
G37*
G36*
X190501000Y-127201000D02*
G01*
X186699000Y-127201000D01*
X186699000Y-123299000D01*
X190501000Y-123299000D01*
X190501000Y-127201000D01*
G37*
G36*
X159001000Y-127201000D02*
G01*
X155199000Y-127201000D01*
X155199000Y-123299000D01*
X159001000Y-123299000D01*
X159001000Y-127201000D01*
G37*
G36*
X201001000Y-127201000D02*
G01*
X197199000Y-127201000D01*
X197199000Y-123299000D01*
X201001000Y-123299000D01*
X201001000Y-127201000D01*
G37*
G36*
X169501000Y-127201000D02*
G01*
X165699000Y-127201000D01*
X165699000Y-123299000D01*
X169501000Y-123299000D01*
X169501000Y-127201000D01*
G37*
G36*
X148501000Y-127101000D02*
G01*
X144699000Y-127101000D01*
X144699000Y-123199000D01*
X148501000Y-123199000D01*
X148501000Y-127101000D01*
G37*
G36*
X142213512Y-123443927D02*
G01*
X142362812Y-123473624D01*
X142526784Y-123541544D01*
X142674354Y-123640147D01*
X142799853Y-123765646D01*
X142898456Y-123913216D01*
X142966376Y-124077188D01*
X143001000Y-124251259D01*
X143001000Y-124428741D01*
X142966376Y-124602812D01*
X142898456Y-124766784D01*
X142799853Y-124914354D01*
X142674354Y-125039853D01*
X142526784Y-125138456D01*
X142362812Y-125206376D01*
X142213512Y-125236073D01*
X142188742Y-125241000D01*
X142011258Y-125241000D01*
X141986488Y-125236073D01*
X141837188Y-125206376D01*
X141673216Y-125138456D01*
X141525646Y-125039853D01*
X141400147Y-124914354D01*
X141301544Y-124766784D01*
X141233624Y-124602812D01*
X141199000Y-124428741D01*
X141199000Y-124251259D01*
X141233624Y-124077188D01*
X141301544Y-123913216D01*
X141400147Y-123765646D01*
X141525646Y-123640147D01*
X141673216Y-123541544D01*
X141837188Y-123473624D01*
X141986488Y-123443927D01*
X142011258Y-123439000D01*
X142188742Y-123439000D01*
X142213512Y-123443927D01*
G37*
G36*
X142213512Y-120903927D02*
G01*
X142362812Y-120933624D01*
X142526784Y-121001544D01*
X142674354Y-121100147D01*
X142799853Y-121225646D01*
X142898456Y-121373216D01*
X142966376Y-121537188D01*
X143001000Y-121711259D01*
X143001000Y-121888741D01*
X142966376Y-122062812D01*
X142898456Y-122226784D01*
X142799853Y-122374354D01*
X142674354Y-122499853D01*
X142526784Y-122598456D01*
X142362812Y-122666376D01*
X142213512Y-122696073D01*
X142188742Y-122701000D01*
X142011258Y-122701000D01*
X141986488Y-122696073D01*
X141837188Y-122666376D01*
X141673216Y-122598456D01*
X141525646Y-122499853D01*
X141400147Y-122374354D01*
X141301544Y-122226784D01*
X141233624Y-122062812D01*
X141199000Y-121888741D01*
X141199000Y-121711259D01*
X141233624Y-121537188D01*
X141301544Y-121373216D01*
X141400147Y-121225646D01*
X141525646Y-121100147D01*
X141673216Y-121001544D01*
X141837188Y-120933624D01*
X141986488Y-120903927D01*
X142011258Y-120899000D01*
X142188742Y-120899000D01*
X142213512Y-120903927D01*
G37*
G36*
X142213512Y-118363927D02*
G01*
X142362812Y-118393624D01*
X142526784Y-118461544D01*
X142674354Y-118560147D01*
X142799853Y-118685646D01*
X142898456Y-118833216D01*
X142966376Y-118997188D01*
X143001000Y-119171259D01*
X143001000Y-119348741D01*
X142966376Y-119522812D01*
X142898456Y-119686784D01*
X142799853Y-119834354D01*
X142674354Y-119959853D01*
X142526784Y-120058456D01*
X142362812Y-120126376D01*
X142213512Y-120156073D01*
X142188742Y-120161000D01*
X142011258Y-120161000D01*
X141986488Y-120156073D01*
X141837188Y-120126376D01*
X141673216Y-120058456D01*
X141525646Y-119959853D01*
X141400147Y-119834354D01*
X141301544Y-119686784D01*
X141233624Y-119522812D01*
X141199000Y-119348741D01*
X141199000Y-119171259D01*
X141233624Y-118997188D01*
X141301544Y-118833216D01*
X141400147Y-118685646D01*
X141525646Y-118560147D01*
X141673216Y-118461544D01*
X141837188Y-118393624D01*
X141986488Y-118363927D01*
X142011258Y-118359000D01*
X142188742Y-118359000D01*
X142213512Y-118363927D01*
G37*
G36*
X142213512Y-115823927D02*
G01*
X142362812Y-115853624D01*
X142526784Y-115921544D01*
X142674354Y-116020147D01*
X142799853Y-116145646D01*
X142898456Y-116293216D01*
X142966376Y-116457188D01*
X143001000Y-116631259D01*
X143001000Y-116808741D01*
X142966376Y-116982812D01*
X142898456Y-117146784D01*
X142799853Y-117294354D01*
X142674354Y-117419853D01*
X142526784Y-117518456D01*
X142362812Y-117586376D01*
X142213512Y-117616073D01*
X142188742Y-117621000D01*
X142011258Y-117621000D01*
X141986488Y-117616073D01*
X141837188Y-117586376D01*
X141673216Y-117518456D01*
X141525646Y-117419853D01*
X141400147Y-117294354D01*
X141301544Y-117146784D01*
X141233624Y-116982812D01*
X141199000Y-116808741D01*
X141199000Y-116631259D01*
X141233624Y-116457188D01*
X141301544Y-116293216D01*
X141400147Y-116145646D01*
X141525646Y-116020147D01*
X141673216Y-115921544D01*
X141837188Y-115853624D01*
X141986488Y-115823927D01*
X142011258Y-115819000D01*
X142188742Y-115819000D01*
X142213512Y-115823927D01*
G37*
G36*
X190501000Y-116701000D02*
G01*
X186699000Y-116701000D01*
X186699000Y-112799000D01*
X190501000Y-112799000D01*
X190501000Y-116701000D01*
G37*
G36*
X169501000Y-116701000D02*
G01*
X165699000Y-116701000D01*
X165699000Y-112799000D01*
X169501000Y-112799000D01*
X169501000Y-116701000D01*
G37*
G36*
X180001000Y-116701000D02*
G01*
X176199000Y-116701000D01*
X176199000Y-112799000D01*
X180001000Y-112799000D01*
X180001000Y-116701000D01*
G37*
G36*
X201001000Y-116701000D02*
G01*
X197199000Y-116701000D01*
X197199000Y-112799000D01*
X201001000Y-112799000D01*
X201001000Y-116701000D01*
G37*
G36*
X148501000Y-116701000D02*
G01*
X144699000Y-116701000D01*
X144699000Y-112799000D01*
X148501000Y-112799000D01*
X148501000Y-116701000D01*
G37*
G36*
X159001000Y-116701000D02*
G01*
X155199000Y-116701000D01*
X155199000Y-112799000D01*
X159001000Y-112799000D01*
X159001000Y-116701000D01*
G37*
G36*
X142213512Y-113283927D02*
G01*
X142362812Y-113313624D01*
X142526784Y-113381544D01*
X142674354Y-113480147D01*
X142799853Y-113605646D01*
X142898456Y-113753216D01*
X142966376Y-113917188D01*
X143001000Y-114091259D01*
X143001000Y-114268741D01*
X142966376Y-114442812D01*
X142898456Y-114606784D01*
X142799853Y-114754354D01*
X142674354Y-114879853D01*
X142526784Y-114978456D01*
X142362812Y-115046376D01*
X142213512Y-115076073D01*
X142188742Y-115081000D01*
X142011258Y-115081000D01*
X141986488Y-115076073D01*
X141837188Y-115046376D01*
X141673216Y-114978456D01*
X141525646Y-114879853D01*
X141400147Y-114754354D01*
X141301544Y-114606784D01*
X141233624Y-114442812D01*
X141199000Y-114268741D01*
X141199000Y-114091259D01*
X141233624Y-113917188D01*
X141301544Y-113753216D01*
X141400147Y-113605646D01*
X141525646Y-113480147D01*
X141673216Y-113381544D01*
X141837188Y-113313624D01*
X141986488Y-113283927D01*
X142011258Y-113279000D01*
X142188742Y-113279000D01*
X142213512Y-113283927D01*
G37*
G36*
X142213512Y-110743927D02*
G01*
X142362812Y-110773624D01*
X142526784Y-110841544D01*
X142674354Y-110940147D01*
X142799853Y-111065646D01*
X142898456Y-111213216D01*
X142966376Y-111377188D01*
X143001000Y-111551259D01*
X143001000Y-111728741D01*
X142966376Y-111902812D01*
X142898456Y-112066784D01*
X142799853Y-112214354D01*
X142674354Y-112339853D01*
X142526784Y-112438456D01*
X142362812Y-112506376D01*
X142213512Y-112536073D01*
X142188742Y-112541000D01*
X142011258Y-112541000D01*
X141986488Y-112536073D01*
X141837188Y-112506376D01*
X141673216Y-112438456D01*
X141525646Y-112339853D01*
X141400147Y-112214354D01*
X141301544Y-112066784D01*
X141233624Y-111902812D01*
X141199000Y-111728741D01*
X141199000Y-111551259D01*
X141233624Y-111377188D01*
X141301544Y-111213216D01*
X141400147Y-111065646D01*
X141525646Y-110940147D01*
X141673216Y-110841544D01*
X141837188Y-110773624D01*
X141986488Y-110743927D01*
X142011258Y-110739000D01*
X142188742Y-110739000D01*
X142213512Y-110743927D01*
G37*
G36*
X142213512Y-108203927D02*
G01*
X142362812Y-108233624D01*
X142526784Y-108301544D01*
X142674354Y-108400147D01*
X142799853Y-108525646D01*
X142898456Y-108673216D01*
X142966376Y-108837188D01*
X143001000Y-109011259D01*
X143001000Y-109188741D01*
X142966376Y-109362812D01*
X142898456Y-109526784D01*
X142799853Y-109674354D01*
X142674354Y-109799853D01*
X142526784Y-109898456D01*
X142362812Y-109966376D01*
X142213512Y-109996073D01*
X142188742Y-110001000D01*
X142011258Y-110001000D01*
X141986488Y-109996073D01*
X141837188Y-109966376D01*
X141673216Y-109898456D01*
X141525646Y-109799853D01*
X141400147Y-109674354D01*
X141301544Y-109526784D01*
X141233624Y-109362812D01*
X141199000Y-109188741D01*
X141199000Y-109011259D01*
X141233624Y-108837188D01*
X141301544Y-108673216D01*
X141400147Y-108525646D01*
X141525646Y-108400147D01*
X141673216Y-108301544D01*
X141837188Y-108233624D01*
X141986488Y-108203927D01*
X142011258Y-108199000D01*
X142188742Y-108199000D01*
X142213512Y-108203927D01*
G37*
G36*
X142213512Y-105663927D02*
G01*
X142362812Y-105693624D01*
X142526784Y-105761544D01*
X142674354Y-105860147D01*
X142799853Y-105985646D01*
X142898456Y-106133216D01*
X142966376Y-106297188D01*
X143001000Y-106471259D01*
X143001000Y-106648741D01*
X142966376Y-106822812D01*
X142898456Y-106986784D01*
X142799853Y-107134354D01*
X142674354Y-107259853D01*
X142526784Y-107358456D01*
X142362812Y-107426376D01*
X142213512Y-107456073D01*
X142188742Y-107461000D01*
X142011258Y-107461000D01*
X141986488Y-107456073D01*
X141837188Y-107426376D01*
X141673216Y-107358456D01*
X141525646Y-107259853D01*
X141400147Y-107134354D01*
X141301544Y-106986784D01*
X141233624Y-106822812D01*
X141199000Y-106648741D01*
X141199000Y-106471259D01*
X141233624Y-106297188D01*
X141301544Y-106133216D01*
X141400147Y-105985646D01*
X141525646Y-105860147D01*
X141673216Y-105761544D01*
X141837188Y-105693624D01*
X141986488Y-105663927D01*
X142011258Y-105659000D01*
X142188742Y-105659000D01*
X142213512Y-105663927D01*
G37*
G36*
X169501000Y-106201000D02*
G01*
X165699000Y-106201000D01*
X165699000Y-102299000D01*
X169501000Y-102299000D01*
X169501000Y-106201000D01*
G37*
G36*
X190501000Y-106201000D02*
G01*
X186699000Y-106201000D01*
X186699000Y-102299000D01*
X190501000Y-102299000D01*
X190501000Y-106201000D01*
G37*
G36*
X180001000Y-106201000D02*
G01*
X176199000Y-106201000D01*
X176199000Y-102299000D01*
X180001000Y-102299000D01*
X180001000Y-106201000D01*
G37*
G36*
X159001000Y-106201000D02*
G01*
X155199000Y-106201000D01*
X155199000Y-102299000D01*
X159001000Y-102299000D01*
X159001000Y-106201000D01*
G37*
G36*
X201001000Y-106201000D02*
G01*
X197199000Y-106201000D01*
X197199000Y-102299000D01*
X201001000Y-102299000D01*
X201001000Y-106201000D01*
G37*
G36*
X148701000Y-105901000D02*
G01*
X144899000Y-105901000D01*
X144899000Y-101999000D01*
X148701000Y-101999000D01*
X148701000Y-105901000D01*
G37*
G36*
X142213512Y-103123927D02*
G01*
X142362812Y-103153624D01*
X142526784Y-103221544D01*
X142674354Y-103320147D01*
X142799853Y-103445646D01*
X142898456Y-103593216D01*
X142966376Y-103757188D01*
X143001000Y-103931259D01*
X143001000Y-104108741D01*
X142966376Y-104282812D01*
X142898456Y-104446784D01*
X142799853Y-104594354D01*
X142674354Y-104719853D01*
X142526784Y-104818456D01*
X142362812Y-104886376D01*
X142213512Y-104916073D01*
X142188742Y-104921000D01*
X142011258Y-104921000D01*
X141986488Y-104916073D01*
X141837188Y-104886376D01*
X141673216Y-104818456D01*
X141525646Y-104719853D01*
X141400147Y-104594354D01*
X141301544Y-104446784D01*
X141233624Y-104282812D01*
X141199000Y-104108741D01*
X141199000Y-103931259D01*
X141233624Y-103757188D01*
X141301544Y-103593216D01*
X141400147Y-103445646D01*
X141525646Y-103320147D01*
X141673216Y-103221544D01*
X141837188Y-103153624D01*
X141986488Y-103123927D01*
X142011258Y-103119000D01*
X142188742Y-103119000D01*
X142213512Y-103123927D01*
G37*
G36*
X142213512Y-100583927D02*
G01*
X142362812Y-100613624D01*
X142526784Y-100681544D01*
X142674354Y-100780147D01*
X142799853Y-100905646D01*
X142898456Y-101053216D01*
X142966376Y-101217188D01*
X143001000Y-101391259D01*
X143001000Y-101568741D01*
X142966376Y-101742812D01*
X142898456Y-101906784D01*
X142799853Y-102054354D01*
X142674354Y-102179853D01*
X142526784Y-102278456D01*
X142362812Y-102346376D01*
X142213512Y-102376073D01*
X142188742Y-102381000D01*
X142011258Y-102381000D01*
X141986488Y-102376073D01*
X141837188Y-102346376D01*
X141673216Y-102278456D01*
X141525646Y-102179853D01*
X141400147Y-102054354D01*
X141301544Y-101906784D01*
X141233624Y-101742812D01*
X141199000Y-101568741D01*
X141199000Y-101391259D01*
X141233624Y-101217188D01*
X141301544Y-101053216D01*
X141400147Y-100905646D01*
X141525646Y-100780147D01*
X141673216Y-100681544D01*
X141837188Y-100613624D01*
X141986488Y-100583927D01*
X142011258Y-100579000D01*
X142188742Y-100579000D01*
X142213512Y-100583927D01*
G37*
G36*
X142213512Y-98043927D02*
G01*
X142362812Y-98073624D01*
X142526784Y-98141544D01*
X142674354Y-98240147D01*
X142799853Y-98365646D01*
X142898456Y-98513216D01*
X142966376Y-98677188D01*
X143001000Y-98851259D01*
X143001000Y-99028741D01*
X142966376Y-99202812D01*
X142898456Y-99366784D01*
X142799853Y-99514354D01*
X142674354Y-99639853D01*
X142526784Y-99738456D01*
X142362812Y-99806376D01*
X142213512Y-99836073D01*
X142188742Y-99841000D01*
X142011258Y-99841000D01*
X141986488Y-99836073D01*
X141837188Y-99806376D01*
X141673216Y-99738456D01*
X141525646Y-99639853D01*
X141400147Y-99514354D01*
X141301544Y-99366784D01*
X141233624Y-99202812D01*
X141199000Y-99028741D01*
X141199000Y-98851259D01*
X141233624Y-98677188D01*
X141301544Y-98513216D01*
X141400147Y-98365646D01*
X141525646Y-98240147D01*
X141673216Y-98141544D01*
X141837188Y-98073624D01*
X141986488Y-98043927D01*
X142011258Y-98039000D01*
X142188742Y-98039000D01*
X142213512Y-98043927D01*
G37*
G36*
X142213512Y-95503927D02*
G01*
X142362812Y-95533624D01*
X142526784Y-95601544D01*
X142674354Y-95700147D01*
X142799853Y-95825646D01*
X142898456Y-95973216D01*
X142966376Y-96137188D01*
X143001000Y-96311259D01*
X143001000Y-96488741D01*
X142966376Y-96662812D01*
X142898456Y-96826784D01*
X142799853Y-96974354D01*
X142674354Y-97099853D01*
X142526784Y-97198456D01*
X142362812Y-97266376D01*
X142213512Y-97296073D01*
X142188742Y-97301000D01*
X142011258Y-97301000D01*
X141986488Y-97296073D01*
X141837188Y-97266376D01*
X141673216Y-97198456D01*
X141525646Y-97099853D01*
X141400147Y-96974354D01*
X141301544Y-96826784D01*
X141233624Y-96662812D01*
X141199000Y-96488741D01*
X141199000Y-96311259D01*
X141233624Y-96137188D01*
X141301544Y-95973216D01*
X141400147Y-95825646D01*
X141525646Y-95700147D01*
X141673216Y-95601544D01*
X141837188Y-95533624D01*
X141986488Y-95503927D01*
X142011258Y-95499000D01*
X142188742Y-95499000D01*
X142213512Y-95503927D01*
G37*
G36*
X143001000Y-94761000D02*
G01*
X141199000Y-94761000D01*
X141199000Y-92959000D01*
X143001000Y-92959000D01*
X143001000Y-94761000D01*
G37*
G36*
X140813512Y-87603927D02*
G01*
X140962812Y-87633624D01*
X141126784Y-87701544D01*
X141274354Y-87800147D01*
X141399853Y-87925646D01*
X141498456Y-88073216D01*
X141566376Y-88237188D01*
X141601000Y-88411259D01*
X141601000Y-88588741D01*
X141566376Y-88762812D01*
X141498456Y-88926784D01*
X141399853Y-89074354D01*
X141274354Y-89199853D01*
X141126784Y-89298456D01*
X140962812Y-89366376D01*
X140813512Y-89396073D01*
X140788742Y-89401000D01*
X140611258Y-89401000D01*
X140586488Y-89396073D01*
X140437188Y-89366376D01*
X140273216Y-89298456D01*
X140125646Y-89199853D01*
X140000147Y-89074354D01*
X139901544Y-88926784D01*
X139833624Y-88762812D01*
X139799000Y-88588741D01*
X139799000Y-88411259D01*
X139833624Y-88237188D01*
X139901544Y-88073216D01*
X140000147Y-87925646D01*
X140125646Y-87800147D01*
X140273216Y-87701544D01*
X140437188Y-87633624D01*
X140586488Y-87603927D01*
X140611258Y-87599000D01*
X140788742Y-87599000D01*
X140813512Y-87603927D01*
G37*
G36*
X140813512Y-85063927D02*
G01*
X140962812Y-85093624D01*
X141126784Y-85161544D01*
X141274354Y-85260147D01*
X141399853Y-85385646D01*
X141498456Y-85533216D01*
X141566376Y-85697188D01*
X141601000Y-85871259D01*
X141601000Y-86048741D01*
X141566376Y-86222812D01*
X141498456Y-86386784D01*
X141399853Y-86534354D01*
X141274354Y-86659853D01*
X141126784Y-86758456D01*
X140962812Y-86826376D01*
X140813512Y-86856073D01*
X140788742Y-86861000D01*
X140611258Y-86861000D01*
X140586488Y-86856073D01*
X140437188Y-86826376D01*
X140273216Y-86758456D01*
X140125646Y-86659853D01*
X140000147Y-86534354D01*
X139901544Y-86386784D01*
X139833624Y-86222812D01*
X139799000Y-86048741D01*
X139799000Y-85871259D01*
X139833624Y-85697188D01*
X139901544Y-85533216D01*
X140000147Y-85385646D01*
X140125646Y-85260147D01*
X140273216Y-85161544D01*
X140437188Y-85093624D01*
X140586488Y-85063927D01*
X140611258Y-85059000D01*
X140788742Y-85059000D01*
X140813512Y-85063927D01*
G37*
G36*
X140813512Y-82523927D02*
G01*
X140962812Y-82553624D01*
X141126784Y-82621544D01*
X141274354Y-82720147D01*
X141399853Y-82845646D01*
X141498456Y-82993216D01*
X141566376Y-83157188D01*
X141601000Y-83331259D01*
X141601000Y-83508741D01*
X141566376Y-83682812D01*
X141498456Y-83846784D01*
X141399853Y-83994354D01*
X141274354Y-84119853D01*
X141126784Y-84218456D01*
X140962812Y-84286376D01*
X140813512Y-84316073D01*
X140788742Y-84321000D01*
X140611258Y-84321000D01*
X140586488Y-84316073D01*
X140437188Y-84286376D01*
X140273216Y-84218456D01*
X140125646Y-84119853D01*
X140000147Y-83994354D01*
X139901544Y-83846784D01*
X139833624Y-83682812D01*
X139799000Y-83508741D01*
X139799000Y-83331259D01*
X139833624Y-83157188D01*
X139901544Y-82993216D01*
X140000147Y-82845646D01*
X140125646Y-82720147D01*
X140273216Y-82621544D01*
X140437188Y-82553624D01*
X140586488Y-82523927D01*
X140611258Y-82519000D01*
X140788742Y-82519000D01*
X140813512Y-82523927D01*
G37*
G36*
X140813512Y-79983927D02*
G01*
X140962812Y-80013624D01*
X141126784Y-80081544D01*
X141274354Y-80180147D01*
X141399853Y-80305646D01*
X141498456Y-80453216D01*
X141566376Y-80617188D01*
X141601000Y-80791259D01*
X141601000Y-80968741D01*
X141566376Y-81142812D01*
X141498456Y-81306784D01*
X141399853Y-81454354D01*
X141274354Y-81579853D01*
X141126784Y-81678456D01*
X140962812Y-81746376D01*
X140813512Y-81776073D01*
X140788742Y-81781000D01*
X140611258Y-81781000D01*
X140586488Y-81776073D01*
X140437188Y-81746376D01*
X140273216Y-81678456D01*
X140125646Y-81579853D01*
X140000147Y-81454354D01*
X139901544Y-81306784D01*
X139833624Y-81142812D01*
X139799000Y-80968741D01*
X139799000Y-80791259D01*
X139833624Y-80617188D01*
X139901544Y-80453216D01*
X140000147Y-80305646D01*
X140125646Y-80180147D01*
X140273216Y-80081544D01*
X140437188Y-80013624D01*
X140586488Y-79983927D01*
X140611258Y-79979000D01*
X140788742Y-79979000D01*
X140813512Y-79983927D01*
G37*
G36*
X140813512Y-77443927D02*
G01*
X140962812Y-77473624D01*
X141126784Y-77541544D01*
X141274354Y-77640147D01*
X141399853Y-77765646D01*
X141498456Y-77913216D01*
X141566376Y-78077188D01*
X141601000Y-78251259D01*
X141601000Y-78428741D01*
X141566376Y-78602812D01*
X141498456Y-78766784D01*
X141399853Y-78914354D01*
X141274354Y-79039853D01*
X141126784Y-79138456D01*
X140962812Y-79206376D01*
X140813512Y-79236073D01*
X140788742Y-79241000D01*
X140611258Y-79241000D01*
X140586488Y-79236073D01*
X140437188Y-79206376D01*
X140273216Y-79138456D01*
X140125646Y-79039853D01*
X140000147Y-78914354D01*
X139901544Y-78766784D01*
X139833624Y-78602812D01*
X139799000Y-78428741D01*
X139799000Y-78251259D01*
X139833624Y-78077188D01*
X139901544Y-77913216D01*
X140000147Y-77765646D01*
X140125646Y-77640147D01*
X140273216Y-77541544D01*
X140437188Y-77473624D01*
X140586488Y-77443927D01*
X140611258Y-77439000D01*
X140788742Y-77439000D01*
X140813512Y-77443927D01*
G37*
G36*
X140813512Y-74903927D02*
G01*
X140962812Y-74933624D01*
X141126784Y-75001544D01*
X141274354Y-75100147D01*
X141399853Y-75225646D01*
X141498456Y-75373216D01*
X141566376Y-75537188D01*
X141601000Y-75711259D01*
X141601000Y-75888741D01*
X141566376Y-76062812D01*
X141498456Y-76226784D01*
X141399853Y-76374354D01*
X141274354Y-76499853D01*
X141126784Y-76598456D01*
X140962812Y-76666376D01*
X140813512Y-76696073D01*
X140788742Y-76701000D01*
X140611258Y-76701000D01*
X140586488Y-76696073D01*
X140437188Y-76666376D01*
X140273216Y-76598456D01*
X140125646Y-76499853D01*
X140000147Y-76374354D01*
X139901544Y-76226784D01*
X139833624Y-76062812D01*
X139799000Y-75888741D01*
X139799000Y-75711259D01*
X139833624Y-75537188D01*
X139901544Y-75373216D01*
X140000147Y-75225646D01*
X140125646Y-75100147D01*
X140273216Y-75001544D01*
X140437188Y-74933624D01*
X140586488Y-74903927D01*
X140611258Y-74899000D01*
X140788742Y-74899000D01*
X140813512Y-74903927D01*
G37*
G36*
X140813512Y-72363927D02*
G01*
X140962812Y-72393624D01*
X141126784Y-72461544D01*
X141274354Y-72560147D01*
X141399853Y-72685646D01*
X141498456Y-72833216D01*
X141566376Y-72997188D01*
X141601000Y-73171259D01*
X141601000Y-73348741D01*
X141566376Y-73522812D01*
X141498456Y-73686784D01*
X141399853Y-73834354D01*
X141274354Y-73959853D01*
X141126784Y-74058456D01*
X140962812Y-74126376D01*
X140813512Y-74156073D01*
X140788742Y-74161000D01*
X140611258Y-74161000D01*
X140586488Y-74156073D01*
X140437188Y-74126376D01*
X140273216Y-74058456D01*
X140125646Y-73959853D01*
X140000147Y-73834354D01*
X139901544Y-73686784D01*
X139833624Y-73522812D01*
X139799000Y-73348741D01*
X139799000Y-73171259D01*
X139833624Y-72997188D01*
X139901544Y-72833216D01*
X140000147Y-72685646D01*
X140125646Y-72560147D01*
X140273216Y-72461544D01*
X140437188Y-72393624D01*
X140586488Y-72363927D01*
X140611258Y-72359000D01*
X140788742Y-72359000D01*
X140813512Y-72363927D01*
G37*
G36*
X140813512Y-69823927D02*
G01*
X140962812Y-69853624D01*
X141126784Y-69921544D01*
X141274354Y-70020147D01*
X141399853Y-70145646D01*
X141498456Y-70293216D01*
X141566376Y-70457188D01*
X141601000Y-70631259D01*
X141601000Y-70808741D01*
X141566376Y-70982812D01*
X141498456Y-71146784D01*
X141399853Y-71294354D01*
X141274354Y-71419853D01*
X141126784Y-71518456D01*
X140962812Y-71586376D01*
X140813512Y-71616073D01*
X140788742Y-71621000D01*
X140611258Y-71621000D01*
X140586488Y-71616073D01*
X140437188Y-71586376D01*
X140273216Y-71518456D01*
X140125646Y-71419853D01*
X140000147Y-71294354D01*
X139901544Y-71146784D01*
X139833624Y-70982812D01*
X139799000Y-70808741D01*
X139799000Y-70631259D01*
X139833624Y-70457188D01*
X139901544Y-70293216D01*
X140000147Y-70145646D01*
X140125646Y-70020147D01*
X140273216Y-69921544D01*
X140437188Y-69853624D01*
X140586488Y-69823927D01*
X140611258Y-69819000D01*
X140788742Y-69819000D01*
X140813512Y-69823927D01*
G37*
G36*
X140813512Y-67283927D02*
G01*
X140962812Y-67313624D01*
X141126784Y-67381544D01*
X141274354Y-67480147D01*
X141399853Y-67605646D01*
X141498456Y-67753216D01*
X141566376Y-67917188D01*
X141601000Y-68091259D01*
X141601000Y-68268741D01*
X141566376Y-68442812D01*
X141498456Y-68606784D01*
X141399853Y-68754354D01*
X141274354Y-68879853D01*
X141126784Y-68978456D01*
X140962812Y-69046376D01*
X140813512Y-69076073D01*
X140788742Y-69081000D01*
X140611258Y-69081000D01*
X140586488Y-69076073D01*
X140437188Y-69046376D01*
X140273216Y-68978456D01*
X140125646Y-68879853D01*
X140000147Y-68754354D01*
X139901544Y-68606784D01*
X139833624Y-68442812D01*
X139799000Y-68268741D01*
X139799000Y-68091259D01*
X139833624Y-67917188D01*
X139901544Y-67753216D01*
X140000147Y-67605646D01*
X140125646Y-67480147D01*
X140273216Y-67381544D01*
X140437188Y-67313624D01*
X140586488Y-67283927D01*
X140611258Y-67279000D01*
X140788742Y-67279000D01*
X140813512Y-67283927D01*
G37*
G36*
X140813512Y-64743927D02*
G01*
X140962812Y-64773624D01*
X141126784Y-64841544D01*
X141274354Y-64940147D01*
X141399853Y-65065646D01*
X141498456Y-65213216D01*
X141566376Y-65377188D01*
X141601000Y-65551259D01*
X141601000Y-65728741D01*
X141566376Y-65902812D01*
X141498456Y-66066784D01*
X141399853Y-66214354D01*
X141274354Y-66339853D01*
X141126784Y-66438456D01*
X140962812Y-66506376D01*
X140813512Y-66536073D01*
X140788742Y-66541000D01*
X140611258Y-66541000D01*
X140586488Y-66536073D01*
X140437188Y-66506376D01*
X140273216Y-66438456D01*
X140125646Y-66339853D01*
X140000147Y-66214354D01*
X139901544Y-66066784D01*
X139833624Y-65902812D01*
X139799000Y-65728741D01*
X139799000Y-65551259D01*
X139833624Y-65377188D01*
X139901544Y-65213216D01*
X140000147Y-65065646D01*
X140125646Y-64940147D01*
X140273216Y-64841544D01*
X140437188Y-64773624D01*
X140586488Y-64743927D01*
X140611258Y-64739000D01*
X140788742Y-64739000D01*
X140813512Y-64743927D01*
G37*
G36*
X141601000Y-64001000D02*
G01*
X139799000Y-64001000D01*
X139799000Y-62199000D01*
X141601000Y-62199000D01*
X141601000Y-64001000D01*
G37*
M02*
