M48
; DRILL file {KiCad 5.1.5+dfsg1-2build2} date Sat 13 Nov 2021 06:25:10 GMT
; FORMAT={-:-/ absolute / inch / decimal}
; #@! TF.CreationDate,2021-11-13T06:25:10+00:00
; #@! TF.GenerationSoftware,Kicad,Pcbnew,5.1.5+dfsg1-2build2
; #@! TF.FileFunction,Plated,1,2,PTH
FMAT,2
INCH
T1C0.0157
T2C0.0394
%
G90
G05
T1
X5.5945Y-3.252
X5.6181Y-2.4488
X5.623Y-2.8228
X5.6247Y-3.2805
X5.6378Y-3.0124
X5.6417Y-3.3711
X5.6614Y-6.2953
X5.6654Y-3.6929
X5.6693Y-6.1102
X5.6693Y-4.2333
X5.6709Y-3.6539
X5.6732Y-3.3425
X5.6732Y-4.4764
X5.6732Y-4.5197
X5.6771Y-2.5694
X5.6772Y-4.8898
X5.6822Y-5.9389
X5.685Y-2.3071
X5.689Y-3.9843
X5.6909Y-2.5315
X5.7047Y-3.4291
X5.7047Y-5.0512
X5.7047Y-5.4409
X5.7067Y-3.1634
X5.7165Y-4.2047
X5.7205Y-3.5787
X5.7248Y-3.9407
X5.7293Y-3.7441
X5.7402Y-2.6142
X5.748Y-4.8268
X5.752Y-3.6978
X5.7736Y-3.3504
X5.7815Y-3.5787
X5.7815Y-3.6378
X5.7835Y-2.8228
X5.7835Y-4.3071
X5.8071Y-2.6535
X5.81Y-6.0591
X5.815Y-3.2234
X5.8504Y-4.4134
X5.8543Y-3.0984
X5.8583Y-2.6614
X5.8661Y-5.5748
X5.8671Y-6.0
X5.878Y-2.6024
X5.8858Y-2.2913
X5.8976Y-2.9409
X5.8976Y-5.4961
X5.9016Y-3.6693
X5.9094Y-5.6063
X5.9094Y-5.8268
X5.9134Y-2.752
X5.9134Y-4.6575
X5.9173Y-6.0512
X5.9193Y-2.5591
X5.9213Y-4.3976
X5.9252Y-3.0472
X5.9262Y-4.7205
X5.9262Y-5.3976
X5.935Y-2.6043
X5.9353Y-3.4619
X5.937Y-2.815
X5.9449Y-4.1299
X5.9455Y-4.8465
X5.9577Y-2.9094
X5.9646Y-2.374
X5.9665Y-2.7047
X5.9685Y-2.563
X5.9823Y-3.4178
X5.9833Y-4.9294
X5.9833Y-5.6969
X5.9921Y-4.122
X5.9921Y-4.9685
X6.0Y-3.1634
X6.0052Y-3.5317
X6.0098Y-3.3504
X6.0118Y-5.3031
X6.0125Y-4.8723
X6.0157Y-4.4872
X6.0157Y-5.2008
X6.0197Y-3.6339
X6.0256Y-5.437
X6.0394Y-3.0315
X6.0472Y-3.563
X6.0591Y-6.0256
X6.0865Y-4.5265
X6.0886Y-4.4872
X6.0886Y-4.998
X6.0906Y-5.065
X6.0906Y-5.8583
X6.0958Y-4.0079
X6.0958Y-4.2323
X6.0984Y-5.437
X6.1063Y-3.2165
X6.122Y-3.5603
X6.1614Y-2.4685
X6.1772Y-4.252
X6.1811Y-4.3543
X6.1811Y-5.4449
X6.185Y-6.0591
X6.189Y-5.2047
X6.1929Y-2.5669
X6.2126Y-2.7087
X6.2382Y-3.1654
X6.2559Y-3.6125
X6.2559Y-3.8071
X6.2598Y-3.7677
X6.2638Y-2.814
X6.276Y-3.2602
X6.2835Y-3.5276
X6.2874Y-5.5472
X6.2874Y-5.6742
X6.2913Y-4.3258
X6.3074Y-4.0492
X6.3077Y-4.29
X6.315Y-3.9921
X6.3213Y-5.6943
X6.3228Y-2.9921
X6.3307Y-4.4409
X6.3346Y-5.0315
X6.3386Y-4.9094
X6.3465Y-2.7047
X6.3465Y-5.6043
X6.3504Y-4.6142
X6.3514Y-4.4745
X6.3582Y-3.9573
X6.3583Y-3.2598
X6.3622Y-5.2894
X6.3691Y-4.7126
X6.3694Y-3.9057
X6.3701Y-3.4901
X6.372Y-5.1811
X6.378Y-3.2953
X6.378Y-4.0669
X6.378Y-4.7913
X6.3799Y-2.7992
X6.3819Y-5.4173
X6.3819Y-5.4764
X6.3898Y-4.2953
X6.3937Y-6.3307
X6.3976Y-4.8701
X6.3996Y-5.7244
X6.4094Y-2.7283
X6.4134Y-3.9445
X6.4193Y-3.6516
X6.4252Y-5.5472
X6.4449Y-4.0315
X6.4508Y-3.2165
X6.4567Y-5.0866
X6.4606Y-3.7244
X6.4606Y-3.876
X6.4675Y-5.7096
X6.4705Y-6.0571
X6.4724Y-5.0039
X6.4764Y-3.5472
X6.4764Y-3.9311
X6.4764Y-5.5472
X6.4843Y-2.8425
X6.4921Y-2.7992
X6.4961Y-4.3543
X6.5039Y-4.5315
X6.5079Y-3.8937
X6.5315Y-4.6593
X6.5315Y-4.7677
X6.5315Y-4.811
X6.5315Y-5.063
X6.5354Y-5.8583
X6.5364Y-3.8543
X6.5433Y-3.7953
X6.5499Y-5.5052
X6.5709Y-4.6319
X6.5787Y-2.878
X6.5787Y-5.1299
X6.5866Y-2.6339
X6.5866Y-4.2835
X6.5945Y-4.3425
X6.6024Y-2.9606
X6.628Y-4.6486
X6.6368Y-4.7894
X6.6654Y-3.2795
X6.6939Y-5.1339
X6.6939Y-5.1939
X6.6969Y-4.2874
X6.7008Y-4.9094
X6.7047Y-4.3543
X6.7136Y-4.7205
X6.7165Y-3.0039
X6.7165Y-3.2756
X6.7323Y-5.4827
X6.7323Y-5.5276
X6.7374Y-5.2558
X6.7399Y-4.3366
X6.7598Y-3.2795
X6.7608Y-5.44
X6.7638Y-3.8543
X6.7659Y-5.1654
X6.7756Y-2.9843
X6.7844Y-4.752
X6.7844Y-4.7953
X6.7844Y-4.9557
X6.7854Y-5.0128
X6.7913Y-4.2598
X6.7953Y-3.2298
X6.815Y-2.9764
X6.8169Y-5.1929
X6.8169Y-5.3386
X6.8179Y-3.8898
X6.8186Y-5.6919
X6.8189Y-2.815
X6.8189Y-5.4449
X6.8346Y-4.4409
X6.8346Y-4.6772
X6.8346Y-4.8661
X6.8346Y-5.5089
X6.8386Y-4.0167
X6.8425Y-3.2835
X6.8465Y-2.4134
X6.8465Y-2.6496
X6.8465Y-3.0079
X6.8465Y-3.5157
X6.8632Y-4.3366
X6.8661Y-5.6742
X6.878Y-4.063
X6.8898Y-4.3031
X6.8917Y-5.4803
X6.8937Y-2.8465
X6.8937Y-2.9646
X6.9094Y-5.3453
X6.9134Y-2.6171
X6.9134Y-4.5315
X6.9134Y-5.2874
X6.9134Y-5.8583
X6.9154Y-3.796
X6.9173Y-5.1732
X6.9213Y-3.1181
X6.9232Y-3.8996
X6.9291Y-3.0118
X6.9291Y-4.3366
X6.9331Y-3.8583
X6.9331Y-5.0551
X6.9488Y-4.626
X6.9567Y-3.2835
X6.9606Y-2.7953
X6.9685Y-3.5207
X6.9764Y-3.9596
X6.977Y-5.5728
X6.997Y-3.6063
X6.997Y-3.8633
X6.9995Y-3.78
X7.0Y-3.2283
X7.0043Y-3.8246
X7.0236Y-3.0079
X7.0492Y-2.5368
X7.0512Y-2.6457
X7.063Y-5.0394
X7.063Y-5.2205
X7.0748Y-3.9331
X7.0778Y-2.6102
X7.0787Y-3.9882
X7.1102Y-2.5083
X7.1112Y-5.6742
X7.1142Y-5.5236
X7.127Y-4.3366
X7.127Y-4.56
X7.1339Y-3.1654
X7.1417Y-5.6457
X7.1654Y-2.8031
X7.1654Y-4.2756
X7.1772Y-3.4921
X7.1896Y-3.9246
X7.2043Y-2.7976
X7.2087Y-4.2638
X7.2131Y-4.9557
X7.2382Y-2.8268
X7.2382Y-3.315
X7.2382Y-4.3081
X7.2382Y-4.4872
X7.2402Y-5.2244
X7.2402Y-5.378
X7.2441Y-5.3268
X7.252Y-2.311
X7.2598Y-5.5374
X7.2598Y-5.7667
X7.2677Y-2.5669
X7.2677Y-4.599
X7.2677Y-5.1614
X7.2697Y-4.5144
X7.2992Y-6.1181
X7.3228Y-4.4646
X7.3248Y-3.9941
X7.3268Y-4.5669
X7.3268Y-4.5276
X7.3278Y-5.4685
X7.3307Y-5.8465
X7.3425Y-2.437
X7.3425Y-2.8819
X7.3425Y-3.1161
X7.3465Y-4.3346
X7.3622Y-5.0679
X7.3704Y-5.4421
X7.374Y-3.1634
X7.374Y-3.2874
X7.374Y-4.2559
X7.3976Y-4.6161
X7.4048Y-5.4984
X7.4074Y-3.9819
X7.4134Y-2.7175
X7.4331Y-4.0118
X7.4528Y-4.2638
X7.4567Y-3.0197
X7.4606Y-2.937
X7.4636Y-5.2485
X7.4636Y-5.4429
X7.4764Y-3.5748
X7.5207Y-4.3465
X7.5207Y-5.0394
X7.5276Y-2.7638
X7.5276Y-5.9055
X7.5354Y-4.4409
X7.5394Y-4.3976
X7.5512Y-5.6299
X7.5748Y-5.1634
X7.5787Y-4.5945
X7.5827Y-4.2756
X7.5846Y-5.4783
X7.5866Y-4.8937
X7.5866Y-5.7165
X7.6102Y-5.7953
X7.6496Y-2.937
X7.6516Y-3.2205
X7.6654Y-2.874
X7.6929Y-3.2898
X7.6969Y-4.9843
X7.6998Y-4.5108
X7.7008Y-4.6969
X7.7126Y-5.7362
X7.7205Y-4.2559
X7.7205Y-4.3898
X7.7205Y-5.1914
X7.7362Y-5.8543
X7.7382Y-4.9862
X7.7402Y-4.5748
X7.748Y-4.7047
X7.7638Y-5.437
X7.7677Y-5.0591
X7.7953Y-4.0039
X7.878Y-3.2874
X7.878Y-4.0039
X7.9055Y-5.2244
X7.9331Y-3.0984
X7.9646Y-4.3858
X7.9646Y-6.2874
X7.9921Y-4.2559
X8.0118Y-5.6181
X8.0551Y-4.6496
X8.1457Y-2.6772
X8.1535Y-3.0394
T2
X5.5945Y-3.6953
X5.5945Y-3.7953
X5.5945Y-3.8953
X5.5945Y-3.9953
X5.5945Y-4.0953
X5.5945Y-4.1953
X5.5945Y-4.2953
X5.5945Y-4.3953
X5.5945Y-4.4953
X5.5945Y-4.5953
X5.5945Y-4.6953
X5.5945Y-4.7953
X5.5945Y-4.8953
X5.5945Y-4.9953
X5.5945Y-5.0953
X5.5945Y-5.1953
X5.5945Y-5.2953
X5.5945Y-5.3953
X5.5945Y-5.4953
X5.5945Y-5.5953
X5.5945Y-5.6953
X5.5945Y-5.7953
X5.5945Y-5.8953
X5.5945Y-5.9953
X5.5945Y-6.0953
X5.5945Y-6.1953
X5.5945Y-6.2953
X5.5157Y-2.4409
X5.5157Y-2.5409
X5.5157Y-2.6409
X5.5157Y-2.7409
X5.5157Y-2.8409
X5.5157Y-2.9409
X5.5157Y-3.0409
X5.5157Y-3.1409
X5.5157Y-3.2409
X5.5157Y-3.3409
X5.5157Y-3.4409
T0
M30
