G04 #@! TF.GenerationSoftware,KiCad,Pcbnew,5.1.5+dfsg1-2build2*
G04 #@! TF.CreationDate,2021-11-12T20:57:27+00:00*
G04 #@! TF.ProjectId,psion-org2-main,7073696f-6e2d-46f7-9267-322d6d61696e,rev?*
G04 #@! TF.SameCoordinates,Original*
G04 #@! TF.FileFunction,Legend,Bot*
G04 #@! TF.FilePolarity,Positive*
%FSLAX46Y46*%
G04 Gerber Fmt 4.6, Leading zero omitted, Abs format (unit mm)*
G04 Created by KiCad (PCBNEW 5.1.5+dfsg1-2build2) date 2021-11-12 20:57:27*
%MOMM*%
%LPD*%
G04 APERTURE LIST*
%ADD10C,0.150000*%
%ADD11C,0.120000*%
G04 APERTURE END LIST*
D10*
X151961904Y-91354761D02*
X151819047Y-91402380D01*
X151580952Y-91402380D01*
X151485714Y-91354761D01*
X151438095Y-91307142D01*
X151390476Y-91211904D01*
X151390476Y-91116666D01*
X151438095Y-91021428D01*
X151485714Y-90973809D01*
X151580952Y-90926190D01*
X151771428Y-90878571D01*
X151866666Y-90830952D01*
X151914285Y-90783333D01*
X151961904Y-90688095D01*
X151961904Y-90592857D01*
X151914285Y-90497619D01*
X151866666Y-90450000D01*
X151771428Y-90402380D01*
X151533333Y-90402380D01*
X151390476Y-90450000D01*
X151057142Y-90402380D02*
X150819047Y-91402380D01*
X150628571Y-90688095D01*
X150438095Y-91402380D01*
X150200000Y-90402380D01*
X149247619Y-91307142D02*
X149295238Y-91354761D01*
X149438095Y-91402380D01*
X149533333Y-91402380D01*
X149676190Y-91354761D01*
X149771428Y-91259523D01*
X149819047Y-91164285D01*
X149866666Y-90973809D01*
X149866666Y-90830952D01*
X149819047Y-90640476D01*
X149771428Y-90545238D01*
X149676190Y-90450000D01*
X149533333Y-90402380D01*
X149438095Y-90402380D01*
X149295238Y-90450000D01*
X149247619Y-90497619D01*
X148342857Y-91402380D02*
X148819047Y-91402380D01*
X148819047Y-90402380D01*
X148009523Y-91402380D02*
X148009523Y-90402380D01*
X147438095Y-91402380D02*
X147866666Y-90830952D01*
X147438095Y-90402380D02*
X148009523Y-90973809D01*
X148307142Y-87304761D02*
X148164285Y-87352380D01*
X147926190Y-87352380D01*
X147830952Y-87304761D01*
X147783333Y-87257142D01*
X147735714Y-87161904D01*
X147735714Y-87066666D01*
X147783333Y-86971428D01*
X147830952Y-86923809D01*
X147926190Y-86876190D01*
X148116666Y-86828571D01*
X148211904Y-86780952D01*
X148259523Y-86733333D01*
X148307142Y-86638095D01*
X148307142Y-86542857D01*
X148259523Y-86447619D01*
X148211904Y-86400000D01*
X148116666Y-86352380D01*
X147878571Y-86352380D01*
X147735714Y-86400000D01*
X147402380Y-86352380D02*
X147164285Y-87352380D01*
X146973809Y-86638095D01*
X146783333Y-87352380D01*
X146545238Y-86352380D01*
X146164285Y-87352380D02*
X146164285Y-86352380D01*
X145926190Y-86352380D01*
X145783333Y-86400000D01*
X145688095Y-86495238D01*
X145640476Y-86590476D01*
X145592857Y-86780952D01*
X145592857Y-86923809D01*
X145640476Y-87114285D01*
X145688095Y-87209523D01*
X145783333Y-87304761D01*
X145926190Y-87352380D01*
X146164285Y-87352380D01*
X150411904Y-88750000D02*
X150507142Y-88702380D01*
X150650000Y-88702380D01*
X150792857Y-88750000D01*
X150888095Y-88845238D01*
X150935714Y-88940476D01*
X150983333Y-89130952D01*
X150983333Y-89273809D01*
X150935714Y-89464285D01*
X150888095Y-89559523D01*
X150792857Y-89654761D01*
X150650000Y-89702380D01*
X150554761Y-89702380D01*
X150411904Y-89654761D01*
X150364285Y-89607142D01*
X150364285Y-89273809D01*
X150554761Y-89273809D01*
X149935714Y-89702380D02*
X149935714Y-88702380D01*
X149364285Y-89702380D01*
X149364285Y-88702380D01*
X148888095Y-89702380D02*
X148888095Y-88702380D01*
X148650000Y-88702380D01*
X148507142Y-88750000D01*
X148411904Y-88845238D01*
X148364285Y-88940476D01*
X148316666Y-89130952D01*
X148316666Y-89273809D01*
X148364285Y-89464285D01*
X148411904Y-89559523D01*
X148507142Y-89654761D01*
X148650000Y-89702380D01*
X148888095Y-89702380D01*
X154961904Y-74950000D02*
X155057142Y-74902380D01*
X155200000Y-74902380D01*
X155342857Y-74950000D01*
X155438095Y-75045238D01*
X155485714Y-75140476D01*
X155533333Y-75330952D01*
X155533333Y-75473809D01*
X155485714Y-75664285D01*
X155438095Y-75759523D01*
X155342857Y-75854761D01*
X155200000Y-75902380D01*
X155104761Y-75902380D01*
X154961904Y-75854761D01*
X154914285Y-75807142D01*
X154914285Y-75473809D01*
X155104761Y-75473809D01*
X154485714Y-75902380D02*
X154485714Y-74902380D01*
X153914285Y-75902380D01*
X153914285Y-74902380D01*
X153438095Y-75902380D02*
X153438095Y-74902380D01*
X153200000Y-74902380D01*
X153057142Y-74950000D01*
X152961904Y-75045238D01*
X152914285Y-75140476D01*
X152866666Y-75330952D01*
X152866666Y-75473809D01*
X152914285Y-75664285D01*
X152961904Y-75759523D01*
X153057142Y-75854761D01*
X153200000Y-75902380D01*
X153438095Y-75902380D01*
X155192857Y-79752380D02*
X154859523Y-80752380D01*
X154526190Y-79752380D01*
X153859523Y-80228571D02*
X153716666Y-80276190D01*
X153669047Y-80323809D01*
X153621428Y-80419047D01*
X153621428Y-80561904D01*
X153669047Y-80657142D01*
X153716666Y-80704761D01*
X153811904Y-80752380D01*
X154192857Y-80752380D01*
X154192857Y-79752380D01*
X153859523Y-79752380D01*
X153764285Y-79800000D01*
X153716666Y-79847619D01*
X153669047Y-79942857D01*
X153669047Y-80038095D01*
X153716666Y-80133333D01*
X153764285Y-80180952D01*
X153859523Y-80228571D01*
X154192857Y-80228571D01*
X153240476Y-80466666D02*
X152764285Y-80466666D01*
X153335714Y-80752380D02*
X153002380Y-79752380D01*
X152669047Y-80752380D01*
X152478571Y-79752380D02*
X151907142Y-79752380D01*
X152192857Y-80752380D02*
X152192857Y-79752380D01*
X153461904Y-71050000D02*
X153557142Y-71002380D01*
X153700000Y-71002380D01*
X153842857Y-71050000D01*
X153938095Y-71145238D01*
X153985714Y-71240476D01*
X154033333Y-71430952D01*
X154033333Y-71573809D01*
X153985714Y-71764285D01*
X153938095Y-71859523D01*
X153842857Y-71954761D01*
X153700000Y-72002380D01*
X153604761Y-72002380D01*
X153461904Y-71954761D01*
X153414285Y-71907142D01*
X153414285Y-71573809D01*
X153604761Y-71573809D01*
X152985714Y-72002380D02*
X152985714Y-71002380D01*
X152414285Y-72002380D01*
X152414285Y-71002380D01*
X151938095Y-72002380D02*
X151938095Y-71002380D01*
X151700000Y-71002380D01*
X151557142Y-71050000D01*
X151461904Y-71145238D01*
X151414285Y-71240476D01*
X151366666Y-71430952D01*
X151366666Y-71573809D01*
X151414285Y-71764285D01*
X151461904Y-71859523D01*
X151557142Y-71954761D01*
X151700000Y-72002380D01*
X151938095Y-72002380D01*
X145278571Y-75528571D02*
X145135714Y-75576190D01*
X145088095Y-75623809D01*
X145040476Y-75719047D01*
X145040476Y-75861904D01*
X145088095Y-75957142D01*
X145135714Y-76004761D01*
X145230952Y-76052380D01*
X145611904Y-76052380D01*
X145611904Y-75052380D01*
X145278571Y-75052380D01*
X145183333Y-75100000D01*
X145135714Y-75147619D01*
X145088095Y-75242857D01*
X145088095Y-75338095D01*
X145135714Y-75433333D01*
X145183333Y-75480952D01*
X145278571Y-75528571D01*
X145611904Y-75528571D01*
X144611904Y-75052380D02*
X144611904Y-75861904D01*
X144564285Y-75957142D01*
X144516666Y-76004761D01*
X144421428Y-76052380D01*
X144230952Y-76052380D01*
X144135714Y-76004761D01*
X144088095Y-75957142D01*
X144040476Y-75861904D01*
X144040476Y-75052380D01*
X143659523Y-75052380D02*
X142992857Y-75052380D01*
X143659523Y-76052380D01*
X142992857Y-76052380D01*
D11*
X174800000Y-64300000D02*
X174800000Y-65700000D01*
X175500000Y-66400000D02*
X176100000Y-66400000D01*
X176800000Y-65700000D02*
X176800000Y-64300000D01*
X176100000Y-63600000D02*
X175500000Y-63600000D01*
X175500000Y-63600000D02*
G75*
G03X174800000Y-64300000I0J-700000D01*
G01*
X176800000Y-64300000D02*
G75*
G03X176100000Y-63600000I-700000J0D01*
G01*
X176100000Y-66400000D02*
G75*
G03X176800000Y-65700000I0J700000D01*
G01*
X174800000Y-65700000D02*
G75*
G03X175500000Y-66400000I700000J0D01*
G01*
X174650000Y-71800000D02*
X178550000Y-71800000D01*
X174650000Y-69800000D02*
X178550000Y-69800000D01*
X174650000Y-71800000D02*
X174650000Y-69800000D01*
X170600000Y-68300000D02*
X170600000Y-64400000D01*
X168600000Y-68300000D02*
X168600000Y-64400000D01*
X170600000Y-68300000D02*
X168600000Y-68300000D01*
X146325000Y-61025000D02*
X146325000Y-62375000D01*
X148075000Y-61025000D02*
X148075000Y-62375000D01*
X152200000Y-63360000D02*
X148750000Y-63360000D01*
X152200000Y-63360000D02*
X154150000Y-63360000D01*
X152200000Y-58240000D02*
X150250000Y-58240000D01*
X152200000Y-58240000D02*
X154150000Y-58240000D01*
X154941422Y-64490000D02*
X155458578Y-64490000D01*
X154941422Y-65910000D02*
X155458578Y-65910000D01*
X168758578Y-63010000D02*
X168241422Y-63010000D01*
X168758578Y-61590000D02*
X168241422Y-61590000D01*
X178941422Y-61690000D02*
X179458578Y-61690000D01*
X178941422Y-63110000D02*
X179458578Y-63110000D01*
X177641422Y-67690000D02*
X178158578Y-67690000D01*
X177641422Y-69110000D02*
X178158578Y-69110000D01*
X179760000Y-63620000D02*
X178300000Y-63620000D01*
X179760000Y-66780000D02*
X177600000Y-66780000D01*
X179760000Y-66780000D02*
X179760000Y-65850000D01*
X179760000Y-63620000D02*
X179760000Y-64550000D01*
X153050000Y-64100000D02*
X149150000Y-64100000D01*
X153050000Y-66100000D02*
X149150000Y-66100000D01*
X153050000Y-64100000D02*
X153050000Y-66100000D01*
X146858578Y-66010000D02*
X146341422Y-66010000D01*
X146858578Y-64590000D02*
X146341422Y-64590000D01*
X146958578Y-59310000D02*
X146441422Y-59310000D01*
X146958578Y-57890000D02*
X146441422Y-57890000D01*
X177220000Y-58940000D02*
X177220000Y-60400000D01*
X180380000Y-58940000D02*
X180380000Y-61100000D01*
X180380000Y-58940000D02*
X179450000Y-58940000D01*
X177220000Y-58940000D02*
X178150000Y-58940000D01*
X184160000Y-62120000D02*
X182700000Y-62120000D01*
X184160000Y-65280000D02*
X182000000Y-65280000D01*
X184160000Y-65280000D02*
X184160000Y-64350000D01*
X184160000Y-62120000D02*
X184160000Y-63050000D01*
X183980000Y-60460000D02*
X183980000Y-59000000D01*
X180820000Y-60460000D02*
X180820000Y-58300000D01*
X180820000Y-60460000D02*
X181750000Y-60460000D01*
X183980000Y-60460000D02*
X183050000Y-60460000D01*
X146521078Y-104010000D02*
X146003922Y-104010000D01*
X146521078Y-102590000D02*
X146003922Y-102590000D01*
X150058578Y-104010000D02*
X149541422Y-104010000D01*
X150058578Y-102590000D02*
X149541422Y-102590000D01*
X190090000Y-75758578D02*
X190090000Y-75241422D01*
X191510000Y-75758578D02*
X191510000Y-75241422D01*
X180178922Y-56290000D02*
X180696078Y-56290000D01*
X180178922Y-57710000D02*
X180696078Y-57710000D01*
X185690000Y-64158578D02*
X185690000Y-63641422D01*
X187110000Y-64158578D02*
X187110000Y-63641422D01*
X150100000Y-101300000D02*
X150100000Y-99900000D01*
X149400000Y-99200000D02*
X148800000Y-99200000D01*
X148100000Y-99900000D02*
X148100000Y-101300000D01*
X148800000Y-102000000D02*
X149400000Y-102000000D01*
X149400000Y-102000000D02*
G75*
G03X150100000Y-101300000I0J700000D01*
G01*
X148100000Y-101300000D02*
G75*
G03X148800000Y-102000000I700000J0D01*
G01*
X148800000Y-99200000D02*
G75*
G03X148100000Y-99900000I0J-700000D01*
G01*
X150100000Y-99900000D02*
G75*
G03X149400000Y-99200000I-700000J0D01*
G01*
X147600000Y-101300000D02*
X147600000Y-99900000D01*
X146900000Y-99200000D02*
X146300000Y-99200000D01*
X145600000Y-99900000D02*
X145600000Y-101300000D01*
X146300000Y-102000000D02*
X146900000Y-102000000D01*
X146900000Y-102000000D02*
G75*
G03X147600000Y-101300000I0J700000D01*
G01*
X145600000Y-101300000D02*
G75*
G03X146300000Y-102000000I700000J0D01*
G01*
X146300000Y-99200000D02*
G75*
G03X145600000Y-99900000I0J-700000D01*
G01*
X147600000Y-99900000D02*
G75*
G03X146900000Y-99200000I-700000J0D01*
G01*
X171200000Y-63300000D02*
X172600000Y-63300000D01*
X173300000Y-62600000D02*
X173300000Y-62000000D01*
X172600000Y-61300000D02*
X171200000Y-61300000D01*
X170500000Y-62000000D02*
X170500000Y-62600000D01*
X170500000Y-62600000D02*
G75*
G03X171200000Y-63300000I700000J0D01*
G01*
X171200000Y-61300000D02*
G75*
G03X170500000Y-62000000I0J-700000D01*
G01*
X173300000Y-62000000D02*
G75*
G03X172600000Y-61300000I-700000J0D01*
G01*
X172600000Y-63300000D02*
G75*
G03X173300000Y-62600000I0J700000D01*
G01*
X174800000Y-60900000D02*
X174800000Y-62300000D01*
X175500000Y-63000000D02*
X176100000Y-63000000D01*
X176800000Y-62300000D02*
X176800000Y-60900000D01*
X176100000Y-60200000D02*
X175500000Y-60200000D01*
X175500000Y-60200000D02*
G75*
G03X174800000Y-60900000I0J-700000D01*
G01*
X176800000Y-60900000D02*
G75*
G03X176100000Y-60200000I-700000J0D01*
G01*
X176100000Y-63000000D02*
G75*
G03X176800000Y-62300000I0J700000D01*
G01*
X174800000Y-62300000D02*
G75*
G03X175500000Y-63000000I700000J0D01*
G01*
X192500000Y-112900000D02*
X193900000Y-112900000D01*
X194600000Y-112200000D02*
X194600000Y-111600000D01*
X193900000Y-110900000D02*
X192500000Y-110900000D01*
X191800000Y-111600000D02*
X191800000Y-112200000D01*
X191800000Y-112200000D02*
G75*
G03X192500000Y-112900000I700000J0D01*
G01*
X192500000Y-110900000D02*
G75*
G03X191800000Y-111600000I0J-700000D01*
G01*
X194600000Y-111600000D02*
G75*
G03X193900000Y-110900000I-700000J0D01*
G01*
X193900000Y-112900000D02*
G75*
G03X194600000Y-112200000I0J700000D01*
G01*
X192450000Y-115400000D02*
X193850000Y-115400000D01*
X194550000Y-114700000D02*
X194550000Y-114100000D01*
X193850000Y-113400000D02*
X192450000Y-113400000D01*
X191750000Y-114100000D02*
X191750000Y-114700000D01*
X191750000Y-114700000D02*
G75*
G03X192450000Y-115400000I700000J0D01*
G01*
X192450000Y-113400000D02*
G75*
G03X191750000Y-114100000I0J-700000D01*
G01*
X194550000Y-114100000D02*
G75*
G03X193850000Y-113400000I-700000J0D01*
G01*
X193850000Y-115400000D02*
G75*
G03X194550000Y-114700000I0J700000D01*
G01*
X165400000Y-66400000D02*
X166800000Y-66400000D01*
X167500000Y-65700000D02*
X167500000Y-65100000D01*
X166800000Y-64400000D02*
X165400000Y-64400000D01*
X164700000Y-65100000D02*
X164700000Y-65700000D01*
X164700000Y-65700000D02*
G75*
G03X165400000Y-66400000I700000J0D01*
G01*
X165400000Y-64400000D02*
G75*
G03X164700000Y-65100000I0J-700000D01*
G01*
X167500000Y-65100000D02*
G75*
G03X166800000Y-64400000I-700000J0D01*
G01*
X166800000Y-66400000D02*
G75*
G03X167500000Y-65700000I0J700000D01*
G01*
X186400000Y-73100000D02*
X187800000Y-73100000D01*
X188500000Y-72400000D02*
X188500000Y-71800000D01*
X187800000Y-71100000D02*
X186400000Y-71100000D01*
X185700000Y-71800000D02*
X185700000Y-72400000D01*
X185700000Y-72400000D02*
G75*
G03X186400000Y-73100000I700000J0D01*
G01*
X186400000Y-71100000D02*
G75*
G03X185700000Y-71800000I0J-700000D01*
G01*
X188500000Y-71800000D02*
G75*
G03X187800000Y-71100000I-700000J0D01*
G01*
X187800000Y-73100000D02*
G75*
G03X188500000Y-72400000I0J700000D01*
G01*
X149150000Y-104500000D02*
X145250000Y-104500000D01*
X149150000Y-106500000D02*
X145250000Y-106500000D01*
X149150000Y-104500000D02*
X149150000Y-106500000D01*
X185900000Y-65850000D02*
X185900000Y-69750000D01*
X187900000Y-65850000D02*
X187900000Y-69750000D01*
X185900000Y-65850000D02*
X187900000Y-65850000D01*
X183500000Y-65850000D02*
X183500000Y-69750000D01*
X185500000Y-65850000D02*
X185500000Y-69750000D01*
X183500000Y-65850000D02*
X185500000Y-65850000D01*
X181100000Y-65850000D02*
X181100000Y-69750000D01*
X183100000Y-65850000D02*
X183100000Y-69750000D01*
X181100000Y-65850000D02*
X183100000Y-65850000D01*
X203600000Y-82450000D02*
X203600000Y-78550000D01*
X201600000Y-82450000D02*
X201600000Y-78550000D01*
X203600000Y-82450000D02*
X201600000Y-82450000D01*
X188700000Y-146310000D02*
X194710000Y-146310000D01*
X190950000Y-139490000D02*
X194710000Y-139490000D01*
X194710000Y-146310000D02*
X194710000Y-145050000D01*
X194710000Y-139490000D02*
X194710000Y-140750000D01*
X155670000Y-77710000D02*
X155670000Y-74600000D01*
X158330000Y-75170000D02*
X158330000Y-74600000D01*
X155670000Y-79800000D02*
X155670000Y-79230000D01*
X155670000Y-79230000D02*
X154150000Y-79230000D01*
X158330000Y-79800000D02*
X158330000Y-76690000D01*
X155670000Y-74600000D02*
X158330000Y-74600000D01*
X155670000Y-79800000D02*
X158330000Y-79800000D01*
X145970000Y-73310000D02*
X145970000Y-70200000D01*
X148630000Y-70770000D02*
X148630000Y-70200000D01*
X145970000Y-75400000D02*
X145970000Y-74830000D01*
X145970000Y-74830000D02*
X144450000Y-74830000D01*
X148630000Y-75400000D02*
X148630000Y-72290000D01*
X145970000Y-70200000D02*
X148630000Y-70200000D01*
X145970000Y-75400000D02*
X148630000Y-75400000D01*
X145741422Y-151690000D02*
X146258578Y-151690000D01*
X145741422Y-153110000D02*
X146258578Y-153110000D01*
X161641422Y-128590000D02*
X162158578Y-128590000D01*
X161641422Y-130010000D02*
X162158578Y-130010000D01*
X196800000Y-61550000D02*
X196800000Y-65450000D01*
X198800000Y-61550000D02*
X198800000Y-65450000D01*
X196800000Y-61550000D02*
X198800000Y-61550000D01*
X161800000Y-126660000D02*
X158350000Y-126660000D01*
X161800000Y-126660000D02*
X163750000Y-126660000D01*
X161800000Y-116540000D02*
X159850000Y-116540000D01*
X161800000Y-116540000D02*
X163750000Y-116540000D01*
X162100000Y-140760000D02*
X158650000Y-140760000D01*
X162100000Y-140760000D02*
X164050000Y-140760000D01*
X162100000Y-130640000D02*
X160150000Y-130640000D01*
X162100000Y-130640000D02*
X164050000Y-130640000D01*
X179800000Y-140960000D02*
X176350000Y-140960000D01*
X179800000Y-140960000D02*
X181750000Y-140960000D01*
X179800000Y-130840000D02*
X177850000Y-130840000D01*
X179800000Y-130840000D02*
X181750000Y-130840000D01*
X167750000Y-76950000D02*
X167350000Y-76950000D01*
X167550000Y-76550000D02*
X167750000Y-76950000D01*
X167350000Y-76950000D02*
X167550000Y-76550000D01*
X182125000Y-74360000D02*
X182125000Y-73760000D01*
X182015000Y-74360000D02*
X182125000Y-74360000D01*
X164475000Y-74360000D02*
X164475000Y-73760000D01*
X164585000Y-74360000D02*
X164475000Y-74360000D01*
X206500000Y-106200000D02*
X206500000Y-85200000D01*
X155500000Y-99400000D02*
X155500000Y-106200000D01*
X203833000Y-106200000D02*
X203833000Y-103193000D01*
X203833000Y-103193000D02*
X206500000Y-103193000D01*
X206500000Y-106200000D02*
X206200000Y-106200000D01*
X204100000Y-106200000D02*
X203700000Y-106200000D01*
X201500000Y-106200000D02*
X201100000Y-106200000D01*
X199000000Y-106200000D02*
X198600000Y-106200000D01*
X196400000Y-106200000D02*
X196000000Y-106200000D01*
X193900000Y-106200000D02*
X193500000Y-106200000D01*
X191400000Y-106200000D02*
X191000000Y-106200000D01*
X188800000Y-106200000D02*
X188400000Y-106200000D01*
X186300000Y-106200000D02*
X185900000Y-106200000D01*
X183700000Y-106200000D02*
X183300000Y-106200000D01*
X181200000Y-106200000D02*
X180800000Y-106200000D01*
X178700000Y-106200000D02*
X178300000Y-106200000D01*
X176100000Y-106200000D02*
X175700000Y-106200000D01*
X173600000Y-106200000D02*
X173200000Y-106200000D01*
X171000000Y-106200000D02*
X170600000Y-106200000D01*
X168500000Y-106200000D02*
X168100000Y-106200000D01*
X165900000Y-106200000D02*
X165500000Y-106200000D01*
X163400000Y-106200000D02*
X163000000Y-106200000D01*
X160900000Y-106200000D02*
X160500000Y-106200000D01*
X158300000Y-106200000D02*
X157900000Y-106200000D01*
X191400000Y-85200000D02*
X191000000Y-85200000D01*
X186300000Y-85200000D02*
X185900000Y-85200000D01*
X178700000Y-85200000D02*
X178300000Y-85200000D01*
X171000000Y-85200000D02*
X170600000Y-85200000D01*
X201500000Y-85200000D02*
X201100000Y-85200000D01*
X204100000Y-85200000D02*
X203700000Y-85200000D01*
X196400000Y-85200000D02*
X196000000Y-85200000D01*
X163400000Y-85200000D02*
X163000000Y-85200000D01*
X158300000Y-85200000D02*
X157900000Y-85200000D01*
X160900000Y-85200000D02*
X160500000Y-85200000D01*
X176100000Y-85200000D02*
X175700000Y-85200000D01*
X181200000Y-85200000D02*
X180800000Y-85200000D01*
X193900000Y-85200000D02*
X193500000Y-85200000D01*
X188800000Y-85200000D02*
X188400000Y-85200000D01*
X168500000Y-85200000D02*
X168100000Y-85200000D01*
X183700000Y-85200000D02*
X183300000Y-85200000D01*
X206500000Y-85200000D02*
X206200000Y-85200000D01*
X199000000Y-85200000D02*
X198600000Y-85200000D01*
X173600000Y-85200000D02*
X173200000Y-85200000D01*
X165900000Y-85200000D02*
X165500000Y-85200000D01*
X155500000Y-85200000D02*
X155500000Y-92000000D01*
X155500000Y-97200000D02*
X155500000Y-96800000D01*
X155500000Y-94600000D02*
X155500000Y-94200000D01*
X155158578Y-132910000D02*
X154641422Y-132910000D01*
X155158578Y-131490000D02*
X154641422Y-131490000D01*
X192300000Y-123910000D02*
X198310000Y-123910000D01*
X194550000Y-117090000D02*
X198310000Y-117090000D01*
X198310000Y-123910000D02*
X198310000Y-122650000D01*
X198310000Y-117090000D02*
X198310000Y-118350000D01*
X193100000Y-64990000D02*
X195550000Y-64990000D01*
X194900000Y-68210000D02*
X193100000Y-68210000D01*
X194760000Y-74020000D02*
X193300000Y-74020000D01*
X194760000Y-77180000D02*
X192600000Y-77180000D01*
X194760000Y-77180000D02*
X194760000Y-76250000D01*
X194760000Y-74020000D02*
X194760000Y-74950000D01*
X149158578Y-156210000D02*
X148641422Y-156210000D01*
X149158578Y-154790000D02*
X148641422Y-154790000D01*
X148541422Y-157590000D02*
X149058578Y-157590000D01*
X148541422Y-159010000D02*
X149058578Y-159010000D01*
X155158578Y-135310000D02*
X154641422Y-135310000D01*
X155158578Y-133890000D02*
X154641422Y-133890000D01*
X155158578Y-137610000D02*
X154641422Y-137610000D01*
X155158578Y-136190000D02*
X154641422Y-136190000D01*
X198958578Y-72410000D02*
X198441422Y-72410000D01*
X198958578Y-70990000D02*
X198441422Y-70990000D01*
X198758578Y-68810000D02*
X198241422Y-68810000D01*
X198758578Y-67390000D02*
X198241422Y-67390000D01*
X197190000Y-75458578D02*
X197190000Y-74941422D01*
X198610000Y-75458578D02*
X198610000Y-74941422D01*
X155158578Y-140010000D02*
X154641422Y-140010000D01*
X155158578Y-138590000D02*
X154641422Y-138590000D01*
X168841422Y-139890000D02*
X169358578Y-139890000D01*
X168841422Y-141310000D02*
X169358578Y-141310000D01*
X168841422Y-137590000D02*
X169358578Y-137590000D01*
X168841422Y-139010000D02*
X169358578Y-139010000D01*
X168841422Y-135290000D02*
X169358578Y-135290000D01*
X168841422Y-136710000D02*
X169358578Y-136710000D01*
X168841422Y-132990000D02*
X169358578Y-132990000D01*
X168841422Y-134410000D02*
X169358578Y-134410000D01*
X171890000Y-81358578D02*
X171890000Y-80841422D01*
X173310000Y-81358578D02*
X173310000Y-80841422D01*
X173790000Y-81358578D02*
X173790000Y-80841422D01*
X175210000Y-81358578D02*
X175210000Y-80841422D01*
X171310000Y-80841422D02*
X171310000Y-81358578D01*
X169890000Y-80841422D02*
X169890000Y-81358578D01*
X164941422Y-108690000D02*
X165458578Y-108690000D01*
X164941422Y-110110000D02*
X165458578Y-110110000D01*
X192700000Y-58490000D02*
X193700000Y-58490000D01*
X192700000Y-63510000D02*
X193700000Y-63510000D01*
X205200000Y-63100000D02*
X206600000Y-63100000D01*
X207300000Y-62400000D02*
X207300000Y-61800000D01*
X206600000Y-61100000D02*
X205200000Y-61100000D01*
X204500000Y-61800000D02*
X204500000Y-62400000D01*
X204500000Y-62400000D02*
G75*
G03X205200000Y-63100000I700000J0D01*
G01*
X205200000Y-61100000D02*
G75*
G03X204500000Y-61800000I0J-700000D01*
G01*
X207300000Y-61800000D02*
G75*
G03X206600000Y-61100000I-700000J0D01*
G01*
X206600000Y-63100000D02*
G75*
G03X207300000Y-62400000I0J700000D01*
G01*
X145505000Y-89440000D02*
X145505000Y-88560000D01*
X146895000Y-88440000D02*
X146895000Y-87440000D01*
X146895000Y-90560000D02*
X146895000Y-89560000D01*
X146895000Y-87440000D02*
X146895000Y-87440000D01*
X145505000Y-90560000D02*
X145505000Y-90560000D01*
X145505000Y-90560000D02*
X144510000Y-90560000D01*
X145505000Y-87440000D02*
X146895000Y-87440000D01*
X145505000Y-90560000D02*
X146895000Y-90560000D01*
X167310000Y-80841422D02*
X167310000Y-81358578D01*
X165890000Y-80841422D02*
X165890000Y-81358578D01*
X205902064Y-67060000D02*
X204697936Y-67060000D01*
X205902064Y-64340000D02*
X204697936Y-64340000D01*
X196358578Y-125910000D02*
X195841422Y-125910000D01*
X196358578Y-124490000D02*
X195841422Y-124490000D01*
X190910000Y-119741422D02*
X190910000Y-120258578D01*
X189490000Y-119741422D02*
X189490000Y-120258578D01*
X202360000Y-63197936D02*
X202360000Y-64402064D01*
X199640000Y-63197936D02*
X199640000Y-64402064D01*
X193497936Y-69740000D02*
X194702064Y-69740000D01*
X193497936Y-72460000D02*
X194702064Y-72460000D01*
X178941422Y-79690000D02*
X179458578Y-79690000D01*
X178941422Y-81110000D02*
X179458578Y-81110000D01*
X169310000Y-80841422D02*
X169310000Y-81358578D01*
X167890000Y-80841422D02*
X167890000Y-81358578D01*
X177210000Y-80841422D02*
X177210000Y-81358578D01*
X175790000Y-80841422D02*
X175790000Y-81358578D01*
D10*
X173452380Y-63690476D02*
X174166666Y-63690476D01*
X174309523Y-63642857D01*
X174404761Y-63547619D01*
X174452380Y-63404761D01*
X174452380Y-63309523D01*
X174452380Y-64166666D02*
X173452380Y-64166666D01*
X173452380Y-64547619D01*
X173500000Y-64642857D01*
X173547619Y-64690476D01*
X173642857Y-64738095D01*
X173785714Y-64738095D01*
X173880952Y-64690476D01*
X173928571Y-64642857D01*
X173976190Y-64547619D01*
X173976190Y-64166666D01*
X174452380Y-65690476D02*
X174452380Y-65119047D01*
X174452380Y-65404761D02*
X173452380Y-65404761D01*
X173595238Y-65309523D01*
X173690476Y-65214285D01*
X173738095Y-65119047D01*
X173452380Y-66309523D02*
X173452380Y-66404761D01*
X173500000Y-66500000D01*
X173547619Y-66547619D01*
X173642857Y-66595238D01*
X173833333Y-66642857D01*
X174071428Y-66642857D01*
X174261904Y-66595238D01*
X174357142Y-66547619D01*
X174404761Y-66500000D01*
X174452380Y-66404761D01*
X174452380Y-66309523D01*
X174404761Y-66214285D01*
X174357142Y-66166666D01*
X174261904Y-66119047D01*
X174071428Y-66071428D01*
X173833333Y-66071428D01*
X173642857Y-66119047D01*
X173547619Y-66166666D01*
X173500000Y-66214285D01*
X173452380Y-66309523D01*
X174288095Y-70852380D02*
X174288095Y-69852380D01*
X174050000Y-69852380D01*
X173907142Y-69900000D01*
X173811904Y-69995238D01*
X173764285Y-70090476D01*
X173716666Y-70280952D01*
X173716666Y-70423809D01*
X173764285Y-70614285D01*
X173811904Y-70709523D01*
X173907142Y-70804761D01*
X174050000Y-70852380D01*
X174288095Y-70852380D01*
X173240476Y-70852380D02*
X173050000Y-70852380D01*
X172954761Y-70804761D01*
X172907142Y-70757142D01*
X172811904Y-70614285D01*
X172764285Y-70423809D01*
X172764285Y-70042857D01*
X172811904Y-69947619D01*
X172859523Y-69900000D01*
X172954761Y-69852380D01*
X173145238Y-69852380D01*
X173240476Y-69900000D01*
X173288095Y-69947619D01*
X173335714Y-70042857D01*
X173335714Y-70280952D01*
X173288095Y-70376190D01*
X173240476Y-70423809D01*
X173145238Y-70471428D01*
X172954761Y-70471428D01*
X172859523Y-70423809D01*
X172811904Y-70376190D01*
X172764285Y-70280952D01*
X172052380Y-65311904D02*
X171052380Y-65311904D01*
X171052380Y-65550000D01*
X171100000Y-65692857D01*
X171195238Y-65788095D01*
X171290476Y-65835714D01*
X171480952Y-65883333D01*
X171623809Y-65883333D01*
X171814285Y-65835714D01*
X171909523Y-65788095D01*
X172004761Y-65692857D01*
X172052380Y-65550000D01*
X172052380Y-65311904D01*
X171480952Y-66454761D02*
X171433333Y-66359523D01*
X171385714Y-66311904D01*
X171290476Y-66264285D01*
X171242857Y-66264285D01*
X171147619Y-66311904D01*
X171100000Y-66359523D01*
X171052380Y-66454761D01*
X171052380Y-66645238D01*
X171100000Y-66740476D01*
X171147619Y-66788095D01*
X171242857Y-66835714D01*
X171290476Y-66835714D01*
X171385714Y-66788095D01*
X171433333Y-66740476D01*
X171480952Y-66645238D01*
X171480952Y-66454761D01*
X171528571Y-66359523D01*
X171576190Y-66311904D01*
X171671428Y-66264285D01*
X171861904Y-66264285D01*
X171957142Y-66311904D01*
X172004761Y-66359523D01*
X172052380Y-66454761D01*
X172052380Y-66645238D01*
X172004761Y-66740476D01*
X171957142Y-66788095D01*
X171861904Y-66835714D01*
X171671428Y-66835714D01*
X171576190Y-66788095D01*
X171528571Y-66740476D01*
X171480952Y-66645238D01*
X145426190Y-60976190D02*
X145426190Y-61452380D01*
X145759523Y-60452380D02*
X145426190Y-60976190D01*
X145092857Y-60452380D01*
X144235714Y-61452380D02*
X144807142Y-61452380D01*
X144521428Y-61452380D02*
X144521428Y-60452380D01*
X144616666Y-60595238D01*
X144711904Y-60690476D01*
X144807142Y-60738095D01*
X157561904Y-57552380D02*
X157561904Y-58361904D01*
X157514285Y-58457142D01*
X157466666Y-58504761D01*
X157371428Y-58552380D01*
X157180952Y-58552380D01*
X157085714Y-58504761D01*
X157038095Y-58457142D01*
X156990476Y-58361904D01*
X156990476Y-57552380D01*
X156609523Y-57552380D02*
X155942857Y-57552380D01*
X156371428Y-58552380D01*
X159792857Y-65702380D02*
X160126190Y-65226190D01*
X160364285Y-65702380D02*
X160364285Y-64702380D01*
X159983333Y-64702380D01*
X159888095Y-64750000D01*
X159840476Y-64797619D01*
X159792857Y-64892857D01*
X159792857Y-65035714D01*
X159840476Y-65130952D01*
X159888095Y-65178571D01*
X159983333Y-65226190D01*
X160364285Y-65226190D01*
X159411904Y-64797619D02*
X159364285Y-64750000D01*
X159269047Y-64702380D01*
X159030952Y-64702380D01*
X158935714Y-64750000D01*
X158888095Y-64797619D01*
X158840476Y-64892857D01*
X158840476Y-64988095D01*
X158888095Y-65130952D01*
X159459523Y-65702380D01*
X158840476Y-65702380D01*
X158269047Y-65130952D02*
X158364285Y-65083333D01*
X158411904Y-65035714D01*
X158459523Y-64940476D01*
X158459523Y-64892857D01*
X158411904Y-64797619D01*
X158364285Y-64750000D01*
X158269047Y-64702380D01*
X158078571Y-64702380D01*
X157983333Y-64750000D01*
X157935714Y-64797619D01*
X157888095Y-64892857D01*
X157888095Y-64940476D01*
X157935714Y-65035714D01*
X157983333Y-65083333D01*
X158078571Y-65130952D01*
X158269047Y-65130952D01*
X158364285Y-65178571D01*
X158411904Y-65226190D01*
X158459523Y-65321428D01*
X158459523Y-65511904D01*
X158411904Y-65607142D01*
X158364285Y-65654761D01*
X158269047Y-65702380D01*
X158078571Y-65702380D01*
X157983333Y-65654761D01*
X157935714Y-65607142D01*
X157888095Y-65511904D01*
X157888095Y-65321428D01*
X157935714Y-65226190D01*
X157983333Y-65178571D01*
X158078571Y-65130952D01*
X169142857Y-61102380D02*
X169476190Y-60626190D01*
X169714285Y-61102380D02*
X169714285Y-60102380D01*
X169333333Y-60102380D01*
X169238095Y-60150000D01*
X169190476Y-60197619D01*
X169142857Y-60292857D01*
X169142857Y-60435714D01*
X169190476Y-60530952D01*
X169238095Y-60578571D01*
X169333333Y-60626190D01*
X169714285Y-60626190D01*
X168761904Y-60197619D02*
X168714285Y-60150000D01*
X168619047Y-60102380D01*
X168380952Y-60102380D01*
X168285714Y-60150000D01*
X168238095Y-60197619D01*
X168190476Y-60292857D01*
X168190476Y-60388095D01*
X168238095Y-60530952D01*
X168809523Y-61102380D01*
X168190476Y-61102380D01*
X167857142Y-60102380D02*
X167190476Y-60102380D01*
X167619047Y-61102380D01*
X182692857Y-62252380D02*
X183026190Y-61776190D01*
X183264285Y-62252380D02*
X183264285Y-61252380D01*
X182883333Y-61252380D01*
X182788095Y-61300000D01*
X182740476Y-61347619D01*
X182692857Y-61442857D01*
X182692857Y-61585714D01*
X182740476Y-61680952D01*
X182788095Y-61728571D01*
X182883333Y-61776190D01*
X183264285Y-61776190D01*
X182311904Y-61347619D02*
X182264285Y-61300000D01*
X182169047Y-61252380D01*
X181930952Y-61252380D01*
X181835714Y-61300000D01*
X181788095Y-61347619D01*
X181740476Y-61442857D01*
X181740476Y-61538095D01*
X181788095Y-61680952D01*
X182359523Y-62252380D01*
X181740476Y-62252380D01*
X180883333Y-61585714D02*
X180883333Y-62252380D01*
X181121428Y-61204761D02*
X181359523Y-61919047D01*
X180740476Y-61919047D01*
X175442857Y-69052380D02*
X175776190Y-68576190D01*
X176014285Y-69052380D02*
X176014285Y-68052380D01*
X175633333Y-68052380D01*
X175538095Y-68100000D01*
X175490476Y-68147619D01*
X175442857Y-68242857D01*
X175442857Y-68385714D01*
X175490476Y-68480952D01*
X175538095Y-68528571D01*
X175633333Y-68576190D01*
X176014285Y-68576190D01*
X174490476Y-69052380D02*
X175061904Y-69052380D01*
X174776190Y-69052380D02*
X174776190Y-68052380D01*
X174871428Y-68195238D01*
X174966666Y-68290476D01*
X175061904Y-68338095D01*
X173919047Y-68480952D02*
X174014285Y-68433333D01*
X174061904Y-68385714D01*
X174109523Y-68290476D01*
X174109523Y-68242857D01*
X174061904Y-68147619D01*
X174014285Y-68100000D01*
X173919047Y-68052380D01*
X173728571Y-68052380D01*
X173633333Y-68100000D01*
X173585714Y-68147619D01*
X173538095Y-68242857D01*
X173538095Y-68290476D01*
X173585714Y-68385714D01*
X173633333Y-68433333D01*
X173728571Y-68480952D01*
X173919047Y-68480952D01*
X174014285Y-68528571D01*
X174061904Y-68576190D01*
X174109523Y-68671428D01*
X174109523Y-68861904D01*
X174061904Y-68957142D01*
X174014285Y-69004761D01*
X173919047Y-69052380D01*
X173728571Y-69052380D01*
X173633333Y-69004761D01*
X173585714Y-68957142D01*
X173538095Y-68861904D01*
X173538095Y-68671428D01*
X173585714Y-68576190D01*
X173633333Y-68528571D01*
X173728571Y-68480952D01*
X180702380Y-67190476D02*
X179702380Y-67190476D01*
X180416666Y-67523809D01*
X179702380Y-67857142D01*
X180702380Y-67857142D01*
X179702380Y-68238095D02*
X179702380Y-68857142D01*
X180083333Y-68523809D01*
X180083333Y-68666666D01*
X180130952Y-68761904D01*
X180178571Y-68809523D01*
X180273809Y-68857142D01*
X180511904Y-68857142D01*
X180607142Y-68809523D01*
X180654761Y-68761904D01*
X180702380Y-68666666D01*
X180702380Y-68380952D01*
X180654761Y-68285714D01*
X180607142Y-68238095D01*
X153088095Y-67552380D02*
X153088095Y-66552380D01*
X152850000Y-66552380D01*
X152707142Y-66600000D01*
X152611904Y-66695238D01*
X152564285Y-66790476D01*
X152516666Y-66980952D01*
X152516666Y-67123809D01*
X152564285Y-67314285D01*
X152611904Y-67409523D01*
X152707142Y-67504761D01*
X152850000Y-67552380D01*
X153088095Y-67552380D01*
X152183333Y-66552380D02*
X151516666Y-66552380D01*
X151945238Y-67552380D01*
X144042857Y-66857142D02*
X144090476Y-66904761D01*
X144233333Y-66952380D01*
X144328571Y-66952380D01*
X144471428Y-66904761D01*
X144566666Y-66809523D01*
X144614285Y-66714285D01*
X144661904Y-66523809D01*
X144661904Y-66380952D01*
X144614285Y-66190476D01*
X144566666Y-66095238D01*
X144471428Y-66000000D01*
X144328571Y-65952380D01*
X144233333Y-65952380D01*
X144090476Y-66000000D01*
X144042857Y-66047619D01*
X143090476Y-66952380D02*
X143661904Y-66952380D01*
X143376190Y-66952380D02*
X143376190Y-65952380D01*
X143471428Y-66095238D01*
X143566666Y-66190476D01*
X143661904Y-66238095D01*
X142233333Y-65952380D02*
X142423809Y-65952380D01*
X142519047Y-66000000D01*
X142566666Y-66047619D01*
X142661904Y-66190476D01*
X142709523Y-66380952D01*
X142709523Y-66761904D01*
X142661904Y-66857142D01*
X142614285Y-66904761D01*
X142519047Y-66952380D01*
X142328571Y-66952380D01*
X142233333Y-66904761D01*
X142185714Y-66857142D01*
X142138095Y-66761904D01*
X142138095Y-66523809D01*
X142185714Y-66428571D01*
X142233333Y-66380952D01*
X142328571Y-66333333D01*
X142519047Y-66333333D01*
X142614285Y-66380952D01*
X142661904Y-66428571D01*
X142709523Y-66523809D01*
X143292857Y-59057142D02*
X143340476Y-59104761D01*
X143483333Y-59152380D01*
X143578571Y-59152380D01*
X143721428Y-59104761D01*
X143816666Y-59009523D01*
X143864285Y-58914285D01*
X143911904Y-58723809D01*
X143911904Y-58580952D01*
X143864285Y-58390476D01*
X143816666Y-58295238D01*
X143721428Y-58200000D01*
X143578571Y-58152380D01*
X143483333Y-58152380D01*
X143340476Y-58200000D01*
X143292857Y-58247619D01*
X142340476Y-59152380D02*
X142911904Y-59152380D01*
X142626190Y-59152380D02*
X142626190Y-58152380D01*
X142721428Y-58295238D01*
X142816666Y-58390476D01*
X142911904Y-58438095D01*
X142007142Y-58152380D02*
X141388095Y-58152380D01*
X141721428Y-58533333D01*
X141578571Y-58533333D01*
X141483333Y-58580952D01*
X141435714Y-58628571D01*
X141388095Y-58723809D01*
X141388095Y-58961904D01*
X141435714Y-59057142D01*
X141483333Y-59104761D01*
X141578571Y-59152380D01*
X141864285Y-59152380D01*
X141959523Y-59104761D01*
X142007142Y-59057142D01*
X177709523Y-57702380D02*
X177709523Y-56702380D01*
X177376190Y-57416666D01*
X177042857Y-56702380D01*
X177042857Y-57702380D01*
X176614285Y-56797619D02*
X176566666Y-56750000D01*
X176471428Y-56702380D01*
X176233333Y-56702380D01*
X176138095Y-56750000D01*
X176090476Y-56797619D01*
X176042857Y-56892857D01*
X176042857Y-56988095D01*
X176090476Y-57130952D01*
X176661904Y-57702380D01*
X176042857Y-57702380D01*
X186059523Y-61702380D02*
X186059523Y-60702380D01*
X185726190Y-61416666D01*
X185392857Y-60702380D01*
X185392857Y-61702380D01*
X184392857Y-61702380D02*
X184964285Y-61702380D01*
X184678571Y-61702380D02*
X184678571Y-60702380D01*
X184773809Y-60845238D01*
X184869047Y-60940476D01*
X184964285Y-60988095D01*
X184652380Y-57838095D02*
X184652380Y-58409523D01*
X185652380Y-58123809D02*
X184652380Y-58123809D01*
X185652380Y-59314285D02*
X185176190Y-58980952D01*
X185652380Y-58742857D02*
X184652380Y-58742857D01*
X184652380Y-59123809D01*
X184700000Y-59219047D01*
X184747619Y-59266666D01*
X184842857Y-59314285D01*
X184985714Y-59314285D01*
X185080952Y-59266666D01*
X185128571Y-59219047D01*
X185176190Y-59123809D01*
X185176190Y-58742857D01*
X184747619Y-59695238D02*
X184700000Y-59742857D01*
X184652380Y-59838095D01*
X184652380Y-60076190D01*
X184700000Y-60171428D01*
X184747619Y-60219047D01*
X184842857Y-60266666D01*
X184938095Y-60266666D01*
X185080952Y-60219047D01*
X185652380Y-59647619D01*
X185652380Y-60266666D01*
X144652380Y-102057142D02*
X144176190Y-101723809D01*
X144652380Y-101485714D02*
X143652380Y-101485714D01*
X143652380Y-101866666D01*
X143700000Y-101961904D01*
X143747619Y-102009523D01*
X143842857Y-102057142D01*
X143985714Y-102057142D01*
X144080952Y-102009523D01*
X144128571Y-101961904D01*
X144176190Y-101866666D01*
X144176190Y-101485714D01*
X144652380Y-103009523D02*
X144652380Y-102438095D01*
X144652380Y-102723809D02*
X143652380Y-102723809D01*
X143795238Y-102628571D01*
X143890476Y-102533333D01*
X143938095Y-102438095D01*
X143652380Y-103342857D02*
X143652380Y-104009523D01*
X144652380Y-103580952D01*
X152592857Y-102102380D02*
X152926190Y-101626190D01*
X153164285Y-102102380D02*
X153164285Y-101102380D01*
X152783333Y-101102380D01*
X152688095Y-101150000D01*
X152640476Y-101197619D01*
X152592857Y-101292857D01*
X152592857Y-101435714D01*
X152640476Y-101530952D01*
X152688095Y-101578571D01*
X152783333Y-101626190D01*
X153164285Y-101626190D01*
X151640476Y-102102380D02*
X152211904Y-102102380D01*
X151926190Y-102102380D02*
X151926190Y-101102380D01*
X152021428Y-101245238D01*
X152116666Y-101340476D01*
X152211904Y-101388095D01*
X150783333Y-101102380D02*
X150973809Y-101102380D01*
X151069047Y-101150000D01*
X151116666Y-101197619D01*
X151211904Y-101340476D01*
X151259523Y-101530952D01*
X151259523Y-101911904D01*
X151211904Y-102007142D01*
X151164285Y-102054761D01*
X151069047Y-102102380D01*
X150878571Y-102102380D01*
X150783333Y-102054761D01*
X150735714Y-102007142D01*
X150688095Y-101911904D01*
X150688095Y-101673809D01*
X150735714Y-101578571D01*
X150783333Y-101530952D01*
X150878571Y-101483333D01*
X151069047Y-101483333D01*
X151164285Y-101530952D01*
X151211904Y-101578571D01*
X151259523Y-101673809D01*
X191102380Y-78007142D02*
X190626190Y-77673809D01*
X191102380Y-77435714D02*
X190102380Y-77435714D01*
X190102380Y-77816666D01*
X190150000Y-77911904D01*
X190197619Y-77959523D01*
X190292857Y-78007142D01*
X190435714Y-78007142D01*
X190530952Y-77959523D01*
X190578571Y-77911904D01*
X190626190Y-77816666D01*
X190626190Y-77435714D01*
X191102380Y-78959523D02*
X191102380Y-78388095D01*
X191102380Y-78673809D02*
X190102380Y-78673809D01*
X190245238Y-78578571D01*
X190340476Y-78483333D01*
X190388095Y-78388095D01*
X190102380Y-79864285D02*
X190102380Y-79388095D01*
X190578571Y-79340476D01*
X190530952Y-79388095D01*
X190483333Y-79483333D01*
X190483333Y-79721428D01*
X190530952Y-79816666D01*
X190578571Y-79864285D01*
X190673809Y-79911904D01*
X190911904Y-79911904D01*
X191007142Y-79864285D01*
X191054761Y-79816666D01*
X191102380Y-79721428D01*
X191102380Y-79483333D01*
X191054761Y-79388095D01*
X191007142Y-79340476D01*
X184192857Y-57252380D02*
X184526190Y-56776190D01*
X184764285Y-57252380D02*
X184764285Y-56252380D01*
X184383333Y-56252380D01*
X184288095Y-56300000D01*
X184240476Y-56347619D01*
X184192857Y-56442857D01*
X184192857Y-56585714D01*
X184240476Y-56680952D01*
X184288095Y-56728571D01*
X184383333Y-56776190D01*
X184764285Y-56776190D01*
X183240476Y-57252380D02*
X183811904Y-57252380D01*
X183526190Y-57252380D02*
X183526190Y-56252380D01*
X183621428Y-56395238D01*
X183716666Y-56490476D01*
X183811904Y-56538095D01*
X182383333Y-56585714D02*
X182383333Y-57252380D01*
X182621428Y-56204761D02*
X182859523Y-56919047D01*
X182240476Y-56919047D01*
X188502380Y-63257142D02*
X188026190Y-62923809D01*
X188502380Y-62685714D02*
X187502380Y-62685714D01*
X187502380Y-63066666D01*
X187550000Y-63161904D01*
X187597619Y-63209523D01*
X187692857Y-63257142D01*
X187835714Y-63257142D01*
X187930952Y-63209523D01*
X187978571Y-63161904D01*
X188026190Y-63066666D01*
X188026190Y-62685714D01*
X188502380Y-64209523D02*
X188502380Y-63638095D01*
X188502380Y-63923809D02*
X187502380Y-63923809D01*
X187645238Y-63828571D01*
X187740476Y-63733333D01*
X187788095Y-63638095D01*
X187502380Y-64542857D02*
X187502380Y-65161904D01*
X187883333Y-64828571D01*
X187883333Y-64971428D01*
X187930952Y-65066666D01*
X187978571Y-65114285D01*
X188073809Y-65161904D01*
X188311904Y-65161904D01*
X188407142Y-65114285D01*
X188454761Y-65066666D01*
X188502380Y-64971428D01*
X188502380Y-64685714D01*
X188454761Y-64590476D01*
X188407142Y-64542857D01*
X148552380Y-96616666D02*
X149266666Y-96616666D01*
X149409523Y-96569047D01*
X149504761Y-96473809D01*
X149552380Y-96330952D01*
X149552380Y-96235714D01*
X149552380Y-97092857D02*
X148552380Y-97092857D01*
X148552380Y-97473809D01*
X148600000Y-97569047D01*
X148647619Y-97616666D01*
X148742857Y-97664285D01*
X148885714Y-97664285D01*
X148980952Y-97616666D01*
X149028571Y-97569047D01*
X149076190Y-97473809D01*
X149076190Y-97092857D01*
X149552380Y-98140476D02*
X149552380Y-98330952D01*
X149504761Y-98426190D01*
X149457142Y-98473809D01*
X149314285Y-98569047D01*
X149123809Y-98616666D01*
X148742857Y-98616666D01*
X148647619Y-98569047D01*
X148600000Y-98521428D01*
X148552380Y-98426190D01*
X148552380Y-98235714D01*
X148600000Y-98140476D01*
X148647619Y-98092857D01*
X148742857Y-98045238D01*
X148980952Y-98045238D01*
X149076190Y-98092857D01*
X149123809Y-98140476D01*
X149171428Y-98235714D01*
X149171428Y-98426190D01*
X149123809Y-98521428D01*
X149076190Y-98569047D01*
X148980952Y-98616666D01*
X146002380Y-96466666D02*
X146716666Y-96466666D01*
X146859523Y-96419047D01*
X146954761Y-96323809D01*
X147002380Y-96180952D01*
X147002380Y-96085714D01*
X147002380Y-96942857D02*
X146002380Y-96942857D01*
X146002380Y-97323809D01*
X146050000Y-97419047D01*
X146097619Y-97466666D01*
X146192857Y-97514285D01*
X146335714Y-97514285D01*
X146430952Y-97466666D01*
X146478571Y-97419047D01*
X146526190Y-97323809D01*
X146526190Y-96942857D01*
X146430952Y-98085714D02*
X146383333Y-97990476D01*
X146335714Y-97942857D01*
X146240476Y-97895238D01*
X146192857Y-97895238D01*
X146097619Y-97942857D01*
X146050000Y-97990476D01*
X146002380Y-98085714D01*
X146002380Y-98276190D01*
X146050000Y-98371428D01*
X146097619Y-98419047D01*
X146192857Y-98466666D01*
X146240476Y-98466666D01*
X146335714Y-98419047D01*
X146383333Y-98371428D01*
X146430952Y-98276190D01*
X146430952Y-98085714D01*
X146478571Y-97990476D01*
X146526190Y-97942857D01*
X146621428Y-97895238D01*
X146811904Y-97895238D01*
X146907142Y-97942857D01*
X146954761Y-97990476D01*
X147002380Y-98085714D01*
X147002380Y-98276190D01*
X146954761Y-98371428D01*
X146907142Y-98419047D01*
X146811904Y-98466666D01*
X146621428Y-98466666D01*
X146526190Y-98419047D01*
X146478571Y-98371428D01*
X146430952Y-98276190D01*
X172733333Y-63552380D02*
X172733333Y-64266666D01*
X172780952Y-64409523D01*
X172876190Y-64504761D01*
X173019047Y-64552380D01*
X173114285Y-64552380D01*
X172257142Y-64552380D02*
X172257142Y-63552380D01*
X171876190Y-63552380D01*
X171780952Y-63600000D01*
X171733333Y-63647619D01*
X171685714Y-63742857D01*
X171685714Y-63885714D01*
X171733333Y-63980952D01*
X171780952Y-64028571D01*
X171876190Y-64076190D01*
X172257142Y-64076190D01*
X171352380Y-63552380D02*
X170685714Y-63552380D01*
X171114285Y-64552380D01*
X173452380Y-60766666D02*
X174166666Y-60766666D01*
X174309523Y-60719047D01*
X174404761Y-60623809D01*
X174452380Y-60480952D01*
X174452380Y-60385714D01*
X174452380Y-61242857D02*
X173452380Y-61242857D01*
X173452380Y-61623809D01*
X173500000Y-61719047D01*
X173547619Y-61766666D01*
X173642857Y-61814285D01*
X173785714Y-61814285D01*
X173880952Y-61766666D01*
X173928571Y-61719047D01*
X173976190Y-61623809D01*
X173976190Y-61242857D01*
X173452380Y-62671428D02*
X173452380Y-62480952D01*
X173500000Y-62385714D01*
X173547619Y-62338095D01*
X173690476Y-62242857D01*
X173880952Y-62195238D01*
X174261904Y-62195238D01*
X174357142Y-62242857D01*
X174404761Y-62290476D01*
X174452380Y-62385714D01*
X174452380Y-62576190D01*
X174404761Y-62671428D01*
X174357142Y-62719047D01*
X174261904Y-62766666D01*
X174023809Y-62766666D01*
X173928571Y-62719047D01*
X173880952Y-62671428D01*
X173833333Y-62576190D01*
X173833333Y-62385714D01*
X173880952Y-62290476D01*
X173928571Y-62242857D01*
X174023809Y-62195238D01*
X196983333Y-111902380D02*
X196983333Y-112616666D01*
X197030952Y-112759523D01*
X197126190Y-112854761D01*
X197269047Y-112902380D01*
X197364285Y-112902380D01*
X196507142Y-112902380D02*
X196507142Y-111902380D01*
X196126190Y-111902380D01*
X196030952Y-111950000D01*
X195983333Y-111997619D01*
X195935714Y-112092857D01*
X195935714Y-112235714D01*
X195983333Y-112330952D01*
X196030952Y-112378571D01*
X196126190Y-112426190D01*
X196507142Y-112426190D01*
X195030952Y-111902380D02*
X195507142Y-111902380D01*
X195554761Y-112378571D01*
X195507142Y-112330952D01*
X195411904Y-112283333D01*
X195173809Y-112283333D01*
X195078571Y-112330952D01*
X195030952Y-112378571D01*
X194983333Y-112473809D01*
X194983333Y-112711904D01*
X195030952Y-112807142D01*
X195078571Y-112854761D01*
X195173809Y-112902380D01*
X195411904Y-112902380D01*
X195507142Y-112854761D01*
X195554761Y-112807142D01*
X197083333Y-113852380D02*
X197083333Y-114566666D01*
X197130952Y-114709523D01*
X197226190Y-114804761D01*
X197369047Y-114852380D01*
X197464285Y-114852380D01*
X196607142Y-114852380D02*
X196607142Y-113852380D01*
X196226190Y-113852380D01*
X196130952Y-113900000D01*
X196083333Y-113947619D01*
X196035714Y-114042857D01*
X196035714Y-114185714D01*
X196083333Y-114280952D01*
X196130952Y-114328571D01*
X196226190Y-114376190D01*
X196607142Y-114376190D01*
X195178571Y-114185714D02*
X195178571Y-114852380D01*
X195416666Y-113804761D02*
X195654761Y-114519047D01*
X195035714Y-114519047D01*
X163783333Y-64352380D02*
X163783333Y-65066666D01*
X163830952Y-65209523D01*
X163926190Y-65304761D01*
X164069047Y-65352380D01*
X164164285Y-65352380D01*
X163307142Y-65352380D02*
X163307142Y-64352380D01*
X162926190Y-64352380D01*
X162830952Y-64400000D01*
X162783333Y-64447619D01*
X162735714Y-64542857D01*
X162735714Y-64685714D01*
X162783333Y-64780952D01*
X162830952Y-64828571D01*
X162926190Y-64876190D01*
X163307142Y-64876190D01*
X162402380Y-64352380D02*
X161783333Y-64352380D01*
X162116666Y-64733333D01*
X161973809Y-64733333D01*
X161878571Y-64780952D01*
X161830952Y-64828571D01*
X161783333Y-64923809D01*
X161783333Y-65161904D01*
X161830952Y-65257142D01*
X161878571Y-65304761D01*
X161973809Y-65352380D01*
X162259523Y-65352380D01*
X162354761Y-65304761D01*
X162402380Y-65257142D01*
X187933333Y-73602380D02*
X187933333Y-74316666D01*
X187980952Y-74459523D01*
X188076190Y-74554761D01*
X188219047Y-74602380D01*
X188314285Y-74602380D01*
X187457142Y-74602380D02*
X187457142Y-73602380D01*
X187076190Y-73602380D01*
X186980952Y-73650000D01*
X186933333Y-73697619D01*
X186885714Y-73792857D01*
X186885714Y-73935714D01*
X186933333Y-74030952D01*
X186980952Y-74078571D01*
X187076190Y-74126190D01*
X187457142Y-74126190D01*
X186504761Y-73697619D02*
X186457142Y-73650000D01*
X186361904Y-73602380D01*
X186123809Y-73602380D01*
X186028571Y-73650000D01*
X185980952Y-73697619D01*
X185933333Y-73792857D01*
X185933333Y-73888095D01*
X185980952Y-74030952D01*
X186552380Y-74602380D01*
X185933333Y-74602380D01*
X150888095Y-106952380D02*
X150888095Y-105952380D01*
X150650000Y-105952380D01*
X150507142Y-106000000D01*
X150411904Y-106095238D01*
X150364285Y-106190476D01*
X150316666Y-106380952D01*
X150316666Y-106523809D01*
X150364285Y-106714285D01*
X150411904Y-106809523D01*
X150507142Y-106904761D01*
X150650000Y-106952380D01*
X150888095Y-106952380D01*
X149459523Y-105952380D02*
X149650000Y-105952380D01*
X149745238Y-106000000D01*
X149792857Y-106047619D01*
X149888095Y-106190476D01*
X149935714Y-106380952D01*
X149935714Y-106761904D01*
X149888095Y-106857142D01*
X149840476Y-106904761D01*
X149745238Y-106952380D01*
X149554761Y-106952380D01*
X149459523Y-106904761D01*
X149411904Y-106857142D01*
X149364285Y-106761904D01*
X149364285Y-106523809D01*
X149411904Y-106428571D01*
X149459523Y-106380952D01*
X149554761Y-106333333D01*
X149745238Y-106333333D01*
X149840476Y-106380952D01*
X149888095Y-106428571D01*
X149935714Y-106523809D01*
X189302380Y-65961904D02*
X188302380Y-65961904D01*
X188302380Y-66200000D01*
X188350000Y-66342857D01*
X188445238Y-66438095D01*
X188540476Y-66485714D01*
X188730952Y-66533333D01*
X188873809Y-66533333D01*
X189064285Y-66485714D01*
X189159523Y-66438095D01*
X189254761Y-66342857D01*
X189302380Y-66200000D01*
X189302380Y-65961904D01*
X188302380Y-67438095D02*
X188302380Y-66961904D01*
X188778571Y-66914285D01*
X188730952Y-66961904D01*
X188683333Y-67057142D01*
X188683333Y-67295238D01*
X188730952Y-67390476D01*
X188778571Y-67438095D01*
X188873809Y-67485714D01*
X189111904Y-67485714D01*
X189207142Y-67438095D01*
X189254761Y-67390476D01*
X189302380Y-67295238D01*
X189302380Y-67057142D01*
X189254761Y-66961904D01*
X189207142Y-66914285D01*
X185252380Y-70761904D02*
X184252380Y-70761904D01*
X184252380Y-71000000D01*
X184300000Y-71142857D01*
X184395238Y-71238095D01*
X184490476Y-71285714D01*
X184680952Y-71333333D01*
X184823809Y-71333333D01*
X185014285Y-71285714D01*
X185109523Y-71238095D01*
X185204761Y-71142857D01*
X185252380Y-71000000D01*
X185252380Y-70761904D01*
X184585714Y-72190476D02*
X185252380Y-72190476D01*
X184204761Y-71952380D02*
X184919047Y-71714285D01*
X184919047Y-72333333D01*
X181502380Y-70611904D02*
X180502380Y-70611904D01*
X180502380Y-70850000D01*
X180550000Y-70992857D01*
X180645238Y-71088095D01*
X180740476Y-71135714D01*
X180930952Y-71183333D01*
X181073809Y-71183333D01*
X181264285Y-71135714D01*
X181359523Y-71088095D01*
X181454761Y-70992857D01*
X181502380Y-70850000D01*
X181502380Y-70611904D01*
X180502380Y-71516666D02*
X180502380Y-72135714D01*
X180883333Y-71802380D01*
X180883333Y-71945238D01*
X180930952Y-72040476D01*
X180978571Y-72088095D01*
X181073809Y-72135714D01*
X181311904Y-72135714D01*
X181407142Y-72088095D01*
X181454761Y-72040476D01*
X181502380Y-71945238D01*
X181502380Y-71659523D01*
X181454761Y-71564285D01*
X181407142Y-71516666D01*
X205052380Y-79461904D02*
X204052380Y-79461904D01*
X204052380Y-79700000D01*
X204100000Y-79842857D01*
X204195238Y-79938095D01*
X204290476Y-79985714D01*
X204480952Y-80033333D01*
X204623809Y-80033333D01*
X204814285Y-79985714D01*
X204909523Y-79938095D01*
X205004761Y-79842857D01*
X205052380Y-79700000D01*
X205052380Y-79461904D01*
X204147619Y-80414285D02*
X204100000Y-80461904D01*
X204052380Y-80557142D01*
X204052380Y-80795238D01*
X204100000Y-80890476D01*
X204147619Y-80938095D01*
X204242857Y-80985714D01*
X204338095Y-80985714D01*
X204480952Y-80938095D01*
X205052380Y-80366666D01*
X205052380Y-80985714D01*
X198261904Y-139052380D02*
X198261904Y-139861904D01*
X198214285Y-139957142D01*
X198166666Y-140004761D01*
X198071428Y-140052380D01*
X197880952Y-140052380D01*
X197785714Y-140004761D01*
X197738095Y-139957142D01*
X197690476Y-139861904D01*
X197690476Y-139052380D01*
X196785714Y-139052380D02*
X196976190Y-139052380D01*
X197071428Y-139100000D01*
X197119047Y-139147619D01*
X197214285Y-139290476D01*
X197261904Y-139480952D01*
X197261904Y-139861904D01*
X197214285Y-139957142D01*
X197166666Y-140004761D01*
X197071428Y-140052380D01*
X196880952Y-140052380D01*
X196785714Y-140004761D01*
X196738095Y-139957142D01*
X196690476Y-139861904D01*
X196690476Y-139623809D01*
X196738095Y-139528571D01*
X196785714Y-139480952D01*
X196880952Y-139433333D01*
X197071428Y-139433333D01*
X197166666Y-139480952D01*
X197214285Y-139528571D01*
X197261904Y-139623809D01*
X160033333Y-73702380D02*
X160033333Y-74416666D01*
X160080952Y-74559523D01*
X160176190Y-74654761D01*
X160319047Y-74702380D01*
X160414285Y-74702380D01*
X159080952Y-73702380D02*
X159557142Y-73702380D01*
X159604761Y-74178571D01*
X159557142Y-74130952D01*
X159461904Y-74083333D01*
X159223809Y-74083333D01*
X159128571Y-74130952D01*
X159080952Y-74178571D01*
X159033333Y-74273809D01*
X159033333Y-74511904D01*
X159080952Y-74607142D01*
X159128571Y-74654761D01*
X159223809Y-74702380D01*
X159461904Y-74702380D01*
X159557142Y-74654761D01*
X159604761Y-74607142D01*
X147633333Y-75852380D02*
X147633333Y-76566666D01*
X147680952Y-76709523D01*
X147776190Y-76804761D01*
X147919047Y-76852380D01*
X148014285Y-76852380D01*
X146728571Y-76185714D02*
X146728571Y-76852380D01*
X146966666Y-75804761D02*
X147204761Y-76519047D01*
X146585714Y-76519047D01*
X149992857Y-152807142D02*
X150040476Y-152854761D01*
X150183333Y-152902380D01*
X150278571Y-152902380D01*
X150421428Y-152854761D01*
X150516666Y-152759523D01*
X150564285Y-152664285D01*
X150611904Y-152473809D01*
X150611904Y-152330952D01*
X150564285Y-152140476D01*
X150516666Y-152045238D01*
X150421428Y-151950000D01*
X150278571Y-151902380D01*
X150183333Y-151902380D01*
X150040476Y-151950000D01*
X149992857Y-151997619D01*
X149040476Y-152902380D02*
X149611904Y-152902380D01*
X149326190Y-152902380D02*
X149326190Y-151902380D01*
X149421428Y-152045238D01*
X149516666Y-152140476D01*
X149611904Y-152188095D01*
X148135714Y-151902380D02*
X148611904Y-151902380D01*
X148659523Y-152378571D01*
X148611904Y-152330952D01*
X148516666Y-152283333D01*
X148278571Y-152283333D01*
X148183333Y-152330952D01*
X148135714Y-152378571D01*
X148088095Y-152473809D01*
X148088095Y-152711904D01*
X148135714Y-152807142D01*
X148183333Y-152854761D01*
X148278571Y-152902380D01*
X148516666Y-152902380D01*
X148611904Y-152854761D01*
X148659523Y-152807142D01*
X159242857Y-129657142D02*
X159290476Y-129704761D01*
X159433333Y-129752380D01*
X159528571Y-129752380D01*
X159671428Y-129704761D01*
X159766666Y-129609523D01*
X159814285Y-129514285D01*
X159861904Y-129323809D01*
X159861904Y-129180952D01*
X159814285Y-128990476D01*
X159766666Y-128895238D01*
X159671428Y-128800000D01*
X159528571Y-128752380D01*
X159433333Y-128752380D01*
X159290476Y-128800000D01*
X159242857Y-128847619D01*
X158290476Y-129752380D02*
X158861904Y-129752380D01*
X158576190Y-129752380D02*
X158576190Y-128752380D01*
X158671428Y-128895238D01*
X158766666Y-128990476D01*
X158861904Y-129038095D01*
X157433333Y-129085714D02*
X157433333Y-129752380D01*
X157671428Y-128704761D02*
X157909523Y-129419047D01*
X157290476Y-129419047D01*
X198152380Y-59611904D02*
X197152380Y-59611904D01*
X197152380Y-59850000D01*
X197200000Y-59992857D01*
X197295238Y-60088095D01*
X197390476Y-60135714D01*
X197580952Y-60183333D01*
X197723809Y-60183333D01*
X197914285Y-60135714D01*
X198009523Y-60088095D01*
X198104761Y-59992857D01*
X198152380Y-59850000D01*
X198152380Y-59611904D01*
X198152380Y-61135714D02*
X198152380Y-60564285D01*
X198152380Y-60850000D02*
X197152380Y-60850000D01*
X197295238Y-60754761D01*
X197390476Y-60659523D01*
X197438095Y-60564285D01*
X162561904Y-126952380D02*
X162561904Y-127761904D01*
X162514285Y-127857142D01*
X162466666Y-127904761D01*
X162371428Y-127952380D01*
X162180952Y-127952380D01*
X162085714Y-127904761D01*
X162038095Y-127857142D01*
X161990476Y-127761904D01*
X161990476Y-126952380D01*
X161038095Y-126952380D02*
X161514285Y-126952380D01*
X161561904Y-127428571D01*
X161514285Y-127380952D01*
X161419047Y-127333333D01*
X161180952Y-127333333D01*
X161085714Y-127380952D01*
X161038095Y-127428571D01*
X160990476Y-127523809D01*
X160990476Y-127761904D01*
X161038095Y-127857142D01*
X161085714Y-127904761D01*
X161180952Y-127952380D01*
X161419047Y-127952380D01*
X161514285Y-127904761D01*
X161561904Y-127857142D01*
X166361904Y-129152380D02*
X166361904Y-129961904D01*
X166314285Y-130057142D01*
X166266666Y-130104761D01*
X166171428Y-130152380D01*
X165980952Y-130152380D01*
X165885714Y-130104761D01*
X165838095Y-130057142D01*
X165790476Y-129961904D01*
X165790476Y-129152380D01*
X164885714Y-129485714D02*
X164885714Y-130152380D01*
X165123809Y-129104761D02*
X165361904Y-129819047D01*
X164742857Y-129819047D01*
X183461904Y-129402380D02*
X183461904Y-130211904D01*
X183414285Y-130307142D01*
X183366666Y-130354761D01*
X183271428Y-130402380D01*
X183080952Y-130402380D01*
X182985714Y-130354761D01*
X182938095Y-130307142D01*
X182890476Y-130211904D01*
X182890476Y-129402380D01*
X182461904Y-129497619D02*
X182414285Y-129450000D01*
X182319047Y-129402380D01*
X182080952Y-129402380D01*
X181985714Y-129450000D01*
X181938095Y-129497619D01*
X181890476Y-129592857D01*
X181890476Y-129688095D01*
X181938095Y-129830952D01*
X182509523Y-130402380D01*
X181890476Y-130402380D01*
X183383333Y-73852380D02*
X183383333Y-74566666D01*
X183430952Y-74709523D01*
X183526190Y-74804761D01*
X183669047Y-74852380D01*
X183764285Y-74852380D01*
X182383333Y-74852380D02*
X182954761Y-74852380D01*
X182669047Y-74852380D02*
X182669047Y-73852380D01*
X182764285Y-73995238D01*
X182859523Y-74090476D01*
X182954761Y-74138095D01*
X180452380Y-94938095D02*
X181261904Y-94938095D01*
X181357142Y-94985714D01*
X181404761Y-95033333D01*
X181452380Y-95128571D01*
X181452380Y-95319047D01*
X181404761Y-95414285D01*
X181357142Y-95461904D01*
X181261904Y-95509523D01*
X180452380Y-95509523D01*
X181452380Y-96509523D02*
X181452380Y-95938095D01*
X181452380Y-96223809D02*
X180452380Y-96223809D01*
X180595238Y-96128571D01*
X180690476Y-96033333D01*
X180738095Y-95938095D01*
X155123809Y-88404761D02*
X155161904Y-88519047D01*
X155161904Y-88709523D01*
X155123809Y-88785714D01*
X155085714Y-88823809D01*
X155009523Y-88861904D01*
X154933333Y-88861904D01*
X154857142Y-88823809D01*
X154819047Y-88785714D01*
X154780952Y-88709523D01*
X154742857Y-88557142D01*
X154704761Y-88480952D01*
X154666666Y-88442857D01*
X154590476Y-88404761D01*
X154514285Y-88404761D01*
X154438095Y-88442857D01*
X154400000Y-88480952D01*
X154361904Y-88557142D01*
X154361904Y-88747619D01*
X154400000Y-88861904D01*
X154361904Y-89128571D02*
X155161904Y-89319047D01*
X154590476Y-89471428D01*
X155161904Y-89623809D01*
X154361904Y-89814285D01*
X155161904Y-90119047D02*
X154361904Y-90119047D01*
X154361904Y-90309523D01*
X154400000Y-90423809D01*
X154476190Y-90500000D01*
X154552380Y-90538095D01*
X154704761Y-90576190D01*
X154819047Y-90576190D01*
X154971428Y-90538095D01*
X155047619Y-90500000D01*
X155123809Y-90423809D01*
X155161904Y-90309523D01*
X155161904Y-90119047D01*
X155161904Y-90919047D02*
X154361904Y-90919047D01*
X154361904Y-91452380D02*
X154361904Y-91604761D01*
X154400000Y-91680952D01*
X154476190Y-91757142D01*
X154628571Y-91795238D01*
X154895238Y-91795238D01*
X155047619Y-91757142D01*
X155123809Y-91680952D01*
X155161904Y-91604761D01*
X155161904Y-91452380D01*
X155123809Y-91376190D01*
X155047619Y-91300000D01*
X154895238Y-91261904D01*
X154628571Y-91261904D01*
X154476190Y-91300000D01*
X154400000Y-91376190D01*
X154361904Y-91452380D01*
X155123809Y-99590476D02*
X155161904Y-99704761D01*
X155161904Y-99895238D01*
X155123809Y-99971428D01*
X155085714Y-100009523D01*
X155009523Y-100047619D01*
X154933333Y-100047619D01*
X154857142Y-100009523D01*
X154819047Y-99971428D01*
X154780952Y-99895238D01*
X154742857Y-99742857D01*
X154704761Y-99666666D01*
X154666666Y-99628571D01*
X154590476Y-99590476D01*
X154514285Y-99590476D01*
X154438095Y-99628571D01*
X154400000Y-99666666D01*
X154361904Y-99742857D01*
X154361904Y-99933333D01*
X154400000Y-100047619D01*
X154361904Y-100314285D02*
X155161904Y-100504761D01*
X154590476Y-100657142D01*
X155161904Y-100809523D01*
X154361904Y-101000000D01*
X155085714Y-101761904D02*
X155123809Y-101723809D01*
X155161904Y-101609523D01*
X155161904Y-101533333D01*
X155123809Y-101419047D01*
X155047619Y-101342857D01*
X154971428Y-101304761D01*
X154819047Y-101266666D01*
X154704761Y-101266666D01*
X154552380Y-101304761D01*
X154476190Y-101342857D01*
X154400000Y-101419047D01*
X154361904Y-101533333D01*
X154361904Y-101609523D01*
X154400000Y-101723809D01*
X154438095Y-101761904D01*
X155161904Y-102485714D02*
X155161904Y-102104761D01*
X154361904Y-102104761D01*
X155161904Y-102752380D02*
X154361904Y-102752380D01*
X155161904Y-103209523D02*
X154704761Y-102866666D01*
X154361904Y-103209523D02*
X154819047Y-102752380D01*
X188440964Y-81743597D02*
X188171590Y-82012971D01*
X188656463Y-81851346D02*
X187902216Y-81474223D01*
X188279340Y-82228470D01*
X187255719Y-82174595D02*
X187282656Y-82093783D01*
X187363468Y-82012971D01*
X187471218Y-81959096D01*
X187578967Y-81959096D01*
X187659780Y-81986033D01*
X187794467Y-82066845D01*
X187875279Y-82147658D01*
X187956091Y-82282345D01*
X187983028Y-82363157D01*
X187983028Y-82470906D01*
X187929154Y-82578656D01*
X187875279Y-82632531D01*
X187767529Y-82686406D01*
X187713654Y-82686406D01*
X187525093Y-82497844D01*
X187632842Y-82390094D01*
X187525093Y-82982717D02*
X186959407Y-82417032D01*
X187201844Y-83305966D01*
X186636158Y-82740280D01*
X186932470Y-83575340D02*
X186366784Y-83009654D01*
X186232097Y-83144341D01*
X186178223Y-83252091D01*
X186178223Y-83359841D01*
X186205160Y-83440653D01*
X186285972Y-83575340D01*
X186366784Y-83656152D01*
X186501471Y-83736964D01*
X186582284Y-83763902D01*
X186690033Y-83763902D01*
X186797783Y-83710027D01*
X186932470Y-83575340D01*
X200198155Y-107786158D02*
X200225093Y-107705346D01*
X200305905Y-107624534D01*
X200413654Y-107570659D01*
X200521404Y-107570659D01*
X200602216Y-107597597D01*
X200736903Y-107678409D01*
X200817715Y-107759221D01*
X200898528Y-107893908D01*
X200925465Y-107974720D01*
X200925465Y-108082470D01*
X200871590Y-108190219D01*
X200817715Y-108244094D01*
X200709966Y-108297969D01*
X200656091Y-108297969D01*
X200467529Y-108109407D01*
X200575279Y-108001658D01*
X200467529Y-108594280D02*
X199901844Y-108028595D01*
X200144280Y-108917529D01*
X199578595Y-108351844D01*
X199874906Y-109186903D02*
X199309221Y-108621218D01*
X199174534Y-108755905D01*
X199120659Y-108863654D01*
X199120659Y-108971404D01*
X199147597Y-109052216D01*
X199228409Y-109186903D01*
X199309221Y-109267715D01*
X199443908Y-109348528D01*
X199524720Y-109375465D01*
X199632470Y-109375465D01*
X199740219Y-109321590D01*
X199874906Y-109186903D01*
X174798155Y-82186158D02*
X174825093Y-82105346D01*
X174905905Y-82024534D01*
X175013654Y-81970659D01*
X175121404Y-81970659D01*
X175202216Y-81997597D01*
X175336903Y-82078409D01*
X175417715Y-82159221D01*
X175498528Y-82293908D01*
X175525465Y-82374720D01*
X175525465Y-82482470D01*
X175471590Y-82590219D01*
X175417715Y-82644094D01*
X175309966Y-82697969D01*
X175256091Y-82697969D01*
X175067529Y-82509407D01*
X175175279Y-82401658D01*
X175067529Y-82994280D02*
X174501844Y-82428595D01*
X174744280Y-83317529D01*
X174178595Y-82751844D01*
X174474906Y-83586903D02*
X173909221Y-83021218D01*
X173774534Y-83155905D01*
X173720659Y-83263654D01*
X173720659Y-83371404D01*
X173747597Y-83452216D01*
X173828409Y-83586903D01*
X173909221Y-83667715D01*
X174043908Y-83748528D01*
X174124720Y-83775465D01*
X174232470Y-83775465D01*
X174340219Y-83721590D01*
X174474906Y-83586903D01*
X162098155Y-82186158D02*
X162125093Y-82105346D01*
X162205905Y-82024534D01*
X162313654Y-81970659D01*
X162421404Y-81970659D01*
X162502216Y-81997597D01*
X162636903Y-82078409D01*
X162717715Y-82159221D01*
X162798528Y-82293908D01*
X162825465Y-82374720D01*
X162825465Y-82482470D01*
X162771590Y-82590219D01*
X162717715Y-82644094D01*
X162609966Y-82697969D01*
X162556091Y-82697969D01*
X162367529Y-82509407D01*
X162475279Y-82401658D01*
X162367529Y-82994280D02*
X161801844Y-82428595D01*
X162044280Y-83317529D01*
X161478595Y-82751844D01*
X161774906Y-83586903D02*
X161209221Y-83021218D01*
X161074534Y-83155905D01*
X161020659Y-83263654D01*
X161020659Y-83371404D01*
X161047597Y-83452216D01*
X161128409Y-83586903D01*
X161209221Y-83667715D01*
X161343908Y-83748528D01*
X161424720Y-83775465D01*
X161532470Y-83775465D01*
X161640219Y-83721590D01*
X161774906Y-83586903D01*
X162098155Y-107786158D02*
X162125093Y-107705346D01*
X162205905Y-107624534D01*
X162313654Y-107570659D01*
X162421404Y-107570659D01*
X162502216Y-107597597D01*
X162636903Y-107678409D01*
X162717715Y-107759221D01*
X162798528Y-107893908D01*
X162825465Y-107974720D01*
X162825465Y-108082470D01*
X162771590Y-108190219D01*
X162717715Y-108244094D01*
X162609966Y-108297969D01*
X162556091Y-108297969D01*
X162367529Y-108109407D01*
X162475279Y-108001658D01*
X162367529Y-108594280D02*
X161801844Y-108028595D01*
X162044280Y-108917529D01*
X161478595Y-108351844D01*
X161774906Y-109186903D02*
X161209221Y-108621218D01*
X161074534Y-108755905D01*
X161020659Y-108863654D01*
X161020659Y-108971404D01*
X161047597Y-109052216D01*
X161128409Y-109186903D01*
X161209221Y-109267715D01*
X161343908Y-109348528D01*
X161424720Y-109375465D01*
X161532470Y-109375465D01*
X161640219Y-109321590D01*
X161774906Y-109186903D01*
X174798155Y-107786158D02*
X174825093Y-107705346D01*
X174905905Y-107624534D01*
X175013654Y-107570659D01*
X175121404Y-107570659D01*
X175202216Y-107597597D01*
X175336903Y-107678409D01*
X175417715Y-107759221D01*
X175498528Y-107893908D01*
X175525465Y-107974720D01*
X175525465Y-108082470D01*
X175471590Y-108190219D01*
X175417715Y-108244094D01*
X175309966Y-108297969D01*
X175256091Y-108297969D01*
X175067529Y-108109407D01*
X175175279Y-108001658D01*
X175067529Y-108594280D02*
X174501844Y-108028595D01*
X174744280Y-108917529D01*
X174178595Y-108351844D01*
X174474906Y-109186903D02*
X173909221Y-108621218D01*
X173774534Y-108755905D01*
X173720659Y-108863654D01*
X173720659Y-108971404D01*
X173747597Y-109052216D01*
X173828409Y-109186903D01*
X173909221Y-109267715D01*
X174043908Y-109348528D01*
X174124720Y-109375465D01*
X174232470Y-109375465D01*
X174340219Y-109321590D01*
X174474906Y-109186903D01*
X187498155Y-107786158D02*
X187525093Y-107705346D01*
X187605905Y-107624534D01*
X187713654Y-107570659D01*
X187821404Y-107570659D01*
X187902216Y-107597597D01*
X188036903Y-107678409D01*
X188117715Y-107759221D01*
X188198528Y-107893908D01*
X188225465Y-107974720D01*
X188225465Y-108082470D01*
X188171590Y-108190219D01*
X188117715Y-108244094D01*
X188009966Y-108297969D01*
X187956091Y-108297969D01*
X187767529Y-108109407D01*
X187875279Y-108001658D01*
X187767529Y-108594280D02*
X187201844Y-108028595D01*
X187444280Y-108917529D01*
X186878595Y-108351844D01*
X187174906Y-109186903D02*
X186609221Y-108621218D01*
X186474534Y-108755905D01*
X186420659Y-108863654D01*
X186420659Y-108971404D01*
X186447597Y-109052216D01*
X186528409Y-109186903D01*
X186609221Y-109267715D01*
X186743908Y-109348528D01*
X186824720Y-109375465D01*
X186932470Y-109375465D01*
X187040219Y-109321590D01*
X187174906Y-109186903D01*
X200198155Y-107786158D02*
X200225093Y-107705346D01*
X200305905Y-107624534D01*
X200413654Y-107570659D01*
X200521404Y-107570659D01*
X200602216Y-107597597D01*
X200736903Y-107678409D01*
X200817715Y-107759221D01*
X200898528Y-107893908D01*
X200925465Y-107974720D01*
X200925465Y-108082470D01*
X200871590Y-108190219D01*
X200817715Y-108244094D01*
X200709966Y-108297969D01*
X200656091Y-108297969D01*
X200467529Y-108109407D01*
X200575279Y-108001658D01*
X200467529Y-108594280D02*
X199901844Y-108028595D01*
X200144280Y-108917529D01*
X199578595Y-108351844D01*
X199874906Y-109186903D02*
X199309221Y-108621218D01*
X199174534Y-108755905D01*
X199120659Y-108863654D01*
X199120659Y-108971404D01*
X199147597Y-109052216D01*
X199228409Y-109186903D01*
X199309221Y-109267715D01*
X199443908Y-109348528D01*
X199524720Y-109375465D01*
X199632470Y-109375465D01*
X199740219Y-109321590D01*
X199874906Y-109186903D01*
X205927309Y-81053129D02*
X206304433Y-81807377D01*
X205550186Y-81430253D01*
X205442436Y-82076751D02*
X205388561Y-82184500D01*
X205388561Y-82238375D01*
X205415499Y-82319187D01*
X205496311Y-82399999D01*
X205577123Y-82426937D01*
X205630998Y-82426937D01*
X205711810Y-82399999D01*
X205927309Y-82184500D01*
X205361624Y-81618815D01*
X205173062Y-81807377D01*
X205146125Y-81888189D01*
X205146125Y-81942064D01*
X205173062Y-82022876D01*
X205226937Y-82076751D01*
X205307749Y-82103688D01*
X205361624Y-82103688D01*
X205442436Y-82076751D01*
X205630998Y-81888189D01*
X204795938Y-82184500D02*
X205253874Y-82642436D01*
X205280812Y-82723248D01*
X205280812Y-82777123D01*
X205253874Y-82857935D01*
X205146125Y-82965685D01*
X205065312Y-82992622D01*
X205011438Y-82992622D01*
X204930625Y-82965685D01*
X204472690Y-82507749D01*
X204769001Y-83288934D02*
X204715126Y-83396683D01*
X204580439Y-83531370D01*
X204499627Y-83558308D01*
X204445752Y-83558308D01*
X204364940Y-83531370D01*
X204311065Y-83477496D01*
X204284128Y-83396683D01*
X204284128Y-83342809D01*
X204311065Y-83261996D01*
X204391877Y-83127309D01*
X204418815Y-83046497D01*
X204418815Y-82992622D01*
X204391877Y-82911810D01*
X204338003Y-82857935D01*
X204257190Y-82830998D01*
X204203316Y-82830998D01*
X204122503Y-82857935D01*
X203987816Y-82992622D01*
X203933942Y-83100372D01*
X203249966Y-81220473D02*
X203627089Y-81974720D01*
X202872842Y-81597597D01*
X203249966Y-82297969D02*
X203196091Y-82405719D01*
X203061404Y-82540406D01*
X202980592Y-82567343D01*
X202926717Y-82567343D01*
X202845905Y-82540406D01*
X202792030Y-82486531D01*
X202765093Y-82405719D01*
X202765093Y-82351844D01*
X202792030Y-82271032D01*
X202872842Y-82136345D01*
X202899780Y-82055532D01*
X202899780Y-82001658D01*
X202872842Y-81920845D01*
X202818967Y-81866971D01*
X202738155Y-81840033D01*
X202684280Y-81840033D01*
X202603468Y-81866971D01*
X202468781Y-82001658D01*
X202414906Y-82109407D01*
X202334094Y-82728967D02*
X202603468Y-82998341D01*
X202226345Y-82244094D02*
X202334094Y-82728967D01*
X201849221Y-82621218D01*
X202226345Y-83321590D02*
X202172470Y-83429340D01*
X202037783Y-83564027D01*
X201956971Y-83590964D01*
X201903096Y-83590964D01*
X201822284Y-83564027D01*
X201768409Y-83510152D01*
X201741471Y-83429340D01*
X201741471Y-83375465D01*
X201768409Y-83294653D01*
X201849221Y-83159966D01*
X201876158Y-83079154D01*
X201876158Y-83025279D01*
X201849221Y-82944467D01*
X201795346Y-82890592D01*
X201714534Y-82863654D01*
X201660659Y-82863654D01*
X201579847Y-82890592D01*
X201445160Y-83025279D01*
X201391285Y-83133028D01*
X199358308Y-80222131D02*
X199008122Y-80572317D01*
X199412183Y-80599255D01*
X199331370Y-80680067D01*
X199304433Y-80760879D01*
X199304433Y-80814754D01*
X199331370Y-80895566D01*
X199466057Y-81030253D01*
X199546870Y-81057190D01*
X199600744Y-81057190D01*
X199681557Y-81030253D01*
X199843181Y-80868629D01*
X199870118Y-80787816D01*
X199870118Y-80733942D01*
X198846497Y-80733942D02*
X199223621Y-81488189D01*
X198469374Y-81111065D01*
X198334687Y-81245752D02*
X197984500Y-81595938D01*
X198388561Y-81622876D01*
X198307749Y-81703688D01*
X198280812Y-81784500D01*
X198280812Y-81838375D01*
X198307749Y-81919187D01*
X198442436Y-82053874D01*
X198523248Y-82080812D01*
X198577123Y-82080812D01*
X198657935Y-82053874D01*
X198819560Y-81892250D01*
X198846497Y-81811438D01*
X198846497Y-81757563D01*
X198496311Y-82323248D02*
X198065312Y-82754247D01*
X197580439Y-82538748D02*
X197391877Y-82727309D01*
X197607377Y-83104433D02*
X197876751Y-82835059D01*
X197311065Y-82269374D01*
X197041691Y-82538748D01*
X197364940Y-83346870D02*
X196799255Y-82781184D01*
X197041691Y-83670118D01*
X196476006Y-83104433D01*
X195290592Y-81789847D02*
X194940406Y-82140033D01*
X195344467Y-82166971D01*
X195263654Y-82247783D01*
X195236717Y-82328595D01*
X195236717Y-82382470D01*
X195263654Y-82463282D01*
X195398341Y-82597969D01*
X195479154Y-82624906D01*
X195533028Y-82624906D01*
X195613841Y-82597969D01*
X195775465Y-82436345D01*
X195802402Y-82355532D01*
X195802402Y-82301658D01*
X194778781Y-82301658D02*
X195155905Y-83055905D01*
X194401658Y-82678781D01*
X194266971Y-82813468D02*
X193916784Y-83163654D01*
X194320845Y-83190592D01*
X194240033Y-83271404D01*
X194213096Y-83352216D01*
X194213096Y-83406091D01*
X194240033Y-83486903D01*
X194374720Y-83621590D01*
X194455532Y-83648528D01*
X194509407Y-83648528D01*
X194590219Y-83621590D01*
X194751844Y-83459966D01*
X194778781Y-83379154D01*
X194778781Y-83325279D01*
X195533773Y-79854788D02*
X195264399Y-80124162D01*
X195749272Y-79962537D02*
X194995025Y-79585414D01*
X195372149Y-80339661D01*
X195183587Y-80528223D02*
X194617902Y-79962537D01*
X194483215Y-80097224D01*
X194429340Y-80204974D01*
X194429340Y-80312723D01*
X194456277Y-80393536D01*
X194537089Y-80528223D01*
X194617902Y-80609035D01*
X194752589Y-80689847D01*
X194833401Y-80716784D01*
X194941150Y-80716784D01*
X195048900Y-80662910D01*
X195183587Y-80528223D01*
X194240778Y-81363282D02*
X194294653Y-81363282D01*
X194402402Y-81309407D01*
X194456277Y-81255532D01*
X194510152Y-81147783D01*
X194510152Y-81040033D01*
X194483215Y-80959221D01*
X194402402Y-80824534D01*
X194321590Y-80743722D01*
X194186903Y-80662910D01*
X194106091Y-80635972D01*
X193998341Y-80635972D01*
X193890592Y-80689847D01*
X193836717Y-80743722D01*
X193782842Y-80851471D01*
X193782842Y-80905346D01*
X194240778Y-81578781D02*
X193809780Y-82009780D01*
X193136345Y-81444094D02*
X193513468Y-82198341D01*
X192759221Y-81821218D01*
X192813096Y-82898714D02*
X192732284Y-82440778D01*
X193136345Y-82575465D02*
X192570659Y-82009780D01*
X192355160Y-82225279D01*
X192328223Y-82306091D01*
X192328223Y-82359966D01*
X192355160Y-82440778D01*
X192435972Y-82521590D01*
X192516784Y-82548528D01*
X192570659Y-82548528D01*
X192651471Y-82521590D01*
X192866971Y-82306091D01*
X192274348Y-82844839D02*
X192085786Y-83033401D01*
X192301285Y-83410524D02*
X192570659Y-83141150D01*
X192004974Y-82575465D01*
X191735600Y-82844839D01*
X191573975Y-83545211D02*
X191762537Y-83356650D01*
X192058849Y-83652961D02*
X191493163Y-83087276D01*
X191223789Y-83356650D01*
X190534592Y-81689722D02*
X190561529Y-81608910D01*
X190642341Y-81528097D01*
X190750091Y-81474223D01*
X190857841Y-81474223D01*
X190938653Y-81501160D01*
X191073340Y-81581972D01*
X191154152Y-81662784D01*
X191234964Y-81797471D01*
X191261902Y-81878284D01*
X191261902Y-81986033D01*
X191208027Y-82093783D01*
X191154152Y-82147658D01*
X191046402Y-82201532D01*
X190992528Y-82201532D01*
X190803966Y-82012971D01*
X190911715Y-81905221D01*
X190803966Y-82497844D02*
X190238280Y-81932158D01*
X190022781Y-82147658D01*
X189995844Y-82228470D01*
X189995844Y-82282345D01*
X190022781Y-82363157D01*
X190103593Y-82443969D01*
X190184406Y-82470906D01*
X190238280Y-82470906D01*
X190319093Y-82443969D01*
X190534592Y-82228470D01*
X189753407Y-82524781D02*
X189699532Y-82524781D01*
X189618720Y-82551719D01*
X189484033Y-82686406D01*
X189457096Y-82767218D01*
X189457096Y-82821093D01*
X189484033Y-82901905D01*
X189537908Y-82955780D01*
X189645658Y-83009654D01*
X190292155Y-83009654D01*
X189941969Y-83359841D01*
X189295471Y-83359841D02*
X189322409Y-83279028D01*
X189322409Y-83225154D01*
X189295471Y-83144341D01*
X189268534Y-83117404D01*
X189187722Y-83090467D01*
X189133847Y-83090467D01*
X189053035Y-83117404D01*
X188945285Y-83225154D01*
X188918348Y-83305966D01*
X188918348Y-83359841D01*
X188945285Y-83440653D01*
X188972223Y-83467590D01*
X189053035Y-83494528D01*
X189106910Y-83494528D01*
X189187722Y-83467590D01*
X189295471Y-83359841D01*
X189376284Y-83332903D01*
X189430158Y-83332903D01*
X189510971Y-83359841D01*
X189618720Y-83467590D01*
X189645658Y-83548402D01*
X189645658Y-83602277D01*
X189618720Y-83683089D01*
X189510971Y-83790839D01*
X189430158Y-83817776D01*
X189376284Y-83817776D01*
X189295471Y-83790839D01*
X189187722Y-83683089D01*
X189160784Y-83602277D01*
X189160784Y-83548402D01*
X189187722Y-83467590D01*
X185190592Y-81689722D02*
X185217529Y-81608910D01*
X185298341Y-81528097D01*
X185406091Y-81474223D01*
X185513841Y-81474223D01*
X185594653Y-81501160D01*
X185729340Y-81581972D01*
X185810152Y-81662784D01*
X185890964Y-81797471D01*
X185917902Y-81878284D01*
X185917902Y-81986033D01*
X185864027Y-82093783D01*
X185810152Y-82147658D01*
X185702402Y-82201532D01*
X185648528Y-82201532D01*
X185459966Y-82012971D01*
X185567715Y-81905221D01*
X185459966Y-82497844D02*
X184894280Y-81932158D01*
X184678781Y-82147658D01*
X184651844Y-82228470D01*
X184651844Y-82282345D01*
X184678781Y-82363157D01*
X184759593Y-82443969D01*
X184840406Y-82470906D01*
X184894280Y-82470906D01*
X184975093Y-82443969D01*
X185190592Y-82228470D01*
X184409407Y-82524781D02*
X184355532Y-82524781D01*
X184274720Y-82551719D01*
X184140033Y-82686406D01*
X184113096Y-82767218D01*
X184113096Y-82821093D01*
X184140033Y-82901905D01*
X184193908Y-82955780D01*
X184301658Y-83009654D01*
X184948155Y-83009654D01*
X184597969Y-83359841D01*
X183843722Y-82982717D02*
X183466598Y-83359841D01*
X184274720Y-83683089D01*
X182660592Y-81689722D02*
X182687529Y-81608910D01*
X182768341Y-81528097D01*
X182876091Y-81474223D01*
X182983841Y-81474223D01*
X183064653Y-81501160D01*
X183199340Y-81581972D01*
X183280152Y-81662784D01*
X183360964Y-81797471D01*
X183387902Y-81878284D01*
X183387902Y-81986033D01*
X183334027Y-82093783D01*
X183280152Y-82147658D01*
X183172402Y-82201532D01*
X183118528Y-82201532D01*
X182929966Y-82012971D01*
X183037715Y-81905221D01*
X182929966Y-82497844D02*
X182364280Y-81932158D01*
X182148781Y-82147658D01*
X182121844Y-82228470D01*
X182121844Y-82282345D01*
X182148781Y-82363157D01*
X182229593Y-82443969D01*
X182310406Y-82470906D01*
X182364280Y-82470906D01*
X182445093Y-82443969D01*
X182660592Y-82228470D01*
X181879407Y-82524781D02*
X181825532Y-82524781D01*
X181744720Y-82551719D01*
X181610033Y-82686406D01*
X181583096Y-82767218D01*
X181583096Y-82821093D01*
X181610033Y-82901905D01*
X181663908Y-82955780D01*
X181771658Y-83009654D01*
X182418155Y-83009654D01*
X182067969Y-83359841D01*
X181017410Y-83279028D02*
X181125160Y-83171279D01*
X181205972Y-83144341D01*
X181259847Y-83144341D01*
X181394534Y-83171279D01*
X181529221Y-83252091D01*
X181744720Y-83467590D01*
X181771658Y-83548402D01*
X181771658Y-83602277D01*
X181744720Y-83683089D01*
X181636971Y-83790839D01*
X181556158Y-83817776D01*
X181502284Y-83817776D01*
X181421471Y-83790839D01*
X181286784Y-83656152D01*
X181259847Y-83575340D01*
X181259847Y-83521465D01*
X181286784Y-83440653D01*
X181394534Y-83332903D01*
X181475346Y-83305966D01*
X181529221Y-83305966D01*
X181610033Y-83332903D01*
X180403435Y-82538375D02*
X180322622Y-82080439D01*
X180726683Y-82215126D02*
X180160998Y-81649441D01*
X179945499Y-81864940D01*
X179918561Y-81945752D01*
X179918561Y-81999627D01*
X179945499Y-82080439D01*
X180026311Y-82161251D01*
X180107123Y-82188189D01*
X180160998Y-82188189D01*
X180241810Y-82161251D01*
X180457309Y-81945752D01*
X179595312Y-82215126D02*
X180053248Y-82673062D01*
X180080186Y-82753874D01*
X180080186Y-82807749D01*
X180053248Y-82888561D01*
X179945499Y-82996311D01*
X179864687Y-83023248D01*
X179810812Y-83023248D01*
X179730000Y-82996311D01*
X179272064Y-82538375D01*
X179568375Y-83373435D02*
X179002690Y-82807749D01*
X179245126Y-83696683D01*
X178679441Y-83130998D01*
X177580592Y-81689722D02*
X177607529Y-81608910D01*
X177688341Y-81528097D01*
X177796091Y-81474223D01*
X177903841Y-81474223D01*
X177984653Y-81501160D01*
X178119340Y-81581972D01*
X178200152Y-81662784D01*
X178280964Y-81797471D01*
X178307902Y-81878284D01*
X178307902Y-81986033D01*
X178254027Y-82093783D01*
X178200152Y-82147658D01*
X178092402Y-82201532D01*
X178038528Y-82201532D01*
X177849966Y-82012971D01*
X177957715Y-81905221D01*
X177849966Y-82497844D02*
X177284280Y-81932158D01*
X177068781Y-82147658D01*
X177041844Y-82228470D01*
X177041844Y-82282345D01*
X177068781Y-82363157D01*
X177149593Y-82443969D01*
X177230406Y-82470906D01*
X177284280Y-82470906D01*
X177365093Y-82443969D01*
X177580592Y-82228470D01*
X176799407Y-82524781D02*
X176745532Y-82524781D01*
X176664720Y-82551719D01*
X176530033Y-82686406D01*
X176503096Y-82767218D01*
X176503096Y-82821093D01*
X176530033Y-82901905D01*
X176583908Y-82955780D01*
X176691658Y-83009654D01*
X177338155Y-83009654D01*
X176987969Y-83359841D01*
X176260659Y-83063529D02*
X176206784Y-83063529D01*
X176125972Y-83090467D01*
X175991285Y-83225154D01*
X175964348Y-83305966D01*
X175964348Y-83359841D01*
X175991285Y-83440653D01*
X176045160Y-83494528D01*
X176152910Y-83548402D01*
X176799407Y-83548402D01*
X176449221Y-83898589D01*
X172490592Y-81689722D02*
X172517529Y-81608910D01*
X172598341Y-81528097D01*
X172706091Y-81474223D01*
X172813841Y-81474223D01*
X172894653Y-81501160D01*
X173029340Y-81581972D01*
X173110152Y-81662784D01*
X173190964Y-81797471D01*
X173217902Y-81878284D01*
X173217902Y-81986033D01*
X173164027Y-82093783D01*
X173110152Y-82147658D01*
X173002402Y-82201532D01*
X172948528Y-82201532D01*
X172759966Y-82012971D01*
X172867715Y-81905221D01*
X172759966Y-82497844D02*
X172194280Y-81932158D01*
X171978781Y-82147658D01*
X171951844Y-82228470D01*
X171951844Y-82282345D01*
X171978781Y-82363157D01*
X172059593Y-82443969D01*
X172140406Y-82470906D01*
X172194280Y-82470906D01*
X172275093Y-82443969D01*
X172490592Y-82228470D01*
X171709407Y-82524781D02*
X171655532Y-82524781D01*
X171574720Y-82551719D01*
X171440033Y-82686406D01*
X171413096Y-82767218D01*
X171413096Y-82821093D01*
X171440033Y-82901905D01*
X171493908Y-82955780D01*
X171601658Y-83009654D01*
X172248155Y-83009654D01*
X171897969Y-83359841D01*
X171359221Y-83898589D02*
X171682470Y-83575340D01*
X171520845Y-83736964D02*
X170955160Y-83171279D01*
X171089847Y-83198216D01*
X171197597Y-83198216D01*
X171278409Y-83171279D01*
X169960592Y-81689722D02*
X169987529Y-81608910D01*
X170068341Y-81528097D01*
X170176091Y-81474223D01*
X170283841Y-81474223D01*
X170364653Y-81501160D01*
X170499340Y-81581972D01*
X170580152Y-81662784D01*
X170660964Y-81797471D01*
X170687902Y-81878284D01*
X170687902Y-81986033D01*
X170634027Y-82093783D01*
X170580152Y-82147658D01*
X170472402Y-82201532D01*
X170418528Y-82201532D01*
X170229966Y-82012971D01*
X170337715Y-81905221D01*
X170229966Y-82497844D02*
X169664280Y-81932158D01*
X169448781Y-82147658D01*
X169421844Y-82228470D01*
X169421844Y-82282345D01*
X169448781Y-82363157D01*
X169529593Y-82443969D01*
X169610406Y-82470906D01*
X169664280Y-82470906D01*
X169745093Y-82443969D01*
X169960592Y-82228470D01*
X169179407Y-82524781D02*
X169125532Y-82524781D01*
X169044720Y-82551719D01*
X168910033Y-82686406D01*
X168883096Y-82767218D01*
X168883096Y-82821093D01*
X168910033Y-82901905D01*
X168963908Y-82955780D01*
X169071658Y-83009654D01*
X169718155Y-83009654D01*
X169367969Y-83359841D01*
X168452097Y-83144341D02*
X168398223Y-83198216D01*
X168371285Y-83279028D01*
X168371285Y-83332903D01*
X168398223Y-83413715D01*
X168479035Y-83548402D01*
X168613722Y-83683089D01*
X168748409Y-83763902D01*
X168829221Y-83790839D01*
X168883096Y-83790839D01*
X168963908Y-83763902D01*
X169017783Y-83710027D01*
X169044720Y-83629215D01*
X169044720Y-83575340D01*
X169017783Y-83494528D01*
X168936971Y-83359841D01*
X168802284Y-83225154D01*
X168667597Y-83144341D01*
X168586784Y-83117404D01*
X168532910Y-83117404D01*
X168452097Y-83144341D01*
X167420592Y-81689722D02*
X167447529Y-81608910D01*
X167528341Y-81528097D01*
X167636091Y-81474223D01*
X167743841Y-81474223D01*
X167824653Y-81501160D01*
X167959340Y-81581972D01*
X168040152Y-81662784D01*
X168120964Y-81797471D01*
X168147902Y-81878284D01*
X168147902Y-81986033D01*
X168094027Y-82093783D01*
X168040152Y-82147658D01*
X167932402Y-82201532D01*
X167878528Y-82201532D01*
X167689966Y-82012971D01*
X167797715Y-81905221D01*
X167689966Y-82497844D02*
X167124280Y-81932158D01*
X166908781Y-82147658D01*
X166881844Y-82228470D01*
X166881844Y-82282345D01*
X166908781Y-82363157D01*
X166989593Y-82443969D01*
X167070406Y-82470906D01*
X167124280Y-82470906D01*
X167205093Y-82443969D01*
X167420592Y-82228470D01*
X166827969Y-83359841D02*
X167151218Y-83036592D01*
X166989593Y-83198216D02*
X166423908Y-82632531D01*
X166558595Y-82659468D01*
X166666345Y-82659468D01*
X166747157Y-82632531D01*
X166558595Y-83629215D02*
X166450845Y-83736964D01*
X166370033Y-83763902D01*
X166316158Y-83763902D01*
X166181471Y-83736964D01*
X166046784Y-83656152D01*
X165831285Y-83440653D01*
X165804348Y-83359841D01*
X165804348Y-83305966D01*
X165831285Y-83225154D01*
X165939035Y-83117404D01*
X166019847Y-83090467D01*
X166073722Y-83090467D01*
X166154534Y-83117404D01*
X166289221Y-83252091D01*
X166316158Y-83332903D01*
X166316158Y-83386778D01*
X166289221Y-83467590D01*
X166181471Y-83575340D01*
X166100659Y-83602277D01*
X166046784Y-83602277D01*
X165965972Y-83575340D01*
X164880592Y-81689722D02*
X164907529Y-81608910D01*
X164988341Y-81528097D01*
X165096091Y-81474223D01*
X165203841Y-81474223D01*
X165284653Y-81501160D01*
X165419340Y-81581972D01*
X165500152Y-81662784D01*
X165580964Y-81797471D01*
X165607902Y-81878284D01*
X165607902Y-81986033D01*
X165554027Y-82093783D01*
X165500152Y-82147658D01*
X165392402Y-82201532D01*
X165338528Y-82201532D01*
X165149966Y-82012971D01*
X165257715Y-81905221D01*
X165149966Y-82497844D02*
X164584280Y-81932158D01*
X164368781Y-82147658D01*
X164341844Y-82228470D01*
X164341844Y-82282345D01*
X164368781Y-82363157D01*
X164449593Y-82443969D01*
X164530406Y-82470906D01*
X164584280Y-82470906D01*
X164665093Y-82443969D01*
X164880592Y-82228470D01*
X164287969Y-83359841D02*
X164611218Y-83036592D01*
X164449593Y-83198216D02*
X163883908Y-82632531D01*
X164018595Y-82659468D01*
X164126345Y-82659468D01*
X164207157Y-82632531D01*
X163641471Y-83359841D02*
X163668409Y-83279028D01*
X163668409Y-83225154D01*
X163641471Y-83144341D01*
X163614534Y-83117404D01*
X163533722Y-83090467D01*
X163479847Y-83090467D01*
X163399035Y-83117404D01*
X163291285Y-83225154D01*
X163264348Y-83305966D01*
X163264348Y-83359841D01*
X163291285Y-83440653D01*
X163318223Y-83467590D01*
X163399035Y-83494528D01*
X163452910Y-83494528D01*
X163533722Y-83467590D01*
X163641471Y-83359841D01*
X163722284Y-83332903D01*
X163776158Y-83332903D01*
X163856971Y-83359841D01*
X163964720Y-83467590D01*
X163991658Y-83548402D01*
X163991658Y-83602277D01*
X163964720Y-83683089D01*
X163856971Y-83790839D01*
X163776158Y-83817776D01*
X163722284Y-83817776D01*
X163641471Y-83790839D01*
X163533722Y-83683089D01*
X163506784Y-83602277D01*
X163506784Y-83548402D01*
X163533722Y-83467590D01*
X159800592Y-81689722D02*
X159827529Y-81608910D01*
X159908341Y-81528097D01*
X160016091Y-81474223D01*
X160123841Y-81474223D01*
X160204653Y-81501160D01*
X160339340Y-81581972D01*
X160420152Y-81662784D01*
X160500964Y-81797471D01*
X160527902Y-81878284D01*
X160527902Y-81986033D01*
X160474027Y-82093783D01*
X160420152Y-82147658D01*
X160312402Y-82201532D01*
X160258528Y-82201532D01*
X160069966Y-82012971D01*
X160177715Y-81905221D01*
X160069966Y-82497844D02*
X159504280Y-81932158D01*
X159288781Y-82147658D01*
X159261844Y-82228470D01*
X159261844Y-82282345D01*
X159288781Y-82363157D01*
X159369593Y-82443969D01*
X159450406Y-82470906D01*
X159504280Y-82470906D01*
X159585093Y-82443969D01*
X159800592Y-82228470D01*
X159207969Y-83359841D02*
X159531218Y-83036592D01*
X159369593Y-83198216D02*
X158803908Y-82632531D01*
X158938595Y-82659468D01*
X159046345Y-82659468D01*
X159127157Y-82632531D01*
X158453722Y-82982717D02*
X158076598Y-83359841D01*
X158884720Y-83683089D01*
X157260592Y-81689722D02*
X157287529Y-81608910D01*
X157368341Y-81528097D01*
X157476091Y-81474223D01*
X157583841Y-81474223D01*
X157664653Y-81501160D01*
X157799340Y-81581972D01*
X157880152Y-81662784D01*
X157960964Y-81797471D01*
X157987902Y-81878284D01*
X157987902Y-81986033D01*
X157934027Y-82093783D01*
X157880152Y-82147658D01*
X157772402Y-82201532D01*
X157718528Y-82201532D01*
X157529966Y-82012971D01*
X157637715Y-81905221D01*
X157529966Y-82497844D02*
X156964280Y-81932158D01*
X156748781Y-82147658D01*
X156721844Y-82228470D01*
X156721844Y-82282345D01*
X156748781Y-82363157D01*
X156829593Y-82443969D01*
X156910406Y-82470906D01*
X156964280Y-82470906D01*
X157045093Y-82443969D01*
X157260592Y-82228470D01*
X156667969Y-83359841D02*
X156991218Y-83036592D01*
X156829593Y-83198216D02*
X156263908Y-82632531D01*
X156398595Y-82659468D01*
X156506345Y-82659468D01*
X156587157Y-82632531D01*
X155617410Y-83279028D02*
X155725160Y-83171279D01*
X155805972Y-83144341D01*
X155859847Y-83144341D01*
X155994534Y-83171279D01*
X156129221Y-83252091D01*
X156344720Y-83467590D01*
X156371658Y-83548402D01*
X156371658Y-83602277D01*
X156344720Y-83683089D01*
X156236971Y-83790839D01*
X156156158Y-83817776D01*
X156102284Y-83817776D01*
X156021471Y-83790839D01*
X155886784Y-83656152D01*
X155859847Y-83575340D01*
X155859847Y-83521465D01*
X155886784Y-83440653D01*
X155994534Y-83332903D01*
X156075346Y-83305966D01*
X156129221Y-83305966D01*
X156210033Y-83332903D01*
X157260592Y-107797722D02*
X157287529Y-107716910D01*
X157368341Y-107636097D01*
X157476091Y-107582223D01*
X157583841Y-107582223D01*
X157664653Y-107609160D01*
X157799340Y-107689972D01*
X157880152Y-107770784D01*
X157960964Y-107905471D01*
X157987902Y-107986284D01*
X157987902Y-108094033D01*
X157934027Y-108201783D01*
X157880152Y-108255658D01*
X157772402Y-108309532D01*
X157718528Y-108309532D01*
X157529966Y-108120971D01*
X157637715Y-108013221D01*
X157529966Y-108605844D02*
X156964280Y-108040158D01*
X156748781Y-108255658D01*
X156721844Y-108336470D01*
X156721844Y-108390345D01*
X156748781Y-108471157D01*
X156829593Y-108551969D01*
X156910406Y-108578906D01*
X156964280Y-108578906D01*
X157045093Y-108551969D01*
X157260592Y-108336470D01*
X156667969Y-109467841D02*
X156991218Y-109144592D01*
X156829593Y-109306216D02*
X156263908Y-108740531D01*
X156398595Y-108767468D01*
X156506345Y-108767468D01*
X156587157Y-108740531D01*
X155590473Y-109413966D02*
X155859847Y-109144592D01*
X156156158Y-109387028D01*
X156102284Y-109387028D01*
X156021471Y-109413966D01*
X155886784Y-109548653D01*
X155859847Y-109629465D01*
X155859847Y-109683340D01*
X155886784Y-109764152D01*
X156021471Y-109898839D01*
X156102284Y-109925776D01*
X156156158Y-109925776D01*
X156236971Y-109898839D01*
X156371658Y-109764152D01*
X156398595Y-109683340D01*
X156398595Y-109629465D01*
X159800592Y-107843722D02*
X159827529Y-107762910D01*
X159908341Y-107682097D01*
X160016091Y-107628223D01*
X160123841Y-107628223D01*
X160204653Y-107655160D01*
X160339340Y-107735972D01*
X160420152Y-107816784D01*
X160500964Y-107951471D01*
X160527902Y-108032284D01*
X160527902Y-108140033D01*
X160474027Y-108247783D01*
X160420152Y-108301658D01*
X160312402Y-108355532D01*
X160258528Y-108355532D01*
X160069966Y-108166971D01*
X160177715Y-108059221D01*
X160069966Y-108651844D02*
X159504280Y-108086158D01*
X159288781Y-108301658D01*
X159261844Y-108382470D01*
X159261844Y-108436345D01*
X159288781Y-108517157D01*
X159369593Y-108597969D01*
X159450406Y-108624906D01*
X159504280Y-108624906D01*
X159585093Y-108597969D01*
X159800592Y-108382470D01*
X159207969Y-109513841D02*
X159531218Y-109190592D01*
X159369593Y-109352216D02*
X158803908Y-108786531D01*
X158938595Y-108813468D01*
X159046345Y-108813468D01*
X159127157Y-108786531D01*
X158345972Y-109621590D02*
X158723096Y-109998714D01*
X158265160Y-109271404D02*
X158803908Y-109540778D01*
X158453722Y-109890964D01*
X164880592Y-107797722D02*
X164907529Y-107716910D01*
X164988341Y-107636097D01*
X165096091Y-107582223D01*
X165203841Y-107582223D01*
X165284653Y-107609160D01*
X165419340Y-107689972D01*
X165500152Y-107770784D01*
X165580964Y-107905471D01*
X165607902Y-107986284D01*
X165607902Y-108094033D01*
X165554027Y-108201783D01*
X165500152Y-108255658D01*
X165392402Y-108309532D01*
X165338528Y-108309532D01*
X165149966Y-108120971D01*
X165257715Y-108013221D01*
X165149966Y-108605844D02*
X164584280Y-108040158D01*
X164368781Y-108255658D01*
X164341844Y-108336470D01*
X164341844Y-108390345D01*
X164368781Y-108471157D01*
X164449593Y-108551969D01*
X164530406Y-108578906D01*
X164584280Y-108578906D01*
X164665093Y-108551969D01*
X164880592Y-108336470D01*
X164287969Y-109467841D02*
X164611218Y-109144592D01*
X164449593Y-109306216D02*
X163883908Y-108740531D01*
X164018595Y-108767468D01*
X164126345Y-108767468D01*
X164207157Y-108740531D01*
X163533722Y-109090717D02*
X163183536Y-109440903D01*
X163587597Y-109467841D01*
X163506784Y-109548653D01*
X163479847Y-109629465D01*
X163479847Y-109683340D01*
X163506784Y-109764152D01*
X163641471Y-109898839D01*
X163722284Y-109925776D01*
X163776158Y-109925776D01*
X163856971Y-109898839D01*
X164018595Y-109737215D01*
X164045532Y-109656402D01*
X164045532Y-109602528D01*
X167420592Y-107943722D02*
X167447529Y-107862910D01*
X167528341Y-107782097D01*
X167636091Y-107728223D01*
X167743841Y-107728223D01*
X167824653Y-107755160D01*
X167959340Y-107835972D01*
X168040152Y-107916784D01*
X168120964Y-108051471D01*
X168147902Y-108132284D01*
X168147902Y-108240033D01*
X168094027Y-108347783D01*
X168040152Y-108401658D01*
X167932402Y-108455532D01*
X167878528Y-108455532D01*
X167689966Y-108266971D01*
X167797715Y-108159221D01*
X167689966Y-108751844D02*
X167124280Y-108186158D01*
X166908781Y-108401658D01*
X166881844Y-108482470D01*
X166881844Y-108536345D01*
X166908781Y-108617157D01*
X166989593Y-108697969D01*
X167070406Y-108724906D01*
X167124280Y-108724906D01*
X167205093Y-108697969D01*
X167420592Y-108482470D01*
X166827969Y-109613841D02*
X167151218Y-109290592D01*
X166989593Y-109452216D02*
X166423908Y-108886531D01*
X166558595Y-108913468D01*
X166666345Y-108913468D01*
X166747157Y-108886531D01*
X166100659Y-109317529D02*
X166046784Y-109317529D01*
X165965972Y-109344467D01*
X165831285Y-109479154D01*
X165804348Y-109559966D01*
X165804348Y-109613841D01*
X165831285Y-109694653D01*
X165885160Y-109748528D01*
X165992910Y-109802402D01*
X166639407Y-109802402D01*
X166289221Y-110152589D01*
X169960592Y-107943722D02*
X169987529Y-107862910D01*
X170068341Y-107782097D01*
X170176091Y-107728223D01*
X170283841Y-107728223D01*
X170364653Y-107755160D01*
X170499340Y-107835972D01*
X170580152Y-107916784D01*
X170660964Y-108051471D01*
X170687902Y-108132284D01*
X170687902Y-108240033D01*
X170634027Y-108347783D01*
X170580152Y-108401658D01*
X170472402Y-108455532D01*
X170418528Y-108455532D01*
X170229966Y-108266971D01*
X170337715Y-108159221D01*
X170229966Y-108751844D02*
X169664280Y-108186158D01*
X169448781Y-108401658D01*
X169421844Y-108482470D01*
X169421844Y-108536345D01*
X169448781Y-108617157D01*
X169529593Y-108697969D01*
X169610406Y-108724906D01*
X169664280Y-108724906D01*
X169745093Y-108697969D01*
X169960592Y-108482470D01*
X169367969Y-109613841D02*
X169691218Y-109290592D01*
X169529593Y-109452216D02*
X168963908Y-108886531D01*
X169098595Y-108913468D01*
X169206345Y-108913468D01*
X169287157Y-108886531D01*
X168829221Y-110152589D02*
X169152470Y-109829340D01*
X168990845Y-109990964D02*
X168425160Y-109425279D01*
X168559847Y-109452216D01*
X168667597Y-109452216D01*
X168748409Y-109425279D01*
X172500592Y-107797722D02*
X172527529Y-107716910D01*
X172608341Y-107636097D01*
X172716091Y-107582223D01*
X172823841Y-107582223D01*
X172904653Y-107609160D01*
X173039340Y-107689972D01*
X173120152Y-107770784D01*
X173200964Y-107905471D01*
X173227902Y-107986284D01*
X173227902Y-108094033D01*
X173174027Y-108201783D01*
X173120152Y-108255658D01*
X173012402Y-108309532D01*
X172958528Y-108309532D01*
X172769966Y-108120971D01*
X172877715Y-108013221D01*
X172769966Y-108605844D02*
X172204280Y-108040158D01*
X171988781Y-108255658D01*
X171961844Y-108336470D01*
X171961844Y-108390345D01*
X171988781Y-108471157D01*
X172069593Y-108551969D01*
X172150406Y-108578906D01*
X172204280Y-108578906D01*
X172285093Y-108551969D01*
X172500592Y-108336470D01*
X171907969Y-109467841D02*
X172231218Y-109144592D01*
X172069593Y-109306216D02*
X171503908Y-108740531D01*
X171638595Y-108767468D01*
X171746345Y-108767468D01*
X171827157Y-108740531D01*
X170992097Y-109252341D02*
X170938223Y-109306216D01*
X170911285Y-109387028D01*
X170911285Y-109440903D01*
X170938223Y-109521715D01*
X171019035Y-109656402D01*
X171153722Y-109791089D01*
X171288409Y-109871902D01*
X171369221Y-109898839D01*
X171423096Y-109898839D01*
X171503908Y-109871902D01*
X171557783Y-109818027D01*
X171584720Y-109737215D01*
X171584720Y-109683340D01*
X171557783Y-109602528D01*
X171476971Y-109467841D01*
X171342284Y-109333154D01*
X171207597Y-109252341D01*
X171126784Y-109225404D01*
X171072910Y-109225404D01*
X170992097Y-109252341D01*
X177311218Y-107813096D02*
X177338155Y-107732284D01*
X177418967Y-107651471D01*
X177526717Y-107597597D01*
X177634467Y-107597597D01*
X177715279Y-107624534D01*
X177849966Y-107705346D01*
X177930778Y-107786158D01*
X178011590Y-107920845D01*
X178038528Y-108001658D01*
X178038528Y-108109407D01*
X177984653Y-108217157D01*
X177930778Y-108271032D01*
X177823028Y-108324906D01*
X177769154Y-108324906D01*
X177580592Y-108136345D01*
X177688341Y-108028595D01*
X177580592Y-108621218D02*
X177014906Y-108055532D01*
X176799407Y-108271032D01*
X176772470Y-108351844D01*
X176772470Y-108405719D01*
X176799407Y-108486531D01*
X176880219Y-108567343D01*
X176961032Y-108594280D01*
X177014906Y-108594280D01*
X177095719Y-108567343D01*
X177311218Y-108351844D01*
X176987969Y-109213841D02*
X176880219Y-109321590D01*
X176799407Y-109348528D01*
X176745532Y-109348528D01*
X176610845Y-109321590D01*
X176476158Y-109240778D01*
X176260659Y-109025279D01*
X176233722Y-108944467D01*
X176233722Y-108890592D01*
X176260659Y-108809780D01*
X176368409Y-108702030D01*
X176449221Y-108675093D01*
X176503096Y-108675093D01*
X176583908Y-108702030D01*
X176718595Y-108836717D01*
X176745532Y-108917529D01*
X176745532Y-108971404D01*
X176718595Y-109052216D01*
X176610845Y-109159966D01*
X176530033Y-109186903D01*
X176476158Y-109186903D01*
X176395346Y-109159966D01*
X179851218Y-107813096D02*
X179878155Y-107732284D01*
X179958967Y-107651471D01*
X180066717Y-107597597D01*
X180174467Y-107597597D01*
X180255279Y-107624534D01*
X180389966Y-107705346D01*
X180470778Y-107786158D01*
X180551590Y-107920845D01*
X180578528Y-108001658D01*
X180578528Y-108109407D01*
X180524653Y-108217157D01*
X180470778Y-108271032D01*
X180363028Y-108324906D01*
X180309154Y-108324906D01*
X180120592Y-108136345D01*
X180228341Y-108028595D01*
X180120592Y-108621218D02*
X179554906Y-108055532D01*
X179339407Y-108271032D01*
X179312470Y-108351844D01*
X179312470Y-108405719D01*
X179339407Y-108486531D01*
X179420219Y-108567343D01*
X179501032Y-108594280D01*
X179554906Y-108594280D01*
X179635719Y-108567343D01*
X179851218Y-108351844D01*
X179150845Y-108944467D02*
X179177783Y-108863654D01*
X179177783Y-108809780D01*
X179150845Y-108728967D01*
X179123908Y-108702030D01*
X179043096Y-108675093D01*
X178989221Y-108675093D01*
X178908409Y-108702030D01*
X178800659Y-108809780D01*
X178773722Y-108890592D01*
X178773722Y-108944467D01*
X178800659Y-109025279D01*
X178827597Y-109052216D01*
X178908409Y-109079154D01*
X178962284Y-109079154D01*
X179043096Y-109052216D01*
X179150845Y-108944467D01*
X179231658Y-108917529D01*
X179285532Y-108917529D01*
X179366345Y-108944467D01*
X179474094Y-109052216D01*
X179501032Y-109133028D01*
X179501032Y-109186903D01*
X179474094Y-109267715D01*
X179366345Y-109375465D01*
X179285532Y-109402402D01*
X179231658Y-109402402D01*
X179150845Y-109375465D01*
X179043096Y-109267715D01*
X179016158Y-109186903D01*
X179016158Y-109133028D01*
X179043096Y-109052216D01*
X182421218Y-107713096D02*
X182448155Y-107632284D01*
X182528967Y-107551471D01*
X182636717Y-107497597D01*
X182744467Y-107497597D01*
X182825279Y-107524534D01*
X182959966Y-107605346D01*
X183040778Y-107686158D01*
X183121590Y-107820845D01*
X183148528Y-107901658D01*
X183148528Y-108009407D01*
X183094653Y-108117157D01*
X183040778Y-108171032D01*
X182933028Y-108224906D01*
X182879154Y-108224906D01*
X182690592Y-108036345D01*
X182798341Y-107928595D01*
X182690592Y-108521218D02*
X182124906Y-107955532D01*
X181909407Y-108171032D01*
X181882470Y-108251844D01*
X181882470Y-108305719D01*
X181909407Y-108386531D01*
X181990219Y-108467343D01*
X182071032Y-108494280D01*
X182124906Y-108494280D01*
X182205719Y-108467343D01*
X182421218Y-108251844D01*
X181613096Y-108467343D02*
X181235972Y-108844467D01*
X182044094Y-109167715D01*
X184931218Y-107813096D02*
X184958155Y-107732284D01*
X185038967Y-107651471D01*
X185146717Y-107597597D01*
X185254467Y-107597597D01*
X185335279Y-107624534D01*
X185469966Y-107705346D01*
X185550778Y-107786158D01*
X185631590Y-107920845D01*
X185658528Y-108001658D01*
X185658528Y-108109407D01*
X185604653Y-108217157D01*
X185550778Y-108271032D01*
X185443028Y-108324906D01*
X185389154Y-108324906D01*
X185200592Y-108136345D01*
X185308341Y-108028595D01*
X185200592Y-108621218D02*
X184634906Y-108055532D01*
X184419407Y-108271032D01*
X184392470Y-108351844D01*
X184392470Y-108405719D01*
X184419407Y-108486531D01*
X184500219Y-108567343D01*
X184581032Y-108594280D01*
X184634906Y-108594280D01*
X184715719Y-108567343D01*
X184931218Y-108351844D01*
X183826784Y-108863654D02*
X183934534Y-108755905D01*
X184015346Y-108728967D01*
X184069221Y-108728967D01*
X184203908Y-108755905D01*
X184338595Y-108836717D01*
X184554094Y-109052216D01*
X184581032Y-109133028D01*
X184581032Y-109186903D01*
X184554094Y-109267715D01*
X184446345Y-109375465D01*
X184365532Y-109402402D01*
X184311658Y-109402402D01*
X184230845Y-109375465D01*
X184096158Y-109240778D01*
X184069221Y-109159966D01*
X184069221Y-109106091D01*
X184096158Y-109025279D01*
X184203908Y-108917529D01*
X184284720Y-108890592D01*
X184338595Y-108890592D01*
X184419407Y-108917529D01*
X190011218Y-107813096D02*
X190038155Y-107732284D01*
X190118967Y-107651471D01*
X190226717Y-107597597D01*
X190334467Y-107597597D01*
X190415279Y-107624534D01*
X190549966Y-107705346D01*
X190630778Y-107786158D01*
X190711590Y-107920845D01*
X190738528Y-108001658D01*
X190738528Y-108109407D01*
X190684653Y-108217157D01*
X190630778Y-108271032D01*
X190523028Y-108324906D01*
X190469154Y-108324906D01*
X190280592Y-108136345D01*
X190388341Y-108028595D01*
X190280592Y-108621218D02*
X189714906Y-108055532D01*
X189499407Y-108271032D01*
X189472470Y-108351844D01*
X189472470Y-108405719D01*
X189499407Y-108486531D01*
X189580219Y-108567343D01*
X189661032Y-108594280D01*
X189714906Y-108594280D01*
X189795719Y-108567343D01*
X190011218Y-108351844D01*
X188879847Y-108890592D02*
X189149221Y-108621218D01*
X189445532Y-108863654D01*
X189391658Y-108863654D01*
X189310845Y-108890592D01*
X189176158Y-109025279D01*
X189149221Y-109106091D01*
X189149221Y-109159966D01*
X189176158Y-109240778D01*
X189310845Y-109375465D01*
X189391658Y-109402402D01*
X189445532Y-109402402D01*
X189526345Y-109375465D01*
X189661032Y-109240778D01*
X189687969Y-109159966D01*
X189687969Y-109106091D01*
X192551218Y-107813096D02*
X192578155Y-107732284D01*
X192658967Y-107651471D01*
X192766717Y-107597597D01*
X192874467Y-107597597D01*
X192955279Y-107624534D01*
X193089966Y-107705346D01*
X193170778Y-107786158D01*
X193251590Y-107920845D01*
X193278528Y-108001658D01*
X193278528Y-108109407D01*
X193224653Y-108217157D01*
X193170778Y-108271032D01*
X193063028Y-108324906D01*
X193009154Y-108324906D01*
X192820592Y-108136345D01*
X192928341Y-108028595D01*
X192820592Y-108621218D02*
X192254906Y-108055532D01*
X192039407Y-108271032D01*
X192012470Y-108351844D01*
X192012470Y-108405719D01*
X192039407Y-108486531D01*
X192120219Y-108567343D01*
X192201032Y-108594280D01*
X192254906Y-108594280D01*
X192335719Y-108567343D01*
X192551218Y-108351844D01*
X191635346Y-109052216D02*
X192012470Y-109429340D01*
X191554534Y-108702030D02*
X192093282Y-108971404D01*
X191743096Y-109321590D01*
X195091218Y-107813096D02*
X195118155Y-107732284D01*
X195198967Y-107651471D01*
X195306717Y-107597597D01*
X195414467Y-107597597D01*
X195495279Y-107624534D01*
X195629966Y-107705346D01*
X195710778Y-107786158D01*
X195791590Y-107920845D01*
X195818528Y-108001658D01*
X195818528Y-108109407D01*
X195764653Y-108217157D01*
X195710778Y-108271032D01*
X195603028Y-108324906D01*
X195549154Y-108324906D01*
X195360592Y-108136345D01*
X195468341Y-108028595D01*
X195360592Y-108621218D02*
X194794906Y-108055532D01*
X194579407Y-108271032D01*
X194552470Y-108351844D01*
X194552470Y-108405719D01*
X194579407Y-108486531D01*
X194660219Y-108567343D01*
X194741032Y-108594280D01*
X194794906Y-108594280D01*
X194875719Y-108567343D01*
X195091218Y-108351844D01*
X194283096Y-108567343D02*
X193932910Y-108917529D01*
X194336971Y-108944467D01*
X194256158Y-109025279D01*
X194229221Y-109106091D01*
X194229221Y-109159966D01*
X194256158Y-109240778D01*
X194390845Y-109375465D01*
X194471658Y-109402402D01*
X194525532Y-109402402D01*
X194606345Y-109375465D01*
X194767969Y-109213841D01*
X194794906Y-109133028D01*
X194794906Y-109079154D01*
X205251218Y-107813096D02*
X205278155Y-107732284D01*
X205358967Y-107651471D01*
X205466717Y-107597597D01*
X205574467Y-107597597D01*
X205655279Y-107624534D01*
X205789966Y-107705346D01*
X205870778Y-107786158D01*
X205951590Y-107920845D01*
X205978528Y-108001658D01*
X205978528Y-108109407D01*
X205924653Y-108217157D01*
X205870778Y-108271032D01*
X205763028Y-108324906D01*
X205709154Y-108324906D01*
X205520592Y-108136345D01*
X205628341Y-108028595D01*
X205520592Y-108621218D02*
X204954906Y-108055532D01*
X204739407Y-108271032D01*
X204712470Y-108351844D01*
X204712470Y-108405719D01*
X204739407Y-108486531D01*
X204820219Y-108567343D01*
X204901032Y-108594280D01*
X204954906Y-108594280D01*
X205035719Y-108567343D01*
X205251218Y-108351844D01*
X204281471Y-108728967D02*
X204227597Y-108782842D01*
X204200659Y-108863654D01*
X204200659Y-108917529D01*
X204227597Y-108998341D01*
X204308409Y-109133028D01*
X204443096Y-109267715D01*
X204577783Y-109348528D01*
X204658595Y-109375465D01*
X204712470Y-109375465D01*
X204793282Y-109348528D01*
X204847157Y-109294653D01*
X204874094Y-109213841D01*
X204874094Y-109159966D01*
X204847157Y-109079154D01*
X204766345Y-108944467D01*
X204631658Y-108809780D01*
X204496971Y-108728967D01*
X204416158Y-108702030D01*
X204362284Y-108702030D01*
X204281471Y-108728967D01*
X197631218Y-107913096D02*
X197658155Y-107832284D01*
X197738967Y-107751471D01*
X197846717Y-107697597D01*
X197954467Y-107697597D01*
X198035279Y-107724534D01*
X198169966Y-107805346D01*
X198250778Y-107886158D01*
X198331590Y-108020845D01*
X198358528Y-108101658D01*
X198358528Y-108209407D01*
X198304653Y-108317157D01*
X198250778Y-108371032D01*
X198143028Y-108424906D01*
X198089154Y-108424906D01*
X197900592Y-108236345D01*
X198008341Y-108128595D01*
X197900592Y-108721218D02*
X197334906Y-108155532D01*
X197119407Y-108371032D01*
X197092470Y-108451844D01*
X197092470Y-108505719D01*
X197119407Y-108586531D01*
X197200219Y-108667343D01*
X197281032Y-108694280D01*
X197334906Y-108694280D01*
X197415719Y-108667343D01*
X197631218Y-108451844D01*
X196850033Y-108748155D02*
X196796158Y-108748155D01*
X196715346Y-108775093D01*
X196580659Y-108909780D01*
X196553722Y-108990592D01*
X196553722Y-109044467D01*
X196580659Y-109125279D01*
X196634534Y-109179154D01*
X196742284Y-109233028D01*
X197388781Y-109233028D01*
X197038595Y-109583215D01*
X202721218Y-107913096D02*
X202748155Y-107832284D01*
X202828967Y-107751471D01*
X202936717Y-107697597D01*
X203044467Y-107697597D01*
X203125279Y-107724534D01*
X203259966Y-107805346D01*
X203340778Y-107886158D01*
X203421590Y-108020845D01*
X203448528Y-108101658D01*
X203448528Y-108209407D01*
X203394653Y-108317157D01*
X203340778Y-108371032D01*
X203233028Y-108424906D01*
X203179154Y-108424906D01*
X202990592Y-108236345D01*
X203098341Y-108128595D01*
X202990592Y-108721218D02*
X202424906Y-108155532D01*
X202209407Y-108371032D01*
X202182470Y-108451844D01*
X202182470Y-108505719D01*
X202209407Y-108586531D01*
X202290219Y-108667343D01*
X202371032Y-108694280D01*
X202424906Y-108694280D01*
X202505719Y-108667343D01*
X202721218Y-108451844D01*
X202128595Y-109583215D02*
X202451844Y-109259966D01*
X202290219Y-109421590D02*
X201724534Y-108855905D01*
X201859221Y-108882842D01*
X201966971Y-108882842D01*
X202047783Y-108855905D01*
X151842857Y-132602380D02*
X152176190Y-132126190D01*
X152414285Y-132602380D02*
X152414285Y-131602380D01*
X152033333Y-131602380D01*
X151938095Y-131650000D01*
X151890476Y-131697619D01*
X151842857Y-131792857D01*
X151842857Y-131935714D01*
X151890476Y-132030952D01*
X151938095Y-132078571D01*
X152033333Y-132126190D01*
X152414285Y-132126190D01*
X151461904Y-131697619D02*
X151414285Y-131650000D01*
X151319047Y-131602380D01*
X151080952Y-131602380D01*
X150985714Y-131650000D01*
X150938095Y-131697619D01*
X150890476Y-131792857D01*
X150890476Y-131888095D01*
X150938095Y-132030952D01*
X151509523Y-132602380D01*
X150890476Y-132602380D01*
X149938095Y-132602380D02*
X150509523Y-132602380D01*
X150223809Y-132602380D02*
X150223809Y-131602380D01*
X150319047Y-131745238D01*
X150414285Y-131840476D01*
X150509523Y-131888095D01*
X201338095Y-116802380D02*
X201338095Y-117611904D01*
X201290476Y-117707142D01*
X201242857Y-117754761D01*
X201147619Y-117802380D01*
X200957142Y-117802380D01*
X200861904Y-117754761D01*
X200814285Y-117707142D01*
X200766666Y-117611904D01*
X200766666Y-116802380D01*
X199766666Y-117802380D02*
X200338095Y-117802380D01*
X200052380Y-117802380D02*
X200052380Y-116802380D01*
X200147619Y-116945238D01*
X200242857Y-117040476D01*
X200338095Y-117088095D01*
X199147619Y-116802380D02*
X199052380Y-116802380D01*
X198957142Y-116850000D01*
X198909523Y-116897619D01*
X198861904Y-116992857D01*
X198814285Y-117183333D01*
X198814285Y-117421428D01*
X198861904Y-117611904D01*
X198909523Y-117707142D01*
X198957142Y-117754761D01*
X199052380Y-117802380D01*
X199147619Y-117802380D01*
X199242857Y-117754761D01*
X199290476Y-117707142D01*
X199338095Y-117611904D01*
X199385714Y-117421428D01*
X199385714Y-117183333D01*
X199338095Y-116992857D01*
X199290476Y-116897619D01*
X199242857Y-116850000D01*
X199147619Y-116802380D01*
X191811904Y-65402380D02*
X191811904Y-66211904D01*
X191764285Y-66307142D01*
X191716666Y-66354761D01*
X191621428Y-66402380D01*
X191430952Y-66402380D01*
X191335714Y-66354761D01*
X191288095Y-66307142D01*
X191240476Y-66211904D01*
X191240476Y-65402380D01*
X190859523Y-65402380D02*
X190240476Y-65402380D01*
X190573809Y-65783333D01*
X190430952Y-65783333D01*
X190335714Y-65830952D01*
X190288095Y-65878571D01*
X190240476Y-65973809D01*
X190240476Y-66211904D01*
X190288095Y-66307142D01*
X190335714Y-66354761D01*
X190430952Y-66402380D01*
X190716666Y-66402380D01*
X190811904Y-66354761D01*
X190859523Y-66307142D01*
X195261904Y-77552380D02*
X194690476Y-77552380D01*
X194976190Y-78552380D02*
X194976190Y-77552380D01*
X193785714Y-78552380D02*
X194119047Y-78076190D01*
X194357142Y-78552380D02*
X194357142Y-77552380D01*
X193976190Y-77552380D01*
X193880952Y-77600000D01*
X193833333Y-77647619D01*
X193785714Y-77742857D01*
X193785714Y-77885714D01*
X193833333Y-77980952D01*
X193880952Y-78028571D01*
X193976190Y-78076190D01*
X194357142Y-78076190D01*
X192833333Y-78552380D02*
X193404761Y-78552380D01*
X193119047Y-78552380D02*
X193119047Y-77552380D01*
X193214285Y-77695238D01*
X193309523Y-77790476D01*
X193404761Y-77838095D01*
X152942857Y-155852380D02*
X153276190Y-155376190D01*
X153514285Y-155852380D02*
X153514285Y-154852380D01*
X153133333Y-154852380D01*
X153038095Y-154900000D01*
X152990476Y-154947619D01*
X152942857Y-155042857D01*
X152942857Y-155185714D01*
X152990476Y-155280952D01*
X153038095Y-155328571D01*
X153133333Y-155376190D01*
X153514285Y-155376190D01*
X152561904Y-154947619D02*
X152514285Y-154900000D01*
X152419047Y-154852380D01*
X152180952Y-154852380D01*
X152085714Y-154900000D01*
X152038095Y-154947619D01*
X151990476Y-155042857D01*
X151990476Y-155138095D01*
X152038095Y-155280952D01*
X152609523Y-155852380D01*
X151990476Y-155852380D01*
X151657142Y-154852380D02*
X151038095Y-154852380D01*
X151371428Y-155233333D01*
X151228571Y-155233333D01*
X151133333Y-155280952D01*
X151085714Y-155328571D01*
X151038095Y-155423809D01*
X151038095Y-155661904D01*
X151085714Y-155757142D01*
X151133333Y-155804761D01*
X151228571Y-155852380D01*
X151514285Y-155852380D01*
X151609523Y-155804761D01*
X151657142Y-155757142D01*
X153042857Y-158702380D02*
X153376190Y-158226190D01*
X153614285Y-158702380D02*
X153614285Y-157702380D01*
X153233333Y-157702380D01*
X153138095Y-157750000D01*
X153090476Y-157797619D01*
X153042857Y-157892857D01*
X153042857Y-158035714D01*
X153090476Y-158130952D01*
X153138095Y-158178571D01*
X153233333Y-158226190D01*
X153614285Y-158226190D01*
X152661904Y-157797619D02*
X152614285Y-157750000D01*
X152519047Y-157702380D01*
X152280952Y-157702380D01*
X152185714Y-157750000D01*
X152138095Y-157797619D01*
X152090476Y-157892857D01*
X152090476Y-157988095D01*
X152138095Y-158130952D01*
X152709523Y-158702380D01*
X152090476Y-158702380D01*
X151709523Y-157797619D02*
X151661904Y-157750000D01*
X151566666Y-157702380D01*
X151328571Y-157702380D01*
X151233333Y-157750000D01*
X151185714Y-157797619D01*
X151138095Y-157892857D01*
X151138095Y-157988095D01*
X151185714Y-158130952D01*
X151757142Y-158702380D01*
X151138095Y-158702380D01*
X151792857Y-135052380D02*
X152126190Y-134576190D01*
X152364285Y-135052380D02*
X152364285Y-134052380D01*
X151983333Y-134052380D01*
X151888095Y-134100000D01*
X151840476Y-134147619D01*
X151792857Y-134242857D01*
X151792857Y-134385714D01*
X151840476Y-134480952D01*
X151888095Y-134528571D01*
X151983333Y-134576190D01*
X152364285Y-134576190D01*
X151411904Y-134147619D02*
X151364285Y-134100000D01*
X151269047Y-134052380D01*
X151030952Y-134052380D01*
X150935714Y-134100000D01*
X150888095Y-134147619D01*
X150840476Y-134242857D01*
X150840476Y-134338095D01*
X150888095Y-134480952D01*
X151459523Y-135052380D01*
X150840476Y-135052380D01*
X150221428Y-134052380D02*
X150126190Y-134052380D01*
X150030952Y-134100000D01*
X149983333Y-134147619D01*
X149935714Y-134242857D01*
X149888095Y-134433333D01*
X149888095Y-134671428D01*
X149935714Y-134861904D01*
X149983333Y-134957142D01*
X150030952Y-135004761D01*
X150126190Y-135052380D01*
X150221428Y-135052380D01*
X150316666Y-135004761D01*
X150364285Y-134957142D01*
X150411904Y-134861904D01*
X150459523Y-134671428D01*
X150459523Y-134433333D01*
X150411904Y-134242857D01*
X150364285Y-134147619D01*
X150316666Y-134100000D01*
X150221428Y-134052380D01*
X152492857Y-137252380D02*
X152826190Y-136776190D01*
X153064285Y-137252380D02*
X153064285Y-136252380D01*
X152683333Y-136252380D01*
X152588095Y-136300000D01*
X152540476Y-136347619D01*
X152492857Y-136442857D01*
X152492857Y-136585714D01*
X152540476Y-136680952D01*
X152588095Y-136728571D01*
X152683333Y-136776190D01*
X153064285Y-136776190D01*
X151540476Y-137252380D02*
X152111904Y-137252380D01*
X151826190Y-137252380D02*
X151826190Y-136252380D01*
X151921428Y-136395238D01*
X152016666Y-136490476D01*
X152111904Y-136538095D01*
X151064285Y-137252380D02*
X150873809Y-137252380D01*
X150778571Y-137204761D01*
X150730952Y-137157142D01*
X150635714Y-137014285D01*
X150588095Y-136823809D01*
X150588095Y-136442857D01*
X150635714Y-136347619D01*
X150683333Y-136300000D01*
X150778571Y-136252380D01*
X150969047Y-136252380D01*
X151064285Y-136300000D01*
X151111904Y-136347619D01*
X151159523Y-136442857D01*
X151159523Y-136680952D01*
X151111904Y-136776190D01*
X151064285Y-136823809D01*
X150969047Y-136871428D01*
X150778571Y-136871428D01*
X150683333Y-136823809D01*
X150635714Y-136776190D01*
X150588095Y-136680952D01*
X202542857Y-72002380D02*
X202876190Y-71526190D01*
X203114285Y-72002380D02*
X203114285Y-71002380D01*
X202733333Y-71002380D01*
X202638095Y-71050000D01*
X202590476Y-71097619D01*
X202542857Y-71192857D01*
X202542857Y-71335714D01*
X202590476Y-71430952D01*
X202638095Y-71478571D01*
X202733333Y-71526190D01*
X203114285Y-71526190D01*
X201590476Y-72002380D02*
X202161904Y-72002380D01*
X201876190Y-72002380D02*
X201876190Y-71002380D01*
X201971428Y-71145238D01*
X202066666Y-71240476D01*
X202161904Y-71288095D01*
X201209523Y-71097619D02*
X201161904Y-71050000D01*
X201066666Y-71002380D01*
X200828571Y-71002380D01*
X200733333Y-71050000D01*
X200685714Y-71097619D01*
X200638095Y-71192857D01*
X200638095Y-71288095D01*
X200685714Y-71430952D01*
X201257142Y-72002380D01*
X200638095Y-72002380D01*
X202242857Y-68752380D02*
X202576190Y-68276190D01*
X202814285Y-68752380D02*
X202814285Y-67752380D01*
X202433333Y-67752380D01*
X202338095Y-67800000D01*
X202290476Y-67847619D01*
X202242857Y-67942857D01*
X202242857Y-68085714D01*
X202290476Y-68180952D01*
X202338095Y-68228571D01*
X202433333Y-68276190D01*
X202814285Y-68276190D01*
X201290476Y-68752380D02*
X201861904Y-68752380D01*
X201576190Y-68752380D02*
X201576190Y-67752380D01*
X201671428Y-67895238D01*
X201766666Y-67990476D01*
X201861904Y-68038095D01*
X200338095Y-68752380D02*
X200909523Y-68752380D01*
X200623809Y-68752380D02*
X200623809Y-67752380D01*
X200719047Y-67895238D01*
X200814285Y-67990476D01*
X200909523Y-68038095D01*
X198302380Y-77707142D02*
X197826190Y-77373809D01*
X198302380Y-77135714D02*
X197302380Y-77135714D01*
X197302380Y-77516666D01*
X197350000Y-77611904D01*
X197397619Y-77659523D01*
X197492857Y-77707142D01*
X197635714Y-77707142D01*
X197730952Y-77659523D01*
X197778571Y-77611904D01*
X197826190Y-77516666D01*
X197826190Y-77135714D01*
X198302380Y-78659523D02*
X198302380Y-78088095D01*
X198302380Y-78373809D02*
X197302380Y-78373809D01*
X197445238Y-78278571D01*
X197540476Y-78183333D01*
X197588095Y-78088095D01*
X197302380Y-79278571D02*
X197302380Y-79373809D01*
X197350000Y-79469047D01*
X197397619Y-79516666D01*
X197492857Y-79564285D01*
X197683333Y-79611904D01*
X197921428Y-79611904D01*
X198111904Y-79564285D01*
X198207142Y-79516666D01*
X198254761Y-79469047D01*
X198302380Y-79373809D01*
X198302380Y-79278571D01*
X198254761Y-79183333D01*
X198207142Y-79135714D01*
X198111904Y-79088095D01*
X197921428Y-79040476D01*
X197683333Y-79040476D01*
X197492857Y-79088095D01*
X197397619Y-79135714D01*
X197350000Y-79183333D01*
X197302380Y-79278571D01*
X151966666Y-139702380D02*
X152300000Y-139226190D01*
X152538095Y-139702380D02*
X152538095Y-138702380D01*
X152157142Y-138702380D01*
X152061904Y-138750000D01*
X152014285Y-138797619D01*
X151966666Y-138892857D01*
X151966666Y-139035714D01*
X152014285Y-139130952D01*
X152061904Y-139178571D01*
X152157142Y-139226190D01*
X152538095Y-139226190D01*
X151490476Y-139702380D02*
X151300000Y-139702380D01*
X151204761Y-139654761D01*
X151157142Y-139607142D01*
X151061904Y-139464285D01*
X151014285Y-139273809D01*
X151014285Y-138892857D01*
X151061904Y-138797619D01*
X151109523Y-138750000D01*
X151204761Y-138702380D01*
X151395238Y-138702380D01*
X151490476Y-138750000D01*
X151538095Y-138797619D01*
X151585714Y-138892857D01*
X151585714Y-139130952D01*
X151538095Y-139226190D01*
X151490476Y-139273809D01*
X151395238Y-139321428D01*
X151204761Y-139321428D01*
X151109523Y-139273809D01*
X151061904Y-139226190D01*
X151014285Y-139130952D01*
X172416666Y-141102380D02*
X172750000Y-140626190D01*
X172988095Y-141102380D02*
X172988095Y-140102380D01*
X172607142Y-140102380D01*
X172511904Y-140150000D01*
X172464285Y-140197619D01*
X172416666Y-140292857D01*
X172416666Y-140435714D01*
X172464285Y-140530952D01*
X172511904Y-140578571D01*
X172607142Y-140626190D01*
X172988095Y-140626190D01*
X171845238Y-140530952D02*
X171940476Y-140483333D01*
X171988095Y-140435714D01*
X172035714Y-140340476D01*
X172035714Y-140292857D01*
X171988095Y-140197619D01*
X171940476Y-140150000D01*
X171845238Y-140102380D01*
X171654761Y-140102380D01*
X171559523Y-140150000D01*
X171511904Y-140197619D01*
X171464285Y-140292857D01*
X171464285Y-140340476D01*
X171511904Y-140435714D01*
X171559523Y-140483333D01*
X171654761Y-140530952D01*
X171845238Y-140530952D01*
X171940476Y-140578571D01*
X171988095Y-140626190D01*
X172035714Y-140721428D01*
X172035714Y-140911904D01*
X171988095Y-141007142D01*
X171940476Y-141054761D01*
X171845238Y-141102380D01*
X171654761Y-141102380D01*
X171559523Y-141054761D01*
X171511904Y-141007142D01*
X171464285Y-140911904D01*
X171464285Y-140721428D01*
X171511904Y-140626190D01*
X171559523Y-140578571D01*
X171654761Y-140530952D01*
X172016666Y-138702380D02*
X172350000Y-138226190D01*
X172588095Y-138702380D02*
X172588095Y-137702380D01*
X172207142Y-137702380D01*
X172111904Y-137750000D01*
X172064285Y-137797619D01*
X172016666Y-137892857D01*
X172016666Y-138035714D01*
X172064285Y-138130952D01*
X172111904Y-138178571D01*
X172207142Y-138226190D01*
X172588095Y-138226190D01*
X171683333Y-137702380D02*
X171016666Y-137702380D01*
X171445238Y-138702380D01*
X172016666Y-136402380D02*
X172350000Y-135926190D01*
X172588095Y-136402380D02*
X172588095Y-135402380D01*
X172207142Y-135402380D01*
X172111904Y-135450000D01*
X172064285Y-135497619D01*
X172016666Y-135592857D01*
X172016666Y-135735714D01*
X172064285Y-135830952D01*
X172111904Y-135878571D01*
X172207142Y-135926190D01*
X172588095Y-135926190D01*
X171159523Y-135402380D02*
X171350000Y-135402380D01*
X171445238Y-135450000D01*
X171492857Y-135497619D01*
X171588095Y-135640476D01*
X171635714Y-135830952D01*
X171635714Y-136211904D01*
X171588095Y-136307142D01*
X171540476Y-136354761D01*
X171445238Y-136402380D01*
X171254761Y-136402380D01*
X171159523Y-136354761D01*
X171111904Y-136307142D01*
X171064285Y-136211904D01*
X171064285Y-135973809D01*
X171111904Y-135878571D01*
X171159523Y-135830952D01*
X171254761Y-135783333D01*
X171445238Y-135783333D01*
X171540476Y-135830952D01*
X171588095Y-135878571D01*
X171635714Y-135973809D01*
X172316666Y-134252380D02*
X172650000Y-133776190D01*
X172888095Y-134252380D02*
X172888095Y-133252380D01*
X172507142Y-133252380D01*
X172411904Y-133300000D01*
X172364285Y-133347619D01*
X172316666Y-133442857D01*
X172316666Y-133585714D01*
X172364285Y-133680952D01*
X172411904Y-133728571D01*
X172507142Y-133776190D01*
X172888095Y-133776190D01*
X171411904Y-133252380D02*
X171888095Y-133252380D01*
X171935714Y-133728571D01*
X171888095Y-133680952D01*
X171792857Y-133633333D01*
X171554761Y-133633333D01*
X171459523Y-133680952D01*
X171411904Y-133728571D01*
X171364285Y-133823809D01*
X171364285Y-134061904D01*
X171411904Y-134157142D01*
X171459523Y-134204761D01*
X171554761Y-134252380D01*
X171792857Y-134252380D01*
X171888095Y-134204761D01*
X171935714Y-134157142D01*
X184852380Y-79983333D02*
X184376190Y-79650000D01*
X184852380Y-79411904D02*
X183852380Y-79411904D01*
X183852380Y-79792857D01*
X183900000Y-79888095D01*
X183947619Y-79935714D01*
X184042857Y-79983333D01*
X184185714Y-79983333D01*
X184280952Y-79935714D01*
X184328571Y-79888095D01*
X184376190Y-79792857D01*
X184376190Y-79411904D01*
X184185714Y-80840476D02*
X184852380Y-80840476D01*
X183804761Y-80602380D02*
X184519047Y-80364285D01*
X184519047Y-80983333D01*
X186352380Y-79983333D02*
X185876190Y-79650000D01*
X186352380Y-79411904D02*
X185352380Y-79411904D01*
X185352380Y-79792857D01*
X185400000Y-79888095D01*
X185447619Y-79935714D01*
X185542857Y-79983333D01*
X185685714Y-79983333D01*
X185780952Y-79935714D01*
X185828571Y-79888095D01*
X185876190Y-79792857D01*
X185876190Y-79411904D01*
X185352380Y-80316666D02*
X185352380Y-80935714D01*
X185733333Y-80602380D01*
X185733333Y-80745238D01*
X185780952Y-80840476D01*
X185828571Y-80888095D01*
X185923809Y-80935714D01*
X186161904Y-80935714D01*
X186257142Y-80888095D01*
X186304761Y-80840476D01*
X186352380Y-80745238D01*
X186352380Y-80459523D01*
X186304761Y-80364285D01*
X186257142Y-80316666D01*
X164702380Y-79233333D02*
X164226190Y-78900000D01*
X164702380Y-78661904D02*
X163702380Y-78661904D01*
X163702380Y-79042857D01*
X163750000Y-79138095D01*
X163797619Y-79185714D01*
X163892857Y-79233333D01*
X164035714Y-79233333D01*
X164130952Y-79185714D01*
X164178571Y-79138095D01*
X164226190Y-79042857D01*
X164226190Y-78661904D01*
X163797619Y-79614285D02*
X163750000Y-79661904D01*
X163702380Y-79757142D01*
X163702380Y-79995238D01*
X163750000Y-80090476D01*
X163797619Y-80138095D01*
X163892857Y-80185714D01*
X163988095Y-80185714D01*
X164130952Y-80138095D01*
X164702380Y-79566666D01*
X164702380Y-80185714D01*
X165366666Y-111502380D02*
X165700000Y-111026190D01*
X165938095Y-111502380D02*
X165938095Y-110502380D01*
X165557142Y-110502380D01*
X165461904Y-110550000D01*
X165414285Y-110597619D01*
X165366666Y-110692857D01*
X165366666Y-110835714D01*
X165414285Y-110930952D01*
X165461904Y-110978571D01*
X165557142Y-111026190D01*
X165938095Y-111026190D01*
X164414285Y-111502380D02*
X164985714Y-111502380D01*
X164700000Y-111502380D02*
X164700000Y-110502380D01*
X164795238Y-110645238D01*
X164890476Y-110740476D01*
X164985714Y-110788095D01*
X190216666Y-58052380D02*
X190692857Y-58052380D01*
X190692857Y-57052380D01*
X189359523Y-58052380D02*
X189930952Y-58052380D01*
X189645238Y-58052380D02*
X189645238Y-57052380D01*
X189740476Y-57195238D01*
X189835714Y-57290476D01*
X189930952Y-57338095D01*
X204733333Y-59402380D02*
X204733333Y-60116666D01*
X204780952Y-60259523D01*
X204876190Y-60354761D01*
X205019047Y-60402380D01*
X205114285Y-60402380D01*
X204257142Y-60402380D02*
X204257142Y-59402380D01*
X203876190Y-59402380D01*
X203780952Y-59450000D01*
X203733333Y-59497619D01*
X203685714Y-59592857D01*
X203685714Y-59735714D01*
X203733333Y-59830952D01*
X203780952Y-59878571D01*
X203876190Y-59926190D01*
X204257142Y-59926190D01*
X202733333Y-60402380D02*
X203304761Y-60402380D01*
X203019047Y-60402380D02*
X203019047Y-59402380D01*
X203114285Y-59545238D01*
X203209523Y-59640476D01*
X203304761Y-59688095D01*
X146533333Y-91012380D02*
X146533333Y-91726666D01*
X146580952Y-91869523D01*
X146676190Y-91964761D01*
X146819047Y-92012380D01*
X146914285Y-92012380D01*
X146104761Y-91107619D02*
X146057142Y-91060000D01*
X145961904Y-91012380D01*
X145723809Y-91012380D01*
X145628571Y-91060000D01*
X145580952Y-91107619D01*
X145533333Y-91202857D01*
X145533333Y-91298095D01*
X145580952Y-91440952D01*
X146152380Y-92012380D01*
X145533333Y-92012380D01*
X161557142Y-79207142D02*
X161604761Y-79159523D01*
X161652380Y-79016666D01*
X161652380Y-78921428D01*
X161604761Y-78778571D01*
X161509523Y-78683333D01*
X161414285Y-78635714D01*
X161223809Y-78588095D01*
X161080952Y-78588095D01*
X160890476Y-78635714D01*
X160795238Y-78683333D01*
X160700000Y-78778571D01*
X160652380Y-78921428D01*
X160652380Y-79016666D01*
X160700000Y-79159523D01*
X160747619Y-79207142D01*
X160747619Y-79588095D02*
X160700000Y-79635714D01*
X160652380Y-79730952D01*
X160652380Y-79969047D01*
X160700000Y-80064285D01*
X160747619Y-80111904D01*
X160842857Y-80159523D01*
X160938095Y-80159523D01*
X161080952Y-80111904D01*
X161652380Y-79540476D01*
X161652380Y-80159523D01*
X160747619Y-80540476D02*
X160700000Y-80588095D01*
X160652380Y-80683333D01*
X160652380Y-80921428D01*
X160700000Y-81016666D01*
X160747619Y-81064285D01*
X160842857Y-81111904D01*
X160938095Y-81111904D01*
X161080952Y-81064285D01*
X161652380Y-80492857D01*
X161652380Y-81111904D01*
X205442857Y-68507142D02*
X205490476Y-68554761D01*
X205633333Y-68602380D01*
X205728571Y-68602380D01*
X205871428Y-68554761D01*
X205966666Y-68459523D01*
X206014285Y-68364285D01*
X206061904Y-68173809D01*
X206061904Y-68030952D01*
X206014285Y-67840476D01*
X205966666Y-67745238D01*
X205871428Y-67650000D01*
X205728571Y-67602380D01*
X205633333Y-67602380D01*
X205490476Y-67650000D01*
X205442857Y-67697619D01*
X205061904Y-67697619D02*
X205014285Y-67650000D01*
X204919047Y-67602380D01*
X204680952Y-67602380D01*
X204585714Y-67650000D01*
X204538095Y-67697619D01*
X204490476Y-67792857D01*
X204490476Y-67888095D01*
X204538095Y-68030952D01*
X205109523Y-68602380D01*
X204490476Y-68602380D01*
X203538095Y-68602380D02*
X204109523Y-68602380D01*
X203823809Y-68602380D02*
X203823809Y-67602380D01*
X203919047Y-67745238D01*
X204014285Y-67840476D01*
X204109523Y-67888095D01*
X199992857Y-126457142D02*
X200040476Y-126504761D01*
X200183333Y-126552380D01*
X200278571Y-126552380D01*
X200421428Y-126504761D01*
X200516666Y-126409523D01*
X200564285Y-126314285D01*
X200611904Y-126123809D01*
X200611904Y-125980952D01*
X200564285Y-125790476D01*
X200516666Y-125695238D01*
X200421428Y-125600000D01*
X200278571Y-125552380D01*
X200183333Y-125552380D01*
X200040476Y-125600000D01*
X199992857Y-125647619D01*
X199040476Y-126552380D02*
X199611904Y-126552380D01*
X199326190Y-126552380D02*
X199326190Y-125552380D01*
X199421428Y-125695238D01*
X199516666Y-125790476D01*
X199611904Y-125838095D01*
X198564285Y-126552380D02*
X198373809Y-126552380D01*
X198278571Y-126504761D01*
X198230952Y-126457142D01*
X198135714Y-126314285D01*
X198088095Y-126123809D01*
X198088095Y-125742857D01*
X198135714Y-125647619D01*
X198183333Y-125600000D01*
X198278571Y-125552380D01*
X198469047Y-125552380D01*
X198564285Y-125600000D01*
X198611904Y-125647619D01*
X198659523Y-125742857D01*
X198659523Y-125980952D01*
X198611904Y-126076190D01*
X198564285Y-126123809D01*
X198469047Y-126171428D01*
X198278571Y-126171428D01*
X198183333Y-126123809D01*
X198135714Y-126076190D01*
X198088095Y-125980952D01*
X190007142Y-116157142D02*
X190054761Y-116109523D01*
X190102380Y-115966666D01*
X190102380Y-115871428D01*
X190054761Y-115728571D01*
X189959523Y-115633333D01*
X189864285Y-115585714D01*
X189673809Y-115538095D01*
X189530952Y-115538095D01*
X189340476Y-115585714D01*
X189245238Y-115633333D01*
X189150000Y-115728571D01*
X189102380Y-115871428D01*
X189102380Y-115966666D01*
X189150000Y-116109523D01*
X189197619Y-116157142D01*
X190102380Y-117109523D02*
X190102380Y-116538095D01*
X190102380Y-116823809D02*
X189102380Y-116823809D01*
X189245238Y-116728571D01*
X189340476Y-116633333D01*
X189388095Y-116538095D01*
X189102380Y-117442857D02*
X189102380Y-118109523D01*
X190102380Y-117680952D01*
X201407142Y-59307142D02*
X201454761Y-59259523D01*
X201502380Y-59116666D01*
X201502380Y-59021428D01*
X201454761Y-58878571D01*
X201359523Y-58783333D01*
X201264285Y-58735714D01*
X201073809Y-58688095D01*
X200930952Y-58688095D01*
X200740476Y-58735714D01*
X200645238Y-58783333D01*
X200550000Y-58878571D01*
X200502380Y-59021428D01*
X200502380Y-59116666D01*
X200550000Y-59259523D01*
X200597619Y-59307142D01*
X201502380Y-60259523D02*
X201502380Y-59688095D01*
X201502380Y-59973809D02*
X200502380Y-59973809D01*
X200645238Y-59878571D01*
X200740476Y-59783333D01*
X200788095Y-59688095D01*
X200502380Y-60878571D02*
X200502380Y-60973809D01*
X200550000Y-61069047D01*
X200597619Y-61116666D01*
X200692857Y-61164285D01*
X200883333Y-61211904D01*
X201121428Y-61211904D01*
X201311904Y-61164285D01*
X201407142Y-61116666D01*
X201454761Y-61069047D01*
X201502380Y-60973809D01*
X201502380Y-60878571D01*
X201454761Y-60783333D01*
X201407142Y-60735714D01*
X201311904Y-60688095D01*
X201121428Y-60640476D01*
X200883333Y-60640476D01*
X200692857Y-60688095D01*
X200597619Y-60735714D01*
X200550000Y-60783333D01*
X200502380Y-60878571D01*
X190966666Y-72107142D02*
X191014285Y-72154761D01*
X191157142Y-72202380D01*
X191252380Y-72202380D01*
X191395238Y-72154761D01*
X191490476Y-72059523D01*
X191538095Y-71964285D01*
X191585714Y-71773809D01*
X191585714Y-71630952D01*
X191538095Y-71440476D01*
X191490476Y-71345238D01*
X191395238Y-71250000D01*
X191252380Y-71202380D01*
X191157142Y-71202380D01*
X191014285Y-71250000D01*
X190966666Y-71297619D01*
X190109523Y-71535714D02*
X190109523Y-72202380D01*
X190347619Y-71154761D02*
X190585714Y-71869047D01*
X189966666Y-71869047D01*
X182016666Y-79907142D02*
X182064285Y-79954761D01*
X182207142Y-80002380D01*
X182302380Y-80002380D01*
X182445238Y-79954761D01*
X182540476Y-79859523D01*
X182588095Y-79764285D01*
X182635714Y-79573809D01*
X182635714Y-79430952D01*
X182588095Y-79240476D01*
X182540476Y-79145238D01*
X182445238Y-79050000D01*
X182302380Y-79002380D01*
X182207142Y-79002380D01*
X182064285Y-79050000D01*
X182016666Y-79097619D01*
X181683333Y-79002380D02*
X181064285Y-79002380D01*
X181397619Y-79383333D01*
X181254761Y-79383333D01*
X181159523Y-79430952D01*
X181111904Y-79478571D01*
X181064285Y-79573809D01*
X181064285Y-79811904D01*
X181111904Y-79907142D01*
X181159523Y-79954761D01*
X181254761Y-80002380D01*
X181540476Y-80002380D01*
X181635714Y-79954761D01*
X181683333Y-79907142D01*
X163157142Y-79133333D02*
X163204761Y-79085714D01*
X163252380Y-78942857D01*
X163252380Y-78847619D01*
X163204761Y-78704761D01*
X163109523Y-78609523D01*
X163014285Y-78561904D01*
X162823809Y-78514285D01*
X162680952Y-78514285D01*
X162490476Y-78561904D01*
X162395238Y-78609523D01*
X162300000Y-78704761D01*
X162252380Y-78847619D01*
X162252380Y-78942857D01*
X162300000Y-79085714D01*
X162347619Y-79133333D01*
X162347619Y-79514285D02*
X162300000Y-79561904D01*
X162252380Y-79657142D01*
X162252380Y-79895238D01*
X162300000Y-79990476D01*
X162347619Y-80038095D01*
X162442857Y-80085714D01*
X162538095Y-80085714D01*
X162680952Y-80038095D01*
X163252380Y-79466666D01*
X163252380Y-80085714D01*
X187607142Y-80083333D02*
X187654761Y-80035714D01*
X187702380Y-79892857D01*
X187702380Y-79797619D01*
X187654761Y-79654761D01*
X187559523Y-79559523D01*
X187464285Y-79511904D01*
X187273809Y-79464285D01*
X187130952Y-79464285D01*
X186940476Y-79511904D01*
X186845238Y-79559523D01*
X186750000Y-79654761D01*
X186702380Y-79797619D01*
X186702380Y-79892857D01*
X186750000Y-80035714D01*
X186797619Y-80083333D01*
X187702380Y-81035714D02*
X187702380Y-80464285D01*
X187702380Y-80750000D02*
X186702380Y-80750000D01*
X186845238Y-80654761D01*
X186940476Y-80559523D01*
X186988095Y-80464285D01*
M02*
