G04 #@! TF.GenerationSoftware,KiCad,Pcbnew,5.1.5+dfsg1-2build2*
G04 #@! TF.CreationDate,2021-11-13T09:19:55+00:00*
G04 #@! TF.ProjectId,psion-org2-main,7073696f-6e2d-46f7-9267-322d6d61696e,rev?*
G04 #@! TF.SameCoordinates,Original*
G04 #@! TF.FileFunction,Profile,NP*
%FSLAX46Y46*%
G04 Gerber Fmt 4.6, Leading zero omitted, Abs format (unit mm)*
G04 Created by KiCad (PCBNEW 5.1.5+dfsg1-2build2) date 2021-11-13 09:19:55*
%MOMM*%
%LPD*%
G04 APERTURE LIST*
%ADD10C,0.050000*%
G04 APERTURE END LIST*
D10*
X195100000Y-55700000D02*
X175300000Y-55700000D01*
X205600000Y-55700000D02*
X201600000Y-55700000D01*
X195100000Y-57200000D02*
X195100000Y-55700000D01*
X201600000Y-57200000D02*
X195100000Y-57200000D01*
X201600000Y-55700000D02*
X201600000Y-57200000D01*
X171300000Y-55700000D02*
X151300000Y-55700000D01*
X141000000Y-55700000D02*
X144800000Y-55700000D01*
X151300000Y-57200000D02*
X151300000Y-55700000D01*
X144800000Y-57200000D02*
X151300000Y-57200000D01*
X144800000Y-55700000D02*
X144800000Y-57200000D01*
X195600000Y-151700000D02*
G75*
G03X195600000Y-151700000I-1100000J0D01*
G01*
X153600000Y-151700000D02*
G75*
G03X153600000Y-151700000I-1100000J0D01*
G01*
X195600000Y-109700000D02*
G75*
G03X195600000Y-109700000I-1100000J0D01*
G01*
X153600000Y-109700000D02*
G75*
G03X153600000Y-109700000I-1100000J0D01*
G01*
X155100000Y-96200000D02*
G75*
G03X155100000Y-96200000I-2600000J0D01*
G01*
X186400000Y-120100000D02*
G75*
G03X186400000Y-120100000I-2600000J0D01*
G01*
X166500000Y-93900000D02*
X166500000Y-89900000D01*
X170500000Y-93900000D02*
X166500000Y-93900000D01*
X170500000Y-89900000D02*
X170500000Y-93900000D01*
X166500000Y-89900000D02*
X170500000Y-89900000D01*
X175300000Y-59700000D02*
X171300000Y-59700000D01*
X175300000Y-55700000D02*
X175300000Y-59700000D01*
X205600000Y-59200000D02*
X205600000Y-55700000D01*
X171300000Y-55700000D02*
X171300000Y-59700000D01*
X208300000Y-59200000D02*
X205600000Y-59200000D01*
X208300000Y-89200000D02*
X208300000Y-59200000D01*
X206300000Y-89200000D02*
X208300000Y-89200000D01*
X141000000Y-59200000D02*
X141000000Y-55700000D01*
X138300000Y-59200000D02*
X141000000Y-59200000D01*
X138300000Y-89200000D02*
X138300000Y-59200000D01*
X140300000Y-89200000D02*
X138300000Y-89200000D01*
X206300000Y-161700000D02*
X206300000Y-89200000D01*
X140300000Y-161700000D02*
X206300000Y-161700000D01*
X140300000Y-89200000D02*
X140300000Y-161700000D01*
M02*
